<svg width="104" height="104" viewBox="0 0 128 128" fill="none" xmlns="http://www.w3.org/2000/svg">
<circle cx="64" cy="64" r="63.4658" fill="#076568"/>
<path d="M95.1225 61.3087V67.4791C92.7385 67.4791 90.7979 69.4228 90.7979 71.8169V81.7595C90.7979 87.1154 86.4487 91.4656 81.1076 91.4656H67.641L71.3372 85.2952H81.1076C83.0543 85.2952 84.6375 83.7094 84.6375 81.7595V71.8169C84.6375 68.9168 85.8142 66.3005 87.7054 64.3939C85.8142 62.4934 84.6375 59.871 84.6375 56.9771V46.8835C84.6375 44.9398 83.0543 43.354 81.1076 43.354H70.8875C68.9408 43.354 67.3576 44.9398 67.3576 46.8835L67.3576 61.3087H76.4257V67.4791H67.3576V81.7595C67.3576 87.1154 63.0145 91.4656 57.6735 91.4656H47.4534C42.1123 91.4656 37.7631 87.1154 37.7631 81.7595V71.8169C37.7631 69.4228 35.8226 67.4791 33.4385 67.4791V61.3087C35.8226 61.3087 37.7631 59.365 37.7631 56.9771L37.7631 46.8835C37.7631 41.5337 42.1123 37.1836 47.4534 37.1836L60.92 37.1836L57.2238 43.354H47.4534C45.5067 43.354 43.9235 44.9398 43.9235 46.8835L43.9235 56.9771C43.9235 59.871 42.7468 62.4934 40.8556 64.3939C42.7468 66.3005 43.9235 68.9168 43.9235 71.8169V81.7595C43.9235 83.7094 45.5067 85.2952 47.4534 85.2952H57.6735C59.614 85.2952 61.1972 83.7094 61.1972 81.7595L61.1972 46.8835C61.1972 41.5337 65.5465 37.1836 70.8875 37.1836H81.1076C86.4487 37.1836 90.7979 41.5337 90.7979 46.8835L90.7979 56.9771C90.7979 59.365 92.7385 61.3087 95.1225 61.3087Z" fill="black"/>
</svg>
