<svg width="104" height="104" viewBox="0 0 104 104" fill="none" xmlns="http://www.w3.org/2000/svg">
<path d="M104 52C104 80.7188 80.7188 104 52 104C23.2812 104 0 80.7188 0 52C0 23.2812 23.2812 0 52 0C80.7188 0 104 23.2812 104 52Z" fill="#A1A1A1"/>
<path d="M78.8129 48.6555V53.9385C76.7717 53.9385 75.1102 55.6026 75.1102 57.6524V66.1652C75.1102 70.7508 71.3865 74.4753 66.8135 74.4753H55.2836L58.4483 69.1923H66.8135C68.4803 69.1923 69.8358 67.8346 69.8358 66.1652V57.6524C69.8358 55.1694 70.8432 52.9294 72.4624 51.297C70.8432 49.6698 69.8358 47.4246 69.8358 44.9468V36.3049C69.8358 34.6407 68.4803 33.283 66.8135 33.283H58.0633C56.3965 33.283 55.041 34.6407 55.041 36.3049L55.041 48.6555H62.805V53.9385H55.041V66.1652C55.041 70.7508 51.3225 74.4753 46.7496 74.4753H37.9993C33.4264 74.4753 29.7026 70.7508 29.7026 66.1652V57.6524C29.7026 55.6026 28.0412 53.9385 26 53.9385V48.6555C28.0412 48.6555 29.7026 46.9914 29.7026 44.9468L29.7026 36.3049C29.7026 31.7245 33.4264 28 37.9993 28H49.5292L46.3646 33.283H37.9993C36.3326 33.283 34.9771 34.6407 34.9771 36.3049L34.9771 44.9468C34.9771 47.4246 33.9697 49.6698 32.3504 51.297C33.9697 52.9294 34.9771 55.1694 34.9771 57.6524V66.1652C34.9771 67.8346 36.3326 69.1923 37.9993 69.1923H46.7496C48.411 69.1923 49.7666 67.8346 49.7666 66.1652L49.7666 36.3049C49.7666 31.7245 53.4903 28 58.0633 28H66.8135C71.3865 28 75.1102 31.7245 75.1102 36.3049L75.1102 44.9468C75.1102 46.9914 76.7717 48.6555 78.8129 48.6555Z" fill="#F1F1F1"/>
</svg>
