<svg width="104" height="104" viewBox="0 0 104 104" fill="none" xmlns="http://www.w3.org/2000/svg">
<circle cx="52" cy="52" r="51.861" fill="#30EDE6" stroke="white" stroke-width="0.278075"/>
<path d="M77.5001 49.291V54.3467C75.5467 54.3467 73.9568 55.9392 73.9568 57.9008V66.0472C73.9568 70.4355 70.3933 73.9997 66.0171 73.9997H54.9834L58.0119 68.9441H66.0171C67.6121 68.9441 68.9093 67.6448 68.9093 66.0472V57.9008C68.9093 55.5246 69.8734 53.381 71.423 51.8189C69.8734 50.2617 68.9093 48.1131 68.9093 45.742V37.4719C68.9093 35.8794 67.6121 34.5801 66.0171 34.5801H57.6434C56.0484 34.5801 54.7512 35.8794 54.7512 37.4719L54.7512 49.291L62.1811 49.291L62.1811 54.3467L54.7512 54.3467L54.7512 66.0472C54.7512 70.4355 51.1928 73.9997 46.8166 73.9997H38.4429C34.0668 73.9997 30.5033 70.4355 30.5033 66.0472L30.5033 57.9008C30.5033 55.9392 28.9133 54.3467 26.96 54.3467V49.291C28.9133 49.291 30.5033 47.6985 30.5033 45.742L30.5033 37.4719C30.5033 33.0886 34.0668 29.5244 38.4429 29.5244H49.4766L46.4482 34.5801H38.4429C36.8479 34.5801 35.5507 35.8794 35.5507 37.4719L35.5507 45.742C35.5507 48.1131 34.5867 50.2617 33.0371 51.8189C34.5867 53.381 35.5507 55.5246 35.5507 57.9008V66.0472C35.5507 67.6448 36.8479 68.9441 38.4429 68.9441H46.8166C48.4066 68.9441 49.7038 67.6448 49.7038 66.0472L49.7038 37.4719C49.7038 33.0886 53.2673 29.5244 57.6434 29.5244L66.0171 29.5244C70.3933 29.5244 73.9568 33.0886 73.9568 37.4719L73.9568 45.742C73.9568 47.6985 75.5467 49.291 77.5001 49.291Z" fill="black"/>
</svg>
