<svg width="572" height="572" viewBox="0 0 572 572" fill="none" xmlns="http://www.w3.org/2000/svg">
<circle opacity="0.4" cx="286" cy="286" r="285.476" stroke="white" stroke-width="1.04762" stroke-dasharray="6.72 6.72"/>
<circle opacity="0.5" cx="286" cy="286" r="169" stroke="white" stroke-width="3" stroke-dasharray="3.26 3.26"/>
<circle opacity="0.4" cx="286.001" cy="286" r="117.684" stroke="white" stroke-width="0.631013"/>
<circle cx="424.259" cy="539.259" r="20.3421" stroke="white" stroke-width="0.797731"/>
<circle cx="424.259" cy="539.259" r="13.4505" fill="#30EDE6" stroke="white" stroke-width="0.221829"/>
<circle cx="191.866" cy="396.593" r="9.00667" fill="#30EDE6" stroke="white" stroke-width="0.14854"/>
<path d="M402.586 208.339C406.508 205.902 411.582 208.722 411.582 213.34V361.214C411.582 364.466 408.946 367.102 405.694 367.103H162.336C159.073 367.103 156.432 364.449 156.447 361.186L157.146 216.016C157.168 211.447 162.158 208.643 166.071 211L280.233 279.752C282.548 281.146 285.45 281.127 287.745 279.7L402.586 208.339Z" fill="url(#paint0_radial_1205_8031)" stroke="url(#paint1_linear_1205_8031)" stroke-width="1.30855"/>
<path d="M281.405 280.922C283.064 281.768 285.025 281.78 286.694 280.954L409.801 220.009C413.913 217.974 414.22 212.225 410.349 209.763L290.527 133.573C289.583 132.972 288.486 132.654 287.367 132.654H285.912C284.809 132.654 283.728 132.964 282.793 133.548L161.149 209.525C157.267 211.95 157.514 217.683 161.591 219.764L281.405 280.922Z" fill="black" stroke="url(#paint2_linear_1205_8031)" stroke-width="1.30855"/>
<circle cx="144.729" cy="157.679" r="14.0063" fill="#00A6A6"/>
<circle cx="171.094" cy="172.509" r="9.06289" fill="#30EDE6"/>
<circle cx="487" cy="81" r="5" fill="#30EDE6"/>
<rect x="92" y="107" width="131" height="51" rx="25.5" fill="url(#paint3_linear_1205_8031)"/>
<path d="M146.96 143V124.968H149.256V133.088H158.776V124.968H161.072V143H158.776V134.88H149.256V143H146.96ZM164.969 126.62V124.52H167.517V126.62H164.969ZM165.193 143V131.548H163.149L163.373 129.728H167.489V143H165.193Z" fill="black"/>
<path d="M198 182.5H379C384.247 182.5 388.5 186.753 388.5 192V229.688L287.743 279.351C285.072 280.667 281.938 280.656 279.277 279.318L188.5 233.691V192C188.5 186.753 192.753 182.5 198 182.5Z" fill="black" stroke="url(#paint4_linear_1205_8031)"/>
<rect opacity="0.4" x="239" y="207" width="90" height="3" rx="1.5" fill="#30EDE6"/>
<rect opacity="0.2" x="255" y="223" width="58" height="3" rx="1.5" fill="#30EDE6"/>
<defs>
<radialGradient id="paint0_radial_1205_8031" cx="0" cy="0" r="1" gradientUnits="userSpaceOnUse" gradientTransform="translate(286 359.807) rotate(90) scale(161.192 248.769)">
<stop stop-color="#30EDE6"/>
<stop offset="1"/>
</radialGradient>
<linearGradient id="paint1_linear_1205_8031" x1="144.022" y1="193.654" x2="285.999" y2="368.999" gradientUnits="userSpaceOnUse">
<stop stop-color="#30EDE6"/>
<stop offset="0.668269" stop-color="#062B2A"/>
<stop offset="1" stop-color="#666666"/>
</linearGradient>
<linearGradient id="paint2_linear_1205_8031" x1="144.023" y1="224.252" x2="286" y2="48.9069" gradientUnits="userSpaceOnUse">
<stop stop-color="#30EDE6"/>
<stop offset="0.668269" stop-color="#062B2A"/>
<stop offset="1" stop-color="#666666"/>
</linearGradient>
<linearGradient id="paint3_linear_1205_8031" x1="157.5" y1="107" x2="195.5" y2="161.5" gradientUnits="userSpaceOnUse">
<stop stop-color="#30EDE6"/>
<stop offset="1" stop-color="#1B8783"/>
</linearGradient>
<linearGradient id="paint4_linear_1205_8031" x1="245.5" y1="182" x2="389" y2="208" gradientUnits="userSpaceOnUse">
<stop stop-color="#30EDE6"/>
<stop offset="0.5"/>
<stop offset="1" stop-color="#666666"/>
</linearGradient>
</defs>
</svg>
