<svg width="123" height="49" viewBox="0 0 123 49" fill="none" xmlns="http://www.w3.org/2000/svg">
<path d="M110.702 0.348999H111.78C115.686 0.348999 118.851 3.51498 118.852 7.42029V19.0629C118.852 20.4198 119.329 21.7303 120.194 22.7679L120.372 22.972L122.634 25.4398L120.546 27.5277L120.349 27.7357C119.388 28.797 118.852 30.1801 118.852 31.6185V41.4916C118.851 45.3968 115.686 48.5629 111.78 48.5629H10.5322V48.5541C6.77618 48.386 3.7824 45.2891 3.78223 41.4916V31.6185C3.78216 30.1803 3.24681 28.7969 2.28613 27.7357L2.08789 27.5277L0 25.4398L2.26172 22.972L2.44043 22.7679C3.30572 21.7303 3.78213 20.4196 3.78223 19.0629V7.42029C3.7823 3.62272 6.7761 0.524868 10.5322 0.356812V0.02771H110.701L110.702 0.348999ZM117.888 21.2416L117.928 21.2904C117.914 21.2492 117.901 21.2079 117.888 21.1664V21.2416Z" fill="#30EDE6"/>
</svg>
