<svg width="483" height="96" viewBox="0 0 483 96" fill="none" xmlns="http://www.w3.org/2000/svg">
<path opacity="0.7" d="M0.412 1.59999H38.824V14.8H14.932V40.54H33.676V53.74H14.932V94H0.412V1.59999ZM66.675 95.32C59.547 95.32 54.091 93.296 50.307 89.248C46.523 85.2 44.631 79.48 44.631 72.088V23.512C44.631 16.12 46.523 10.4 50.307 6.352C54.091 2.304 59.547 0.279995 66.675 0.279995C73.803 0.279995 79.259 2.304 83.043 6.352C86.827 10.4 88.719 16.12 88.719 23.512V72.088C88.719 79.48 86.827 85.2 83.043 89.248C79.259 93.296 73.803 95.32 66.675 95.32ZM66.675 82.12C71.691 82.12 74.199 79.084 74.199 73.012V22.588C74.199 16.516 71.691 13.48 66.675 13.48C61.659 13.48 59.151 16.516 59.151 22.588V73.012C59.151 79.084 61.659 82.12 66.675 82.12ZM98.4386 1.59999H119.955C127.435 1.59999 132.891 3.35999 136.323 6.88C139.755 10.312 141.471 15.636 141.471 22.852V28.528C141.471 38.12 138.303 44.192 131.967 46.744V47.008C135.487 48.064 137.951 50.22 139.359 53.476C140.855 56.732 141.603 61.088 141.603 66.544V82.78C141.603 85.42 141.691 87.576 141.867 89.248C142.043 90.832 142.483 92.416 143.187 94H128.403C127.875 92.504 127.523 91.096 127.347 89.776C127.171 88.456 127.083 86.08 127.083 82.648V65.752C127.083 61.528 126.379 58.58 124.971 56.908C123.651 55.236 121.319 54.4 117.975 54.4H112.959V94H98.4386V1.59999ZM118.239 41.2C121.143 41.2 123.299 40.452 124.707 38.956C126.203 37.46 126.951 34.952 126.951 31.432V24.304C126.951 20.96 126.335 18.54 125.103 17.044C123.959 15.548 122.111 14.8 119.559 14.8H112.959V41.2H118.239ZM172.169 95.32C165.129 95.32 159.761 93.34 156.065 89.38C152.369 85.332 150.521 79.568 150.521 72.088V23.512C150.521 16.032 152.369 10.312 156.065 6.352C159.761 2.304 165.129 0.279995 172.169 0.279995C179.209 0.279995 184.577 2.304 188.273 6.352C191.969 10.312 193.817 16.032 193.817 23.512V31.432H180.089V22.588C180.089 16.516 177.581 13.48 172.565 13.48C167.549 13.48 165.041 16.516 165.041 22.588V73.144C165.041 79.128 167.549 82.12 172.565 82.12C177.581 82.12 180.089 79.128 180.089 73.144V55.06H172.829V41.86H193.817V72.088C193.817 79.568 191.969 85.332 188.273 89.38C184.577 93.34 179.209 95.32 172.169 95.32ZM203.039 1.59999H242.639V14.8H217.559V39.22H237.491V52.42H217.559V80.8H242.639V94H203.039V1.59999ZM248.78 41.2H277.82V54.4H248.78V41.2ZM306.831 95.32C299.879 95.32 294.555 93.34 290.859 89.38C287.251 85.42 285.447 79.832 285.447 72.616V22.984C285.447 15.768 287.251 10.18 290.859 6.22C294.555 2.26 299.879 0.279995 306.831 0.279995C313.783 0.279995 319.063 2.26 322.671 6.22C326.367 10.18 328.215 15.768 328.215 22.984V32.752H314.487V22.06C314.487 16.34 312.067 13.48 307.227 13.48C302.387 13.48 299.967 16.34 299.967 22.06V73.672C299.967 79.304 302.387 82.12 307.227 82.12C312.067 82.12 314.487 79.304 314.487 73.672V59.548H328.215V72.616C328.215 79.832 326.367 85.42 322.671 89.38C319.063 93.34 313.783 95.32 306.831 95.32ZM358.048 95.32C350.92 95.32 345.464 93.296 341.68 89.248C337.896 85.2 336.004 79.48 336.004 72.088V23.512C336.004 16.12 337.896 10.4 341.68 6.352C345.464 2.304 350.92 0.279995 358.048 0.279995C365.176 0.279995 370.632 2.304 374.416 6.352C378.2 10.4 380.092 16.12 380.092 23.512V72.088C380.092 79.48 378.2 85.2 374.416 89.248C370.632 93.296 365.176 95.32 358.048 95.32ZM358.048 82.12C363.064 82.12 365.572 79.084 365.572 73.012V22.588C365.572 16.516 363.064 13.48 358.048 13.48C353.032 13.48 350.524 16.516 350.524 22.588V73.012C350.524 79.084 353.032 82.12 358.048 82.12ZM389.811 1.59999H411.987C419.203 1.59999 424.615 3.536 428.223 7.408C431.831 11.28 433.635 16.956 433.635 24.436V71.164C433.635 78.644 431.831 84.32 428.223 88.192C424.615 92.064 419.203 94 411.987 94H389.811V1.59999ZM411.723 80.8C414.099 80.8 415.903 80.096 417.135 78.688C418.455 77.28 419.115 74.992 419.115 71.824V23.776C419.115 20.608 418.455 18.32 417.135 16.912C415.903 15.504 414.099 14.8 411.723 14.8H404.331V80.8H411.723ZM443.336 1.59999H482.936V14.8H457.856V39.22H477.788V52.42H457.856V80.8H482.936V94H443.336V1.59999Z" fill="url(#paint0_radial_321_15462)"/>
<defs>
<radialGradient id="paint0_radial_321_15462" cx="0" cy="0" r="1" gradientUnits="userSpaceOnUse" gradientTransform="translate(276.5 -59.5) rotate(123.007) scale(209.276 1837.63)">
<stop stop-color="white"/>
<stop offset="1" stop-color="#373737"/>
</radialGradient>
</defs>
</svg>
