<svg width="545" height="103" viewBox="0 0 545 103" fill="none" xmlns="http://www.w3.org/2000/svg">
<path opacity="0.7" d="M23.974 102.42C16.4007 102.42 10.626 100.29 6.65 96.03C2.674 91.6753 0.686 85.4747 0.686 77.428V25.172C0.686 17.1253 2.674 10.972 6.65 6.712C10.626 2.35733 16.4007 0.179995 23.974 0.179995C31.5473 0.179995 37.322 2.35733 41.298 6.712C45.274 10.972 47.262 17.1253 47.262 25.172V33.692H32.494V24.178C32.494 17.646 29.796 14.38 24.4 14.38C19.004 14.38 16.306 17.646 16.306 24.178V78.564C16.306 85.0013 19.004 88.22 24.4 88.22C29.796 88.22 32.494 85.0013 32.494 78.564V59.11H24.684V44.91H47.262V77.428C47.262 85.4747 45.274 91.6753 41.298 96.03C37.322 100.29 31.5473 102.42 23.974 102.42ZM57.1908 1.59999H99.7908V15.8H72.8108V42.07H94.2528V56.27H72.8108V86.8H99.7908V101H57.1908V1.59999ZM120.889 15.8H104.559V1.59999H152.839V15.8H136.509V101H120.889V15.8ZM203.249 102.42C195.676 102.42 189.949 100.29 186.067 96.03C182.186 91.6753 180.245 85.4747 180.245 77.428V71.748H195.013V78.564C195.013 85.0013 197.711 88.22 203.107 88.22C205.758 88.22 207.746 87.4627 209.071 85.948C210.491 84.3387 211.201 81.7827 211.201 78.28C211.201 74.1147 210.255 70.47 208.361 67.346C206.468 64.1273 202.965 60.2933 197.853 55.844C191.416 50.164 186.919 45.052 184.363 40.508C181.807 35.8693 180.529 30.6627 180.529 24.888C180.529 17.0307 182.517 10.972 186.493 6.712C190.469 2.35733 196.244 0.179995 203.817 0.179995C211.296 0.179995 216.929 2.35733 220.715 6.712C224.597 10.972 226.537 17.1253 226.537 25.172V29.29H211.769V24.178C211.769 20.77 211.107 18.3087 209.781 16.794C208.456 15.1847 206.515 14.38 203.959 14.38C198.753 14.38 196.149 17.5513 196.149 23.894C196.149 27.4913 197.096 30.852 198.989 33.976C200.977 37.1 204.527 40.8867 209.639 45.336C216.171 51.016 220.668 56.1753 223.129 60.814C225.591 65.4527 226.821 70.896 226.821 77.144C226.821 85.2853 224.786 91.5333 220.715 95.888C216.739 100.243 210.917 102.42 203.249 102.42ZM247.889 15.8H231.559V1.59999H279.839V15.8H263.509V101H247.889V15.8ZM292.854 1.59999H314.012L330.2 101H314.58L311.74 81.262V81.546H293.99L291.15 101H276.666L292.854 1.59999ZM309.894 68.056L302.936 18.924H302.652L295.836 68.056H309.894ZM337.679 1.59999H360.825C368.871 1.59999 374.741 3.49333 378.433 7.28C382.125 10.972 383.971 16.6993 383.971 24.462V30.568C383.971 40.8867 380.563 47.4187 373.747 50.164V50.448C377.533 51.584 380.184 53.9033 381.699 57.406C383.308 60.9087 384.113 65.5947 384.113 71.464V88.93C384.113 91.77 384.207 94.0893 384.397 95.888C384.586 97.592 385.059 99.296 385.817 101H369.913C369.345 99.3907 368.966 97.876 368.777 96.456C368.587 95.036 368.493 92.48 368.493 88.788V70.612C368.493 66.068 367.735 62.8967 366.221 61.098C364.801 59.2993 362.292 58.4 358.695 58.4H353.299V101H337.679V1.59999ZM358.979 44.2C362.103 44.2 364.422 43.3953 365.937 41.786C367.546 40.1767 368.351 37.4787 368.351 33.692V26.024C368.351 22.4267 367.688 19.8233 366.363 18.214C365.132 16.6047 363.144 15.8 360.399 15.8H353.299V44.2H358.979ZM406.785 15.8H390.455V1.59999H438.735V15.8H422.405V101H406.785V15.8ZM446.197 1.59999H488.797V15.8H461.817V42.07H483.259V56.27H461.817V86.8H488.797V101H446.197V1.59999ZM497.683 1.59999H521.539C529.302 1.59999 535.124 3.68266 539.005 7.848C542.887 12.0133 544.827 18.1193 544.827 26.166V76.434C544.827 84.4807 542.887 90.5867 539.005 94.752C535.124 98.9173 529.302 101 521.539 101H497.683V1.59999ZM521.255 86.8C523.811 86.8 525.752 86.0427 527.077 84.528C528.497 83.0133 529.207 80.552 529.207 77.144V25.456C529.207 22.048 528.497 19.5867 527.077 18.072C525.752 16.5573 523.811 15.8 521.255 15.8H513.303V86.8H521.255Z" fill="url(#paint0_radial_321_15460)"/>
<defs>
<radialGradient id="paint0_radial_321_15460" cx="0" cy="0" r="1" gradientUnits="userSpaceOnUse" gradientTransform="translate(488.825 136) rotate(-154.376) scale(226.611 2065.98)">
<stop stop-color="white"/>
<stop offset="1" stop-color="#747474"/>
</radialGradient>
</defs>
</svg>
