<svg width="24" height="25" viewBox="0 0 24 25" fill="none" xmlns="http://www.w3.org/2000/svg">
<path d="M21 5H3C2.60218 5 2.22064 5.15804 1.93934 5.43934C1.65804 5.72064 1.5 6.10218 1.5 6.5V18.5C1.5 18.8978 1.65804 19.2794 1.93934 19.5607C2.22064 19.842 2.60218 20 3 20H21C21.3978 20 21.7794 19.842 22.0607 19.5607C22.342 19.2794 22.5 18.8978 22.5 18.5V6.5C22.5 6.10218 22.342 5.72064 22.0607 5.43934C21.7794 5.15804 21.3978 5 21 5ZM21 18.5H3V6.5H21V18.5ZM19.5 12.5C19.5 12.6989 19.421 12.8897 19.2803 13.0303C19.1397 13.171 18.9489 13.25 18.75 13.25H5.25C5.05109 13.25 4.86032 13.171 4.71967 13.0303C4.57902 12.8897 4.5 12.6989 4.5 12.5C4.5 12.3011 4.57902 12.1103 4.71967 11.9697C4.86032 11.829 5.05109 11.75 5.25 11.75H18.75C18.9489 11.75 19.1397 11.829 19.2803 11.9697C19.421 12.1103 19.5 12.3011 19.5 12.5ZM19.5 9.5C19.5 9.69891 19.421 9.88968 19.2803 10.0303C19.1397 10.171 18.9489 10.25 18.75 10.25H5.25C5.05109 10.25 4.86032 10.171 4.71967 10.0303C4.57902 9.88968 4.5 9.69891 4.5 9.5C4.5 9.30109 4.57902 9.11032 4.71967 8.96967C4.86032 8.82902 5.05109 8.75 5.25 8.75H18.75C18.9489 8.75 19.1397 8.82902 19.2803 8.96967C19.421 9.11032 19.5 9.30109 19.5 9.5ZM6.75 15.5C6.75 15.6989 6.67098 15.8897 6.53033 16.0303C6.38968 16.171 6.19891 16.25 6 16.25H5.25C5.05109 16.25 4.86032 16.171 4.71967 16.0303C4.57902 15.8897 4.5 15.6989 4.5 15.5C4.5 15.3011 4.57902 15.1103 4.71967 14.9697C4.86032 14.829 5.05109 14.75 5.25 14.75H6C6.19891 14.75 6.38968 14.829 6.53033 14.9697C6.67098 15.1103 6.75 15.3011 6.75 15.5ZM15.75 15.5C15.75 15.6989 15.671 15.8897 15.5303 16.0303C15.3897 16.171 15.1989 16.25 15 16.25H9C8.80109 16.25 8.61032 16.171 8.46967 16.0303C8.32902 15.8897 8.25 15.6989 8.25 15.5C8.25 15.3011 8.32902 15.1103 8.46967 14.9697C8.61032 14.829 8.80109 14.75 9 14.75H15C15.1989 14.75 15.3897 14.829 15.5303 14.9697C15.671 15.1103 15.75 15.3011 15.75 15.5ZM19.5 15.5C19.5 15.6989 19.421 15.8897 19.2803 16.0303C19.1397 16.171 18.9489 16.25 18.75 16.25H18C17.8011 16.25 17.6103 16.171 17.4697 16.0303C17.329 15.8897 17.25 15.6989 17.25 15.5C17.25 15.3011 17.329 15.1103 17.4697 14.9697C17.6103 14.829 17.8011 14.75 18 14.75H18.75C18.9489 14.75 19.1397 14.829 19.2803 14.9697C19.421 15.1103 19.5 15.3011 19.5 15.5Z" fill="white"/>
</svg>
