<svg width="104" height="104" viewBox="0 0 104 104" fill="none" xmlns="http://www.w3.org/2000/svg">
<path d="M52 0C80.7188 0 104 23.2812 104 52C104 80.7188 80.7188 104 52 104C23.2812 104 0 80.7188 0 52C0 23.2812 23.2812 0 52 0ZM36.5811 28C31.7866 28 27.882 31.9048 27.8818 36.707V45.7686C27.8816 47.9119 26.14 49.6562 24 49.6562V55.1953C26.1401 55.1953 27.8818 56.9407 27.8818 59.0898V68.0146C27.8818 72.8225 31.7865 76.7275 36.5811 76.7275H45.7549C50.5494 76.7275 54.4482 72.8225 54.4482 68.0146V55.1953H62.5889V49.6562H54.4482V36.707C54.4484 34.9624 55.8698 33.5391 57.6172 33.5391H66.791C68.5384 33.5391 69.9598 34.9624 69.96 36.707V45.7686C69.9601 48.3661 71.0164 50.7199 72.7139 52.4258C71.0162 54.1373 69.96 56.4865 69.96 59.0898V68.0146C69.96 69.765 68.5385 71.1885 66.791 71.1885H58.0205L54.7031 76.7275H66.791C71.5855 76.7275 75.4902 72.8225 75.4902 68.0146V59.0898C75.4902 56.9408 77.232 55.1954 79.3721 55.1953V49.6562C77.2322 49.6562 75.4905 47.9119 75.4902 45.7686V36.707C75.4901 31.9048 71.5855 28 66.791 28H57.6172C52.8228 28 48.9181 31.9048 48.918 36.707V68.0146C48.918 69.765 47.4968 71.1885 45.7549 71.1885H36.5811C34.8336 71.1885 33.4121 69.765 33.4121 68.0146V59.0898C33.4121 56.4865 32.3559 54.1373 30.6582 52.4258C32.3558 50.7199 33.412 48.3661 33.4121 45.7686V36.707C33.4123 34.9624 34.8337 33.5391 36.5811 33.5391H45.3516L48.6699 28H36.5811Z" fill="#018284"/>
</svg>
