<svg width="578" height="95" viewBox="0 0 578 95" fill="none" xmlns="http://www.w3.org/2000/svg">
<path d="M556.76 77.7303C552.5 77.7303 548.72 76.7703 545.42 74.8503C542.18 72.8703 539.63 70.1703 537.77 66.7503C535.91 63.2703 534.98 59.2503 534.98 54.6903V52.5303C534.98 48.3303 535.94 44.5803 537.86 41.2803C539.78 37.9803 542.39 35.3703 545.69 33.4503C549.05 31.5303 552.8 30.5703 556.94 30.5703C560.6 30.5703 563.75 31.2303 566.39 32.5503C569.09 33.8703 571.28 35.5503 572.96 37.5903C574.7 39.6303 575.96 41.8203 576.74 44.1603C577.58 46.4403 578 48.5703 578 50.5503V56.3103H542C542.18 60.6903 543.56 64.2603 546.14 67.0203C548.78 69.7203 552.38 71.0703 556.94 71.0703C561.2 71.0703 564.38 70.1703 566.48 68.3703C568.58 66.5703 570.02 64.4103 570.8 61.8903L577.46 63.6903C576.2 67.8303 573.86 71.2203 570.44 73.8603C567.08 76.4403 562.52 77.7303 556.76 77.7303ZM542.18 49.8303H570.98C570.86 47.2503 570.11 45.0303 568.73 43.1703C567.41 41.2503 565.7 39.7803 563.6 38.7603C561.5 37.7403 559.28 37.2303 556.94 37.2303C552.98 37.2303 549.65 38.4303 546.95 40.8303C544.25 43.2303 542.66 46.2303 542.18 49.8303Z" fill="white"/>
<path d="M530.52 76.46V13.46H523.5V38.84H522.42C520.98 36.02 518.91 33.95 516.21 32.63C513.57 31.25 510.72 30.56 507.66 30.56C503.82 30.56 500.28 31.46 497.04 33.26C493.86 35.06 491.28 37.67 489.3 41.09C487.38 44.45 486.42 48.56 486.42 53.42V54.86C486.42 59.72 487.38 63.86 489.3 67.28C491.22 70.7 493.8 73.31 497.04 75.11C500.28 76.85 503.88 77.72 507.84 77.72C510.54 77.72 513.27 77.06 516.03 75.74C518.85 74.42 520.98 72.38 522.42 69.62H523.5V83.48H533.33L537.54 76.46H530.52ZM521.52 63.32C520.2 65.78 518.4 67.7 516.12 69.08C513.9 70.4 511.38 71.06 508.56 71.06C505.74 71.06 503.19 70.4 500.91 69.08C498.63 67.76 496.83 65.9 495.51 63.5C494.25 61.04 493.62 58.16 493.62 54.86V53.42C493.62 50.18 494.28 47.36 495.6 44.96C496.92 42.5 498.69 40.61 500.91 39.29C503.19 37.91 505.74 37.22 508.56 37.22C511.38 37.22 513.81 37.94 516.03 39.38C518.31 40.76 520.11 42.68 521.43 45.14C522.81 47.6 523.5 50.42 523.5 53.6V54.68C523.5 57.98 522.84 60.86 521.52 63.32Z" fill="white"/>
<path d="M460.12 77.7303C456.16 77.7303 452.47 76.8303 449.05 75.0303C445.69 73.2303 442.96 70.6203 440.86 67.2003C438.76 63.7803 437.71 59.6103 437.71 54.6903V53.6103C437.71 48.7503 438.76 44.6103 440.86 41.1903C442.96 37.7103 445.69 35.0703 449.05 33.2703C452.47 31.4703 456.16 30.5703 460.12 30.5703C464.08 30.5703 467.74 31.4703 471.1 33.2703C474.52 35.0703 477.28 37.7103 479.38 41.1903C481.48 44.6103 482.53 48.7503 482.53 53.6103V54.6903C482.53 59.6103 481.48 63.7803 479.38 67.2003C477.28 70.6203 474.52 73.2303 471.1 75.0303C467.74 76.8303 464.08 77.7303 460.12 77.7303ZM460.12 71.0703C463 71.0703 465.58 70.4103 467.86 69.0903C470.14 67.7703 471.94 65.8803 473.26 63.4203C474.64 60.9603 475.33 58.0503 475.33 54.6903V53.6103C475.33 50.3703 474.64 47.5203 473.26 45.0603C471.94 42.6003 470.11 40.6803 467.77 39.3003C465.49 37.9203 462.94 37.2303 460.12 37.2303C457.3 37.2303 454.72 37.9203 452.38 39.3003C450.1 40.6803 448.27 42.6003 446.89 45.0603C445.57 47.5203 444.91 50.3703 444.91 53.6103V54.6903C444.91 58.0503 445.57 60.9603 446.89 63.4203C448.27 65.8803 450.1 67.7703 452.38 69.0903C454.72 70.4103 457.3 71.0703 460.12 71.0703Z" fill="white"/>
<path d="M412.229 77.7303C408.089 77.7303 404.279 76.8603 400.799 75.1203C397.319 73.3203 394.499 70.7103 392.339 67.2903C390.239 63.8703 389.189 59.7303 389.189 54.8703V53.7903C389.189 48.9903 390.239 44.8503 392.339 41.3703C394.499 37.8903 397.319 35.2203 400.799 33.3603C404.279 31.5003 408.089 30.5703 412.229 30.5703C416.009 30.5703 419.369 31.3203 422.309 32.8203C425.309 34.2603 427.739 36.2703 429.599 38.8503C431.519 41.4303 432.749 44.3703 433.289 47.6703L426.269 49.2903C426.029 47.1903 425.339 45.2403 424.199 43.4403C423.059 41.5803 421.469 40.0803 419.429 38.9403C417.449 37.8003 414.989 37.2303 412.049 37.2303C409.109 37.2303 406.529 37.9503 404.129 39.3903C401.789 40.7703 399.899 42.7203 398.459 45.2403C397.079 47.7003 396.389 50.5503 396.389 53.7903V54.8703C396.389 58.2303 397.079 61.1403 398.459 63.6003C399.899 66.0003 401.819 67.8603 404.219 69.1803C406.619 70.4403 409.289 71.0703 412.229 71.0703C415.169 71.0703 417.629 70.5003 419.609 69.3603C421.649 68.1603 423.209 66.6603 424.289 64.8603C425.429 63.0003 426.149 61.0503 426.449 59.0103L433.469 60.6303C432.869 63.9303 431.639 66.8703 429.779 69.4503C427.919 72.0303 425.489 74.0703 422.489 75.5703C419.549 77.0103 416.129 77.7303 412.229 77.7303Z" fill="white"/>
<path d="M346.89 77.7303C342.45 77.7303 338.52 76.8003 335.1 74.9403C331.68 73.0203 329.01 70.2903 327.09 66.7503C325.17 63.2103 324.21 58.9503 324.21 53.9703V53.4303C324.21 48.8703 325.23 44.8803 327.27 41.4603C329.31 38.0403 332.01 35.3703 335.37 33.4503C338.79 31.5303 342.57 30.5703 346.71 30.5703C350.55 30.5703 353.85 31.2303 356.61 32.5503C359.37 33.8703 361.62 35.5803 363.36 37.6803C365.16 39.7803 366.48 42.0903 367.32 44.6103C368.22 47.0703 368.67 49.4703 368.67 51.8103V57.8403H335.91C336.03 60.4803 337.14 62.6703 339.24 64.4103C341.34 66.0903 343.83 66.9303 346.71 66.9303C349.59 66.9303 351.69 66.4203 353.19 65.4003C354.75 64.3803 355.83 63.2103 356.43 61.8903L366.15 67.2903C365.49 68.7903 364.38 70.3503 362.82 71.9703C361.32 73.5903 359.28 74.9703 356.7 76.1103C354.12 77.1903 350.85 77.7303 346.89 77.7303ZM336.09 48.1203H357.15C356.79 46.0203 355.65 44.2803 353.73 42.9003C351.87 41.5203 349.5 40.8303 346.62 40.8303C343.74 40.8303 341.46 41.5803 339.6 43.0803C337.8 44.5203 336.63 46.2003 336.09 48.1203Z" fill="white"/>
<path d="M282.82 94.4703L289.33 83.6703H306.04C307.66 83.6703 308.47 82.7703 308.47 80.9703V69.9903H306.85C305.95 71.9703 304.45 73.7703 302.35 75.3903C300.31 76.9503 297.16 77.7303 292.9 77.7303C289.24 77.7303 285.94 76.8603 283 75.1203C280.06 73.3203 277.72 70.7403 275.98 67.3803C274.24 63.9603 273.37 59.8203 273.37 54.9603V53.3403C273.37 48.5403 274.27 44.4603 276.07 41.1003C277.93 37.6803 280.36 35.0703 283.36 33.2703C286.42 31.4703 289.75 30.5703 293.35 30.5703C296.95 30.5703 299.8 31.2603 301.9 32.6403C304.06 33.9603 305.71 35.8503 306.85 38.3103H308.47V31.8303H319.81V87.4503C319.81 89.4903 319.15 91.1703 317.83 92.4903C316.57 93.8103 314.92 94.4703 312.88 94.4703H282.82ZM296.59 66.9303C300.13 66.9303 302.98 65.8203 305.14 63.6003C307.36 61.3203 308.47 58.3503 308.47 54.6903V53.6103C308.47 49.9503 307.36 47.0103 305.14 44.7903C302.98 42.5103 300.13 41.3703 296.59 41.3703C293.05 41.3703 290.26 42.4803 288.04 44.7003C285.82 46.9203 284.71 49.8903 284.71 53.6103V54.6903C284.71 58.4103 285.82 61.3803 288.04 63.6003C290.26 65.8203 293.11 66.9303 296.59 66.9303Z" fill="white"/>
<path d="M221.45 76.4703L227.83 65.6703H230.63V42.6303H222.53V31.8303H241.43V38.3103H243.05C243.89 35.8503 245.33 33.9603 247.37 32.6403C249.41 31.2603 251.81 30.5703 254.57 30.5703C259.01 30.5703 262.58 31.9803 265.28 34.8003C267.98 37.5603 269.33 41.7903 269.33 47.4903V49.4703L257.63 50.5503V49.2903C257.63 46.8303 257 44.8803 255.74 43.4403C254.48 41.9403 252.59 41.1903 250.07 41.1903C247.55 41.1903 245.57 42.0603 244.13 43.8003C242.69 45.5403 241.97 48.0303 241.97 51.2703V65.6703H252.23V76.4703H221.45Z" fill="white"/>
<path d="M195.159 77.7303C191.079 77.7303 187.269 76.8303 183.729 75.0303C180.189 73.2303 177.339 70.6203 175.179 67.2003C173.019 63.7803 171.939 59.6103 171.939 54.6903V53.6103C171.939 48.7503 173.019 44.6103 175.179 41.1903C177.339 37.7103 180.189 35.0703 183.729 33.2703C187.269 31.4703 191.079 30.5703 195.159 30.5703C199.239 30.5703 203.049 31.4703 206.589 33.2703C210.129 35.0703 212.979 37.7103 215.139 41.1903C217.299 44.6103 218.379 48.7503 218.379 53.6103V54.6903C218.379 59.6103 217.299 63.7803 215.139 67.2003C212.979 70.6203 210.129 73.2303 206.589 75.0303C203.049 76.8303 199.239 77.7303 195.159 77.7303ZM195.159 66.9303C198.459 66.9303 201.249 65.8803 203.529 63.7803C205.869 61.6203 207.039 58.7103 207.039 55.0503V53.2503C207.039 49.5303 205.869 46.6203 203.529 44.5203C201.249 42.4203 198.459 41.3703 195.159 41.3703C191.859 41.3703 189.039 42.4203 186.699 44.5203C184.419 46.6203 183.279 49.5303 183.279 53.2503V55.0503C183.279 58.7103 184.419 61.6203 186.699 63.7803C189.039 65.8803 191.859 66.9303 195.159 66.9303Z" fill="white"/>
<path d="M128 76.4697V13.4697H168.32V24.8097H139.88V39.2097H165.47V50.5497H139.88V76.4697H128Z" fill="white"/>
<path d="M100 39.1107V49.114C96.135 49.114 92.9891 52.265 92.9891 56.1462V72.2649C92.9891 80.9477 85.9383 88 77.2795 88H55.4479L61.4401 77.9968H77.2795C80.4354 77.9968 83.0021 75.4259 83.0021 72.2649V56.1462C83.0021 51.4447 84.9096 47.2034 87.9756 44.1124C84.9096 41.0314 83.0021 36.78 83.0021 32.0885V15.7251C83.0021 12.5741 80.4354 10.0032 77.2795 10.0032H60.7111C57.5552 10.0032 54.9885 12.5741 54.9885 15.7251L54.9885 39.1107H69.6894V49.114H54.9885V72.2649C54.9885 80.9477 47.9477 88 39.2889 88H22.7205C14.0617 88 7.01089 80.9477 7.01089 72.2649V56.1462C7.01089 52.265 3.86498 49.114 0 49.114V39.1107C3.86498 39.1107 7.01089 35.9597 7.01089 32.0885L7.01088 15.7251C7.01088 7.05228 14.0617 0 22.7205 0H44.5521L38.5599 10.0032H22.7205C19.5646 10.0032 16.9979 12.5741 16.9979 15.7251L16.9979 32.0885C16.9979 36.78 15.0904 41.0314 12.0244 44.1124C15.0904 47.2034 16.9979 51.4447 16.9979 56.1462V72.2649C16.9979 75.4259 19.5646 77.9968 22.7205 77.9968H39.2889C42.4348 77.9968 45.0015 75.4259 45.0015 72.2649L45.0015 15.7251C45.0015 7.05228 52.0523 0 60.7111 0H77.2795C85.9383 0 92.9891 7.05228 92.9891 15.7251L92.9891 32.0885C92.9891 35.9597 96.135 39.1107 100 39.1107Z" fill="white"/>
</svg>
