<svg width="543" height="96" viewBox="0 0 543 96" fill="none" xmlns="http://www.w3.org/2000/svg">
<path opacity="0.7" d="M22.4 95.32C15.272 95.32 9.816 93.296 6.032 89.248C2.248 85.2 0.356 79.48 0.356 72.088V23.512C0.356 16.12 2.248 10.4 6.032 6.352C9.816 2.304 15.272 0.279995 22.4 0.279995C29.528 0.279995 34.984 2.304 38.768 6.352C42.552 10.4 44.444 16.12 44.444 23.512V72.088C44.444 79.48 42.552 85.2 38.768 89.248C34.984 93.296 29.528 95.32 22.4 95.32ZM22.4 82.12C27.416 82.12 29.924 79.084 29.924 73.012V22.588C29.924 16.516 27.416 13.48 22.4 13.48C17.384 13.48 14.876 16.516 14.876 22.588V73.012C14.876 79.084 17.384 82.12 22.4 82.12ZM54.1636 1.59999H75.5476C82.7636 1.59999 88.1756 3.536 91.7836 7.408C95.3916 11.28 97.1956 16.956 97.1956 24.436V33.544C97.1956 41.024 95.3916 46.7 91.7836 50.572C88.1756 54.444 82.7636 56.38 75.5476 56.38H68.6836V94H54.1636V1.59999ZM75.5476 43.18C77.9236 43.18 79.6836 42.52 80.8276 41.2C82.0596 39.88 82.6756 37.636 82.6756 34.468V23.512C82.6756 20.344 82.0596 18.1 80.8276 16.78C79.6836 15.46 77.9236 14.8 75.5476 14.8H68.6836V43.18H75.5476ZM104.982 1.59999H144.582V14.8H119.502V39.22H139.434V52.42H119.502V80.8H144.582V94H104.982V1.59999ZM152.835 1.59999H171.051L185.175 56.908H185.439V1.59999H198.375V94H183.459L166.035 26.548H165.771V94H152.835V1.59999ZM206.955 41.2H235.995V54.4H206.955V41.2ZM263.421 95.32C256.381 95.32 251.057 93.34 247.449 89.38C243.841 85.332 242.037 79.568 242.037 72.088V66.808H255.765V73.144C255.765 79.128 258.273 82.12 263.289 82.12C265.753 82.12 267.601 81.416 268.833 80.008C270.153 78.512 270.813 76.136 270.813 72.88C270.813 69.008 269.933 65.62 268.173 62.716C266.413 59.724 263.157 56.16 258.405 52.024C252.421 46.744 248.241 41.992 245.865 37.768C243.489 33.456 242.301 28.616 242.301 23.248C242.301 15.944 244.149 10.312 247.845 6.352C251.541 2.304 256.909 0.279995 263.949 0.279995C270.901 0.279995 276.137 2.304 279.657 6.352C283.265 10.312 285.069 16.032 285.069 23.512V27.34H271.341V22.588C271.341 19.42 270.725 17.132 269.493 15.724C268.261 14.228 266.457 13.48 264.081 13.48C259.241 13.48 256.821 16.428 256.821 22.324C256.821 25.668 257.701 28.792 259.461 31.696C261.309 34.6 264.609 38.12 269.361 42.256C275.433 47.536 279.613 52.332 281.901 56.644C284.189 60.956 285.333 66.016 285.333 71.824C285.333 79.392 283.441 85.2 279.657 89.248C275.961 93.296 270.549 95.32 263.421 95.32ZM314.546 95.32C307.418 95.32 301.962 93.296 298.178 89.248C294.394 85.2 292.502 79.48 292.502 72.088V23.512C292.502 16.12 294.394 10.4 298.178 6.352C301.962 2.304 307.418 0.279995 314.546 0.279995C321.674 0.279995 327.13 2.304 330.914 6.352C334.698 10.4 336.59 16.12 336.59 23.512V72.088C336.59 79.48 334.698 85.2 330.914 89.248C327.13 93.296 321.674 95.32 314.546 95.32ZM314.546 82.12C319.562 82.12 322.07 79.084 322.07 73.012V22.588C322.07 16.516 319.562 13.48 314.546 13.48C309.53 13.48 307.022 16.516 307.022 22.588V73.012C307.022 79.084 309.53 82.12 314.546 82.12ZM367.43 95.32C360.39 95.32 355.022 93.34 351.326 89.38C347.63 85.332 345.782 79.568 345.782 72.088V1.59999H360.302V73.144C360.302 76.312 360.918 78.6 362.15 80.008C363.47 81.416 365.318 82.12 367.694 82.12C370.07 82.12 371.874 81.416 373.106 80.008C374.426 78.6 375.086 76.312 375.086 73.144V1.59999H389.078V72.088C389.078 79.568 387.23 85.332 383.534 89.38C379.838 93.34 374.47 95.32 367.43 95.32ZM399.319 1.59999H420.835C428.315 1.59999 433.771 3.35999 437.203 6.88C440.635 10.312 442.351 15.636 442.351 22.852V28.528C442.351 38.12 439.183 44.192 432.847 46.744V47.008C436.367 48.064 438.831 50.22 440.239 53.476C441.735 56.732 442.483 61.088 442.483 66.544V82.78C442.483 85.42 442.571 87.576 442.747 89.248C442.923 90.832 443.363 92.416 444.067 94H429.283C428.755 92.504 428.403 91.096 428.227 89.776C428.051 88.456 427.963 86.08 427.963 82.648V65.752C427.963 61.528 427.259 58.58 425.851 56.908C424.531 55.236 422.199 54.4 418.855 54.4H413.839V94H399.319V1.59999ZM419.119 41.2C422.023 41.2 424.179 40.452 425.587 38.956C427.083 37.46 427.831 34.952 427.831 31.432V24.304C427.831 20.96 427.215 18.54 425.983 17.044C424.839 15.548 422.991 14.8 420.439 14.8H413.839V41.2H419.119ZM472.917 95.32C465.965 95.32 460.641 93.34 456.945 89.38C453.337 85.42 451.533 79.832 451.533 72.616V22.984C451.533 15.768 453.337 10.18 456.945 6.22C460.641 2.26 465.965 0.279995 472.917 0.279995C479.869 0.279995 485.149 2.26 488.757 6.22C492.453 10.18 494.301 15.768 494.301 22.984V32.752H480.573V22.06C480.573 16.34 478.153 13.48 473.313 13.48C468.473 13.48 466.053 16.34 466.053 22.06V73.672C466.053 79.304 468.473 82.12 473.313 82.12C478.153 82.12 480.573 79.304 480.573 73.672V59.548H494.301V72.616C494.301 79.832 492.453 85.42 488.757 89.38C485.149 93.34 479.869 95.32 472.917 95.32ZM502.889 1.59999H542.489V14.8H517.409V39.22H537.341V52.42H517.409V80.8H542.489V94H502.889V1.59999Z" fill="url(#paint0_radial_321_15461)"/>
<defs>
<radialGradient id="paint0_radial_321_15461" cx="0" cy="0" r="1" gradientUnits="userSpaceOnUse" gradientTransform="translate(344.5 -315) rotate(103.563) scale(411.476 3650.19)">
<stop stop-color="white"/>
<stop offset="1" stop-color="#373737"/>
</radialGradient>
</defs>
</svg>
