<svg width="477" height="190" viewBox="0 0 477 190" fill="none" xmlns="http://www.w3.org/2000/svg">
<path d="M43.392 189.63C29.3653 189.63 18.7577 185.685 11.569 177.795C4.38033 169.73 0.786 158.245 0.786 143.342V132.822H28.138V145.446C28.138 157.369 33.135 163.33 43.129 163.33C48.0383 163.33 51.7203 161.927 54.175 159.122C56.805 156.141 58.12 151.407 58.12 144.92C58.12 137.205 56.3667 130.455 52.86 124.669C49.3533 118.708 42.866 111.607 33.398 103.366C21.4753 92.846 13.147 83.378 8.413 74.962C3.679 66.3707 1.312 56.7273 1.312 46.032C1.312 31.4793 4.994 20.258 12.358 12.368C19.722 4.30266 30.4173 0.26999 44.444 0.26999C58.2953 0.26999 68.7277 4.30266 75.741 12.368C82.9297 20.258 86.524 31.6547 86.524 46.558V54.185H59.172V44.717C59.172 38.405 57.9447 33.8463 55.49 31.041C53.0353 28.0603 49.441 26.57 44.707 26.57C35.0637 26.57 30.242 32.4437 30.242 44.191C30.242 50.8537 31.9953 57.078 35.502 62.864C39.184 68.65 45.759 75.6633 55.227 83.904C67.325 94.424 75.6533 103.98 80.212 112.571C84.7707 121.162 87.05 131.244 87.05 142.816C87.05 157.895 83.2803 169.467 75.741 177.532C68.377 185.597 57.594 189.63 43.392 189.63ZM103.537 2.89999H132.467V77.855H163.501V2.89999H192.431V187H163.501V104.155H132.467V187H103.537V2.89999ZM213.877 2.89999H292.777V29.2H242.807V77.855H282.52V104.155H242.807V160.7H292.777V187H213.877V2.89999ZM309.32 2.89999H338.25V160.7H385.853V187H309.32V2.89999ZM399.626 2.89999H428.556V160.7H476.159V187H399.626V2.89999Z" fill="url(#paint0_radial_234_13052)"/>
<defs>
<radialGradient id="paint0_radial_234_13052" cx="0" cy="0" r="1" gradientUnits="userSpaceOnUse" gradientTransform="translate(68 -3.99999) rotate(82.4232) scale(212.354 459.784)">
<stop stop-color="white"/>
<stop offset="1" stop-color="#2A2A2A"/>
</radialGradient>
</defs>
</svg>
