<svg width="343" height="100" viewBox="0 0 343 100" fill="none" xmlns="http://www.w3.org/2000/svg">
<path opacity="0.7" d="M0.13 0.599993H15.182L22.14 76.996H22.424L29.808 0.599993H46.848L54.232 76.996H54.516L61.474 0.599993H74.964L64.882 100H45.428L38.328 32.976H38.044L30.944 100H10.212L0.13 0.599993ZM82.765 0.599993H98.385V41.07H115.141V0.599993H130.761V100H115.141V55.27H98.385V100H82.765V0.599993ZM156.636 57.684L137.75 0.599993H154.364L165.014 37.094H165.298L175.948 0.599993H191.142L172.256 57.684V100H156.636V57.684ZM217.029 0.599993H232.081L239.039 76.996H239.323L246.707 0.599993H263.747L271.131 76.996H271.415L278.373 0.599993H291.863L281.781 100H262.327L255.227 32.976H254.943L247.843 100H227.111L217.029 0.599993ZM299.664 0.599993H342.264V14.8H315.284V41.07H336.726V55.27H315.284V85.8H342.264V100H299.664V0.599993Z" fill="url(#paint0_radial_234_13301)"/>
<defs>
<radialGradient id="paint0_radial_234_13301" cx="0" cy="0" r="1" gradientUnits="userSpaceOnUse" gradientTransform="translate(307.572 135) rotate(-142.637) scale(161.485 1821.15)">
<stop stop-color="white"/>
<stop offset="1" stop-color="#484848"/>
</radialGradient>
</defs>
</svg>
