<svg width="33" height="32" viewBox="0 0 33 32" fill="none" xmlns="http://www.w3.org/2000/svg">
<rect x="0.5" width="32" height="32" rx="3.55556" fill="black"/>
<path d="M29 14.7777V17.2785C28.0338 17.2785 27.2473 18.0662 27.2473 19.0366V23.0662C27.2473 25.2369 25.4846 27 23.3199 27H17.862L19.36 24.4992H23.3199C24.1089 24.4992 24.7505 23.8565 24.7505 23.0662V19.0366C24.7505 17.8612 25.2274 16.8008 25.9939 16.0281C25.2274 15.2578 24.7505 14.195 24.7505 13.0221V8.93127C24.7505 8.14352 24.1089 7.50081 23.3199 7.50081H19.1778C18.3888 7.50081 17.7471 8.14352 17.7471 8.93127L17.7471 14.7777H21.4223V17.2785H17.7471V23.0662C17.7471 25.2369 15.9869 27 13.8222 27H9.68012C7.51543 27 5.75272 25.2369 5.75272 23.0662V19.0366C5.75272 18.0662 4.96624 17.2785 4 17.2785V14.7777C4.96624 14.7777 5.75272 13.9899 5.75272 13.0221L5.75272 8.93127C5.75272 6.76307 7.51543 5 9.68012 5H15.138L13.64 7.50081H9.68012C8.89114 7.50081 8.24948 8.14352 8.24948 8.93127L8.24948 13.0221C8.24948 14.195 7.7726 15.2578 7.00609 16.0281C7.7726 16.8008 8.24948 17.8612 8.24948 19.0366V23.0662C8.24948 23.8565 8.89114 24.4992 9.68012 24.4992H13.8222C14.6087 24.4992 15.2504 23.8565 15.2504 23.0662L15.2504 8.93127C15.2504 6.76307 17.0131 5 19.1778 5H23.3199C25.4846 5 27.2473 6.76307 27.2473 8.93127L27.2473 13.0221C27.2473 13.9899 28.0338 14.7777 29 14.7777Z" fill="white"/>
</svg>
