<svg width="32" height="32" viewBox="0 0 32 32" fill="none" xmlns="http://www.w3.org/2000/svg">
<rect width="32" height="32" rx="3.55556" fill="white"/>
<path d="M29 15.1688V17.7696C27.9951 17.7696 27.1772 18.5889 27.1772 19.598V23.7889C27.1772 26.0464 25.344 27.88 23.0927 27.88H17.4165L18.9744 25.2792H23.0927C23.9132 25.2792 24.5805 24.6107 24.5805 23.7889V19.598C24.5805 18.3756 25.0765 17.2729 25.8737 16.4692C25.0765 15.6682 24.5805 14.5628 24.5805 13.343V9.08852C24.5805 8.26926 23.9132 7.60084 23.0927 7.60084H18.7849C17.9643 7.60084 17.297 8.26926 17.297 9.08852L17.297 15.1688H21.1192V17.7696H17.297V23.7889C17.297 26.0464 15.4664 27.88 13.2151 27.88H8.90732C6.65605 27.88 4.82283 26.0464 4.82283 23.7889V19.598C4.82283 18.5889 4.00489 17.7696 3 17.7696V15.1688C4.00489 15.1688 4.82283 14.3495 4.82283 13.343L4.82283 9.08852C4.82283 6.83359 6.65605 5 8.90732 5H14.5835L13.0256 7.60084H8.90732C8.08679 7.60084 7.41945 8.26926 7.41945 9.08852L7.41946 13.343C7.41946 14.5628 6.9235 15.6682 6.12634 16.4692C6.9235 17.2729 7.41946 18.3756 7.41946 19.598V23.7889C7.41946 24.6107 8.08679 25.2792 8.90732 25.2792H13.2151C14.0331 25.2792 14.7004 24.6107 14.7004 23.7889L14.7004 9.08852C14.7004 6.83359 16.5336 5 18.7849 5H23.0927C25.344 5 27.1772 6.83359 27.1772 9.08852L27.1772 13.343C27.1772 14.3495 27.9951 15.1688 29 15.1688Z" fill="black"/>
</svg>
