<svg width="63" height="62" viewBox="0 0 63 62" fill="none" xmlns="http://www.w3.org/2000/svg">
<path d="M41.9977 11.2512L42.0006 11.2522C42.0728 11.2629 42.1138 11.2909 42.1598 11.3586C42.1901 11.4034 42.2168 11.4567 42.2438 11.5227L42.3317 11.7629C42.4995 12.2804 42.6332 12.9831 43.0602 13.5813L43.0621 13.5842C43.6823 14.4353 44.5753 14.8149 45.3395 15.1536V15.1545C46.0441 15.4691 46.6072 15.8611 47.027 16.3616C47.4447 16.8597 47.7358 17.4841 47.8727 18.2883L48.0035 19.0559L48.5504 18.5022C49.7761 17.2608 51.1343 16.7144 52.7194 16.7297L53.0397 16.7405C54.366 16.813 55.389 16.2386 56.2311 15.3987L56.3971 15.2268C56.5125 15.1033 56.5736 15.0299 56.652 14.97L56.6617 14.9612C56.7683 14.8741 56.865 14.7692 56.9362 14.6936C57.016 14.6087 57.0739 14.5502 57.1295 14.5081C57.1811 14.469 57.2117 14.4588 57.2301 14.4563C57.2376 14.4553 57.2516 14.4541 57.274 14.4583L57.3688 14.4924C57.535 14.5759 57.6141 14.6858 57.6578 14.8186C57.7075 14.9694 57.7145 15.1629 57.694 15.3997C57.4158 18.5409 56.2772 21.1082 53.5309 22.7278L53.2633 22.8801C52.3741 23.358 51.4104 23.6805 50.4147 23.8333L49.986 23.8879C49.7507 23.9111 49.4804 23.9704 49.2994 24.1877C49.1228 24.3999 49.1133 24.6682 49.1178 24.8616V24.8625C49.1349 25.5447 49.2259 25.9426 49.1217 26.6672C48.4124 31.4557 47.1562 34.5675 45.7897 36.8303C44.4143 39.1077 42.9347 40.524 41.692 41.9934L41.4225 42.3127L41.7535 42.5676C41.9856 42.7459 42.1328 42.8538 42.2877 42.928C42.4323 42.9971 42.5942 43.0385 42.7858 43.0989C43.2165 43.2347 44.1315 43.5551 46.5123 44.6643V44.6653C46.5376 44.6771 46.5955 44.7239 46.6383 44.8411C46.6792 44.9533 46.6935 45.1006 46.6588 45.2551C46.5952 45.539 46.3516 45.8984 45.6705 46.0432C44.6479 46.2569 43.3495 46.4459 42.0104 46.3206H42.0065C40.205 46.1664 39.1767 45.9646 38.2047 45.4807L37.9694 45.3635L37.9576 45.3723L37.5504 45.1233C36.989 44.7793 36.395 44.3045 35.6227 43.6565C33.4795 41.8478 31.7881 39.6316 30.1989 37.2786H30.1979C28.7998 35.2052 27.4115 33.0395 25.6295 31.178L25.2672 30.8098C21.8366 27.4085 17.7385 25.2539 12.9225 24.5491L12.9196 24.5481L12.4801 24.4963C11.4537 24.3963 10.4174 24.4431 9.40295 24.637C8.95845 24.718 8.55878 24.8534 8.30042 25.1721C8.0724 25.4535 8.00965 25.8089 8.01331 26.1956L8.01917 26.3625C8.17604 29.7384 9.07884 32.9123 10.6276 35.8811L10.9459 36.4719C12.7618 39.7523 15.343 42.1456 18.4108 43.9534L18.4235 43.9612L18.4371 43.968C18.5117 44.0046 19.2198 44.342 20.11 44.552C20.9765 44.7563 22.136 44.8686 23.026 44.3196L23.027 44.3206C23.4552 44.058 23.6748 43.7056 23.691 43.3118C23.7022 43.0413 23.6148 42.7949 23.5084 42.5979L23.399 42.4182C23.0452 41.872 22.8106 41.4715 22.6285 40.8909C22.5359 40.5761 22.4722 40.2365 22.5055 39.9905C22.5213 39.8738 22.5542 39.8135 22.5826 39.7834C22.6045 39.7603 22.6549 39.7207 22.7906 39.7122C22.9383 39.7043 23.1891 39.746 23.5807 39.8997C23.9664 40.051 24.4583 40.2983 25.0758 40.6663C26.3103 41.4018 28.0138 42.5994 30.3229 44.4143V44.4153C32.4792 46.1233 35.5826 46.0597 37.3707 45.8606C33.5039 48.9732 30.0739 49.3826 26.9323 49.5627C21.6269 49.8757 16.9827 48.2472 12.9371 44.9094C9.15617 41.7892 6.66179 37.8347 5.7135 33.0784L5.62659 32.6155C4.79259 27.8988 5.47734 23.4068 8.35022 19.4583C10.7395 16.1757 13.9755 14.2589 18.0406 13.8059L18.0426 13.8049C20.1323 13.5625 22.2467 13.6381 24.3141 14.0276L24.3922 14.0422L24.4703 14.0256C24.8421 13.9475 25.2074 13.8403 25.5621 13.7043L25.5612 13.7034C27.8258 12.8372 29.5286 12.2226 31.3776 12.2141C32.1525 12.2106 32.6051 12.3353 32.8278 12.4485C32.6405 12.5386 32.4037 12.6875 32.1686 12.8782C31.8647 13.1246 31.5331 13.4643 31.2936 13.8821C31.0522 14.3032 30.8985 14.8155 30.9801 15.3879C31.0619 15.9606 31.3717 16.5444 31.9645 17.1204L31.9948 17.1497L32.0299 17.1711C32.5433 17.4951 33.0446 17.8378 33.5328 18.1985C35.3832 19.57 36.8883 21.2539 38.5348 22.9084L39.2506 23.6145C40.2466 24.6145 41.4016 25.4404 42.6676 26.0579L43.2184 26.3098L43.2272 26.3137C43.4525 26.4041 43.7407 26.4855 44.0133 26.3674C44.2981 26.2441 44.4194 25.9699 44.4869 25.7502V25.7493C44.5807 25.443 44.6814 25.1411 44.7828 24.8333C44.8836 24.5272 44.9849 24.2158 45.0778 23.8987L45.0768 23.8977C45.1398 23.6942 45.1611 23.4708 45.0729 23.2463C44.9863 23.0264 44.819 22.8665 44.6334 22.7405L44.6324 22.7395L44.3961 22.5754C41.9919 20.8596 40.7887 18.5008 40.733 15.5403C40.7075 14.1822 40.9644 12.8575 41.6178 11.6624L41.6188 11.6633C41.7197 11.4822 41.7754 11.3744 41.8483 11.3C41.877 11.2708 41.8973 11.2601 41.9108 11.2551C41.9223 11.2509 41.9472 11.2435 41.9977 11.2512ZM35.6608 26.3508C34.7817 25.9983 33.7235 25.8009 32.775 26.3391L32.7526 26.3518L32.733 26.3665C32.6674 26.4156 32.5555 26.5254 32.4664 26.6194C32.4177 26.6708 32.3666 26.7274 32.3219 26.7815C32.2825 26.8291 32.2285 26.8978 32.192 26.968L32.191 26.97C32.0457 27.2541 32.0377 27.5443 32.1412 27.7952C32.2349 28.0219 32.4095 28.1864 32.5953 28.2854L32.5944 28.2883C32.8205 28.4233 33.0766 28.5016 33.3395 28.5168H33.3619C33.908 28.5168 34.3236 28.6088 34.6315 28.8655L34.6344 28.8674C34.851 29.0457 34.9677 29.2096 35.025 29.3792C35.0829 29.5504 35.0947 29.7709 35.027 30.0872L35.026 30.092C34.9309 30.566 34.9178 31.0531 34.9869 31.5315L34.9908 31.5549C35.0943 32.0593 35.2762 32.4136 35.5289 32.7131C35.7651 32.9928 36.0671 33.2233 36.3492 33.4602L36.3561 33.467L36.3639 33.4719C36.9441 33.9141 37.6592 34.1418 38.3883 34.1165H38.3932C38.8908 34.093 39.3881 33.9137 39.8326 33.7336L39.8385 33.7307C40.1445 33.6009 40.4066 33.4089 40.5573 33.135C40.7138 32.8502 40.7179 32.5344 40.6139 32.2317V32.2297L40.5114 31.9583C40.3327 31.5135 40.1125 31.105 39.8746 30.717L39.5826 30.261C39.0857 29.5078 38.9166 29.213 38.0328 28.1936L38.0221 28.1809L38.0104 28.1692C37.1788 27.3571 36.5309 26.7066 35.6637 26.3518L35.6608 26.3508ZM33.3365 28.7532C33.1631 28.7742 32.9969 28.8374 32.8531 28.9368C32.7094 29.0362 32.5922 29.1695 32.5114 29.3245C32.4317 29.4771 32.3899 29.6465 32.3893 29.8186C32.3868 29.9674 32.418 30.1088 32.4684 30.2346C32.5213 30.3667 32.5999 30.4869 32.6998 30.5881C32.7998 30.6894 32.919 30.7698 33.0504 30.8245C33.1819 30.8792 33.3231 30.908 33.4655 30.9075L33.4645 30.9055C33.6056 30.9066 33.7457 30.8812 33.8766 30.8284C34.0091 30.7748 34.1296 30.6955 34.2311 30.595C34.3326 30.4944 34.4136 30.3745 34.4684 30.2424C34.5094 30.1435 34.5353 30.0391 34.5455 29.9329L34.5504 29.8264C34.5519 29.6061 34.4857 29.3903 34.36 29.2092C34.2345 29.0286 34.0557 28.8923 33.8492 28.8167L33.8502 28.8157C33.6868 28.7534 33.5102 28.7322 33.3365 28.7532Z" fill="#0C0E10" stroke="url(#paint0_linear_2586_6463)" stroke-width="0.79809"/>
<defs>
<linearGradient id="paint0_linear_2586_6463" x1="31.5006" y1="10.8489" x2="31.5006" y2="50" gradientUnits="userSpaceOnUse">
<stop stop-color="#30EDE6"/>
<stop offset="1" stop-color="#666666"/>
</linearGradient>
</defs>
</svg>
