<svg width="63" height="62" viewBox="0 0 63 62" fill="none" xmlns="http://www.w3.org/2000/svg">
<path d="M41.9977 11.251L42.0006 11.252C42.0728 11.2626 42.1138 11.2906 42.1598 11.3584C42.1901 11.4031 42.2168 11.4565 42.2438 11.5225L42.3317 11.7627C42.4995 12.2801 42.6332 12.9828 43.0602 13.5811L43.0621 13.584C43.6823 14.4351 44.5753 14.8147 45.3395 15.1533V15.1543C46.0441 15.4689 46.6072 15.8608 47.027 16.3613C47.4447 16.8595 47.7358 17.4839 47.8727 18.2881L48.0035 19.0557L48.5504 18.502C49.7761 17.2606 51.1343 16.7142 52.7194 16.7295L53.0397 16.7402C54.366 16.8128 55.389 16.2384 56.2311 15.3984L56.3971 15.2266C56.5125 15.1031 56.5736 15.0297 56.652 14.9697L56.6617 14.9609C56.7683 14.8738 56.865 14.7689 56.9362 14.6934C57.016 14.6085 57.0739 14.55 57.1295 14.5078C57.1811 14.4687 57.2117 14.4586 57.2301 14.4561C57.2376 14.455 57.2516 14.4539 57.274 14.458L57.3688 14.4922C57.535 14.5757 57.6141 14.6856 57.6578 14.8184C57.7075 14.9691 57.7145 15.1626 57.694 15.3994C57.4158 18.5407 56.2772 21.1079 53.5309 22.7275L53.2633 22.8799C52.3741 23.3578 51.4104 23.6802 50.4147 23.833L49.986 23.8877C49.7507 23.9108 49.4804 23.9702 49.2994 24.1875C49.1228 24.3997 49.1133 24.6679 49.1178 24.8613V24.8623C49.1349 25.5445 49.2259 25.9424 49.1217 26.667C48.4124 31.4555 47.1562 34.5673 45.7897 36.8301C44.4143 39.1075 42.9347 40.5237 41.692 41.9932L41.4225 42.3125L41.7535 42.5674C41.9856 42.7456 42.1328 42.8536 42.2877 42.9277C42.4323 42.9969 42.5942 43.0382 42.7858 43.0986C43.2165 43.2344 44.1315 43.5549 46.5123 44.6641V44.665C46.5376 44.6769 46.5955 44.7237 46.6383 44.8408C46.6792 44.953 46.6935 45.1003 46.6588 45.2549C46.5952 45.5387 46.3516 45.8981 45.6705 46.043C44.6479 46.2566 43.3495 46.4457 42.0104 46.3203H42.0065C40.205 46.1661 39.1767 45.9643 38.2047 45.4805L37.9694 45.3633L37.9576 45.3721L37.5504 45.123C36.989 44.779 36.395 44.3043 35.6227 43.6562C33.4795 41.8476 31.7881 39.6313 30.1989 37.2783H30.1979C28.7998 35.205 27.4115 33.0392 25.6295 31.1777L25.2672 30.8096C21.8366 27.4083 17.7385 25.2537 12.9225 24.5488L12.9196 24.5479L12.4801 24.4961C11.4537 24.3961 10.4174 24.4429 9.40295 24.6367C8.95845 24.7178 8.55878 24.8532 8.30042 25.1719C8.0724 25.4532 8.00965 25.8086 8.01331 26.1953L8.01917 26.3623C8.17604 29.7382 9.07884 32.912 10.6276 35.8809L10.9459 36.4717C12.7618 39.7521 15.343 42.1454 18.4108 43.9531L18.4235 43.9609L18.4371 43.9678C18.5117 44.0044 19.2198 44.3418 20.11 44.5518C20.9765 44.7561 22.136 44.8684 23.026 44.3193L23.027 44.3203C23.4552 44.0577 23.6748 43.7054 23.691 43.3115C23.7022 43.041 23.6148 42.7947 23.5084 42.5977L23.399 42.418C23.0452 41.8717 22.8106 41.4712 22.6285 40.8906C22.5359 40.5759 22.4722 40.2363 22.5055 39.9902C22.5213 39.8735 22.5542 39.8133 22.5826 39.7832C22.6045 39.76 22.6549 39.7205 22.7906 39.7119C22.9383 39.7041 23.1891 39.7458 23.5807 39.8994C23.9664 40.0508 24.4583 40.2981 25.0758 40.666C26.3103 41.4016 28.0138 42.5991 30.3229 44.4141V44.415C32.4792 46.1231 35.5826 46.0594 37.3707 45.8604C33.5039 48.973 30.0739 49.3823 26.9323 49.5625C21.6269 49.8755 16.9827 48.247 12.9371 44.9092C9.15617 41.789 6.66179 37.8344 5.7135 33.0781L5.62659 32.6152C4.79259 27.8986 5.47734 23.4066 8.35022 19.458C10.7395 16.1754 13.9755 14.2586 18.0406 13.8057L18.0426 13.8047C20.1323 13.5622 22.2467 13.6378 24.3141 14.0273L24.3922 14.042L24.4703 14.0254C24.8421 13.9473 25.2074 13.84 25.5621 13.7041L25.5612 13.7031C27.8258 12.8369 29.5286 12.2224 31.3776 12.2139C32.1525 12.2103 32.6051 12.335 32.8278 12.4482C32.6405 12.5383 32.4037 12.6873 32.1686 12.8779C31.8647 13.1244 31.5331 13.464 31.2936 13.8818C31.0522 14.303 30.8985 14.8153 30.9801 15.3877C31.0619 15.9603 31.3717 16.5442 31.9645 17.1201L31.9948 17.1494L32.0299 17.1709C32.5433 17.4948 33.0446 17.8375 33.5328 18.1982C35.3832 19.5698 36.8883 21.2537 38.5348 22.9082L39.2506 23.6143C40.2466 24.6143 41.4016 25.4401 42.6676 26.0576L43.2184 26.3096L43.2272 26.3135C43.4525 26.4039 43.7407 26.4852 44.0133 26.3672C44.2981 26.2439 44.4194 25.9697 44.4869 25.75V25.749C44.5807 25.4427 44.6814 25.1409 44.7828 24.833C44.8836 24.527 44.9849 24.2156 45.0778 23.8984L45.0768 23.8975C45.1398 23.6939 45.1611 23.4705 45.0729 23.2461C44.9863 23.0261 44.819 22.8662 44.6334 22.7402L44.6324 22.7393L44.3961 22.5752C41.9919 20.8593 40.7887 18.5005 40.733 15.54C40.7075 14.182 40.9644 12.8572 41.6178 11.6621L41.6188 11.6631C41.7197 11.4819 41.7754 11.3741 41.8483 11.2998C41.877 11.2706 41.8973 11.2599 41.9108 11.2549C41.9223 11.2506 41.9472 11.2432 41.9977 11.251ZM35.6608 26.3506C34.7817 25.9981 33.7235 25.8007 32.775 26.3389L32.7526 26.3516L32.733 26.3662C32.6674 26.4154 32.5555 26.5251 32.4664 26.6191C32.4177 26.6706 32.3666 26.7271 32.3219 26.7812C32.2825 26.8289 32.2285 26.8975 32.192 26.9678L32.191 26.9697C32.0457 27.2539 32.0377 27.5441 32.1412 27.7949C32.2349 28.0217 32.4095 28.1862 32.5953 28.2852L32.5944 28.2881C32.8205 28.423 33.0766 28.5013 33.3395 28.5166H33.3619C33.908 28.5166 34.3236 28.6086 34.6315 28.8652L34.6344 28.8672C34.851 29.0454 34.9677 29.2093 35.025 29.3789C35.0829 29.5501 35.0947 29.7706 35.027 30.0869L35.026 30.0918C34.9309 30.5657 34.9178 31.0528 34.9869 31.5312L34.9908 31.5547C35.0943 32.059 35.2762 32.4134 35.5289 32.7129C35.7651 32.9926 36.0671 33.2231 36.3492 33.46L36.3561 33.4668L36.3639 33.4717C36.9441 33.9138 37.6592 34.1416 38.3883 34.1162H38.3932C38.8908 34.0928 39.3881 33.9134 39.8326 33.7334L39.8385 33.7305C40.1445 33.6006 40.4066 33.4086 40.5573 33.1348C40.7138 32.8499 40.7179 32.5341 40.6139 32.2314V32.2295L40.5114 31.958C40.3327 31.5132 40.1125 31.1048 39.8746 30.7168L39.5826 30.2607C39.0857 29.5075 38.9166 29.2128 38.0328 28.1934L38.0221 28.1807L38.0104 28.1689C37.1788 27.3569 36.5309 26.7063 35.6637 26.3516L35.6608 26.3506ZM33.3365 28.7529C33.163 28.774 32.9969 28.8371 32.8531 28.9365C32.7094 29.036 32.5922 29.1693 32.5114 29.3242C32.4317 29.4769 32.3899 29.6463 32.3893 29.8184C32.3868 29.9672 32.418 30.1085 32.4684 30.2344C32.5213 30.3664 32.5999 30.4866 32.6998 30.5879C32.7998 30.6892 32.919 30.7695 33.0504 30.8242C33.1819 30.8789 33.3231 30.9077 33.4655 30.9072L33.4645 30.9053C33.6056 30.9064 33.7457 30.881 33.8766 30.8281C34.0091 30.7746 34.1296 30.6953 34.2311 30.5947C34.3326 30.4941 34.4136 30.3742 34.4684 30.2422C34.5094 30.1432 34.5353 30.0388 34.5455 29.9326L34.5504 29.8262C34.5515 29.6614 34.5143 29.4995 34.443 29.3525L34.36 29.209L34.2545 29.0811C34.142 28.9633 34.0035 28.8729 33.8492 28.8164L33.8502 28.8154C33.6868 28.7531 33.5102 28.7319 33.3365 28.7529Z" fill="white" stroke="url(#paint0_linear_2588_6886)" stroke-width="0.79809"/>
<defs>
<linearGradient id="paint0_linear_2588_6886" x1="31.5006" y1="10.8486" x2="31.5006" y2="49.9998" gradientUnits="userSpaceOnUse">
<stop stop-color="#30EDE6"/>
<stop offset="1" stop-color="#666666"/>
</linearGradient>
</defs>
</svg>
