<svg width="63" height="62" viewBox="0 0 63 62" fill="none" xmlns="http://www.w3.org/2000/svg">
<mask id="path-1-inside-1_2586_6457" fill="white">
<path d="M31.9518 7.50854C38.2281 7.50855 43.4714 9.80732 47.5006 13.5525L40.94 19.9578C39.2611 18.3821 36.3166 16.4968 31.9518 16.4968C25.8045 16.4968 20.5874 20.5521 18.7018 26.157L18.6988 26.155L18.6998 26.157C18.2349 27.6033 17.9508 29.1533 17.9508 30.7546C17.9508 32.3558 18.2355 33.906 18.7262 35.3523H18.7271C20.5871 40.957 25.8046 45.0115 31.9518 45.0115C35.412 45.0115 38.0456 44.0557 40.0084 42.6873H40.0094C43.1089 40.5178 44.5041 37.2891 44.7623 35.1453H31.9508V26.5183H53.776C54.1116 27.9647 54.2672 29.3599 54.2672 31.2712C54.2671 38.3481 51.736 44.3148 47.3453 48.3699L46.981 48.7C43.1671 52.0616 38.0319 54.0007 31.9518 54.0007C22.8599 54.0007 15.0078 48.7828 11.1852 41.1892V41.1873L11.1842 41.1892C9.60874 38.0382 8.70474 34.4997 8.70468 30.7546C8.70468 27.0095 9.60868 23.4703 11.1842 20.3191L11.1852 20.3181C15.008 12.7251 22.8603 7.50854 31.9518 7.50854Z"/>
</mask>
<path d="M31.9518 7.50854C38.2281 7.50855 43.4714 9.80732 47.5006 13.5525L40.94 19.9578C39.2611 18.3821 36.3166 16.4968 31.9518 16.4968C25.8045 16.4968 20.5874 20.5521 18.7018 26.157L18.6988 26.155L18.6998 26.157C18.2349 27.6033 17.9508 29.1533 17.9508 30.7546C17.9508 32.3558 18.2355 33.906 18.7262 35.3523H18.7271C20.5871 40.957 25.8046 45.0115 31.9518 45.0115C35.412 45.0115 38.0456 44.0557 40.0084 42.6873H40.0094C43.1089 40.5178 44.5041 37.2891 44.7623 35.1453H31.9508V26.5183H53.776C54.1116 27.9647 54.2672 29.3599 54.2672 31.2712C54.2671 38.3481 51.736 44.3148 47.3453 48.3699L46.981 48.7C43.1671 52.0616 38.0319 54.0007 31.9518 54.0007C22.8599 54.0007 15.0078 48.7828 11.1852 41.1892V41.1873L11.1842 41.1892C9.60874 38.0382 8.70474 34.4997 8.70468 30.7546C8.70468 27.0095 9.60868 23.4703 11.1842 20.3191L11.1852 20.3181C15.008 12.7251 22.8603 7.50854 31.9518 7.50854Z" fill="#0C0E10"/>
<path d="M31.9518 7.50854L31.9518 6.80876H31.9518V7.50854ZM47.5006 13.5525L47.9894 14.0532L48.515 13.54L47.977 13.0399L47.5006 13.5525ZM40.94 19.9578L40.4612 20.468L40.9496 20.9264L41.4289 20.4585L40.94 19.9578ZM31.9518 16.4968L31.9518 15.797H31.9518V16.4968ZM18.7018 26.157L18.3136 26.7392L19.0737 27.246L19.365 26.3801L18.7018 26.157ZM18.6988 26.155L19.087 25.5728L16.8945 24.1111L18.0729 26.468L18.6988 26.155ZM18.6998 26.157L19.366 26.3711L19.4534 26.0993L19.3257 25.844L18.6998 26.157ZM17.9508 30.7546L17.251 30.7546L17.251 30.7547L17.9508 30.7546ZM18.7262 35.3523L18.0635 35.5771L18.2246 36.0521H18.7262V35.3523ZM18.7271 35.3523L19.3913 35.1319L19.2322 34.6525H18.7271V35.3523ZM31.9518 45.0115L31.9518 45.7113L31.9518 45.7113L31.9518 45.0115ZM40.0084 42.6873V41.9875H39.7885L39.6082 42.1132L40.0084 42.6873ZM40.0094 42.6873V43.387H40.2299L40.4106 43.2606L40.0094 42.6873ZM44.7623 35.1453L45.4571 35.2289L45.5514 34.4455H44.7623V35.1453ZM31.9508 35.1453H31.251V35.845H31.9508V35.1453ZM31.9508 26.5183V25.8185H31.251V26.5183H31.9508ZM53.776 26.5183L54.4576 26.3601L54.332 25.8185H53.776V26.5183ZM54.2672 31.2712L54.967 31.2712V31.2712H54.2672ZM47.3453 48.3699L47.8152 48.8884L47.8201 48.8839L47.3453 48.3699ZM46.981 48.7L47.4438 49.225L47.4509 49.2185L46.981 48.7ZM31.9518 54.0007L31.9518 54.7005L31.9518 54.7005L31.9518 54.0007ZM11.1852 41.1892H10.4854V41.3554L10.5601 41.5039L11.1852 41.1892ZM11.1852 41.1873H11.8849L10.5592 40.8743L11.1852 41.1873ZM11.1842 41.1892L10.5583 41.5021L11.1842 42.754L11.8101 41.5022L11.1842 41.1892ZM8.70468 30.7546L8.0049 30.7546L8.0049 30.7546L8.70468 30.7546ZM11.1842 20.3191L10.6894 19.8243L10.609 19.9046L10.5583 20.0062L11.1842 20.3191ZM11.1852 20.3181L11.68 20.8129L11.7596 20.7333L11.8102 20.6328L11.1852 20.3181ZM31.9518 7.50854L31.9518 8.20833C38.0442 8.20834 43.1192 10.4353 47.0242 14.065L47.5006 13.5525L47.977 13.0399C43.8237 9.17934 38.4119 6.80877 31.9518 6.80876L31.9518 7.50854ZM47.5006 13.5525L47.0117 13.0518L40.4512 19.4571L40.94 19.9578L41.4289 20.4585L47.9894 14.0532L47.5006 13.5525ZM40.94 19.9578L41.4189 19.4475C39.6445 17.7823 36.5365 15.7971 31.9518 15.797L31.9518 16.4968L31.9518 17.1966C36.0967 17.1966 38.8776 18.982 40.4612 20.468L40.94 19.9578ZM31.9518 16.4968V15.797C25.4862 15.797 20.0142 20.0615 18.0385 25.9338L18.7018 26.157L19.365 26.3801C21.1607 21.0428 26.1228 17.1966 31.9518 17.1966V16.4968ZM18.7018 26.157L19.0899 25.5747L19.087 25.5728L18.6988 26.155L18.3107 26.7373L18.3136 26.7392L18.7018 26.157ZM18.6988 26.155L18.0729 26.468L18.0739 26.4699L18.6998 26.157L19.3257 25.844L19.3247 25.8421L18.6988 26.155ZM18.6998 26.157L18.0336 25.9429C17.5498 27.4481 17.251 29.0706 17.251 30.7546H17.9508H18.6506C18.6506 29.236 18.9201 27.7585 19.366 26.3711L18.6998 26.157ZM17.9508 30.7546L17.251 30.7547C17.251 32.4389 17.5504 34.065 18.0635 35.5771L18.7262 35.3523L19.3888 35.1275C18.9205 33.747 18.6506 32.2727 18.6506 30.7546L17.9508 30.7546ZM18.7262 35.3523V36.0521H18.7271V35.3523V34.6525H18.7262V35.3523ZM18.7271 35.3523L18.063 35.5727C20.0127 41.448 25.4869 45.7113 31.9518 45.7113V45.0115V44.3117C26.1223 44.3117 21.1615 40.4661 19.3913 35.1319L18.7271 35.3523ZM31.9518 45.0115L31.9518 45.7113C35.5485 45.7113 38.3231 44.7153 40.4086 43.2613L40.0084 42.6873L39.6082 42.1132C37.7681 43.3961 35.2755 44.3117 31.9518 44.3117L31.9518 45.0115ZM40.0084 42.6873V43.387H40.0094V42.6873V41.9875H40.0084V42.6873ZM40.0094 42.6873L40.4106 43.2606C43.6905 40.9648 45.1777 37.5482 45.4571 35.2289L44.7623 35.1453L44.0675 35.0616C43.8305 37.0301 42.5272 40.0707 39.6081 42.114L40.0094 42.6873ZM44.7623 35.1453V34.4455H31.9508V35.1453V35.845H44.7623V35.1453ZM31.9508 35.1453H32.6506V26.5183H31.9508H31.251V35.1453H31.9508ZM31.9508 26.5183V27.2181H53.776V26.5183V25.8185H31.9508V26.5183ZM53.776 26.5183L53.0943 26.6765C53.416 28.0629 53.5674 29.4042 53.5674 31.2712H54.2672H54.967C54.967 29.3157 54.8072 27.8665 54.4576 26.3601L53.776 26.5183ZM54.2672 31.2712L53.5674 31.2712C53.5673 38.1775 51.1006 43.949 46.8705 47.8558L47.3453 48.3699L47.8201 48.8839C52.3714 44.6805 54.9669 38.5186 54.967 31.2712L54.2672 31.2712ZM47.3453 48.3699L46.8754 47.8513L46.5112 48.1814L46.981 48.7L47.4509 49.2185L47.8152 48.8884L47.3453 48.3699ZM46.981 48.7L46.5183 48.175C42.8443 51.4133 37.8784 53.3009 31.9518 53.3009L31.9518 54.0007L31.9518 54.7005C38.1854 54.7005 43.4899 52.7098 47.4438 49.2249L46.981 48.7ZM31.9518 54.0007V53.3009C23.1351 53.3009 15.5189 48.2419 11.8102 40.8746L11.1852 41.1892L10.5601 41.5039C14.4967 49.3238 22.5847 54.7005 31.9518 54.7005V54.0007ZM11.1852 41.1892H11.8849V41.1873H11.1852H10.4854V41.1892H11.1852ZM11.1852 41.1873L10.5592 40.8743L10.5583 40.8763L11.1842 41.1892L11.8101 41.5022L11.8111 41.5002L11.1852 41.1873ZM11.1842 41.1892L11.8101 40.8763C10.2807 37.8174 9.40452 34.3856 9.40446 30.7546L8.70468 30.7546L8.0049 30.7546C8.00496 34.6138 8.93674 38.2589 10.5583 41.5021L11.1842 41.1892ZM8.70468 30.7546H9.40446C9.40446 27.1235 10.2807 23.691 11.8101 20.632L11.1842 20.3191L10.5583 20.0062C8.93668 23.2495 8.0049 26.8954 8.0049 30.7546H8.70468ZM11.1842 20.3191L11.679 20.8139L11.68 20.8129L11.1852 20.3181L10.6903 19.8233L10.6894 19.8243L11.1842 20.3191ZM11.1852 20.3181L11.8102 20.6328C15.5191 13.2661 23.1355 8.20833 31.9518 8.20833V7.50854V6.80876C22.5852 6.80876 14.4969 12.184 10.5601 20.0034L11.1852 20.3181Z" fill="url(#paint0_linear_2586_6457)" mask="url(#path-1-inside-1_2586_6457)"/>
<defs>
<linearGradient id="paint0_linear_2586_6457" x1="31.4859" y1="7.50854" x2="31.4859" y2="54.0007" gradientUnits="userSpaceOnUse">
<stop stop-color="#30EDE6"/>
<stop offset="1" stop-color="#666666"/>
</linearGradient>
</defs>
</svg>
