<svg width="63" height="62" viewBox="0 0 63 62" fill="none" xmlns="http://www.w3.org/2000/svg">
<mask id="path-1-inside-1_2588_6866" fill="white">
<path d="M31.9518 7.50879C38.2281 7.5088 43.4714 9.80757 47.5006 13.5527L40.94 19.958C39.2611 18.3824 36.3166 16.4971 31.9518 16.4971C25.8045 16.4971 20.5874 20.5524 18.7018 26.1572L18.6988 26.1553L18.6998 26.1572C18.2349 27.6035 17.9508 29.1535 17.9508 30.7549C17.9508 32.3561 18.2355 33.9063 18.7262 35.3525H18.7271C20.5871 40.9573 25.8046 45.0117 31.9518 45.0117C35.412 45.0117 38.0456 44.056 40.0084 42.6875H40.0094C43.1089 40.518 44.5041 37.2894 44.7623 35.1455H31.9508V26.5186H53.776C54.1116 27.965 54.2672 29.3602 54.2672 31.2715C54.2671 38.3483 51.736 44.315 47.3453 48.3701L46.981 48.7002C43.1671 52.0618 38.0319 54.001 31.9518 54.001C22.8599 54.001 15.0078 48.7831 11.1852 41.1895V41.1875L11.1842 41.1895C9.60874 38.0384 8.70474 34.4999 8.70468 30.7549C8.70468 27.0097 9.60868 23.4705 11.1842 20.3193L11.1852 20.3184C15.008 12.7253 22.8603 7.50879 31.9518 7.50879Z"/>
</mask>
<path d="M31.9518 7.50879C38.2281 7.5088 43.4714 9.80757 47.5006 13.5527L40.94 19.958C39.2611 18.3824 36.3166 16.4971 31.9518 16.4971C25.8045 16.4971 20.5874 20.5524 18.7018 26.1572L18.6988 26.1553L18.6998 26.1572C18.2349 27.6035 17.9508 29.1535 17.9508 30.7549C17.9508 32.3561 18.2355 33.9063 18.7262 35.3525H18.7271C20.5871 40.9573 25.8046 45.0117 31.9518 45.0117C35.412 45.0117 38.0456 44.056 40.0084 42.6875H40.0094C43.1089 40.518 44.5041 37.2894 44.7623 35.1455H31.9508V26.5186H53.776C54.1116 27.965 54.2672 29.3602 54.2672 31.2715C54.2671 38.3483 51.736 44.315 47.3453 48.3701L46.981 48.7002C43.1671 52.0618 38.0319 54.001 31.9518 54.001C22.8599 54.001 15.0078 48.7831 11.1852 41.1895V41.1875L11.1842 41.1895C9.60874 38.0384 8.70474 34.4999 8.70468 30.7549C8.70468 27.0097 9.60868 23.4705 11.1842 20.3193L11.1852 20.3184C15.008 12.7253 22.8603 7.50879 31.9518 7.50879Z" fill="white"/>
<path d="M31.9518 7.50879L31.9518 6.80901H31.9518V7.50879ZM47.5006 13.5527L47.9894 14.0534L48.515 13.5403L47.977 13.0402L47.5006 13.5527ZM40.94 19.958L40.4612 20.4683L40.9496 20.9267L41.4289 20.4587L40.94 19.958ZM31.9518 16.4971L31.9518 15.7973H31.9518V16.4971ZM18.7018 26.1572L18.3136 26.7395L19.0737 27.2462L19.365 26.3804L18.7018 26.1572ZM18.6988 26.1553L19.087 25.573L16.8945 24.1113L18.0729 26.4682L18.6988 26.1553ZM18.6998 26.1572L19.366 26.3714L19.4534 26.0996L19.3257 25.8443L18.6998 26.1572ZM17.9508 30.7549H17.251V30.7549L17.9508 30.7549ZM18.7262 35.3525L18.0635 35.5774L18.2246 36.0523H18.7262V35.3525ZM18.7271 35.3525L19.3913 35.1321L19.2322 34.6528H18.7271V35.3525ZM31.9518 45.0117V45.7115H31.9518L31.9518 45.0117ZM40.0084 42.6875V41.9877H39.7885L39.6082 42.1135L40.0084 42.6875ZM40.0094 42.6875V43.3873H40.2299L40.4106 43.2608L40.0094 42.6875ZM44.7623 35.1455L45.4571 35.2292L45.5514 34.4457H44.7623V35.1455ZM31.9508 35.1455H31.251V35.8453H31.9508V35.1455ZM31.9508 26.5186V25.8188H31.251V26.5186H31.9508ZM53.776 26.5186L54.4576 26.3604L54.332 25.8188H53.776V26.5186ZM54.2672 31.2715L54.967 31.2715V31.2715H54.2672ZM47.3453 48.3701L47.8152 48.8887L47.8201 48.8842L47.3453 48.3701ZM46.981 48.7002L47.4438 49.2252L47.4509 49.2187L46.981 48.7002ZM31.9518 54.001V54.7008V54.001ZM11.1852 41.1895H10.4854V41.3557L10.5601 41.5041L11.1852 41.1895ZM11.1852 41.1875H11.8849L10.5592 40.8745L11.1852 41.1875ZM11.1842 41.1895L10.5583 41.5024L11.1842 42.7542L11.8101 41.5024L11.1842 41.1895ZM8.70468 30.7549H8.0049V30.7549L8.70468 30.7549ZM11.1842 20.3193L10.6894 19.8245L10.609 19.9048L10.5583 20.0064L11.1842 20.3193ZM11.1852 20.3184L11.68 20.8132L11.7596 20.7336L11.8102 20.633L11.1852 20.3184ZM31.9518 7.50879L31.9517 8.20857C38.0442 8.20858 43.1192 10.4355 47.0242 14.0653L47.5006 13.5527L47.977 13.0402C43.8237 9.17959 38.4119 6.80902 31.9518 6.80901L31.9518 7.50879ZM47.5006 13.5527L47.0117 13.052L40.4512 19.4573L40.94 19.958L41.4289 20.4587L47.9894 14.0534L47.5006 13.5527ZM40.94 19.958L41.4189 19.4477C39.6445 17.7825 36.5365 15.7973 31.9518 15.7973L31.9518 16.4971L31.9517 17.1969C36.0967 17.1969 38.8776 18.9822 40.4612 20.4683L40.94 19.958ZM31.9518 16.4971V15.7973C25.4862 15.7973 20.0142 20.0617 18.0385 25.9341L18.7018 26.1572L19.365 26.3804C21.1607 21.0431 26.1228 17.1969 31.9518 17.1969V16.4971ZM18.7018 26.1572L19.0899 25.575L19.087 25.573L18.6988 26.1553L18.3107 26.7375L18.3136 26.7395L18.7018 26.1572ZM18.6988 26.1553L18.0729 26.4682L18.0739 26.4702L18.6998 26.1572L19.3257 25.8443L19.3247 25.8423L18.6988 26.1553ZM18.6998 26.1572L18.0336 25.9431C17.5498 27.4483 17.251 29.0708 17.251 30.7549H17.9508H18.6506C18.6506 29.2362 18.9201 27.7587 19.366 26.3714L18.6998 26.1572ZM17.9508 30.7549L17.251 30.7549C17.251 32.4392 17.5504 34.0653 18.0635 35.5774L18.7262 35.3525L19.3888 35.1277C18.9205 33.7473 18.6506 32.2729 18.6506 30.7549L17.9508 30.7549ZM18.7262 35.3525V36.0523H18.7271V35.3525V34.6528H18.7262V35.3525ZM18.7271 35.3525L18.063 35.5729C20.0127 41.4482 25.4869 45.7115 31.9518 45.7115V45.0117V44.3119C26.1223 44.3119 21.1615 40.4663 19.3913 35.1321L18.7271 35.3525ZM31.9518 45.0117L31.9518 45.7115C35.5485 45.7115 38.3231 44.7156 40.4086 43.2615L40.0084 42.6875L39.6082 42.1135C37.7681 43.3964 35.2755 44.3119 31.9517 44.3119L31.9518 45.0117ZM40.0084 42.6875V43.3873H40.0094V42.6875V41.9877H40.0084V42.6875ZM40.0094 42.6875L40.4106 43.2608C43.6905 40.9651 45.1777 37.5484 45.4571 35.2292L44.7623 35.1455L44.0675 35.0618C43.8305 37.0303 42.5272 40.071 39.6081 42.1142L40.0094 42.6875ZM44.7623 35.1455V34.4457H31.9508V35.1455V35.8453H44.7623V35.1455ZM31.9508 35.1455H32.6506V26.5186H31.9508H31.251V35.1455H31.9508ZM31.9508 26.5186V27.2183H53.776V26.5186V25.8188H31.9508V26.5186ZM53.776 26.5186L53.0943 26.6767C53.416 28.0632 53.5674 29.4044 53.5674 31.2715H54.2672H54.967C54.967 29.3159 54.8072 27.8667 54.4576 26.3604L53.776 26.5186ZM54.2672 31.2715L53.5674 31.2715C53.5673 38.1778 51.1006 43.9493 46.8705 47.856L47.3453 48.3701L47.8201 48.8842C52.3714 44.6807 54.9669 38.5189 54.967 31.2715L54.2672 31.2715ZM47.3453 48.3701L46.8754 47.8516L46.5112 48.1816L46.981 48.7002L47.4509 49.2187L47.8152 48.8887L47.3453 48.3701ZM46.981 48.7002L46.5183 48.1752C42.8443 51.4135 37.8784 53.3012 31.9518 53.3012V54.001V54.7008C38.1854 54.7008 43.4899 52.7101 47.4438 49.2252L46.981 48.7002ZM31.9518 54.001V53.3012C23.1351 53.3012 15.5189 48.2421 11.8102 40.8748L11.1852 41.1895L10.5601 41.5041C14.4967 49.324 22.5847 54.7008 31.9518 54.7008V54.001ZM11.1852 41.1895H11.8849V41.1875H11.1852H10.4854V41.1895H11.1852ZM11.1852 41.1875L10.5592 40.8745L10.5583 40.8765L11.1842 41.1895L11.8101 41.5024L11.8111 41.5005L11.1852 41.1875ZM11.1842 41.1895L11.8101 40.8765C10.2807 37.8176 9.40452 34.3858 9.40446 30.7549L8.70468 30.7549L8.0049 30.7549C8.00496 34.614 8.93674 38.2592 10.5583 41.5024L11.1842 41.1895ZM8.70468 30.7549H9.40446C9.40446 27.1238 10.2807 23.6912 11.8101 20.6323L11.1842 20.3193L10.5583 20.0064C8.93668 23.2497 8.0049 26.8956 8.0049 30.7549H8.70468ZM11.1842 20.3193L11.679 20.8142L11.68 20.8132L11.1852 20.3184L10.6903 19.8235L10.6894 19.8245L11.1842 20.3193ZM11.1852 20.3184L11.8102 20.633C15.5191 13.2663 23.1355 8.20857 31.9518 8.20857V7.50879V6.80901C22.5852 6.80901 14.4969 12.1843 10.5601 20.0037L11.1852 20.3184Z" fill="url(#paint0_linear_2588_6866)" mask="url(#path-1-inside-1_2588_6866)"/>
<defs>
<linearGradient id="paint0_linear_2588_6866" x1="31.4859" y1="7.50879" x2="31.4859" y2="54.001" gradientUnits="userSpaceOnUse">
<stop stop-color="#00CEC9"/>
<stop offset="1" stop-color="#D4D4D4"/>
</linearGradient>
</defs>
</svg>
