<svg width="63" height="62" viewBox="0 0 63 62" fill="none" xmlns="http://www.w3.org/2000/svg">
<path d="M43.2655 13.9645C47.1969 13.9645 50.881 16.5273 53.6298 20.7926C56.2876 24.917 58.0268 30.5754 58.2196 36.819L58.2333 37.4254C58.2323 41.3215 57.4223 44.4449 55.9296 46.5807C54.4503 48.697 52.2779 49.8785 49.4374 49.8785C46.9441 49.8785 45.0305 49.1954 43.0936 47.443C41.1264 45.6631 39.1321 42.7778 36.5282 38.3414L33.829 33.7135C33.2458 32.5501 32.6634 31.5789 32.0897 30.6227L31.6932 29.9606L31.2958 30.6227C30.4242 32.0753 29.4093 33.8643 28.6132 35.2877C28.2148 36 27.8703 36.6224 27.6259 37.066C27.5038 37.2875 27.4065 37.4646 27.3397 37.5865C27.3063 37.6475 27.28 37.6953 27.2626 37.7272C27.2539 37.743 27.2475 37.7552 27.243 37.7633C27.2424 37.7644 27.2416 37.7653 27.2411 37.7662C24.3518 42.7743 22.1653 45.7546 20.1776 47.485C18.2212 49.1882 16.452 49.6861 14.3339 49.6862C11.3814 49.6862 9.0611 48.5388 7.46667 46.4889C5.86139 44.425 4.95991 41.4026 4.95984 37.6119C4.95984 31.5177 6.62752 25.5763 9.3739 21.1725C12.1253 16.7607 15.9059 13.9645 20.12 13.9645C24.1591 13.9645 27.7038 15.9612 31.9032 21.4967L32.2792 21.9928L32.6464 21.4889C35.7351 17.242 39.0827 13.9645 43.2655 13.9645ZM42.8798 17.861C41.2929 17.861 39.887 18.5009 38.5253 19.6862C37.1737 20.8626 35.844 22.5947 34.3915 24.8219L34.2245 25.0768L34.3934 25.3307C35.1767 26.5056 36.1237 27.83 36.8846 29.1617L36.8905 29.1725L40.1698 34.5729L40.1718 34.5758C42.667 38.6066 44.1854 41.1067 45.4178 42.5856C46.0402 43.3323 46.6162 43.8527 47.2391 44.1813C47.8705 44.5142 48.5158 44.6324 49.245 44.6324C50.7539 44.6324 51.9155 43.9721 52.6757 42.7506C53.4164 41.5601 53.7587 39.868 53.7587 37.8043C53.7587 32.3439 52.5892 27.3956 50.6659 23.7955C48.7523 20.2137 46.0252 17.861 42.8798 17.861ZM19.9276 19.0182C18.4817 19.0182 17.1231 19.6618 15.9178 20.7184C14.7136 21.7742 13.6389 23.2611 12.7411 25.0074C10.9455 28.5002 9.82019 33.1063 9.82019 37.6119C9.82025 39.7866 10.2642 41.5305 11.0839 42.7203C11.9161 43.9282 13.1265 44.5439 14.5507 44.4381C15.2201 44.4356 15.8473 44.3311 16.4813 44.0426C17.1182 43.7528 17.7365 43.2902 18.4012 42.6129C19.7187 41.2706 21.2855 39.0111 23.5946 35.3551H23.5956L23.5966 35.3531C23.5976 35.3516 23.5994 35.3494 23.6014 35.3463C23.6056 35.3399 23.6118 35.3297 23.62 35.317C23.6364 35.2917 23.661 35.2536 23.6932 35.2037C23.758 35.1035 23.8539 34.9541 23.9803 34.7584C24.2335 34.3666 24.6075 33.788 25.0897 33.0406C26.0542 31.5456 27.4533 29.375 29.1893 26.6744L29.3573 26.4127L29.1786 26.1578C25.512 20.9474 23.0746 19.0183 19.9276 19.0182Z" fill="#0C0E10" stroke="url(#paint0_linear_2586_6455)" stroke-width="0.925819"/>
<defs>
<linearGradient id="paint0_linear_2586_6455" x1="31.5965" y1="13.5016" x2="31.5965" y2="50.3415" gradientUnits="userSpaceOnUse">
<stop stop-color="#30EDE6"/>
<stop offset="1" stop-color="#666666"/>
</linearGradient>
</defs>
</svg>
