<svg width="63" height="62" viewBox="0 0 63 62" fill="none" xmlns="http://www.w3.org/2000/svg">
<path d="M43.2655 13.9644C47.1969 13.9644 50.881 16.5272 53.6298 20.7925C56.2876 24.9169 58.0268 30.5752 58.2196 36.8188L58.2333 37.4253C58.2323 41.3214 57.4223 44.4448 55.9296 46.5806C54.4503 48.6969 52.2779 49.8784 49.4374 49.8784C46.9441 49.8783 45.0305 49.1953 43.0936 47.4429C41.1264 45.663 39.1321 42.7776 36.5282 38.3413L33.829 33.7134C33.2458 32.55 32.6634 31.5788 32.0897 30.6226L31.6932 29.9604L31.2958 30.6226C30.4242 32.0752 29.4093 33.8642 28.6132 35.2876C28.2148 35.9999 27.8703 36.6222 27.6259 37.0659C27.5038 37.2874 27.4065 37.4645 27.3397 37.5864C27.3063 37.6474 27.28 37.6951 27.2626 37.7271C27.2539 37.7429 27.2475 37.7551 27.243 37.7632C27.2424 37.7643 27.2416 37.7652 27.2411 37.7661C24.3518 42.7742 22.1653 45.7544 20.1776 47.4849C18.2212 49.188 16.452 49.686 14.3339 49.686C11.3814 49.686 9.0611 48.5387 7.46667 46.4888C5.86139 44.4248 4.95991 41.4025 4.95984 37.6118C4.95984 31.5175 6.62752 25.5761 9.3739 21.1724C12.1253 16.7606 15.9059 13.9644 20.12 13.9644C24.1591 13.9644 27.7038 15.9611 31.9032 21.4966L32.2792 21.9927L32.6464 21.4888C35.7351 17.2419 39.0827 13.9644 43.2655 13.9644ZM42.8798 17.8608C41.2929 17.8609 39.887 18.5008 38.5253 19.686C37.1737 20.8625 35.844 22.5946 34.3915 24.8218L34.2245 25.0767L34.3934 25.3306C35.1767 26.5055 36.1237 27.8299 36.8846 29.1616L36.8905 29.1724L40.1698 34.5728L40.1718 34.5757C42.667 38.6065 44.1854 41.1065 45.4178 42.5854C46.0402 43.3322 46.6162 43.8525 47.2391 44.1812C47.8705 44.5141 48.5158 44.6323 49.245 44.6323C50.7539 44.6323 51.9155 43.9719 52.6757 42.7505C53.4164 41.56 53.7587 39.8679 53.7587 37.8042C53.7587 32.3437 52.5892 27.3955 50.6659 23.7954C48.7523 20.2136 46.0252 17.8608 42.8798 17.8608ZM19.9276 19.0181C18.4817 19.0181 17.1231 19.6617 15.9178 20.7183C14.7136 21.774 13.6389 23.261 12.7411 25.0073C10.9455 28.5001 9.82019 33.1062 9.82019 37.6118C9.82025 39.7865 10.2642 41.5304 11.0839 42.7202C11.9161 43.9281 13.1265 44.5438 14.5507 44.438C15.2201 44.4355 15.8473 44.331 16.4813 44.0425C17.1182 43.7527 17.7365 43.2901 18.4012 42.6128C19.7187 41.2705 21.2855 39.0109 23.5946 35.355H23.5956L23.5966 35.353C23.5976 35.3514 23.5994 35.3493 23.6014 35.3462C23.6056 35.3398 23.6118 35.3296 23.62 35.3169C23.6364 35.2915 23.661 35.2535 23.6932 35.2036C23.758 35.1034 23.8539 34.954 23.9803 34.7583C24.2335 34.3665 24.6075 33.7879 25.0897 33.0405C26.0542 31.5455 27.4533 29.3749 29.1893 26.6743L29.3573 26.4126L29.1786 26.1577C25.512 20.9473 23.0746 19.0182 19.9276 19.0181Z" fill="white" stroke="url(#paint0_linear_2588_6878)" stroke-width="0.925819"/>
<defs>
<linearGradient id="paint0_linear_2588_6878" x1="31.5965" y1="13.5015" x2="31.5965" y2="50.3414" gradientUnits="userSpaceOnUse">
<stop stop-color="#00CEC9"/>
<stop offset="1" stop-color="#D4D4D4"/>
</linearGradient>
</defs>
</svg>
