<svg width="63" height="62" viewBox="0 0 63 62" fill="none" xmlns="http://www.w3.org/2000/svg">
<mask id="path-1-inside-1_2588_6858" fill="white">
<path d="M52.1829 26.4774C52.7227 24.8518 52.9094 23.1296 52.7305 21.4261C52.5516 19.7226 52.0112 18.0768 51.1455 16.5988C49.862 14.3647 47.9022 12.596 45.5487 11.5475C43.1952 10.4991 40.5696 10.2251 38.0503 10.7651C36.619 9.17302 34.7941 7.98558 32.7587 7.32203C30.7233 6.65849 28.5491 6.54219 26.4545 6.98482C24.3599 7.42745 22.4187 8.41343 20.8258 9.84373C19.2329 11.274 18.0443 13.0983 17.3796 15.1333C15.7012 15.4775 14.1156 16.1759 12.7288 17.1819C11.342 18.1879 10.1859 19.4784 9.33775 20.967C8.04033 23.1973 7.48582 25.7824 7.75439 28.3487C8.02296 30.9149 9.10069 33.3292 10.8318 35.2426C10.29 36.8674 10.1014 38.5892 10.2787 40.2928C10.4559 41.9964 10.995 43.6425 11.8597 45.121C13.1448 47.3559 15.1063 49.125 17.4615 50.1735C19.8166 51.2219 22.4439 51.4955 24.9646 50.9549C26.1016 52.2354 27.4988 53.2586 29.0628 53.9561C30.6268 54.6536 32.3216 55.0095 34.0341 54.9998C36.6163 55.0022 39.1324 54.184 41.2193 52.6633C43.3062 51.1426 44.8559 48.9981 45.6447 46.5394C47.3229 46.1946 48.9082 45.4959 50.295 44.4899C51.6817 43.4839 52.8379 42.1938 53.6866 40.7055C54.9686 38.4785 55.5136 35.903 55.2435 33.3475C54.9735 30.7921 53.9022 28.3872 52.1829 26.4774ZM34.0341 51.84C31.9193 51.8433 29.8709 51.1021 28.2479 49.7463L28.5334 49.5846L38.1454 44.0361C38.3847 43.8958 38.5833 43.6957 38.7218 43.4554C38.8603 43.2151 38.9339 42.943 38.9354 42.6656V29.1136L42.9989 31.4644C43.0189 31.4746 43.0363 31.4893 43.0496 31.5075C43.0629 31.5257 43.0717 31.5467 43.0753 31.569V42.799C43.0702 45.1953 42.116 47.492 40.4215 49.1864C38.7271 50.8808 36.4304 51.8349 34.0341 51.84ZM14.6005 43.5413C13.5399 41.71 13.1591 39.5633 13.5251 37.4789L13.8108 37.6503L23.4323 43.1987C23.6704 43.3384 23.9414 43.4121 24.2174 43.4121C24.4935 43.4121 24.7645 43.3384 25.0026 43.1987L36.756 36.4226V41.1145C36.7549 41.1388 36.7483 41.1626 36.7368 41.184C36.7252 41.2054 36.709 41.2239 36.6892 41.2382L26.9534 46.8532C24.8757 48.0501 22.4079 48.3736 20.0918 47.7527C17.7758 47.1317 15.8008 45.6171 14.6005 43.5413ZM12.0691 22.604C13.137 20.7609 14.8227 19.3551 16.8276 18.6355V30.0558C16.824 30.3317 16.8945 30.6036 17.0317 30.8429C17.169 31.0823 17.3679 31.2805 17.6079 31.4167L29.3042 38.1642L25.2405 40.5148C25.2186 40.5265 25.194 40.5326 25.1691 40.5326C25.1442 40.5326 25.1197 40.5265 25.0977 40.5148L15.381 34.9095C13.3072 33.7074 11.7942 31.7324 11.1735 29.4171C10.5527 27.1018 10.8748 24.6349 12.0691 22.5566V22.604ZM45.4544 30.3604L33.7201 23.5463L37.7743 21.2048C37.7963 21.1931 37.8208 21.187 37.8457 21.187C37.8706 21.187 37.8951 21.1931 37.9171 21.2048L47.6338 26.8198C49.1195 27.677 50.3307 28.9392 51.1259 30.459C51.9211 31.9788 52.2676 33.6934 52.125 35.4027C51.9823 37.112 51.3563 38.7455 50.3201 40.1124C49.2839 41.4793 47.8802 42.5232 46.273 43.1223V31.7019C46.2645 31.4265 46.1846 31.158 46.0411 30.9228C45.8976 30.6875 45.6955 30.4939 45.4544 30.3604ZM49.4992 24.2791L49.2135 24.1077L39.6111 18.5118C39.3716 18.3712 39.0989 18.2971 38.8211 18.2971C38.5434 18.2971 38.2707 18.3712 38.0312 18.5118L26.2876 25.2877V20.596C26.2851 20.5722 26.2891 20.5481 26.2991 20.5263C26.3092 20.5045 26.3249 20.4859 26.3447 20.4723L36.0614 14.8668C37.5506 14.0088 39.2533 13.5927 40.9704 13.667C42.6875 13.7412 44.3479 14.3028 45.7575 15.2861C47.167 16.2695 48.2675 17.6338 48.9302 19.2196C49.5928 20.8053 49.7902 22.547 49.4994 24.2409L49.4992 24.2791ZM24.0698 32.5965L20.0063 30.2554C19.986 30.2432 19.9686 30.2266 19.9554 30.2069C19.9422 30.1872 19.9335 30.1648 19.9299 30.1413V18.9401C19.9321 17.2217 20.4235 15.5395 21.3466 14.0901C22.2696 12.6407 23.5862 11.484 25.1425 10.7553C26.6987 10.0266 28.4302 9.75598 30.1345 9.97508C31.8389 10.1942 33.4456 10.894 34.7669 11.9926L34.4813 12.1545L24.8694 17.7025C24.6302 17.8428 24.4316 18.043 24.2931 18.2832C24.1546 18.5235 24.0809 18.7957 24.0794 19.073L24.0698 32.5965ZM26.2777 27.8382L31.5119 24.8212L36.756 27.8382V33.8719L31.5311 36.8887L26.2874 33.8719L26.2777 27.8382Z"/>
</mask>
<path d="M52.1829 26.4774C52.7227 24.8518 52.9094 23.1296 52.7305 21.4261C52.5516 19.7226 52.0112 18.0768 51.1455 16.5988C49.862 14.3647 47.9022 12.596 45.5487 11.5475C43.1952 10.4991 40.5696 10.2251 38.0503 10.7651C36.619 9.17302 34.7941 7.98558 32.7587 7.32203C30.7233 6.65849 28.5491 6.54219 26.4545 6.98482C24.3599 7.42745 22.4187 8.41343 20.8258 9.84373C19.2329 11.274 18.0443 13.0983 17.3796 15.1333C15.7012 15.4775 14.1156 16.1759 12.7288 17.1819C11.342 18.1879 10.1859 19.4784 9.33775 20.967C8.04033 23.1973 7.48582 25.7824 7.75439 28.3487C8.02296 30.9149 9.10069 33.3292 10.8318 35.2426C10.29 36.8674 10.1014 38.5892 10.2787 40.2928C10.4559 41.9964 10.995 43.6425 11.8597 45.121C13.1448 47.3559 15.1063 49.125 17.4615 50.1735C19.8166 51.2219 22.4439 51.4955 24.9646 50.9549C26.1016 52.2354 27.4988 53.2586 29.0628 53.9561C30.6268 54.6536 32.3216 55.0095 34.0341 54.9998C36.6163 55.0022 39.1324 54.184 41.2193 52.6633C43.3062 51.1426 44.8559 48.9981 45.6447 46.5394C47.3229 46.1946 48.9082 45.4959 50.295 44.4899C51.6817 43.4839 52.8379 42.1938 53.6866 40.7055C54.9686 38.4785 55.5136 35.903 55.2435 33.3475C54.9735 30.7921 53.9022 28.3872 52.1829 26.4774ZM34.0341 51.84C31.9193 51.8433 29.8709 51.1021 28.2479 49.7463L28.5334 49.5846L38.1454 44.0361C38.3847 43.8958 38.5833 43.6957 38.7218 43.4554C38.8603 43.2151 38.9339 42.943 38.9354 42.6656V29.1136L42.9989 31.4644C43.0189 31.4746 43.0363 31.4893 43.0496 31.5075C43.0629 31.5257 43.0717 31.5467 43.0753 31.569V42.799C43.0702 45.1953 42.116 47.492 40.4215 49.1864C38.7271 50.8808 36.4304 51.8349 34.0341 51.84ZM14.6005 43.5413C13.5399 41.71 13.1591 39.5633 13.5251 37.4789L13.8108 37.6503L23.4323 43.1987C23.6704 43.3384 23.9414 43.4121 24.2174 43.4121C24.4935 43.4121 24.7645 43.3384 25.0026 43.1987L36.756 36.4226V41.1145C36.7549 41.1388 36.7483 41.1626 36.7368 41.184C36.7252 41.2054 36.709 41.2239 36.6892 41.2382L26.9534 46.8532C24.8757 48.0501 22.4079 48.3736 20.0918 47.7527C17.7758 47.1317 15.8008 45.6171 14.6005 43.5413ZM12.0691 22.604C13.137 20.7609 14.8227 19.3551 16.8276 18.6355V30.0558C16.824 30.3317 16.8945 30.6036 17.0317 30.8429C17.169 31.0823 17.3679 31.2805 17.6079 31.4167L29.3042 38.1642L25.2405 40.5148C25.2186 40.5265 25.194 40.5326 25.1691 40.5326C25.1442 40.5326 25.1197 40.5265 25.0977 40.5148L15.381 34.9095C13.3072 33.7074 11.7942 31.7324 11.1735 29.4171C10.5527 27.1018 10.8748 24.6349 12.0691 22.5566V22.604ZM45.4544 30.3604L33.7201 23.5463L37.7743 21.2048C37.7963 21.1931 37.8208 21.187 37.8457 21.187C37.8706 21.187 37.8951 21.1931 37.9171 21.2048L47.6338 26.8198C49.1195 27.677 50.3307 28.9392 51.1259 30.459C51.9211 31.9788 52.2676 33.6934 52.125 35.4027C51.9823 37.112 51.3563 38.7455 50.3201 40.1124C49.2839 41.4793 47.8802 42.5232 46.273 43.1223V31.7019C46.2645 31.4265 46.1846 31.158 46.0411 30.9228C45.8976 30.6875 45.6955 30.4939 45.4544 30.3604ZM49.4992 24.2791L49.2135 24.1077L39.6111 18.5118C39.3716 18.3712 39.0989 18.2971 38.8211 18.2971C38.5434 18.2971 38.2707 18.3712 38.0312 18.5118L26.2876 25.2877V20.596C26.2851 20.5722 26.2891 20.5481 26.2991 20.5263C26.3092 20.5045 26.3249 20.4859 26.3447 20.4723L36.0614 14.8668C37.5506 14.0088 39.2533 13.5927 40.9704 13.667C42.6875 13.7412 44.3479 14.3028 45.7575 15.2861C47.167 16.2695 48.2675 17.6338 48.9302 19.2196C49.5928 20.8053 49.7902 22.547 49.4994 24.2409L49.4992 24.2791ZM24.0698 32.5965L20.0063 30.2554C19.986 30.2432 19.9686 30.2266 19.9554 30.2069C19.9422 30.1872 19.9335 30.1648 19.9299 30.1413V18.9401C19.9321 17.2217 20.4235 15.5395 21.3466 14.0901C22.2696 12.6407 23.5862 11.484 25.1425 10.7553C26.6987 10.0266 28.4302 9.75598 30.1345 9.97508C31.8389 10.1942 33.4456 10.894 34.7669 11.9926L34.4813 12.1545L24.8694 17.7025C24.6302 17.8428 24.4316 18.043 24.2931 18.2832C24.1546 18.5235 24.0809 18.7957 24.0794 19.073L24.0698 32.5965ZM26.2777 27.8382L31.5119 24.8212L36.756 27.8382V33.8719L31.5311 36.8887L26.2874 33.8719L26.2777 27.8382Z" fill="white" stroke="url(#paint0_linear_2588_6858)" stroke-width="1.44836" mask="url(#path-1-inside-1_2588_6858)"/>
<defs>
<linearGradient id="paint0_linear_2588_6858" x1="31.4997" y1="6.72119" x2="31.4997" y2="55" gradientUnits="userSpaceOnUse">
<stop stop-color="#00CEC9"/>
<stop offset="1" stop-color="#D4D4D4"/>
</linearGradient>
</defs>
</svg>
