<svg width="340" height="258" viewBox="0 0 340 258" fill="none" xmlns="http://www.w3.org/2000/svg">
<rect x="4.23012" y="62.3539" width="117.819" height="33.5968" rx="5.29265" fill="#090F11" stroke="url(#paint0_linear_2765_2550)" stroke-width="0.46023"/>
<rect x="7.45179" y="65.5753" width="27.6138" height="27.1535" rx="3.91196" fill="#30EDE6" fill-opacity="0.2" stroke="url(#paint1_linear_2765_2550)" stroke-width="0.46023"/>
<path d="M48.5321 82.9786C47.3613 82.9786 46.474 82.6583 45.8701 82.0177C45.2737 81.377 44.9754 80.5118 44.9754 79.422C44.9754 78.6414 45.1006 77.9713 45.351 77.4117C45.6087 76.8447 45.999 76.4102 46.5218 76.1083C47.0446 75.799 47.7111 75.6444 48.5211 75.6444C48.9334 75.6444 49.309 75.6775 49.6477 75.7438C49.9938 75.8027 50.3141 75.8837 50.6087 75.9868V77.0361C50.3141 76.9183 49.9975 76.8299 49.6587 76.771C49.3274 76.7048 48.9776 76.6716 48.6094 76.6716C47.7258 76.6716 47.0999 76.9073 46.7317 77.3785C46.3709 77.8498 46.1905 78.531 46.1905 79.422C46.1905 80.2541 46.3893 80.8873 46.7869 81.3218C47.1846 81.7489 47.7994 81.9624 48.6315 81.9624C48.9702 81.9624 49.309 81.9367 49.6477 81.8851C49.9938 81.8262 50.3178 81.7378 50.6197 81.62V82.6804C50.3252 82.7761 50.0048 82.8498 49.6587 82.9013C49.32 82.9528 48.9445 82.9786 48.5321 82.9786ZM54.2229 82.9786C53.2803 82.9786 52.5881 82.743 52.1463 82.2717C51.7119 81.8004 51.4946 81.1267 51.4946 80.2504C51.4946 79.3741 51.7155 78.7003 52.1574 78.229C52.5992 77.7578 53.2877 77.5221 54.2229 77.5221C55.1654 77.5221 55.8576 77.7578 56.2994 78.229C56.7413 78.7003 56.9622 79.3741 56.9622 80.2504C56.9622 81.1267 56.7413 81.8004 56.2994 82.2717C55.865 82.743 55.1728 82.9786 54.2229 82.9786ZM54.2229 81.9624C54.7751 81.9624 55.1654 81.8299 55.3937 81.5648C55.6293 81.2923 55.7472 80.8542 55.7472 80.2504C55.7472 79.6466 55.6293 79.2121 55.3937 78.947C55.1654 78.6819 54.7751 78.5494 54.2229 78.5494C53.678 78.5494 53.2877 78.6819 53.052 78.947C52.8238 79.2121 52.7096 79.6466 52.7096 80.2504C52.7096 80.8542 52.8238 81.2923 53.052 81.5648C53.2877 81.8299 53.678 81.9624 54.2229 81.9624ZM58.0945 82.8682V77.6326H59.199L59.2543 78.1849C59.512 77.9787 59.7955 77.8167 60.1048 77.6989C60.4141 77.581 60.7454 77.5221 61.0989 77.5221C61.4744 77.5221 61.7653 77.5847 61.9715 77.7099C62.185 77.8277 62.347 77.9934 62.4575 78.207C62.7005 78.0081 62.9803 77.8461 63.2969 77.7209C63.6136 77.5884 63.9928 77.5221 64.4346 77.5221C65.0384 77.5221 65.484 77.6768 65.7711 77.986C66.0583 78.2953 66.2019 78.7703 66.2019 79.4109V82.8682H65.02V79.5324C65.02 79.1274 64.9354 78.8439 64.766 78.6819C64.5966 78.5199 64.3205 78.4389 63.9376 78.4389C63.6872 78.4389 63.4479 78.4831 63.2196 78.5715C62.9987 78.6598 62.8073 78.7924 62.6453 78.9691C62.6673 79.0501 62.6821 79.1348 62.6894 79.2231C62.6968 79.3115 62.7005 79.4072 62.7005 79.5103V82.8682H61.5849V79.5435C61.5849 79.1605 61.5186 78.8807 61.3861 78.704C61.2535 78.5273 61.0032 78.4389 60.635 78.4389C60.3772 78.4389 60.1306 78.5015 59.8949 78.6267C59.6666 78.7445 59.4605 78.8881 59.2764 79.0575V82.8682H58.0945ZM67.5153 85.254V77.6326H68.5536L68.6198 78.1517C68.8555 77.9382 69.1132 77.7799 69.393 77.6768C69.6728 77.5737 70.0042 77.5221 70.3871 77.5221C71.1382 77.5221 71.7236 77.7283 72.1434 78.1407C72.5631 78.5457 72.773 79.2195 72.773 80.162C72.773 81.1046 72.5557 81.8115 72.1213 82.2828C71.6868 82.7467 71.094 82.9786 70.3429 82.9786C69.7097 82.9786 69.1684 82.8313 68.7192 82.5368V85.254H67.5153ZM70.0337 82.0729C71.0499 82.0729 71.5579 81.4322 71.5579 80.151C71.5579 79.5324 71.4438 79.0943 71.2155 78.8365C70.9873 78.5715 70.6043 78.4389 70.0668 78.4389C69.5293 78.4389 69.0801 78.623 68.7192 78.9912V81.609C68.8886 81.7489 69.0764 81.863 69.2826 81.9514C69.4961 82.0324 69.7465 82.0729 70.0337 82.0729ZM75.2084 82.9786C74.7813 82.9786 74.4573 82.8755 74.2364 82.6693C74.0155 82.4558 73.905 82.106 73.905 81.62V75.4235H75.109V81.5096C75.109 81.7157 75.1458 81.8557 75.2194 81.9293C75.2931 82.0029 75.4035 82.0397 75.5508 82.0397C75.7275 82.0397 75.8969 82.0177 76.0589 81.9735V82.8461C75.919 82.8976 75.7828 82.9308 75.6502 82.9455C75.525 82.9676 75.3778 82.9786 75.2084 82.9786ZM79.6126 82.9786C78.6995 82.9786 77.9926 82.754 77.4919 82.3048C76.9912 81.8557 76.7408 81.1672 76.7408 80.2393C76.7408 79.3999 76.9543 78.7371 77.3814 78.2511C77.8085 77.7651 78.4565 77.5221 79.3254 77.5221C80.1207 77.5221 80.7172 77.732 81.1148 78.1517C81.5198 78.5641 81.7223 79.098 81.7223 79.7533V80.7253H77.8895C77.9484 81.2334 78.1325 81.5832 78.4418 81.7747C78.7511 81.9661 79.2223 82.0618 79.8556 82.0618C80.1207 82.0618 80.3932 82.0361 80.673 81.9845C80.9528 81.933 81.1958 81.8667 81.402 81.7857V82.6693C81.1664 82.7724 80.8939 82.8498 80.5846 82.9013C80.2827 82.9528 79.9587 82.9786 79.6126 82.9786ZM77.8895 79.9411H80.6619V79.5766C80.6619 79.2158 80.5625 78.936 80.3637 78.7371C80.1649 78.531 79.8299 78.4279 79.3586 78.4279C78.7989 78.4279 78.4123 78.5494 78.1988 78.7924C77.9926 79.0354 77.8895 79.4183 77.8895 79.9411ZM81.9946 82.8682L83.9938 80.2062L82.0719 77.6326H83.3642L84.6455 79.3778L85.9268 77.6326H87.2191L85.3082 80.2062L87.2964 82.8682H85.993L84.6455 81.0457L83.2979 82.8682H81.9946ZM88.3385 76.5391V75.545H89.6529V76.5391H88.3385ZM88.4379 82.8682V78.5494H87.6426L87.7531 77.6326H89.6419V82.8682H88.4379ZM93.0065 82.9786C92.4469 82.9786 92.0271 82.8313 91.7473 82.5368C91.4749 82.2349 91.3386 81.8262 91.3386 81.3107V78.5715H90.5654V77.6326H91.3386V76.4286L92.5315 76.0641V77.6326H93.9233L93.846 78.5715H92.5315V81.2445C92.5315 81.5464 92.6015 81.7599 92.7414 81.8851C92.8813 82.0029 93.1096 82.0618 93.4262 82.0618C93.6251 82.0618 93.8349 82.025 94.0558 81.9514V82.8019C93.7686 82.9197 93.4189 82.9786 93.0065 82.9786ZM95.6233 84.8122C95.2257 84.8122 94.887 84.7606 94.6071 84.6575V83.7629C94.7323 83.807 94.8465 83.8365 94.9496 83.8512C95.06 83.8659 95.1705 83.8733 95.2809 83.8733C95.5092 83.8733 95.6933 83.8365 95.8332 83.7629C95.9731 83.6892 96.0946 83.5714 96.1977 83.4094C96.3082 83.2548 96.426 83.0523 96.5512 82.8019L94.2206 77.6326H95.4687L97.1476 81.5206L98.8486 77.6326H100.086L97.9539 82.5699C97.7699 83.0118 97.571 83.3983 97.3575 83.7297C97.1513 84.0684 96.9083 84.3335 96.6285 84.525C96.356 84.7164 96.021 84.8122 95.6233 84.8122ZM102.009 81.0788V80.8358C102.009 80.5412 102.072 80.2872 102.197 80.0736C102.322 79.8601 102.477 79.6686 102.661 79.4993C102.852 79.3299 103.044 79.1679 103.235 79.0133C103.471 78.8218 103.669 78.634 103.831 78.45C103.993 78.2585 104.074 78.0265 104.074 77.7541C104.074 77.3638 103.96 77.0877 103.732 76.9257C103.504 76.7563 103.102 76.6716 102.528 76.6716C102.219 76.6716 101.91 76.7121 101.6 76.7931C101.291 76.8668 101.019 76.9588 100.783 77.0693V76.0531C101.033 75.9279 101.335 75.8285 101.689 75.7548C102.049 75.6812 102.432 75.6444 102.837 75.6444C103.647 75.6444 104.259 75.8248 104.671 76.1856C105.083 76.5391 105.289 77.0324 105.289 77.6657C105.289 78.0781 105.19 78.4131 104.991 78.6709C104.8 78.9212 104.542 79.179 104.218 79.4441C104.019 79.6134 103.842 79.7644 103.688 79.8969C103.541 80.0295 103.423 80.1731 103.334 80.3277C103.253 80.475 103.213 80.6627 103.213 80.891V81.0788H102.009ZM101.965 82.8682V81.9624H103.246V82.8682H101.965Z" fill="white"/>
<path d="M26.6612 72.709H15.8558C15.6409 72.709 15.4348 72.7944 15.2828 72.9463C15.1308 73.0983 15.0454 73.3045 15.0454 73.5194V84.3248C15.0454 84.5397 15.1308 84.7458 15.2828 84.8978C15.4348 85.0498 15.6409 85.1352 15.8558 85.1352H26.6612C26.8761 85.1352 27.0823 85.0498 27.2342 84.8978C27.3862 84.7458 27.4716 84.5397 27.4716 84.3248V73.5194C27.4716 73.3045 27.3862 73.0983 27.2342 72.9463C27.0823 72.7944 26.8761 72.709 26.6612 72.709ZM18.5572 80.813C18.7174 80.813 18.8741 80.8606 19.0074 80.9496C19.1407 81.0387 19.2445 81.1652 19.3059 81.3133C19.3672 81.4614 19.3833 81.6243 19.352 81.7815C19.3207 81.9387 19.2435 82.0831 19.1302 82.1965C19.0169 82.3098 18.8725 82.387 18.7153 82.4183C18.5581 82.4495 18.3951 82.4335 18.247 82.3721C18.099 82.3108 17.9724 82.2069 17.8833 82.0737C17.7943 81.9404 17.7468 81.7837 17.7468 81.6234C17.7468 81.4085 17.8321 81.2024 17.9841 81.0504C18.1361 80.8984 18.3422 80.813 18.5572 80.813ZM15.5857 84.3248V73.5194C15.5857 73.4477 15.6141 73.379 15.6648 73.3284C15.7155 73.2777 15.7842 73.2493 15.8558 73.2493H18.287V80.2998C17.9591 80.3667 17.6677 80.553 17.4693 80.8226C17.2709 81.0922 17.1797 81.4259 17.2133 81.7589C17.247 82.0919 17.4031 82.4006 17.6514 82.6251C17.8996 82.8495 18.2224 82.9738 18.5572 82.9738C18.8919 82.9738 19.2147 82.8495 19.463 82.6251C19.7113 82.4006 19.8674 82.0919 19.901 81.7589C19.9346 81.4259 19.8434 81.0922 19.645 80.8226C19.4467 80.553 19.1553 80.3667 18.8273 80.2998V77.4134L22.6092 81.1953V84.5949H15.8558C15.7842 84.5949 15.7155 84.5665 15.6648 84.5158C15.6141 84.4651 15.5857 84.3964 15.5857 84.3248ZM26.9313 84.3248C26.9313 84.3964 26.9029 84.4651 26.8522 84.5158C26.8016 84.5665 26.7328 84.5949 26.6612 84.5949H23.1495V81.0832C23.1495 81.0477 23.1425 81.0125 23.129 80.9797C23.1154 80.9469 23.0955 80.9171 23.0704 80.892L18.8273 76.6489V73.2493H21.5286V75.1402C21.5286 75.1757 21.5356 75.2108 21.5491 75.2436C21.5627 75.2764 21.5826 75.3062 21.6077 75.3313L22.8341 76.5584C22.6497 76.8377 22.5755 77.1755 22.626 77.5063C22.6764 77.8371 22.8479 78.1375 23.1072 78.3491C23.3665 78.5607 23.6951 78.6685 24.0293 78.6516C24.3636 78.6347 24.6796 78.4943 24.9163 78.2577C25.1529 78.0211 25.2933 77.705 25.3102 77.3708C25.327 77.0365 25.2192 76.7079 25.0076 76.4486C24.796 76.1894 24.4957 76.0179 24.1649 75.9674C23.8341 75.9169 23.4963 75.9911 23.217 76.1755L22.0689 75.0274V73.2493H26.6612C26.7328 73.2493 26.8016 73.2777 26.8522 73.3284C26.9029 73.379 26.9313 73.4477 26.9313 73.5194V84.3248ZM23.9599 76.4909C24.1201 76.4909 24.2768 76.5384 24.4101 76.6274C24.5434 76.7165 24.6472 76.8431 24.7086 76.9911C24.7699 77.1392 24.786 77.3022 24.7547 77.4594C24.7234 77.6166 24.6462 77.761 24.5329 77.8743C24.4196 77.9877 24.2752 78.0648 24.118 78.0961C23.9608 78.1274 23.7978 78.1113 23.6497 78.05C23.5016 77.9887 23.3751 77.8848 23.286 77.7515C23.197 77.6182 23.1495 77.4616 23.1495 77.3013C23.1495 77.0863 23.2348 76.8802 23.3868 76.7282C23.5388 76.5763 23.7449 76.4909 23.9599 76.4909Z" fill="url(#paint2_linear_2765_2550)"/>
<path d="M122.049 80.533H152.424C162.592 80.533 170.834 88.775 170.834 98.9422V120.743C170.834 130.911 179.076 139.153 189.243 139.153H222.609" stroke="url(#paint3_linear_2765_2550)" stroke-width="0.920461"/>
<path d="M266.331 146.886H282.128L292.047 146.886" stroke="url(#paint4_linear_2765_2550)" stroke-width="0.920461"/>
<path opacity="0.2" d="M117.961 165.305H157.542C161.96 165.305 165.541 161.724 165.541 157.306V157.306C165.541 152.889 169.122 149.308 173.539 149.308H221.919" stroke="url(#paint5_linear_2765_2550)" stroke-width="0.920461"/>
<path opacity="0.2" d="M136.216 122.594H155.316C160.963 122.594 165.541 127.172 165.541 132.819V132.819C165.541 138.466 170.119 143.044 175.766 143.044H221.919" stroke="url(#paint6_linear_2765_2550)" stroke-width="0.920461"/>
<path d="M242.398 121.953C255.488 121.953 266.1 132.564 266.101 145.654C266.101 158.744 255.489 169.356 242.398 169.356C229.308 169.356 218.697 158.744 218.697 145.654C218.697 132.564 229.309 121.953 242.398 121.953Z" fill="#018284" stroke="url(#paint7_linear_2765_2550)" stroke-width="0.46023"/>
<path d="M254.135 144.407V146.734C253.236 146.734 252.504 147.467 252.504 148.37V152.119C252.504 154.139 250.864 155.779 248.85 155.779H243.772L245.166 153.452H248.85C249.584 153.452 250.181 152.854 250.181 152.119V148.37C250.181 147.276 250.625 146.29 251.338 145.571C250.625 144.854 250.181 143.865 250.181 142.774V138.968C250.181 138.235 249.584 137.637 248.85 137.637H244.996C244.262 137.637 243.665 138.235 243.665 138.968L243.665 144.407H247.085V146.734H243.665V152.119C243.665 154.139 242.028 155.779 240.014 155.779H236.16C234.146 155.779 232.506 154.139 232.506 152.119V148.37C232.506 147.467 231.774 146.734 230.875 146.734V144.407C231.774 144.407 232.506 143.675 232.506 142.774L232.506 138.968C232.506 136.951 234.146 135.31 236.16 135.31H241.238L239.844 137.637H236.16C235.426 137.637 234.829 138.235 234.829 138.968L234.829 142.774C234.829 143.865 234.385 144.854 233.672 145.571C234.385 146.29 234.829 147.276 234.829 148.37V152.119C234.829 152.854 235.426 153.452 236.16 153.452H240.014C240.745 153.452 241.342 152.854 241.342 152.119L241.342 138.968C241.342 136.951 242.982 135.31 244.996 135.31H248.85C250.864 135.31 252.504 136.951 252.504 138.968L252.504 142.774C252.504 143.675 253.236 144.407 254.135 144.407Z" fill="black"/>
<rect opacity="0.5" x="4.23012" y="106.536" width="132.086" height="33.5968" rx="5.29265" fill="#090F11" stroke="url(#paint8_linear_2765_2550)" stroke-width="0.46023"/>
<rect opacity="0.5" x="7.45179" y="109.757" width="27.6138" height="27.1535" rx="3.91196" fill="#30EDE6" fill-opacity="0.2" stroke="url(#paint9_linear_2765_2550)" stroke-width="0.46023"/>
<path opacity="0.5" d="M49.3716 128.95C48.8119 128.95 48.4032 128.792 48.1455 128.475C47.8878 128.158 47.7516 127.709 47.7368 127.127C46.8164 127.024 46.1242 126.682 45.6603 126.1C45.2037 125.511 44.9754 124.649 44.9754 123.515C44.9754 122.219 45.2553 121.281 45.8149 120.699C46.3745 120.117 47.2177 119.826 48.3443 119.826C49.4783 119.826 50.3215 120.117 50.8738 120.699C51.4334 121.281 51.7132 122.219 51.7132 123.515C51.7132 124.672 51.4702 125.544 50.9842 126.133C50.5056 126.722 49.7803 127.057 48.8082 127.138C48.8156 127.477 48.8782 127.709 48.996 127.834C49.1212 127.967 49.3311 128.033 49.6256 128.033C49.8907 128.033 50.1521 127.996 50.4098 127.923V128.817C50.292 128.854 50.1374 128.884 49.9459 128.906C49.7545 128.935 49.563 128.95 49.3716 128.95ZM48.3443 126.144C49.0881 126.144 49.633 125.942 49.9791 125.537C50.3325 125.124 50.5093 124.451 50.5093 123.515C50.5093 122.529 50.3325 121.84 49.9791 121.45C49.633 121.052 49.0881 120.854 48.3443 120.854C47.608 120.854 47.0631 121.052 46.7096 121.45C46.3635 121.84 46.1905 122.529 46.1905 123.515C46.1905 124.451 46.3635 125.124 46.7096 125.537C47.0631 125.942 47.608 126.144 48.3443 126.144ZM54.7477 127.161C54.1218 127.161 53.6395 126.987 53.3007 126.641C52.9694 126.295 52.8037 125.787 52.8037 125.117V121.814H54.0077V125.117C54.0077 125.507 54.1034 125.795 54.2948 125.979C54.4863 126.163 54.7808 126.255 55.1785 126.255C55.473 126.255 55.7455 126.2 55.9959 126.089C56.2462 125.979 56.4634 125.831 56.6475 125.647V121.814H57.8405V127.05H56.7469L56.6917 126.509C56.4561 126.693 56.1763 126.848 55.8523 126.973C55.5283 127.098 55.1601 127.161 54.7477 127.161ZM59.6473 120.721V119.727H60.9618V120.721H59.6473ZM59.7468 127.05V122.731H58.9515L59.0619 121.814H60.9507V127.05H59.7468ZM64.8897 127.161C63.9693 127.161 63.2734 126.929 62.8021 126.465C62.3308 125.993 62.0952 125.316 62.0952 124.432C62.0952 123.512 62.3529 122.827 62.8684 122.378C63.3912 121.929 64.0871 121.704 64.956 121.704C65.3168 121.704 65.6187 121.73 65.8617 121.781C66.1121 121.833 66.3514 121.914 66.5797 122.024V122.919C66.1968 122.728 65.7329 122.632 65.188 122.632C64.5841 122.632 64.1202 122.768 63.7962 123.041C63.4722 123.306 63.3102 123.77 63.3102 124.432C63.3102 125.058 63.4538 125.518 63.741 125.813C64.0282 126.1 64.5031 126.244 65.1659 126.244C65.6887 126.244 66.1636 126.144 66.5907 125.945V126.862C66.3477 126.958 66.0863 127.032 65.8065 127.083C65.5341 127.135 65.2285 127.161 64.8897 127.161ZM67.5085 127.05V119.605H68.7125V123.913L70.9106 121.814H72.2913L70.1595 123.924L72.4128 127.05H71.1425L69.4084 124.565L68.7125 125.228V127.05H67.5085ZM78.2282 127.161C77.4624 127.161 76.8475 126.995 76.3836 126.663C75.9197 126.325 75.6877 125.876 75.6877 125.316C75.6877 124.815 75.835 124.392 76.1296 124.046C76.4315 123.7 76.8402 123.387 77.3556 123.107C77.0684 122.849 76.8365 122.595 76.6597 122.345C76.4904 122.094 76.4057 121.8 76.4057 121.461C76.4057 120.997 76.5714 120.611 76.9027 120.301C77.2341 119.985 77.6907 119.826 78.2724 119.826C78.8468 119.826 79.2959 119.977 79.6199 120.279C79.9513 120.574 80.117 120.968 80.117 121.461C80.117 121.844 80.025 122.172 79.8409 122.444C79.6568 122.717 79.3622 122.985 78.9572 123.25L80.592 124.918C80.7098 124.668 80.7687 124.373 80.7687 124.035V123.847H81.6855V124.057C81.6855 124.337 81.6486 124.613 81.575 124.885C81.5014 125.15 81.402 125.382 81.2768 125.581L82.1715 126.487L81.4425 127.149L80.6472 126.354C80.3747 126.634 80.0323 126.84 79.6199 126.973C79.2076 127.098 78.7437 127.161 78.2282 127.161ZM78.2061 122.731C78.5228 122.525 78.7584 122.341 78.913 122.179C79.0677 122.017 79.145 121.796 79.145 121.516C79.145 121.259 79.075 121.056 78.9351 120.909C78.8026 120.754 78.5817 120.677 78.2724 120.677C77.9558 120.677 77.7275 120.758 77.5876 120.92C77.4477 121.082 77.3777 121.281 77.3777 121.516C77.3777 121.745 77.444 121.951 77.5765 122.135C77.7164 122.312 77.9263 122.51 78.2061 122.731ZM78.2282 126.321C78.9646 126.321 79.5279 126.111 79.9182 125.691L78.0736 123.825C77.6612 123.994 77.3519 124.197 77.1458 124.432C76.9469 124.661 76.8475 124.948 76.8475 125.294C76.8475 125.633 76.9764 125.89 77.2341 126.067C77.4918 126.236 77.8232 126.321 78.2282 126.321ZM85.7542 127.05V119.937H90.5921V120.876H86.9581V123.029H90.1834V123.957H86.9581V127.05H85.7542ZM92.5382 127.161C92.2068 127.161 91.8975 127.102 91.6104 126.984C91.3305 126.866 91.1059 126.689 90.9366 126.454C90.7672 126.211 90.6825 125.912 90.6825 125.559C90.6825 125.058 90.8519 124.657 91.1906 124.355C91.5367 124.046 92.0669 123.891 92.7812 123.891H94.4601V123.659C94.4601 123.409 94.4196 123.21 94.3386 123.063C94.265 122.915 94.1251 122.809 93.9189 122.742C93.7201 122.676 93.4255 122.643 93.0352 122.643C92.4167 122.643 91.8386 122.735 91.3011 122.919V122.024C91.5367 121.929 91.8239 121.851 92.1626 121.792C92.5014 121.733 92.8659 121.704 93.2561 121.704C94.022 121.704 94.6037 121.859 95.0013 122.168C95.4063 122.477 95.6088 122.982 95.6088 123.681V127.05H94.5816L94.5043 126.52C94.2907 126.726 94.0256 126.884 93.709 126.995C93.3997 127.105 93.0095 127.161 92.5382 127.161ZM92.8585 126.299C93.2193 126.299 93.5323 126.24 93.7974 126.122C94.0698 125.997 94.2907 125.831 94.4601 125.625V124.708H92.8033C92.4498 124.708 92.1921 124.778 92.0301 124.918C91.8755 125.051 91.7981 125.257 91.7981 125.537C91.7981 125.809 91.8902 126.004 92.0743 126.122C92.2584 126.24 92.5198 126.299 92.8585 126.299ZM98.6501 127.161C98.2892 127.161 97.9431 127.135 97.6118 127.083C97.2878 127.032 97.019 126.969 96.8055 126.895V125.879C97.0558 125.975 97.332 126.049 97.6339 126.1C97.9358 126.152 98.223 126.177 98.4954 126.177C98.9078 126.177 99.2023 126.141 99.3791 126.067C99.5558 125.993 99.6442 125.85 99.6442 125.636C99.6442 125.482 99.5889 125.36 99.4785 125.272C99.3754 125.183 99.2171 125.102 99.0035 125.029C98.7973 124.955 98.5322 124.867 98.2082 124.764C97.899 124.661 97.6302 124.55 97.4019 124.432C97.1736 124.307 96.9969 124.149 96.8717 123.957C96.7465 123.766 96.684 123.515 96.684 123.206C96.684 122.728 96.857 122.359 97.2031 122.102C97.5492 121.837 98.1051 121.704 98.871 121.704C99.1729 121.704 99.4601 121.726 99.7325 121.77C100.005 121.814 100.237 121.87 100.428 121.936V122.941C100.222 122.86 99.9939 122.798 99.7436 122.753C99.5006 122.709 99.2723 122.687 99.0587 122.687C98.6758 122.687 98.385 122.72 98.1861 122.786C97.9947 122.853 97.899 122.985 97.899 123.184C97.899 123.39 97.9984 123.538 98.1972 123.626C98.4034 123.707 98.7311 123.821 99.1802 123.968C99.5926 124.094 99.9203 124.226 100.163 124.366C100.406 124.506 100.579 124.675 100.682 124.874C100.793 125.066 100.848 125.316 100.848 125.625C100.848 126.141 100.66 126.527 100.285 126.785C99.9093 127.035 99.3643 127.161 98.6501 127.161ZM103.827 127.161C103.267 127.161 102.847 127.013 102.568 126.719C102.295 126.417 102.159 126.008 102.159 125.493V122.753H101.386V121.814H102.159V120.611L103.352 120.246V121.814H104.744L104.666 122.753H103.352V125.426C103.352 125.728 103.422 125.942 103.562 126.067C103.702 126.185 103.93 126.244 104.247 126.244C104.445 126.244 104.655 126.207 104.876 126.133V126.984C104.589 127.102 104.239 127.161 103.827 127.161ZM106.763 125.261V125.018C106.763 124.723 106.826 124.469 106.951 124.256C107.076 124.042 107.231 123.851 107.415 123.681C107.606 123.512 107.798 123.35 107.989 123.195C108.225 123.004 108.424 122.816 108.586 122.632C108.748 122.44 108.829 122.208 108.829 121.936C108.829 121.546 108.715 121.27 108.486 121.108C108.258 120.938 107.857 120.854 107.282 120.854C106.973 120.854 106.664 120.894 106.354 120.975C106.045 121.049 105.773 121.141 105.537 121.251V120.235C105.787 120.11 106.089 120.01 106.443 119.937C106.804 119.863 107.187 119.826 107.592 119.826C108.402 119.826 109.013 120.007 109.425 120.368C109.837 120.721 110.044 121.214 110.044 121.848C110.044 122.26 109.944 122.595 109.745 122.853C109.554 123.103 109.296 123.361 108.972 123.626C108.773 123.795 108.597 123.946 108.442 124.079C108.295 124.211 108.177 124.355 108.089 124.51C108.008 124.657 107.967 124.845 107.967 125.073V125.261H106.763ZM106.719 127.05V126.144H108V127.05H106.719Z" fill="white"/>
<g filter="url(#filter0_f_2765_2550)">
<path d="M197.194 138.483L190.394 138.851L198.05 139.472C198.614 139.517 199.16 139.693 199.646 139.984L201.058 140.832C201.153 140.889 201.216 140.987 201.228 141.097L201.298 141.727C201.339 142.089 201.868 142.077 201.892 141.714C201.897 141.648 201.923 141.585 201.967 141.536L202.747 140.659C203.384 139.941 204.274 139.498 205.23 139.42L212.254 138.851L205.343 138.477C204.317 138.422 203.354 137.962 202.666 137.197C202.024 136.484 201.669 135.559 201.669 134.599V132.408L201.4 134.564C201.276 135.553 200.826 136.472 200.121 137.177C199.34 137.958 198.297 138.424 197.194 138.483Z" fill="#30EDE6"/>
</g>
<g filter="url(#filter1_f_2765_2550)">
<path d="M271.688 146.798L264.888 147.165L272.544 147.786C273.108 147.832 273.655 148.007 274.14 148.298L275.552 149.146C275.647 149.203 275.71 149.301 275.722 149.411L275.793 150.042C275.833 150.403 276.362 150.392 276.387 150.028C276.391 149.962 276.417 149.9 276.461 149.85L277.241 148.973C277.879 148.256 278.768 147.812 279.724 147.735L286.749 147.165L279.838 146.792C278.811 146.736 277.848 146.276 277.16 145.512C276.518 144.798 276.163 143.873 276.163 142.913V140.722L275.894 142.878C275.77 143.867 275.32 144.786 274.616 145.491C273.834 146.273 272.792 146.738 271.688 146.798Z" fill="#30EDE6"/>
</g>
<path d="M335.972 142.198C335.933 142.027 335.851 141.869 335.736 141.737C335.62 141.605 335.474 141.504 335.31 141.442L319.131 135.376L323.21 114.977C323.254 114.751 323.224 114.516 323.123 114.308C323.022 114.1 322.857 113.931 322.651 113.825C322.446 113.72 322.212 113.684 321.984 113.724C321.756 113.763 321.548 113.875 321.39 114.043L291.591 145.97C291.471 146.097 291.383 146.252 291.337 146.421C291.29 146.59 291.286 146.768 291.325 146.939C291.365 147.11 291.446 147.268 291.562 147.4C291.677 147.532 291.824 147.633 291.988 147.694L308.167 153.761L304.096 174.159C304.052 174.386 304.082 174.621 304.183 174.828C304.283 175.036 304.449 175.206 304.654 175.311C304.86 175.417 305.094 175.452 305.322 175.413C305.549 175.374 305.758 175.261 305.916 175.093L335.714 143.166C335.834 143.038 335.919 142.883 335.964 142.714C336.009 142.545 336.012 142.368 335.972 142.198ZM306.916 170.908L310.439 153.295C310.488 153.047 310.448 152.79 310.325 152.569C310.202 152.348 310.005 152.178 309.768 152.09L294.231 146.26L320.389 118.229L316.867 135.842C316.817 136.089 316.858 136.347 316.98 136.567C317.103 136.788 317.301 136.958 317.537 137.047L333.075 142.876L306.916 170.908Z" fill="#30EDE6"/>
<path opacity="0.5" d="M28.9198 123.708L22.5768 119.671C22.4466 119.588 22.2967 119.542 22.1426 119.537C21.9885 119.532 21.836 119.569 21.7008 119.643C21.5662 119.715 21.4538 119.822 21.3759 119.954C21.2979 120.085 21.2573 120.235 21.2584 120.388V123.595L15.0967 119.671C14.9665 119.588 14.8166 119.542 14.6625 119.537C14.5085 119.532 14.3559 119.569 14.2207 119.643C14.0861 119.715 13.9738 119.822 13.8958 119.954C13.8179 120.085 13.7772 120.235 13.7783 120.388V128.466C13.7772 128.619 13.8179 128.769 13.8958 128.9C13.9738 129.032 14.0861 129.139 14.2207 129.211C14.3559 129.285 14.5085 129.322 14.6625 129.317C14.8166 129.312 14.9665 129.266 15.0967 129.183L21.2584 125.259V128.466C21.2573 128.619 21.2979 128.769 21.3759 128.9C21.4538 129.032 21.5662 129.139 21.7008 129.211C21.836 129.285 21.9885 129.322 22.1426 129.317C22.2967 129.312 22.4466 129.266 22.5768 129.183L28.9198 125.146C29.0405 125.069 29.1399 124.964 29.2088 124.838C29.2777 124.713 29.3139 124.572 29.3139 124.429C29.3139 124.286 29.2777 124.145 29.2088 124.02C29.1399 123.895 29.0405 123.789 28.9198 123.712V123.708ZM21.1304 124.656L14.7853 128.698C14.7426 128.725 14.6934 128.74 14.6427 128.742C14.5921 128.744 14.5419 128.732 14.4976 128.707C14.4539 128.684 14.4173 128.649 14.392 128.607C14.3666 128.564 14.3534 128.516 14.3537 128.466V120.388C14.3534 120.338 14.3666 120.29 14.392 120.247C14.4173 120.205 14.4539 120.17 14.4976 120.147C14.5396 120.123 14.5869 120.111 14.635 120.111C14.6893 120.111 14.7425 120.127 14.7882 120.156L21.1304 124.195C21.1696 124.22 21.202 124.254 21.2244 124.295C21.2468 124.335 21.2586 124.381 21.2586 124.427C21.2586 124.473 21.2468 124.519 21.2244 124.559C21.202 124.6 21.1696 124.634 21.1304 124.658V124.656ZM28.6105 124.656L22.2654 128.698C22.2227 128.725 22.1734 128.74 22.1228 128.742C22.0722 128.744 22.022 128.732 21.9777 128.707C21.9339 128.684 21.8974 128.649 21.872 128.607C21.8467 128.564 21.8335 128.516 21.8338 128.466V120.388C21.8335 120.338 21.8467 120.29 21.872 120.247C21.8974 120.205 21.9339 120.17 21.9777 120.147C22.0197 120.123 22.067 120.111 22.115 120.111C22.1694 120.111 22.2226 120.127 22.2682 120.156L28.6105 124.195C28.6497 124.22 28.6821 124.254 28.7045 124.295C28.7269 124.335 28.7387 124.381 28.7387 124.427C28.7387 124.473 28.7269 124.519 28.7045 124.559C28.6821 124.6 28.6497 124.634 28.6105 124.658V124.656Z" fill="url(#paint10_linear_2765_2550)"/>
<rect opacity="0.2" x="4.23012" y="149.337" width="114.137" height="33.5968" rx="5.29265" fill="#090F11" stroke="url(#paint11_linear_2765_2550)" stroke-width="0.46023"/>
<rect opacity="0.2" x="7.45179" y="152.559" width="27.6138" height="27.1535" rx="3.91196" fill="#30EDE6" fill-opacity="0.2" stroke="url(#paint12_linear_2765_2550)" stroke-width="0.46023"/>
<path opacity="0.2" d="M45.1964 169.852V162.738H48.6426C49.3495 162.738 49.8723 162.904 50.211 163.235C50.5498 163.567 50.7191 164.034 50.7191 164.638C50.7191 165.021 50.6418 165.345 50.4872 165.61C50.3325 165.868 50.1263 166.063 49.8686 166.195C50.2147 166.291 50.4872 166.464 50.686 166.715C50.8922 166.958 50.9953 167.318 50.9953 167.797C50.9953 168.489 50.8075 169.005 50.4319 169.343C50.0638 169.682 49.5188 169.852 48.7972 169.852H45.1964ZM46.4003 165.776H48.4769C48.8819 165.776 49.1691 165.684 49.3384 165.5C49.5152 165.308 49.6035 165.054 49.6035 164.737C49.6035 164.369 49.5152 164.097 49.3384 163.92C49.1617 163.736 48.8303 163.644 48.3443 163.644H46.4003V165.776ZM46.4003 168.968H48.5432C48.9702 168.968 49.2832 168.88 49.482 168.703C49.6808 168.519 49.7803 168.202 49.7803 167.753C49.7803 167.385 49.6808 167.112 49.482 166.936C49.2906 166.751 48.9371 166.659 48.4217 166.659H46.4003V168.968ZM52.4055 163.522V162.528H53.7199V163.522H52.4055ZM52.5049 169.852V165.533H51.7096L51.82 164.616H53.7088V169.852H52.5049ZM57.195 171.796C56.8047 171.796 56.4144 171.77 56.0241 171.718C55.6339 171.674 55.3025 171.604 55.0301 171.508V170.581C55.3246 170.676 55.6633 170.75 56.0462 170.801C56.4292 170.853 56.7937 170.879 57.1397 170.879C57.6699 170.879 58.0565 170.849 58.2995 170.79C58.5425 170.732 58.664 170.599 58.664 170.393C58.664 170.238 58.6051 170.128 58.4873 170.061C58.3695 170.003 58.1449 169.973 57.8135 169.973H56.3997C55.4498 169.973 54.9748 169.638 54.9748 168.968C54.9748 168.754 55.0374 168.556 55.1626 168.371C55.2878 168.187 55.4866 168.047 55.7591 167.952C55.4571 167.804 55.2326 167.602 55.0853 167.344C54.9454 167.086 54.8754 166.777 54.8754 166.416C54.8754 165.746 55.0742 165.26 55.4719 164.958C55.8769 164.656 56.4807 164.506 57.2833 164.506C57.4527 164.506 57.6294 164.52 57.8135 164.55C57.9976 164.572 58.1412 164.594 58.2443 164.616H60.1662L60.1331 165.4H59.2494C59.3894 165.518 59.4924 165.665 59.5587 165.842C59.625 166.019 59.6581 166.21 59.6581 166.416C59.6581 166.976 59.4888 167.418 59.15 167.742C58.8113 168.059 58.2995 168.217 57.6147 168.217C57.4969 168.217 57.3864 168.213 57.2833 168.206C57.1876 168.191 57.0808 168.176 56.963 168.162C56.7421 168.184 56.5433 168.243 56.3666 168.338C56.1898 168.434 56.1015 168.563 56.1015 168.725C56.1015 168.835 56.1456 168.916 56.234 168.968C56.3224 169.012 56.4697 169.034 56.6758 169.034H58.1449C58.6677 169.034 59.069 169.148 59.3489 169.377C59.636 169.598 59.7796 169.922 59.7796 170.349C59.7796 170.864 59.555 171.232 59.1059 171.453C58.664 171.681 58.0271 171.796 57.195 171.796ZM57.2833 167.455C57.762 167.455 58.0933 167.374 58.2774 167.212C58.4689 167.05 58.5646 166.774 58.5646 166.383C58.5646 165.993 58.4689 165.709 58.2774 165.533C58.0933 165.356 57.762 165.268 57.2833 165.268C56.8342 165.268 56.5065 165.352 56.3003 165.522C56.0941 165.691 55.991 165.978 55.991 166.383C55.991 166.759 56.0867 167.031 56.2782 167.201C56.477 167.37 56.8121 167.455 57.2833 167.455ZM66.9935 169.962C65.8226 169.962 64.9353 169.642 64.3315 169.001C63.735 168.36 63.4368 167.495 63.4368 166.405C63.4368 165.625 63.562 164.955 63.8123 164.395C64.0701 163.828 64.4604 163.394 64.9832 163.092C65.506 162.782 66.1724 162.628 66.9824 162.628C67.3948 162.628 67.7703 162.661 68.1091 162.727C68.4552 162.786 68.7755 162.867 69.07 162.97V164.02C68.7755 163.902 68.4588 163.813 68.1201 163.754C67.7887 163.688 67.439 163.655 67.0708 163.655C66.1871 163.655 65.5612 163.891 65.193 164.362C64.8322 164.833 64.6518 165.514 64.6518 166.405C64.6518 167.237 64.8506 167.871 65.2483 168.305C65.6459 168.732 66.2608 168.946 67.0929 168.946C67.4316 168.946 67.7703 168.92 68.1091 168.869C68.4552 168.81 68.7792 168.721 69.0811 168.603V169.664C68.7865 169.76 68.4662 169.833 68.1201 169.885C67.7814 169.936 67.4058 169.962 66.9935 169.962ZM72.6842 169.962C71.7417 169.962 71.0495 169.726 70.6077 169.255C70.1732 168.784 69.956 168.11 69.956 167.234C69.956 166.357 70.1769 165.684 70.6187 165.212C71.0605 164.741 71.749 164.506 72.6842 164.506C73.6268 164.506 74.319 164.741 74.7608 165.212C75.2026 165.684 75.4235 166.357 75.4235 167.234C75.4235 168.11 75.2026 168.784 74.7608 169.255C74.3263 169.726 73.6341 169.962 72.6842 169.962ZM72.6842 168.946C73.2365 168.946 73.6268 168.813 73.8551 168.548C74.0907 168.276 74.2085 167.838 74.2085 167.234C74.2085 166.63 74.0907 166.195 73.8551 165.93C73.6268 165.665 73.2365 165.533 72.6842 165.533C72.1393 165.533 71.749 165.665 71.5134 165.93C71.2851 166.195 71.171 166.63 71.171 167.234C71.171 167.838 71.2851 168.276 71.5134 168.548C71.749 168.813 72.1393 168.946 72.6842 168.946ZM76.5558 169.852V164.616H77.6604L77.7156 165.168C77.9513 164.984 78.2311 164.83 78.5551 164.704C78.8865 164.572 79.251 164.506 79.6486 164.506C80.3261 164.506 80.8194 164.664 81.1287 164.98C81.438 165.297 81.5926 165.79 81.5926 166.461V169.852H80.3997V166.516C80.3997 166.111 80.315 165.827 80.1456 165.665C79.9836 165.503 79.6744 165.422 79.2178 165.422C78.9454 165.422 78.6766 165.478 78.4115 165.588C78.1538 165.698 77.9365 165.842 77.7598 166.019V169.852H76.5558ZM84.9017 169.962C84.342 169.962 83.9223 169.815 83.6425 169.52C83.37 169.218 83.2338 168.81 83.2338 168.294V165.555H82.4606V164.616H83.2338V163.412L84.4267 163.048V164.616H85.8185L85.7411 165.555H84.4267V168.228C84.4267 168.53 84.4967 168.743 84.6366 168.869C84.7765 168.986 85.0048 169.045 85.3214 169.045C85.5202 169.045 85.7301 169.008 85.951 168.935V169.785C85.6638 169.903 85.3141 169.962 84.9017 169.962ZM89.4838 169.962C88.5707 169.962 87.8637 169.737 87.363 169.288C86.8623 168.839 86.6119 168.151 86.6119 167.223C86.6119 166.383 86.8255 165.721 87.2526 165.235C87.6797 164.749 88.3277 164.506 89.1966 164.506C89.9919 164.506 90.5883 164.715 90.9859 165.135C91.391 165.547 91.5935 166.081 91.5935 166.737V167.709H87.7607C87.8196 168.217 88.0037 168.567 88.3129 168.758C88.6222 168.95 89.0935 169.045 89.7268 169.045C89.9919 169.045 90.2643 169.019 90.5441 168.968C90.8239 168.916 91.0669 168.85 91.2731 168.769V169.653C91.0375 169.756 90.765 169.833 90.4558 169.885C90.1539 169.936 89.8299 169.962 89.4838 169.962ZM87.7607 166.924H90.5331V166.56C90.5331 166.199 90.4337 165.919 90.2349 165.721C90.036 165.514 89.701 165.411 89.2297 165.411C88.6701 165.411 88.2835 165.533 88.0699 165.776C87.8637 166.019 87.7607 166.402 87.7607 166.924ZM91.8657 169.852L93.8649 167.19L91.943 164.616H93.2353L94.5166 166.361L95.7979 164.616H97.0902L95.1794 167.19L97.1676 169.852H95.8642L94.5166 168.029L93.1691 169.852H91.8657ZM99.8749 169.962C99.3153 169.962 98.8955 169.815 98.6157 169.52C98.3433 169.218 98.207 168.81 98.207 168.294V165.555H97.4338V164.616H98.207V163.412L99.3999 163.048V164.616H100.792L100.714 165.555H99.3999V168.228C99.3999 168.53 99.4699 168.743 99.6098 168.869C99.7497 168.986 99.978 169.045 100.295 169.045C100.493 169.045 100.703 169.008 100.924 168.935V169.785C100.637 169.903 100.287 169.962 99.8749 169.962ZM102.811 168.062V167.819C102.811 167.525 102.874 167.271 102.999 167.057C103.124 166.843 103.279 166.652 103.463 166.483C103.654 166.313 103.846 166.151 104.037 165.997C104.273 165.805 104.472 165.617 104.634 165.433C104.796 165.242 104.877 165.01 104.877 164.737C104.877 164.347 104.763 164.071 104.534 163.909C104.306 163.74 103.905 163.655 103.33 163.655C103.021 163.655 102.712 163.696 102.403 163.777C102.093 163.85 101.821 163.942 101.585 164.053V163.036C101.836 162.911 102.137 162.812 102.491 162.738C102.852 162.665 103.235 162.628 103.64 162.628C104.45 162.628 105.061 162.808 105.473 163.169C105.886 163.522 106.092 164.016 106.092 164.649C106.092 165.061 105.992 165.397 105.793 165.654C105.602 165.905 105.344 166.162 105.02 166.427C104.821 166.597 104.645 166.748 104.49 166.88C104.343 167.013 104.225 167.156 104.137 167.311C104.056 167.458 104.015 167.646 104.015 167.874V168.062H102.811ZM102.767 169.852V168.946H104.048V169.852H102.767Z" fill="white"/>
<path opacity="0.2" d="M29.0249 165.905H28.1555C28.0814 164.253 27.3915 162.687 26.2217 161.518C25.0518 160.348 23.4866 159.658 21.8338 159.584V158.714C21.8338 158.638 21.8035 158.565 21.7496 158.511C21.6956 158.457 21.6224 158.427 21.5462 158.427C21.4699 158.427 21.3967 158.457 21.3428 158.511C21.2888 158.565 21.2585 158.638 21.2585 158.714V159.584C19.6057 159.658 18.0405 160.348 16.8706 161.518C15.7008 162.687 15.011 164.253 14.9368 165.905H14.0674C13.9911 165.905 13.918 165.936 13.864 165.99C13.8101 166.044 13.7798 166.117 13.7798 166.193C13.7798 166.269 13.8101 166.343 13.864 166.397C13.918 166.45 13.9911 166.481 14.0674 166.481H14.9368C15.011 168.134 15.7008 169.699 16.8706 170.869C18.0405 172.039 19.6057 172.728 21.2585 172.802V173.672C21.2585 173.748 21.2888 173.821 21.3428 173.875C21.3967 173.929 21.4699 173.96 21.5462 173.96C21.6224 173.96 21.6956 173.929 21.7496 173.875C21.8035 173.821 21.8338 173.748 21.8338 173.672V172.802C23.4866 172.728 25.0518 172.039 26.2217 170.869C27.3915 169.699 28.0814 168.134 28.1555 166.481H29.0249C29.1012 166.481 29.1743 166.45 29.2283 166.397C29.2822 166.343 29.3125 166.269 29.3125 166.193C29.3125 166.117 29.2822 166.044 29.2283 165.99C29.1743 165.936 29.1012 165.905 29.0249 165.905ZM21.8338 172.226V171.371C21.8338 171.294 21.8035 171.221 21.7496 171.167C21.6956 171.113 21.6224 171.083 21.5462 171.083C21.4699 171.083 21.3967 171.113 21.3428 171.167C21.2888 171.221 21.2585 171.294 21.2585 171.371V172.226C19.7584 172.153 18.3392 171.524 17.2772 170.462C16.2151 169.4 15.5862 167.981 15.5128 166.481H16.3686C16.4449 166.481 16.518 166.45 16.572 166.397C16.6259 166.343 16.6562 166.269 16.6562 166.193C16.6562 166.117 16.6259 166.044 16.572 165.99C16.518 165.936 16.4449 165.905 16.3686 165.905H15.5128C15.5862 164.405 16.2151 162.986 17.2772 161.924C18.3392 160.862 19.7584 160.233 21.2585 160.16V161.016C21.2585 161.092 21.2888 161.165 21.3428 161.219C21.3967 161.273 21.4699 161.303 21.5462 161.303C21.6224 161.303 21.6956 161.273 21.7496 161.219C21.8035 161.165 21.8338 161.092 21.8338 161.016V160.16C23.3339 160.233 24.7531 160.862 25.8152 161.924C26.8772 162.986 27.5061 164.405 27.5795 165.905H26.7237C26.6475 165.905 26.5743 165.936 26.5203 165.99C26.4664 166.044 26.4361 166.117 26.4361 166.193C26.4361 166.269 26.4664 166.343 26.5203 166.397C26.5743 166.45 26.6475 166.481 26.7237 166.481H27.5795C27.5061 167.981 26.8772 169.4 25.8152 170.462C24.7531 171.524 23.3339 172.153 21.8338 172.226ZM21.5462 163.604C21.0341 163.604 20.5336 163.756 20.1079 164.041C19.6822 164.325 19.3504 164.729 19.1544 165.202C18.9585 165.675 18.9072 166.196 19.0071 166.698C19.107 167.2 19.3536 167.662 19.7156 168.024C20.0777 168.386 20.5389 168.632 21.0411 168.732C21.5433 168.832 22.0638 168.781 22.5368 168.585C23.0099 168.389 23.4142 168.057 23.6987 167.631C23.9831 167.206 24.1349 166.705 24.1349 166.193C24.1349 165.507 23.8622 164.848 23.3767 164.363C22.8912 163.877 22.2327 163.604 21.5462 163.604ZM21.5462 168.207C21.1479 168.207 20.7586 168.089 20.4275 167.867C20.0964 167.646 19.8383 167.332 19.6859 166.964C19.5335 166.596 19.4937 166.191 19.5713 165.8C19.649 165.41 19.8408 165.051 20.1224 164.769C20.404 164.488 20.7628 164.296 21.1533 164.218C21.5439 164.141 21.9488 164.18 22.3167 164.333C22.6846 164.485 22.9991 164.743 23.2203 165.074C23.4416 165.406 23.5597 165.795 23.5597 166.193C23.5597 166.727 23.3475 167.239 22.9699 167.617C22.5923 167.994 22.0802 168.207 21.5462 168.207Z" fill="url(#paint13_linear_2765_2550)"/>
<defs>
<filter id="filter0_f_2765_2550" x="188.553" y="130.567" width="25.5432" height="13.2668" filterUnits="userSpaceOnUse" color-interpolation-filters="sRGB">
<feFlood flood-opacity="0" result="BackgroundImageFix"/>
<feBlend mode="normal" in="SourceGraphic" in2="BackgroundImageFix" result="shape"/>
<feGaussianBlur stdDeviation="0.920461" result="effect1_foregroundBlur_2765_2550"/>
</filter>
<filter id="filter1_f_2765_2550" x="263.047" y="138.881" width="25.5432" height="13.2668" filterUnits="userSpaceOnUse" color-interpolation-filters="sRGB">
<feFlood flood-opacity="0" result="BackgroundImageFix"/>
<feBlend mode="normal" in="SourceGraphic" in2="BackgroundImageFix" result="shape"/>
<feGaussianBlur stdDeviation="0.920461" result="effect1_foregroundBlur_2765_2550"/>
</filter>
<linearGradient id="paint0_linear_2765_2550" x1="6.15053" y1="62.1238" x2="87.995" y2="86.3565" gradientUnits="userSpaceOnUse">
<stop stop-color="#30EDE6"/>
<stop offset="1" stop-color="#666666"/>
</linearGradient>
<linearGradient id="paint1_linear_2765_2550" x1="27.7019" y1="95.7204" x2="6.23087" y2="95.0031" gradientUnits="userSpaceOnUse">
<stop stop-color="#30EDE6"/>
<stop offset="1" stop-color="#666666"/>
</linearGradient>
<linearGradient id="paint2_linear_2765_2550" x1="21.2585" y1="72.709" x2="21.2585" y2="85.1352" gradientUnits="userSpaceOnUse">
<stop stop-color="white"/>
<stop offset="1" stop-color="#999999"/>
</linearGradient>
<linearGradient id="paint3_linear_2765_2550" x1="172.329" y1="72.2488" x2="172.329" y2="116.891" gradientUnits="userSpaceOnUse">
<stop stop-color="#30EDE6"/>
<stop offset="1" stop-color="#666666"/>
</linearGradient>
<linearGradient id="paint4_linear_2765_2550" x1="282.612" y1="132.913" x2="1.36895e+12" y2="8.53219e+14" gradientUnits="userSpaceOnUse">
<stop stop-color="#30EDE6"/>
<stop offset="1" stop-color="#666666"/>
</linearGradient>
<linearGradient id="paint5_linear_2765_2550" x1="167.036" y1="167.977" x2="167.036" y2="123.334" gradientUnits="userSpaceOnUse">
<stop stop-color="#30EDE6"/>
<stop offset="1" stop-color="#666666"/>
</linearGradient>
<linearGradient id="paint6_linear_2765_2550" x1="167.037" y1="116.361" x2="167.037" y2="161.003" gradientUnits="userSpaceOnUse">
<stop stop-color="#30EDE6"/>
<stop offset="1" stop-color="#666666"/>
</linearGradient>
<linearGradient id="paint7_linear_2765_2550" x1="242.399" y1="121.722" x2="242.399" y2="169.586" gradientUnits="userSpaceOnUse">
<stop stop-color="#30EDE6"/>
<stop offset="0.5" stop-color="#CCCCCC"/>
<stop offset="1" stop-color="#999999"/>
</linearGradient>
<linearGradient id="paint8_linear_2765_2550" x1="6.40993" y1="106.306" x2="96.2739" y2="136.122" gradientUnits="userSpaceOnUse">
<stop stop-color="#30EDE6"/>
<stop offset="1" stop-color="#666666"/>
</linearGradient>
<linearGradient id="paint9_linear_2765_2550" x1="35.2957" y1="140.363" x2="17.0879" y2="134.678" gradientUnits="userSpaceOnUse">
<stop stop-color="#30EDE6"/>
<stop offset="1" stop-color="#666666"/>
</linearGradient>
<linearGradient id="paint10_linear_2765_2550" x1="21.5461" y1="119.537" x2="21.5461" y2="129.317" gradientUnits="userSpaceOnUse">
<stop stop-color="white"/>
<stop offset="1" stop-color="#999999"/>
</linearGradient>
<linearGradient id="paint11_linear_2765_2550" x1="6.08358" y1="149.107" x2="85.774" y2="171.968" gradientUnits="userSpaceOnUse">
<stop stop-color="#30EDE6"/>
<stop offset="1" stop-color="#666666"/>
</linearGradient>
<linearGradient id="paint12_linear_2765_2550" x1="30.4633" y1="179.943" x2="10.8846" y2="182.594" gradientUnits="userSpaceOnUse">
<stop stop-color="#30EDE6"/>
<stop offset="1" stop-color="#666666"/>
</linearGradient>
<linearGradient id="paint13_linear_2765_2550" x1="21.5462" y1="158.427" x2="21.5462" y2="173.96" gradientUnits="userSpaceOnUse">
<stop stop-color="white"/>
<stop offset="1" stop-color="#999999"/>
</linearGradient>
</defs>
</svg>
