<svg width="340" height="258" viewBox="0 0 340 258" fill="none" xmlns="http://www.w3.org/2000/svg">
<g clip-path="url(#clip0_2765_3091)">
<g filter="url(#filter0_d_2765_3091)">
<rect x="19" y="29.0847" width="301.065" height="188.657" rx="3.95733" fill="white"/>
<rect x="19.25" y="29.3347" width="300.565" height="188.157" rx="3.70733" stroke="#D4D4D4" stroke-width="0.5"/>
</g>
<path d="M23.6211 29.3347H315.444C317.858 29.3347 319.815 31.2919 319.815 33.7058V50.0583H19.25V33.7058C19.25 31.2919 21.2072 29.3347 23.6211 29.3347Z" fill="#E4E4E4" stroke="#D4D4D4" stroke-width="0.5"/>
<circle cx="31.7233" cy="39.6218" r="3.46553" fill="#1EB6CB"/>
<circle cx="41.5427" cy="39.6218" r="3.46553" fill="#30EDE6"/>
<circle cx="51.3601" cy="39.6218" r="3.46553" fill="#1ECB83"/>
<path d="M145.661 75.0224H151.069V76.0034H146.717V78.9213H150.993V79.9023H146.717V83.8264H145.661V75.0224ZM152.771 77.5882H155.034V78.4182H155.185C155.345 78.0745 155.571 77.8229 155.865 77.6636C156.158 77.4959 156.493 77.4121 156.871 77.4121C157.5 77.4121 158.007 77.6175 158.393 78.0284C158.778 78.4392 158.984 79.0387 159.009 79.8269L157.978 79.9778C157.978 79.3993 157.839 78.9842 157.562 78.7327C157.286 78.4727 156.946 78.3428 156.544 78.3428C156.284 78.3428 156.057 78.3931 155.865 78.4937C155.68 78.5943 155.525 78.7327 155.399 78.9088C155.273 79.0848 155.181 79.2903 155.122 79.525C155.064 79.7598 155.034 80.0113 155.034 80.2797V82.9209H156.619V83.8264H152.62V82.9209H154.053V78.4937H152.771V77.5882ZM166.572 80.7827C166.572 81.3026 166.483 81.7638 166.307 82.1662C166.14 82.5603 165.913 82.8957 165.628 83.1724C165.343 83.4407 165.008 83.6461 164.622 83.7887C164.245 83.9312 163.851 84.0025 163.44 84.0025C163.021 84.0025 162.622 83.9312 162.245 83.7887C161.868 83.6461 161.536 83.4407 161.251 83.1724C160.966 82.8957 160.736 82.5603 160.56 82.1662C160.392 81.7638 160.308 81.3026 160.308 80.7827V80.6318C160.308 80.1203 160.392 79.6676 160.56 79.2735C160.736 78.871 160.966 78.5314 161.251 78.2547C161.545 77.978 161.88 77.7684 162.258 77.6259C162.635 77.4833 163.029 77.4121 163.44 77.4121C163.851 77.4121 164.245 77.4833 164.622 77.6259C164.999 77.7684 165.331 77.978 165.616 78.2547C165.909 78.5314 166.14 78.871 166.307 79.2735C166.483 79.6676 166.572 80.1203 166.572 80.6318V80.7827ZM163.44 83.0718C163.742 83.0718 164.018 83.0215 164.27 82.9209C164.53 82.8119 164.756 82.6567 164.949 82.4555C165.142 82.2543 165.293 82.0153 165.402 81.7386C165.511 81.4535 165.565 81.1349 165.565 80.7827V80.6318C165.565 80.2964 165.511 79.9904 165.402 79.7137C165.293 79.4286 165.142 79.1854 164.949 78.9842C164.756 78.783 164.53 78.6279 164.27 78.5189C164.01 78.4015 163.733 78.3428 163.44 78.3428C163.146 78.3428 162.87 78.4015 162.61 78.5189C162.35 78.6279 162.123 78.783 161.931 78.9842C161.738 79.1854 161.587 79.4286 161.478 79.7137C161.369 79.9904 161.314 80.2964 161.314 80.6318V80.7827C161.314 81.1349 161.369 81.4535 161.478 81.7386C161.587 82.0153 161.738 82.2543 161.931 82.4555C162.123 82.6567 162.346 82.8119 162.597 82.9209C162.857 83.0215 163.138 83.0718 163.44 83.0718ZM169.229 83.8264H168.248V77.5882H169.229V78.6446H169.38C169.766 77.8229 170.437 77.4121 171.392 77.4121C172.114 77.4121 172.688 77.6385 173.115 78.0912C173.543 78.5356 173.757 79.2064 173.757 80.1036V83.8264H172.776V80.3048C172.776 79.6508 172.629 79.1603 172.336 78.8333C172.042 78.5063 171.644 78.3428 171.141 78.3428C170.546 78.3428 170.076 78.5482 169.732 78.9591C169.397 79.3615 169.229 79.9023 169.229 80.5815V83.8264ZM175.597 77.5882H177.559V75.0224H178.54V77.5882H180.955V78.4937H178.54V82.5435C178.54 82.7951 178.653 82.9209 178.88 82.9209H180.653V83.8264H178.527C178.242 83.8264 178.008 83.7342 177.823 83.5497C177.647 83.3653 177.559 83.1305 177.559 82.8454V78.4937H175.597V77.5882ZM184.241 80.1036H188.014V81.0091H184.241V80.1036ZM191.653 81.0091C191.678 81.6296 191.871 82.1285 192.232 82.5058C192.592 82.8831 193.095 83.0718 193.741 83.0718C194.034 83.0718 194.29 83.0382 194.508 82.9712C194.726 82.9041 194.911 82.8119 195.062 82.6945C195.221 82.5771 195.347 82.4429 195.439 82.292C195.539 82.1327 195.619 81.965 195.678 81.7889L196.609 82.0405C196.432 82.619 196.105 83.0927 195.627 83.4617C195.158 83.8222 194.521 84.0025 193.716 84.0025C193.271 84.0025 192.861 83.927 192.483 83.7761C192.114 83.6168 191.796 83.3946 191.527 83.1095C191.259 82.8244 191.049 82.4849 190.898 82.0908C190.748 81.6967 190.672 81.2607 190.672 80.7827V80.4809C190.672 80.0449 190.748 79.6382 190.898 79.2609C191.058 78.8836 191.276 78.5608 191.552 78.2925C191.829 78.0158 192.152 77.802 192.521 77.651C192.898 77.4917 193.305 77.4121 193.741 77.4121C194.252 77.4121 194.693 77.5085 195.062 77.7013C195.439 77.8858 195.745 78.1164 195.98 78.3931C196.223 78.6698 196.399 78.9716 196.508 79.2986C196.625 79.6256 196.684 79.9275 196.684 80.2042V81.0091H191.653ZM193.741 78.3428C193.464 78.3428 193.204 78.3889 192.961 78.4811C192.726 78.565 192.517 78.6866 192.332 78.8459C192.156 79.0052 192.009 79.1938 191.892 79.4118C191.783 79.6215 191.712 79.852 191.678 80.1036H195.703C195.686 79.8353 195.619 79.5921 195.502 79.3741C195.393 79.1561 195.246 78.9716 195.062 78.8207C194.885 78.6698 194.68 78.5524 194.445 78.4686C194.219 78.3847 193.984 78.3428 193.741 78.3428ZM199.48 83.8264H198.499V77.5882H199.48V78.6446H199.631C200.017 77.8229 200.687 77.4121 201.643 77.4121C202.364 77.4121 202.939 77.6385 203.366 78.0912C203.794 78.5356 204.008 79.2064 204.008 80.1036V83.8264H203.027V80.3048C203.027 79.6508 202.88 79.1603 202.586 78.8333C202.293 78.5063 201.895 78.3428 201.392 78.3428C200.796 78.3428 200.327 78.5482 199.983 78.9591C199.648 79.3615 199.48 79.9023 199.48 80.5815V83.8264ZM210.891 82.8706H210.74C210.64 83.0634 210.51 83.2311 210.35 83.3736C210.199 83.5162 210.032 83.6336 209.847 83.7258C209.671 83.818 209.483 83.8851 209.281 83.927C209.08 83.9773 208.887 84.0025 208.703 84.0025C208.284 84.0025 207.894 83.9312 207.533 83.7887C207.173 83.6461 206.854 83.4407 206.577 83.1724C206.309 82.9041 206.095 82.5729 205.936 82.1788C205.785 81.7763 205.709 81.3194 205.709 80.8079V80.6067C205.709 80.1036 205.789 79.655 205.948 79.2609C206.108 78.8584 206.322 78.5231 206.59 78.2547C206.858 77.978 207.173 77.7684 207.533 77.6259C207.894 77.4833 208.275 77.4121 208.678 77.4121C209.105 77.4121 209.504 77.5085 209.872 77.7013C210.25 77.8858 210.539 78.1751 210.74 78.5692H210.891V75.0224H211.872V83.8264H210.891V82.8706ZM208.803 83.0718C209.097 83.0718 209.369 83.0173 209.621 82.9083C209.872 82.7993 210.09 82.6442 210.275 82.4429C210.468 82.2417 210.619 82.0027 210.728 81.726C210.837 81.441 210.891 81.1265 210.891 80.7827V80.6318C210.891 80.2964 210.837 79.9904 210.728 79.7137C210.619 79.4286 210.468 79.1854 210.275 78.9842C210.09 78.783 209.868 78.6279 209.608 78.5189C209.357 78.4015 209.089 78.3428 208.803 78.3428C208.51 78.3428 208.233 78.3973 207.973 78.5063C207.722 78.6153 207.5 78.7704 207.307 78.9716C207.122 79.1729 206.976 79.4118 206.867 79.6885C206.766 79.9652 206.716 80.2713 206.716 80.6067V80.8079C206.716 81.1601 206.766 81.4745 206.867 81.7512C206.976 82.0279 207.122 82.2668 207.307 82.4681C207.5 82.6609 207.722 82.8119 207.973 82.9209C208.225 83.0215 208.502 83.0718 208.803 83.0718ZM150.201 100.638H146.428L145.786 102.826H144.654L147.321 94.0224H149.308L151.974 102.826H150.842L150.201 100.638ZM148.239 94.4752L146.717 99.657H149.912L148.39 94.4752H148.239ZM157.864 101.871H157.713C157.512 102.248 157.235 102.533 156.883 102.726C156.54 102.91 156.162 103.002 155.751 103.002C155.332 103.002 154.938 102.931 154.569 102.789C154.2 102.646 153.873 102.441 153.588 102.172C153.311 101.904 153.089 101.573 152.921 101.179C152.762 100.776 152.683 100.319 152.683 99.8079V99.6067C152.683 99.1036 152.766 98.655 152.934 98.2609C153.102 97.8584 153.324 97.5231 153.601 97.2547C153.877 96.978 154.2 96.7684 154.569 96.6259C154.938 96.4833 155.324 96.4121 155.726 96.4121C156.179 96.4121 156.573 96.5127 156.908 96.7139C157.252 96.9068 157.521 97.1919 157.713 97.5692H157.864V96.5882H158.845V104.361C158.845 104.646 158.753 104.881 158.569 105.065C158.393 105.25 158.162 105.342 157.877 105.342H153.814V104.436H157.525C157.751 104.436 157.864 104.311 157.864 104.059V101.871ZM155.777 102.072C156.07 102.072 156.342 102.017 156.594 101.908C156.846 101.799 157.064 101.644 157.248 101.443C157.441 101.242 157.592 101.003 157.701 100.726C157.81 100.441 157.864 100.127 157.864 99.7827V99.6318C157.864 99.2964 157.81 98.9904 157.701 98.7137C157.592 98.4286 157.441 98.1854 157.248 97.9842C157.064 97.783 156.841 97.6279 156.581 97.5189C156.33 97.4015 156.062 97.3428 155.777 97.3428C155.483 97.3428 155.206 97.3973 154.946 97.5063C154.695 97.6153 154.473 97.7704 154.28 97.9716C154.095 98.1729 153.949 98.4118 153.84 98.6885C153.739 98.9652 153.689 99.2713 153.689 99.6067V99.8079C153.689 100.16 153.739 100.474 153.84 100.751C153.949 101.028 154.095 101.267 154.28 101.468C154.473 101.661 154.695 101.812 154.946 101.921C155.198 102.021 155.475 102.072 155.777 102.072ZM161.402 100.009C161.427 100.63 161.62 101.129 161.981 101.506C162.341 101.883 162.845 102.072 163.49 102.072C163.784 102.072 164.039 102.038 164.257 101.971C164.475 101.904 164.66 101.812 164.811 101.694C164.97 101.577 165.096 101.443 165.188 101.292C165.289 101.133 165.368 100.965 165.427 100.789L166.358 101.04C166.182 101.619 165.855 102.093 165.377 102.462C164.907 102.822 164.27 103.002 163.465 103.002C163.021 103.002 162.61 102.927 162.232 102.776C161.863 102.617 161.545 102.395 161.277 102.11C161.008 101.824 160.799 101.485 160.648 101.091C160.497 100.697 160.421 100.261 160.421 99.7827V99.4809C160.421 99.0449 160.497 98.6382 160.648 98.2609C160.807 97.8836 161.025 97.5608 161.302 97.2925C161.578 97.0158 161.901 96.802 162.27 96.651C162.647 96.4917 163.054 96.4121 163.49 96.4121C164.002 96.4121 164.442 96.5085 164.811 96.7013C165.188 96.8858 165.494 97.1164 165.729 97.3931C165.972 97.6698 166.148 97.9716 166.257 98.2986C166.374 98.6256 166.433 98.9275 166.433 99.2042V100.009H161.402ZM163.49 97.3428C163.213 97.3428 162.954 97.3889 162.71 97.4811C162.476 97.565 162.266 97.6866 162.081 97.8459C161.905 98.0052 161.759 98.1938 161.641 98.4118C161.532 98.6215 161.461 98.852 161.427 99.1036H165.452C165.435 98.8353 165.368 98.5921 165.251 98.3741C165.142 98.1561 164.995 97.9716 164.811 97.8207C164.635 97.6698 164.429 97.5524 164.194 97.4686C163.968 97.3847 163.733 97.3428 163.49 97.3428ZM169.229 102.826H168.248V96.5882H169.229V97.6446H169.38C169.766 96.8229 170.437 96.4121 171.392 96.4121C172.114 96.4121 172.688 96.6385 173.115 97.0912C173.543 97.5356 173.757 98.2064 173.757 99.1036V102.826H172.776V99.3048C172.776 98.6508 172.629 98.1603 172.336 97.8333C172.042 97.5063 171.644 97.3428 171.141 97.3428C170.546 97.3428 170.076 97.5482 169.732 97.9591C169.397 98.3615 169.229 98.9023 169.229 99.5815V102.826ZM175.597 96.5882H177.559V94.0224H178.54V96.5882H180.955V97.4937H178.54V101.544C178.54 101.795 178.653 101.921 178.88 101.921H180.653V102.826H178.527C178.242 102.826 178.008 102.734 177.823 102.55C177.647 102.365 177.559 102.13 177.559 101.845V97.4937H175.597V96.5882Z" fill="#018284"/>
<path d="M145.646 133.154H146.4V126.312H145.646V125.331H149.205C149.624 125.331 149.993 125.39 150.312 125.507C150.639 125.624 150.911 125.784 151.129 125.985C151.356 126.186 151.523 126.429 151.632 126.714C151.75 126.991 151.808 127.293 151.808 127.62V127.771C151.808 128.014 151.771 128.236 151.695 128.438C151.62 128.639 151.515 128.819 151.381 128.978C151.247 129.138 151.087 129.276 150.903 129.393C150.727 129.502 150.534 129.586 150.324 129.645V129.796C150.744 129.913 151.096 130.14 151.381 130.475C151.666 130.802 151.808 131.205 151.808 131.682V131.833C151.808 132.16 151.75 132.466 151.632 132.752C151.523 133.028 151.356 133.271 151.129 133.481C150.911 133.682 150.639 133.842 150.312 133.959C149.993 134.076 149.624 134.135 149.205 134.135H145.646V133.154ZM147.457 133.154H149.129C149.624 133.154 150.027 133.032 150.337 132.789C150.647 132.538 150.802 132.194 150.802 131.758V131.682C150.802 131.23 150.656 130.873 150.362 130.613C150.069 130.345 149.67 130.211 149.167 130.211H147.457V133.154ZM147.457 129.23H149.167C149.67 129.23 150.069 129.1 150.362 128.84C150.656 128.58 150.802 128.224 150.802 127.771V127.696C150.802 127.268 150.647 126.932 150.337 126.689C150.027 126.438 149.624 126.312 149.129 126.312H147.457V129.23ZM158.113 133.079H157.962C157.761 133.498 157.48 133.808 157.12 134.009C156.768 134.21 156.395 134.311 156 134.311C155.59 134.311 155.208 134.244 154.856 134.11C154.504 133.967 154.194 133.762 153.925 133.494C153.665 133.217 153.46 132.881 153.309 132.487C153.158 132.093 153.083 131.636 153.083 131.116V130.915C153.083 130.404 153.158 129.951 153.309 129.557C153.46 129.163 153.665 128.832 153.925 128.563C154.194 128.287 154.504 128.077 154.856 127.934C155.208 127.792 155.581 127.721 155.975 127.721C156.403 127.721 156.789 127.817 157.132 128.01C157.485 128.194 157.761 128.484 157.962 128.878H158.113V127.897H159.094V132.852C159.094 133.104 159.208 133.229 159.434 133.229H159.748V134.135H159.082C158.797 134.135 158.562 134.043 158.378 133.858C158.201 133.674 158.113 133.439 158.113 133.154V133.079ZM156.101 133.38C156.395 133.38 156.663 133.326 156.906 133.217C157.158 133.108 157.371 132.953 157.547 132.752C157.724 132.55 157.862 132.311 157.962 132.035C158.063 131.75 158.113 131.435 158.113 131.091V130.94C158.113 130.605 158.063 130.299 157.962 130.022C157.862 129.737 157.719 129.494 157.535 129.293C157.359 129.092 157.145 128.936 156.893 128.827C156.65 128.71 156.386 128.651 156.101 128.651C155.808 128.651 155.539 128.706 155.296 128.815C155.053 128.924 154.839 129.079 154.655 129.28C154.479 129.473 154.34 129.712 154.24 129.997C154.139 130.274 154.089 130.58 154.089 130.915V131.116C154.089 131.829 154.273 132.387 154.642 132.789C155.019 133.183 155.506 133.38 156.101 133.38ZM166.984 131.921C166.917 132.265 166.8 132.584 166.632 132.877C166.473 133.171 166.267 133.426 166.016 133.645C165.764 133.854 165.471 134.018 165.135 134.135C164.8 134.252 164.427 134.311 164.016 134.311C163.58 134.311 163.165 134.24 162.771 134.097C162.385 133.955 162.045 133.749 161.752 133.481C161.459 133.204 161.224 132.869 161.048 132.475C160.88 132.081 160.796 131.628 160.796 131.116V130.966C160.796 130.462 160.88 130.01 161.048 129.607C161.224 129.205 161.459 128.865 161.752 128.588C162.045 128.312 162.385 128.098 162.771 127.947C163.165 127.796 163.58 127.721 164.016 127.721C164.41 127.721 164.775 127.779 165.11 127.897C165.446 128.014 165.739 128.182 165.991 128.4C166.25 128.609 166.46 128.861 166.619 129.154C166.787 129.448 166.9 129.767 166.959 130.11L165.978 130.337C165.953 130.119 165.89 129.909 165.789 129.708C165.697 129.498 165.567 129.318 165.399 129.167C165.24 129.008 165.043 128.882 164.808 128.79C164.573 128.697 164.301 128.651 163.991 128.651C163.689 128.651 163.404 128.71 163.136 128.827C162.876 128.936 162.645 129.096 162.444 129.305C162.243 129.507 162.083 129.75 161.966 130.035C161.857 130.32 161.802 130.63 161.802 130.966V131.116C161.802 131.469 161.857 131.787 161.966 132.072C162.083 132.349 162.243 132.584 162.444 132.777C162.645 132.97 162.88 133.12 163.148 133.229C163.416 133.33 163.706 133.38 164.016 133.38C164.326 133.38 164.594 133.334 164.821 133.242C165.056 133.141 165.253 133.016 165.412 132.865C165.58 132.705 165.71 132.525 165.802 132.324C165.902 132.123 165.97 131.913 166.003 131.695L166.984 131.921ZM170.321 130.488H170.535L172.912 127.897H174.119V127.972L171.528 130.827V131.054L174.421 134.06V134.135H173.214L170.56 131.393H170.321V134.135H169.34V125.331H170.321V130.488ZM177.142 130.412H180.915V131.318H177.142V130.412ZM184.553 131.318C184.578 131.938 184.771 132.437 185.132 132.814C185.492 133.192 185.995 133.38 186.641 133.38C186.935 133.38 187.19 133.347 187.408 133.28C187.626 133.213 187.811 133.12 187.962 133.003C188.121 132.886 188.247 132.752 188.339 132.601C188.44 132.441 188.519 132.274 188.578 132.098L189.509 132.349C189.333 132.928 189.006 133.401 188.528 133.77C188.058 134.131 187.421 134.311 186.616 134.311C186.172 134.311 185.761 134.236 185.383 134.085C185.014 133.925 184.696 133.703 184.428 133.418C184.159 133.133 183.95 132.793 183.799 132.399C183.648 132.005 183.572 131.569 183.572 131.091V130.789C183.572 130.353 183.648 129.947 183.799 129.57C183.958 129.192 184.176 128.869 184.453 128.601C184.729 128.324 185.052 128.111 185.421 127.96C185.798 127.8 186.205 127.721 186.641 127.721C187.153 127.721 187.593 127.817 187.962 128.01C188.339 128.194 188.645 128.425 188.88 128.702C189.123 128.978 189.299 129.28 189.408 129.607C189.525 129.934 189.584 130.236 189.584 130.513V131.318H184.553ZM186.641 128.651C186.364 128.651 186.104 128.697 185.861 128.79C185.627 128.874 185.417 128.995 185.232 129.154C185.056 129.314 184.91 129.502 184.792 129.72C184.683 129.93 184.612 130.161 184.578 130.412H188.603C188.586 130.144 188.519 129.901 188.402 129.683C188.293 129.465 188.146 129.28 187.962 129.129C187.786 128.978 187.58 128.861 187.345 128.777C187.119 128.693 186.884 128.651 186.641 128.651ZM192.38 134.135H191.399V127.897H192.38V128.953H192.531C192.917 128.132 193.588 127.721 194.543 127.721C195.264 127.721 195.839 127.947 196.266 128.4C196.694 128.844 196.908 129.515 196.908 130.412V134.135H195.927V130.613C195.927 129.959 195.78 129.469 195.487 129.142C195.193 128.815 194.795 128.651 194.292 128.651C193.697 128.651 193.227 128.857 192.883 129.268C192.548 129.67 192.38 130.211 192.38 130.89V134.135ZM203.791 133.179H203.641C203.54 133.372 203.41 133.54 203.251 133.682C203.1 133.825 202.932 133.942 202.748 134.034C202.571 134.127 202.383 134.194 202.182 134.236C201.98 134.286 201.787 134.311 201.603 134.311C201.184 134.311 200.794 134.24 200.433 134.097C200.073 133.955 199.754 133.749 199.477 133.481C199.209 133.213 198.995 132.881 198.836 132.487C198.685 132.085 198.61 131.628 198.61 131.116V130.915C198.61 130.412 198.689 129.964 198.849 129.57C199.008 129.167 199.222 128.832 199.49 128.563C199.758 128.287 200.073 128.077 200.433 127.934C200.794 127.792 201.175 127.721 201.578 127.721C202.005 127.721 202.404 127.817 202.773 128.01C203.15 128.194 203.439 128.484 203.641 128.878H203.791V125.331H204.772V134.135H203.791V133.179ZM201.704 133.38C201.997 133.38 202.27 133.326 202.521 133.217C202.773 133.108 202.991 132.953 203.175 132.752C203.368 132.55 203.519 132.311 203.628 132.035C203.737 131.75 203.791 131.435 203.791 131.091V130.94C203.791 130.605 203.737 130.299 203.628 130.022C203.519 129.737 203.368 129.494 203.175 129.293C202.991 129.092 202.768 128.936 202.509 128.827C202.257 128.71 201.989 128.651 201.704 128.651C201.41 128.651 201.133 128.706 200.874 128.815C200.622 128.924 200.4 129.079 200.207 129.28C200.022 129.481 199.876 129.72 199.767 129.997C199.666 130.274 199.616 130.58 199.616 130.915V131.116C199.616 131.469 199.666 131.783 199.767 132.06C199.876 132.336 200.022 132.575 200.207 132.777C200.4 132.97 200.622 133.12 200.874 133.229C201.125 133.33 201.402 133.38 201.704 133.38ZM150.664 150.947H146.891L146.249 153.135H145.117L147.784 144.331H149.771L152.437 153.135H151.305L150.664 150.947ZM148.702 144.784L147.18 149.966H150.375L148.853 144.784H148.702ZM158.327 152.179H158.176C157.975 152.556 157.698 152.842 157.346 153.034C157.002 153.219 156.625 153.311 156.214 153.311C155.795 153.311 155.401 153.24 155.032 153.097C154.663 152.955 154.336 152.749 154.051 152.481C153.774 152.213 153.552 151.881 153.384 151.487C153.225 151.085 153.145 150.628 153.145 150.116V149.915C153.145 149.412 153.229 148.964 153.397 148.57C153.565 148.167 153.787 147.832 154.064 147.563C154.34 147.287 154.663 147.077 155.032 146.934C155.401 146.792 155.787 146.721 156.189 146.721C156.642 146.721 157.036 146.821 157.371 147.023C157.715 147.215 157.983 147.5 158.176 147.878H158.327V146.897H159.308V154.669C159.308 154.955 159.216 155.189 159.032 155.374C158.855 155.558 158.625 155.65 158.34 155.65H154.277V154.745H157.988C158.214 154.745 158.327 154.619 158.327 154.368V152.179ZM156.239 152.38C156.533 152.38 156.805 152.326 157.057 152.217C157.308 152.108 157.526 151.953 157.711 151.752C157.904 151.55 158.055 151.311 158.164 151.035C158.273 150.75 158.327 150.435 158.327 150.091V149.94C158.327 149.605 158.273 149.299 158.164 149.022C158.055 148.737 157.904 148.494 157.711 148.293C157.526 148.092 157.304 147.936 157.044 147.827C156.793 147.71 156.524 147.651 156.239 147.651C155.946 147.651 155.669 147.706 155.409 147.815C155.158 147.924 154.936 148.079 154.743 148.28C154.558 148.481 154.412 148.72 154.303 148.997C154.202 149.274 154.152 149.58 154.152 149.915V150.116C154.152 150.469 154.202 150.783 154.303 151.06C154.412 151.336 154.558 151.575 154.743 151.777C154.936 151.97 155.158 152.12 155.409 152.229C155.661 152.33 155.938 152.38 156.239 152.38ZM161.865 150.318C161.89 150.938 162.083 151.437 162.444 151.814C162.804 152.192 163.307 152.38 163.953 152.38C164.246 152.38 164.502 152.347 164.72 152.28C164.938 152.213 165.123 152.12 165.274 152.003C165.433 151.886 165.559 151.752 165.651 151.601C165.752 151.441 165.831 151.274 165.89 151.098L166.821 151.349C166.645 151.928 166.318 152.401 165.84 152.77C165.37 153.131 164.733 153.311 163.928 153.311C163.483 153.311 163.073 153.236 162.695 153.085C162.326 152.925 162.008 152.703 161.739 152.418C161.471 152.133 161.262 151.793 161.111 151.399C160.96 151.005 160.884 150.569 160.884 150.091V149.789C160.884 149.353 160.96 148.947 161.111 148.57C161.27 148.192 161.488 147.869 161.765 147.601C162.041 147.324 162.364 147.111 162.733 146.96C163.11 146.8 163.517 146.721 163.953 146.721C164.464 146.721 164.905 146.817 165.274 147.01C165.651 147.194 165.957 147.425 166.192 147.702C166.435 147.978 166.611 148.28 166.72 148.607C166.837 148.934 166.896 149.236 166.896 149.513V150.318H161.865ZM163.953 147.651C163.676 147.651 163.416 147.697 163.173 147.79C162.938 147.874 162.729 147.995 162.544 148.154C162.368 148.314 162.222 148.502 162.104 148.72C161.995 148.93 161.924 149.161 161.89 149.412H165.915C165.898 149.144 165.831 148.901 165.714 148.683C165.605 148.465 165.458 148.28 165.274 148.129C165.098 147.978 164.892 147.861 164.657 147.777C164.431 147.693 164.196 147.651 163.953 147.651ZM169.692 153.135H168.711V146.897H169.692V147.953H169.843C170.229 147.132 170.899 146.721 171.855 146.721C172.576 146.721 173.151 146.947 173.578 147.4C174.006 147.844 174.22 148.515 174.22 149.412V153.135H173.239V149.613C173.239 148.959 173.092 148.469 172.799 148.142C172.505 147.815 172.107 147.651 171.604 147.651C171.008 147.651 170.539 147.857 170.195 148.268C169.86 148.67 169.692 149.211 169.692 149.89V153.135ZM176.06 146.897H178.022V144.331H179.003V146.897H181.418V147.802H179.003V151.852C179.003 152.104 179.116 152.229 179.343 152.229H181.116V153.135H178.99C178.705 153.135 178.471 153.043 178.286 152.858C178.11 152.674 178.022 152.439 178.022 152.154V147.802H176.06V146.897Z" fill="#018284"/>
<path d="M145.416 181.928H148.309C149.399 181.928 150.195 182.188 150.699 182.708C151.202 183.228 151.453 184.058 151.453 185.198V187.462C151.453 188.602 151.202 189.433 150.699 189.952C150.195 190.472 149.399 190.732 148.309 190.732H145.416V189.739H146.171V182.909H145.416V181.928ZM148.158 189.751C148.544 189.751 148.875 189.713 149.152 189.638C149.437 189.563 149.671 189.437 149.856 189.261C150.04 189.076 150.175 188.833 150.258 188.531C150.351 188.229 150.397 187.848 150.397 187.387V185.274C150.397 184.813 150.351 184.431 150.258 184.129C150.175 183.827 150.04 183.588 149.856 183.412C149.671 183.228 149.437 183.098 149.152 183.022C148.875 182.947 148.544 182.909 148.158 182.909H147.227V189.751H148.158ZM153.872 187.915C153.897 188.535 154.09 189.034 154.45 189.412C154.811 189.789 155.314 189.978 155.96 189.978C156.253 189.978 156.509 189.944 156.727 189.877C156.945 189.81 157.129 189.718 157.28 189.6C157.44 189.483 157.565 189.349 157.658 189.198C157.758 189.038 157.838 188.871 157.897 188.695L158.827 188.946C158.651 189.525 158.324 189.999 157.846 190.367C157.377 190.728 156.739 190.908 155.935 190.908C155.49 190.908 155.079 190.833 154.702 190.682C154.333 190.523 154.014 190.3 153.746 190.015C153.478 189.73 153.268 189.391 153.117 188.997C152.966 188.602 152.891 188.166 152.891 187.689V187.387C152.891 186.951 152.966 186.544 153.117 186.167C153.277 185.789 153.495 185.467 153.771 185.198C154.048 184.922 154.371 184.708 154.74 184.557C155.117 184.397 155.524 184.318 155.96 184.318C156.471 184.318 156.911 184.414 157.28 184.607C157.658 184.792 157.964 185.022 158.198 185.299C158.442 185.576 158.618 185.877 158.727 186.204C158.844 186.531 158.903 186.833 158.903 187.11V187.915H153.872ZM155.96 185.249C155.683 185.249 155.423 185.295 155.18 185.387C154.945 185.471 154.735 185.592 154.551 185.752C154.375 185.911 154.228 186.1 154.111 186.318C154.002 186.527 153.931 186.758 153.897 187.009H157.922C157.905 186.741 157.838 186.498 157.72 186.28C157.611 186.062 157.465 185.877 157.28 185.726C157.104 185.576 156.899 185.458 156.664 185.374C156.438 185.29 156.203 185.249 155.96 185.249ZM164.428 190.732H162.491L160.315 184.494H161.472L163.384 190.279H163.535L165.447 184.494H166.604L164.428 190.732ZM175.503 185.349C175.503 184.209 175.776 183.324 176.321 182.695C176.866 182.067 177.625 181.752 178.597 181.752C179.57 181.752 180.329 182.067 180.874 182.695C181.419 183.324 181.691 184.209 181.691 185.349V187.311C181.691 188.485 181.419 189.378 180.874 189.99C180.329 190.602 179.57 190.908 178.597 190.908C177.625 190.908 176.866 190.602 176.321 189.99C175.776 189.378 175.503 188.485 175.503 187.311V185.349ZM178.597 189.927C179.277 189.927 179.784 189.697 180.119 189.235C180.463 188.766 180.635 188.099 180.635 187.236V185.425C180.635 184.62 180.463 183.97 180.119 183.475C179.784 182.98 179.277 182.733 178.597 182.733C177.918 182.733 177.407 182.98 177.063 183.475C176.728 183.97 176.56 184.62 176.56 185.425V187.236C176.56 188.099 176.728 188.766 177.063 189.235C177.407 189.697 177.918 189.927 178.597 189.927ZM184.16 193.248H183.179V184.494H184.16V185.475H184.311C184.529 185.098 184.831 184.813 185.217 184.62C185.603 184.418 186.022 184.318 186.475 184.318C186.86 184.318 187.225 184.389 187.569 184.532C187.913 184.674 188.214 184.88 188.474 185.148C188.743 185.416 188.952 185.747 189.103 186.142C189.263 186.536 189.342 186.984 189.342 187.487V187.739C189.342 188.25 189.267 188.703 189.116 189.097C188.965 189.491 188.755 189.822 188.487 190.091C188.227 190.359 187.921 190.564 187.569 190.707C187.217 190.841 186.844 190.908 186.449 190.908C186.248 190.908 186.043 190.883 185.833 190.833C185.624 190.791 185.422 190.724 185.229 190.632C185.045 190.531 184.873 190.414 184.714 190.279C184.554 190.137 184.42 189.969 184.311 189.776H184.16V193.248ZM186.248 189.978C186.55 189.978 186.827 189.927 187.078 189.827C187.33 189.718 187.548 189.567 187.732 189.374C187.925 189.181 188.072 188.946 188.172 188.67C188.281 188.393 188.336 188.083 188.336 187.739V187.487C188.336 187.152 188.281 186.85 188.172 186.582C188.072 186.305 187.925 186.07 187.732 185.877C187.548 185.676 187.326 185.521 187.066 185.412C186.814 185.303 186.542 185.249 186.248 185.249C185.955 185.249 185.682 185.307 185.431 185.425C185.179 185.534 184.957 185.689 184.764 185.89C184.58 186.091 184.433 186.334 184.324 186.619C184.215 186.896 184.16 187.202 184.16 187.538V187.689C184.16 188.032 184.215 188.347 184.324 188.632C184.433 188.908 184.58 189.147 184.764 189.349C184.957 189.55 185.179 189.705 185.431 189.814C185.682 189.923 185.955 189.978 186.248 189.978ZM192.264 186.104C192.264 186.406 192.39 186.636 192.641 186.796C192.901 186.955 193.371 187.06 194.05 187.11C194.779 187.169 195.333 187.345 195.71 187.638C196.096 187.923 196.289 188.343 196.289 188.896V188.971C196.289 189.273 196.226 189.546 196.1 189.789C195.983 190.024 195.815 190.225 195.597 190.393C195.387 190.56 195.127 190.686 194.817 190.77C194.515 190.862 194.184 190.908 193.823 190.908C193.337 190.908 192.918 190.845 192.566 190.72C192.222 190.585 191.933 190.414 191.698 190.204C191.472 189.986 191.3 189.743 191.182 189.474C191.065 189.198 190.998 188.921 190.981 188.644L191.912 188.418C191.954 188.896 192.138 189.282 192.465 189.575C192.792 189.86 193.228 190.003 193.773 190.003C194.234 190.003 194.603 189.915 194.88 189.739C195.165 189.554 195.308 189.298 195.308 188.971C195.308 188.619 195.169 188.368 194.893 188.217C194.616 188.066 194.167 187.969 193.547 187.927C192.826 187.877 192.272 187.709 191.887 187.424C191.501 187.139 191.308 186.724 191.308 186.179V186.104C191.308 185.81 191.371 185.555 191.497 185.337C191.622 185.11 191.79 184.922 192 184.771C192.218 184.62 192.461 184.506 192.729 184.431C192.998 184.356 193.278 184.318 193.572 184.318C193.983 184.318 194.343 184.377 194.654 184.494C194.964 184.603 195.224 184.75 195.433 184.934C195.643 185.11 195.802 185.316 195.911 185.55C196.029 185.785 196.104 186.02 196.138 186.255L195.207 186.481C195.165 186.079 195.002 185.764 194.716 185.538C194.44 185.311 194.075 185.198 193.622 185.198C193.446 185.198 193.274 185.219 193.107 185.261C192.947 185.295 192.805 185.349 192.679 185.425C192.553 185.5 192.453 185.597 192.377 185.714C192.302 185.823 192.264 185.953 192.264 186.104ZM150.233 207.544H146.46L145.819 209.732H144.687L147.353 200.928H149.34L152.007 209.732H150.875L150.233 207.544ZM148.271 201.381L146.749 206.563H149.944L148.422 201.381H148.271ZM157.897 208.776H157.746C157.544 209.154 157.268 209.439 156.916 209.632C156.572 209.816 156.194 209.908 155.784 209.908C155.364 209.908 154.97 209.837 154.601 209.694C154.232 209.552 153.905 209.346 153.62 209.078C153.344 208.81 153.121 208.479 152.954 208.085C152.794 207.682 152.715 207.225 152.715 206.714V206.512C152.715 206.009 152.799 205.561 152.966 205.167C153.134 204.764 153.356 204.429 153.633 204.161C153.91 203.884 154.232 203.674 154.601 203.532C154.97 203.389 155.356 203.318 155.758 203.318C156.211 203.318 156.605 203.418 156.941 203.62C157.284 203.813 157.553 204.098 157.746 204.475H157.897V203.494H158.878V211.267C158.878 211.552 158.785 211.786 158.601 211.971C158.425 212.155 158.194 212.248 157.909 212.248H153.847V211.342H157.557C157.783 211.342 157.897 211.216 157.897 210.965V208.776ZM155.809 208.978C156.102 208.978 156.375 208.923 156.626 208.814C156.878 208.705 157.096 208.55 157.28 208.349C157.473 208.147 157.624 207.908 157.733 207.632C157.842 207.347 157.897 207.032 157.897 206.689V206.538C157.897 206.202 157.842 205.896 157.733 205.619C157.624 205.334 157.473 205.091 157.28 204.89C157.096 204.689 156.874 204.534 156.614 204.425C156.362 204.307 156.094 204.249 155.809 204.249C155.515 204.249 155.239 204.303 154.979 204.412C154.727 204.521 154.505 204.676 154.312 204.877C154.128 205.079 153.981 205.318 153.872 205.594C153.771 205.871 153.721 206.177 153.721 206.512V206.714C153.721 207.066 153.771 207.38 153.872 207.657C153.981 207.934 154.128 208.173 154.312 208.374C154.505 208.567 154.727 208.718 154.979 208.827C155.23 208.927 155.507 208.978 155.809 208.978ZM161.435 206.915C161.46 207.535 161.653 208.034 162.013 208.412C162.374 208.789 162.877 208.978 163.522 208.978C163.816 208.978 164.072 208.944 164.29 208.877C164.508 208.81 164.692 208.718 164.843 208.6C165.002 208.483 165.128 208.349 165.22 208.198C165.321 208.038 165.401 207.871 165.459 207.695L166.39 207.946C166.214 208.525 165.887 208.999 165.409 209.367C164.939 209.728 164.302 209.908 163.497 209.908C163.053 209.908 162.642 209.833 162.265 209.682C161.896 209.523 161.577 209.3 161.309 209.015C161.04 208.73 160.831 208.391 160.68 207.997C160.529 207.602 160.454 207.166 160.454 206.689V206.387C160.454 205.951 160.529 205.544 160.68 205.167C160.839 204.789 161.057 204.467 161.334 204.198C161.611 203.922 161.933 203.708 162.302 203.557C162.68 203.397 163.086 203.318 163.522 203.318C164.034 203.318 164.474 203.414 164.843 203.607C165.22 203.792 165.526 204.022 165.761 204.299C166.004 204.576 166.18 204.877 166.289 205.204C166.407 205.531 166.465 205.833 166.465 206.11V206.915H161.435ZM163.522 204.249C163.246 204.249 162.986 204.295 162.743 204.387C162.508 204.471 162.298 204.592 162.114 204.752C161.938 204.911 161.791 205.1 161.674 205.318C161.565 205.527 161.493 205.758 161.46 206.009H165.484C165.468 205.741 165.401 205.498 165.283 205.28C165.174 205.062 165.027 204.877 164.843 204.726C164.667 204.576 164.461 204.458 164.227 204.374C164 204.29 163.766 204.249 163.522 204.249ZM169.261 209.732H168.28V203.494H169.261V204.55H169.412C169.798 203.729 170.469 203.318 171.425 203.318C172.146 203.318 172.72 203.544 173.148 203.997C173.575 204.441 173.789 205.112 173.789 206.009V209.732H172.808V206.211C172.808 205.557 172.661 205.066 172.368 204.739C172.074 204.412 171.676 204.249 171.173 204.249C170.578 204.249 170.108 204.454 169.764 204.865C169.429 205.267 169.261 205.808 169.261 206.487V209.732ZM175.629 203.494H177.591V200.928H178.572V203.494H180.987V204.399H178.572V208.449C178.572 208.701 178.685 208.827 178.912 208.827H180.685V209.732H178.56C178.275 209.732 178.04 209.64 177.855 209.455C177.679 209.271 177.591 209.036 177.591 208.751V204.399H175.629V203.494Z" fill="#018284"/>
<mask id="path-10-inside-1_2765_3091" fill="white">
<path d="M99.1426 98.593C101.116 98.5931 102.716 100.193 102.716 102.166V105.312H84.3252V102.166C84.3252 100.193 85.9251 98.593 87.8984 98.593H99.1426ZM105.154 73.4827C107.127 73.4828 108.727 75.0827 108.727 77.0559V93.2512C108.726 95.2244 107.127 96.8243 105.154 96.8245H81.8857C79.9125 96.8245 78.3126 95.2245 78.3125 93.2512V77.0559C78.3125 75.0826 79.9124 73.4827 81.8857 73.4827H105.154Z"/>
</mask>
<path d="M99.1426 98.593L99.1426 97.5211H99.1426V98.593ZM102.716 105.312V106.384C103.308 106.384 103.788 105.904 103.788 105.312H102.716ZM84.3252 105.312H83.2533C83.2533 105.904 83.7332 106.384 84.3252 106.384V105.312ZM105.154 73.4827L105.154 72.4108H105.154V73.4827ZM108.727 93.2512L109.798 93.2513V93.2512H108.727ZM105.154 96.8245V97.8964H105.154L105.154 96.8245ZM78.3125 93.2512H77.2406V93.2513L78.3125 93.2512ZM99.1426 98.593L99.1425 99.6649C100.524 99.665 101.644 100.785 101.644 102.166H102.716H103.788C103.788 99.6009 101.708 97.5212 99.1426 97.5211L99.1426 98.593ZM102.716 102.166H101.644V105.312H102.716H103.788V102.166H102.716ZM102.716 105.312V104.24H84.3252V105.312V106.384H102.716V105.312ZM84.3252 105.312H85.3971V102.166H84.3252H83.2533V105.312H84.3252ZM84.3252 102.166H85.3971C85.3971 100.785 86.5171 99.6649 87.8984 99.6649V98.593V97.5211C85.3331 97.5211 83.2533 99.6009 83.2533 102.166H84.3252ZM87.8984 98.593V99.6649H99.1426V98.593V97.5211H87.8984V98.593ZM105.154 73.4827L105.154 74.5546C106.535 74.5547 107.655 75.6744 107.655 77.0559H108.727H109.798C109.798 74.491 107.72 72.411 105.154 72.4108L105.154 73.4827ZM108.727 77.0559H107.655V93.2512H108.727H109.798V77.0559H108.727ZM108.727 93.2512L107.655 93.2512C107.655 94.6327 106.535 95.7524 105.154 95.7526L105.154 96.8245L105.154 97.8964C107.72 97.8962 109.798 95.816 109.798 93.2513L108.727 93.2512ZM105.154 96.8245V95.7526H81.8857V96.8245V97.8964H105.154V96.8245ZM81.8857 96.8245V95.7526C80.5045 95.7526 79.3845 94.6325 79.3844 93.2512L78.3125 93.2512L77.2406 93.2513C77.2407 95.8164 79.3204 97.8964 81.8857 97.8964V96.8245ZM78.3125 93.2512H79.3844V77.0559H78.3125H77.2406V93.2512H78.3125ZM78.3125 77.0559H79.3844C79.3844 75.6746 80.5044 74.5546 81.8857 74.5546V73.4827V72.4108C79.3204 72.4108 77.2406 74.4906 77.2406 77.0559H78.3125ZM81.8857 73.4827V74.5546H105.154V73.4827V72.4108H81.8857V73.4827Z" fill="url(#paint0_linear_2765_3091)" mask="url(#path-10-inside-1_2765_3091)"/>
<mask id="path-12-inside-2_2765_3091" fill="white">
<path d="M91.533 84.038C91.533 83.1851 91.1942 82.3672 90.5912 81.7641C89.9881 81.1611 89.1702 80.8223 88.3173 80.8223C87.4644 80.8223 86.6465 81.1611 86.0434 81.7641C85.4404 82.3672 85.1016 83.1851 85.1016 84.038L86.2309 84.038C86.2309 83.4847 86.4507 82.954 86.842 82.5627C87.2333 82.1714 87.7639 81.9516 88.3173 81.9516C88.8706 81.9516 89.4013 82.1714 89.7926 82.5627C90.1839 82.954 90.4037 83.4847 90.4037 84.038H91.533Z"/>
</mask>
<path d="M91.533 84.038C91.533 83.1851 91.1942 82.3672 90.5912 81.7641C89.9881 81.1611 89.1702 80.8223 88.3173 80.8223C87.4644 80.8223 86.6465 81.1611 86.0434 81.7641C85.4404 82.3672 85.1016 83.1851 85.1016 84.038L86.2309 84.038C86.2309 83.4847 86.4507 82.954 86.842 82.5627C87.2333 82.1714 87.7639 81.9516 88.3173 81.9516C88.8706 81.9516 89.4013 82.1714 89.7926 82.5627C90.1839 82.954 90.4037 83.4847 90.4037 84.038H91.533Z" stroke="url(#paint1_linear_2765_3091)" stroke-width="1.60787" mask="url(#path-12-inside-2_2765_3091)"/>
<mask id="path-13-inside-3_2765_3091" fill="white">
<path d="M100.823 84.038C100.823 83.1851 100.484 82.3672 99.8812 81.7641C99.2781 81.1611 98.4602 80.8223 97.6073 80.8223C96.7545 80.8223 95.9365 81.1611 95.3335 81.7641C94.7304 82.3672 94.3916 83.1851 94.3916 84.038L95.5209 84.038C95.5209 83.4847 95.7408 82.954 96.132 82.5627C96.5233 82.1714 97.054 81.9516 97.6073 81.9516C98.1607 81.9516 98.6914 82.1714 99.0826 82.5627C99.4739 82.954 99.6937 83.4847 99.6937 84.038H100.823Z"/>
</mask>
<path d="M100.823 84.038C100.823 83.1851 100.484 82.3672 99.8812 81.7641C99.2781 81.1611 98.4602 80.8223 97.6073 80.8223C96.7545 80.8223 95.9365 81.1611 95.3335 81.7641C94.7304 82.3672 94.3916 83.1851 94.3916 84.038L95.5209 84.038C95.5209 83.4847 95.7408 82.954 96.132 82.5627C96.5233 82.1714 97.054 81.9516 97.6073 81.9516C98.1607 81.9516 98.6914 82.1714 99.0826 82.5627C99.4739 82.954 99.6937 83.4847 99.6937 84.038H100.823Z" stroke="url(#paint2_linear_2765_3091)" stroke-width="1.60787" mask="url(#path-13-inside-3_2765_3091)"/>
<mask id="path-14-inside-4_2765_3091" fill="white">
<path d="M96.1785 87.2542C96.1785 88.1071 95.8397 88.925 95.2367 89.5281C94.6336 90.1312 93.8157 90.47 92.9628 90.47C92.1099 90.47 91.292 90.1312 90.6889 89.5281C90.0859 88.925 89.7471 88.1071 89.7471 87.2542L90.8764 87.2542C90.8764 87.8076 91.0962 88.3383 91.4875 88.7295C91.8788 89.1208 92.4095 89.3406 92.9628 89.3406C93.5161 89.3406 94.0468 89.1208 94.4381 88.7295C94.8294 88.3383 95.0492 87.8076 95.0492 87.2542H96.1785Z"/>
</mask>
<path d="M96.1785 87.2542C96.1785 88.1071 95.8397 88.925 95.2367 89.5281C94.6336 90.1312 93.8157 90.47 92.9628 90.47C92.1099 90.47 91.292 90.1312 90.6889 89.5281C90.0859 88.925 89.7471 88.1071 89.7471 87.2542L90.8764 87.2542C90.8764 87.8076 91.0962 88.3383 91.4875 88.7295C91.8788 89.1208 92.4095 89.3406 92.9628 89.3406C93.5161 89.3406 94.0468 89.1208 94.4381 88.7295C94.8294 88.3383 95.0492 87.8076 95.0492 87.2542H96.1785Z" stroke="url(#paint3_linear_2765_3091)" stroke-width="1.60787" mask="url(#path-14-inside-4_2765_3091)"/>
<mask id="path-15-inside-5_2765_3091" fill="white">
<path d="M111.186 80.8218C112.369 80.8219 113.329 81.7815 113.329 82.9653V87.2534C113.329 88.4373 112.369 89.3969 111.186 89.397H107.969V80.8218H111.186Z"/>
</mask>
<path d="M111.186 80.8218L111.186 79.7499H111.186V80.8218ZM113.329 82.9653H114.401L114.401 82.9652L113.329 82.9653ZM113.329 87.2534L114.401 87.2535V87.2534H113.329ZM111.186 89.397V90.4689H111.186L111.186 89.397ZM107.969 89.397H106.897V90.4689H107.969V89.397ZM107.969 80.8218V79.7499H106.897V80.8218H107.969ZM111.186 80.8218L111.185 81.8937C111.777 81.8937 112.257 82.3735 112.257 82.9655L113.329 82.9653L114.401 82.9652C114.401 81.1895 112.961 79.75 111.186 79.7499L111.186 80.8218ZM113.329 82.9653H112.257V87.2534H113.329H114.401V82.9653H113.329ZM113.329 87.2534L112.257 87.2533C112.257 87.8453 111.777 88.325 111.185 88.3251L111.186 89.397L111.186 90.4689C112.961 90.4687 114.401 89.0293 114.401 87.2535L113.329 87.2534ZM111.186 89.397V88.3251H107.969V89.397V90.4689H111.186V89.397ZM107.969 89.397H109.041V80.8218H107.969H106.897V89.397H107.969ZM107.969 80.8218V81.8937H111.186V80.8218V79.7499H107.969V80.8218Z" fill="url(#paint4_linear_2765_3091)" mask="url(#path-15-inside-5_2765_3091)"/>
<mask id="path-17-inside-6_2765_3091" fill="white">
<path d="M79.3857 89.397H76.1689C74.9852 89.3968 74.0255 88.4372 74.0254 87.2534V82.9653C74.0255 81.7815 74.9851 80.8219 76.1689 80.8218H79.3857V89.397Z"/>
</mask>
<path d="M79.3857 89.397V90.4689H80.4577V89.397H79.3857ZM76.1689 89.397L76.1688 90.4689H76.1689V89.397ZM74.0254 87.2534H72.9535V87.2536L74.0254 87.2534ZM74.0254 82.9653L72.9535 82.9653V82.9653H74.0254ZM76.1689 80.8218V79.7499H76.1688L76.1689 80.8218ZM79.3857 80.8218H80.4577V79.7499H79.3857V80.8218ZM79.3857 89.397V88.3251H76.1689V89.397V90.4689H79.3857V89.397ZM76.1689 89.397L76.1691 88.3251C75.5772 88.325 75.0974 87.8451 75.0973 87.2533L74.0254 87.2534L72.9535 87.2536C72.9537 89.0292 74.3932 90.4686 76.1688 90.4689L76.1689 89.397ZM74.0254 87.2534H75.0973V82.9653H74.0254H72.9535V87.2534H74.0254ZM74.0254 82.9653L75.0973 82.9654C75.0973 82.3736 75.5771 81.8938 76.1691 81.8937L76.1689 80.8218L76.1688 79.7499C74.3932 79.7501 72.9536 81.1894 72.9535 82.9653L74.0254 82.9653ZM76.1689 80.8218V81.8937H79.3857V80.8218V79.7499H76.1689V80.8218ZM79.3857 80.8218H78.3138V89.397H79.3857H80.4577V80.8218H79.3857Z" fill="url(#paint5_linear_2765_3091)" mask="url(#path-17-inside-6_2765_3091)"/>
<mask id="path-19-inside-7_2765_3091" fill="white">
<path d="M98.7871 149.688C100.76 149.688 102.36 151.288 102.36 153.261V156.406H83.9697V153.261C83.9697 151.288 85.5696 149.688 87.543 149.688H98.7871ZM96.7012 124.577C103.147 124.578 108.371 129.803 108.371 136.248C108.371 142.694 103.147 147.919 96.7012 147.919H89.6279C83.1825 147.919 77.9571 142.694 77.957 136.248C77.957 129.803 83.1824 124.577 89.6279 124.577H96.7012Z"/>
</mask>
<path d="M98.7871 149.688L98.7872 148.616H98.7871V149.688ZM102.36 156.406V157.478C102.952 157.478 103.432 156.998 103.432 156.406H102.36ZM83.9697 156.406H82.8978C82.8978 156.998 83.3777 157.478 83.9697 157.478V156.406ZM96.7012 124.577L96.7012 123.505H96.7012V124.577ZM108.371 136.248L109.443 136.248V136.248H108.371ZM96.7012 147.919V148.991H96.7012L96.7012 147.919ZM77.957 136.248H76.8851V136.248L77.957 136.248ZM98.7871 149.688L98.787 150.76C100.168 150.76 101.288 151.88 101.288 153.261H102.36H103.432C103.432 150.696 101.352 148.616 98.7872 148.616L98.7871 149.688ZM102.36 153.261H101.288V156.406H102.36H103.432V153.261H102.36ZM102.36 156.406V155.335H83.9697V156.406V157.478H102.36V156.406ZM83.9697 156.406H85.0416V153.261H83.9697H82.8978V156.406H83.9697ZM83.9697 153.261H85.0416C85.0416 151.88 86.1616 150.76 87.543 150.76V149.688V148.616C84.9776 148.616 82.8978 150.696 82.8978 153.261H83.9697ZM87.543 149.688V150.76H98.7871V149.688V148.616H87.543V149.688ZM96.7012 124.577L96.7011 125.649C102.554 125.649 107.299 130.395 107.299 136.248H108.371H109.443C109.443 129.211 103.739 123.506 96.7012 123.505L96.7012 124.577ZM108.371 136.248L107.299 136.248C107.299 142.102 102.554 146.847 96.7011 146.847L96.7012 147.919L96.7012 148.991C103.739 148.991 109.443 143.286 109.443 136.248L108.371 136.248ZM96.7012 147.919V146.847H89.6279V147.919V148.991H96.7012V147.919ZM89.6279 147.919V146.847C83.7745 146.847 79.029 142.102 79.0289 136.248L77.957 136.248L76.8851 136.248C76.8852 143.286 82.5904 148.991 89.6279 148.991V147.919ZM77.957 136.248H79.0289C79.0289 130.395 83.7744 125.649 89.6279 125.649V124.577V123.505C82.5904 123.505 76.8851 129.211 76.8851 136.248H77.957ZM89.6279 124.577V125.649H96.7012V124.577V123.505H89.6279V124.577Z" fill="url(#paint6_linear_2765_3091)" mask="url(#path-19-inside-7_2765_3091)"/>
<line x1="93.5355" y1="122.627" x2="93.5355" y2="125.128" stroke="url(#paint7_linear_2765_3091)" stroke-width="1.00258"/>
<mask id="path-22-inside-8_2765_3091" fill="white">
<path d="M84.7461 132.132C84.7461 132.985 85.0849 133.803 85.688 134.406C86.291 135.009 87.109 135.347 87.9618 135.347C88.8147 135.347 89.6326 135.009 90.2357 134.406C90.8388 133.803 91.1776 132.985 91.1776 132.132L90.0482 132.132C90.0482 132.685 89.8284 133.216 89.4371 133.607C89.0458 133.998 88.5152 134.218 87.9618 134.218C87.4085 134.218 86.8778 133.998 86.4865 133.607C86.0953 133.216 85.8754 132.685 85.8754 132.132H84.7461Z"/>
</mask>
<path d="M84.7461 132.132C84.7461 132.985 85.0849 133.803 85.688 134.406C86.291 135.009 87.109 135.347 87.9618 135.347C88.8147 135.347 89.6326 135.009 90.2357 134.406C90.8388 133.803 91.1776 132.985 91.1776 132.132L90.0482 132.132C90.0482 132.685 89.8284 133.216 89.4371 133.607C89.0458 133.998 88.5152 134.218 87.9618 134.218C87.4085 134.218 86.8778 133.998 86.4865 133.607C86.0953 133.216 85.8754 132.685 85.8754 132.132H84.7461Z" stroke="url(#paint8_linear_2765_3091)" stroke-width="1.60787" mask="url(#path-22-inside-8_2765_3091)"/>
<mask id="path-23-inside-9_2765_3091" fill="white">
<path d="M100.469 132.132C100.469 132.985 100.13 133.802 99.5267 134.406C98.9236 135.009 98.1057 135.347 97.2528 135.347C96.4 135.347 95.582 135.009 94.979 134.406C94.3759 133.802 94.0371 132.985 94.0371 132.132L95.1665 132.132C95.1665 132.685 95.3863 133.216 95.7775 133.607C96.1688 133.998 96.6995 134.218 97.2528 134.218C97.8062 134.218 98.3369 133.998 98.7281 133.607C99.1194 133.216 99.3392 132.685 99.3392 132.132H100.469Z"/>
</mask>
<path d="M100.469 132.132C100.469 132.985 100.13 133.802 99.5267 134.406C98.9236 135.009 98.1057 135.347 97.2528 135.347C96.4 135.347 95.582 135.009 94.979 134.406C94.3759 133.802 94.0371 132.985 94.0371 132.132L95.1665 132.132C95.1665 132.685 95.3863 133.216 95.7775 133.607C96.1688 133.998 96.6995 134.218 97.2528 134.218C97.8062 134.218 98.3369 133.998 98.7281 133.607C99.1194 133.216 99.3392 132.685 99.3392 132.132H100.469Z" stroke="url(#paint9_linear_2765_3091)" stroke-width="1.60787" mask="url(#path-23-inside-9_2765_3091)"/>
<line x1="89.7471" y1="141.022" x2="96.0356" y2="141.022" stroke="url(#paint10_linear_2765_3091)" stroke-width="0.943286"/>
<path d="M89.6354 65.6811L86.5754 68.2312L89.6354 70.7812C89.698 70.8313 89.7499 70.8933 89.7882 70.9637C89.8265 71.0341 89.8504 71.1115 89.8584 71.1912C89.8665 71.2709 89.8585 71.3515 89.8351 71.4281C89.8116 71.5047 89.7731 71.5759 89.7218 71.6375C89.6705 71.699 89.6075 71.7497 89.5363 71.7866C89.4652 71.8236 89.3874 71.8459 89.3075 71.8524C89.2277 71.8589 89.1473 71.8493 89.0711 71.8244C88.995 71.7994 88.9246 71.7595 88.864 71.707L85.248 68.6937C85.1802 68.6371 85.1256 68.5664 85.0881 68.4864C85.0507 68.4064 85.0312 68.3191 85.0312 68.2308C85.0312 68.1425 85.0507 68.0552 85.0881 67.9752C85.1256 67.8952 85.1802 67.8244 85.248 67.7679L88.864 64.7545C88.9869 64.6522 89.1454 64.6029 89.3046 64.6175C89.4638 64.632 89.6107 64.7092 89.713 64.8321C89.8153 64.955 89.8646 65.1135 89.8501 65.2727C89.8355 65.4319 89.7583 65.5788 89.6354 65.6811ZM102.894 67.7679L99.2781 64.7545C99.2173 64.7039 99.1471 64.6657 99.0715 64.6422C98.9959 64.6187 98.9164 64.6103 98.8375 64.6175C98.7587 64.6247 98.6821 64.6474 98.612 64.6842C98.5419 64.721 98.4798 64.7713 98.4291 64.8321C98.3268 64.955 98.2775 65.1135 98.2921 65.2727C98.3066 65.4319 98.3838 65.5788 98.5067 65.6811L101.567 68.2312L98.5067 70.7812C98.4441 70.8313 98.3922 70.8933 98.3539 70.9637C98.3156 71.0341 98.2918 71.1115 98.2837 71.1912C98.2757 71.2709 98.2836 71.3515 98.3071 71.4281C98.3305 71.5047 98.369 71.5759 98.4203 71.6375C98.4716 71.699 98.5347 71.7497 98.6058 71.7866C98.677 71.8236 98.7547 71.8459 98.8346 71.8524C98.9145 71.8589 98.9948 71.8493 99.071 71.8244C99.1472 71.7994 99.2176 71.7595 99.2781 71.707L102.894 68.6937C102.962 68.6371 103.017 68.5664 103.054 68.4864C103.091 68.4064 103.111 68.3191 103.111 68.2308C103.111 68.1425 103.091 68.0552 103.054 67.9752C103.017 67.8952 102.962 67.8244 102.894 67.7679ZM96.0223 62.8999C95.948 62.8729 95.869 62.8608 95.7899 62.8644C95.7108 62.8679 95.6332 62.8869 95.5615 62.9204C95.4898 62.9539 95.4254 63.0012 95.372 63.0596C95.3186 63.118 95.2772 63.1864 95.2502 63.2608L91.3557 73.6584C91.3285 73.7328 91.3164 73.8119 91.3198 73.891C91.3233 73.9702 91.3423 74.0479 91.3758 74.1197C91.4093 74.1914 91.4567 74.2559 91.5151 74.3094C91.5736 74.3629 91.642 74.4043 91.7165 74.4313C91.7825 74.4548 91.8521 74.4667 91.9222 74.4667C92.0459 74.4667 92.1667 74.4286 92.2681 74.3576C92.3694 74.2865 92.4464 74.186 92.4887 74.0697L96.3832 63.6721C96.4102 63.5977 96.4223 63.5187 96.4188 63.4397C96.4153 63.3606 96.3962 63.283 96.3627 63.2113C96.3292 63.1396 96.2819 63.0752 96.2235 63.0218C96.1651 62.9683 96.0967 62.9269 96.0223 62.8999Z" fill="url(#paint11_linear_2765_3091)"/>
<mask id="path-26-inside-10_2765_3091" fill="white">
<path d="M99.1162 207.102C101.129 207.102 102.761 208.734 102.761 210.746V216.577H83.8096V210.746C83.8096 208.734 85.4413 207.102 87.4541 207.102H99.1162ZM105.312 172.479C107.325 172.479 108.957 174.111 108.957 176.123V200.906C108.957 202.918 107.325 204.55 105.312 204.55H81.2588C79.246 204.55 77.6143 202.918 77.6143 200.906V176.123C77.6143 174.11 79.246 172.479 81.2588 172.479H105.312Z"/>
</mask>
<path d="M99.1162 207.102L99.1163 206.008H99.1162V207.102ZM102.761 210.746H103.854V210.746L102.761 210.746ZM102.761 216.577V217.671C103.365 217.671 103.854 217.181 103.854 216.577H102.761ZM83.8096 216.577H82.7162C82.7162 217.181 83.2057 217.671 83.8096 217.671V216.577ZM83.8096 210.746L82.7162 210.746V210.746H83.8096ZM105.312 172.479L105.313 171.385H105.312V172.479ZM108.957 176.123H110.05V176.123L108.957 176.123ZM105.312 204.55V205.643H105.313L105.312 204.55ZM77.6143 176.123L76.5209 176.123V176.123H77.6143ZM99.1162 207.102L99.1162 208.195C100.525 208.195 101.667 209.337 101.667 210.746L102.761 210.746L103.854 210.746C103.854 208.13 101.733 206.009 99.1163 206.008L99.1162 207.102ZM102.761 210.746H101.667V216.577H102.761H103.854V210.746H102.761ZM102.761 216.577V215.484H83.8096V216.577V217.671H102.761V216.577ZM83.8096 216.577H84.9029V210.746H83.8096H82.7162V216.577H83.8096ZM83.8096 210.746L84.9029 210.746C84.9029 209.337 86.0452 208.195 87.4541 208.195V207.102V206.008C84.8374 206.008 82.7162 208.13 82.7162 210.746L83.8096 210.746ZM87.4541 207.102V208.195H99.1162V207.102V206.008H87.4541V207.102ZM105.312 172.479L105.312 173.572C106.721 173.572 107.864 174.714 107.864 176.123L108.957 176.123L110.05 176.123C110.05 173.507 107.929 171.386 105.313 171.385L105.312 172.479ZM108.957 176.123H107.864V200.906H108.957H110.05V176.123H108.957ZM108.957 200.906H107.864C107.864 202.314 106.721 203.457 105.312 203.457L105.312 204.55L105.313 205.643C107.929 205.643 110.05 203.522 110.05 200.906H108.957ZM105.312 204.55V203.457H81.2588V204.55V205.643H105.312V204.55ZM81.2588 204.55V203.457C79.8498 203.457 78.7076 202.314 78.7076 200.906H77.6143H76.5209C76.5209 203.522 78.6421 205.643 81.2588 205.643V204.55ZM77.6143 200.906H78.7076V176.123H77.6143H76.5209V200.906H77.6143ZM77.6143 176.123L78.7076 176.123C78.7076 174.714 79.8498 173.572 81.2588 173.572V172.479V171.385C78.6421 171.385 76.5209 173.507 76.5209 176.123L77.6143 176.123ZM81.2588 172.479V173.572H105.312V172.479V171.385H81.2588V172.479Z" fill="url(#paint12_linear_2765_3091)" mask="url(#path-26-inside-10_2765_3091)"/>
<line x1="93.4383" y1="169.006" x2="93.4383" y2="172.936" stroke="url(#paint13_linear_2765_3091)" stroke-width="1.09336"/>
<circle cx="88.1824" cy="183.412" r="2.7334" stroke="url(#paint14_linear_2765_3091)" stroke-width="1.09336"/>
<circle cx="97.658" cy="183.412" r="2.7334" stroke="url(#paint15_linear_2765_3091)" stroke-width="1.09336"/>
<path d="M78.5244 191.248H88.5243C89.8822 191.248 91.1274 192.003 91.7555 193.207L91.9435 193.567C92.3537 194.353 93.4801 194.35 93.8854 193.561L94.057 193.227C94.6813 192.012 95.9327 191.248 97.2987 191.248H107.83" stroke="url(#paint16_linear_2765_3091)" stroke-width="1.09336"/>
<mask id="path-32-inside-11_2765_3091" fill="white">
<path d="M111.144 180.131C112.351 180.132 113.33 181.11 113.33 182.318V186.692C113.33 187.899 112.351 188.878 111.144 188.878H107.864V180.131H111.144Z"/>
</mask>
<path d="M111.144 180.131L111.144 179.038H111.144V180.131ZM113.33 182.318H114.423L114.423 182.318L113.33 182.318ZM113.33 186.692L114.423 186.692V186.692H113.33ZM111.144 188.878V189.972H111.144L111.144 188.878ZM107.864 188.878H106.771V189.972H107.864V188.878ZM107.864 180.131V179.038H106.771V180.131H107.864ZM111.144 180.131L111.143 181.225C111.747 181.225 112.237 181.714 112.237 182.318L113.33 182.318L114.423 182.318C114.423 180.506 112.955 179.038 111.144 179.038L111.144 180.131ZM113.33 182.318H112.237V186.692H113.33H114.423V182.318H113.33ZM113.33 186.692L112.237 186.692C112.237 187.295 111.747 187.785 111.143 187.785L111.144 188.878L111.144 189.972C112.955 189.971 114.423 188.503 114.423 186.692L113.33 186.692ZM111.144 188.878V187.785H107.864V188.878V189.972H111.144V188.878ZM107.864 188.878H108.958V180.131H107.864H106.771V188.878H107.864ZM107.864 180.131V181.225H111.144V180.131V179.038H107.864V180.131Z" fill="url(#paint17_linear_2765_3091)" mask="url(#path-32-inside-11_2765_3091)"/>
<mask id="path-34-inside-12_2765_3091" fill="white">
<path d="M78.708 188.878H75.4268C74.2191 188.878 73.2403 187.899 73.2402 186.692V182.318C73.2405 181.11 74.2192 180.131 75.4268 180.131H78.708V188.878Z"/>
</mask>
<path d="M78.708 188.878V189.972H79.8014V188.878H78.708ZM75.4268 188.878L75.4267 189.972H75.4268V188.878ZM73.2402 186.692H72.1469V186.692L73.2402 186.692ZM73.2402 182.318L72.1469 182.318V182.318H73.2402ZM75.4268 180.131V179.038H75.4267L75.4268 180.131ZM78.708 180.131H79.8014V179.038H78.708V180.131ZM78.708 188.878V187.785H75.4268V188.878V189.972H78.708V188.878ZM75.4268 188.878L75.4268 187.785C74.823 187.785 74.3336 187.296 74.3336 186.692L73.2402 186.692L72.1469 186.692C72.147 188.503 73.6152 189.972 75.4267 189.972L75.4268 188.878ZM73.2402 186.692H74.3336V182.318H73.2402H72.1469V186.692H73.2402ZM73.2402 182.318L74.3336 182.318C74.3337 181.714 74.8233 181.225 75.4268 181.225L75.4268 180.131L75.4267 179.038C73.6152 179.038 72.1472 180.507 72.1469 182.318L73.2402 182.318ZM75.4268 180.131V181.225H78.708V180.131V179.038H75.4268V180.131ZM78.708 180.131H77.6146V188.878H78.708H79.8014V180.131H78.708Z" fill="url(#paint18_linear_2765_3091)" mask="url(#path-34-inside-12_2765_3091)"/>
<g clip-path="url(#clip1_2765_3091)">
<path d="M100.554 168.515C100.554 169.195 100.352 169.86 99.9743 170.425C99.5964 170.991 99.0593 171.432 98.4308 171.692C97.8024 171.952 97.1109 172.02 96.4437 171.888C95.7766 171.755 95.1638 171.427 94.6828 170.946L94.6625 170.925L90.9809 166.767C90.6362 166.427 90.1985 166.196 89.7228 166.103C89.247 166.011 88.7546 166.061 88.3074 166.248C87.8602 166.435 87.4783 166.749 87.2097 167.153C86.941 167.556 86.7977 168.03 86.7977 168.515C86.7977 168.999 86.941 169.473 87.2097 169.876C87.4783 170.28 87.8602 170.594 88.3074 170.781C88.7546 170.968 89.247 171.018 89.7228 170.926C90.1985 170.833 90.6362 170.602 90.9809 170.262L91.5041 169.671C91.5469 169.623 91.5988 169.583 91.6568 169.555C91.7149 169.526 91.7779 169.51 91.8424 169.506C91.9069 169.502 91.9715 169.511 92.0326 169.532C92.0937 169.553 92.15 169.585 92.1984 169.628C92.2468 169.671 92.2863 169.723 92.3146 169.781C92.3429 169.839 92.3595 169.902 92.3635 169.967C92.3675 170.031 92.3587 170.096 92.3377 170.157C92.3167 170.218 92.2838 170.274 92.2411 170.322L91.7074 170.925L91.6871 170.946C91.2062 171.427 90.5934 171.755 89.9263 171.888C89.2592 172.02 88.5677 171.952 87.9393 171.692C87.3109 171.431 86.7738 170.991 86.396 170.425C86.0181 169.86 85.8164 169.195 85.8164 168.515C85.8164 167.834 86.0181 167.169 86.396 166.604C86.7738 166.038 87.3109 165.598 87.9393 165.337C88.5677 165.077 89.2592 165.009 89.9263 165.142C90.5934 165.274 91.2062 165.602 91.6871 166.083L91.7074 166.104L95.389 170.262C95.7337 170.602 96.1715 170.833 96.6472 170.926C97.1229 171.018 97.6153 170.968 98.0625 170.781C98.5097 170.594 98.8916 170.28 99.1603 169.876C99.4289 169.473 99.5723 168.999 99.5723 168.515C99.5723 168.03 99.4289 167.556 99.1603 167.153C98.8916 166.749 98.5097 166.435 98.0625 166.248C97.6153 166.061 97.1229 166.011 96.6472 166.103C96.1715 166.196 95.7337 166.427 95.389 166.767L94.8658 167.358C94.7794 167.456 94.6577 167.515 94.5275 167.523C94.3973 167.531 94.2693 167.487 94.1715 167.401C94.0738 167.314 94.0144 167.193 94.0064 167.063C93.9984 166.932 94.0425 166.804 94.1289 166.707L94.6625 166.104L94.6828 166.083C95.1638 165.602 95.7766 165.274 96.4437 165.141C97.1109 165.009 97.8024 165.077 98.4308 165.337C99.0593 165.597 99.5964 166.038 99.9743 166.604C100.352 167.169 100.554 167.834 100.554 168.515Z" fill="url(#paint19_linear_2765_3091)"/>
</g>
<rect x="21.3594" y="183.941" width="213.811" height="33.015" fill="url(#paint20_linear_2765_3091)"/>
<rect width="213.811" height="33.015" transform="matrix(1 0 0 -1 21.3594 86.4683)" fill="url(#paint21_linear_2765_3091)"/>
<path d="M293.717 15.0858H282.936C282.221 15.0858 281.536 15.3698 281.03 15.8752C280.525 16.3806 280.241 17.0662 280.241 17.781V53.7165C280.241 54.4313 280.525 55.1168 281.03 55.6223C281.536 56.1277 282.221 56.4117 282.936 56.4117H293.717C294.431 56.4117 295.117 56.1277 295.622 55.6223C296.128 55.1168 296.412 54.4313 296.412 53.7165V17.781C296.412 17.0662 296.128 16.3806 295.622 15.8752C295.117 15.3698 294.431 15.0858 293.717 15.0858ZM294.615 53.7165C294.615 53.9548 294.52 54.1833 294.352 54.3518C294.183 54.5202 293.955 54.6149 293.717 54.6149H282.936C282.698 54.6149 282.469 54.5202 282.301 54.3518C282.132 54.1833 282.038 53.9548 282.038 53.7165V45.631H288.326C288.565 45.631 288.793 45.5364 288.962 45.3679C289.13 45.1994 289.225 44.9709 289.225 44.7326C289.225 44.4944 289.13 44.2658 288.962 44.0974C288.793 43.9289 288.565 43.8342 288.326 43.8342H282.038V36.6471H288.326C288.565 36.6471 288.793 36.5525 288.962 36.384C289.13 36.2155 289.225 35.987 289.225 35.7487C289.225 35.5105 289.13 35.282 288.962 35.1135C288.793 34.945 288.565 34.8503 288.326 34.8503H282.038V27.6632H288.326C288.565 27.6632 288.793 27.5686 288.962 27.4001C289.13 27.2316 289.225 27.0031 289.225 26.7649C289.225 26.5266 289.13 26.2981 288.962 26.1296C288.793 25.9611 288.565 25.8665 288.326 25.8665H282.038V17.781C282.038 17.5427 282.132 17.3142 282.301 17.1457C282.469 16.9772 282.698 16.8826 282.936 16.8826H293.717C293.955 16.8826 294.183 16.9772 294.352 17.1457C294.52 17.3142 294.615 17.5427 294.615 17.781V53.7165ZM263.807 13.5518C263.724 13.4683 263.625 13.402 263.515 13.3568C263.406 13.3116 263.289 13.2883 263.171 13.2883C263.053 13.2883 262.936 13.3116 262.827 13.3568C262.718 13.402 262.619 13.4683 262.536 13.5518L255.349 20.7389C255.265 20.8224 255.199 20.9215 255.154 21.0306C255.109 21.1396 255.086 21.2565 255.086 21.3745V53.7165C255.086 54.4313 255.37 55.1168 255.875 55.6223C256.381 56.1277 257.066 56.4117 257.781 56.4117H268.562C269.277 56.4117 269.962 56.1277 270.468 55.6223C270.973 55.1168 271.257 54.4313 271.257 53.7165V21.3745C271.257 21.2565 271.234 21.1396 271.189 21.0306C271.144 20.9215 271.078 20.8224 270.994 20.7389L263.807 13.5518ZM256.883 24.0697H262.273V47.4278H256.883V24.0697ZM269.46 53.7165C269.46 53.9548 269.365 54.1833 269.197 54.3518C269.029 54.5202 268.8 54.6149 268.562 54.6149H257.781C257.543 54.6149 257.314 54.5202 257.146 54.3518C256.977 54.1833 256.883 53.9548 256.883 53.7165V49.2246H269.46V53.7165ZM269.46 47.4278H264.07V24.0697H269.46V47.4278ZM269.46 22.2729H256.883V21.7474L263.171 15.4586L269.46 21.7474V22.2729Z" fill="url(#paint22_linear_2765_3091)"/>
</g>
<defs>
<filter id="filter0_d_2765_3091" x="-34.424" y="-24.3393" width="407.913" height="295.505" filterUnits="userSpaceOnUse" color-interpolation-filters="sRGB">
<feFlood flood-opacity="0" result="BackgroundImageFix"/>
<feColorMatrix in="SourceAlpha" type="matrix" values="0 0 0 0 0 0 0 0 0 0 0 0 0 0 0 0 0 0 127 0" result="hardAlpha"/>
<feOffset/>
<feGaussianBlur stdDeviation="26.712"/>
<feComposite in2="hardAlpha" operator="out"/>
<feColorMatrix type="matrix" values="0 0 0 0 0 0 0 0 0 0 0 0 0 0 0 0 0 0 0.25 0"/>
<feBlend mode="normal" in2="BackgroundImageFix" result="effect1_dropShadow_2765_3091"/>
<feBlend mode="normal" in="SourceGraphic" in2="effect1_dropShadow_2765_3091" result="shape"/>
</filter>
<linearGradient id="paint0_linear_2765_3091" x1="93.5195" y1="73.4827" x2="93.5195" y2="105.312" gradientUnits="userSpaceOnUse">
<stop stop-color="#00CEC9"/>
<stop offset="1" stop-color="#018284"/>
</linearGradient>
<linearGradient id="paint1_linear_2765_3091" x1="88.3173" y1="80.8223" x2="88.3173" y2="87.2537" gradientUnits="userSpaceOnUse">
<stop stop-color="#00CEC9"/>
<stop offset="1" stop-color="#018284"/>
</linearGradient>
<linearGradient id="paint2_linear_2765_3091" x1="97.6073" y1="80.8223" x2="97.6073" y2="87.2537" gradientUnits="userSpaceOnUse">
<stop stop-color="#00CEC9"/>
<stop offset="1" stop-color="#018284"/>
</linearGradient>
<linearGradient id="paint3_linear_2765_3091" x1="92.9628" y1="90.47" x2="92.9628" y2="84.0385" gradientUnits="userSpaceOnUse">
<stop stop-color="#00CEC9"/>
<stop offset="1" stop-color="#018284"/>
</linearGradient>
<linearGradient id="paint4_linear_2765_3091" x1="110.649" y1="80.8218" x2="110.649" y2="89.397" gradientUnits="userSpaceOnUse">
<stop stop-color="#00CEC9"/>
<stop offset="1" stop-color="#018284"/>
</linearGradient>
<linearGradient id="paint5_linear_2765_3091" x1="76.7056" y1="80.8218" x2="76.7056" y2="89.397" gradientUnits="userSpaceOnUse">
<stop stop-color="#00CEC9"/>
<stop offset="1" stop-color="#018284"/>
</linearGradient>
<linearGradient id="paint6_linear_2765_3091" x1="93.1641" y1="124.577" x2="93.1641" y2="156.406" gradientUnits="userSpaceOnUse">
<stop stop-color="#00CEC9"/>
<stop offset="1" stop-color="#018284"/>
</linearGradient>
<linearGradient id="paint7_linear_2765_3091" x1="93.0342" y1="123.878" x2="92.0342" y2="123.878" gradientUnits="userSpaceOnUse">
<stop stop-color="#00CEC9"/>
<stop offset="1" stop-color="#018284"/>
</linearGradient>
<linearGradient id="paint8_linear_2765_3091" x1="87.9618" y1="128.916" x2="87.9618" y2="135.347" gradientUnits="userSpaceOnUse">
<stop stop-color="#00CEC9"/>
<stop offset="1" stop-color="#018284"/>
</linearGradient>
<linearGradient id="paint9_linear_2765_3091" x1="100.361" y1="131.274" x2="96.038" y2="135.991" gradientUnits="userSpaceOnUse">
<stop stop-color="#00CEC9"/>
<stop offset="1" stop-color="#018284"/>
</linearGradient>
<linearGradient id="paint10_linear_2765_3091" x1="89.7471" y1="141.993" x2="96.0356" y2="141.993" gradientUnits="userSpaceOnUse">
<stop stop-color="#30EDE6"/>
<stop offset="1" stop-color="#999999"/>
</linearGradient>
<linearGradient id="paint11_linear_2765_3091" x1="92.2633" y1="77.0703" x2="103.111" y2="67.8294" gradientUnits="userSpaceOnUse">
<stop stop-color="#30EDE6"/>
<stop offset="1" stop-color="#666666"/>
</linearGradient>
<linearGradient id="paint12_linear_2765_3091" x1="93.2856" y1="172.479" x2="93.2856" y2="216.577" gradientUnits="userSpaceOnUse">
<stop stop-color="#00CEC9"/>
<stop offset="1" stop-color="#018284"/>
</linearGradient>
<linearGradient id="paint13_linear_2765_3091" x1="95.8916" y1="169.399" x2="92.3318" y2="171.663" gradientUnits="userSpaceOnUse">
<stop stop-color="#00A6A6"/>
<stop offset="1" stop-color="#018284"/>
</linearGradient>
<linearGradient id="paint14_linear_2765_3091" x1="88.1824" y1="180.132" x2="88.1824" y2="186.692" gradientUnits="userSpaceOnUse">
<stop stop-color="#00CEC9"/>
<stop offset="1" stop-color="#018284"/>
</linearGradient>
<linearGradient id="paint15_linear_2765_3091" x1="97.658" y1="180.132" x2="97.658" y2="186.692" gradientUnits="userSpaceOnUse">
<stop stop-color="#00CEC9"/>
<stop offset="1" stop-color="#018284"/>
</linearGradient>
<linearGradient id="paint16_linear_2765_3091" x1="93.177" y1="191.248" x2="93.177" y2="195.439" gradientUnits="userSpaceOnUse">
<stop stop-color="#00CEC9"/>
<stop offset="1" stop-color="#018284"/>
</linearGradient>
<linearGradient id="paint17_linear_2765_3091" x1="110.597" y1="180.131" x2="110.597" y2="188.878" gradientUnits="userSpaceOnUse">
<stop stop-color="#00CEC9"/>
<stop offset="1" stop-color="#018284"/>
</linearGradient>
<linearGradient id="paint18_linear_2765_3091" x1="75.9741" y1="180.131" x2="75.9741" y2="188.878" gradientUnits="userSpaceOnUse">
<stop stop-color="#00CEC9"/>
<stop offset="1" stop-color="#018284"/>
</linearGradient>
<linearGradient id="paint19_linear_2765_3091" x1="93.1851" y1="165.075" x2="93.1851" y2="171.954" gradientUnits="userSpaceOnUse">
<stop stop-color="#00CEC9"/>
<stop offset="1" stop-color="#018284"/>
</linearGradient>
<linearGradient id="paint20_linear_2765_3091" x1="128.265" y1="183.941" x2="128.265" y2="216.956" gradientUnits="userSpaceOnUse">
<stop stop-color="white" stop-opacity="0"/>
<stop offset="1" stop-color="white"/>
</linearGradient>
<linearGradient id="paint21_linear_2765_3091" x1="106.906" y1="0" x2="106.906" y2="37.9683" gradientUnits="userSpaceOnUse">
<stop stop-color="white" stop-opacity="0"/>
<stop offset="1" stop-color="white"/>
</linearGradient>
<linearGradient id="paint22_linear_2765_3091" x1="255.039" y1="28.5" x2="290.039" y2="59" gradientUnits="userSpaceOnUse">
<stop stop-color="#00A6A6"/>
<stop offset="0.298077" stop-color="#029394"/>
<stop offset="1" stop-color="#076568"/>
</linearGradient>
<clipPath id="clip0_2765_3091">
<rect width="340" height="258" fill="white"/>
</clipPath>
<clipPath id="clip1_2765_3091">
<rect width="15.7214" height="15.7214" fill="white" transform="translate(85.0312 161.145)"/>
</clipPath>
</defs>
</svg>
