<svg width="340" height="258" viewBox="0 0 340 258" fill="none" xmlns="http://www.w3.org/2000/svg">
<g clip-path="url(#clip0_2765_2553)">
<g opacity="0.6">
<rect x="10.5967" y="25.7495" width="17.3554" height="3.32338" rx="1.66169" fill="#114951"/>
<rect x="10.5967" y="68.9534" width="17.3554" height="3.32338" rx="1.66169" fill="#114951"/>
<rect x="32.0146" y="25.7495" width="29.1719" height="3.32338" rx="1.66169" fill="#114951"/>
<rect x="32.0146" y="68.9534" width="29.1719" height="3.32338" rx="1.66169" fill="#114951"/>
<rect x="10.5967" y="34.6118" width="23.2636" height="3.32338" rx="1.66169" fill="#064355"/>
<rect x="10.5967" y="77.8157" width="23.2636" height="3.32338" rx="1.66169" fill="#064355"/>
<rect x="10.5967" y="43.4744" width="14.4013" height="3.32338" rx="1.66169" fill="#3D5C76"/>
<rect x="10.5967" y="86.678" width="14.4013" height="3.32338" rx="1.66169" fill="#3D5C76"/>
<rect x="16.5049" y="51.9673" width="21.4173" height="3.32338" rx="1.66169" fill="#14373E"/>
<rect x="16.5049" y="95.1711" width="21.4173" height="3.32338" rx="1.66169" fill="#14373E"/>
<rect x="16.5049" y="60.4602" width="31.3875" height="3.32338" rx="1.66169" fill="#114951"/>
<rect x="16.5049" y="103.664" width="31.3875" height="3.32338" rx="1.66169" fill="#114951"/>
<rect x="41.9844" y="51.9673" width="19.2017" height="3.32338" rx="1.66169" fill="#14373E"/>
<rect x="41.9844" y="95.1711" width="19.2017" height="3.32338" rx="1.66169" fill="#14373E"/>
<rect x="65.2471" y="51.9673" width="49.4814" height="3.32338" rx="1.66169" fill="#14373E"/>
<rect x="65.2471" y="95.1711" width="49.4814" height="3.32338" rx="1.66169" fill="#14373E"/>
<rect x="36.4453" y="34.6118" width="30.2797" height="3.32338" rx="1.66169" fill="#0E4249"/>
<rect x="36.4453" y="77.8157" width="30.2797" height="3.32338" rx="1.66169" fill="#0E4249"/>
<rect x="29.7979" y="43.4744" width="43.5732" height="3.32338" rx="1.66169" fill="#525252"/>
<rect opacity="0.3" x="29.7979" y="86.678" width="43.5732" height="3.32338" rx="1.66169" fill="#525252"/>
<rect x="69.3096" y="34.6118" width="40.2498" height="3.32338" rx="1.66169" fill="#404040"/>
<rect x="69.3096" y="77.8157" width="40.2498" height="3.32338" rx="1.66169" fill="#404040"/>
<rect x="76.6953" y="43.4744" width="12.555" height="3.32338" rx="1.66169" fill="#404040"/>
<rect x="76.6953" y="86.678" width="12.555" height="3.32338" rx="1.66169" fill="#72482F"/>
</g>
<g opacity="0.3">
<rect x="10.5967" y="112.527" width="17.3554" height="3.32338" rx="1.66169" fill="#114951"/>
<rect x="10.5967" y="155.73" width="17.3554" height="3.32338" rx="1.66169" fill="#114951"/>
<rect x="32.0137" y="112.527" width="29.1719" height="3.32338" rx="1.66169" fill="#114951"/>
<rect x="32.0137" y="155.73" width="29.1719" height="3.32338" rx="1.66169" fill="#114951"/>
<rect x="10.5967" y="121.389" width="23.2636" height="3.32338" rx="1.66169" fill="#064355"/>
<rect opacity="0.5" x="10.5967" y="164.593" width="23.2636" height="3.32338" rx="1.66169" fill="#064355"/>
<rect x="10.5967" y="130.251" width="14.4013" height="3.32338" rx="1.66169" fill="#3D5C76"/>
<rect opacity="0.5" x="10.5967" y="173.455" width="14.4013" height="3.32338" rx="1.66169" fill="#3D5C76"/>
<rect x="16.5049" y="138.744" width="21.4173" height="3.32338" rx="1.66169" fill="#14373E"/>
<rect opacity="0.5" x="16.5049" y="181.948" width="21.4173" height="3.32338" rx="1.66169" fill="#14373E"/>
<rect x="16.5049" y="147.237" width="31.3875" height="3.32338" rx="1.66169" fill="#114951"/>
<rect opacity="0.5" x="16.5049" y="190.441" width="31.3875" height="3.32338" rx="1.66169" fill="#114951"/>
<rect x="41.9844" y="138.744" width="19.2017" height="3.32338" rx="1.66169" fill="#14373E"/>
<rect opacity="0.5" x="41.9844" y="181.948" width="19.2017" height="3.32338" rx="1.66169" fill="#14373E"/>
<rect x="65.248" y="138.744" width="49.4814" height="3.32338" rx="1.66169" fill="#14373E"/>
<rect opacity="0.5" x="65.248" y="181.948" width="49.4814" height="3.32338" rx="1.66169" fill="#14373E"/>
<rect x="36.4443" y="121.389" width="30.2797" height="3.32338" rx="1.66169" fill="#0E4249"/>
<rect opacity="0.5" x="36.4443" y="164.593" width="30.2797" height="3.32338" rx="1.66169" fill="#0E4249"/>
<rect x="29.7979" y="130.251" width="43.5732" height="3.32338" rx="1.66169" fill="#383839"/>
<rect opacity="0.5" x="29.7979" y="173.455" width="43.5732" height="3.32338" rx="1.66169" fill="#383839"/>
<rect x="69.3096" y="121.389" width="40.2498" height="3.32338" rx="1.66169" fill="#393839"/>
<rect opacity="0.5" x="69.3096" y="164.593" width="40.2498" height="3.32338" rx="1.66169" fill="#393839"/>
<rect x="76.6943" y="130.251" width="12.555" height="3.32338" rx="1.66169" fill="#72482F"/>
<rect opacity="0.5" x="76.6943" y="173.455" width="12.555" height="3.32338" rx="1.66169" fill="#686769"/>
</g>
<rect x="222.924" y="142.643" width="17.3554" height="3.32338" rx="1.66169" fill="#114951"/>
<rect x="222.924" y="185.846" width="17.3554" height="3.32338" rx="1.66169" fill="#114951"/>
<rect x="244.341" y="142.643" width="29.1719" height="3.32338" rx="1.66169" fill="#114951"/>
<rect x="244.341" y="185.846" width="29.1719" height="3.32338" rx="1.66169" fill="#114951"/>
<rect x="222.924" y="151.505" width="23.2636" height="3.32338" rx="1.66169" fill="#064355"/>
<rect x="222.924" y="194.709" width="23.2636" height="3.32338" rx="1.66169" fill="#064355"/>
<rect x="222.924" y="160.367" width="14.4013" height="3.32338" rx="1.66169" fill="#3D5C76"/>
<rect x="222.924" y="203.571" width="14.4013" height="3.32338" rx="1.66169" fill="#3D5C76"/>
<rect x="228.832" y="168.86" width="21.4173" height="3.32338" rx="1.66169" fill="#14373E"/>
<rect x="228.832" y="212.064" width="21.4173" height="3.32338" rx="1.66169" fill="#14373E"/>
<rect x="228.832" y="177.353" width="31.3875" height="3.32338" rx="1.66169" fill="#114951"/>
<rect x="228.832" y="220.557" width="31.3875" height="3.32338" rx="1.66169" fill="#114951"/>
<rect x="254.312" y="168.86" width="19.2017" height="3.32338" rx="1.66169" fill="#14373E"/>
<rect x="254.312" y="212.064" width="19.2017" height="3.32338" rx="1.66169" fill="#14373E"/>
<rect x="277.574" y="168.86" width="49.4814" height="3.32338" rx="1.66169" fill="#14373E"/>
<rect x="277.574" y="212.064" width="49.4814" height="3.32338" rx="1.66169" fill="#14373E"/>
<rect x="248.771" y="151.505" width="30.2797" height="3.32338" rx="1.66169" fill="#0E4249"/>
<rect x="248.771" y="194.709" width="30.2797" height="3.32338" rx="1.66169" fill="#0E4249"/>
<rect x="242.125" y="160.367" width="43.5732" height="3.32338" rx="1.66169" fill="#171717"/>
<rect x="242.125" y="203.571" width="43.5732" height="3.32338" rx="1.66169" fill="#171717"/>
<rect x="281.637" y="151.505" width="40.2498" height="3.32338" rx="1.66169" fill="#171717"/>
<rect x="281.637" y="194.709" width="40.2498" height="3.32338" rx="1.66169" fill="#171717"/>
<rect opacity="0.4" x="289.021" y="160.367" width="12.555" height="3.32338" rx="1.66169" fill="#404040"/>
<rect opacity="0.4" x="289.021" y="203.571" width="12.555" height="3.32338" rx="1.66169" fill="#525252"/>
<rect x="69.1018" y="51.4795" width="66.1578" height="39.2331" rx="5.76958" fill="#0C0E10"/>
<rect x="69.1018" y="51.4795" width="66.1578" height="39.2331" rx="5.76958" stroke="url(#paint0_linear_2765_2553)" stroke-width="0.256426"/>
<path d="M77.8026 62.0177H80.8129V62.4949H79.5647V66.3005H79.0508V62.4949H77.8026V62.0177ZM83.8949 65.7866H83.8215C83.7236 65.9905 83.587 66.1415 83.4116 66.2394C83.2403 66.3372 83.0588 66.3862 82.867 66.3862C82.6672 66.3862 82.4816 66.3536 82.3103 66.2883C82.139 66.219 81.988 66.119 81.8575 65.9885C81.7311 65.8539 81.6311 65.6907 81.5577 65.499C81.4843 65.3073 81.4476 65.085 81.4476 64.8321V64.7342C81.4476 64.4854 81.4843 64.2652 81.5577 64.0735C81.6311 63.8818 81.7311 63.7206 81.8575 63.5901C81.988 63.4555 82.139 63.3535 82.3103 63.2842C82.4816 63.2149 82.6631 63.1802 82.8548 63.1802C83.0628 63.1802 83.2505 63.2271 83.4177 63.3209C83.589 63.4107 83.7236 63.5514 83.8215 63.7431H83.8949V63.2659H84.3722V65.6765C84.3722 65.7988 84.4272 65.86 84.5373 65.86H84.6903V66.3005H84.366C84.2274 66.3005 84.1131 66.2557 84.0234 66.1659C83.9378 66.0762 83.8949 65.962 83.8949 65.8233V65.7866ZM82.916 65.9334C83.0588 65.9334 83.1893 65.9069 83.3076 65.8539C83.4299 65.8009 83.5339 65.7254 83.6196 65.6275C83.7053 65.5296 83.7726 65.4134 83.8215 65.2788C83.8705 65.1401 83.8949 64.9871 83.8949 64.8199V64.7465C83.8949 64.5833 83.8705 64.4345 83.8215 64.2998C83.7726 64.1612 83.7032 64.0429 83.6135 63.945C83.5278 63.8471 83.4238 63.7716 83.3014 63.7186C83.1832 63.6615 83.0547 63.633 82.916 63.633C82.7732 63.633 82.6427 63.6595 82.5244 63.7125C82.4061 63.7655 82.3021 63.841 82.2124 63.9389C82.1267 64.0327 82.0594 64.1489 82.0105 64.2876C81.9615 64.4222 81.9371 64.5711 81.9371 64.7342V64.8321C81.9371 65.1788 82.0268 65.4501 82.2063 65.6459C82.3898 65.8376 82.6264 65.9334 82.916 65.9334ZM86.047 64.049C86.047 64.1958 86.1082 64.308 86.2306 64.3855C86.357 64.463 86.5854 64.514 86.9158 64.5385C87.2707 64.567 87.5399 64.6527 87.7234 64.7954C87.9111 64.9341 88.0049 65.1381 88.0049 65.4073V65.444C88.0049 65.5908 87.9743 65.7234 87.9131 65.8417C87.856 65.9559 87.7744 66.0538 87.6684 66.1353C87.5664 66.2169 87.4399 66.2781 87.289 66.3189C87.1422 66.3638 86.9811 66.3862 86.8057 66.3862C86.5691 66.3862 86.3652 66.3556 86.1938 66.2944C86.0266 66.2292 85.8859 66.1455 85.7717 66.0436C85.6616 65.9375 85.5779 65.8192 85.5208 65.6887C85.4637 65.5541 85.4311 65.4195 85.4229 65.2849L85.8757 65.1748C85.8961 65.4073 85.9858 65.5949 86.1449 65.7377C86.304 65.8763 86.5161 65.9457 86.7812 65.9457C87.0055 65.9457 87.185 65.9028 87.3196 65.8172C87.4583 65.7275 87.5276 65.603 87.5276 65.444C87.5276 65.2727 87.4603 65.1503 87.3257 65.0769C87.1911 65.0035 86.9729 64.9565 86.6711 64.9362C86.3203 64.9117 86.0511 64.8301 85.8635 64.6914C85.6758 64.5527 85.582 64.3508 85.582 64.0857V64.049C85.582 63.9062 85.6126 63.7818 85.6738 63.6758C85.735 63.5656 85.8165 63.4739 85.9185 63.4005C86.0246 63.327 86.1429 63.272 86.2734 63.2353C86.4039 63.1986 86.5405 63.1802 86.6833 63.1802C86.8832 63.1802 87.0586 63.2087 87.2095 63.2659C87.3604 63.3189 87.4868 63.3903 87.5888 63.48C87.6908 63.5656 87.7683 63.6656 87.8213 63.7798C87.8784 63.894 87.9151 64.0082 87.9314 64.1224L87.4787 64.2325C87.4583 64.0368 87.3788 63.8838 87.2401 63.7737C87.1055 63.6635 86.928 63.6085 86.7078 63.6085C86.6221 63.6085 86.5385 63.6187 86.4569 63.6391C86.3794 63.6554 86.3101 63.6819 86.2489 63.7186C86.1877 63.7553 86.1388 63.8022 86.1021 63.8593C86.0654 63.9124 86.047 63.9756 86.047 64.049ZM89.9245 64.5262H90.0285L91.1848 63.2659H91.7722V63.3026L90.5118 64.6914V64.8015L91.919 66.2638V66.3005H91.3317L90.0407 64.9667H89.9245V66.3005H89.4472V62.0177H89.9245V64.5262ZM98.8479 65.2359H97.0125L96.7004 66.3005H96.1498L97.4469 62.0177H98.4135L99.7106 66.3005H99.16L98.8479 65.2359ZM97.8935 62.238L97.1532 64.7587H98.7072L97.9669 62.238H97.8935Z" fill="white"/>
<rect opacity="0.2" x="77.4355" y="72.9163" width="42.8231" height="2.82068" rx="1.41034" fill="#D9D9D9"/>
<rect opacity="0.2" x="77.4355" y="72.9163" width="32.5661" height="2.82068" rx="1.41034" fill="#1ECB83"/>
<rect opacity="0.2" x="77.4355" y="78.814" width="42.8231" height="2.82068" rx="1.41034" fill="#D9D9D9"/>
<rect opacity="0.2" x="77.4355" y="78.814" width="23.3347" height="2.82068" rx="1.41034" fill="#1ECB83"/>
<rect x="69.1018" y="96.6106" width="66.1578" height="39.2331" rx="5.76958" fill="#0C0E10"/>
<rect x="69.1018" y="96.6106" width="66.1578" height="39.2331" rx="5.76958" stroke="url(#paint1_linear_2765_2553)" stroke-width="0.256426"/>
<path d="M77.8026 107.149H80.8129V107.626H79.5647V111.432H79.0508V107.626H77.8026V107.149ZM83.8949 110.918H83.8215C83.7236 111.122 83.587 111.273 83.4116 111.37C83.2403 111.468 83.0588 111.517 82.867 111.517C82.6672 111.517 82.4816 111.485 82.3103 111.419C82.139 111.35 81.988 111.25 81.8575 111.12C81.7311 110.985 81.6311 110.822 81.5577 110.63C81.4843 110.438 81.4476 110.216 81.4476 109.963V109.865C81.4476 109.617 81.4843 109.396 81.5577 109.205C81.6311 109.013 81.7311 108.852 81.8575 108.721C81.988 108.587 82.139 108.485 82.3103 108.415C82.4816 108.346 82.6631 108.311 82.8548 108.311C83.0628 108.311 83.2505 108.358 83.4177 108.452C83.589 108.542 83.7236 108.682 83.8215 108.874H83.8949V108.397H84.3722V110.808C84.3722 110.93 84.4272 110.991 84.5373 110.991H84.6903V111.432H84.366C84.2274 111.432 84.1131 111.387 84.0234 111.297C83.9378 111.207 83.8949 111.093 83.8949 110.954V110.918ZM82.916 111.065C83.0588 111.065 83.1893 111.038 83.3076 110.985C83.4299 110.932 83.5339 110.857 83.6196 110.759C83.7053 110.661 83.7726 110.544 83.8215 110.41C83.8705 110.271 83.8949 110.118 83.8949 109.951V109.878C83.8949 109.714 83.8705 109.566 83.8215 109.431C83.7726 109.292 83.7032 109.174 83.6135 109.076C83.5278 108.978 83.4238 108.903 83.3014 108.85C83.1832 108.793 83.0547 108.764 82.916 108.764C82.7732 108.764 82.6427 108.791 82.5244 108.844C82.4061 108.897 82.3021 108.972 82.2124 109.07C82.1267 109.164 82.0594 109.28 82.0105 109.419C81.9615 109.553 81.9371 109.702 81.9371 109.865V109.963C81.9371 110.31 82.0268 110.581 82.2063 110.777C82.3898 110.969 82.6264 111.065 82.916 111.065ZM86.047 109.18C86.047 109.327 86.1082 109.439 86.2306 109.517C86.357 109.594 86.5854 109.645 86.9158 109.67C87.2707 109.698 87.5399 109.784 87.7234 109.927C87.9111 110.065 88.0049 110.269 88.0049 110.538V110.575C88.0049 110.722 87.9743 110.854 87.9131 110.973C87.856 111.087 87.7744 111.185 87.6684 111.266C87.5664 111.348 87.4399 111.409 87.289 111.45C87.1422 111.495 86.9811 111.517 86.8057 111.517C86.5691 111.517 86.3652 111.487 86.1938 111.426C86.0266 111.36 85.8859 111.277 85.7717 111.175C85.6616 111.069 85.5779 110.95 85.5208 110.82C85.4637 110.685 85.4311 110.551 85.4229 110.416L85.8757 110.306C85.8961 110.538 85.9858 110.726 86.1449 110.869C86.304 111.007 86.5161 111.077 86.7812 111.077C87.0055 111.077 87.185 111.034 87.3196 110.948C87.4583 110.859 87.5276 110.734 87.5276 110.575C87.5276 110.404 87.4603 110.281 87.3257 110.208C87.1911 110.135 86.9729 110.088 86.6711 110.067C86.3203 110.043 86.0511 109.961 85.8635 109.823C85.6758 109.684 85.582 109.482 85.582 109.217V109.18C85.582 109.037 85.6126 108.913 85.6738 108.807C85.735 108.697 85.8165 108.605 85.9185 108.532C86.0246 108.458 86.1429 108.403 86.2734 108.366C86.4039 108.33 86.5405 108.311 86.6833 108.311C86.8832 108.311 87.0586 108.34 87.2095 108.397C87.3604 108.45 87.4868 108.521 87.5888 108.611C87.6908 108.697 87.7683 108.797 87.8213 108.911C87.8784 109.025 87.9151 109.139 87.9314 109.254L87.4787 109.364C87.4583 109.168 87.3788 109.015 87.2401 108.905C87.1055 108.795 86.928 108.74 86.7078 108.74C86.6221 108.74 86.5385 108.75 86.4569 108.77C86.3794 108.786 86.3101 108.813 86.2489 108.85C86.1877 108.886 86.1388 108.933 86.1021 108.99C86.0654 109.043 86.047 109.107 86.047 109.18ZM89.9245 109.657H90.0285L91.1848 108.397H91.7722V108.434L90.5118 109.823V109.933L91.919 111.395V111.432H91.3317L90.0407 110.098H89.9245V111.432H89.4472V107.149H89.9245V109.657ZM98.8479 110.367H97.0125L96.7004 111.432H96.1498L97.4469 107.149H98.4135L99.7106 111.432H99.16L98.8479 110.367ZM97.8935 107.369L97.1532 109.89H98.7072L97.9669 107.369H97.8935Z" fill="white"/>
<rect opacity="0.2" x="77.4355" y="118.047" width="42.8231" height="2.82068" rx="1.41034" fill="#D9D9D9"/>
<rect opacity="0.2" x="77.4355" y="118.047" width="32.5661" height="2.82068" rx="1.41034" fill="#1ECB83"/>
<rect opacity="0.2" x="77.4355" y="123.945" width="42.8231" height="2.82068" rx="1.41034" fill="#D9D9D9"/>
<rect opacity="0.2" x="77.4355" y="123.945" width="23.3347" height="2.82068" rx="1.41034" fill="#1ECB83"/>
<rect x="139.305" y="51.4795" width="66.1578" height="39.2331" rx="5.76958" fill="#0C0E10"/>
<rect x="139.305" y="51.4795" width="66.1578" height="39.2331" rx="5.76958" stroke="url(#paint2_linear_2765_2553)" stroke-width="0.256426"/>
<path d="M148.006 62.0177H151.016V62.4949H149.768V66.3005H149.254V62.4949H148.006V62.0177ZM154.098 65.7866H154.025C153.927 65.9905 153.79 66.1415 153.615 66.2394C153.443 66.3372 153.262 66.3862 153.07 66.3862C152.87 66.3862 152.685 66.3536 152.513 66.2883C152.342 66.219 152.191 66.119 152.061 65.9885C151.934 65.8539 151.834 65.6907 151.761 65.499C151.687 65.3073 151.651 65.085 151.651 64.8321V64.7342C151.651 64.4854 151.687 64.2652 151.761 64.0735C151.834 63.8818 151.934 63.7206 152.061 63.5901C152.191 63.4555 152.342 63.3535 152.513 63.2842C152.685 63.2149 152.866 63.1802 153.058 63.1802C153.266 63.1802 153.454 63.2271 153.621 63.3209C153.792 63.4107 153.927 63.5514 154.025 63.7431H154.098V63.2659H154.575V65.6765C154.575 65.7988 154.63 65.86 154.74 65.86H154.893V66.3005H154.569C154.43 66.3005 154.316 66.2557 154.227 66.1659C154.141 66.0762 154.098 65.962 154.098 65.8233V65.7866ZM153.119 65.9334C153.262 65.9334 153.392 65.9069 153.511 65.8539C153.633 65.8009 153.737 65.7254 153.823 65.6275C153.908 65.5296 153.976 65.4134 154.025 65.2788C154.074 65.1401 154.098 64.9871 154.098 64.8199V64.7465C154.098 64.5833 154.074 64.4345 154.025 64.2998C153.976 64.1612 153.906 64.0429 153.817 63.945C153.731 63.8471 153.627 63.7716 153.505 63.7186C153.386 63.6615 153.258 63.633 153.119 63.633C152.976 63.633 152.846 63.6595 152.728 63.7125C152.609 63.7655 152.505 63.841 152.416 63.9389C152.33 64.0327 152.263 64.1489 152.214 64.2876C152.165 64.4222 152.14 64.5711 152.14 64.7342V64.8321C152.14 65.1788 152.23 65.4501 152.409 65.6459C152.593 65.8376 152.83 65.9334 153.119 65.9334ZM156.25 64.049C156.25 64.1958 156.311 64.308 156.434 64.3855C156.56 64.463 156.789 64.514 157.119 64.5385C157.474 64.567 157.743 64.6527 157.927 64.7954C158.114 64.9341 158.208 65.1381 158.208 65.4073V65.444C158.208 65.5908 158.177 65.7234 158.116 65.8417C158.059 65.9559 157.978 66.0538 157.871 66.1353C157.77 66.2169 157.643 66.2781 157.492 66.3189C157.345 66.3638 157.184 66.3862 157.009 66.3862C156.772 66.3862 156.568 66.3556 156.397 66.2944C156.23 66.2292 156.089 66.1455 155.975 66.0436C155.865 65.9375 155.781 65.8192 155.724 65.6887C155.667 65.5541 155.634 65.4195 155.626 65.2849L156.079 65.1748C156.099 65.4073 156.189 65.5949 156.348 65.7377C156.507 65.8763 156.719 65.9457 156.984 65.9457C157.209 65.9457 157.388 65.9028 157.523 65.8172C157.661 65.7275 157.731 65.603 157.731 65.444C157.731 65.2727 157.663 65.1503 157.529 65.0769C157.394 65.0035 157.176 64.9565 156.874 64.9362C156.523 64.9117 156.254 64.8301 156.067 64.6914C155.879 64.5527 155.785 64.3508 155.785 64.0857V64.049C155.785 63.9062 155.816 63.7818 155.877 63.6758C155.938 63.5656 156.02 63.4739 156.122 63.4005C156.228 63.327 156.346 63.272 156.477 63.2353C156.607 63.1986 156.744 63.1802 156.886 63.1802C157.086 63.1802 157.262 63.2087 157.413 63.2659C157.564 63.3189 157.69 63.3903 157.792 63.48C157.894 63.5656 157.971 63.6656 158.024 63.7798C158.082 63.894 158.118 64.0082 158.135 64.1224L157.682 64.2325C157.661 64.0368 157.582 63.8838 157.443 63.7737C157.309 63.6635 157.131 63.6085 156.911 63.6085C156.825 63.6085 156.742 63.6187 156.66 63.6391C156.583 63.6554 156.513 63.6819 156.452 63.7186C156.391 63.7553 156.342 63.8022 156.305 63.8593C156.268 63.9124 156.25 63.9756 156.25 64.049ZM160.128 64.5262H160.232L161.388 63.2659H161.975V63.3026L160.715 64.6914V64.8015L162.122 66.2638V66.3005H161.535L160.244 64.9667H160.128V66.3005H159.65V62.0177H160.128V64.5262ZM166.61 65.8233H166.977V62.4949H166.61V62.0177H168.341C168.545 62.0177 168.725 62.0463 168.88 62.1034C169.039 62.1605 169.171 62.238 169.277 62.3359C169.388 62.4338 169.469 62.552 169.522 62.6907C169.579 62.8253 169.608 62.9722 169.608 63.1312V63.2047C169.608 63.323 169.589 63.431 169.553 63.5289C169.516 63.6268 169.465 63.7145 169.4 63.792C169.335 63.8695 169.257 63.9368 169.167 63.9939C169.082 64.047 168.988 64.0877 168.886 64.1163V64.1897C169.09 64.2468 169.261 64.357 169.4 64.5201C169.538 64.6792 169.608 64.875 169.608 65.1075V65.1809C169.608 65.34 169.579 65.4888 169.522 65.6275C169.469 65.7621 169.388 65.8804 169.277 65.9824C169.171 66.0803 169.039 66.1578 168.88 66.2149C168.725 66.272 168.545 66.3005 168.341 66.3005H166.61V65.8233ZM167.491 65.8233H168.305C168.545 65.8233 168.741 65.7642 168.892 65.6459C169.043 65.5235 169.118 65.3563 169.118 65.1442V65.1075C169.118 64.8872 169.047 64.7139 168.904 64.5874C168.761 64.4569 168.568 64.3916 168.323 64.3916H167.491V65.8233ZM167.491 63.9144H168.323C168.568 63.9144 168.761 63.8512 168.904 63.7247C169.047 63.5983 169.118 63.4249 169.118 63.2047V63.168C169.118 62.9599 169.043 62.7968 168.892 62.6785C168.741 62.5561 168.545 62.4949 168.305 62.4949H167.491V63.9144Z" fill="white"/>
<rect opacity="0.2" x="147.639" y="72.9163" width="42.8231" height="2.82068" rx="1.41034" fill="#D9D9D9"/>
<rect opacity="0.2" x="147.639" y="72.9163" width="32.5661" height="2.82068" rx="1.41034" fill="#1ECB83"/>
<rect opacity="0.2" x="147.639" y="78.814" width="42.8231" height="2.82068" rx="1.41034" fill="#D9D9D9"/>
<rect opacity="0.2" x="147.639" y="78.814" width="23.3347" height="2.82068" rx="1.41034" fill="#1ECB83"/>
<rect x="209.509" y="51.4795" width="66.1578" height="39.2331" rx="5.76958" fill="#0C0E10"/>
<rect x="209.509" y="51.4795" width="66.1578" height="39.2331" rx="5.76958" stroke="url(#paint3_linear_2765_2553)" stroke-width="0.256426"/>
<path d="M218.21 62.0177H221.22V62.4949H219.972V66.3005H219.458V62.4949H218.21V62.0177ZM224.302 65.7866H224.229C224.131 65.9905 223.994 66.1415 223.819 66.2394C223.647 66.3372 223.466 66.3862 223.274 66.3862C223.074 66.3862 222.889 66.3536 222.718 66.2883C222.546 66.219 222.395 66.119 222.265 65.9885C222.138 65.8539 222.038 65.6907 221.965 65.499C221.892 65.3073 221.855 65.085 221.855 64.8321V64.7342C221.855 64.4854 221.892 64.2652 221.965 64.0735C222.038 63.8818 222.138 63.7206 222.265 63.5901C222.395 63.4555 222.546 63.3535 222.718 63.2842C222.889 63.2149 223.07 63.1802 223.262 63.1802C223.47 63.1802 223.658 63.2271 223.825 63.3209C223.996 63.4107 224.131 63.5514 224.229 63.7431H224.302V63.2659H224.779V65.6765C224.779 65.7988 224.834 65.86 224.945 65.86H225.098V66.3005H224.773C224.635 66.3005 224.52 66.2557 224.431 66.1659C224.345 66.0762 224.302 65.962 224.302 65.8233V65.7866ZM223.323 65.9334C223.466 65.9334 223.597 65.9069 223.715 65.8539C223.837 65.8009 223.941 65.7254 224.027 65.6275C224.112 65.5296 224.18 65.4134 224.229 65.2788C224.278 65.1401 224.302 64.9871 224.302 64.8199V64.7465C224.302 64.5833 224.278 64.4345 224.229 64.2998C224.18 64.1612 224.11 64.0429 224.021 63.945C223.935 63.8471 223.831 63.7716 223.709 63.7186C223.59 63.6615 223.462 63.633 223.323 63.633C223.18 63.633 223.05 63.6595 222.932 63.7125C222.813 63.7655 222.709 63.841 222.62 63.9389C222.534 64.0327 222.467 64.1489 222.418 64.2876C222.369 64.4222 222.344 64.5711 222.344 64.7342V64.8321C222.344 65.1788 222.434 65.4501 222.613 65.6459C222.797 65.8376 223.034 65.9334 223.323 65.9334ZM226.454 64.049C226.454 64.1958 226.515 64.308 226.638 64.3855C226.764 64.463 226.993 64.514 227.323 64.5385C227.678 64.567 227.947 64.6527 228.131 64.7954C228.318 64.9341 228.412 65.1381 228.412 65.4073V65.444C228.412 65.5908 228.382 65.7234 228.32 65.8417C228.263 65.9559 228.182 66.0538 228.076 66.1353C227.974 66.2169 227.847 66.2781 227.696 66.3189C227.549 66.3638 227.388 66.3862 227.213 66.3862C226.976 66.3862 226.772 66.3556 226.601 66.2944C226.434 66.2292 226.293 66.1455 226.179 66.0436C226.069 65.9375 225.985 65.8192 225.928 65.6887C225.871 65.5541 225.838 65.4195 225.83 65.2849L226.283 65.1748C226.303 65.4073 226.393 65.5949 226.552 65.7377C226.711 65.8763 226.923 65.9457 227.188 65.9457C227.413 65.9457 227.592 65.9028 227.727 65.8172C227.866 65.7275 227.935 65.603 227.935 65.444C227.935 65.2727 227.868 65.1503 227.733 65.0769C227.598 65.0035 227.38 64.9565 227.078 64.9362C226.728 64.9117 226.458 64.8301 226.271 64.6914C226.083 64.5527 225.989 64.3508 225.989 64.0857V64.049C225.989 63.9062 226.02 63.7818 226.081 63.6758C226.142 63.5656 226.224 63.4739 226.326 63.4005C226.432 63.327 226.55 63.272 226.681 63.2353C226.811 63.1986 226.948 63.1802 227.091 63.1802C227.29 63.1802 227.466 63.2087 227.617 63.2659C227.768 63.3189 227.894 63.3903 227.996 63.48C228.098 63.5656 228.176 63.6656 228.229 63.7798C228.286 63.894 228.322 64.0082 228.339 64.1224L227.886 64.2325C227.866 64.0368 227.786 63.8838 227.647 63.7737C227.513 63.6635 227.335 63.6085 227.115 63.6085C227.029 63.6085 226.946 63.6187 226.864 63.6391C226.787 63.6554 226.717 63.6819 226.656 63.7186C226.595 63.7553 226.546 63.8022 226.509 63.8593C226.473 63.9124 226.454 63.9756 226.454 64.049ZM230.332 64.5262H230.436L231.592 63.2659H232.179V63.3026L230.919 64.6914V64.8015L232.326 66.2638V66.3005H231.739L230.448 64.9667H230.332V66.3005H229.854V62.0177H230.332V64.5262ZM238.362 65.909C238.537 65.909 238.686 65.8804 238.809 65.8233C238.935 65.7621 239.037 65.6826 239.114 65.5847C239.196 65.4827 239.255 65.3685 239.292 65.2421C239.333 65.1115 239.353 64.9749 239.353 64.8321V64.7587H239.867V64.8321C239.867 65.0483 239.834 65.2523 239.769 65.444C239.704 65.6316 239.608 65.7968 239.482 65.9396C239.355 66.0782 239.198 66.1884 239.01 66.2699C238.823 66.3474 238.607 66.3862 238.362 66.3862C237.889 66.3862 237.52 66.2373 237.254 65.9396C236.989 65.6418 236.857 65.2074 236.857 64.6364V63.6819C236.857 63.1272 236.989 62.6968 237.254 62.3909C237.52 62.085 237.889 61.9321 238.362 61.9321C238.607 61.9321 238.823 61.9728 239.01 62.0544C239.198 62.1319 239.355 62.2421 239.482 62.3848C239.608 62.5235 239.704 62.6887 239.769 62.8804C239.834 63.068 239.867 63.2699 239.867 63.4861V63.5595H239.353V63.4861C239.349 63.3474 239.327 63.2128 239.286 63.0823C239.249 62.9518 239.19 62.8376 239.108 62.7397C239.031 62.6377 238.931 62.5582 238.809 62.5011C238.686 62.4399 238.537 62.4093 238.362 62.4093C238.032 62.4093 237.783 62.5296 237.615 62.7703C237.452 63.0109 237.371 63.327 237.371 63.7186V64.5996C237.371 65.0198 237.452 65.344 237.615 65.5725C237.783 65.7968 238.032 65.909 238.362 65.909Z" fill="white"/>
<rect opacity="0.2" x="217.843" y="72.9163" width="42.8231" height="2.82068" rx="1.41034" fill="#D9D9D9"/>
<rect opacity="0.2" x="217.843" y="72.9163" width="32.5661" height="2.82068" rx="1.41034" fill="#1ECB83"/>
<rect opacity="0.2" x="217.843" y="78.814" width="42.8231" height="2.82068" rx="1.41034" fill="#D9D9D9"/>
<rect opacity="0.2" x="217.843" y="78.814" width="23.3347" height="2.82068" rx="1.41034" fill="#1ECB83"/>
<rect x="209.509" y="95.357" width="66.1578" height="39.2331" rx="5.76958" fill="#0C0E10"/>
<rect x="209.509" y="95.357" width="66.1578" height="39.2331" rx="5.76958" stroke="url(#paint4_linear_2765_2553)" stroke-width="0.256426"/>
<path d="M218.21 105.895H221.22V106.373H219.972V110.178H219.458V106.373H218.21V105.895ZM224.302 109.664H224.229C224.131 109.868 223.994 110.019 223.819 110.117C223.647 110.215 223.466 110.264 223.274 110.264C223.074 110.264 222.889 110.231 222.718 110.166C222.546 110.097 222.395 109.997 222.265 109.866C222.138 109.732 222.038 109.568 221.965 109.377C221.892 109.185 221.855 108.963 221.855 108.71V108.612C221.855 108.363 221.892 108.143 221.965 107.951C222.038 107.759 222.138 107.598 222.265 107.468C222.395 107.333 222.546 107.231 222.718 107.162C222.889 107.093 223.07 107.058 223.262 107.058C223.47 107.058 223.658 107.105 223.825 107.199C223.996 107.288 224.131 107.429 224.229 107.621H224.302V107.144H224.779V109.554C224.779 109.677 224.834 109.738 224.945 109.738H225.098V110.178H224.773C224.635 110.178 224.52 110.133 224.431 110.044C224.345 109.954 224.302 109.84 224.302 109.701V109.664ZM223.323 109.811C223.466 109.811 223.597 109.785 223.715 109.732C223.837 109.679 223.941 109.603 224.027 109.505C224.112 109.407 224.18 109.291 224.229 109.156C224.278 109.018 224.302 108.865 224.302 108.698V108.624C224.302 108.461 224.278 108.312 224.229 108.178C224.18 108.039 224.11 107.921 224.021 107.823C223.935 107.725 223.831 107.649 223.709 107.596C223.59 107.539 223.462 107.511 223.323 107.511C223.18 107.511 223.05 107.537 222.932 107.59C222.813 107.643 222.709 107.719 222.62 107.817C222.534 107.91 222.467 108.027 222.418 108.165C222.369 108.3 222.344 108.449 222.344 108.612V108.71C222.344 109.057 222.434 109.328 222.613 109.524C222.797 109.715 223.034 109.811 223.323 109.811ZM226.454 107.927C226.454 108.074 226.515 108.186 226.638 108.263C226.764 108.341 226.993 108.392 227.323 108.416C227.678 108.445 227.947 108.53 228.131 108.673C228.318 108.812 228.412 109.016 228.412 109.285V109.322C228.412 109.468 228.382 109.601 228.32 109.719C228.263 109.834 228.182 109.931 228.076 110.013C227.974 110.095 227.847 110.156 227.696 110.197C227.549 110.241 227.388 110.264 227.213 110.264C226.976 110.264 226.772 110.233 226.601 110.172C226.434 110.107 226.293 110.023 226.179 109.921C226.069 109.815 225.985 109.697 225.928 109.566C225.871 109.432 225.838 109.297 225.83 109.163L226.283 109.052C226.303 109.285 226.393 109.473 226.552 109.615C226.711 109.754 226.923 109.823 227.188 109.823C227.413 109.823 227.592 109.781 227.727 109.695C227.866 109.605 227.935 109.481 227.935 109.322C227.935 109.15 227.868 109.028 227.733 108.955C227.598 108.881 227.38 108.834 227.078 108.814C226.728 108.789 226.458 108.708 226.271 108.569C226.083 108.43 225.989 108.229 225.989 107.963V107.927C225.989 107.784 226.02 107.66 226.081 107.553C226.142 107.443 226.224 107.352 226.326 107.278C226.432 107.205 226.55 107.15 226.681 107.113C226.811 107.076 226.948 107.058 227.091 107.058C227.29 107.058 227.466 107.086 227.617 107.144C227.768 107.197 227.894 107.268 227.996 107.358C228.098 107.443 228.176 107.543 228.229 107.657C228.286 107.772 228.322 107.886 228.339 108L227.886 108.11C227.866 107.914 227.786 107.761 227.647 107.651C227.513 107.541 227.335 107.486 227.115 107.486C227.029 107.486 226.946 107.496 226.864 107.517C226.787 107.533 226.717 107.56 226.656 107.596C226.595 107.633 226.546 107.68 226.509 107.737C226.473 107.79 226.454 107.853 226.454 107.927ZM230.332 108.404H230.436L231.592 107.144H232.179V107.18L230.919 108.569V108.679L232.326 110.142V110.178H231.739L230.448 108.844H230.332V110.178H229.854V105.895H230.332V108.404ZM238.362 109.787C238.537 109.787 238.686 109.758 238.809 109.701C238.935 109.64 239.037 109.56 239.114 109.462C239.196 109.36 239.255 109.246 239.292 109.12C239.333 108.989 239.353 108.853 239.353 108.71V108.636H239.867V108.71C239.867 108.926 239.834 109.13 239.769 109.322C239.704 109.509 239.608 109.674 239.482 109.817C239.355 109.956 239.198 110.066 239.01 110.148C238.823 110.225 238.607 110.264 238.362 110.264C237.889 110.264 237.52 110.115 237.254 109.817C236.989 109.519 236.857 109.085 236.857 108.514V107.56C236.857 107.005 236.989 106.575 237.254 106.269C237.52 105.963 237.889 105.81 238.362 105.81C238.607 105.81 238.823 105.851 239.01 105.932C239.198 106.01 239.355 106.12 239.482 106.262C239.608 106.401 239.704 106.566 239.769 106.758C239.834 106.946 239.867 107.148 239.867 107.364V107.437H239.353V107.364C239.349 107.225 239.327 107.091 239.286 106.96C239.249 106.829 239.19 106.715 239.108 106.617C239.031 106.515 238.931 106.436 238.809 106.379C238.686 106.318 238.537 106.287 238.362 106.287C238.032 106.287 237.783 106.407 237.615 106.648C237.452 106.889 237.371 107.205 237.371 107.596V108.477C237.371 108.897 237.452 109.222 237.615 109.45C237.783 109.674 238.032 109.787 238.362 109.787Z" fill="white"/>
<rect opacity="0.2" x="217.843" y="116.794" width="42.8231" height="2.82068" rx="1.41034" fill="#D9D9D9"/>
<rect opacity="0.2" x="217.843" y="116.794" width="32.5661" height="2.82068" rx="1.41034" fill="#1ECB83"/>
<rect opacity="0.2" x="217.843" y="122.691" width="42.8231" height="2.82068" rx="1.41034" fill="#D9D9D9"/>
<rect opacity="0.2" x="217.843" y="122.691" width="23.3347" height="2.82068" rx="1.41034" fill="#1ECB83"/>
<rect x="209.509" y="139.234" width="66.1578" height="39.2331" rx="5.76958" fill="#0C0E10"/>
<rect x="209.509" y="139.234" width="66.1578" height="39.2331" rx="5.76958" stroke="url(#paint5_linear_2765_2553)" stroke-width="0.256426"/>
<path d="M218.21 149.772H221.22V150.25H219.972V154.055H219.458V150.25H218.21V149.772ZM224.302 153.541H224.229C224.131 153.745 223.994 153.896 223.819 153.994C223.647 154.092 223.466 154.141 223.274 154.141C223.074 154.141 222.889 154.108 222.718 154.043C222.546 153.974 222.395 153.874 222.265 153.743C222.138 153.609 222.038 153.445 221.965 153.254C221.892 153.062 221.855 152.84 221.855 152.587V152.489C221.855 152.24 221.892 152.02 221.965 151.828C222.038 151.636 222.138 151.475 222.265 151.345C222.395 151.21 222.546 151.108 222.718 151.039C222.889 150.97 223.07 150.935 223.262 150.935C223.47 150.935 223.658 150.982 223.825 151.076C223.996 151.165 224.131 151.306 224.229 151.498H224.302V151.02H224.779V153.431C224.779 153.553 224.834 153.615 224.945 153.615H225.098V154.055H224.773C224.635 154.055 224.52 154.01 224.431 153.921C224.345 153.831 224.302 153.717 224.302 153.578V153.541ZM223.323 153.688C223.466 153.688 223.597 153.662 223.715 153.609C223.837 153.556 223.941 153.48 224.027 153.382C224.112 153.284 224.18 153.168 224.229 153.033C224.278 152.895 224.302 152.742 224.302 152.575V152.501C224.302 152.338 224.278 152.189 224.229 152.054C224.18 151.916 224.11 151.798 224.021 151.7C223.935 151.602 223.831 151.526 223.709 151.473C223.59 151.416 223.462 151.388 223.323 151.388C223.18 151.388 223.05 151.414 222.932 151.467C222.813 151.52 222.709 151.596 222.62 151.694C222.534 151.787 222.467 151.904 222.418 152.042C222.369 152.177 222.344 152.326 222.344 152.489V152.587C222.344 152.933 222.434 153.205 222.613 153.401C222.797 153.592 223.034 153.688 223.323 153.688ZM226.454 151.804C226.454 151.95 226.515 152.063 226.638 152.14C226.764 152.218 226.993 152.269 227.323 152.293C227.678 152.322 227.947 152.407 228.131 152.55C228.318 152.689 228.412 152.893 228.412 153.162V153.199C228.412 153.345 228.382 153.478 228.32 153.596C228.263 153.711 228.182 153.808 228.076 153.89C227.974 153.972 227.847 154.033 227.696 154.074C227.549 154.118 227.388 154.141 227.213 154.141C226.976 154.141 226.772 154.11 226.601 154.049C226.434 153.984 226.293 153.9 226.179 153.798C226.069 153.692 225.985 153.574 225.928 153.443C225.871 153.309 225.838 153.174 225.83 153.04L226.283 152.929C226.303 153.162 226.393 153.35 226.552 153.492C226.711 153.631 226.923 153.7 227.188 153.7C227.413 153.7 227.592 153.657 227.727 153.572C227.866 153.482 227.935 153.358 227.935 153.199C227.935 153.027 227.868 152.905 227.733 152.832C227.598 152.758 227.38 152.711 227.078 152.691C226.728 152.666 226.458 152.585 226.271 152.446C226.083 152.307 225.989 152.105 225.989 151.84V151.804C225.989 151.661 226.02 151.536 226.081 151.43C226.142 151.32 226.224 151.229 226.326 151.155C226.432 151.082 226.55 151.027 226.681 150.99C226.811 150.953 226.948 150.935 227.091 150.935C227.29 150.935 227.466 150.963 227.617 151.02C227.768 151.074 227.894 151.145 227.996 151.235C228.098 151.32 228.176 151.42 228.229 151.534C228.286 151.649 228.322 151.763 228.339 151.877L227.886 151.987C227.866 151.791 227.786 151.638 227.647 151.528C227.513 151.418 227.335 151.363 227.115 151.363C227.029 151.363 226.946 151.373 226.864 151.394C226.787 151.41 226.717 151.437 226.656 151.473C226.595 151.51 226.546 151.557 226.509 151.614C226.473 151.667 226.454 151.73 226.454 151.804ZM230.332 152.281H230.436L231.592 151.02H232.179V151.057L230.919 152.446V152.556L232.326 154.018V154.055H231.739L230.448 152.721H230.332V154.055H229.854V149.772H230.332V152.281ZM238.362 153.664C238.537 153.664 238.686 153.635 238.809 153.578C238.935 153.517 239.037 153.437 239.114 153.339C239.196 153.237 239.255 153.123 239.292 152.997C239.333 152.866 239.353 152.73 239.353 152.587V152.513H239.867V152.587C239.867 152.803 239.834 153.007 239.769 153.199C239.704 153.386 239.608 153.551 239.482 153.694C239.355 153.833 239.198 153.943 239.01 154.025C238.823 154.102 238.607 154.141 238.362 154.141C237.889 154.141 237.52 153.992 237.254 153.694C236.989 153.396 236.857 152.962 236.857 152.391V151.437C236.857 150.882 236.989 150.451 237.254 150.146C237.52 149.84 237.889 149.687 238.362 149.687C238.607 149.687 238.823 149.727 239.01 149.809C239.198 149.887 239.355 149.997 239.482 150.139C239.608 150.278 239.704 150.443 239.769 150.635C239.834 150.823 239.867 151.025 239.867 151.241V151.314H239.353V151.241C239.349 151.102 239.327 150.967 239.286 150.837C239.249 150.706 239.19 150.592 239.108 150.494C239.031 150.392 238.931 150.313 238.809 150.256C238.686 150.195 238.537 150.164 238.362 150.164C238.032 150.164 237.783 150.284 237.615 150.525C237.452 150.766 237.371 151.082 237.371 151.473V152.354C237.371 152.774 237.452 153.099 237.615 153.327C237.783 153.551 238.032 153.664 238.362 153.664Z" fill="white"/>
<rect opacity="0.2" x="217.843" y="160.671" width="42.8231" height="2.82068" rx="1.41034" fill="#D9D9D9"/>
<rect opacity="0.2" x="217.843" y="160.671" width="32.5661" height="2.82068" rx="1.41034" fill="#1ECB83"/>
<rect opacity="0.2" x="217.843" y="166.569" width="42.8231" height="2.82068" rx="1.41034" fill="#D9D9D9"/>
<rect opacity="0.2" x="217.843" y="166.569" width="23.3347" height="2.82068" rx="1.41034" fill="#1ECB83"/>
<rect x="-25.5843" y="116.003" width="43.1731" height="25.6026" rx="3.76509" fill="#0C0E10"/>
<rect x="-25.5843" y="116.003" width="43.1731" height="25.6026" rx="3.76509" stroke="url(#paint6_linear_2765_2553)" stroke-width="0.167338"/>
<rect opacity="0.2" x="-20.1455" y="130.119" width="27.9454" height="1.84071" rx="0.920357" fill="#D9D9D9"/>
<rect opacity="0.2" x="-20.1455" y="130.119" width="21.2519" height="1.84071" rx="0.920357" fill="#1ECB83"/>
<rect opacity="0.2" x="-20.1455" y="133.968" width="27.9454" height="1.84071" rx="0.920357" fill="#D9D9D9"/>
<rect x="319.37" y="116.003" width="43.1731" height="25.6026" rx="3.76509" fill="#0C0E10"/>
<rect x="319.37" y="116.003" width="43.1731" height="25.6026" rx="3.76509" stroke="url(#paint7_linear_2765_2553)" stroke-width="0.167338"/>
<path d="M325.048 123.312H327.013V123.624H326.198V126.107H325.863V123.624H325.048V123.312ZM329.024 125.772H328.976C328.912 125.905 328.823 126.003 328.708 126.067C328.597 126.131 328.478 126.163 328.353 126.163C328.223 126.163 328.102 126.142 327.99 126.099C327.878 126.054 327.779 125.989 327.694 125.904C327.612 125.816 327.547 125.709 327.499 125.584C327.451 125.459 327.427 125.314 327.427 125.149V125.085C327.427 124.923 327.451 124.779 327.499 124.654C327.547 124.529 327.612 124.424 327.694 124.338C327.779 124.251 327.878 124.184 327.99 124.139C328.102 124.094 328.22 124.071 328.345 124.071C328.481 124.071 328.603 124.102 328.712 124.163C328.824 124.221 328.912 124.313 328.976 124.438H329.024V124.127H329.335V125.7C329.335 125.78 329.371 125.82 329.443 125.82H329.543V126.107H329.331C329.241 126.107 329.166 126.078 329.108 126.019C329.052 125.961 329.024 125.886 329.024 125.796V125.772ZM328.385 125.868C328.478 125.868 328.563 125.85 328.641 125.816C328.72 125.781 328.788 125.732 328.844 125.668C328.9 125.604 328.944 125.528 328.976 125.44C329.008 125.35 329.024 125.25 329.024 125.141V125.093C329.024 124.987 329.008 124.889 328.976 124.802C328.944 124.711 328.899 124.634 328.84 124.57C328.784 124.506 328.716 124.457 328.637 124.422C328.559 124.385 328.476 124.366 328.385 124.366C328.292 124.366 328.207 124.384 328.129 124.418C328.052 124.453 327.984 124.502 327.926 124.566C327.87 124.627 327.826 124.703 327.794 124.794C327.762 124.881 327.746 124.979 327.746 125.085V125.149C327.746 125.375 327.805 125.552 327.922 125.68C328.042 125.805 328.196 125.868 328.385 125.868ZM330.428 124.638C330.428 124.734 330.468 124.807 330.548 124.857C330.631 124.908 330.78 124.941 330.995 124.957C331.227 124.976 331.402 125.032 331.522 125.125C331.645 125.215 331.706 125.349 331.706 125.524V125.548C331.706 125.644 331.686 125.731 331.646 125.808C331.609 125.882 331.556 125.946 331.486 125.999C331.42 126.053 331.337 126.093 331.239 126.119C331.143 126.148 331.038 126.163 330.923 126.163C330.769 126.163 330.636 126.143 330.524 126.103C330.415 126.061 330.323 126.006 330.249 125.939C330.177 125.87 330.122 125.793 330.085 125.708C330.048 125.62 330.026 125.532 330.021 125.444L330.316 125.373C330.33 125.524 330.388 125.647 330.492 125.74C330.596 125.83 330.734 125.876 330.907 125.876C331.054 125.876 331.171 125.848 331.259 125.792C331.349 125.733 331.394 125.652 331.394 125.548C331.394 125.436 331.351 125.357 331.263 125.309C331.175 125.261 331.032 125.23 330.835 125.217C330.607 125.201 330.431 125.148 330.308 125.057C330.186 124.967 330.125 124.835 330.125 124.662V124.638C330.125 124.545 330.145 124.464 330.185 124.394C330.225 124.322 330.278 124.263 330.344 124.215C330.414 124.167 330.491 124.131 330.576 124.107C330.661 124.083 330.75 124.071 330.843 124.071C330.974 124.071 331.088 124.09 331.187 124.127C331.285 124.161 331.368 124.208 331.434 124.267C331.501 124.322 331.552 124.388 331.586 124.462C331.623 124.537 331.647 124.611 331.658 124.686L331.363 124.758C331.349 124.63 331.297 124.53 331.207 124.458C331.119 124.386 331.003 124.35 330.859 124.35C330.804 124.35 330.749 124.357 330.696 124.37C330.645 124.381 330.6 124.398 330.56 124.422C330.52 124.446 330.488 124.477 330.464 124.514C330.44 124.549 330.428 124.59 330.428 124.638ZM332.959 124.949H333.026L333.781 124.127H334.164V124.151L333.342 125.057V125.129L334.26 126.083V126.107H333.877L333.034 125.237H332.959V126.107H332.647V123.312H332.959V124.949ZM338.782 125.412H337.584L337.38 126.107H337.021L337.868 123.312H338.498L339.345 126.107H338.985L338.782 125.412ZM338.159 123.456L337.676 125.101H338.69L338.207 123.456H338.159Z" fill="white"/>
<rect opacity="0.2" x="324.809" y="130.119" width="27.9454" height="1.84071" rx="0.920357" fill="#D9D9D9"/>
<rect opacity="0.2" x="324.809" y="130.119" width="21.2519" height="1.84071" rx="0.920357" fill="#1ECB83"/>
<rect opacity="0.2" x="324.809" y="133.968" width="27.9454" height="1.84071" rx="0.920357" fill="#D9D9D9"/>
<rect opacity="0.2" x="324.809" y="133.968" width="15.2277" height="1.84071" rx="0.920357" fill="#1ECB83"/>
<path d="M99.9307 50.4669V43.3909C99.9307 38.5059 103.891 34.5459 108.776 34.5459H231.721C236.606 34.5459 240.566 38.5059 240.566 43.3909V50.4669" stroke="url(#paint8_linear_2765_2553)" stroke-width="1.769"/>
<path d="M-4.44043 115.478V43.3909C-4.44043 38.5059 -0.480394 34.5459 4.40456 34.5459H83.1249C88.0099 34.5459 91.9699 38.5059 91.9699 43.3909V50.4669" stroke="url(#paint9_linear_2765_2553)" stroke-width="1.769"/>
<path d="M342.283 115.478V43.3909C342.283 38.5059 338.323 34.5459 333.438 34.5459H254.718C249.833 34.5459 245.873 38.5059 245.873 43.3909V50.4669" stroke="url(#paint10_linear_2765_2553)" stroke-width="1.769"/>
<path d="M164.941 15.0869V32.7769" stroke="url(#paint11_linear_2765_2553)" stroke-width="1.769"/>
<path d="M156.1 15.0869L173.79 15.0869" stroke="url(#paint12_linear_2765_2553)" stroke-width="1.769"/>
</g>
<defs>
<linearGradient id="paint0_linear_2765_2553" x1="102.181" y1="51.3513" x2="102.181" y2="90.8409" gradientUnits="userSpaceOnUse">
<stop stop-color="#3B3E48"/>
<stop offset="1" stop-color="#666666"/>
</linearGradient>
<linearGradient id="paint1_linear_2765_2553" x1="102.181" y1="96.4824" x2="102.181" y2="135.972" gradientUnits="userSpaceOnUse">
<stop stop-color="#3B3E48"/>
<stop offset="1" stop-color="#666666"/>
</linearGradient>
<linearGradient id="paint2_linear_2765_2553" x1="172.384" y1="51.3513" x2="172.384" y2="90.8409" gradientUnits="userSpaceOnUse">
<stop stop-color="#3B3E48"/>
<stop offset="1" stop-color="#666666"/>
</linearGradient>
<linearGradient id="paint3_linear_2765_2553" x1="242.588" y1="51.3513" x2="242.588" y2="90.8409" gradientUnits="userSpaceOnUse">
<stop stop-color="#3B3E48"/>
<stop offset="1" stop-color="#666666"/>
</linearGradient>
<linearGradient id="paint4_linear_2765_2553" x1="242.588" y1="95.2288" x2="242.588" y2="134.718" gradientUnits="userSpaceOnUse">
<stop stop-color="#3B3E48"/>
<stop offset="1" stop-color="#666666"/>
</linearGradient>
<linearGradient id="paint5_linear_2765_2553" x1="242.588" y1="139.106" x2="242.588" y2="178.596" gradientUnits="userSpaceOnUse">
<stop stop-color="#3B3E48"/>
<stop offset="1" stop-color="#666666"/>
</linearGradient>
<linearGradient id="paint6_linear_2765_2553" x1="-3.99776" y1="115.92" x2="-3.99776" y2="141.69" gradientUnits="userSpaceOnUse">
<stop stop-color="#3B3E48"/>
<stop offset="1" stop-color="#666666"/>
</linearGradient>
<linearGradient id="paint7_linear_2765_2553" x1="340.956" y1="115.92" x2="340.956" y2="141.69" gradientUnits="userSpaceOnUse">
<stop stop-color="#3B3E48"/>
<stop offset="1" stop-color="#666666"/>
</linearGradient>
<linearGradient id="paint8_linear_2765_2553" x1="170.248" y1="34.5459" x2="170.248" y2="50.4669" gradientUnits="userSpaceOnUse">
<stop stop-color="#30EDE6"/>
<stop offset="1" stop-color="#666666"/>
</linearGradient>
<linearGradient id="paint9_linear_2765_2553" x1="65.8772" y1="34.5459" x2="65.8772" y2="50.4669" gradientUnits="userSpaceOnUse">
<stop stop-color="#30EDE6"/>
<stop offset="1" stop-color="#666666"/>
</linearGradient>
<linearGradient id="paint10_linear_2765_2553" x1="271.966" y1="34.5459" x2="271.966" y2="50.4669" gradientUnits="userSpaceOnUse">
<stop stop-color="#30EDE6"/>
<stop offset="1" stop-color="#666666"/>
</linearGradient>
<linearGradient id="paint11_linear_2765_2553" x1="165.441" y1="15.0869" x2="165.441" y2="32.7769" gradientUnits="userSpaceOnUse">
<stop stop-color="#30EDE6"/>
<stop offset="1" stop-color="#666666"/>
</linearGradient>
<linearGradient id="paint12_linear_2765_2553" x1="156.1" y1="14.5869" x2="173.79" y2="14.5869" gradientUnits="userSpaceOnUse">
<stop stop-color="#30EDE6"/>
<stop offset="1" stop-color="#666666"/>
</linearGradient>
<clipPath id="clip0_2765_2553">
<rect width="340" height="258" fill="white"/>
</clipPath>
</defs>
</svg>
