<svg width="340" height="258" viewBox="0 0 340 258" fill="none" xmlns="http://www.w3.org/2000/svg">
<rect x="4.23012" y="63.3539" width="117.819" height="33.5968" rx="5.29265" fill="#EFEFEF" stroke="url(#paint0_linear_2765_3008)" stroke-width="0.46023"/>
<rect x="7.45179" y="66.5753" width="27.6138" height="27.1535" rx="3.91196" fill="#30EDE6" fill-opacity="0.2" stroke="url(#paint1_linear_2765_3008)" stroke-width="0.46023"/>
<path d="M48.5321 83.9786C47.3613 83.9786 46.474 83.6583 45.8701 83.0177C45.2737 82.377 44.9754 81.5118 44.9754 80.422C44.9754 79.6414 45.1006 78.9713 45.351 78.4117C45.6087 77.8447 45.999 77.4102 46.5218 77.1083C47.0446 76.799 47.7111 76.6444 48.5211 76.6444C48.9334 76.6444 49.309 76.6775 49.6477 76.7438C49.9938 76.8027 50.3141 76.8837 50.6087 76.9868V78.0361C50.3141 77.9183 49.9975 77.8299 49.6587 77.771C49.3274 77.7048 48.9776 77.6716 48.6094 77.6716C47.7258 77.6716 47.0999 77.9073 46.7317 78.3785C46.3709 78.8498 46.1905 79.531 46.1905 80.422C46.1905 81.2541 46.3893 81.8873 46.7869 82.3218C47.1846 82.7489 47.7994 82.9624 48.6315 82.9624C48.9702 82.9624 49.309 82.9367 49.6477 82.8851C49.9938 82.8262 50.3178 82.7378 50.6197 82.62V83.6804C50.3252 83.7761 50.0048 83.8498 49.6587 83.9013C49.32 83.9528 48.9445 83.9786 48.5321 83.9786ZM54.2229 83.9786C53.2803 83.9786 52.5881 83.743 52.1463 83.2717C51.7119 82.8004 51.4946 82.1267 51.4946 81.2504C51.4946 80.3741 51.7155 79.7003 52.1574 79.229C52.5992 78.7578 53.2877 78.5221 54.2229 78.5221C55.1654 78.5221 55.8576 78.7578 56.2994 79.229C56.7413 79.7003 56.9622 80.3741 56.9622 81.2504C56.9622 82.1267 56.7413 82.8004 56.2994 83.2717C55.865 83.743 55.1728 83.9786 54.2229 83.9786ZM54.2229 82.9624C54.7751 82.9624 55.1654 82.8299 55.3937 82.5648C55.6293 82.2923 55.7472 81.8542 55.7472 81.2504C55.7472 80.6466 55.6293 80.2121 55.3937 79.947C55.1654 79.6819 54.7751 79.5494 54.2229 79.5494C53.678 79.5494 53.2877 79.6819 53.052 79.947C52.8238 80.2121 52.7096 80.6466 52.7096 81.2504C52.7096 81.8542 52.8238 82.2923 53.052 82.5648C53.2877 82.8299 53.678 82.9624 54.2229 82.9624ZM58.0945 83.8682V78.6326H59.199L59.2543 79.1849C59.512 78.9787 59.7955 78.8167 60.1048 78.6989C60.4141 78.581 60.7454 78.5221 61.0989 78.5221C61.4744 78.5221 61.7653 78.5847 61.9715 78.7099C62.185 78.8277 62.347 78.9934 62.4575 79.207C62.7005 79.0081 62.9803 78.8461 63.2969 78.7209C63.6136 78.5884 63.9928 78.5221 64.4346 78.5221C65.0384 78.5221 65.484 78.6768 65.7711 78.986C66.0583 79.2953 66.2019 79.7703 66.2019 80.4109V83.8682H65.02V80.5324C65.02 80.1274 64.9354 79.8439 64.766 79.6819C64.5966 79.5199 64.3205 79.4389 63.9376 79.4389C63.6872 79.4389 63.4479 79.4831 63.2196 79.5715C62.9987 79.6598 62.8073 79.7924 62.6453 79.9691C62.6673 80.0501 62.6821 80.1348 62.6894 80.2231C62.6968 80.3115 62.7005 80.4072 62.7005 80.5103V83.8682H61.5849V80.5435C61.5849 80.1605 61.5186 79.8807 61.3861 79.704C61.2535 79.5273 61.0032 79.4389 60.635 79.4389C60.3772 79.4389 60.1306 79.5015 59.8949 79.6267C59.6666 79.7445 59.4605 79.8881 59.2764 80.0575V83.8682H58.0945ZM67.5153 86.254V78.6326H68.5536L68.6198 79.1517C68.8555 78.9382 69.1132 78.7799 69.393 78.6768C69.6728 78.5737 70.0042 78.5221 70.3871 78.5221C71.1382 78.5221 71.7236 78.7283 72.1434 79.1407C72.5631 79.5457 72.773 80.2195 72.773 81.162C72.773 82.1046 72.5557 82.8115 72.1213 83.2828C71.6868 83.7467 71.094 83.9786 70.3429 83.9786C69.7097 83.9786 69.1684 83.8313 68.7192 83.5368V86.254H67.5153ZM70.0337 83.0729C71.0499 83.0729 71.5579 82.4322 71.5579 81.151C71.5579 80.5324 71.4438 80.0943 71.2155 79.8365C70.9873 79.5715 70.6043 79.4389 70.0668 79.4389C69.5293 79.4389 69.0801 79.623 68.7192 79.9912V82.609C68.8886 82.7489 69.0764 82.863 69.2826 82.9514C69.4961 83.0324 69.7465 83.0729 70.0337 83.0729ZM75.2084 83.9786C74.7813 83.9786 74.4573 83.8755 74.2364 83.6693C74.0155 83.4558 73.905 83.106 73.905 82.62V76.4235H75.109V82.5096C75.109 82.7157 75.1458 82.8557 75.2194 82.9293C75.2931 83.0029 75.4035 83.0397 75.5508 83.0397C75.7275 83.0397 75.8969 83.0177 76.0589 82.9735V83.8461C75.919 83.8976 75.7828 83.9308 75.6502 83.9455C75.525 83.9676 75.3778 83.9786 75.2084 83.9786ZM79.6126 83.9786C78.6995 83.9786 77.9926 83.754 77.4919 83.3048C76.9912 82.8557 76.7408 82.1672 76.7408 81.2393C76.7408 80.3999 76.9543 79.7371 77.3814 79.2511C77.8085 78.7651 78.4565 78.5221 79.3254 78.5221C80.1207 78.5221 80.7172 78.732 81.1148 79.1517C81.5198 79.5641 81.7223 80.098 81.7223 80.7533V81.7253H77.8895C77.9484 82.2334 78.1325 82.5832 78.4418 82.7747C78.7511 82.9661 79.2223 83.0618 79.8556 83.0618C80.1207 83.0618 80.3932 83.0361 80.673 82.9845C80.9528 82.933 81.1958 82.8667 81.402 82.7857V83.6693C81.1664 83.7724 80.8939 83.8498 80.5846 83.9013C80.2827 83.9528 79.9587 83.9786 79.6126 83.9786ZM77.8895 80.9411H80.6619V80.5766C80.6619 80.2158 80.5625 79.936 80.3637 79.7371C80.1649 79.531 79.8299 79.4279 79.3586 79.4279C78.7989 79.4279 78.4123 79.5494 78.1988 79.7924C77.9926 80.0354 77.8895 80.4183 77.8895 80.9411ZM81.9946 83.8682L83.9938 81.2062L82.0719 78.6326H83.3642L84.6455 80.3778L85.9268 78.6326H87.2191L85.3082 81.2062L87.2964 83.8682H85.993L84.6455 82.0457L83.2979 83.8682H81.9946ZM88.3385 77.5391V76.545H89.6529V77.5391H88.3385ZM88.4379 83.8682V79.5494H87.6426L87.7531 78.6326H89.6419V83.8682H88.4379ZM93.0065 83.9786C92.4469 83.9786 92.0271 83.8313 91.7473 83.5368C91.4749 83.2349 91.3386 82.8262 91.3386 82.3107V79.5715H90.5654V78.6326H91.3386V77.4286L92.5315 77.0641V78.6326H93.9233L93.846 79.5715H92.5315V82.2445C92.5315 82.5464 92.6015 82.7599 92.7414 82.8851C92.8813 83.0029 93.1096 83.0618 93.4262 83.0618C93.6251 83.0618 93.8349 83.025 94.0558 82.9514V83.8019C93.7686 83.9197 93.4189 83.9786 93.0065 83.9786ZM95.6233 85.8122C95.2257 85.8122 94.887 85.7606 94.6071 85.6575V84.7629C94.7323 84.807 94.8465 84.8365 94.9496 84.8512C95.06 84.8659 95.1705 84.8733 95.2809 84.8733C95.5092 84.8733 95.6933 84.8365 95.8332 84.7629C95.9731 84.6892 96.0946 84.5714 96.1977 84.4094C96.3082 84.2548 96.426 84.0523 96.5512 83.8019L94.2206 78.6326H95.4687L97.1476 82.5206L98.8486 78.6326H100.086L97.9539 83.5699C97.7699 84.0118 97.571 84.3983 97.3575 84.7297C97.1513 85.0684 96.9083 85.3335 96.6285 85.525C96.356 85.7164 96.021 85.8122 95.6233 85.8122ZM102.009 82.0788V81.8358C102.009 81.5412 102.072 81.2872 102.197 81.0736C102.322 80.8601 102.477 80.6686 102.661 80.4993C102.852 80.3299 103.044 80.1679 103.235 80.0133C103.471 79.8218 103.669 79.634 103.831 79.45C103.993 79.2585 104.074 79.0265 104.074 78.7541C104.074 78.3638 103.96 78.0877 103.732 77.9257C103.504 77.7563 103.102 77.6716 102.528 77.6716C102.219 77.6716 101.91 77.7121 101.6 77.7931C101.291 77.8668 101.019 77.9588 100.783 78.0693V77.0531C101.033 76.9279 101.335 76.8285 101.689 76.7548C102.049 76.6812 102.432 76.6444 102.837 76.6444C103.647 76.6444 104.259 76.8248 104.671 77.1856C105.083 77.5391 105.289 78.0324 105.289 78.6657C105.289 79.0781 105.19 79.4131 104.991 79.6709C104.8 79.9212 104.542 80.179 104.218 80.4441C104.019 80.6134 103.842 80.7644 103.688 80.8969C103.541 81.0295 103.423 81.1731 103.334 81.3277C103.253 81.475 103.213 81.6627 103.213 81.891V82.0788H102.009ZM101.965 83.8682V82.9624H103.246V83.8682H101.965Z" fill="#404040"/>
<path d="M26.6612 73.709H15.8558C15.6409 73.709 15.4348 73.7944 15.2828 73.9463C15.1308 74.0983 15.0454 74.3045 15.0454 74.5194V85.3248C15.0454 85.5397 15.1308 85.7458 15.2828 85.8978C15.4348 86.0498 15.6409 86.1352 15.8558 86.1352H26.6612C26.8761 86.1352 27.0823 86.0498 27.2342 85.8978C27.3862 85.7458 27.4716 85.5397 27.4716 85.3248V74.5194C27.4716 74.3045 27.3862 74.0983 27.2342 73.9463C27.0823 73.7944 26.8761 73.709 26.6612 73.709ZM18.5572 81.813C18.7174 81.813 18.8741 81.8606 19.0074 81.9496C19.1407 82.0387 19.2445 82.1652 19.3059 82.3133C19.3672 82.4614 19.3833 82.6243 19.352 82.7815C19.3207 82.9387 19.2435 83.0831 19.1302 83.1965C19.0169 83.3098 18.8725 83.387 18.7153 83.4183C18.5581 83.4495 18.3951 83.4335 18.247 83.3721C18.099 83.3108 17.9724 83.2069 17.8833 83.0737C17.7943 82.9404 17.7468 82.7837 17.7468 82.6234C17.7468 82.4085 17.8321 82.2024 17.9841 82.0504C18.1361 81.8984 18.3422 81.813 18.5572 81.813ZM15.5857 85.3248V74.5194C15.5857 74.4477 15.6141 74.379 15.6648 74.3284C15.7155 74.2777 15.7842 74.2493 15.8558 74.2493H18.287V81.2998C17.9591 81.3667 17.6677 81.553 17.4693 81.8226C17.2709 82.0922 17.1797 82.4259 17.2133 82.7589C17.247 83.0919 17.4031 83.4006 17.6514 83.6251C17.8996 83.8495 18.2224 83.9738 18.5572 83.9738C18.8919 83.9738 19.2147 83.8495 19.463 83.6251C19.7113 83.4006 19.8674 83.0919 19.901 82.7589C19.9346 82.4259 19.8434 82.0922 19.645 81.8226C19.4467 81.553 19.1553 81.3667 18.8273 81.2998V78.4134L22.6092 82.1953V85.5949H15.8558C15.7842 85.5949 15.7155 85.5665 15.6648 85.5158C15.6141 85.4651 15.5857 85.3964 15.5857 85.3248ZM26.9313 85.3248C26.9313 85.3964 26.9029 85.4651 26.8522 85.5158C26.8016 85.5665 26.7328 85.5949 26.6612 85.5949H23.1495V82.0832C23.1495 82.0477 23.1425 82.0125 23.129 81.9797C23.1154 81.9469 23.0955 81.9171 23.0704 81.892L18.8273 77.6489V74.2493H21.5286V76.1402C21.5286 76.1757 21.5356 76.2108 21.5491 76.2436C21.5627 76.2764 21.5826 76.3062 21.6077 76.3313L22.8341 77.5584C22.6497 77.8377 22.5755 78.1755 22.626 78.5063C22.6764 78.8371 22.8479 79.1375 23.1072 79.3491C23.3665 79.5607 23.6951 79.6685 24.0293 79.6516C24.3636 79.6347 24.6796 79.4943 24.9163 79.2577C25.1529 79.0211 25.2933 78.705 25.3102 78.3708C25.327 78.0365 25.2192 77.7079 25.0076 77.4486C24.796 77.1894 24.4957 77.0179 24.1649 76.9674C23.8341 76.9169 23.4963 76.9911 23.217 77.1755L22.0689 76.0274V74.2493H26.6612C26.7328 74.2493 26.8016 74.2777 26.8522 74.3284C26.9029 74.379 26.9313 74.4477 26.9313 74.5194V85.3248ZM23.9599 77.4909C24.1201 77.4909 24.2768 77.5384 24.4101 77.6274C24.5434 77.7165 24.6472 77.8431 24.7086 77.9911C24.7699 78.1392 24.786 78.3022 24.7547 78.4594C24.7234 78.6166 24.6462 78.761 24.5329 78.8743C24.4196 78.9877 24.2752 79.0648 24.118 79.0961C23.9608 79.1274 23.7978 79.1113 23.6497 79.05C23.5016 78.9887 23.3751 78.8848 23.286 78.7515C23.197 78.6182 23.1495 78.4616 23.1495 78.3013C23.1495 78.0863 23.2348 77.8802 23.3868 77.7282C23.5388 77.5763 23.7449 77.4909 23.9599 77.4909Z" fill="url(#paint2_linear_2765_3008)"/>
<path d="M122.049 81.533H152.424C162.592 81.533 170.834 89.775 170.834 99.9422V121.743C170.834 131.911 179.076 140.153 189.243 140.153H222.609" stroke="url(#paint3_linear_2765_3008)" stroke-width="0.920461"/>
<path d="M266.331 147.886H282.128L292.047 147.886" stroke="url(#paint4_linear_2765_3008)" stroke-width="0.920461"/>
<path opacity="0.2" d="M117.961 166.305H157.542C161.96 166.305 165.541 162.724 165.541 158.306V158.306C165.541 153.889 169.122 150.308 173.539 150.308H221.919" stroke="url(#paint5_linear_2765_3008)" stroke-width="0.920461"/>
<path opacity="0.2" d="M136.216 123.594H155.316C160.963 123.594 165.541 128.172 165.541 133.819V133.819C165.541 139.466 170.119 144.044 175.766 144.044H221.919" stroke="url(#paint6_linear_2765_3008)" stroke-width="0.920461"/>
<path d="M242.398 122.953C255.488 122.953 266.1 133.564 266.101 146.654C266.101 159.744 255.489 170.356 242.398 170.356C229.308 170.356 218.697 159.744 218.697 146.654C218.697 133.564 229.309 122.953 242.398 122.953Z" fill="#018284" stroke="url(#paint7_linear_2765_3008)" stroke-width="0.46023"/>
<path d="M254.135 145.407V147.734C253.236 147.734 252.504 148.467 252.504 149.37V153.119C252.504 155.139 250.864 156.779 248.85 156.779H243.772L245.166 154.452H248.85C249.584 154.452 250.181 153.854 250.181 153.119V149.37C250.181 148.276 250.625 147.29 251.338 146.571C250.625 145.854 250.181 144.865 250.181 143.774V139.968C250.181 139.235 249.584 138.637 248.85 138.637H244.996C244.262 138.637 243.665 139.235 243.665 139.968L243.665 145.407H247.085V147.734H243.665V153.119C243.665 155.139 242.028 156.779 240.014 156.779H236.16C234.146 156.779 232.506 155.139 232.506 153.119V149.37C232.506 148.467 231.774 147.734 230.875 147.734V145.407C231.774 145.407 232.506 144.675 232.506 143.774L232.506 139.968C232.506 137.951 234.146 136.31 236.16 136.31H241.238L239.844 138.637H236.16C235.426 138.637 234.829 139.235 234.829 139.968L234.829 143.774C234.829 144.865 234.385 145.854 233.672 146.571C234.385 147.29 234.829 148.276 234.829 149.37V153.119C234.829 153.854 235.426 154.452 236.16 154.452H240.014C240.745 154.452 241.342 153.854 241.342 153.119L241.342 139.968C241.342 137.951 242.982 136.31 244.996 136.31H248.85C250.864 136.31 252.504 137.951 252.504 139.968L252.504 143.774C252.504 144.675 253.236 145.407 254.135 145.407Z" fill="white"/>
<rect x="4.23012" y="107.536" width="132.086" height="33.5968" rx="5.29265" fill="#EFEFEF" stroke="url(#paint8_linear_2765_3008)" stroke-width="0.46023"/>
<rect opacity="0.5" x="7.45179" y="110.757" width="27.6138" height="27.1535" rx="3.91196" fill="#30EDE6" fill-opacity="0.2" stroke="url(#paint9_linear_2765_3008)" stroke-width="0.46023"/>
<path opacity="0.8" d="M49.3716 129.95C48.8119 129.95 48.4032 129.792 48.1455 129.475C47.8878 129.158 47.7516 128.709 47.7368 128.127C46.8164 128.024 46.1242 127.682 45.6603 127.1C45.2037 126.511 44.9754 125.649 44.9754 124.515C44.9754 123.219 45.2553 122.281 45.8149 121.699C46.3745 121.117 47.2177 120.826 48.3443 120.826C49.4783 120.826 50.3215 121.117 50.8738 121.699C51.4334 122.281 51.7132 123.219 51.7132 124.515C51.7132 125.672 51.4702 126.544 50.9842 127.133C50.5056 127.722 49.7803 128.057 48.8082 128.138C48.8156 128.477 48.8782 128.709 48.996 128.834C49.1212 128.967 49.3311 129.033 49.6256 129.033C49.8907 129.033 50.1521 128.996 50.4098 128.923V129.817C50.292 129.854 50.1374 129.884 49.9459 129.906C49.7545 129.935 49.563 129.95 49.3716 129.95ZM48.3443 127.144C49.0881 127.144 49.633 126.942 49.9791 126.537C50.3325 126.124 50.5093 125.451 50.5093 124.515C50.5093 123.529 50.3325 122.84 49.9791 122.45C49.633 122.052 49.0881 121.854 48.3443 121.854C47.608 121.854 47.0631 122.052 46.7096 122.45C46.3635 122.84 46.1905 123.529 46.1905 124.515C46.1905 125.451 46.3635 126.124 46.7096 126.537C47.0631 126.942 47.608 127.144 48.3443 127.144ZM54.7477 128.161C54.1218 128.161 53.6395 127.987 53.3007 127.641C52.9694 127.295 52.8037 126.787 52.8037 126.117V122.814H54.0077V126.117C54.0077 126.507 54.1034 126.795 54.2948 126.979C54.4863 127.163 54.7808 127.255 55.1785 127.255C55.473 127.255 55.7455 127.2 55.9959 127.089C56.2462 126.979 56.4634 126.831 56.6475 126.647V122.814H57.8405V128.05H56.7469L56.6917 127.509C56.4561 127.693 56.1763 127.848 55.8523 127.973C55.5283 128.098 55.1601 128.161 54.7477 128.161ZM59.6473 121.721V120.727H60.9618V121.721H59.6473ZM59.7468 128.05V123.731H58.9515L59.0619 122.814H60.9507V128.05H59.7468ZM64.8897 128.161C63.9693 128.161 63.2734 127.929 62.8021 127.465C62.3308 126.993 62.0952 126.316 62.0952 125.432C62.0952 124.512 62.3529 123.827 62.8684 123.378C63.3912 122.929 64.0871 122.704 64.956 122.704C65.3168 122.704 65.6187 122.73 65.8617 122.781C66.1121 122.833 66.3514 122.914 66.5797 123.024V123.919C66.1968 123.728 65.7329 123.632 65.188 123.632C64.5841 123.632 64.1202 123.768 63.7962 124.041C63.4722 124.306 63.3102 124.77 63.3102 125.432C63.3102 126.058 63.4538 126.518 63.741 126.813C64.0282 127.1 64.5031 127.244 65.1659 127.244C65.6887 127.244 66.1636 127.144 66.5907 126.945V127.862C66.3477 127.958 66.0863 128.032 65.8065 128.083C65.5341 128.135 65.2285 128.161 64.8897 128.161ZM67.5085 128.05V120.605H68.7125V124.913L70.9106 122.814H72.2913L70.1595 124.924L72.4128 128.05H71.1425L69.4084 125.565L68.7125 126.228V128.05H67.5085ZM78.2282 128.161C77.4624 128.161 76.8475 127.995 76.3836 127.663C75.9197 127.325 75.6877 126.876 75.6877 126.316C75.6877 125.815 75.835 125.392 76.1296 125.046C76.4315 124.7 76.8402 124.387 77.3556 124.107C77.0684 123.849 76.8365 123.595 76.6597 123.345C76.4904 123.094 76.4057 122.8 76.4057 122.461C76.4057 121.997 76.5714 121.611 76.9027 121.301C77.2341 120.985 77.6907 120.826 78.2724 120.826C78.8468 120.826 79.2959 120.977 79.6199 121.279C79.9513 121.574 80.117 121.968 80.117 122.461C80.117 122.844 80.025 123.172 79.8409 123.444C79.6568 123.717 79.3622 123.985 78.9572 124.25L80.592 125.918C80.7098 125.668 80.7687 125.373 80.7687 125.035V124.847H81.6855V125.057C81.6855 125.337 81.6486 125.613 81.575 125.885C81.5014 126.15 81.402 126.382 81.2768 126.581L82.1715 127.487L81.4425 128.149L80.6472 127.354C80.3747 127.634 80.0323 127.84 79.6199 127.973C79.2076 128.098 78.7437 128.161 78.2282 128.161ZM78.2061 123.731C78.5228 123.525 78.7584 123.341 78.913 123.179C79.0677 123.017 79.145 122.796 79.145 122.516C79.145 122.259 79.075 122.056 78.9351 121.909C78.8026 121.754 78.5817 121.677 78.2724 121.677C77.9558 121.677 77.7275 121.758 77.5876 121.92C77.4477 122.082 77.3777 122.281 77.3777 122.516C77.3777 122.745 77.444 122.951 77.5765 123.135C77.7164 123.312 77.9263 123.51 78.2061 123.731ZM78.2282 127.321C78.9646 127.321 79.5279 127.111 79.9182 126.691L78.0736 124.825C77.6612 124.994 77.3519 125.197 77.1458 125.432C76.9469 125.661 76.8475 125.948 76.8475 126.294C76.8475 126.633 76.9764 126.89 77.2341 127.067C77.4918 127.236 77.8232 127.321 78.2282 127.321ZM85.7542 128.05V120.937H90.5921V121.876H86.9581V124.029H90.1834V124.957H86.9581V128.05H85.7542ZM92.5382 128.161C92.2068 128.161 91.8975 128.102 91.6104 127.984C91.3305 127.866 91.1059 127.689 90.9366 127.454C90.7672 127.211 90.6825 126.912 90.6825 126.559C90.6825 126.058 90.8519 125.657 91.1906 125.355C91.5367 125.046 92.0669 124.891 92.7812 124.891H94.4601V124.659C94.4601 124.409 94.4196 124.21 94.3386 124.063C94.265 123.915 94.1251 123.809 93.9189 123.742C93.7201 123.676 93.4255 123.643 93.0352 123.643C92.4167 123.643 91.8386 123.735 91.3011 123.919V123.024C91.5367 122.929 91.8239 122.851 92.1626 122.792C92.5014 122.733 92.8659 122.704 93.2561 122.704C94.022 122.704 94.6037 122.859 95.0013 123.168C95.4063 123.477 95.6088 123.982 95.6088 124.681V128.05H94.5816L94.5043 127.52C94.2907 127.726 94.0256 127.884 93.709 127.995C93.3997 128.105 93.0095 128.161 92.5382 128.161ZM92.8585 127.299C93.2193 127.299 93.5323 127.24 93.7974 127.122C94.0698 126.997 94.2907 126.831 94.4601 126.625V125.708H92.8033C92.4498 125.708 92.1921 125.778 92.0301 125.918C91.8755 126.051 91.7981 126.257 91.7981 126.537C91.7981 126.809 91.8902 127.004 92.0743 127.122C92.2584 127.24 92.5198 127.299 92.8585 127.299ZM98.6501 128.161C98.2892 128.161 97.9431 128.135 97.6118 128.083C97.2878 128.032 97.019 127.969 96.8055 127.895V126.879C97.0558 126.975 97.332 127.049 97.6339 127.1C97.9358 127.152 98.223 127.177 98.4954 127.177C98.9078 127.177 99.2023 127.141 99.3791 127.067C99.5558 126.993 99.6442 126.85 99.6442 126.636C99.6442 126.482 99.5889 126.36 99.4785 126.272C99.3754 126.183 99.2171 126.102 99.0035 126.029C98.7973 125.955 98.5322 125.867 98.2082 125.764C97.899 125.661 97.6302 125.55 97.4019 125.432C97.1736 125.307 96.9969 125.149 96.8717 124.957C96.7465 124.766 96.684 124.515 96.684 124.206C96.684 123.728 96.857 123.359 97.2031 123.102C97.5492 122.837 98.1051 122.704 98.871 122.704C99.1729 122.704 99.4601 122.726 99.7325 122.77C100.005 122.814 100.237 122.87 100.428 122.936V123.941C100.222 123.86 99.9939 123.798 99.7436 123.753C99.5006 123.709 99.2723 123.687 99.0587 123.687C98.6758 123.687 98.385 123.72 98.1861 123.786C97.9947 123.853 97.899 123.985 97.899 124.184C97.899 124.39 97.9984 124.538 98.1972 124.626C98.4034 124.707 98.7311 124.821 99.1802 124.968C99.5926 125.094 99.9203 125.226 100.163 125.366C100.406 125.506 100.579 125.675 100.682 125.874C100.793 126.066 100.848 126.316 100.848 126.625C100.848 127.141 100.66 127.527 100.285 127.785C99.9093 128.035 99.3643 128.161 98.6501 128.161ZM103.827 128.161C103.267 128.161 102.847 128.013 102.568 127.719C102.295 127.417 102.159 127.008 102.159 126.493V123.753H101.386V122.814H102.159V121.611L103.352 121.246V122.814H104.744L104.666 123.753H103.352V126.426C103.352 126.728 103.422 126.942 103.562 127.067C103.702 127.185 103.93 127.244 104.247 127.244C104.445 127.244 104.655 127.207 104.876 127.133V127.984C104.589 128.102 104.239 128.161 103.827 128.161ZM106.763 126.261V126.018C106.763 125.723 106.826 125.469 106.951 125.256C107.076 125.042 107.231 124.851 107.415 124.681C107.606 124.512 107.798 124.35 107.989 124.195C108.225 124.004 108.424 123.816 108.586 123.632C108.748 123.44 108.829 123.208 108.829 122.936C108.829 122.546 108.715 122.27 108.486 122.108C108.258 121.938 107.857 121.854 107.282 121.854C106.973 121.854 106.664 121.894 106.354 121.975C106.045 122.049 105.773 122.141 105.537 122.251V121.235C105.787 121.11 106.089 121.01 106.443 120.937C106.804 120.863 107.187 120.826 107.592 120.826C108.402 120.826 109.013 121.007 109.425 121.368C109.837 121.721 110.044 122.214 110.044 122.848C110.044 123.26 109.944 123.595 109.745 123.853C109.554 124.103 109.296 124.361 108.972 124.626C108.773 124.795 108.597 124.946 108.442 125.079C108.295 125.211 108.177 125.355 108.089 125.51C108.008 125.657 107.967 125.845 107.967 126.073V126.261H106.763ZM106.719 128.05V127.144H108V128.05H106.719Z" fill="#404040"/>
<g filter="url(#filter0_f_2765_3008)">
<path d="M197.194 139.483L190.394 139.851L198.05 140.472C198.614 140.517 199.16 140.693 199.646 140.984L201.058 141.832C201.153 141.889 201.216 141.987 201.228 142.097L201.298 142.727C201.339 143.089 201.868 143.077 201.892 142.714C201.897 142.648 201.923 142.585 201.967 142.536L202.747 141.659C203.384 140.941 204.274 140.498 205.23 140.42L212.254 139.851L205.343 139.477C204.317 139.422 203.354 138.962 202.666 138.197C202.024 137.484 201.669 136.559 201.669 135.599V133.408L201.4 135.564C201.276 136.553 200.826 137.472 200.121 138.177C199.34 138.958 198.297 139.424 197.194 139.483Z" fill="#30EDE6"/>
</g>
<g filter="url(#filter1_f_2765_3008)">
<path d="M271.688 147.798L264.888 148.165L272.544 148.786C273.108 148.832 273.655 149.007 274.14 149.298L275.552 150.146C275.647 150.203 275.71 150.301 275.722 150.411L275.793 151.042C275.833 151.403 276.362 151.392 276.387 151.028C276.391 150.962 276.417 150.9 276.461 150.85L277.241 149.973C277.879 149.256 278.768 148.812 279.724 148.735L286.749 148.165L279.838 147.792C278.811 147.736 277.848 147.276 277.16 146.512C276.518 145.798 276.163 144.873 276.163 143.913V141.722L275.894 143.878C275.77 144.867 275.32 145.786 274.616 146.491C273.834 147.273 272.792 147.738 271.688 147.798Z" fill="#30EDE6"/>
</g>
<path d="M335.972 143.198C335.933 143.027 335.851 142.869 335.736 142.737C335.62 142.605 335.474 142.504 335.31 142.442L319.131 136.376L323.21 115.977C323.254 115.751 323.224 115.516 323.123 115.308C323.022 115.1 322.857 114.931 322.651 114.825C322.446 114.72 322.212 114.684 321.984 114.724C321.756 114.763 321.548 114.875 321.39 115.043L291.591 146.97C291.471 147.097 291.383 147.252 291.337 147.421C291.29 147.59 291.286 147.768 291.325 147.939C291.365 148.11 291.446 148.268 291.562 148.4C291.677 148.532 291.824 148.633 291.988 148.694L308.167 154.761L304.096 175.159C304.052 175.386 304.082 175.621 304.183 175.828C304.283 176.036 304.449 176.206 304.654 176.311C304.86 176.417 305.094 176.452 305.322 176.413C305.549 176.374 305.758 176.261 305.916 176.093L335.714 144.166C335.834 144.038 335.919 143.883 335.964 143.714C336.009 143.545 336.012 143.368 335.972 143.198ZM306.916 171.908L310.439 154.295C310.488 154.047 310.448 153.79 310.325 153.569C310.202 153.348 310.005 153.178 309.768 153.09L294.231 147.26L320.389 119.229L316.867 136.842C316.817 137.089 316.858 137.347 316.98 137.567C317.103 137.788 317.301 137.958 317.537 138.047L333.075 143.876L306.916 171.908Z" fill="#00A6A6"/>
<path opacity="0.5" d="M28.9198 124.708L22.5768 120.671C22.4466 120.588 22.2967 120.542 22.1426 120.537C21.9885 120.532 21.836 120.569 21.7008 120.643C21.5662 120.715 21.4538 120.822 21.3759 120.954C21.2979 121.085 21.2573 121.235 21.2584 121.388V124.595L15.0967 120.671C14.9665 120.588 14.8166 120.542 14.6625 120.537C14.5085 120.532 14.3559 120.569 14.2207 120.643C14.0861 120.715 13.9738 120.822 13.8958 120.954C13.8179 121.085 13.7772 121.235 13.7783 121.388V129.466C13.7772 129.619 13.8179 129.769 13.8958 129.9C13.9738 130.032 14.0861 130.139 14.2207 130.211C14.3559 130.285 14.5085 130.322 14.6625 130.317C14.8166 130.312 14.9665 130.266 15.0967 130.183L21.2584 126.259V129.466C21.2573 129.619 21.2979 129.769 21.3759 129.9C21.4538 130.032 21.5662 130.139 21.7008 130.211C21.836 130.285 21.9885 130.322 22.1426 130.317C22.2967 130.312 22.4466 130.266 22.5768 130.183L28.9198 126.146C29.0405 126.069 29.1399 125.964 29.2088 125.838C29.2777 125.713 29.3139 125.572 29.3139 125.429C29.3139 125.286 29.2777 125.145 29.2088 125.02C29.1399 124.895 29.0405 124.789 28.9198 124.712V124.708ZM21.1304 125.656L14.7853 129.698C14.7426 129.725 14.6934 129.74 14.6427 129.742C14.5921 129.744 14.5419 129.732 14.4976 129.707C14.4539 129.684 14.4173 129.649 14.392 129.607C14.3666 129.564 14.3534 129.516 14.3537 129.466V121.388C14.3534 121.338 14.3666 121.29 14.392 121.247C14.4173 121.205 14.4539 121.17 14.4976 121.147C14.5396 121.123 14.5869 121.111 14.635 121.111C14.6893 121.111 14.7425 121.127 14.7882 121.156L21.1304 125.195C21.1696 125.22 21.202 125.254 21.2244 125.295C21.2468 125.335 21.2586 125.381 21.2586 125.427C21.2586 125.473 21.2468 125.519 21.2244 125.559C21.202 125.6 21.1696 125.634 21.1304 125.658V125.656ZM28.6105 125.656L22.2654 129.698C22.2227 129.725 22.1734 129.74 22.1228 129.742C22.0722 129.744 22.022 129.732 21.9777 129.707C21.9339 129.684 21.8974 129.649 21.872 129.607C21.8467 129.564 21.8335 129.516 21.8338 129.466V121.388C21.8335 121.338 21.8467 121.29 21.872 121.247C21.8974 121.205 21.9339 121.17 21.9777 121.147C22.0197 121.123 22.067 121.111 22.115 121.111C22.1694 121.111 22.2226 121.127 22.2682 121.156L28.6105 125.195C28.6497 125.22 28.6821 125.254 28.7045 125.295C28.7269 125.335 28.7387 125.381 28.7387 125.427C28.7387 125.473 28.7269 125.519 28.7045 125.559C28.6821 125.6 28.6497 125.634 28.6105 125.658V125.656Z" fill="url(#paint10_linear_2765_3008)"/>
<rect x="4.23012" y="150.337" width="114.137" height="33.5968" rx="5.29265" fill="#EFEFEF" stroke="url(#paint11_linear_2765_3008)" stroke-width="0.46023"/>
<rect opacity="0.2" x="7.45179" y="153.559" width="27.6138" height="27.1535" rx="3.91196" fill="#30EDE6" fill-opacity="0.2" stroke="url(#paint12_linear_2765_3008)" stroke-width="0.46023"/>
<path opacity="0.5" d="M45.1964 170.852V163.738H48.6426C49.3495 163.738 49.8723 163.904 50.211 164.235C50.5498 164.567 50.7191 165.034 50.7191 165.638C50.7191 166.021 50.6418 166.345 50.4872 166.61C50.3325 166.868 50.1263 167.063 49.8686 167.195C50.2147 167.291 50.4872 167.464 50.686 167.715C50.8922 167.958 50.9953 168.318 50.9953 168.797C50.9953 169.489 50.8075 170.005 50.4319 170.343C50.0638 170.682 49.5188 170.852 48.7972 170.852H45.1964ZM46.4003 166.776H48.4769C48.8819 166.776 49.1691 166.684 49.3384 166.5C49.5152 166.308 49.6035 166.054 49.6035 165.737C49.6035 165.369 49.5152 165.097 49.3384 164.92C49.1617 164.736 48.8303 164.644 48.3443 164.644H46.4003V166.776ZM46.4003 169.968H48.5432C48.9702 169.968 49.2832 169.88 49.482 169.703C49.6808 169.519 49.7803 169.202 49.7803 168.753C49.7803 168.385 49.6808 168.112 49.482 167.936C49.2906 167.751 48.9371 167.659 48.4217 167.659H46.4003V169.968ZM52.4055 164.522V163.528H53.7199V164.522H52.4055ZM52.5049 170.852V166.533H51.7096L51.82 165.616H53.7088V170.852H52.5049ZM57.195 172.796C56.8047 172.796 56.4144 172.77 56.0241 172.718C55.6339 172.674 55.3025 172.604 55.0301 172.508V171.581C55.3246 171.676 55.6633 171.75 56.0462 171.801C56.4292 171.853 56.7937 171.879 57.1397 171.879C57.6699 171.879 58.0565 171.849 58.2995 171.79C58.5425 171.732 58.664 171.599 58.664 171.393C58.664 171.238 58.6051 171.128 58.4873 171.061C58.3695 171.003 58.1449 170.973 57.8135 170.973H56.3997C55.4498 170.973 54.9748 170.638 54.9748 169.968C54.9748 169.754 55.0374 169.556 55.1626 169.371C55.2878 169.187 55.4866 169.047 55.7591 168.952C55.4571 168.804 55.2326 168.602 55.0853 168.344C54.9454 168.086 54.8754 167.777 54.8754 167.416C54.8754 166.746 55.0742 166.26 55.4719 165.958C55.8769 165.656 56.4807 165.506 57.2833 165.506C57.4527 165.506 57.6294 165.52 57.8135 165.55C57.9976 165.572 58.1412 165.594 58.2443 165.616H60.1662L60.1331 166.4H59.2494C59.3894 166.518 59.4924 166.665 59.5587 166.842C59.625 167.019 59.6581 167.21 59.6581 167.416C59.6581 167.976 59.4888 168.418 59.15 168.742C58.8113 169.059 58.2995 169.217 57.6147 169.217C57.4969 169.217 57.3864 169.213 57.2833 169.206C57.1876 169.191 57.0808 169.176 56.963 169.162C56.7421 169.184 56.5433 169.243 56.3666 169.338C56.1898 169.434 56.1015 169.563 56.1015 169.725C56.1015 169.835 56.1456 169.916 56.234 169.968C56.3224 170.012 56.4697 170.034 56.6758 170.034H58.1449C58.6677 170.034 59.069 170.148 59.3489 170.377C59.636 170.598 59.7796 170.922 59.7796 171.349C59.7796 171.864 59.555 172.232 59.1059 172.453C58.664 172.681 58.0271 172.796 57.195 172.796ZM57.2833 168.455C57.762 168.455 58.0933 168.374 58.2774 168.212C58.4689 168.05 58.5646 167.774 58.5646 167.383C58.5646 166.993 58.4689 166.709 58.2774 166.533C58.0933 166.356 57.762 166.268 57.2833 166.268C56.8342 166.268 56.5065 166.352 56.3003 166.522C56.0941 166.691 55.991 166.978 55.991 167.383C55.991 167.759 56.0867 168.031 56.2782 168.201C56.477 168.37 56.8121 168.455 57.2833 168.455ZM66.9935 170.962C65.8226 170.962 64.9353 170.642 64.3315 170.001C63.735 169.36 63.4368 168.495 63.4368 167.405C63.4368 166.625 63.562 165.955 63.8123 165.395C64.0701 164.828 64.4604 164.394 64.9832 164.092C65.506 163.782 66.1724 163.628 66.9824 163.628C67.3948 163.628 67.7703 163.661 68.1091 163.727C68.4552 163.786 68.7755 163.867 69.07 163.97V165.02C68.7755 164.902 68.4588 164.813 68.1201 164.754C67.7887 164.688 67.439 164.655 67.0708 164.655C66.1871 164.655 65.5612 164.891 65.193 165.362C64.8322 165.833 64.6518 166.514 64.6518 167.405C64.6518 168.237 64.8506 168.871 65.2483 169.305C65.6459 169.732 66.2608 169.946 67.0929 169.946C67.4316 169.946 67.7703 169.92 68.1091 169.869C68.4552 169.81 68.7792 169.721 69.0811 169.603V170.664C68.7865 170.76 68.4662 170.833 68.1201 170.885C67.7814 170.936 67.4058 170.962 66.9935 170.962ZM72.6842 170.962C71.7417 170.962 71.0495 170.726 70.6077 170.255C70.1732 169.784 69.956 169.11 69.956 168.234C69.956 167.357 70.1769 166.684 70.6187 166.212C71.0605 165.741 71.749 165.506 72.6842 165.506C73.6268 165.506 74.319 165.741 74.7608 166.212C75.2026 166.684 75.4235 167.357 75.4235 168.234C75.4235 169.11 75.2026 169.784 74.7608 170.255C74.3263 170.726 73.6341 170.962 72.6842 170.962ZM72.6842 169.946C73.2365 169.946 73.6268 169.813 73.8551 169.548C74.0907 169.276 74.2085 168.838 74.2085 168.234C74.2085 167.63 74.0907 167.195 73.8551 166.93C73.6268 166.665 73.2365 166.533 72.6842 166.533C72.1393 166.533 71.749 166.665 71.5134 166.93C71.2851 167.195 71.171 167.63 71.171 168.234C71.171 168.838 71.2851 169.276 71.5134 169.548C71.749 169.813 72.1393 169.946 72.6842 169.946ZM76.5558 170.852V165.616H77.6604L77.7156 166.168C77.9513 165.984 78.2311 165.83 78.5551 165.704C78.8865 165.572 79.251 165.506 79.6486 165.506C80.3261 165.506 80.8194 165.664 81.1287 165.98C81.438 166.297 81.5926 166.79 81.5926 167.461V170.852H80.3997V167.516C80.3997 167.111 80.315 166.827 80.1456 166.665C79.9836 166.503 79.6744 166.422 79.2178 166.422C78.9454 166.422 78.6766 166.478 78.4115 166.588C78.1538 166.698 77.9365 166.842 77.7598 167.019V170.852H76.5558ZM84.9017 170.962C84.342 170.962 83.9223 170.815 83.6425 170.52C83.37 170.218 83.2338 169.81 83.2338 169.294V166.555H82.4606V165.616H83.2338V164.412L84.4267 164.048V165.616H85.8185L85.7411 166.555H84.4267V169.228C84.4267 169.53 84.4967 169.743 84.6366 169.869C84.7765 169.986 85.0048 170.045 85.3214 170.045C85.5202 170.045 85.7301 170.008 85.951 169.935V170.785C85.6638 170.903 85.3141 170.962 84.9017 170.962ZM89.4838 170.962C88.5707 170.962 87.8637 170.737 87.363 170.288C86.8623 169.839 86.6119 169.151 86.6119 168.223C86.6119 167.383 86.8255 166.721 87.2526 166.235C87.6797 165.749 88.3277 165.506 89.1966 165.506C89.9919 165.506 90.5883 165.715 90.9859 166.135C91.391 166.547 91.5935 167.081 91.5935 167.737V168.709H87.7607C87.8196 169.217 88.0037 169.567 88.3129 169.758C88.6222 169.95 89.0935 170.045 89.7268 170.045C89.9919 170.045 90.2643 170.019 90.5441 169.968C90.8239 169.916 91.0669 169.85 91.2731 169.769V170.653C91.0375 170.756 90.765 170.833 90.4558 170.885C90.1539 170.936 89.8299 170.962 89.4838 170.962ZM87.7607 167.924H90.5331V167.56C90.5331 167.199 90.4337 166.919 90.2349 166.721C90.036 166.514 89.701 166.411 89.2297 166.411C88.6701 166.411 88.2835 166.533 88.0699 166.776C87.8637 167.019 87.7607 167.402 87.7607 167.924ZM91.8657 170.852L93.8649 168.19L91.943 165.616H93.2353L94.5166 167.361L95.7979 165.616H97.0902L95.1794 168.19L97.1676 170.852H95.8642L94.5166 169.029L93.1691 170.852H91.8657ZM99.8749 170.962C99.3153 170.962 98.8955 170.815 98.6157 170.52C98.3433 170.218 98.207 169.81 98.207 169.294V166.555H97.4338V165.616H98.207V164.412L99.3999 164.048V165.616H100.792L100.714 166.555H99.3999V169.228C99.3999 169.53 99.4699 169.743 99.6098 169.869C99.7497 169.986 99.978 170.045 100.295 170.045C100.493 170.045 100.703 170.008 100.924 169.935V170.785C100.637 170.903 100.287 170.962 99.8749 170.962ZM102.811 169.062V168.819C102.811 168.525 102.874 168.271 102.999 168.057C103.124 167.843 103.279 167.652 103.463 167.483C103.654 167.313 103.846 167.151 104.037 166.997C104.273 166.805 104.472 166.617 104.634 166.433C104.796 166.242 104.877 166.01 104.877 165.737C104.877 165.347 104.763 165.071 104.534 164.909C104.306 164.74 103.905 164.655 103.33 164.655C103.021 164.655 102.712 164.696 102.403 164.777C102.093 164.85 101.821 164.942 101.585 165.053V164.036C101.836 163.911 102.137 163.812 102.491 163.738C102.852 163.665 103.235 163.628 103.64 163.628C104.45 163.628 105.061 163.808 105.473 164.169C105.886 164.522 106.092 165.016 106.092 165.649C106.092 166.061 105.992 166.397 105.793 166.654C105.602 166.905 105.344 167.162 105.02 167.427C104.821 167.597 104.645 167.748 104.49 167.88C104.343 168.013 104.225 168.156 104.137 168.311C104.056 168.458 104.015 168.646 104.015 168.874V169.062H102.811ZM102.767 170.852V169.946H104.048V170.852H102.767Z" fill="#404040"/>
<path opacity="0.2" d="M29.0249 166.905H28.1555C28.0814 165.253 27.3915 163.687 26.2217 162.518C25.0518 161.348 23.4866 160.658 21.8338 160.584V159.714C21.8338 159.638 21.8035 159.565 21.7496 159.511C21.6956 159.457 21.6224 159.427 21.5462 159.427C21.4699 159.427 21.3967 159.457 21.3428 159.511C21.2888 159.565 21.2585 159.638 21.2585 159.714V160.584C19.6057 160.658 18.0405 161.348 16.8706 162.518C15.7008 163.687 15.011 165.253 14.9368 166.905H14.0674C13.9911 166.905 13.918 166.936 13.864 166.99C13.8101 167.044 13.7798 167.117 13.7798 167.193C13.7798 167.269 13.8101 167.343 13.864 167.397C13.918 167.45 13.9911 167.481 14.0674 167.481H14.9368C15.011 169.134 15.7008 170.699 16.8706 171.869C18.0405 173.039 19.6057 173.728 21.2585 173.802V174.672C21.2585 174.748 21.2888 174.821 21.3428 174.875C21.3967 174.929 21.4699 174.96 21.5462 174.96C21.6224 174.96 21.6956 174.929 21.7496 174.875C21.8035 174.821 21.8338 174.748 21.8338 174.672V173.802C23.4866 173.728 25.0518 173.039 26.2217 171.869C27.3915 170.699 28.0814 169.134 28.1555 167.481H29.0249C29.1012 167.481 29.1743 167.45 29.2283 167.397C29.2822 167.343 29.3125 167.269 29.3125 167.193C29.3125 167.117 29.2822 167.044 29.2283 166.99C29.1743 166.936 29.1012 166.905 29.0249 166.905ZM21.8338 173.226V172.371C21.8338 172.294 21.8035 172.221 21.7496 172.167C21.6956 172.113 21.6224 172.083 21.5462 172.083C21.4699 172.083 21.3967 172.113 21.3428 172.167C21.2888 172.221 21.2585 172.294 21.2585 172.371V173.226C19.7584 173.153 18.3392 172.524 17.2772 171.462C16.2151 170.4 15.5862 168.981 15.5128 167.481H16.3686C16.4449 167.481 16.518 167.45 16.572 167.397C16.6259 167.343 16.6562 167.269 16.6562 167.193C16.6562 167.117 16.6259 167.044 16.572 166.99C16.518 166.936 16.4449 166.905 16.3686 166.905H15.5128C15.5862 165.405 16.2151 163.986 17.2772 162.924C18.3392 161.862 19.7584 161.233 21.2585 161.16V162.016C21.2585 162.092 21.2888 162.165 21.3428 162.219C21.3967 162.273 21.4699 162.303 21.5462 162.303C21.6224 162.303 21.6956 162.273 21.7496 162.219C21.8035 162.165 21.8338 162.092 21.8338 162.016V161.16C23.3339 161.233 24.7531 161.862 25.8152 162.924C26.8772 163.986 27.5061 165.405 27.5795 166.905H26.7237C26.6475 166.905 26.5743 166.936 26.5203 166.99C26.4664 167.044 26.4361 167.117 26.4361 167.193C26.4361 167.269 26.4664 167.343 26.5203 167.397C26.5743 167.45 26.6475 167.481 26.7237 167.481H27.5795C27.5061 168.981 26.8772 170.4 25.8152 171.462C24.7531 172.524 23.3339 173.153 21.8338 173.226ZM21.5462 164.604C21.0341 164.604 20.5336 164.756 20.1079 165.041C19.6822 165.325 19.3504 165.729 19.1544 166.202C18.9585 166.675 18.9072 167.196 19.0071 167.698C19.107 168.2 19.3536 168.662 19.7156 169.024C20.0777 169.386 20.5389 169.632 21.0411 169.732C21.5433 169.832 22.0638 169.781 22.5368 169.585C23.0099 169.389 23.4142 169.057 23.6987 168.631C23.9831 168.206 24.1349 167.705 24.1349 167.193C24.1349 166.507 23.8622 165.848 23.3767 165.363C22.8912 164.877 22.2327 164.604 21.5462 164.604ZM21.5462 169.207C21.1479 169.207 20.7586 169.089 20.4275 168.867C20.0964 168.646 19.8383 168.332 19.6859 167.964C19.5335 167.596 19.4937 167.191 19.5713 166.8C19.649 166.41 19.8408 166.051 20.1224 165.769C20.404 165.488 20.7628 165.296 21.1533 165.218C21.5439 165.141 21.9488 165.18 22.3167 165.333C22.6846 165.485 22.9991 165.743 23.2203 166.074C23.4416 166.406 23.5597 166.795 23.5597 167.193C23.5597 167.727 23.3475 168.239 22.9699 168.617C22.5923 168.994 22.0802 169.207 21.5462 169.207Z" fill="url(#paint13_linear_2765_3008)"/>
<defs>
<filter id="filter0_f_2765_3008" x="188.553" y="131.567" width="25.5432" height="13.2668" filterUnits="userSpaceOnUse" color-interpolation-filters="sRGB">
<feFlood flood-opacity="0" result="BackgroundImageFix"/>
<feBlend mode="normal" in="SourceGraphic" in2="BackgroundImageFix" result="shape"/>
<feGaussianBlur stdDeviation="0.920461" result="effect1_foregroundBlur_2765_3008"/>
</filter>
<filter id="filter1_f_2765_3008" x="263.047" y="139.881" width="25.5432" height="13.2668" filterUnits="userSpaceOnUse" color-interpolation-filters="sRGB">
<feFlood flood-opacity="0" result="BackgroundImageFix"/>
<feBlend mode="normal" in="SourceGraphic" in2="BackgroundImageFix" result="shape"/>
<feGaussianBlur stdDeviation="0.920461" result="effect1_foregroundBlur_2765_3008"/>
</filter>
<linearGradient id="paint0_linear_2765_3008" x1="6.15053" y1="63.1238" x2="87.995" y2="87.3565" gradientUnits="userSpaceOnUse">
<stop stop-color="#30EDE6"/>
<stop offset="1" stop-color="#666666"/>
</linearGradient>
<linearGradient id="paint1_linear_2765_3008" x1="27.7019" y1="96.7204" x2="6.23087" y2="96.0031" gradientUnits="userSpaceOnUse">
<stop stop-color="#30EDE6"/>
<stop offset="1" stop-color="#666666"/>
</linearGradient>
<linearGradient id="paint2_linear_2765_3008" x1="21.2585" y1="73.709" x2="21.2585" y2="86.1352" gradientUnits="userSpaceOnUse">
<stop stop-color="#00A6A6"/>
<stop offset="1" stop-color="#076568"/>
</linearGradient>
<linearGradient id="paint3_linear_2765_3008" x1="172.329" y1="73.2488" x2="172.329" y2="117.891" gradientUnits="userSpaceOnUse">
<stop stop-color="#30EDE6"/>
<stop offset="1" stop-color="#666666"/>
</linearGradient>
<linearGradient id="paint4_linear_2765_3008" x1="282.612" y1="133.913" x2="1.36895e+12" y2="8.53219e+14" gradientUnits="userSpaceOnUse">
<stop stop-color="#30EDE6"/>
<stop offset="1" stop-color="#666666"/>
</linearGradient>
<linearGradient id="paint5_linear_2765_3008" x1="167.036" y1="168.977" x2="167.036" y2="124.334" gradientUnits="userSpaceOnUse">
<stop stop-color="#30EDE6"/>
<stop offset="1" stop-color="#666666"/>
</linearGradient>
<linearGradient id="paint6_linear_2765_3008" x1="167.037" y1="117.361" x2="167.037" y2="162.003" gradientUnits="userSpaceOnUse">
<stop stop-color="#30EDE6"/>
<stop offset="1" stop-color="#666666"/>
</linearGradient>
<linearGradient id="paint7_linear_2765_3008" x1="242.399" y1="122.722" x2="242.399" y2="170.586" gradientUnits="userSpaceOnUse">
<stop stop-color="#30EDE6"/>
<stop offset="0.5" stop-color="#CCCCCC"/>
<stop offset="1" stop-color="#999999"/>
</linearGradient>
<linearGradient id="paint8_linear_2765_3008" x1="6.40993" y1="107.306" x2="96.2739" y2="137.122" gradientUnits="userSpaceOnUse">
<stop stop-color="#30EDE6"/>
<stop offset="1" stop-color="#666666"/>
</linearGradient>
<linearGradient id="paint9_linear_2765_3008" x1="35.2957" y1="141.363" x2="17.0879" y2="135.678" gradientUnits="userSpaceOnUse">
<stop stop-color="#30EDE6"/>
<stop offset="1" stop-color="#666666"/>
</linearGradient>
<linearGradient id="paint10_linear_2765_3008" x1="21.5461" y1="120.537" x2="21.5461" y2="130.317" gradientUnits="userSpaceOnUse">
<stop stop-color="#00A6A6"/>
<stop offset="1" stop-color="#076568"/>
</linearGradient>
<linearGradient id="paint11_linear_2765_3008" x1="6.08358" y1="150.107" x2="85.774" y2="172.968" gradientUnits="userSpaceOnUse">
<stop stop-color="#30EDE6"/>
<stop offset="1" stop-color="#666666"/>
</linearGradient>
<linearGradient id="paint12_linear_2765_3008" x1="30.4633" y1="180.943" x2="10.8846" y2="183.594" gradientUnits="userSpaceOnUse">
<stop stop-color="#30EDE6"/>
<stop offset="1" stop-color="#666666"/>
</linearGradient>
<linearGradient id="paint13_linear_2765_3008" x1="21.5462" y1="159.427" x2="21.5462" y2="174.96" gradientUnits="userSpaceOnUse">
<stop stop-color="white"/>
<stop offset="1" stop-color="#999999"/>
</linearGradient>
</defs>
</svg>
