<svg width="706" height="138" viewBox="0 0 706 138" fill="none" xmlns="http://www.w3.org/2000/svg">
<path fill-rule="evenodd" clip-rule="evenodd" d="M284.12 107.922C257.502 127.538 218.936 138 185.72 138C139.153 138 97.2228 120.774 65.5166 92.1347C63.02 89.8878 65.2551 86.8087 68.2509 88.5682C102.478 108.481 144.8 120.465 188.514 120.465C217.997 120.465 250.428 114.366 280.256 101.705C284.762 99.7908 288.53 104.653 284.12 107.922Z" fill="white"/>
<path fill-rule="evenodd" clip-rule="evenodd" d="M295.176 95.2732C291.788 90.9221 272.695 93.2166 264.112 94.239C261.496 94.5599 261.104 92.2893 263.458 90.6487C278.663 79.9492 303.629 83.0282 306.541 86.6185C309.454 90.2326 305.78 115.246 291.491 127.182C289.303 129.012 287.199 128.038 288.186 125.612C291.396 117.6 298.588 99.6363 295.188 95.2732" fill="white"/>
<path fill-rule="evenodd" clip-rule="evenodd" d="M264.718 15.0744V4.67212C264.718 3.10286 265.919 2.0448 267.346 2.0448H313.936C315.434 2.0448 316.623 3.12664 316.623 4.67212V13.5884C316.599 15.0863 315.351 17.036 313.116 20.127L288.97 54.5913C297.946 54.3773 307.409 55.7088 315.541 60.2977C317.371 61.332 317.871 62.8537 318.014 64.3398V75.4435C318.014 76.9533 316.337 78.7366 314.59 77.8212C300.252 70.3077 281.219 69.4874 265.372 77.9044C263.755 78.7841 262.067 77.0246 262.067 75.5148V64.9699C262.067 63.2698 262.091 60.3809 263.779 57.8131L291.752 17.7018H267.417C265.919 17.7018 264.73 16.6437 264.73 15.0863" fill="white"/>
<path fill-rule="evenodd" clip-rule="evenodd" d="M94.7739 79.9968H80.603C79.2478 79.9017 78.1659 78.8793 78.0708 77.5835V4.83861C78.0708 3.38823 79.2833 2.22317 80.805 2.22317H94.0249C95.4039 2.28262 96.4977 3.34067 96.5928 4.66028V14.171H96.8543C100.302 4.98127 106.781 0.689575 115.519 0.689575C124.257 0.689575 129.928 4.98127 133.922 14.171C137.346 4.98127 145.145 0.689575 153.502 0.689575C159.447 0.689575 165.937 3.13857 169.908 8.64288C174.39 14.7654 173.475 23.6579 173.475 31.4447L173.451 77.3576C173.451 78.8079 172.239 79.9849 170.717 79.9849H156.558C155.143 79.8898 154.002 78.7485 154.002 77.3576V38.8036C154.002 35.7364 154.275 28.0803 153.597 25.1677C152.539 20.2816 149.377 18.9025 145.264 18.9025C141.84 18.9025 138.25 21.197 136.787 24.8586C135.337 28.5321 135.468 34.6665 135.468 38.7917V77.3457C135.468 78.7961 134.255 79.973 132.733 79.973H118.574C117.136 79.8779 116.018 78.7366 116.018 77.3457L115.995 38.7917C115.995 30.6839 117.326 18.7361 107.269 18.7361C97.211 18.7361 97.4844 30.3748 97.4844 38.7917V77.3457C97.4844 78.7961 96.2719 79.973 94.7502 79.973" fill="white"/>
<path fill-rule="evenodd" clip-rule="evenodd" d="M356.734 0.701416C377.764 0.701416 389.154 18.7598 389.154 41.7281C389.154 64.6964 376.576 81.5184 356.734 81.5184C336.892 81.5184 324.837 63.46 324.837 40.9554C324.837 18.4507 336.215 0.701416 356.734 0.701416ZM356.865 15.55C346.415 15.55 345.761 29.7803 345.761 38.649C345.761 47.5178 345.618 66.5154 356.746 66.5154C367.873 66.5154 368.254 51.2031 368.254 41.8708C368.254 35.7364 367.992 28.3894 366.138 22.576C364.544 17.5115 361.37 15.5381 356.865 15.5381" fill="white"/>
<path fill-rule="evenodd" clip-rule="evenodd" d="M416.425 79.9968H402.314C400.899 79.9017 399.758 78.7604 399.758 77.3694L399.734 4.60084C399.853 3.26935 401.03 2.22317 402.468 2.22317H415.605C416.841 2.28262 417.852 3.1148 418.137 4.25608V15.3836H418.399C422.369 5.43303 427.933 0.689575 437.717 0.689575C444.077 0.689575 450.271 2.98403 454.266 9.26108C457.975 15.0864 457.975 24.8705 457.975 31.9084V77.7023C457.82 78.9744 456.643 79.9968 455.241 79.9968H441.022C439.726 79.9017 438.645 78.9387 438.514 77.7023V38.1854C438.514 30.2321 439.429 18.5934 429.645 18.5934C426.197 18.5934 423.023 20.9117 421.454 24.4187C419.457 28.865 419.207 33.2874 419.207 38.1973V77.3694C419.183 78.8198 417.947 79.9968 416.437 79.9968" fill="white"/>
<path fill-rule="evenodd" clip-rule="evenodd" d="M466.844 74.219C466.844 70.5455 469.971 67.5972 473.822 67.5972C477.674 67.5972 480.801 70.5455 480.801 74.219C480.801 77.8925 477.674 80.8527 473.822 80.8527C469.971 80.8527 466.844 77.8568 466.844 74.219Z" fill="white"/>
<path fill-rule="evenodd" clip-rule="evenodd" d="M617.017 80.0206C615.543 79.9611 614.39 78.8198 614.39 77.3932V4.64839C614.473 3.35256 615.567 2.33017 616.922 2.25884H622.129C623.568 2.25884 624.721 3.29312 624.84 4.64839V15.2528C628.549 6.83586 635.444 0.261597 644.159 0.261597H645.217C654.466 0.261597 661.23 7.07362 663.739 16.9885C667.662 7.2044 675.044 0.261597 684.769 0.261597H685.851C692.734 0.261597 699.344 4.68406 702.78 11.4248C706.085 17.8682 705.966 26.4398 705.966 33.6322L705.942 77.3932C705.966 78.7842 704.825 79.9255 703.41 80.0206H697.192C695.837 79.9611 694.743 78.9982 694.565 77.7499V33.6322C694.565 28.4251 694.827 22.9089 692.71 18.1655C690.559 13.3269 686.433 10.2954 682.011 10.0695C677.065 10.3073 672.524 13.9213 669.576 18.7836C665.748 25.0607 665.891 30.7196 665.891 38.0666V77.7974C665.712 78.9982 664.654 79.9255 663.358 80.0324H657.176C655.702 79.973 654.525 78.8317 654.525 77.4051L654.49 30.7314C654.49 26.4397 654.228 21.3991 652.254 17.5591C649.96 13.1723 645.858 10.3072 641.555 10.0814C637.085 10.3429 632.579 13.7549 629.916 17.7137C626.469 22.7781 625.815 29.0314 625.815 35.4749V77.3932C625.815 78.7842 624.674 79.9255 623.259 80.0206H617.053" fill="white"/>
<path fill-rule="evenodd" clip-rule="evenodd" d="M574.314 81.5303C554.199 81.5303 545.188 61.0229 545.188 40.5036C545.188 18.9381 555.769 0.249634 576.026 0.249634H577.108C596.807 0.249634 606.615 20.1507 606.615 40.6581C606.615 62.3901 595.749 81.5303 575.372 81.5303H574.314ZM575.789 71.5798C582.41 71.3658 587.629 67.2524 590.72 60.4166C593.49 54.2822 594.025 47.2443 594.025 40.5036C594.025 33.1685 593.229 25.5124 589.781 19.2353C586.69 13.7548 581.388 10.2596 575.765 10.0694C569.5 10.2834 563.9 14.5394 561.094 21.078C558.562 26.7369 557.789 34.2503 557.789 40.5155C557.789 47.5534 558.705 55.685 561.617 61.8075C564.447 67.609 569.892 71.3776 575.789 71.5916" fill="white"/>
<path fill-rule="evenodd" clip-rule="evenodd" d="M511.461 71.2707C520.496 70.9973 525.239 63.7573 527.189 54.3893C527.593 53.2123 528.485 52.3207 529.804 52.3207L535.761 52.2969C537.175 52.3564 538.471 53.4382 538.352 54.7459C535.606 70.712 525.977 81.5423 512.258 81.5423H511.176C491.203 81.5423 482.584 61.4866 482.584 41.1338C482.584 20.7809 491.31 0.261597 511.295 0.261597H512.376C526.25 0.261597 536.141 10.9492 538.293 26.9153C538.293 28.116 537.175 29.1503 535.856 29.293L529.614 29.2097C528.295 29.0314 527.439 27.9139 527.237 26.6537C525.739 17.7375 520.615 10.6401 512.091 10.3667C498.514 10.8066 494.651 27.5097 494.651 40.3729C494.651 53.2361 497.884 70.8309 511.461 71.2707Z" fill="white"/>
<path fill-rule="evenodd" clip-rule="evenodd" d="M227.579 45.2471C227.579 50.7633 227.721 55.3759 224.928 60.2739C222.681 64.2565 219.09 66.7174 215.12 66.7174C209.675 66.7174 206.489 62.5684 206.489 56.4459C206.489 44.3673 217.319 42.168 227.579 42.168V45.2352M241.868 79.7946C240.929 80.6268 239.574 80.6862 238.516 80.1394C233.808 76.2281 232.952 74.4211 230.384 70.6881C222.609 78.6177 217.093 80.9953 207.024 80.9953C195.088 80.9953 185.815 73.6365 185.815 58.9068C185.815 47.3989 192.033 39.5644 200.925 35.7364C208.617 32.3482 219.364 31.7538 227.579 30.8146V28.9838C227.579 25.6194 227.84 21.6249 225.843 18.7123C224.131 16.0968 220.814 15.0269 217.89 15.0269C212.492 15.0269 207.678 17.7969 206.512 23.5389C206.275 24.811 205.336 26.0712 204.04 26.1306L190.309 24.6564C189.156 24.3949 187.86 23.4557 188.193 21.6844C191.343 5.01688 206.417 0 219.887 0C226.782 0 235.793 1.83081 241.238 7.06168C248.134 13.5052 247.48 22.0886 247.48 31.4447V53.5332C247.48 60.167 250.226 63.0796 252.818 66.6699C253.709 67.9419 253.911 69.4755 252.758 70.4385C249.869 72.8518 244.722 77.3337 241.892 79.8422L241.868 79.8065" fill="white"/>
<path fill-rule="evenodd" clip-rule="evenodd" d="M41.7638 45.2471C41.7638 50.7633 41.9065 55.3759 39.1127 60.2739C36.8658 64.2565 33.2874 66.7174 29.3048 66.7174C23.86 66.7174 20.6977 62.5684 20.6977 56.4459C20.6977 44.3673 31.5279 42.168 41.7638 42.168V45.2352M56.0536 79.7946C55.1144 80.6268 53.7592 80.6862 52.7012 80.1394C47.9934 76.2281 47.1611 74.4211 44.5694 70.6881C36.7944 78.6177 31.2901 80.9953 21.2088 80.9953C9.28476 80.9953 0 73.6365 0 58.9068C0 47.3989 6.24134 39.5644 15.1101 35.7364C22.8018 32.3482 33.5489 31.7538 41.7638 30.8146V28.9838C41.7638 25.6194 42.0254 21.6249 40.0519 18.7123C38.3162 16.0968 35.0112 15.0269 32.0986 15.0269C26.7012 15.0269 21.8746 17.7969 20.6977 23.5389C20.4599 24.811 19.5206 26.0712 18.2486 26.1306L4.49383 24.6564C3.34066 24.3949 2.05669 23.4557 2.37767 21.6844C5.55186 5.01688 20.6026 0 34.0721 0C40.9673 0 49.9786 1.83081 55.4235 7.06168C62.3187 13.5052 61.6649 22.0886 61.6649 31.4447V53.5332C61.6649 60.167 64.4111 63.0796 67.0027 66.6699C67.9181 67.9419 68.1204 69.4755 66.9672 70.4385C64.0783 72.8518 58.9306 77.3337 56.1012 79.8422L56.0655 79.8065" fill="white"/>
</svg>
