<svg width="632" height="148" viewBox="0 0 632 148" fill="none" xmlns="http://www.w3.org/2000/svg">
<g clip-path="url(#clip0_1_21)">
<path d="M125.551 15.5559C139.902 26.7752 151.142 41.753 154.222 60.0862C155.875 73.6379 155.786 87.668 150.504 100.392C150.041 101.546 149.578 102.699 149.101 103.888C144.844 113.392 138.878 120.185 131.504 127.392C130.836 128.08 130.168 128.769 129.48 129.478C115.107 143.349 94.2156 148.069 74.863 147.732C56.4828 146.918 39.4413 140.338 25.5036 128.392C24.9145 127.946 24.3254 127.5 23.7185 127.04C10.7386 116.928 3.51782 101.217 0.50364 85.3918C0.0770176 81.2973 -0.0214935 77.2567 0.00364038 73.1418C0.0086355 72.055 0.0136306 70.9682 0.0187771 69.8484C0.423157 51.0433 8.27661 35.0338 21.3005 21.5286C49.9682 -5.11768 93.8846 -6.93498 125.551 15.5559ZM106.504 11.3918C107.058 12.2981 107.612 13.2043 108.183 14.1379C115.852 26.9226 115.852 26.9226 116.504 34.3918C116.624 35.4263 116.624 35.4263 116.746 36.4817C117.347 46.2542 113.838 56.1091 107.468 63.4622C98.5161 72.2543 87.4356 75.1043 75.2536 76.3918C69.0418 77.054 63.8891 78.1368 58.5036 81.3918C57.8204 81.7902 57.1372 82.1885 56.4333 82.5989C49.0991 87.4372 44.0025 94.9616 42.0036 103.517C40.6173 113.537 43.3163 120.763 48.5036 129.392C50.7541 132.31 50.7541 132.31 53.5036 134.392C54.3641 135.142 54.3641 135.142 55.2419 135.907C64.2923 143.38 74.0521 144.298 85.5036 143.392C106.212 140.309 124.427 131.122 137.441 114.454C141.272 109.026 144.21 103.623 146.504 97.3918C146.896 96.3464 147.287 95.301 147.691 94.2239C153.25 77.4521 151.522 60.3297 143.818 44.5176C137.265 31.841 126.532 19.7052 113.504 13.3918C111.181 12.6872 108.849 12.0141 106.504 11.3918ZM63.6286 30.0168C61.1687 33.9238 60.6586 36.3013 60.8786 40.8528C62.1564 46.0437 65.9694 49.822 70.4333 52.5872C74.3629 54.1145 78.3685 53.9284 82.5036 53.3918C87.3799 50.8634 91.7315 47.7082 93.5036 42.3918C94.2321 38.1951 94.3737 34.7973 92.0818 31.095C88.6186 27.0399 85.5929 23.8303 80.1365 23.0559C72.5602 22.9379 69.2345 24.8985 63.6286 30.0168Z" fill="black"/>
<path d="M85.7536 95.0794C89.8551 97.3436 92.4041 100.193 94.5036 104.392C95.0247 109.62 95.1464 114.032 92.8786 118.829C88.4033 123.658 84.426 126.044 77.8747 126.486C73.0459 126.295 68.5582 125.187 64.863 121.958C60.7037 117.166 60.1463 112.998 60.2263 106.896C60.641 103.152 62.0004 101.159 64.5036 98.3919C71.2204 93.32 77.922 91.449 85.7536 95.0794Z" fill="black"/>
</g>
<path d="M533.379 49.5616C535.963 50.9573 537.678 51.9944 539.504 54.2491C541.72 53.22 543.612 52.1668 545.566 50.6866C550.011 47.3886 555.216 47.7078 560.504 48.2491C566.355 49.8384 569.444 52.8668 572.487 57.9791C574.208 61.8215 574.124 65.4124 573.992 69.5616C573.985 70.416 573.978 71.2703 573.97 72.1505C573.943 74.851 573.88 77.5493 573.816 80.2491C573.791 82.0916 573.768 83.934 573.748 85.7765C573.693 90.2682 573.607 94.7583 573.504 99.2491C570.534 99.2491 567.564 99.2491 564.504 99.2491C564.489 98.2151 564.474 97.181 564.459 96.1156C564.401 92.2668 564.324 88.4185 564.241 84.5702C564.208 82.9069 564.18 81.2435 564.157 79.58C564.124 77.1841 564.071 74.7892 564.015 72.3937C564.009 71.6539 564.003 70.9141 563.996 70.1519C563.87 65.7061 563.249 62.7877 560.504 59.2491C557.326 57.6604 553.97 57.9741 550.504 58.2491C547.083 59.4193 546.588 60.1223 544.504 63.2491C544.263 66.0013 544.131 68.6613 544.09 71.4171C544.07 72.2119 544.051 73.0067 544.031 73.8256C543.971 76.3625 543.925 78.8995 543.879 81.4366C543.84 83.1574 543.801 84.8781 543.761 86.5988C543.665 90.8154 543.581 95.0321 543.504 99.2491C540.204 99.2491 536.904 99.2491 533.504 99.2491C533.494 98.1493 533.485 97.0494 533.475 95.9161C533.435 91.8306 533.37 87.7458 533.296 83.6608C533.268 81.8936 533.247 80.1263 533.233 78.359C533.211 75.8165 533.165 73.2756 533.113 70.7335C533.112 69.9448 533.111 69.1562 533.109 68.3436C533.013 64.7445 532.814 62.6562 530.602 59.7521C527.532 57.5533 525.362 57.6915 521.695 57.8546C518.437 58.4413 516.708 59.8385 514.504 62.2491C513.302 65.854 513.273 69.222 513.187 72.9796C513.166 73.73 513.146 74.4805 513.124 75.2536C513.059 77.6479 513 80.0422 512.941 82.4366C512.898 84.061 512.854 85.6854 512.81 87.3097C512.703 91.2894 512.602 95.2692 512.504 99.2491C509.534 99.2491 506.564 99.2491 503.504 99.2491C503.504 82.7491 503.504 66.2491 503.504 49.2491C506.474 49.2491 509.444 49.2491 512.504 49.2491C512.834 50.2391 513.164 51.2291 513.504 52.2491C514.102 51.7748 514.7 51.3004 515.316 50.8116C520.548 47.0747 527.54 47.189 533.379 49.5616Z" fill="black"/>
<path d="M214.504 28.2491C219.124 28.2491 223.744 28.2491 228.504 28.2491C234.663 46.6204 240.784 65.0029 246.754 83.4366C246.995 84.1818 247.237 84.9269 247.486 85.6946C248.166 87.7891 248.843 89.8842 249.519 91.9796C249.904 93.1697 250.288 94.3597 250.684 95.5858C251.504 98.2491 251.504 98.2491 251.504 99.2491C248.204 99.2491 244.904 99.2491 241.504 99.2491C238.954 93.13 237.133 87.7673 235.504 81.2491C226.264 81.2491 217.024 81.2491 207.504 81.2491C206.514 84.8791 205.524 88.5091 204.504 92.2491C203.555 94.6037 202.577 96.9487 201.504 99.2491C198.204 99.2491 194.904 99.2491 191.504 99.2491C198.973 75.5146 206.538 51.8224 214.504 28.2491ZM220.504 39.2491C219.076 43.6262 217.652 48.0045 216.231 52.3839C215.747 53.8742 215.262 55.3641 214.776 56.8536C214.078 58.9924 213.384 61.1324 212.691 63.2726C212.472 63.9403 212.254 64.6081 212.028 65.2961C210.885 68.7033 210.885 68.7033 210.504 72.2491C217.764 72.2491 225.024 72.2491 232.504 72.2491C230.471 64.6145 228.241 57.08 225.816 49.5616C225.496 48.562 225.175 47.5623 224.845 46.5323C224.067 44.1039 223.286 41.6762 222.504 39.2491C221.844 39.2491 221.184 39.2491 220.504 39.2491Z" fill="black"/>
<path d="M585.504 49.2491C588.474 49.2491 591.444 49.2491 594.504 49.2491C594.518 50.2832 594.533 51.3173 594.548 52.3827C594.606 56.2315 594.683 60.0797 594.766 63.9281C594.799 65.5914 594.827 67.2548 594.85 68.9183C594.884 71.3142 594.936 73.7091 594.992 76.1046C594.998 76.8444 595.005 77.5842 595.011 78.3464C595.137 82.8002 595.772 85.6966 598.504 89.2491C602.48 91.9004 606.571 91.3685 611.129 90.7921C615.206 89.8599 617.43 87.8063 619.754 84.4366C622.208 77.2774 621.817 69.2825 622.066 61.8116C622.131 59.9989 622.131 59.9989 622.197 58.1495C622.302 55.1828 622.405 52.2161 622.504 49.2491C625.474 49.2491 628.444 49.2491 631.504 49.2491C631.573 57.3769 631.626 65.5046 631.659 73.6326C631.675 77.407 631.696 81.1812 631.73 84.9554C631.763 88.5994 631.78 92.2432 631.788 95.8873C631.794 97.2759 631.805 98.6646 631.821 100.053C631.843 102.001 631.844 103.95 631.844 105.898C631.851 107.006 631.857 108.114 631.864 109.256C631.456 112.643 630.494 114.507 628.504 117.249C625.025 119.892 621.08 119.506 616.894 119.444C616.167 119.442 615.441 119.439 614.692 119.436C612.379 119.425 610.066 119.4 607.754 119.374C606.182 119.364 604.61 119.355 603.039 119.347C599.194 119.325 595.349 119.29 591.504 119.249C591.504 116.279 591.504 113.309 591.504 110.249C606.354 109.754 606.354 109.754 621.504 109.249C621.504 104.629 621.504 100.009 621.504 95.2491C620.472 96.0741 619.441 96.8991 618.379 97.7491C612.466 101.442 606.24 101.097 599.504 100.249C594.063 98.6756 590.613 96.0328 587.504 91.2491C586.964 90.4511 586.964 90.4511 586.414 89.6368C585.03 86.0062 585.259 82.3761 585.308 78.546C585.311 77.7082 585.314 76.8704 585.317 76.0073C585.328 73.3377 585.353 70.6686 585.379 67.9991C585.389 66.1867 585.398 64.3741 585.406 62.5616C585.428 58.124 585.462 53.6866 585.504 49.2491Z" fill="black"/>
<path d="M479.004 50.3117C484.475 53.4973 488.188 57.3671 490.816 63.1242C492.993 73.0198 493.325 82.2818 487.754 91.1867C483.439 97.0374 478.621 99.8015 471.504 101.249C463.437 102.107 456.081 100.476 449.191 96.1867C442.526 88.9014 440.797 82.1074 440.985 72.442C441.389 64.3036 443.372 58.9614 449.379 53.3117C457.31 46.5203 469.722 46.0363 479.004 50.3117ZM454.929 60.6827C450.361 65.9318 450.149 70.4812 450.23 77.1671C450.685 82.2976 452.184 86.0836 455.976 89.6242C460.75 92.8741 465.908 93.1217 471.504 92.2492C475.648 90.9176 478.156 88.668 480.941 85.3117C484.054 79.1137 483.443 71.1703 481.379 64.7492C477.849 60.0426 474.979 57.1872 469.129 56.2492C463.746 55.9501 458.989 56.9862 454.929 60.6827Z" fill="black"/>
<path d="M294.613 50.0617C299.15 52.9113 302.814 57.1814 304.504 62.2492C304.589 65.0534 304.62 67.8321 304.601 70.6359C304.6 71.4529 304.598 72.2699 304.597 73.1117C304.591 75.72 304.579 78.3283 304.566 80.9367C304.561 82.7055 304.557 84.4744 304.552 86.2433C304.541 90.5786 304.524 94.9139 304.504 99.2492C301.534 99.2492 298.564 99.2492 295.504 99.2492C295.479 98.2454 295.454 97.2416 295.428 96.2074C295.333 92.4706 295.233 88.734 295.131 84.9974C295.088 83.3826 295.046 81.7677 295.006 80.1527C294.948 77.8267 294.885 75.5008 294.82 73.1749C294.803 72.457 294.787 71.7391 294.769 70.9995C294.662 67.3261 294.525 63.7929 293.504 60.2492C289.186 57.3242 283.516 57.7431 278.504 58.2492C274.416 59.587 272.986 60.4847 270.691 64.1242C268.842 68.9904 268.359 73.4554 268.187 78.6437C268.145 79.8457 268.103 81.0478 268.06 82.2863C268.001 84.1551 268.001 84.1551 267.941 86.0617C267.898 87.3269 267.855 88.5921 267.81 89.8956C267.704 93.0134 267.602 96.1312 267.504 99.2492C264.534 99.2492 261.564 99.2492 258.504 99.2492C258.504 82.7492 258.504 66.2492 258.504 49.2492C261.474 49.2492 264.444 49.2492 267.504 49.2492C267.834 50.8992 268.164 52.5492 268.504 54.2492C269.226 53.6304 269.947 53.0117 270.691 52.3742C277.732 47.0546 286.49 46.6274 294.613 50.0617Z" fill="black"/>
<path d="M423.504 52.2491C427.754 55.8468 429.265 59.9073 430.504 65.2491C430.663 67.9951 430.739 70.6303 430.699 73.3702C430.696 74.115 430.693 74.8597 430.69 75.6271C430.679 77.9804 430.654 80.3334 430.629 82.6866C430.619 84.2927 430.609 85.8989 430.601 87.505C430.579 91.4199 430.545 95.3344 430.504 99.2491C427.534 99.2491 424.564 99.2491 421.504 99.2491C421.474 97.8955 421.474 97.8955 421.444 96.5145C421.365 93.1391 421.278 89.7641 421.186 86.389C421.148 84.9334 421.113 83.4776 421.082 82.0218C421.036 79.9189 420.978 77.8166 420.918 75.714C420.886 74.4519 420.855 73.1898 420.822 71.8895C420.409 67.1658 420.007 62.7054 416.504 59.3116C410.783 57.2856 405.567 57.2738 400.066 59.8741C396.283 63.3809 394.7 66.644 394.071 71.776C394.045 73.0433 394.019 74.3106 393.992 75.6163C393.974 76.2959 393.956 76.9755 393.938 77.6757C393.884 79.8251 393.85 81.9743 393.816 84.1241C393.783 85.5903 393.748 87.0565 393.713 88.5226C393.628 92.0979 393.561 95.6733 393.504 99.2491C390.534 99.2491 387.564 99.2491 384.504 99.2491C384.504 82.7491 384.504 66.2491 384.504 49.2491C387.474 49.2491 390.444 49.2491 393.504 49.2491C393.834 50.5691 394.164 51.8891 394.504 53.2491C395.411 52.6098 396.319 51.9704 397.254 51.3116C405.456 46.106 415.46 47.1143 423.504 52.2491Z" fill="black"/>
<path d="M325.504 31.2491C328.804 31.2491 332.104 31.2491 335.504 31.2491C335.504 37.1891 335.504 43.1291 335.504 49.2491C340.784 49.2491 346.064 49.2491 351.504 49.2491C351.504 52.2191 351.504 55.1891 351.504 58.2491C346.224 58.2491 340.944 58.2491 335.504 58.2491C335.504 69.1391 335.504 80.0291 335.504 91.2491C340.124 91.2491 344.744 91.2491 349.504 91.2491C349.504 93.8891 349.504 96.5291 349.504 99.2491C346.421 99.3656 343.338 99.4365 340.254 99.4991C339.381 99.5327 338.508 99.5662 337.609 99.6007C331.153 99.6993 331.153 99.6993 327.957 97.4835C325.115 93.1139 325.369 88.7177 325.406 83.6398C325.407 82.913 325.409 82.1862 325.41 81.4373C325.416 79.1246 325.428 76.8119 325.441 74.4991C325.446 72.9275 325.451 71.3559 325.455 69.7843C325.465 65.9392 325.485 62.0943 325.504 58.2491C320.554 58.2491 315.604 58.2491 310.504 58.2491C310.504 55.2791 310.504 52.3091 310.504 49.2491C315.454 49.2491 320.404 49.2491 325.504 49.2491C325.504 43.3091 325.504 37.3691 325.504 31.2491Z" fill="black"/>
<path d="M361.504 49.2491C364.474 49.2491 367.444 49.2491 370.504 49.2491C370.504 65.7491 370.504 82.2491 370.504 99.2491C367.534 99.2491 364.564 99.2491 361.504 99.2491C361.504 82.7491 361.504 66.2491 361.504 49.2491Z" fill="black"/>
<path d="M369.504 31.2491C371.379 32.3116 371.379 32.3116 372.504 34.2491C372.869 37.6585 373.118 40.1294 371.441 43.1866C368.384 44.8632 365.913 44.6144 362.504 44.2491C360.566 43.1866 360.566 43.1866 359.504 41.2491C359.066 37.7491 359.066 37.7491 359.504 34.2491C362.352 30.8525 365.24 30.7049 369.504 31.2491Z" fill="black"/>
<defs>
<clipPath id="clip0_1_21">
<rect width="155.17" height="147.748" fill="white"/>
</clipPath>
</defs>
</svg>
