<svg width="680" height="125" viewBox="0 0 680 125" fill="none" xmlns="http://www.w3.org/2000/svg">
<path d="M588.802 113.704C588.162 114.102 576.514 114.135 575.299 113.704C572.415 112.709 574.238 108.355 572.923 108.311C571.453 108.267 562.867 112.875 559.408 113.582C545.142 116.522 523.152 111.284 520.511 94.4428C515.582 62.9601 549.164 54.849 573.487 61.9103C571.707 50.02 563.873 48.4176 553.143 49.8542C548.667 50.4509 538.633 56.3298 535.584 54.2633C533.561 52.8931 528.92 42.3399 531.992 39.7541C536.092 36.3063 553.938 32.4497 559.486 32.505C571.398 32.6265 583.786 39.7983 587.918 51.346C591.488 61.3135 590.968 95.9899 590.106 107.814C590.018 109.107 589.598 113.184 588.791 113.693L588.802 113.704ZM547.794 76.5521C536.666 78.4196 530.566 92.1664 543.341 97.0507C553.176 100.808 577.52 92.3322 573.354 80.2982C571.984 76.3311 552.049 75.8449 547.794 76.5521Z" fill="white"/>
<path d="M79.542 13.2993C86.6806 14.1723 96.2393 13.8408 98.0737 22.9464C99.3334 29.2009 96.8471 54.8159 94.7144 61.0704C91.2445 71.3142 76.2711 71.4468 66.8783 71.911C58.4357 72.3309 32.4118 71.9552 26.102 67.2698C24.6765 66.2089 23.472 64.4961 22.7427 62.8938C20.179 57.2138 17.7589 29.1346 19.0076 22.9353C20.7205 14.4264 29.4503 14.2496 36.4342 13.2883C50.192 11.3986 65.751 11.6086 79.531 13.2883L79.542 13.2993ZM38.3459 23.4326C29.7155 25.9521 32.9422 39.3784 42.2578 37.4114C51.1534 35.5439 47.9598 20.6258 38.3459 23.4326ZM73.7074 23.4326C65.7953 25.72 68.2043 39.4005 77.6193 37.4114C86.4596 35.5439 83.7302 20.5263 73.7074 23.4326ZM41.5837 46.6164C36.6442 48.2409 42.8435 54.7938 44.7 56.4182C51.6065 62.5181 59.4855 63.5568 67.7402 59.5013C70.779 58.0095 80.1277 50.6609 75.7517 47.4784C72.525 45.1357 69.3646 47.5226 65.7732 47.5999C57.629 47.7657 49.6837 47.0806 41.5948 46.6164H41.5837Z" fill="white"/>
<path d="M601.908 32.3171C604.273 31.621 614.307 31.7094 616.572 32.6597C620.816 34.4388 632.153 53.6777 637.038 57.479C639.005 57.479 652.475 35.6875 657.072 33.3338C661.238 31.201 678.554 29.6871 673.04 38.2512L647.801 71.3363L679.074 110.61C681.24 116.831 664.056 115.848 660.84 113.273C656.962 110.532 639.889 85.5804 638.132 85.1383C634.783 84.2985 618.23 112.311 613.257 114.4C609.931 115.803 592.77 116.931 597.289 109.483L626.396 71.1264L599.444 36.45C598.295 34.7593 600.284 32.8034 601.919 32.3171H601.908Z" fill="white"/>
<path d="M388.944 106.134C381.463 109.571 374.81 114.113 366.29 114.964C323.746 119.185 323.801 68.4521 359.793 64.264C368.578 63.2363 379.352 63.9877 387.839 66.3525C388.48 47.843 375.142 41.5774 358.82 47.8209C355.649 49.0365 352.566 51.9206 350.3 52.661C345.527 54.2081 339.471 45.8871 344.797 41.5332C357.539 31.1016 383.352 29.6982 393.861 44.329C401.906 55.5231 402.757 93.8682 401.144 107.825C399.862 118.909 386.579 117.174 388.955 106.145L388.944 106.134ZM388.811 78.6517C377.02 73.3033 341.979 73.1596 345.195 92.8847C347.715 108.366 368.887 103.283 378.247 98.1668C387.596 93.0615 390.712 90.1663 388.822 78.6406L388.811 78.6517Z" fill="white"/>
<path d="M267.389 76.2869C267.157 99.9791 293.236 110.974 311.038 95.0727C313.027 93.2936 315.889 87.8789 317.834 87.5252C319.072 87.2932 324.144 90.0669 324.94 91.1277C329.459 97.1391 314.066 108.499 309.049 110.764C272.03 127.462 242.15 86.8843 259.477 53.4567C271.743 29.7755 307.403 24.0403 321.017 49.7548C323.647 54.7164 328.553 69.0599 324.973 73.6348C322.774 76.4416 274.804 75.1266 267.4 76.2869H267.389ZM313.812 63.0153C307.977 36.4169 275.445 40.3619 268.494 63.5678L313.812 63.0153Z" fill="white"/>
<path d="M482.884 13.2993V36.5053H509.957C513.637 36.5053 513.637 53.0809 509.957 53.0809H482.884C484.188 63.0485 479.127 92.2106 488.497 97.7469C496.874 102.698 509.991 95.1721 514.256 98.2773C515.284 99.0177 518.477 111.549 514.676 113.129C512.598 113.991 501.437 115.781 498.752 115.936C481.79 116.942 468.938 107.317 467.369 90.1442C465.214 66.673 469.038 39.9309 467.446 16.0951C468.629 9.88469 478.342 12.1832 482.884 13.2993Z" fill="white"/>
<path d="M32.235 118.069C31.8704 110.356 25.881 92.4206 29.7487 85.9009C31.4946 82.9614 46.5343 79.0385 50.3909 78.6407C58.6788 77.7677 85.9734 78.7844 89.7527 87.6247C91.6865 92.1333 88.2498 114.024 85.5646 118.235C78.9785 128.545 41.9815 125.915 32.235 118.069Z" fill="white"/>
<path d="M218.468 59.4239C217.982 59.9543 214.291 61.6119 213.507 61.7334C207.816 62.6064 207.971 57.5785 204.976 54.1639C182.864 28.8804 145.955 65.1591 167.957 92.288C176.598 102.952 188.013 105.107 200.39 99.3603C205.584 96.9513 214.833 85.6908 219.032 95.371C221.552 101.184 215.651 104.267 211.363 107.018C172.952 131.716 132.485 87.8015 156.42 50.9703C167.692 33.6321 189.583 28.1069 207.186 39.7983C211.507 42.6714 223.154 54.3296 218.457 59.4349L218.468 59.4239Z" fill="white"/>
<path d="M424.316 113.306C423.443 116.113 412.05 116.179 412.194 111.063L412.713 36.4942C420.924 30.2839 426.162 36.1074 424.327 45.3456C429.974 39.2679 450.23 31.3005 457.479 34.8477C460.706 36.4279 460.695 44.3732 457.479 45.9092C454.97 47.1137 447.313 47.0916 443.323 48.3293C437.931 50.0089 431.93 54.5617 428.913 59.3355C428.118 60.6063 424.316 69.513 424.316 70.2092V113.306Z" fill="white"/>
<path d="M232.038 13.8518C233.276 9.44268 244.194 10.7356 244.194 13.8518V112.201C244.194 115.56 232.038 115.56 232.038 112.201V13.8518Z" fill="white"/>
<path d="M15.151 89.7906C26.3672 87.5363 24.9638 103.438 22.6874 110.61C18.9855 122.268 -0.142851 106.223 0.000804927 101.128C0.100259 97.327 11.7806 90.4757 15.162 89.7906H15.151Z" fill="white"/>
<path d="M102.416 63.2143C107.5 61.6672 121.644 68.5074 122.451 73.7674C123.368 79.7015 105.732 90.0006 100.98 86.3208C96.9796 83.2156 96.9022 64.8829 102.405 63.2143H102.416Z" fill="white"/>
<path d="M79.542 13.2993C65.7621 11.6196 50.203 11.4097 36.4452 13.2993C43.9816 -4.06098 72.9338 -4.80136 79.542 13.2993Z" fill="white"/>
<path d="M41.5837 46.6164C49.6726 47.0806 54.1259 47.7878 62.2701 47.622C65.8505 47.5447 72.5139 45.1357 75.7406 47.4784C80.1166 50.6609 70.7679 58.0095 67.729 59.5013C59.4743 63.5568 51.5954 62.507 44.6888 56.4182C42.8324 54.7827 36.6441 48.2409 41.5726 46.6164H41.5837Z" fill="#ACACAC"/>
<path d="M38.3459 23.4326C47.9709 20.6258 51.1534 35.5439 42.2578 37.4115C32.9312 39.3674 29.7045 25.9521 38.3459 23.4326Z" fill="#ACACAC"/>
<path d="M73.7074 23.4326C83.7301 20.5263 86.4706 35.5439 77.6192 37.4114C68.1932 39.4005 65.7952 25.72 73.7074 23.4326Z" fill="#ACACAC"/>
</svg>
