<svg width="760" height="125" viewBox="0 0 760 125" fill="none" xmlns="http://www.w3.org/2000/svg">
<path d="M57.0845 93.9425C51.1526 96.1857 44.47 97.3026 36.952 97.3026C12.333 97.3026 0 85.392 0 61.5615C0 38.998 12.333 27.7351 36.952 27.7351C44.47 27.7351 51.1996 28.852 57.0845 31.0952V42.5834C51.1526 40.0117 44.7516 38.754 37.8812 38.754C21.3903 38.754 13.1683 46.3659 13.1683 61.5521C13.1683 78.0429 21.3903 86.2649 37.8812 86.2649C44.7516 86.2649 51.1526 85.0072 57.0845 82.4355V93.9237V93.9425ZM63.7201 62.6033C63.7201 39.3359 75.2084 27.7069 98.1473 27.7069C121.086 27.7069 132.058 39.3359 132.058 62.6033C132.058 85.8707 120.758 97.312 98.1473 97.312C75.5369 97.312 64.7431 85.7299 63.7201 62.6033ZM98.1943 86.2367C112.02 86.2367 118.937 78.2494 118.937 62.3217C118.937 46.394 112.02 38.7728 98.1943 38.7728C84.369 38.7728 76.9353 46.6193 76.9353 62.3217C76.9353 78.2494 83.9936 86.2367 98.1943 86.2367ZM142.063 96.7957V28.2137H155.241L178.508 80.258L201.353 28.2137H214.062V96.8427H202.292V49.0033L183.699 96.7957H172.858L153.842 49.0033V96.7957H142.073H142.063ZM228.441 96.7957V28.2137H241.618L264.886 80.258L287.684 28.2137H300.392V96.8427H288.623V49.0033L270.029 96.7957H259.189L240.173 49.0033V96.7957H228.45H228.441ZM378.21 28.2137L348.128 96.8427H334.444L305.667 28.2137H320.806L342.065 80.7648L363.277 28.2137H378.229H378.21ZM364.009 96.7957L393.115 28.1668H406.799L436.561 96.7957H422.877L414.233 78.0617H392.739L397.085 67.0334H410.863L399.647 41.2975L377.037 96.7957H364H364.009ZM438.279 69.8397V28.2137H450.987V69.8397C450.987 80.7742 456.591 86.2367 467.76 86.2367C478.929 86.2367 484.532 80.7742 484.532 69.8397V28.2137H497.241V69.8397C497.241 88.1514 487.386 97.312 467.713 97.312C448.04 97.312 438.279 88.1514 438.279 69.8397ZM522.976 28.2137V85.7674H555.02V96.7957H510.268V28.2137H522.976ZM600.203 28.2137V39.2421H580.54V96.7957H567.831V39.2421H548.121V28.2137H600.212H600.203Z" fill="white"/>
<path d="M612.441 30.41C613.239 30.41 613.793 30.5507 614.169 30.8793C614.544 31.2078 614.732 31.677 614.732 32.2777C614.732 32.8784 614.591 33.3008 614.215 33.5824C613.887 33.8639 613.465 34.0047 613.005 34.0517L614.872 36.9519H613.802L612.029 34.1455H610.958V36.9519H609.936V30.363L612.46 30.41H612.441ZM611.972 33.3571H612.629C612.817 33.3571 613.005 33.3102 613.192 33.2163C613.333 33.1694 613.474 33.0286 613.568 32.8878C613.662 32.747 613.709 32.5593 613.709 32.2777C613.709 32.0431 613.662 31.8554 613.568 31.7615C613.474 31.6207 613.38 31.5269 613.239 31.4799C613.099 31.433 612.958 31.3861 612.77 31.3392C612.582 31.3392 612.395 31.2922 612.254 31.2922H610.902V33.3946L611.972 33.3477V33.3571Z" fill="white"/>
<path d="M612.113 28.1199C609.035 28.1199 606.51 30.6447 606.51 33.7232C606.51 36.8017 609.035 39.3265 612.113 39.3265C615.192 39.3265 617.716 36.8017 617.716 33.7232C617.716 30.6447 615.192 28.1199 612.113 28.1199ZM612.113 38.4912C609.447 38.4912 607.298 36.3418 607.298 33.6763C607.298 31.0107 609.447 28.8614 612.113 28.8614C614.779 28.8614 616.928 31.0107 616.928 33.6763C616.881 36.3888 614.732 38.4912 612.113 38.4912Z" fill="white"/>
<path d="M704.704 0L649.535 31.8554V93.1446L704.704 125L759.874 93.1446V31.8554L704.704 0ZM750.291 87.6352L704.648 113.981L659.005 87.6352V37.3648L704.648 11.0189L750.291 37.3648V87.6352Z" fill="white"/>
<path d="M701.522 101.282C701.522 101.751 701.006 102.033 700.584 101.798L668.447 83.252C667.884 82.9235 667.508 82.3134 667.508 81.6658V45.7839C667.508 45.3146 668.025 45.033 668.447 45.2677L700.584 63.814C701.147 64.1425 701.522 64.7526 701.522 65.4002V101.282ZM736.654 40.3589L705.915 58.1075C705.164 58.5298 704.235 58.5298 703.484 58.1075L672.746 40.3589C672.323 40.1243 672.323 39.5142 672.746 39.2889L703.484 21.5404C704.235 21.118 705.164 21.118 705.915 21.5404L736.654 39.2889C737.076 39.5236 737.076 40.1337 736.654 40.3589ZM736.654 85.6735L708.768 101.789C708.346 102.024 707.83 101.742 707.83 101.273V69.0888C707.83 68.6196 708.346 68.338 708.768 68.5726L736.654 84.688C737.076 84.8757 737.076 85.4389 736.654 85.6735Z" fill="white"/>
</svg>
