<svg width="595" height="126" viewBox="0 0 595 126" fill="none" xmlns="http://www.w3.org/2000/svg">
<path d="M193.33 30.0699C207.8 30.0699 219.57 37.6599 223.96 50.7299H208.93C205.85 44.5999 200.25 41.5899 193.25 41.5899C181.86 41.5899 173.74 49.7199 173.74 62.6999C173.74 75.6799 181.86 83.81 193.25 83.81C200.25 83.81 205.86 80.7899 208.93 74.5799H223.96C219.57 87.7399 207.81 95.2399 193.33 95.2399C174.56 95.2399 160.28 81.8099 160.28 62.7099C160.28 43.6099 174.56 30.0799 193.33 30.0799V30.0699Z" fill="white"/>
<path d="M265.41 95.33C247.02 95.33 231.98 81.8 231.98 62.61C231.98 43.42 247.01 29.98 265.41 29.98C283.81 29.98 298.75 43.51 298.75 62.61C298.75 81.71 283.91 95.33 265.41 95.33ZM265.41 83.9C277.18 83.9 285.3 75.58 285.3 62.61C285.3 49.64 277.18 41.5 265.41 41.5C253.64 41.5 245.43 49.63 245.43 62.61C245.43 75.59 253.55 83.9 265.41 83.9Z" fill="white"/>
<path d="M332.92 30.89C348.61 30.89 356.45 39.75 356.45 50.45C356.45 58.22 352.06 66.08 341.61 68.82L357.21 94.68H342.08L327.7 69.82H321.54V94.68H308.47V30.89H332.93H332.92ZM332.45 41.49H321.52V60.22H332.45C339.73 60.22 343 56.47 343 50.72C343 44.97 339.73 41.49 332.45 41.49Z" fill="white"/>
<path d="M406.12 41.2201H381.38V57.2201H403.32V67.3601H381.38V84.2701H406.12V94.69H368.3V30.8H406.12V41.2201Z" fill="white"/>
<path d="M475.12 62.88C475.12 82.16 461.58 94.68 440.76 94.68H417.98V30.89H440.76C461.58 30.89 475.12 43.5 475.12 62.88ZM440.29 83.81C454.02 83.81 461.77 76.13 461.77 62.88C461.77 49.63 454.02 41.68 440.29 41.68H431.05V83.81H440.29Z" fill="white"/>
<path d="M545.33 50.09H530.3C527.31 44.7 521.9 41.86 514.99 41.86C503.32 41.86 495.19 49.99 495.19 62.7C495.19 75.41 503.41 83.72 515.55 83.72C525.63 83.72 532.08 78.05 534.04 69.01H511.63V59.23H546.92V70.38C544.3 83.36 532.45 95.24 515.09 95.24C496.14 95.24 481.75 81.81 481.75 62.71C481.75 43.61 496.13 30.08 514.99 30.08C529.55 30.08 541.13 37.3 545.33 50.1V50.09Z" fill="white"/>
<path d="M594.44 41.2201H569.7V57.2201H591.64V67.3601H569.7V84.2701H594.44V94.69H556.63V30.8H594.44V41.2201Z" fill="white"/>
<path d="M76.2 55.42C73.79 51.98 69.73 49.73 65.12 49.73C57.72 49.73 51.72 55.55 51.72 62.73C51.72 69.91 57.72 75.73 65.12 75.73C71.75 75.73 77.24 71.05 78.32 64.92L128.02 64.9V62.64C128.02 28.1 99.3 0 64.01 0C28.72 0 0 28.11 0 62.66C0 97.21 28.71 125.29 64.01 125.31C103 125.33 119.82 93.38 119.82 93.38L95.73 82.45L93.72 85.86C86.43 96.99 78.88 100.75 63.85 100.75C42.41 100.75 24.96 83.66 24.96 62.66C24.96 41.66 42.4 24.58 63.85 24.58C74.23 24.58 84 28.54 91.34 35.73L76.2 55.43V55.42Z" fill="white"/>
</svg>
