<svg width="338" height="172" viewBox="0 0 338 172" fill="none" xmlns="http://www.w3.org/2000/svg">
<path d="M99.0172 121.917C85.2052 121.917 73.9756 133.156 73.9756 146.958C73.9756 160.76 85.2052 171.999 99.0172 171.999C112.829 171.999 124.068 160.76 124.068 146.958C124.068 133.156 112.829 121.917 99.0172 121.917Z" fill="#626262"/>
<path d="M29.0193 121.917C15.1977 121.917 3.96826 133.156 3.96826 146.958C3.96826 160.76 15.1977 171.999 29.0193 171.999C42.8409 171.999 54.0609 160.76 54.0609 146.958C54.0609 133.156 42.8217 121.917 29.0193 121.917Z" fill="#454545"/>
<path d="M169.014 121.917C155.202 121.917 143.963 133.156 143.963 146.958C143.963 160.76 155.202 171.999 169.014 171.999C182.826 171.999 194.056 160.76 194.056 146.958C194.056 133.156 182.816 121.917 169.014 121.917Z" fill="#808080"/>
<path d="M309.019 121.917C295.217 121.917 283.959 133.156 283.959 146.958C283.959 160.76 295.207 171.999 309.019 171.999C322.831 171.999 334.061 160.76 334.061 146.958C334.061 133.156 322.822 121.917 309.019 121.917Z" fill="#7B7B7B"/>
<path d="M239.022 121.917C225.21 121.917 213.97 133.156 213.97 146.958C213.97 160.76 225.209 171.999 239.012 171.999C252.814 171.999 264.063 160.77 264.063 146.958C264.063 133.146 252.834 121.917 239.022 121.917Z" fill="#595959"/>
<path d="M49.9001 50.9345C49.9001 39.2173 41.062 30.3886 29.3543 30.3886C17.6466 30.3886 8.79861 39.2077 8.79861 50.9345C8.79861 62.6614 17.6466 71.4708 29.3543 71.4708C41.062 71.4708 49.9001 62.6518 49.9001 50.9345ZM0.180664 50.9345C0.180664 34.6929 13.2177 22.4209 29.3445 22.4209C45.4713 22.4209 58.5088 34.5782 58.5088 50.8197V75.7847C58.5088 78.329 56.7393 80.0986 54.0802 80.0986C51.4211 80.0986 49.6704 78.329 49.6704 75.7847V68.4865H49.2304C45.8061 74.3595 38.9578 79.429 28.7901 79.429C13.1033 79.429 0.180664 67.2718 0.180664 50.925" fill="#454545"/>
<path d="M119.726 50.9344C119.726 39.2172 110.888 30.3886 99.1799 30.3886C87.4722 30.3886 78.6242 39.2172 78.6242 50.9344C78.6242 62.6517 87.4626 71.4708 99.1799 71.4708C110.897 71.4708 119.726 62.6421 119.726 50.9344ZM81.2836 97.8992C78.9592 96.7896 77.8591 94.8001 78.7391 92.4853C79.6191 90.0558 81.8285 89.061 84.1624 90.161C88.1415 92.0453 93.1062 93.3653 98.4148 93.3653C111.557 93.3653 119.515 85.5219 119.515 72.1594V68.5056H119.075C115.651 74.369 108.803 79.4481 98.6348 79.4481C82.948 79.4481 70.0254 67.2908 70.0254 50.944C70.0254 34.5972 83.0624 22.4399 99.1892 22.4399C115.316 22.4399 128.353 34.5876 128.353 50.8388V71.6047C128.353 89.501 116.866 101.553 98.0893 101.553C92.3407 101.553 86.592 100.453 81.2929 97.9087" fill="#454545"/>
<path d="M189.551 50.9345C189.551 39.2173 180.703 30.3886 169.005 30.3886C157.307 30.3886 148.449 39.2077 148.449 50.9345C148.449 62.6614 157.287 71.4708 169.005 71.4708C180.722 71.4708 189.551 62.6518 189.551 50.9345ZM139.831 50.9345C139.831 34.693 152.763 22.4209 169.005 22.4209C185.246 22.4209 198.168 34.693 198.168 50.9345C198.168 67.1761 185.237 79.4386 169.005 79.4386C152.773 79.4386 139.831 67.1761 139.831 50.9345Z" fill="#454545"/>
<path d="M259.377 50.9343C259.377 39.217 250.539 30.3884 238.831 30.3884C227.123 30.3884 218.285 39.2074 218.285 50.9343C218.285 62.6611 227.123 71.4706 238.831 71.4706C250.539 71.4706 259.377 62.6515 259.377 50.9343ZM209.657 50.9343C209.657 34.6927 222.474 22.4206 238.276 22.4206C248.434 22.4206 255.283 27.5093 258.707 33.3631H259.157V4.31387C259.157 1.76955 260.926 0 263.576 0C266.226 0 267.985 1.76955 267.985 4.31387V51.0395C267.985 67.2811 255.063 79.4288 238.821 79.4288C222.58 79.4288 209.647 67.1663 209.647 50.9247" fill="#454545"/>
<path d="M329.201 50.9345C329.201 39.2173 320.373 30.3886 308.656 30.3886C296.938 30.3886 288.11 39.2077 288.11 50.9345C288.11 62.6614 296.948 71.4708 308.656 71.4708C320.363 71.4708 329.201 62.6518 329.201 50.9345ZM279.482 50.9345C279.482 34.6929 292.529 22.4209 308.646 22.4209C324.763 22.4209 337.819 34.5782 337.819 50.8197V75.7847C337.819 78.329 336.041 80.0986 333.401 80.0986C330.761 80.0986 328.972 78.329 328.972 75.7847V68.4865H328.532C325.107 74.3595 318.269 79.429 308.091 79.429C292.405 79.429 279.472 67.2718 279.472 50.925" fill="#454545"/>
</svg>
