<svg width="277" height="141" viewBox="0 0 277 141" fill="none" xmlns="http://www.w3.org/2000/svg">
<path d="M81.023 99.9436C69.7003 99.9436 60.4946 109.157 60.4946 120.472C60.4946 131.787 69.7003 141 81.023 141C92.3456 141 101.559 131.787 101.559 120.472C101.559 109.157 92.3456 99.9436 81.023 99.9436Z" fill="#626262"/>
<path d="M23.641 99.9436C12.3105 99.9436 3.10498 109.157 3.10498 120.472C3.10498 131.787 12.3105 141 23.641 141C34.9715 141 44.1693 131.787 44.1693 120.472C44.1693 109.157 34.9558 99.9436 23.641 99.9436Z" fill="#454545"/>
<path d="M138.404 99.9436C127.081 99.9436 117.868 109.157 117.868 120.472C117.868 131.787 127.081 141 138.404 141C149.727 141 158.932 131.787 158.932 120.472C158.932 109.157 149.719 99.9436 138.404 99.9436Z" fill="#808080"/>
<path d="M253.176 99.9436C241.861 99.9436 232.632 109.157 232.632 120.472C232.632 131.787 241.853 141 253.176 141C264.499 141 273.704 131.787 273.704 120.472C273.704 109.157 264.491 99.9436 253.176 99.9436Z" fill="#7B7B7B"/>
<path d="M195.794 99.9436C184.472 99.9436 175.258 109.157 175.258 120.472C175.258 131.787 184.471 141 195.786 141C207.101 141 216.322 131.794 216.322 120.472C216.322 109.149 207.117 99.9436 195.794 99.9436Z" fill="#595959"/>
<path d="M40.7584 41.7542C40.7584 32.1487 33.5132 24.9113 23.9156 24.9113C14.318 24.9113 7.06471 32.1409 7.06471 41.7542C7.06471 51.3675 14.318 58.5892 23.9156 58.5892C33.5132 58.5892 40.7584 51.3596 40.7584 41.7542ZM0 41.7542C0 28.4399 10.6873 18.3796 23.9075 18.3796C37.1278 18.3796 47.8155 28.3458 47.8155 41.6601V62.1255C47.8155 64.2113 46.3649 65.6619 44.1851 65.6619C42.0052 65.6619 40.57 64.2113 40.57 62.1255V56.1427H40.2094C37.4022 60.9572 31.7882 65.113 23.4531 65.113C10.5935 65.113 0 55.1469 0 41.7463" fill="#454545"/>
<path d="M97.9991 41.7544C97.9991 32.1489 90.7538 24.9115 81.1562 24.9115C71.5586 24.9115 64.3054 32.1489 64.3054 41.7544C64.3054 51.3598 71.5508 58.5894 81.1562 58.5894C90.7617 58.5894 97.9991 51.352 97.9991 41.7544ZM66.4854 80.2545C64.58 79.345 63.6782 77.714 64.3995 75.8164C65.1209 73.8248 66.9322 73.0093 68.8454 73.911C72.1074 75.4557 76.1772 76.5378 80.5291 76.5378C91.3029 76.5378 97.8264 70.1081 97.8264 59.1539V56.1586H97.4657C94.6586 60.9652 89.0446 65.1289 80.7094 65.1289C67.8499 65.1289 57.2563 55.1628 57.2563 41.7622C57.2563 28.3616 67.9437 18.3955 81.1639 18.3955C94.3841 18.3955 105.072 28.3538 105.072 41.676V58.6991C105.072 73.37 95.6545 83.2499 80.2622 83.2499C75.5497 83.2499 70.8371 82.3481 66.4931 80.2624" fill="#454545"/>
<path d="M155.239 41.7542C155.239 32.1487 147.986 24.9113 138.397 24.9113C128.807 24.9113 121.546 32.1409 121.546 41.7542C121.546 51.3675 128.791 58.5892 138.397 58.5892C148.002 58.5892 155.239 51.3596 155.239 41.7542ZM114.481 41.7542C114.481 28.4399 125.082 18.3796 138.397 18.3796C151.711 18.3796 162.304 28.4399 162.304 41.7542C162.304 55.0685 151.703 65.1209 138.397 65.1209C125.09 65.1209 114.481 55.0685 114.481 41.7542Z" fill="#454545"/>
<path d="M212.48 41.7543C212.48 32.1488 205.235 24.9114 195.637 24.9114C186.04 24.9114 178.795 32.141 178.795 41.7543C178.795 51.3675 186.04 58.5893 195.637 58.5893C205.235 58.5893 212.48 51.3597 212.48 41.7543ZM171.722 41.7543C171.722 28.4399 182.229 18.3797 195.183 18.3797C203.51 18.3797 209.124 22.5512 211.931 27.35H212.3V3.53637C212.3 1.45062 213.751 0 215.923 0C218.095 0 219.537 1.45062 219.537 3.53637V41.8405C219.537 55.1548 208.944 65.1131 195.629 65.1131C182.315 65.1131 171.714 55.0607 171.714 41.7464" fill="#454545"/>
<path d="M269.721 41.7542C269.721 32.1487 262.483 24.9113 252.878 24.9113C243.272 24.9113 236.035 32.1409 236.035 41.7542C236.035 51.3675 243.28 58.5892 252.878 58.5892C262.475 58.5892 269.721 51.3596 269.721 41.7542ZM228.962 41.7542C228.962 28.4399 239.657 18.3796 252.87 18.3796C266.082 18.3796 276.785 28.3458 276.785 41.6601V62.1255C276.785 64.2113 275.327 65.6619 273.163 65.6619C270.999 65.6619 269.532 64.2113 269.532 62.1255V56.1427H269.172C266.364 60.9572 260.758 65.113 252.415 65.113C239.556 65.113 228.954 55.1469 228.954 41.7463" fill="#454545"/>
</svg>
