<svg width="490" height="153" viewBox="0 0 490 153" fill="none" xmlns="http://www.w3.org/2000/svg">
<g clip-path="url(#clip0_2662_278)">
<path d="M258.179 38.6396C258.179 44.1418 253.747 48.5741 248.245 48.5741C242.742 48.5741 238.31 44.1418 238.31 38.6396C238.31 33.1373 242.589 28.705 248.245 28.705C253.9 28.8578 258.179 33.2902 258.179 38.6396ZM217.218 58.6615C217.218 59.5786 217.218 61.107 217.218 61.107C217.218 61.107 212.48 54.9934 202.393 54.9934C185.733 54.9934 172.742 67.6791 172.742 85.2556C172.742 102.679 185.58 115.518 202.393 115.518C212.633 115.518 217.218 109.251 217.218 109.251V111.85C217.218 113.072 218.135 113.989 219.358 113.989H231.738V56.5218C231.738 56.5218 220.428 56.5218 219.358 56.5218C218.135 56.5218 217.218 57.5917 217.218 58.6615ZM217.218 95.4959C214.926 98.8583 210.34 101.762 204.838 101.762C195.056 101.762 187.567 95.6487 187.567 85.2556C187.567 74.8625 195.056 68.7489 204.838 68.7489C210.188 68.7489 215.078 71.8057 217.218 75.0154V95.4959ZM240.908 56.5218H255.581V113.989H240.908V56.5218ZM460.08 54.9934C449.993 54.9934 445.255 61.107 445.255 61.107V28.8578H430.582V113.989C430.582 113.989 441.892 113.989 442.962 113.989C444.185 113.989 445.102 112.92 445.102 111.85V109.251C445.102 109.251 449.84 115.518 459.927 115.518C476.587 115.518 489.578 102.679 489.578 85.2556C489.578 67.8319 476.587 54.9934 460.08 54.9934ZM457.635 101.609C451.98 101.609 447.547 98.7055 445.255 95.343V74.8625C447.547 71.8057 452.438 68.5961 457.635 68.5961C467.416 68.5961 474.905 74.7097 474.905 85.1028C474.905 95.4959 467.416 101.609 457.635 101.609ZM422.94 79.9062V114.142H408.267V81.5875C408.267 72.1114 405.211 68.2904 396.957 68.2904C392.525 68.2904 387.94 70.583 385.036 73.9455V113.989H370.363V56.5218H381.979C383.202 56.5218 384.119 57.5917 384.119 58.6615V61.107C388.398 56.6746 394.053 54.9934 399.708 54.9934C406.128 54.9934 411.477 56.8275 415.757 60.4956C420.953 64.7751 422.94 70.2773 422.94 79.9062ZM334.752 54.9934C324.664 54.9934 319.926 61.107 319.926 61.107V28.8578H305.254V113.989C305.254 113.989 316.564 113.989 317.634 113.989C318.856 113.989 319.773 112.92 319.773 111.85V109.251C319.773 109.251 324.511 115.518 334.599 115.518C351.258 115.518 364.25 102.679 364.25 85.2556C364.403 67.8319 351.411 54.9934 334.752 54.9934ZM332.306 101.609C326.651 101.609 322.219 98.7055 319.926 95.343V74.8625C322.219 71.8057 327.11 68.5961 332.306 68.5961C342.088 68.5961 349.577 74.7097 349.577 85.1028C349.577 95.4959 342.088 101.609 332.306 101.609ZM292.568 54.9934C297 54.9934 299.293 55.7576 299.293 55.7576V69.3603C299.293 69.3603 287.066 65.2336 279.424 73.9455V114.142H264.751V56.5218C264.751 56.5218 276.061 56.5218 277.131 56.5218C278.354 56.5218 279.271 57.5917 279.271 58.6615V61.107C282.022 57.8973 287.983 54.9934 292.568 54.9934ZM140.187 108.793C139.423 106.959 138.659 104.972 137.894 103.291C136.672 100.54 135.449 97.9413 134.379 95.4959L134.226 95.343C123.68 72.4171 112.37 49.1855 100.449 26.2596L99.9902 25.3425C98.7675 23.0499 97.5448 20.6045 96.3221 18.1591C94.7937 15.408 93.2653 12.504 90.8199 9.7529C85.929 3.63932 78.8984 0.276855 71.4093 0.276855C63.7673 0.276855 56.8895 3.63932 51.8458 9.44723C49.5532 12.1983 47.872 15.1023 46.3436 17.8534C45.1209 20.2988 43.8982 22.7443 42.6754 25.0369L42.2169 25.9539C30.4483 48.8798 18.9853 72.1114 8.4394 95.0373L8.28656 95.343C7.21668 97.7885 5.99397 100.387 4.77125 103.138C4.00706 104.819 3.24286 106.653 2.47866 108.64C0.491748 114.295 -0.11961 119.644 0.644587 125.147C2.32582 136.61 9.9678 146.239 20.5137 150.518C24.4875 152.199 28.6142 152.964 32.8937 152.964C34.1164 152.964 35.6448 152.811 36.8675 152.658C41.9112 152.046 47.1078 150.365 52.1515 147.461C58.4179 143.946 64.3787 138.902 71.1036 131.566C77.8285 138.902 83.9421 143.946 90.0557 147.461C95.0994 150.365 100.296 152.046 105.34 152.658C106.562 152.811 108.091 152.964 109.313 152.964C113.593 152.964 117.872 152.199 121.693 150.518C132.392 146.239 139.881 136.457 141.563 125.147C142.785 119.797 142.174 114.448 140.187 108.793ZM71.2564 116.741C63.0031 106.347 57.6537 96.5657 55.8196 88.3124C55.0554 84.7971 54.9026 81.7403 55.3611 78.9892C55.6668 76.5438 56.5838 74.404 57.8066 72.5699C60.7105 68.4433 65.6014 65.845 71.2564 65.845C76.9115 65.845 81.9552 68.2904 84.7063 72.5699C85.929 74.404 86.8461 76.5438 87.1517 78.9892C87.6103 81.7403 87.4574 84.9499 86.6932 88.3124C84.8591 96.4129 79.5098 106.195 71.2564 116.741ZM132.239 123.924C131.17 131.872 125.82 138.749 118.331 141.806C114.663 143.335 110.689 143.793 106.715 143.335C102.894 142.876 99.0732 141.653 95.0994 139.361C89.5972 136.304 84.0949 131.566 77.6757 124.535C87.7631 112.155 93.8767 100.845 96.1693 90.7578C97.2391 86.0198 97.392 81.7403 96.9335 77.7665C96.3221 73.9455 94.9466 70.4302 92.8068 67.3734C88.0688 60.4956 80.1211 56.5218 71.2564 56.5218C62.3917 56.5218 54.4441 60.6485 49.7061 67.3734C47.5663 70.4302 46.1908 73.9455 45.5794 77.7665C44.968 81.7403 45.1209 86.1727 46.3436 90.7578C48.6362 100.845 54.9026 112.308 64.8372 124.688C58.5708 131.719 52.9157 136.457 47.4135 139.514C43.4396 141.806 39.6187 143.029 35.7977 143.487C31.671 143.946 27.6972 143.335 24.1819 141.959C16.6927 138.902 11.3434 132.024 10.2735 124.077C9.81496 120.256 10.1206 116.435 11.649 112.155C12.1075 110.627 12.8717 109.099 13.6359 107.265C14.7058 104.819 15.9285 102.221 17.1513 99.6225L17.3041 99.3169C27.85 76.5438 39.1601 53.3122 50.9288 30.6919L51.3873 29.7749C52.61 27.4823 53.8327 25.0369 55.0554 22.7443C56.2782 20.2988 57.6537 18.0062 59.3349 16.0193C62.5446 12.3512 66.8241 10.3643 71.5621 10.3643C76.3001 10.3643 80.5796 12.3512 83.7893 16.0193C85.4705 18.0062 86.8461 20.2988 88.0688 22.7443C89.2915 25.0369 90.5142 27.4823 91.7369 29.7749L92.1954 30.6919C103.811 53.465 115.121 76.6966 125.667 99.4697V99.6225C126.89 102.068 127.96 104.819 129.183 107.265C129.947 109.099 130.711 110.627 131.169 112.155C132.392 116.129 132.851 119.95 132.239 123.924Z" fill="white"/>
</g>
<defs>
<clipPath id="clip0_2662_278">
<rect width="489.239" height="152.687" fill="white" transform="translate(0.338867 0.276855)"/>
</clipPath>
</defs>
</svg>
