<svg width="605" height="119" viewBox="0 0 605 119" fill="none" xmlns="http://www.w3.org/2000/svg">
<path fill-rule="evenodd" clip-rule="evenodd" d="M243.176 92.3699C220.394 109.159 187.386 118.113 158.956 118.113C119.1 118.113 83.2124 103.369 56.0753 78.8573C53.9385 76.9342 55.8515 74.2988 58.4156 75.8048C87.7099 92.8481 123.933 103.105 161.347 103.105C186.582 103.105 214.34 97.8848 239.869 87.0483C243.725 85.4101 246.951 89.5718 243.176 92.3699Z" fill="#454545"/>
<path fill-rule="evenodd" clip-rule="evenodd" d="M252.639 81.5439C249.739 77.8198 233.398 79.7836 226.051 80.6587C223.813 80.9334 223.477 78.99 225.492 77.5858C238.506 68.4282 259.873 71.0635 262.366 74.1364C264.859 77.2297 261.715 98.6382 249.484 108.854C247.612 110.421 245.811 109.587 246.656 107.511C249.403 100.653 255.559 85.2782 252.649 81.5439" fill="#454545"/>
<path fill-rule="evenodd" clip-rule="evenodd" d="M226.57 12.902V3.99871C226.57 2.65559 227.598 1.75 228.819 1.75H268.695C269.977 1.75 270.995 2.67594 270.995 3.99871V11.6301C270.974 12.9121 269.906 14.5809 267.993 17.2264L247.327 46.7242C255.01 46.541 263.109 47.6806 270.069 51.6082C271.636 52.4935 272.063 53.7959 272.185 55.0678V64.5714C272.185 65.8636 270.751 67.3899 269.255 66.6064C256.984 60.1757 240.693 59.4736 227.13 66.6776C225.746 67.4306 224.301 65.9247 224.301 64.6324V55.6071C224.301 54.152 224.321 51.6795 225.766 49.4816L249.708 15.1507H228.88C227.598 15.1507 226.58 14.2451 226.58 12.9121" fill="#454545"/>
<path fill-rule="evenodd" clip-rule="evenodd" d="M81.1163 68.4688H68.9876C67.8277 68.3874 66.9017 67.5123 66.8203 66.4032V4.14146C66.8203 2.90009 67.8581 1.90293 69.1605 1.90293H80.4753C81.6556 1.9538 82.5918 2.85939 82.6732 3.98883V12.129H82.897C85.8478 4.26356 91.3932 0.590332 98.8719 0.590332C106.351 0.590332 111.204 4.26356 114.623 12.129C117.553 4.26356 124.229 0.590332 131.382 0.590332C136.469 0.590332 142.025 2.68641 145.423 7.3975C149.259 12.6377 148.476 20.2487 148.476 26.9134L148.455 66.2099C148.455 67.4513 147.418 68.4586 146.115 68.4586H133.997C132.786 68.3772 131.809 67.4004 131.809 66.2099V33.2119C131.809 30.5867 132.043 24.0339 131.463 21.541C130.557 17.359 127.851 16.1787 124.33 16.1787C121.4 16.1787 118.327 18.1425 117.075 21.2764C115.834 24.4205 115.946 29.6709 115.946 33.2017V66.1997C115.946 67.4411 114.908 68.4484 113.606 68.4484H101.487C100.256 68.367 99.2994 67.3902 99.2994 66.1997L99.2791 33.2017C99.2791 26.2622 100.419 16.0362 91.8104 16.0362C83.2022 16.0362 83.4363 25.9977 83.4363 33.2017V66.1997C83.4363 67.4411 82.3985 68.4484 81.0961 68.4484" fill="#454545"/>
<path fill-rule="evenodd" clip-rule="evenodd" d="M305.326 0.600098C323.326 0.600098 333.074 16.0562 333.074 35.7145C333.074 55.3729 322.308 69.7708 305.326 69.7708C288.344 69.7708 278.026 54.3147 278.026 35.0532C278.026 15.7916 287.764 0.600098 305.326 0.600098ZM305.438 13.3089C296.494 13.3089 295.934 25.4885 295.934 33.0792C295.934 40.6698 295.812 56.9297 305.336 56.9297C314.86 56.9297 315.186 43.8241 315.186 35.8367C315.186 30.5863 314.962 24.298 313.374 19.3224C312.011 14.9878 309.294 13.2987 305.438 13.2987" fill="#454545"/>
<path fill-rule="evenodd" clip-rule="evenodd" d="M356.415 68.4688H344.337C343.126 68.3874 342.15 67.4105 342.15 66.2201L342.129 3.93796C342.231 2.79834 343.238 1.90293 344.47 1.90293H355.713C356.771 1.9538 357.636 2.66606 357.88 3.64288V13.1668H358.104C361.503 4.65022 366.265 0.590332 374.639 0.590332C380.083 0.590332 385.384 2.55414 388.803 7.92662C391.977 12.9124 391.977 21.2866 391.977 27.3103V66.505C391.845 67.5937 390.838 68.4688 389.637 68.4688H377.468C376.358 68.3874 375.433 67.5632 375.321 66.505V32.6828C375.321 25.8756 376.104 15.9141 367.73 15.9141C364.779 15.9141 362.062 17.8983 360.719 20.8999C359.01 24.7054 358.796 28.4906 358.796 32.6929V66.2201C358.776 67.4614 357.718 68.4688 356.425 68.4688" fill="#454545"/>
<path fill-rule="evenodd" clip-rule="evenodd" d="M399.568 63.5235C399.568 60.3794 402.244 57.856 405.541 57.856C408.838 57.856 411.514 60.3794 411.514 63.5235C411.514 66.6676 408.838 69.2013 405.541 69.2013C402.244 69.2013 399.568 66.6371 399.568 63.5235Z" fill="#454545"/>
<path fill-rule="evenodd" clip-rule="evenodd" d="M528.1 68.4892C526.839 68.4383 525.852 67.4615 525.852 66.2405V3.97875C525.923 2.86965 526.859 1.9946 528.019 1.93355H532.476C533.707 1.93355 534.694 2.81878 534.796 3.97875V13.055C537.97 5.85098 543.872 0.224121 551.33 0.224121H552.236C560.152 0.224121 565.942 6.05448 568.089 14.5406C571.447 6.16641 577.765 0.224121 586.089 0.224121H587.014C592.906 0.224121 598.563 4.00928 601.504 9.77859C604.333 15.2935 604.231 22.6298 604.231 28.7858L604.211 66.2405C604.231 67.431 603.254 68.4078 602.043 68.4892H596.722C595.562 68.4383 594.626 67.6141 594.473 66.5458V28.7858C594.473 24.3291 594.697 19.6078 592.886 15.5479C591.044 11.4066 587.513 8.81195 583.728 8.61862C579.495 8.82212 575.608 11.9154 573.085 16.077C569.808 21.4495 569.931 26.2929 569.931 32.5811V66.5864C569.778 67.6141 568.872 68.4078 567.763 68.4994H562.472C561.21 68.4485 560.203 67.4717 560.203 66.2507L560.173 26.303C560.173 22.6298 559.949 18.3155 558.26 15.029C556.296 11.2743 552.785 8.82212 549.102 8.62879C545.276 8.85264 541.42 11.7729 539.141 15.1612C536.19 19.4959 535.63 24.848 535.63 30.3629V66.2405C535.63 67.431 534.653 68.4078 533.442 68.4892H528.131" fill="#454545"/>
<path fill-rule="evenodd" clip-rule="evenodd" d="M491.551 69.7809C474.335 69.7809 466.622 52.2288 466.622 34.6664C466.622 16.2087 475.678 0.213379 493.016 0.213379H493.942C510.803 0.213379 519.197 17.2466 519.197 34.7987C519.197 53.3989 509.897 69.7809 492.457 69.7809H491.551ZM492.813 61.2643C498.481 61.0811 502.948 57.5605 505.593 51.7098C507.964 46.4594 508.422 40.4358 508.422 34.6664C508.422 28.3884 507.74 21.8356 504.789 16.4631C502.144 11.7724 497.605 8.78086 492.793 8.61806C487.43 8.80121 482.638 12.4439 480.236 18.0402C478.069 22.8836 477.408 29.3143 477.408 34.6766C477.408 40.7003 478.191 47.6601 480.684 52.9003C483.106 57.8658 487.766 61.0913 492.813 61.2745" fill="#454545"/>
<path fill-rule="evenodd" clip-rule="evenodd" d="M437.755 61.0003C445.488 60.7663 449.548 54.5696 451.217 46.5516C451.563 45.5442 452.326 44.7811 453.455 44.7811L458.553 44.7608C459.764 44.8116 460.873 45.7376 460.772 46.8568C458.421 60.5221 450.179 69.7916 438.437 69.7916H437.511C420.417 69.7916 413.04 52.6262 413.04 35.2063C413.04 17.7864 420.509 0.224121 437.613 0.224121H438.539C450.413 0.224121 458.879 9.37158 460.721 23.0368C460.721 24.0645 459.764 24.9497 458.635 25.0718L453.293 25.0006C452.163 24.848 451.431 23.8915 451.258 22.813C449.976 15.1816 445.59 9.10703 438.295 8.873C426.675 9.24948 423.368 23.5456 423.368 34.5551C423.368 45.5646 426.135 60.6238 437.755 61.0003Z" fill="#454545"/>
<path fill-rule="evenodd" clip-rule="evenodd" d="M194.783 38.7266C194.783 43.4479 194.905 47.3958 192.514 51.588C190.591 54.9967 187.518 57.1029 184.119 57.1029C179.459 57.1029 176.732 53.5518 176.732 48.3116C176.732 37.9737 186.002 36.0913 194.783 36.0913V38.7164M207.013 68.2956C206.21 69.0079 205.05 69.0587 204.144 68.5907C200.115 65.2431 199.382 63.6964 197.184 60.5014C190.53 67.2883 185.809 69.3233 177.19 69.3233C166.974 69.3233 159.038 63.0249 159.038 50.4179C159.038 40.5683 164.359 33.8629 171.97 30.5865C178.554 27.6866 187.752 27.1778 194.783 26.374V24.807C194.783 21.9274 195.007 18.5086 193.297 16.0157C191.832 13.7772 188.993 12.8614 186.49 12.8614C181.871 12.8614 177.75 15.2322 176.753 20.1468C176.549 21.2355 175.745 22.3141 174.636 22.365L162.884 21.1033C161.897 20.8794 160.788 20.0756 161.073 18.5595C163.769 4.29391 176.671 0 188.2 0C194.101 0 201.814 1.56698 206.474 6.04404C212.376 11.559 211.816 18.9054 211.816 26.9133V45.8187C211.816 51.4964 214.167 53.9893 216.385 57.0622C217.148 58.151 217.321 59.4636 216.334 60.2878C213.861 62.3533 209.456 66.1894 207.034 68.3363L207.013 68.3058" fill="#454545"/>
<path fill-rule="evenodd" clip-rule="evenodd" d="M35.7453 38.7266C35.7453 43.4479 35.8674 47.3958 33.4763 51.588C31.5532 54.9967 28.4904 57.1029 25.0818 57.1029C20.4216 57.1029 17.715 53.5518 17.715 48.3116C17.715 37.9737 26.9845 36.0913 35.7453 36.0913V38.7164M47.9759 68.2956C47.172 69.0079 46.0121 69.0587 45.1065 68.5907C41.0772 65.2431 40.3648 63.6964 38.1466 60.5014C31.4921 67.2883 26.781 69.3233 18.1524 69.3233C7.94676 69.3233 0 63.0249 0 50.4179C0 40.5683 5.34191 33.8629 12.9326 30.5865C19.5159 27.6866 28.7143 27.1778 35.7453 26.374V24.807C35.7453 21.9274 35.9692 18.5086 34.2801 16.0157C32.7946 13.7772 29.9658 12.8614 27.4729 12.8614C22.8534 12.8614 18.7223 15.2322 17.715 20.1468C17.5115 21.2355 16.7076 22.3141 15.6188 22.365L3.84624 21.1033C2.85925 20.8794 1.7603 20.0756 2.03503 18.5595C4.7518 4.29391 17.6336 0 29.162 0C35.0636 0 42.7763 1.56698 47.4365 6.04404C53.3381 11.559 52.7785 18.9054 52.7785 26.9133V45.8187C52.7785 51.4964 55.129 53.9893 57.3471 57.0622C58.1306 58.151 58.3037 59.4636 57.3167 60.2878C54.8441 62.3533 50.4383 66.1894 48.0166 68.3363L47.986 68.3058" fill="#454545"/>
</svg>
