<svg width="706" height="138" viewBox="0 0 706 138" fill="none" xmlns="http://www.w3.org/2000/svg">
<path fill-rule="evenodd" clip-rule="evenodd" d="M284.12 107.923C257.502 127.538 218.936 138 185.72 138C139.153 138 97.2228 120.774 65.5166 92.1348C63.02 89.8879 65.2551 86.8088 68.2509 88.5683C102.478 108.481 144.8 120.465 188.514 120.465C217.997 120.465 250.428 114.366 280.256 101.705C284.762 99.7909 288.53 104.653 284.12 107.923Z" fill="#454545"/>
<path fill-rule="evenodd" clip-rule="evenodd" d="M295.176 95.2734C291.788 90.9222 272.695 93.2167 264.112 94.2391C261.496 94.5601 261.104 92.2894 263.458 90.6488C278.663 79.9493 303.629 83.0284 306.541 86.6186C309.454 90.2327 305.78 115.246 291.491 127.182C289.303 129.013 287.199 128.038 288.186 125.612C291.396 117.6 298.588 99.6364 295.188 95.2734" fill="#454545"/>
<path fill-rule="evenodd" clip-rule="evenodd" d="M264.718 15.0743V4.672C264.718 3.10274 265.919 2.04468 267.346 2.04468H313.936C315.434 2.04468 316.623 3.12652 316.623 4.672V13.5883C316.599 15.0862 315.351 17.0359 313.116 20.1269L288.97 54.5912C297.946 54.3772 307.409 55.7087 315.541 60.2976C317.371 61.3319 317.871 62.8536 318.014 64.3397V75.4434C318.014 76.9532 316.337 78.7364 314.59 77.821C300.252 70.3076 281.219 69.4873 265.372 77.9043C263.755 78.784 262.067 77.0245 262.067 75.5147V64.9697C262.067 63.2697 262.091 60.3808 263.779 57.8129L291.752 17.7016H267.417C265.919 17.7016 264.73 16.6436 264.73 15.0862" fill="#454545"/>
<path fill-rule="evenodd" clip-rule="evenodd" d="M94.7739 79.9967H80.603C79.2478 79.9016 78.1659 78.8792 78.0708 77.5833V4.83849C78.0708 3.38811 79.2833 2.22305 80.805 2.22305H94.0249C95.4039 2.28249 96.4977 3.34055 96.5928 4.66016V14.1708H96.8543C100.302 4.98114 106.781 0.689453 115.519 0.689453C124.257 0.689453 129.928 4.98114 133.922 14.1708C137.346 4.98114 145.145 0.689453 153.502 0.689453C159.447 0.689453 165.937 3.13845 169.908 8.64276C174.39 14.7653 173.475 23.6577 173.475 31.4446L173.451 77.3574C173.451 78.8078 172.239 79.9848 170.717 79.9848H156.558C155.143 79.8897 154.002 78.7484 154.002 77.3574V38.8035C154.002 35.7363 154.275 28.0802 153.597 25.1676C152.539 20.2815 149.377 18.9024 145.264 18.9024C141.84 18.9024 138.25 21.1969 136.787 24.8585C135.337 28.532 135.468 34.6664 135.468 38.7916V77.3456C135.468 78.7959 134.255 79.9729 132.733 79.9729H118.574C117.136 79.8778 116.018 78.7365 116.018 77.3456L115.995 38.7916C115.995 30.6838 117.326 18.736 107.269 18.736C97.211 18.736 97.4844 30.3747 97.4844 38.7916V77.3456C97.4844 78.7959 96.2719 79.9729 94.7502 79.9729" fill="#454545"/>
<path fill-rule="evenodd" clip-rule="evenodd" d="M356.734 0.701416C377.764 0.701416 389.154 18.7598 389.154 41.7281C389.154 64.6964 376.576 81.5184 356.734 81.5184C336.892 81.5184 324.837 63.46 324.837 40.9554C324.837 18.4507 336.215 0.701416 356.734 0.701416ZM356.865 15.55C346.415 15.55 345.761 29.7803 345.761 38.649C345.761 47.5178 345.618 66.5154 356.746 66.5154C367.873 66.5154 368.254 51.2031 368.254 41.8708C368.254 35.7364 367.992 28.3894 366.138 22.576C364.544 17.5115 361.37 15.5381 356.865 15.5381" fill="#454545"/>
<path fill-rule="evenodd" clip-rule="evenodd" d="M416.425 79.9967H402.314C400.899 79.9016 399.758 78.7603 399.758 77.3693L399.734 4.60072C399.853 3.26923 401.03 2.22305 402.468 2.22305H415.605C416.841 2.28249 417.852 3.11468 418.137 4.25596V15.3835H418.399C422.369 5.43291 427.933 0.689453 437.717 0.689453C444.077 0.689453 450.271 2.9839 454.266 9.26095C457.975 15.0862 457.975 24.8704 457.975 31.9083V77.7022C457.82 78.9743 456.643 79.9967 455.241 79.9967H441.022C439.726 79.9016 438.645 78.9386 438.514 77.7022V38.1853C438.514 30.232 439.429 18.5933 429.645 18.5933C426.197 18.5933 423.023 20.9115 421.454 24.4186C419.457 28.8649 419.207 33.2873 419.207 38.1972V77.3693C419.183 78.8197 417.947 79.9967 416.437 79.9967" fill="#454545"/>
<path fill-rule="evenodd" clip-rule="evenodd" d="M466.844 74.219C466.844 70.5455 469.971 67.5972 473.822 67.5972C477.674 67.5972 480.801 70.5455 480.801 74.219C480.801 77.8925 477.674 80.8527 473.822 80.8527C469.971 80.8527 466.844 77.8568 466.844 74.219Z" fill="#454545"/>
<path fill-rule="evenodd" clip-rule="evenodd" d="M617.017 80.0204C615.543 79.961 614.39 78.8197 614.39 77.3931V4.64827C614.473 3.35244 615.567 2.33005 616.922 2.25872H622.129C623.568 2.25872 624.721 3.293 624.84 4.64827V15.2527C628.549 6.83574 635.444 0.261475 644.159 0.261475H645.217C654.466 0.261475 661.23 7.0735 663.739 16.9884C667.662 7.20427 675.044 0.261475 684.769 0.261475H685.851C692.734 0.261475 699.344 4.68394 702.78 11.4246C706.085 17.8681 705.966 26.4396 705.966 33.6321L705.942 77.3931C705.966 78.784 704.825 79.9253 703.41 80.0204H697.192C695.837 79.961 694.743 78.998 694.565 77.7498V33.6321C694.565 28.425 694.827 22.9088 692.71 18.1653C690.559 13.3268 686.433 10.2952 682.011 10.0694C677.065 10.3071 672.524 13.9212 669.576 18.7835C665.748 25.0606 665.891 30.7194 665.891 38.0664V77.7973C665.712 78.998 664.654 79.9253 663.358 80.0323H657.176C655.702 79.9729 654.525 78.8316 654.525 77.405L654.49 30.7313C654.49 26.4396 654.228 21.399 652.254 17.559C649.96 13.1722 645.858 10.3071 641.555 10.0812C637.085 10.3428 632.579 13.7548 629.916 17.7136C626.469 22.778 625.815 29.0313 625.815 35.4748V77.3931C625.815 78.784 624.674 79.9253 623.259 80.0204H617.053" fill="#454545"/>
<path fill-rule="evenodd" clip-rule="evenodd" d="M574.314 81.5304C554.199 81.5304 545.188 61.023 545.188 40.5037C545.188 18.9382 555.769 0.249756 576.026 0.249756H577.108C596.807 0.249756 606.615 20.1509 606.615 40.6583C606.615 62.3902 595.749 81.5304 575.372 81.5304H574.314ZM575.789 71.5799C582.41 71.3659 587.629 67.2525 590.72 60.4167C593.49 54.2823 594.025 47.2444 594.025 40.5037C594.025 33.1686 593.229 25.5125 589.781 19.2355C586.69 13.7549 581.388 10.2598 575.765 10.0695C569.5 10.2835 563.9 14.5396 561.094 21.0781C558.562 26.737 557.789 34.2505 557.789 40.5156C557.789 47.5535 558.705 55.6851 561.617 61.8077C564.447 67.6092 569.892 71.3778 575.789 71.5918" fill="#454545"/>
<path fill-rule="evenodd" clip-rule="evenodd" d="M511.461 71.2706C520.496 70.9972 525.239 63.7572 527.189 54.3891C527.593 53.2122 528.485 52.3206 529.804 52.3206L535.761 52.2968C537.175 52.3562 538.471 53.4381 538.352 54.7458C535.606 70.7119 525.977 81.5422 512.258 81.5422H511.176C491.203 81.5422 482.584 61.4865 482.584 41.1336C482.584 20.7808 491.31 0.261475 511.295 0.261475H512.376C526.25 0.261475 536.141 10.9491 538.293 26.9152C538.293 28.1159 537.175 29.1502 535.856 29.2928L529.614 29.2096C528.295 29.0313 527.439 27.9138 527.237 26.6536C525.739 17.7374 520.615 10.64 512.091 10.3666C498.514 10.8064 494.651 27.5096 494.651 40.3728C494.651 53.236 497.884 70.8307 511.461 71.2706Z" fill="#454545"/>
<path fill-rule="evenodd" clip-rule="evenodd" d="M227.579 45.2471C227.579 50.7633 227.721 55.3759 224.928 60.2739C222.681 64.2565 219.09 66.7174 215.12 66.7174C209.675 66.7174 206.489 62.5684 206.489 56.4459C206.489 44.3673 217.319 42.168 227.579 42.168V45.2352M241.868 79.7946C240.929 80.6268 239.574 80.6862 238.516 80.1394C233.808 76.2281 232.952 74.4211 230.384 70.6881C222.609 78.6177 217.093 80.9953 207.024 80.9953C195.088 80.9953 185.815 73.6365 185.815 58.9068C185.815 47.3989 192.033 39.5644 200.925 35.7364C208.617 32.3482 219.364 31.7538 227.579 30.8146V28.9838C227.579 25.6194 227.84 21.6249 225.843 18.7123C224.131 16.0968 220.814 15.0269 217.89 15.0269C212.492 15.0269 207.678 17.7969 206.512 23.5389C206.275 24.811 205.336 26.0712 204.04 26.1306L190.309 24.6564C189.156 24.3949 187.86 23.4557 188.193 21.6844C191.343 5.01688 206.417 0 219.887 0C226.782 0 235.793 1.83081 241.238 7.06168C248.134 13.5052 247.48 22.0886 247.48 31.4447V53.5332C247.48 60.167 250.226 63.0796 252.818 66.6699C253.709 67.9419 253.911 69.4755 252.758 70.4385C249.869 72.8518 244.722 77.3337 241.892 79.8422L241.868 79.8065" fill="#454545"/>
<path fill-rule="evenodd" clip-rule="evenodd" d="M41.7638 45.2471C41.7638 50.7633 41.9065 55.3759 39.1127 60.2739C36.8658 64.2565 33.2874 66.7174 29.3048 66.7174C23.86 66.7174 20.6977 62.5684 20.6977 56.4459C20.6977 44.3673 31.5279 42.168 41.7638 42.168V45.2352M56.0536 79.7946C55.1144 80.6268 53.7592 80.6862 52.7012 80.1394C47.9934 76.2281 47.1611 74.4211 44.5694 70.6881C36.7944 78.6177 31.2901 80.9953 21.2088 80.9953C9.28476 80.9953 0 73.6365 0 58.9068C0 47.3989 6.24134 39.5644 15.1101 35.7364C22.8018 32.3482 33.5489 31.7538 41.7638 30.8146V28.9838C41.7638 25.6194 42.0254 21.6249 40.0519 18.7123C38.3162 16.0968 35.0112 15.0269 32.0986 15.0269C26.7012 15.0269 21.8746 17.7969 20.6977 23.5389C20.4599 24.811 19.5206 26.0712 18.2486 26.1306L4.49383 24.6564C3.34066 24.3949 2.05669 23.4557 2.37767 21.6844C5.55186 5.01688 20.6026 0 34.0721 0C40.9673 0 49.9786 1.83081 55.4235 7.06168C62.3187 13.5052 61.6649 22.0886 61.6649 31.4447V53.5332C61.6649 60.167 64.4111 63.0796 67.0027 66.6699C67.9181 67.9419 68.1204 69.4755 66.9672 70.4385C64.0783 72.8518 58.9306 77.3337 56.1012 79.8422L56.0655 79.8065" fill="#454545"/>
</svg>
