<svg width="138" height="171" viewBox="0 0 138 171" fill="none" xmlns="http://www.w3.org/2000/svg">
<g clip-path="url(#clip0_2662_351)">
<path d="M133.435 58.7349C122.149 65.7054 115.179 77.6547 115.179 90.9318C115.179 105.869 124.141 119.478 137.75 125.12C135.095 133.751 131.111 141.717 126.132 149.019C118.83 159.309 111.196 169.931 99.9102 169.931C88.6247 169.931 85.3054 163.292 72.0283 163.292C59.0831 163.292 54.4361 170.263 43.8144 170.263C33.1928 170.263 25.8903 160.637 17.5922 148.687C6.63855 132.091 0.331928 112.839 0 92.5915C0 59.7307 21.2434 42.1385 42.4867 42.1385C53.7723 42.1385 63.0662 49.4409 70.0367 49.4409C76.6753 49.4409 87.2969 41.8066 99.9102 41.8066C113.187 41.4746 125.801 47.7813 133.435 58.7349ZM93.9355 27.8656C99.5783 21.2271 102.566 12.9289 102.898 4.29877C102.898 3.30298 102.898 1.97527 102.566 0.979492C92.9397 1.97527 83.9777 6.62226 77.671 13.9247C72.0283 20.2313 68.709 28.1975 68.3771 36.8277C68.3771 37.8234 68.3771 38.8192 68.709 39.815C69.3729 39.815 70.3686 40.1469 71.0325 40.1469C79.9945 39.4831 88.2927 34.8361 93.9355 27.8656Z" fill="#454545"/>
</g>
<defs>
<clipPath id="clip0_2662_351">
<rect width="137.75" height="169.283" fill="white" transform="translate(0 0.978516)"/>
</clipPath>
</defs>
</svg>
