<svg width="543" height="125" viewBox="0 0 543 125" fill="none" xmlns="http://www.w3.org/2000/svg">
<path fill-rule="evenodd" clip-rule="evenodd" d="M146.055 13.0742V105.899H161.24V99.008C166.58 104.594 173.964 107.771 181.69 107.801C190.685 107.801 198.143 104.505 204.035 97.9415C209.964 91.3111 212.962 82.9504 212.962 72.7923C212.962 62.6342 210.002 54.8105 204.102 48.21C193.892 36.2693 175.94 34.8672 163.999 45.07C163.03 45.8979 162.12 46.7929 161.27 47.7401V11.2395L146.047 13.0742H146.055ZM192.251 58.0698C195.801 62.403 197.629 67.8922 197.382 73.4934C197.382 79.4227 195.652 84.3824 192.117 88.3502C188.85 92.1688 184.047 94.3168 179.027 94.2124C173.866 94.4063 168.892 92.2508 165.506 88.3502C161.926 84.0692 160.099 78.6023 160.375 73.031C160.375 66.8033 162.105 61.7765 165.573 57.8758C169.026 53.9901 174.03 51.8421 179.229 52.0137C184.457 52.0137 188.79 54.0125 192.251 58.0772V58.0698Z" fill="#454545"/>
<path d="M486.382 13.0743V105.899H501.604V74.0901C501.604 65.9979 502.633 60.27 504.766 56.9361C506.929 53.6396 510.658 52.0063 515.953 52.0063C520.115 52.0063 523.113 53.207 524.948 55.5713C526.85 57.9057 527.782 61.7318 527.782 66.9973V105.899H543.004V65.6026C543.004 56.4066 541.103 49.7166 537.344 45.5176C532.727 40.6324 526.209 37.9922 519.489 38.2906C512.799 38.3502 506.384 40.9755 501.566 45.6145V11.2097L486.382 13.0444V13.0743ZM224.657 40.1178H239.812V45.98C241.953 43.5859 244.474 41.5573 247.27 39.9836C249.471 38.8499 252.066 38.3204 255.094 38.3204C259.092 38.3204 263.291 39.5883 267.654 42.2136L260.695 56.1381C258.286 54.2288 255.34 53.1324 252.268 53.0057C243.944 53.0057 239.812 59.2706 239.812 71.7929V105.899H224.657V40.1178Z" fill="#454545"/>
<path fill-rule="evenodd" clip-rule="evenodd" d="M319.578 40.1179H334.8V105.9H319.578V99.0082C308.383 110.546 289.954 110.822 278.416 99.6272C277.857 99.0902 277.327 98.5234 276.813 97.9416C270.824 90.9607 267.669 81.9885 267.99 72.7925C267.99 62.9327 270.921 54.7435 276.813 48.143C287.113 36.2397 305.124 34.9345 317.027 45.2418C317.93 46.0249 318.78 46.8602 319.578 47.7477V40.0881V40.1179ZM283.473 72.7925C283.473 79.1171 285.136 84.2483 288.537 88.2161C291.997 92.2137 296.398 94.2125 301.656 94.2125C307.287 94.2125 311.814 92.2808 315.312 88.4175C318.869 84.1514 320.719 78.7143 320.51 73.1654C320.51 66.9676 318.743 61.9109 315.282 57.876C311.889 53.9977 306.944 51.8497 301.79 52.0138C296.562 52.0138 292.199 54.0126 288.671 57.9431C285.158 62.0824 283.309 67.3703 283.473 72.7999V72.7925Z" fill="#454545"/>
<path d="M349.62 40.1178H364.909V46.1813C370.242 40.9158 376.201 38.2905 382.861 38.2905C390.521 38.2905 396.48 40.692 400.746 45.5175C404.445 49.6121 406.31 56.3096 406.31 65.5653V105.899H391.02V69.1601C391.02 62.664 390.118 58.1667 388.358 55.7055C386.59 53.207 383.361 51.9391 378.729 51.9391C373.702 51.9391 370.1 53.6023 368.004 56.9361C365.939 60.2326 364.909 65.9605 364.909 74.1571V105.899H349.62V40.1178ZM426.059 71.0247C426.059 59.8075 435.143 50.701 446.368 50.6935C451.79 50.6935 456.981 52.8564 460.8 56.6974L471.122 46.4423C457.555 32.7789 435.471 32.6968 421.808 46.2633C408.144 59.8299 408.063 81.9137 421.629 95.5772C435.196 109.241 457.28 109.323 470.943 95.7562C477.536 89.2153 481.243 80.3102 481.243 71.0172H466.684C466.684 82.2344 457.585 91.3335 446.368 91.3335C435.151 91.3335 426.052 82.2344 426.052 71.0172L426.059 71.0247Z" fill="#454545"/>
<path fill-rule="evenodd" clip-rule="evenodd" d="M30.9444 0V125H34.5391V0H30.8774H30.9444ZM53.2594 89.193C60.0314 89.193 65.5134 83.7038 65.5134 76.9391C65.5134 70.1745 60.024 64.6853 53.2594 64.6853C46.4947 64.6853 41.0057 70.1745 41.0057 76.9391C41.0057 83.7038 46.4947 89.193 53.2594 89.193ZM65.4835 46.6289C65.834 53.386 60.6431 59.1513 53.8785 59.5092C47.1213 59.8598 41.3561 54.6689 40.9981 47.9042C40.9757 47.4791 40.9757 47.054 40.9981 46.6289C41.3486 39.8717 47.1138 34.6733 53.8785 35.0239C60.1434 35.352 65.1553 40.3565 65.4835 46.6289ZM12.2617 74.0379C19.0337 74.0379 24.5229 68.5561 24.5229 61.784C24.5229 55.0119 19.041 49.5227 12.2689 49.5227H12.254C5.48193 49.5227 0 55.0119 0 61.7766C0 68.5412 5.48939 74.0304 12.254 74.0304L12.2617 74.0379Z" fill="#454545"/>
</svg>
