<svg width="597" height="137" viewBox="0 0 597 137" fill="none" xmlns="http://www.w3.org/2000/svg">
<path fill-rule="evenodd" clip-rule="evenodd" d="M161.011 14.3297V116.066H177.654V108.513C183.507 114.636 191.6 118.118 200.068 118.151C209.926 118.151 218.1 114.538 224.558 107.344C231.057 100.077 234.342 90.914 234.342 79.7807C234.342 68.6474 231.097 60.0727 224.631 52.8385C213.441 39.7515 193.766 38.2148 180.679 49.3971C179.616 50.3045 178.619 51.2854 177.687 52.3235V12.3188L161.003 14.3297H161.011ZM211.642 63.6448C215.533 68.394 217.536 74.4102 217.267 80.5491C217.267 87.0476 215.37 92.4835 211.496 96.8321C207.915 101.017 202.651 103.372 197.15 103.257C191.493 103.47 186.041 101.107 182.33 96.8321C178.406 92.1401 176.404 86.1484 176.706 80.0423C176.706 73.2168 178.602 67.7074 182.403 63.4323C186.188 59.1735 191.673 56.8193 197.37 57.0073C203.1 57.0073 207.85 59.198 211.642 63.653V63.6448Z" fill="#454545"/>
<path d="M534.009 14.3297V116.066H550.693V81.203C550.693 72.334 551.821 66.0562 554.159 62.4023C556.529 58.7893 560.616 56.9991 566.42 56.9991C570.981 56.9991 574.267 58.3152 576.278 60.9064C578.363 63.4649 579.385 67.6583 579.385 73.4293V116.066H596.068V71.9007C596.068 61.8219 593.984 54.4896 589.864 49.8876C584.804 44.5334 577.66 41.6398 570.295 41.9667C562.963 42.0321 555.933 44.9095 550.652 49.9938V12.2861L534.009 14.297V14.3297ZM247.16 43.9694H263.77V50.3944C266.116 47.7704 268.878 45.547 271.944 43.8223C274.355 42.5798 277.2 41.9994 280.519 41.9994C284.9 41.9994 289.502 43.3891 294.284 46.2664L286.657 61.5277C284.017 59.4351 280.788 58.2334 277.421 58.0945C268.298 58.0945 263.77 64.9608 263.77 78.6853V116.066H247.16V43.9694Z" fill="#454545"/>
<path fill-rule="evenodd" clip-rule="evenodd" d="M351.193 43.9691H367.877V116.066H351.193V108.513C338.924 121.158 318.725 121.461 306.08 109.191C305.467 108.603 304.887 107.981 304.322 107.344C297.759 99.6928 294.301 89.8592 294.652 79.7803C294.652 68.974 297.865 59.9987 304.322 52.7645C315.611 39.7185 335.352 38.288 348.398 49.5848C349.387 50.4431 350.319 51.3586 351.193 52.3313V43.9364V43.9691ZM311.622 79.7803C311.622 86.7121 313.445 92.336 317.172 96.6846C320.965 101.066 325.788 103.257 331.551 103.257C337.722 103.257 342.684 101.14 346.518 96.9053C350.417 92.2297 352.444 86.2707 352.215 80.1891C352.215 73.3963 350.278 67.8542 346.485 63.4319C342.766 59.1813 337.346 56.8271 331.698 57.007C325.968 57.007 321.186 59.1977 317.319 63.5055C313.469 68.0422 311.442 73.8377 311.622 79.7885V79.7803Z" fill="#454545"/>
<path d="M384.119 43.9695H400.876V50.6151C406.72 44.8441 413.252 41.9668 420.551 41.9668C428.946 41.9668 435.478 44.5989 440.153 49.8876C444.208 54.3753 446.251 61.7157 446.251 71.8599V116.066H429.494V75.7999C429.494 68.6802 428.505 63.7511 426.576 61.0536C424.639 58.3152 421.099 56.9256 416.023 56.9256C410.513 56.9256 406.565 58.7485 404.268 62.4023C402.004 66.0154 400.876 72.2932 400.876 81.2766V116.066H384.119V43.9695ZM467.896 77.8435C467.896 65.5494 477.853 55.5687 490.155 55.5605C496.098 55.5605 501.787 57.931 505.972 62.1408L517.285 50.9012C502.416 35.926 478.212 35.8361 463.237 50.705C448.262 65.5739 448.172 89.7778 463.041 104.753C477.91 119.728 502.114 119.818 517.089 104.949C524.315 97.7804 528.377 88.0204 528.377 77.8353H512.422C512.422 90.1293 502.449 100.102 490.155 100.102C477.861 100.102 467.888 90.1293 467.888 77.8353L467.896 77.8435Z" fill="#454545"/>
<path fill-rule="evenodd" clip-rule="evenodd" d="M34.8506 0V137H38.7904V0H34.7772H34.8506ZM59.3078 97.7555C66.73 97.7555 72.7382 91.7393 72.7382 84.3253C72.7382 76.9113 66.7218 70.8951 59.3078 70.8951C51.8938 70.8951 45.8778 76.9113 45.8778 84.3253C45.8778 91.7393 51.8938 97.7555 59.3078 97.7555ZM72.7055 51.1052C73.0897 58.5111 67.4004 64.8298 59.9863 65.2221C52.5805 65.6063 46.2618 59.9171 45.8694 52.503C45.8449 52.0371 45.8449 51.5712 45.8694 51.1052C46.2536 43.6994 52.5723 38.002 59.9863 38.3862C66.8527 38.7458 72.3458 44.2307 72.7055 51.1052ZM14.3743 81.1455C21.7965 81.1455 27.8127 75.1375 27.8127 67.7153C27.8127 60.2931 21.8045 54.2768 14.3823 54.2768H14.3659C6.94375 54.2768 0.935547 60.2931 0.935547 67.7071C0.935547 75.1211 6.95192 81.1374 14.3659 81.1374L14.3743 81.1455Z" fill="#454545"/>
</svg>
