<svg width="594" height="110" viewBox="0 0 594 110" fill="none" xmlns="http://www.w3.org/2000/svg">
<path d="M514.895 99.7766C514.335 100.125 504.149 100.154 503.087 99.7766C500.564 98.9069 502.159 95.0996 501.009 95.0609C499.724 95.0223 492.215 99.0519 489.191 99.6703C476.715 102.241 457.485 97.6604 455.175 82.9334C450.866 55.4024 480.233 48.3094 501.502 54.4843C499.946 44.0865 493.095 42.6853 483.711 43.9416C479.798 44.4634 471.023 49.6043 468.356 47.7973C466.588 46.599 462.529 37.3705 465.216 35.1092C468.801 32.0942 484.407 28.7217 489.258 28.77C499.675 28.8763 510.508 35.1479 514.122 45.2461C517.243 53.9625 516.789 84.2862 516.035 94.6261C515.958 95.7567 515.591 99.3225 514.885 99.767L514.895 99.7766ZM479.034 67.2883C469.303 68.9214 463.969 80.9427 475.14 85.2139C483.74 88.4995 505.029 81.0876 501.386 70.5642C500.187 67.0951 482.755 66.6699 479.034 67.2883Z" fill="#454545"/>
<path d="M69.5577 11.9751C75.8003 12.7385 84.1591 12.4486 85.7633 20.4112C86.8649 25.8807 84.6907 48.2805 82.8256 53.7499C79.7913 62.7079 66.6974 62.8239 58.4835 63.2297C51.1007 63.5969 28.3434 63.2684 22.8256 59.1711C21.579 58.2434 20.5257 56.7456 19.8879 55.3444C17.646 50.3774 15.5297 25.8227 16.6217 20.4016C18.1195 12.9608 25.7536 12.8061 31.8608 11.9654C43.8918 10.313 57.4978 10.4966 69.5481 11.9654L69.5577 11.9751ZM33.5326 20.8364C25.9855 23.0397 28.8072 34.7807 36.9535 33.0606C44.7325 31.4275 41.9398 18.3819 33.5326 20.8364ZM64.4555 20.8364C57.5365 22.8368 59.6431 34.8 67.8763 33.0606C75.607 31.4275 73.2202 18.295 64.4555 20.8364ZM36.364 41.1102C32.0445 42.5307 37.4656 48.2611 39.0891 49.6817C45.1287 55.0158 52.0187 55.9242 59.2372 52.3777C61.8947 51.0732 70.0699 44.647 66.2432 41.864C63.4215 39.8153 60.6578 41.9026 57.5172 41.9703C50.3953 42.1152 43.4473 41.5161 36.3737 41.1102H36.364Z" fill="#454545"/>
<path d="M526.356 28.6061C528.424 27.9973 537.198 28.0746 539.179 28.9056C542.89 30.4615 552.805 47.2854 557.076 50.6096C558.796 50.6096 570.576 31.5534 574.596 29.4951C578.239 27.6301 593.381 26.3062 588.559 33.7953L566.488 62.7275L593.835 97.0712C595.73 102.512 580.703 101.652 577.891 99.4001C574.499 97.0036 559.569 75.1836 558.033 74.7971C555.105 74.0627 540.629 98.5594 536.28 100.386C533.372 101.613 518.364 102.599 522.317 96.0855L547.77 62.5439L524.201 32.2202C523.196 30.7417 524.935 29.0313 526.366 28.6061H526.356Z" fill="#454545"/>
<path d="M340.123 93.1574C333.581 96.1628 327.764 100.134 320.313 100.878C283.109 104.57 283.157 60.2053 314.631 56.5428C322.313 55.6442 331.735 56.3013 339.157 58.3692C339.717 42.183 328.053 36.7039 313.781 42.1637C311.007 43.2267 308.311 45.7488 306.33 46.3963C302.156 47.7492 296.86 40.4726 301.518 36.6653C312.66 27.543 335.233 26.3158 344.423 39.1101C351.458 48.8991 352.202 82.4311 350.792 94.6359C349.671 104.328 338.055 102.811 340.133 93.1671L340.123 93.1574ZM340.007 69.1246C329.696 64.4475 299.054 64.3219 301.866 81.571C304.069 95.1094 322.584 90.6643 330.769 86.1901C338.944 81.7256 341.669 79.1938 340.017 69.1149L340.007 69.1246Z" fill="#454545"/>
<path d="M233.826 67.0569C233.623 87.7752 256.428 97.3903 271.996 83.4847C273.736 81.9289 276.238 77.1938 277.939 76.8846C279.021 76.6816 283.457 79.1072 284.153 80.0348C288.105 85.2917 274.644 95.2257 270.257 97.2067C237.884 111.808 211.755 76.3241 226.907 47.0923C237.633 26.3837 268.817 21.3684 280.722 43.8551C283.022 48.194 287.313 60.737 284.182 64.7377C282.259 67.1922 240.31 66.0422 233.835 67.0569H233.826ZM274.422 55.4512C269.319 32.1914 240.87 35.6412 234.792 55.9343L274.422 55.4512Z" fill="#454545"/>
<path d="M422.272 11.9754V32.2686H445.947C449.165 32.2686 449.165 46.7636 445.947 46.7636H422.272C423.412 55.48 418.986 80.9817 427.181 85.8231C434.505 90.1523 445.976 83.5715 449.706 86.2869C450.605 86.9344 453.397 97.8927 450.073 99.2745C448.256 100.028 438.496 101.594 436.148 101.729C421.315 102.608 410.076 94.1916 408.704 79.1747C406.82 58.6496 410.163 35.2642 408.772 14.4203C409.806 8.98945 418.3 10.9994 422.272 11.9754Z" fill="#454545"/>
<path d="M28.1888 103.594C27.8699 96.8488 22.6324 81.1652 26.0146 75.4638C27.5414 72.8933 40.6933 69.4628 44.0658 69.1149C51.3133 68.3515 75.1819 69.2405 78.4868 76.9712C80.1779 80.9139 77.1726 100.057 74.8244 103.739C69.065 112.755 36.7119 110.455 28.1888 103.594Z" fill="#454545"/>
<path d="M191.046 52.3101C190.621 52.7739 187.393 54.2234 186.707 54.3297C181.73 55.0931 181.866 50.6963 179.247 47.7103C159.911 25.6005 127.635 57.3254 146.875 81.049C154.431 90.3742 164.414 92.2586 175.237 87.2336C179.779 85.127 187.867 75.28 191.539 83.7451C193.742 88.828 188.582 91.5241 184.832 93.9303C151.243 115.528 115.855 77.1257 136.786 44.9176C146.643 29.7557 165.786 24.924 181.18 35.1479C184.958 37.6604 195.143 47.8553 191.036 52.3198L191.046 52.3101Z" fill="#454545"/>
<path d="M371.056 99.4288C370.292 101.883 360.329 101.941 360.455 97.4672L360.909 32.2586C368.089 26.8278 372.669 31.9204 371.065 39.999C376.003 34.6841 393.716 27.7168 400.055 30.8188C402.877 32.2006 402.868 39.1486 400.055 40.4918C397.862 41.5451 391.165 41.5258 387.677 42.6081C382.961 44.0769 377.714 48.0582 375.076 52.2328C374.38 53.3441 371.056 61.1328 371.056 61.7416V99.4288Z" fill="#454545"/>
<path d="M202.913 12.4584C203.995 8.6027 213.542 9.73332 213.542 12.4584V98.4626C213.542 101.4 202.913 101.4 202.913 98.4626V12.4584Z" fill="#454545"/>
<path d="M13.2492 78.8649C23.0576 76.8936 21.8303 90.7992 19.8397 97.0707C16.6024 107.266 -0.12492 93.2344 0.000703891 88.7796C0.0876744 85.4554 10.3019 79.4641 13.2588 78.8649H13.2492Z" fill="#454545"/>
<path d="M89.561 55.6248C94.0062 54.2719 106.375 60.2536 107.081 64.8533C107.883 70.0426 92.4601 79.0489 88.3048 75.831C84.8067 73.1155 84.739 57.084 89.5514 55.6248H89.561Z" fill="#454545"/>
<path d="M69.5578 11.9752C57.5076 10.5063 43.9015 10.3227 31.8706 11.9752C38.461 -3.20602 63.7791 -3.85347 69.5578 11.9752Z" fill="#454545"/>
<path d="M36.364 41.1103C43.4376 41.5162 47.332 42.1346 54.4539 41.9897C57.5848 41.922 63.4118 39.8154 66.2336 41.8641C70.0603 44.6471 61.885 51.0733 59.2276 52.3778C52.009 55.9243 45.1191 55.0063 39.0794 49.6817C37.456 48.2516 32.0445 42.5308 36.3544 41.1103H36.364Z" fill="#ACACAC"/>
<path d="M33.5327 20.8363C41.9495 18.3818 44.7325 31.4273 36.9535 33.0604C28.7976 34.7709 25.9759 23.0395 33.5327 20.8363Z" fill="#ACACAC"/>
<path d="M64.4555 20.8366C73.2202 18.2951 75.6167 31.4276 67.8764 33.0608C59.6335 34.8002 57.5365 22.8369 64.4555 20.8366Z" fill="#ACACAC"/>
</svg>
