<svg width="760" height="126" viewBox="0 0 760 126" fill="none" xmlns="http://www.w3.org/2000/svg">
<path d="M57.1475 94.4426C51.2156 96.6858 44.533 97.8027 37.015 97.8027C12.396 97.8027 0.0629883 85.8921 0.0629883 62.0616C0.0629883 39.4981 12.396 28.2352 37.015 28.2352C44.533 28.2352 51.2626 29.3521 57.1475 31.5953V43.0835C51.2156 40.5118 44.8146 39.2541 37.9442 39.2541C21.4533 39.2541 13.2313 46.866 13.2313 62.0522C13.2313 78.543 21.4533 86.765 37.9442 86.765C44.8146 86.765 51.2156 85.5073 57.1475 82.9356V94.4238V94.4426ZM63.783 63.1034C63.783 39.836 75.2714 28.207 98.2103 28.207C121.149 28.207 132.121 39.836 132.121 63.1034C132.121 86.3708 120.821 97.8121 98.2103 97.8121C75.5999 97.8121 64.8061 86.23 63.783 63.1034ZM98.2573 86.7369C112.083 86.7369 119 78.7495 119 62.8218C119 46.8941 112.083 39.2729 98.2573 39.2729C84.432 39.2729 76.9983 47.1194 76.9983 62.8218C76.9983 78.7495 84.0566 86.7369 98.2573 86.7369ZM142.126 97.2959V28.7139H155.304L178.571 80.7581L201.416 28.7139H214.125V97.3428H202.355V49.5034L183.762 97.2959H172.921L153.905 49.5034V97.2959H142.136H142.126ZM228.504 97.2959V28.7139H241.681L264.949 80.7581L287.747 28.7139H300.455V97.3428H288.686V49.5034L270.092 97.2959H259.252L240.236 49.5034V97.2959H228.513H228.504ZM378.273 28.7139L348.191 97.3428H334.507L305.73 28.7139H320.869L342.128 81.2649L363.34 28.7139H378.292H378.273ZM364.072 97.2959L393.178 28.6669H406.862L436.624 97.2959H422.94L414.296 78.5618H392.802L397.148 67.5335H410.926L399.71 41.7977L377.1 97.2959H364.063H364.072ZM438.342 70.3399V28.7139H451.05V70.3399C451.05 81.2743 456.654 86.7369 467.823 86.7369C478.992 86.7369 484.595 81.2743 484.595 70.3399V28.7139H497.304V70.3399C497.304 88.6515 487.449 97.8121 467.776 97.8121C448.103 97.8121 438.342 88.6515 438.342 70.3399ZM523.039 28.7139V86.2676H555.083V97.2959H510.331V28.7139H523.039ZM600.266 28.7139V39.7422H580.603V97.2959H567.894V39.7422H548.184V28.7139H600.275H600.266Z" fill="#454545"/>
<path d="M612.505 30.9102C613.303 30.9102 613.857 31.051 614.232 31.3795C614.607 31.708 614.795 32.1773 614.795 32.778C614.795 33.3787 614.654 33.801 614.279 34.0826C613.95 34.3642 613.528 34.505 613.068 34.5519L614.936 37.4521H613.866L612.092 34.6458H611.022V37.4521H609.999V30.8633L612.524 30.9102H612.505ZM612.036 33.8574H612.693C612.88 33.8574 613.068 33.8104 613.256 33.7166C613.397 33.6696 613.537 33.5288 613.631 33.3881C613.725 33.2473 613.772 33.0596 613.772 32.778C613.772 32.5433 613.725 32.3556 613.631 32.2618C613.537 32.121 613.444 32.0271 613.303 31.9802C613.162 31.9333 613.021 31.8863 612.834 31.8394C612.646 31.8394 612.458 31.7925 612.317 31.7925H610.966V33.8949L612.036 33.848V33.8574Z" fill="#454545"/>
<path d="M612.176 28.6201C609.098 28.6201 606.573 31.1449 606.573 34.2234C606.573 37.302 609.098 39.8268 612.176 39.8268C615.255 39.8268 617.78 37.302 617.78 34.2234C617.78 31.1449 615.255 28.6201 612.176 28.6201ZM612.176 38.9914C609.511 38.9914 607.361 36.8421 607.361 34.1765C607.361 31.5109 609.511 29.3616 612.176 29.3616C614.842 29.3616 616.991 31.5109 616.991 34.1765C616.944 36.889 614.795 38.9914 612.176 38.9914Z" fill="#454545"/>
<path d="M704.767 0.5L649.598 32.3554V93.6446L704.767 125.5L759.937 93.6446V32.3554L704.767 0.5ZM750.354 88.1352L704.711 114.481L659.068 88.1352V37.8648L704.711 11.5189L750.354 37.8648V88.1352Z" fill="#454545"/>
<path d="M701.585 101.782C701.585 102.251 701.069 102.533 700.647 102.298L668.51 83.752C667.947 83.4235 667.571 82.8134 667.571 82.1658V46.2839C667.571 45.8146 668.088 45.533 668.51 45.7677L700.647 64.314C701.21 64.6425 701.585 65.2526 701.585 65.9002V101.782ZM736.717 40.8589L705.978 58.6075C705.227 59.0298 704.298 59.0298 703.547 58.6075L672.809 40.8589C672.386 40.6243 672.386 40.0142 672.809 39.7889L703.547 22.0404C704.298 21.618 705.227 21.618 705.978 22.0404L736.717 39.7889C737.139 40.0236 737.139 40.6337 736.717 40.8589ZM736.717 86.1735L708.831 102.289C708.409 102.524 707.893 102.242 707.893 101.773V69.5888C707.893 69.1196 708.409 68.838 708.831 69.0726L736.717 85.188C737.139 85.3757 737.139 85.9389 736.717 86.1735Z" fill="#454545"/>
</svg>
