<svg width="595" height="126" viewBox="0 0 595 126" fill="none" xmlns="http://www.w3.org/2000/svg">
<path d="M193.33 30.0701C207.8 30.0701 219.57 37.6601 223.96 50.7301H208.93C205.85 44.6001 200.25 41.5901 193.25 41.5901C181.86 41.5901 173.74 49.7201 173.74 62.7001C173.74 75.6801 181.86 83.8101 193.25 83.8101C200.25 83.8101 205.86 80.7901 208.93 74.5801H223.96C219.57 87.7401 207.81 95.2401 193.33 95.2401C174.56 95.2401 160.28 81.8101 160.28 62.7101C160.28 43.6101 174.56 30.0801 193.33 30.0801V30.0701Z" fill="#454545"/>
<path d="M265.41 95.33C247.02 95.33 231.98 81.8 231.98 62.61C231.98 43.42 247.01 29.98 265.41 29.98C283.81 29.98 298.75 43.51 298.75 62.61C298.75 81.71 283.91 95.33 265.41 95.33ZM265.41 83.9C277.18 83.9 285.3 75.58 285.3 62.61C285.3 49.64 277.18 41.5 265.41 41.5C253.64 41.5 245.43 49.63 245.43 62.61C245.43 75.59 253.55 83.9 265.41 83.9Z" fill="#454545"/>
<path d="M332.92 30.8899C348.61 30.8899 356.45 39.7499 356.45 50.4499C356.45 58.2199 352.06 66.0799 341.61 68.8199L357.21 94.6799H342.08L327.7 69.8199H321.54V94.6799H308.47V30.8899H332.93H332.92ZM332.45 41.4899H321.52V60.2199H332.45C339.73 60.2199 343 56.4699 343 50.7199C343 44.9699 339.73 41.4899 332.45 41.4899Z" fill="#454545"/>
<path d="M406.12 41.2201H381.38V57.2201H403.32V67.3601H381.38V84.2701H406.12V94.69H368.3V30.8H406.12V41.2201Z" fill="#454545"/>
<path d="M475.12 62.8799C475.12 82.1599 461.58 94.6799 440.76 94.6799H417.98V30.8899H440.76C461.58 30.8899 475.12 43.4999 475.12 62.8799ZM440.29 83.8099C454.02 83.8099 461.77 76.1299 461.77 62.8799C461.77 49.6299 454.02 41.6799 440.29 41.6799H431.05V83.8099H440.29Z" fill="#454545"/>
<path d="M545.33 50.0901H530.3C527.31 44.7001 521.9 41.8601 514.99 41.8601C503.32 41.8601 495.19 49.9901 495.19 62.7001C495.19 75.4101 503.41 83.7201 515.55 83.7201C525.63 83.7201 532.08 78.0501 534.04 69.0101H511.63V59.2301H546.92V70.3801C544.3 83.3601 532.45 95.2401 515.09 95.2401C496.14 95.2401 481.75 81.8101 481.75 62.7101C481.75 43.6101 496.13 30.0801 514.99 30.0801C529.55 30.0801 541.13 37.3001 545.33 50.1001V50.0901Z" fill="#454545"/>
<path d="M594.44 41.2201H569.7V57.2201H591.64V67.3601H569.7V84.2701H594.44V94.69H556.63V30.8H594.44V41.2201Z" fill="#454545"/>
<path d="M76.2 55.42C73.79 51.98 69.73 49.73 65.12 49.73C57.72 49.73 51.72 55.55 51.72 62.73C51.72 69.91 57.72 75.73 65.12 75.73C71.75 75.73 77.24 71.05 78.32 64.92L128.02 64.9V62.64C128.02 28.1 99.3 0 64.01 0C28.72 0 0 28.11 0 62.66C0 97.21 28.71 125.29 64.01 125.31C103 125.33 119.82 93.38 119.82 93.38L95.73 82.45L93.72 85.86C86.43 96.99 78.88 100.75 63.85 100.75C42.41 100.75 24.96 83.66 24.96 62.66C24.96 41.66 42.4 24.58 63.85 24.58C74.23 24.58 84 28.54 91.34 35.73L76.2 55.43V55.42Z" fill="#454545"/>
</svg>
