<svg width="594" height="126" viewBox="0 0 594 126" fill="none" xmlns="http://www.w3.org/2000/svg">
<path d="M193.187 30.415C207.646 30.415 219.408 38.005 223.794 51.075H208.775C205.698 44.945 200.102 41.935 193.107 41.935C181.725 41.935 173.611 50.065 173.611 63.045C173.611 76.025 181.725 84.155 193.107 84.155C200.102 84.155 205.708 81.135 208.775 74.925H223.794C219.408 88.085 207.656 95.585 193.187 95.585C174.431 95.585 160.161 82.155 160.161 63.055C160.161 43.955 174.431 30.425 193.187 30.425V30.415Z" fill="#454545"/>
<path d="M265.214 95.6752C246.837 95.6752 231.808 82.1452 231.808 62.9552C231.808 43.7652 246.827 30.3252 265.214 30.3252C283.6 30.3252 298.529 43.8552 298.529 62.9552C298.529 82.0552 283.7 95.6752 265.214 95.6752ZM265.214 84.2452C276.975 84.2452 285.089 75.9252 285.089 62.9552C285.089 49.9852 276.975 41.8452 265.214 41.8452C253.452 41.8452 245.248 49.9752 245.248 62.9552C245.248 75.9352 253.362 84.2452 265.214 84.2452Z" fill="#454545"/>
<path d="M332.674 31.2354C348.352 31.2354 356.186 40.0954 356.186 50.7954C356.186 58.5654 351.799 66.4254 341.357 69.1654L356.946 95.0254H341.827L327.457 70.1654H321.302V95.0254H308.242V31.2354H332.684H332.674ZM332.204 41.8354H321.282V60.5654H332.204C339.479 60.5654 342.746 56.8154 342.746 51.0654C342.746 45.3154 339.479 41.8354 332.204 41.8354Z" fill="#454545"/>
<path d="M405.819 41.565H381.098V57.565H403.021V67.705H381.098V84.615H405.819V95.035H368.027V31.145H405.819V41.565Z" fill="#454545"/>
<path d="M474.768 63.2254C474.768 82.5054 461.238 95.0254 440.434 95.0254H417.671V31.2354H440.434C461.238 31.2354 474.768 43.8454 474.768 63.2254ZM439.964 84.1554C453.684 84.1554 461.428 76.4754 461.428 63.2254C461.428 49.9754 453.684 42.0254 439.964 42.0254H430.731V84.1554H439.964Z" fill="#454545"/>
<path d="M544.926 50.4353H529.907C526.92 45.0453 521.514 42.2053 514.609 42.2053C502.947 42.2053 494.823 50.3353 494.823 63.0453C494.823 75.7553 503.037 84.0653 515.168 84.0653C525.241 84.0653 531.686 78.3953 533.645 69.3553H511.251V59.5753H546.515V70.7253C543.897 83.7053 532.056 95.5853 514.709 95.5853C495.773 95.5853 481.393 82.1553 481.393 63.0553C481.393 43.9553 495.763 30.4253 514.609 30.4253C529.158 30.4253 540.729 37.6453 544.926 50.4453V50.4353Z" fill="#454545"/>
<path d="M594 41.565H569.278V57.565H591.202V67.705H569.278V84.615H594V95.035H556.218V31.145H594V41.565Z" fill="#454545"/>
<path d="M76.1436 55.7652C73.7354 52.3252 69.6784 50.0752 65.0718 50.0752C57.6773 50.0752 51.6817 55.8952 51.6817 63.0752C51.6817 70.2552 57.6773 76.0752 65.0718 76.0752C71.6969 76.0752 77.1828 71.3952 78.262 65.2652L127.925 65.2452V62.9852C127.925 28.4452 99.2265 0.345215 63.9626 0.345215C28.6987 0.345215 0 28.4552 0 63.0052C0 97.5552 28.6888 125.635 63.9626 125.655C102.924 125.675 119.731 93.7252 119.731 93.7252L95.6591 82.7952L93.6506 86.2052C86.366 97.3352 78.8216 101.095 63.8027 101.095C42.3786 101.095 24.9415 84.0052 24.9415 63.0052C24.9415 42.0052 42.3686 24.9252 63.8027 24.9252C74.1751 24.9252 83.9378 28.8852 91.2724 36.0752L76.1436 55.7752V55.7652Z" fill="#454545"/>
</svg>
