<svg width="277" height="100" viewBox="0 0 277 100" fill="none" xmlns="http://www.w3.org/2000/svg">
<g clip-path="url(#clip0_2662_323)">
<path d="M117.48 96.3057C110.389 96.3057 104.066 94.9387 98.5131 92.2049C92.9597 89.471 88.5598 85.498 85.3131 80.2865C82.152 74.9893 80.5713 68.71 80.5713 61.4478C80.5713 53.844 82.1092 47.1371 85.185 41.3274C88.2607 35.5178 92.5325 31.0325 98.0006 27.8714C103.554 24.6248 109.919 23.0015 117.096 23.0015C124.528 23.0015 130.765 24.6248 135.806 27.8714C140.847 31.0325 144.606 35.6035 147.084 41.5837C149.647 47.5643 150.886 54.6556 150.8 62.8575H87.6197V50.9392H140.932L133.371 56.5779C133.371 52.3914 132.773 48.7178 131.577 45.5567C130.466 42.3956 128.672 39.8752 126.194 37.9954C123.802 36.116 120.769 35.1761 117.096 35.1761C113.336 35.1761 110.047 36.2013 107.228 38.252C104.408 40.3024 102.23 43.2925 100.692 47.2227C99.1537 51.1526 98.385 55.7663 98.385 61.0634C98.385 65.7624 99.1966 69.8207 100.82 73.238C102.529 76.6554 104.835 79.2611 107.74 81.0552C110.731 82.7641 114.02 83.6185 117.608 83.6185C122.563 83.6185 126.664 82.2941 129.911 79.6458C133.243 76.9116 135.678 73.4943 137.216 69.3935L151.697 78.108C147.596 84.2592 142.598 88.83 136.703 91.8205C130.893 94.8106 124.486 96.3057 117.48 96.3057Z" fill="white"/>
<path d="M192.776 96.3057C185.685 96.3057 179.362 94.9387 173.809 92.2049C168.256 89.471 163.856 85.498 160.609 80.2865C157.448 74.9893 155.867 68.71 155.867 61.4478C155.867 53.844 157.405 47.1371 160.481 41.3274C163.557 35.5178 167.828 31.0325 173.296 27.8714C178.85 24.6248 185.215 23.0015 192.391 23.0015C199.824 23.0015 206.061 24.6248 211.102 27.8714C216.143 31.0325 219.902 35.6035 222.379 41.5837C224.942 47.5643 226.181 54.6556 226.096 62.8575H162.916V50.9392H216.228L208.667 56.5779C208.667 52.3914 208.069 48.7178 206.873 45.5567C205.762 42.3956 203.968 39.8752 201.49 37.9954C199.098 36.116 196.065 35.1761 192.391 35.1761C188.632 35.1761 185.343 36.2013 182.523 38.252C179.704 40.3024 177.525 43.2925 175.988 47.2227C174.45 51.1526 173.681 55.7663 173.681 61.0634C173.681 65.7624 174.492 69.8207 176.116 73.238C177.824 76.6554 180.131 79.2611 183.036 81.0552C186.026 82.7641 189.316 83.6185 192.904 83.6185C197.859 83.6185 201.96 82.2941 205.207 79.6458C208.539 76.9116 210.974 73.4943 212.511 69.3935L226.993 78.108C222.892 84.2592 217.894 88.83 211.999 91.8205C206.189 94.8106 199.781 96.3057 192.776 96.3057Z" fill="white"/>
<path d="M231.805 2.88135H248.977V77.8518C248.977 83.9177 249.276 89.4711 249.874 94.5116H231.805V2.88135Z" fill="white"/>
<path d="M0.922852 59.7009C0.922852 34.3203 17.1244 23.0417 34.8898 23.0417C51.1037 23.0417 57.9409 33.3436 57.9409 33.3436V2.91406H75.5018V77.9047C75.5018 84.0605 75.7135 89.6146 76.1432 94.568H57.9465V86.1509C57.9465 86.1509 50.9788 96.3604 34.8955 96.3604C17.7496 96.3604 0.922852 86.5214 0.922852 59.7009ZM39.375 82.8857C51.8123 82.8857 59.8536 73.4195 59.8536 59.7009C59.8536 45.5024 51.8066 36.5161 39.375 36.5161C26.9434 36.5161 19.1938 45.0589 19.1938 59.7009C19.1938 74.3429 27.2698 82.8857 39.375 82.8857Z" fill="white"/>
<path d="M260.076 78.1064H276.992V94.5104H260.076V78.1064Z" fill="white"/>
</g>
<defs>
<clipPath id="clip0_2662_323">
<rect width="276.077" height="99.1045" fill="white" transform="translate(0.922852 0.0678711)"/>
</clipPath>
</defs>
</svg>
