<svg width="752" height="91" viewBox="0 0 752 91" fill="none" xmlns="http://www.w3.org/2000/svg">
<g clip-path="url(#clip0_2662_386)">
<path d="M152.506 22.08C145.456 8.93565 131.834 0.810059 117.016 0.810059H4.69197C2.54108 0.810059 0.868164 2.60247 0.868164 4.75336C0.868164 5.70931 1.22665 6.78476 1.94361 7.50172L26.4399 32.1175C28.5908 34.2684 31.5781 35.4633 34.5655 35.4633H113.79C119.406 35.4633 124.066 39.8846 124.066 45.6203C124.066 51.2365 119.645 55.8968 113.909 55.8968H59.4202C57.2693 55.8968 55.5964 57.6892 55.5964 59.8401C55.5964 60.9155 55.9549 61.8715 56.6719 62.5885L81.1681 87.2042C83.319 89.2356 86.3064 90.4306 89.2937 90.4306H114.029C146.173 90.4306 170.43 56.1358 152.506 22.08Z" fill="#454545"/>
<path d="M212.135 28.7733V66.5334H221.814C232.09 66.4139 240.335 57.9298 240.216 47.6533C240.455 37.4963 232.568 29.1317 222.411 28.7733C222.172 28.7733 222.053 28.7733 221.814 28.7733H212.135ZM221.814 16.9434C239.857 16.9434 253.479 30.5657 253.479 47.6533C253.479 64.741 239.857 78.3633 221.814 78.3633H200.544C199.707 78.3633 198.99 77.6463 198.99 76.8099V18.4968C198.99 17.6603 199.707 16.9434 200.544 16.9434H221.814Z" fill="#454545"/>
<path d="M299.964 67.8457C311.077 67.8457 320.158 58.8837 320.278 47.6512C320.397 36.4188 311.316 27.4567 300.083 27.3372C288.97 27.3372 279.889 36.2993 279.769 47.5317C279.769 58.7642 288.731 67.8457 299.964 67.8457ZM299.964 15.5073C318.963 15.5073 333.422 30.0856 333.422 47.6512C333.422 65.2168 318.844 79.6756 299.964 79.6756C281.084 79.6756 266.625 65.2168 266.625 47.5317C266.625 29.8466 281.084 15.5073 299.964 15.5073Z" fill="#454545"/>
<path d="M379.427 67.8457C390.54 67.8457 399.622 58.7642 399.622 47.5317C399.622 36.2993 390.54 27.3372 379.308 27.3372C368.195 27.3372 359.113 36.4188 359.113 47.5317C359.233 58.7642 368.195 67.8457 379.427 67.8457ZM379.427 15.5073C398.307 15.5073 412.766 29.9661 412.766 47.6512C412.766 65.3363 398.307 79.6756 379.427 79.6756C360.547 79.6756 345.969 65.2168 345.969 47.5317C345.969 29.8466 360.428 15.5073 379.427 15.5073Z" fill="#454545"/>
<path d="M457.098 28.7728H443.476V45.024H457.098C461.519 45.2629 465.224 41.7976 465.463 37.3763C465.463 37.2569 465.463 37.1374 465.463 37.0179C465.582 32.5966 462.117 28.7728 457.696 28.6533C457.457 28.7728 457.218 28.7728 457.098 28.7728ZM430.212 18.4963C430.212 17.6598 430.929 16.9429 431.765 16.9429H457.457C469.645 16.9429 478.488 25.9049 478.488 37.1374C478.607 44.785 474.305 51.7156 467.494 55.181L479.324 76.0924C479.802 76.8094 479.563 77.7653 478.965 78.2433C478.726 78.4823 478.368 78.4823 478.01 78.4823H467.614C467.016 78.4823 466.538 78.1238 466.18 77.6458L454.828 56.9734H443.356V76.8094C443.356 77.6458 442.639 78.3628 441.803 78.3628H431.765C430.929 78.3628 430.212 77.6458 430.212 76.8094V18.4963Z" fill="#454545"/>
<path d="M512.9 29.0101V66.7702H522.579C532.856 66.6507 541.101 58.1666 540.981 47.8901C541.34 37.7331 533.334 29.2491 523.177 29.0101C522.938 29.0101 522.699 29.0101 522.46 29.0101H512.9ZM522.579 17.1802C540.623 17.1802 554.245 30.8025 554.245 47.8901C554.245 64.9778 540.623 78.6001 522.579 78.6001H501.309C500.473 78.6001 499.756 77.8831 499.756 77.0467V18.7336C499.756 17.8971 500.473 17.1802 501.309 17.1802H522.579Z" fill="#454545"/>
<path d="M594.395 32.2369L586.867 52.4314H601.804L594.395 32.2369ZM582.565 63.7833L577.666 77.2861C577.427 77.8836 576.83 78.3616 576.113 78.3616H565.478C564.641 78.4811 563.924 77.8836 563.805 76.9276C563.805 76.6886 563.805 76.3302 563.924 76.0912L586.867 17.7781C587.106 17.1806 587.703 16.7027 588.42 16.8221H600.25C600.967 16.8221 601.565 17.1806 601.804 17.7781L624.747 76.0912C625.105 76.8081 624.747 77.7641 624.03 78.1226C623.791 78.2421 623.552 78.2421 623.193 78.2421H612.558C611.841 78.2421 611.244 77.8836 611.005 77.1666L606.106 63.6638H582.565V63.7833Z" fill="#454545"/>
<path d="M637.056 33.5516C637.056 23.8726 645.42 15.508 658.564 15.508C665.615 15.3885 672.545 17.8979 677.683 22.6776C678.281 23.2751 678.4 24.231 677.803 24.8285C677.803 24.8285 677.803 24.8285 677.683 24.948L671.828 30.8032C671.231 31.4007 670.275 31.4007 669.677 30.8032C666.929 28.2938 663.225 26.8599 659.52 26.7404C654.263 26.7404 650.319 29.8473 650.319 33.3126C650.319 44.784 681.507 38.0923 681.507 60.0792C681.507 71.1922 673.023 79.6763 658.206 79.6763C649.961 79.7958 641.955 76.5694 635.98 70.7142C635.383 70.1167 635.263 69.1608 635.861 68.5633C635.861 68.5633 635.861 68.5633 635.98 68.4438L641.716 62.7081C642.313 62.1106 643.269 62.1106 643.867 62.7081C647.451 66.1734 652.351 68.0853 657.25 68.2048C663.822 68.2048 668.124 64.7395 668.124 60.3182C668.243 48.9663 637.056 55.5385 637.056 33.5516Z" fill="#454545"/>
<path d="M738.028 18.3767V41.439H711.62V18.3767C711.62 17.5402 710.903 16.8232 710.067 16.8232H700.029C699.193 16.8232 698.476 17.5402 698.476 18.3767V76.6897C698.476 77.5262 699.193 78.2432 700.029 78.2432H710.067C710.903 78.2432 711.62 77.5262 711.62 76.6897V53.2689H738.028V76.6897C738.028 77.5262 738.745 78.2432 739.582 78.2432H749.619C750.455 78.2432 751.172 77.5262 751.172 76.6897V18.3767C751.172 17.5402 750.455 16.8232 749.619 16.8232H739.582C738.626 16.8232 738.028 17.5402 738.028 18.3767Z" fill="#454545"/>
</g>
<defs>
<clipPath id="clip0_2662_386">
<rect width="750.183" height="89.6205" fill="white" transform="translate(0.868164 0.810059)"/>
</clipPath>
</defs>
</svg>
