<svg width="514" height="141" viewBox="0 0 514 141" fill="none" xmlns="http://www.w3.org/2000/svg">
<path fill-rule="evenodd" clip-rule="evenodd" d="M68.4188 0.933957C66.6724 0.987693 63.4393 1.20264 59.1136 1.53401C58.2359 1.60566 56.9014 1.74 56.158 1.84747C55.4147 1.95494 54.6802 1.99077 54.528 1.92808C54.3757 1.87434 52.7279 2.06242 50.8561 2.35797C48.9933 2.65351 46.9782 2.94907 46.3871 3.02071C45.796 3.09236 44.7839 3.28044 44.1391 3.44165C43.4942 3.60286 42.5269 3.79989 41.9985 3.86258C40.5924 4.05066 37.9326 4.70445 37.9326 4.86566C37.9326 4.94626 37.7443 4.95522 37.5025 4.89253C37.2697 4.82983 36.9115 4.8567 36.6966 4.94626C36.4906 5.03582 36.1771 5.13434 35.998 5.17016C35.4337 5.27764 33.159 5.93143 31.4036 6.50461C30.4632 6.80912 29.5944 7.06884 29.4779 7.0778C29.2719 7.09571 28.9317 7.2211 27.9823 7.60621C27.0599 7.98236 26.6926 8.09879 26.5314 8.06297C26.4418 8.04505 25.9852 8.22417 25.5284 8.45703C25.0716 8.68989 24.5432 8.88692 24.3551 8.88692C24.167 8.88692 24.0238 8.98544 24.0238 9.10187C24.0238 9.2183 23.8715 9.31681 23.6834 9.31681C23.4953 9.31681 23.0744 9.50489 22.7519 9.73774C22.4295 9.9706 22.0894 10.096 22.0177 10.0154C21.6416 9.63923 22.0177 55.3419 22.4117 57.6526C22.6267 58.8885 22.8237 60.2677 22.8595 60.7155C22.9401 61.7634 23.7461 65.0861 24.3282 66.7429C24.579 67.4505 24.794 68.0953 24.8029 68.1849C24.8208 68.2744 24.8567 68.364 24.8746 68.3998C24.9015 68.4267 24.9462 68.5968 24.991 68.776C25.0268 68.9551 25.2148 69.4566 25.4029 69.8955C25.591 70.3343 25.7523 70.7732 25.7613 70.8538C25.7702 70.9433 25.8777 71.1404 26.0031 71.2837C26.1285 71.4269 26.1642 71.5523 26.0925 71.5523C26.0209 71.5523 26.1553 71.8927 26.3881 72.3046C26.621 72.7166 26.8091 73.1913 26.8091 73.3525C26.8091 73.5137 26.8806 73.6839 26.9702 73.7197C27.0598 73.7555 27.5525 74.6064 28.072 75.6094C28.5914 76.6125 29.1466 77.5081 29.3078 77.5977C29.469 77.6962 29.5496 77.8664 29.4779 77.9738C29.4063 78.0813 29.4512 78.1709 29.5766 78.1709C29.7019 78.1709 29.8005 78.3321 29.8005 78.5291C29.8005 78.7261 30.0421 79.2008 30.3377 79.5859C30.6332 79.971 30.8751 80.3561 30.8751 80.4367C30.8751 80.5621 31.52 81.404 32.4604 82.4966C32.6305 82.6937 32.8812 83.0609 33.0155 83.3116C33.1499 83.5624 33.4456 83.9565 33.6785 84.1804C33.9024 84.4043 34.0904 84.6908 34.0904 84.8073C34.0904 84.9237 34.2336 85.0222 34.4127 85.0222C34.5918 85.0222 34.7083 85.1118 34.6814 85.2103C34.6277 85.4073 35.9353 87.0015 37.4041 88.533C37.8698 89.0166 38.5684 89.7779 38.9535 90.2257C39.3386 90.6735 39.6521 90.969 39.6521 90.8974C39.6521 90.8257 40.3058 91.4258 41.1029 92.2229C42.903 94.032 45.7243 96.5755 46.3871 96.9875C46.6647 97.1577 46.9872 97.5159 47.1125 97.7935C47.2379 98.0622 47.4437 98.2861 47.5691 98.2861C47.793 98.2861 48.1602 98.5906 49.826 100.158C50.2291 100.543 50.641 100.857 50.7306 100.857C50.8202 100.857 51.1067 101.143 51.3754 101.501C51.6441 101.86 51.9309 102.146 52.0294 102.146C52.1996 102.146 53.3011 103.104 55.4953 105.164C56.0685 105.702 56.579 106.105 56.6237 106.06C56.6685 106.015 56.9551 106.266 57.2506 106.624C57.5551 106.982 57.8597 107.278 57.9403 107.278C58.0209 107.278 58.3523 107.547 58.6747 107.869C59.8032 108.989 60.7794 109.848 60.9137 109.848C60.9854 109.848 61.3345 110.144 61.6838 110.502C62.06 110.887 62.4272 111.093 62.5884 111.004C62.7317 110.923 62.7766 110.932 62.687 111.031C62.5168 111.219 63.323 112.204 63.6454 112.204C63.8603 112.204 64.8633 113.296 64.8722 113.538C64.8901 113.879 64.3976 113.673 63.7438 113.055C63.3676 112.705 62.9379 112.41 62.7856 112.41C62.6334 112.41 62.4541 112.266 62.3914 112.087C62.3197 111.908 62.1407 111.765 61.9794 111.765C61.8182 111.765 61.5137 111.586 61.3077 111.371C61.1018 111.156 60.5913 110.753 60.1793 110.466C59.7673 110.189 59.3017 109.804 59.1494 109.624C58.9076 109.347 58.8896 109.347 59.0329 109.624C59.1224 109.804 58.8538 109.66 58.4239 109.302C56.7671 107.923 56.0416 107.368 55.5491 107.108C55.2714 106.956 55.0475 106.732 55.0475 106.615C55.0475 106.499 54.9669 106.445 54.8594 106.508C54.7609 106.57 54.4474 106.409 54.1608 106.141C53.8832 105.872 53.1308 105.281 52.4949 104.833C51.859 104.385 51.2323 103.928 51.1069 103.83C50.9815 103.731 50.4441 103.302 49.9157 102.89C49.3873 102.478 48.7246 101.94 48.456 101.707C48.1783 101.474 47.9005 101.286 47.8289 101.286C47.7572 101.286 47.417 101.018 47.0677 100.695C46.7184 100.373 46.5035 100.248 46.593 100.427C46.6826 100.606 46.5751 100.552 46.3602 100.319C45.778 99.6833 44.148 98.4384 44.148 98.6354C44.148 98.725 43.8166 98.4563 43.4136 98.0264C43.0106 97.5965 42.6435 97.292 42.5987 97.3368C42.5539 97.3816 42.2404 97.1397 41.9001 96.7815C41.5597 96.4233 41.2014 96.1367 41.0939 96.1367C40.9237 96.1367 40.4313 95.7337 39.2222 94.6052C39.0162 94.4082 38.8013 94.2828 38.7565 94.3365C38.7117 94.3813 38.1027 93.8977 37.4131 93.2618C36.7235 92.617 36.1145 92.1333 36.0786 92.1691C36.0339 92.2139 35.783 92.0348 35.5233 91.784C34.6187 90.9153 33.6783 90.1451 33.5261 90.1451C33.3738 90.1451 32.8724 89.6883 31.8156 88.5957C31.5021 88.2733 31.1437 88.0046 31.0184 88.0046C30.893 88.0046 30.6603 87.8165 30.517 87.5747C30.3737 87.3418 30.1408 87.1448 30.0064 87.1448C29.8721 87.1448 29.5496 86.9299 29.2809 86.6612C29.0123 86.3925 28.3316 85.7566 27.7584 85.2372C26.2001 83.8221 23.4417 81.1532 23.5312 81.1532C23.576 81.1532 23.3072 80.8666 22.94 80.5084C22.5728 80.1591 22.1967 79.8635 22.1071 79.8635C22.0176 79.8635 21.6951 79.4337 21.3816 78.9053C21.0682 78.3768 20.737 77.947 20.6384 77.947C20.5399 77.947 20.4055 77.741 20.3428 77.4992C20.2801 77.2484 20.128 77.1051 20.0116 77.1767C19.8951 77.2484 19.7338 77.0961 19.6442 76.8364C19.5636 76.5767 19.3756 76.2453 19.2323 76.102C19.089 75.9587 18.6501 75.3318 18.256 74.7049C17.8619 74.0779 17.4858 73.5137 17.4231 73.46C17.1455 73.2003 16.4021 71.9643 15.811 70.7821C15.4617 70.0746 15.0946 69.4656 15.0051 69.4298C14.9155 69.3939 14.8975 69.2686 14.9602 69.1611C15.0229 69.0536 14.9783 68.964 14.8529 68.964C14.7275 68.964 14.629 68.7939 14.629 68.5789C14.629 68.364 14.3691 67.6654 14.0646 67.0295C13.7512 66.3937 13.4646 65.6772 13.4288 65.4354C13.393 65.2025 13.169 64.3606 12.9362 63.5636C12.7033 62.7754 12.4706 61.7096 12.4079 61.2081C12.175 59.2288 12.0586 58.3511 11.9601 57.8317C11.6018 56.0673 11.4226 51.6341 11.4137 44.2812V35.9163L11.9957 35.4864C12.3181 35.2445 12.6227 35.0833 12.6764 35.1281C12.7212 35.1639 12.8197 35.1192 12.9003 35.0206C13.0436 34.8236 14.8259 33.8743 17.253 32.701L18.059 32.3159V26.1452C18.059 22.1777 17.9873 19.9745 17.844 19.9745C17.7276 19.9745 17.6291 20.0909 17.6291 20.2253C17.6291 20.3596 17.5665 20.4133 17.4949 20.3417C17.4232 20.2701 16.9933 20.3954 16.5455 20.6283C16.0977 20.8611 15.5782 21.0492 15.3991 21.0492C15.2199 21.0492 15.0678 21.1477 15.0678 21.2731C15.0678 21.3985 14.9693 21.4433 14.8529 21.3627C14.7364 21.291 14.6379 21.3448 14.6379 21.497C14.6379 21.6493 14.5751 21.703 14.5035 21.6314C14.4318 21.5597 13.8497 21.7926 13.2228 22.1508C12.5869 22.5091 12.0674 22.733 12.0674 22.6613C12.0674 22.5897 11.7809 22.724 11.4226 22.9748C11.0734 23.2255 10.7778 23.3688 10.7778 23.2972C10.7778 23.127 9.01353 24.0764 8.79858 24.363C8.70902 24.4794 8.63721 24.4973 8.63721 24.3988C8.63721 24.3003 8.36861 24.3988 8.04619 24.6227C7.72378 24.8466 7.19532 25.1332 6.8729 25.2765C6.55048 25.4108 6.28188 25.6168 6.28188 25.7243C6.28188 25.9124 5.48479 26.2527 5.16237 26.2079C5.07281 26.1989 5.00123 26.2796 5.00123 26.396C5.00123 26.5124 4.85783 26.6109 4.67871 26.6109C4.49959 26.6109 4.3562 26.6826 4.3562 26.7721C4.3562 26.8617 3.82797 27.211 3.19209 27.5603C2.54726 27.9095 2.0814 28.2857 2.15305 28.3932C2.2247 28.5096 2.18003 28.5365 2.04569 28.4559C1.92031 28.3753 1.57092 28.5544 1.27537 28.8499C0.979826 29.1455 0.639636 29.3873 0.523207 29.3873C0.236614 29.3873 0.406744 51.4371 0.711249 54.1955C0.836634 55.315 1.04263 56.8017 1.16802 57.5093C1.2934 58.2168 1.43657 59.2288 1.48135 59.7572C1.52613 60.2856 1.81289 61.5843 2.10844 62.6411C2.40399 63.6979 2.68156 64.6651 2.70843 64.7816C3.12936 66.4474 4.25776 69.1342 4.66078 69.4298C4.77721 69.5193 4.79516 69.591 4.69664 69.591C4.59813 69.591 4.75924 70.0029 5.04583 70.5045C5.34138 71.006 5.5833 71.5076 5.60121 71.624C5.61017 71.7404 5.78025 72.0181 5.96833 72.242C6.15641 72.4659 6.42524 72.8957 6.56853 73.2002C6.98947 74.1138 7.65213 75.1437 7.82229 75.1527C7.91185 75.1527 7.98344 75.287 7.98344 75.4482C7.98344 75.6094 8.12683 75.8065 8.30595 75.8691C8.48508 75.9408 8.62825 76.1289 8.62825 76.299C8.62825 76.4692 8.70006 76.6394 8.79858 76.6752C8.88814 76.711 9.42535 77.3469 9.98959 78.0813C10.5538 78.8157 11.0823 79.4157 11.1808 79.4157C11.2793 79.4157 11.4584 79.6576 11.5928 79.9531C11.7271 80.2486 11.9869 80.4905 12.1571 80.4905C12.3273 80.4905 12.4794 80.589 12.4794 80.7054C12.4794 81.0816 15.0051 83.84 15.2827 83.7594C15.3813 83.7326 15.6589 84.0012 15.9096 84.3505C16.1604 84.6998 16.447 84.9864 16.5455 84.9864C16.644 84.9864 17.0829 85.3267 17.5218 85.7387C17.9606 86.1507 18.3903 86.491 18.4799 86.491C18.5695 86.491 18.9635 86.7866 19.3576 87.1358C21.095 88.7121 21.8026 89.2674 22.0533 89.2674C22.1966 89.2674 22.3221 89.3659 22.3221 89.4823C22.3221 89.5988 22.6625 89.8585 23.0745 90.0555C23.4864 90.2525 23.8268 90.5571 23.8268 90.7272C23.8268 90.8974 23.8895 90.978 23.9701 90.8974C24.0507 90.8168 24.4357 91.0586 24.8298 91.4348C25.2239 91.8109 25.5374 92.0527 25.5374 91.9721C25.5374 91.8915 25.7164 91.99 25.9314 92.196C26.1463 92.402 26.5493 92.7155 26.818 92.8946C27.0957 93.0737 27.4897 93.3872 27.7047 93.5932C27.9196 93.7991 28.1794 93.9693 28.269 93.9693C28.3586 93.9693 28.6272 94.1395 28.86 94.3455C29.5228 94.9455 30.9737 96.0023 31.1259 96.0023C31.2065 96.0023 31.4931 96.1994 31.7707 96.4322C32.9082 97.4174 33.8127 98.0264 33.947 97.8921C34.0276 97.8115 34.0904 97.8562 34.0904 97.9816C34.0904 98.1876 34.8874 98.7877 37.2965 100.409C37.7443 100.713 38.3893 101.17 38.7206 101.43C39.9387 102.379 42.6433 104.233 42.6433 104.117C42.6433 104.054 42.939 104.296 43.3062 104.654C43.6734 105.021 44.0406 105.263 44.1301 105.209C44.2197 105.155 44.5958 105.388 44.963 105.746C45.3302 106.096 45.7063 106.382 45.7958 106.382C45.8854 106.382 46.2974 106.669 46.7094 107.027C47.1213 107.377 47.5692 107.672 47.7036 107.672C47.8379 107.672 48.008 107.824 48.0797 108.003C48.1513 108.183 48.2857 108.29 48.3842 108.227C48.4828 108.165 48.8229 108.362 49.1364 108.648C49.4499 108.944 49.7097 109.123 49.7097 109.06C49.7097 108.998 49.9693 109.177 50.2918 109.481C50.6142 109.777 50.9546 110.027 51.0531 110.027C51.1516 110.027 51.9218 110.538 52.7636 111.156C53.6055 111.774 54.5639 112.419 54.8863 112.58C55.2088 112.741 55.4774 112.947 55.4774 113.028C55.4774 113.108 55.7639 113.296 56.1222 113.449C56.4804 113.601 56.767 113.798 56.767 113.905C56.767 114.013 56.8655 114.094 56.9819 114.094C57.1789 114.094 57.7432 114.497 58.3791 115.106C58.5314 115.249 58.7194 115.374 58.8 115.374C58.8806 115.374 59.248 115.616 59.6331 115.912C60.0182 116.207 60.4033 116.449 60.4839 116.449C60.5645 116.449 60.86 116.691 61.1287 116.986C61.3974 117.282 61.7198 117.524 61.8362 117.524C61.9527 117.524 62.3288 117.765 62.6691 118.061C63.0094 118.357 63.3678 118.598 63.4573 118.598C63.5469 118.598 63.52 118.786 63.3946 119.028C63.2692 119.261 63.0452 119.458 62.9019 119.458C62.7587 119.458 62.2302 119.834 61.7287 120.291C61.2271 120.748 60.8241 121.061 60.8241 120.99C60.8241 120.918 60.6719 121.07 60.4928 121.339C60.3137 121.599 60.0182 121.814 59.848 121.814C59.6778 121.814 59.5434 121.894 59.5434 122.002C59.5434 122.109 58.6299 122.888 57.5104 123.739C56.3909 124.59 55.4774 125.378 55.4774 125.477C55.4774 125.575 55.3699 125.665 55.2445 125.665C55.1191 125.665 54.6355 126.05 54.1698 126.525C53.7041 126.999 53.2562 127.384 53.1666 127.384C53.0771 127.384 52.8533 127.554 52.6563 127.76C52.4593 127.966 52.0472 128.325 51.7248 128.566C50.7038 129.328 49.4948 130.546 49.4948 130.797C49.4948 130.931 49.4142 130.994 49.3157 130.931C49.2172 130.868 48.9127 131.056 48.635 131.343C48.3574 131.629 48.2319 131.871 48.3394 131.88C48.4469 131.88 48.3663 131.988 48.1603 132.104C47.9543 132.221 47.7843 132.471 47.7843 132.641C47.7843 132.812 47.6855 132.91 47.5691 132.83C47.4437 132.749 47.417 132.847 47.4976 133.062C47.5961 133.313 47.5602 133.385 47.3811 133.268C47.2378 133.179 47.1482 133.188 47.1661 133.286C47.193 133.385 47.0945 133.851 46.9601 134.316C46.8258 134.791 46.7094 136.448 46.7094 138.006V140.845H71.652H96.5947L96.514 137.478C96.4692 135.624 96.3438 133.967 96.2273 133.788C96.1109 133.609 96.0214 133.367 96.0124 133.242C96.0124 132.955 94.9556 131.612 93.9704 130.653C92.3583 129.068 92.1433 128.871 91.9374 128.871C91.8209 128.871 91.5972 128.674 91.445 128.423C91.2927 128.172 91.1134 128.02 91.0597 128.083C91.0059 128.146 90.7374 127.984 90.4776 127.734C89.1969 126.516 87.9342 125.432 87.4058 125.092C87.0834 124.886 86.6624 124.545 86.4743 124.339C86.2862 124.133 86.0174 123.963 85.8831 123.963C85.7487 123.963 85.5786 123.82 85.507 123.641C85.4353 123.462 85.3009 123.318 85.2024 123.318C85.1039 123.318 84.6293 122.933 84.1546 122.467C83.3307 121.661 82.2292 121.339 82.2292 121.903C82.2292 122.011 82.1663 122.038 82.0857 121.966C82.0051 121.894 81.7901 121.948 81.6021 122.109C81.414 122.27 80.2767 122.817 79.0587 123.327C77.8496 123.838 76.8106 124.33 76.7479 124.429C76.6853 124.527 76.4523 124.599 76.2284 124.599C76.0045 124.599 75.8165 124.706 75.8165 124.85C75.8165 124.993 75.7539 125.038 75.6733 124.957C75.5927 124.877 75.333 124.939 75.0823 125.1C74.8404 125.262 73.6314 125.844 72.3954 126.399C68.8936 127.984 68.3292 128.244 66.6186 129.059C65.732 129.48 64.9618 129.838 64.9081 129.847C64.8544 129.856 63.9498 130.268 62.9109 130.761C61.872 131.253 60.9316 131.656 60.8241 131.656C60.7166 131.656 60.636 131.737 60.636 131.835C60.636 131.934 60.4929 132.015 60.3137 132.015C59.8301 132.015 59.9286 131.701 60.4749 131.54C60.7436 131.459 61.2092 131.155 61.5227 130.859C61.8361 130.564 62.1586 130.349 62.2392 130.367C62.3198 130.385 62.6602 130.161 63.0095 129.856C63.3499 129.552 63.6811 129.328 63.7348 129.355C63.7885 129.381 64.0304 129.238 64.2722 129.032C64.5141 128.826 64.8006 128.656 64.9171 128.656C65.0335 128.656 65.132 128.575 65.132 128.477C65.132 128.378 65.3829 128.181 65.6784 128.047C65.9829 127.913 66.171 127.707 66.0993 127.59C66.0277 127.474 66.1082 127.438 66.2963 127.51C66.4754 127.581 66.6276 127.546 66.6276 127.429C66.6276 127.313 66.7979 127.151 67.0039 127.08C67.5412 126.892 68.2756 126.435 68.7323 126.023C68.9473 125.826 69.1892 125.665 69.2698 125.665C69.3504 125.665 69.6906 125.414 70.0399 125.109C70.3802 124.805 70.7116 124.59 70.7743 124.626C70.837 124.671 71.1057 124.5 71.3833 124.25C71.6609 123.999 72.1984 123.623 72.5745 123.399C72.9596 123.184 73.2731 122.924 73.2731 122.835C73.2731 122.745 73.4163 122.664 73.5954 122.664C73.7745 122.664 73.9179 122.566 73.9179 122.45C73.9179 122.333 74.0164 122.235 74.1508 122.235C74.4016 122.235 75.906 121.16 76.0225 120.9C76.0583 120.811 76.2286 120.739 76.3898 120.739C76.551 120.739 76.9987 120.461 77.3838 120.13C77.7689 119.799 78.3959 119.342 78.781 119.118C79.1661 118.894 79.4796 118.634 79.4796 118.536C79.4796 118.437 79.5601 118.401 79.6497 118.464C79.7482 118.527 80.0976 118.339 80.429 118.052C80.7604 117.766 81.208 117.479 81.4319 117.407C81.6558 117.336 81.8349 117.21 81.8349 117.13C81.8349 117.049 82.1484 116.798 82.5335 116.574C82.9186 116.35 83.3755 116.046 83.5457 115.885C83.7248 115.724 84.7368 115.043 85.7936 114.371C86.8505 113.699 87.9072 112.983 88.1311 112.777C88.3549 112.571 88.7223 112.347 88.9372 112.275C89.1522 112.204 89.3312 112.061 89.3312 111.953C89.3312 111.846 89.4746 111.756 89.6537 111.756C89.8329 111.756 89.976 111.684 89.976 111.595C89.976 111.505 90.406 111.192 90.9344 110.905C91.4628 110.619 91.8928 110.296 91.8928 110.198C91.8928 110.099 91.9733 110.072 92.0718 110.135C92.1703 110.198 92.439 110.081 92.6629 109.875C93.236 109.356 96.3618 107.269 96.5678 107.269C96.6573 107.269 97.0065 106.982 97.3468 106.633C97.6782 106.284 98.0276 106.042 98.1261 106.105C98.2157 106.158 98.3947 106.042 98.5112 105.827C98.6276 105.621 98.7351 105.523 98.7351 105.621C98.7351 105.711 98.95 105.594 99.2008 105.361C99.4516 105.129 99.7381 104.985 99.8456 105.048C99.9441 105.111 100.025 105.012 100.025 104.824C100.025 104.636 100.096 104.511 100.186 104.537C100.446 104.609 101.601 103.928 102.04 103.445C102.264 103.194 102.533 102.997 102.64 102.997C102.747 102.997 102.945 102.898 103.088 102.791C104.369 101.743 104.736 101.492 104.745 101.645C104.745 101.743 104.852 101.654 104.968 101.448C105.094 101.242 105.282 101.125 105.389 101.188C105.497 101.26 105.586 101.233 105.586 101.134C105.586 101.036 105.972 100.722 106.446 100.427C106.912 100.131 107.297 99.8266 107.297 99.737C107.297 99.6474 107.369 99.5937 107.458 99.6295C107.646 99.6833 109.679 98.3309 109.912 97.9906C110.002 97.8652 110.073 97.8383 110.073 97.9189C110.073 98.0622 110.611 97.6771 111.265 97.0681C111.417 96.9248 111.605 96.7994 111.677 96.7994C111.865 96.7994 113.056 95.9307 113.817 95.25C114.175 94.9276 114.56 94.6589 114.677 94.6589C114.793 94.6589 115.277 94.3186 115.743 93.9066C116.208 93.4946 116.71 93.1633 116.853 93.1633C116.996 93.1633 117.292 92.9215 117.525 92.6259C117.758 92.3304 118.035 92.0885 118.152 92.0885C118.268 92.0885 118.618 91.8467 118.931 91.5512C119.244 91.2556 119.585 91.0138 119.683 91.0138C119.782 91.0138 120.158 90.7272 120.525 90.369C120.892 90.0107 121.197 89.7958 121.197 89.8764C121.197 89.957 121.376 89.8406 121.6 89.6077C121.824 89.3749 122.325 88.9539 122.719 88.6584C123.113 88.3628 123.687 87.8613 124 87.5389C124.313 87.2165 124.672 86.9478 124.797 86.9478C124.923 86.9478 125.182 86.706 125.379 86.4104C125.576 86.1149 125.827 85.873 125.943 85.873C126.06 85.873 126.373 85.6581 126.624 85.3894C126.884 85.1207 127.663 84.3774 128.362 83.7326C129.06 83.0877 129.606 82.4787 129.58 82.3891C129.553 82.2996 129.669 82.1652 129.848 82.0936C130.027 82.0219 130.117 81.8787 130.045 81.7712C129.974 81.6637 130.01 81.601 130.117 81.6368C130.341 81.7085 131.666 80.4994 131.666 80.2218C131.666 80.1143 131.89 79.8277 132.159 79.577C132.428 79.3262 133.028 78.6455 133.485 78.0544C133.941 77.4633 134.425 76.917 134.541 76.8274C134.658 76.7379 134.685 76.6662 134.595 76.6662C134.497 76.6662 134.721 76.3528 135.079 75.9677C135.437 75.5826 135.733 75.1616 135.733 75.0183C135.733 74.884 135.867 74.6332 136.019 74.481C136.458 74.0421 137.542 72.2957 137.488 72.1166C137.461 72.027 137.551 71.9554 137.694 71.9554C137.837 71.9554 137.882 71.8927 137.801 71.8121C137.721 71.7315 137.909 71.3464 138.204 70.9523C138.5 70.5582 138.697 70.2358 138.625 70.2358C138.554 70.2358 138.795 69.7074 139.154 69.0626C139.512 68.4177 139.754 67.8893 139.691 67.8893C139.628 67.8893 139.718 67.6027 139.906 67.2445C140.372 66.3489 141.724 61.9694 141.823 61.0469C141.867 60.626 142.064 59.5692 142.262 58.6825C142.459 57.7959 142.629 56.4793 142.647 55.7449C142.664 55.0105 142.745 54.4105 142.817 54.4105C142.888 54.4105 142.978 48.8219 142.996 41.9884L143.032 29.5664L142.324 28.9485C141.939 28.6081 141.536 28.3215 141.437 28.3215C141.339 28.3215 140.963 28.0708 140.605 27.7752C140.219 27.4528 139.816 27.2826 139.619 27.3632C139.431 27.4349 139.351 27.4259 139.431 27.3453C139.601 27.1752 138.795 26.4945 137.801 25.9661C137.434 25.7691 136.601 25.3302 135.956 24.9899C135.312 24.6496 134.729 24.3092 134.676 24.2465C134.523 24.0674 133.744 23.7629 133.556 23.7987C133.466 23.8166 133.395 23.745 133.395 23.6375C133.395 23.53 132.911 23.2703 132.32 23.0643C131.729 22.8583 131.255 22.5897 131.255 22.4732C131.255 22.3568 131.201 22.321 131.129 22.3926C131.057 22.4643 130.592 22.2941 130.09 22.0075C129.589 21.7299 129.114 21.5597 129.042 21.6314C128.971 21.703 128.908 21.6493 128.908 21.506C128.908 21.3627 128.809 21.3 128.693 21.3716C128.577 21.4433 128.478 21.3985 128.478 21.2821C128.478 21.1657 128.335 21.0582 128.147 21.0582C127.959 21.0582 127.359 20.8253 126.794 20.5387C125.209 19.7327 125.254 19.5804 125.317 26.3154L125.37 32.2891L127.403 33.3011C128.523 33.8564 129.624 34.4564 129.857 34.6355C130.09 34.8147 130.386 34.958 130.52 34.958C130.654 34.958 131.013 35.146 131.308 35.3789C131.604 35.6117 131.899 35.7371 131.98 35.6655C132.078 35.567 132.204 44.8812 132.168 48.8577C132.123 53.3805 131.246 60.2856 130.35 63.2949C130.099 64.1188 129.893 64.8891 129.875 65.0055C129.795 65.6593 129.221 67.2534 129.069 67.2534C128.971 67.2534 128.944 67.352 129.016 67.4684C129.087 67.5848 129.042 67.6833 128.926 67.6833C128.809 67.6833 128.702 67.7998 128.693 67.952C128.693 68.4446 126.356 72.8151 126.087 72.8151C125.988 72.8151 125.917 72.9137 125.917 73.039C125.917 73.2361 125.505 73.854 124.529 75.1168C124.412 75.2691 124.072 75.6273 123.785 75.9229C123.49 76.2095 123.31 76.4513 123.391 76.4513C123.472 76.4513 123.104 76.8722 122.603 77.3917C122.092 77.9111 121.716 78.3768 121.77 78.4216C121.824 78.4754 121.627 78.6455 121.331 78.7978C121.036 78.959 120.794 79.156 120.794 79.2545C120.794 79.4695 116.405 83.9385 116.19 83.9385C116.101 83.9385 115.68 84.2968 115.259 84.7356C114.838 85.1745 114.623 85.4432 114.793 85.3447C114.999 85.2193 115.044 85.2372 114.937 85.4073C114.856 85.5417 114.668 85.6581 114.524 85.6581C114.381 85.6581 113.987 85.9716 113.656 86.3567C113.315 86.7418 113.002 87.0194 112.948 86.9746C112.894 86.9299 112.205 87.4762 111.417 88.1748C110.629 88.8823 109.026 90.2167 107.852 91.1571C106.679 92.0975 105.586 93.02 105.425 93.217C105.264 93.414 105.004 93.5752 104.843 93.5752C104.682 93.5752 104.449 93.7633 104.324 94.0051C104.198 94.238 103.974 94.435 103.831 94.435C103.688 94.435 103.446 94.6231 103.303 94.8649C103.159 95.0978 102.936 95.2948 102.819 95.2948C102.568 95.2948 99.98 97.3905 99.8725 97.6771C99.8367 97.7756 99.6666 97.8652 99.4964 97.8652C99.3263 97.8652 99.1918 97.9637 99.1918 98.0801C99.1918 98.1966 99.0664 98.2951 98.9052 98.2951C98.744 98.2951 98.4305 98.51 98.1887 98.7787C97.9468 99.0474 97.4363 99.5041 97.0602 99.7907C96.6751 100.086 96.2364 100.445 96.0841 100.597C95.9319 100.74 95.7259 100.865 95.6274 100.865C95.5288 100.865 95.063 101.197 94.5973 101.609C93.424 102.621 93.4779 102.585 92.027 103.651C91.3195 104.17 90.5045 104.815 90.2089 105.084C89.9134 105.352 89.5642 105.576 89.4209 105.576C89.2776 105.576 89.1342 105.657 89.0984 105.746C89.0625 105.845 88.4446 106.347 87.746 106.866C87.0385 107.385 86.3848 107.941 86.2952 108.084C86.2057 108.227 85.9997 108.353 85.8474 108.353C85.6952 108.353 85.3458 108.595 85.0681 108.89C84.7905 109.186 84.4591 109.427 84.3337 109.427C84.2083 109.427 83.9397 109.598 83.7427 109.804C83.2501 110.323 82.7664 110.717 82.5963 110.717C82.4261 110.717 80.2857 112.472 80.1871 112.696C80.1513 112.786 79.999 112.858 79.8467 112.858C79.6945 112.858 79.3273 113.09 79.0228 113.377C78.5213 113.843 78.4407 113.861 78.19 113.547C77.9571 113.27 77.9661 113.234 78.19 113.377C78.378 113.493 78.5123 113.395 78.5929 113.099C78.6556 112.849 78.8347 112.652 78.987 112.652C79.1392 112.652 79.7036 112.222 80.232 111.693C80.7604 111.165 81.2976 110.735 81.423 110.735C81.5484 110.735 81.8082 110.493 81.9963 110.198C82.1844 109.902 82.453 109.66 82.5873 109.66C82.8023 109.66 83.8054 108.809 85.9906 106.794C86.322 106.49 86.6802 106.248 86.7966 106.248C86.913 106.248 87.0026 106.105 87.0026 105.926C87.0026 105.747 87.2176 105.514 87.4862 105.406C88.0773 105.173 88.7313 104.421 88.5342 104.197C88.4536 104.108 88.5162 104.108 88.6685 104.197C88.8387 104.296 89.17 104.152 89.5193 103.803C90.1193 103.23 90.4508 102.934 92.3226 101.322C92.9406 100.794 93.7377 100.095 94.1049 99.7728C94.4721 99.4504 94.8392 99.1817 94.9288 99.1817C95.0183 99.1817 95.1438 99.0116 95.2154 98.7966C95.2781 98.5906 95.6183 98.2503 95.9676 98.0443C96.3169 97.8383 96.9798 97.3099 97.4544 96.8711C97.9291 96.4322 98.8157 95.6441 99.4247 95.1157C100.043 94.5873 100.741 93.9514 100.992 93.7006C101.234 93.4499 101.852 92.8946 102.362 92.4736C102.873 92.0438 103.222 91.6945 103.132 91.6945C103.043 91.6945 103.222 91.4974 103.536 91.2556C104.27 90.6824 106.034 88.9091 105.873 88.9091C105.81 88.9091 106.106 88.5688 106.536 88.1479C106.966 87.727 107.315 87.3508 107.315 87.306C107.315 87.2612 107.727 86.7776 108.229 86.2223C108.73 85.676 109.133 85.1566 109.133 85.076C109.133 84.9954 109.375 84.6908 109.67 84.4043C109.966 84.1177 110.297 83.7326 110.423 83.5445C110.674 83.1504 111.614 81.816 112.599 80.4726C112.975 79.9621 113.217 79.4874 113.154 79.4157C113.092 79.3441 113.118 79.2904 113.226 79.2904C113.333 79.2904 113.665 78.8336 113.96 78.2783C114.256 77.7231 114.659 77.0334 114.865 76.7558C115.071 76.4782 115.241 76.0662 115.241 75.8512C115.241 75.6363 115.322 75.4482 115.429 75.4482C115.707 75.4482 116.862 73.0122 116.772 72.6092C116.755 72.5196 116.844 72.4479 116.961 72.4479C117.077 72.4479 117.131 72.3584 117.068 72.2509C117.005 72.1434 117.041 72.0181 117.167 71.9822C117.283 71.9464 117.426 71.7135 117.471 71.4717C117.516 71.2299 117.722 70.6567 117.928 70.191C118.134 69.7253 118.322 69.2327 118.358 69.0984C118.385 68.9551 118.662 68.0953 118.958 67.1728C119.755 64.7547 120.597 61.5126 120.471 61.3156C120.418 61.226 120.471 60.6887 120.597 60.1155C121.08 57.966 121.43 54.2582 121.295 52.5655C121.206 51.3385 121.233 50.846 121.412 50.846C121.591 50.846 121.654 45.6515 121.654 30.4172C121.654 12.6126 121.618 9.98851 121.34 9.98851C121.17 9.98851 120.713 9.85417 120.328 9.69297C118.761 9.03917 116.128 8.08088 114.919 7.74055C114.211 7.54351 113.495 7.31961 113.316 7.25692C113.136 7.19423 112.805 7.10467 112.563 7.05989C112.33 7.01511 111.632 6.79121 111.014 6.55835C110.396 6.32549 109.841 6.13742 109.787 6.13742C109.733 6.13742 109.661 6.12846 109.626 6.11055C109.599 6.10159 109.33 6.07472 109.035 6.04786C108.739 6.02994 107.861 5.79709 107.091 5.5284C106.321 5.26868 105.398 5.00896 105.058 4.96417C104.718 4.91939 103.813 4.71341 103.043 4.50742C102.273 4.30143 101.413 4.11335 101.117 4.09544C100.822 4.07753 100.437 4.00588 100.258 3.94319C99.7291 3.74615 96.5856 3.11923 95.5556 3.0028C95.0272 2.94011 93.3436 2.67143 91.8121 2.39379C90.2806 2.12511 88.6505 1.89225 88.1759 1.89225C87.7012 1.89225 86.0175 1.74 84.4323 1.55192C82.8471 1.3728 79.811 1.12203 77.6973 1.0056C74.0164 0.808572 72.8342 0.799614 68.4995 0.942911M81.1455 15.8279C82.3725 15.8995 84.7277 16.3921 85.6412 16.7593C85.8204 16.8309 86.1071 16.9205 86.2863 16.9563C86.7251 17.0459 89.6804 18.4699 90.3701 18.9177C91.8209 19.876 92.242 20.2163 93.2362 21.2552C94.6691 22.7509 95.054 23.2166 95.054 23.4494C95.054 23.5569 95.1885 23.7271 95.3586 23.8256C95.5288 23.9241 95.9944 24.6406 96.3975 25.4377C96.8005 26.2258 97.1768 26.8348 97.2395 26.7721C97.3022 26.7094 97.3469 26.79 97.3558 26.9333C97.3737 27.4349 97.6335 28.5723 97.8574 29.1634C98.5649 31.0263 98.6544 70.3881 97.9558 72.3226C97.8752 72.5554 97.6872 73.039 97.5528 73.3883C97.4185 73.7376 97.293 74.1048 97.2751 74.1944C97.2572 74.2839 97.2215 74.4004 97.1947 74.4631C97.1678 74.5168 97.1229 74.6422 97.105 74.7317C97.0155 75.1616 95.8332 77.3469 95.4839 77.732C95.26 77.9738 95.1258 78.2156 95.1885 78.2783C95.2512 78.341 94.4272 79.2725 93.3615 80.3561C92.2957 81.4398 91.4181 82.2638 91.4181 82.1832C91.4181 82.0578 91.1941 82.21 90.4956 82.837C90.3433 82.9713 89.9939 83.1504 89.7163 83.24C89.4386 83.3295 89.0177 83.5803 88.7848 83.7952C88.552 84.0102 88.2833 84.1356 88.1848 84.0818C88.0863 84.0191 88.0058 84.0729 88.0058 84.1983C88.0058 84.3237 87.7908 84.4311 87.5221 84.4311C87.2534 84.4311 86.8504 84.5744 86.6265 84.7535C86.3936 84.9237 86.0355 85.067 85.8116 85.067C85.5608 85.067 85.4712 85.1566 85.5608 85.3178C85.6503 85.4611 85.6234 85.5059 85.498 85.4342C85.3816 85.3626 84.6561 85.479 83.8859 85.7029C83.1246 85.9178 81.7814 86.1596 80.9126 86.2402C80.0439 86.3119 79.0139 86.4373 78.6198 86.5089C78.2258 86.5806 77.4554 86.6612 76.9091 86.688C75.1537 86.7687 46.4408 86.7955 46.3602 86.7149C46.2796 86.6343 48.5186 84.1804 50.2292 82.4877C50.8024 81.9145 51.1964 81.4488 51.089 81.4488C50.9815 81.4488 51.1157 81.2965 51.3754 81.1174L51.8501 80.786V21.5328L50.9904 20.7268C50.5247 20.288 50.1396 19.8402 50.1396 19.7506C50.1396 19.5536 48.653 18.1116 48.447 18.1116C48.3753 18.1116 48.1424 17.834 47.9454 17.5026C47.7484 17.1713 47.2648 16.5802 46.8797 16.204L46.1811 15.5144L62.9737 15.6308C72.2073 15.6935 80.393 15.7831 81.1543 15.8368M67.8816 50.8549V74.1944L72.5297 74.0959C77.4466 73.9973 78.1182 73.8719 79.1571 72.8778C79.4258 72.6271 79.6407 72.4838 79.6407 72.5644C79.6407 72.9853 80.599 71.7494 81.1543 70.6209L81.7813 69.3312V50.3892C81.7634 29.0738 81.9515 31.3128 79.9991 29.4052C79.4259 28.841 78.8705 28.429 78.772 28.4827C78.6735 28.5454 78.566 28.5186 78.5302 28.429C78.2526 27.8021 76.2196 27.5155 72.0909 27.5155H67.8636V50.8549M398.951 35.3072C398.906 35.352 395.977 35.4416 392.448 35.5132C387.702 35.6028 385.337 35.7461 383.358 36.0506C381.889 36.2745 380.636 36.4357 380.573 36.3999C380.51 36.3641 379.597 36.5163 378.54 36.7492C377.483 36.982 376.471 37.197 376.301 37.2328C376.014 37.2955 375.969 41.3615 375.924 71.9822L375.871 106.669H392.341V50.4698L393.04 50.3086C394.177 50.0489 399.9 50.0041 400.213 50.2549C400.365 50.3803 400.545 50.4161 400.616 50.3534C400.966 50.0041 403.903 52.0819 403.903 52.6909C403.903 52.8521 404.002 52.9865 404.118 52.9865C404.235 52.9865 404.315 53.0581 404.288 53.1477C404.271 53.2372 404.36 53.694 404.503 54.1597C404.691 54.7956 404.754 61.6738 404.754 80.8398V106.669H419.308L419.29 79.1381L419.272 51.6072L420.938 51.0967C425.532 49.6906 430.359 50.7743 430.977 53.3537C431.058 53.6761 431.174 54.0343 431.246 54.1507C431.317 54.2672 431.389 54.4373 431.407 54.5269C431.425 54.6165 431.452 66.3847 431.461 80.6786L431.488 106.669H448.182L448.119 78.2783C448.057 52.5028 448.021 49.7712 447.689 48.598C447.492 47.8905 447.322 47.0755 447.313 46.7799C447.304 46.4844 447.116 45.8575 446.883 45.3917C446.651 44.926 446.462 44.4424 446.462 44.3349C446.453 44.0842 445.343 42.4273 445.119 42.3288C445.029 42.2929 444.958 42.1586 444.958 42.0422C444.958 41.8631 443.847 40.7525 442.226 39.3016C441.644 38.7822 439.942 37.7164 439.763 37.7612C439.674 37.7881 439.602 37.7164 439.602 37.6089C439.602 37.5015 439.315 37.3492 438.966 37.2686C438.617 37.188 438.267 37.0358 438.205 36.9283C438.142 36.8208 437.864 36.7312 437.605 36.7312C437.345 36.7312 437.032 36.6506 436.924 36.5611C436.709 36.373 435.061 35.9431 433.834 35.755C432.276 35.5132 430.261 35.4684 423.033 35.4953C422.048 35.4953 419.487 35.8804 418.645 36.1491C418.233 36.2835 417.677 36.3641 417.418 36.3282C417.158 36.3014 416.818 36.3461 416.674 36.4357C416.531 36.5253 416.263 36.6148 416.083 36.6417C415.564 36.7044 411.928 38.0388 411.713 38.2359C411.606 38.3433 411.274 38.2448 410.96 38.0299C410.289 37.5552 408.229 36.6596 407.817 36.6596C407.656 36.6596 407.521 36.5969 407.521 36.5253C407.521 36.4536 407.351 36.382 407.145 36.373C406.939 36.3641 406.053 36.1939 405.166 35.9969C404.288 35.7998 402.614 35.5938 401.458 35.549C400.303 35.4953 399.282 35.4147 399.193 35.352C399.103 35.2983 398.986 35.2804 398.942 35.3252M160.344 36.7133C160.38 36.9552 160.657 37.4477 160.962 37.7881C161.266 38.1373 161.472 38.415 161.418 38.415C161.365 38.415 161.562 38.6837 161.866 38.9971C162.162 39.3195 162.413 39.6599 162.413 39.7584C162.413 39.8569 162.645 40.1793 162.932 40.4928C163.219 40.8063 163.407 41.1376 163.344 41.2361C163.281 41.3347 163.326 41.4153 163.434 41.4153C163.541 41.4153 163.881 41.8004 164.195 42.2661L164.759 43.1169V71.7315V100.346L164.06 101.089C163.675 101.492 163.362 101.886 163.362 101.949C163.362 102.012 163.138 102.307 162.86 102.603C162.583 102.898 162.215 103.445 162.054 103.83C161.893 104.215 161.642 104.528 161.508 104.528C161.374 104.528 161.32 104.591 161.391 104.663C161.463 104.734 161.239 105.03 160.89 105.326C159.233 106.723 158.74 106.678 174.109 106.669C189.782 106.66 193.902 106.499 195.962 105.836C196.714 105.594 197.583 105.343 197.887 105.29C198.389 105.2 199.849 104.573 200.691 104.09C200.87 103.991 201.568 103.597 202.249 103.221C203.87 102.325 206.369 100.212 206.333 99.7549C206.315 99.5579 206.405 99.3967 206.521 99.3967C206.772 99.3967 207.748 98.313 207.748 98.0443C207.748 97.9458 207.981 97.5607 208.259 97.1845C208.894 96.3427 209.88 94.023 209.996 93.0827C210.041 92.6975 210.211 92.1065 210.354 91.7661C211.25 89.7421 210.739 49.3414 209.817 49.3414C209.718 49.3414 209.691 49.2518 209.763 49.1354C209.933 48.8577 208.438 45.4903 208.142 45.4903C208.061 45.4903 207.784 45.0783 207.524 44.5857C207.014 43.6095 204.21 40.7883 203.745 40.7883C203.592 40.7883 203.458 40.7167 203.458 40.6271C203.458 40.4301 202.455 39.6957 202.115 39.633C201.98 39.6061 201.524 39.3733 201.112 39.1136C200.7 38.8538 200.126 38.5852 199.831 38.5135C199.535 38.4419 199.204 38.3075 199.079 38.2269C198.819 38.0388 197.269 37.5015 196.831 37.4567C196.652 37.4388 195.532 37.2149 194.341 36.9731C191.681 36.4178 193.947 36.4894 175.712 36.382L160.263 36.2924L160.335 36.7402M219.239 36.4267C219.158 36.5073 219.095 52.3416 219.095 71.6061V106.651H235.565V82.2279L240.751 82.3265C243.608 82.3802 246.134 82.4787 246.367 82.5414C246.599 82.6041 246.841 82.6668 246.904 82.6757C247.208 82.7205 248.167 83.7415 248.48 84.3505C248.802 84.9774 248.838 86.1328 248.829 95.8501V106.651H257.275H265.73L265.658 95.5814C265.622 89.4913 265.532 84.2699 265.461 83.9744C265.389 83.6788 265.228 82.9892 265.103 82.4429C264.843 81.3503 264.082 79.9173 263.759 79.9173C263.643 79.9173 263.625 79.8098 263.705 79.6665C263.786 79.5322 263.714 79.3172 263.535 79.1829C263.356 79.0575 263.105 78.7351 262.962 78.4664C262.819 78.2067 262.639 78.0096 262.55 78.0365C262.469 78.0634 261.798 77.6783 261.072 77.1767C260.338 76.6752 259.263 76.1557 258.672 76.0214L257.597 75.7706L258.717 75.0183C259.335 74.6063 259.917 74.1406 260.007 73.9884C260.105 73.8361 260.284 73.7018 260.409 73.7018C260.669 73.7018 261.654 72.7077 261.654 72.439C261.654 72.3494 261.842 72.0987 262.084 71.8837C262.326 71.6688 262.514 71.3732 262.514 71.2299C262.514 71.0866 262.622 70.9254 262.747 70.8806C262.962 70.809 263.598 69.2417 263.947 67.9251C264.395 66.2504 264.207 47.7472 263.714 45.6783C263.508 44.7917 262.47 42.4721 262.281 42.4721C262.183 42.4721 262.048 42.3019 261.986 42.0959C261.842 41.6481 259.818 39.4808 259.541 39.4808C259.433 39.4808 259.227 39.3285 259.075 39.1494C258.744 38.7553 256.254 37.5552 255.466 37.4209C255.161 37.3671 254.436 37.188 253.845 37.0268C253.254 36.8656 251.839 36.6238 250.701 36.5073C248.426 36.2655 219.471 36.1849 219.23 36.4267M287.161 36.5253C286.31 36.6238 285.012 36.8656 284.278 37.0537C283.543 37.2417 282.845 37.4298 282.728 37.4567C282.612 37.4836 282.253 37.6179 281.922 37.7522C280.937 38.1642 280.167 38.4598 280.05 38.4598C279.987 38.4598 279.871 38.5941 279.772 38.7643C279.683 38.9344 279.468 39.0688 279.316 39.0688C279.164 39.0688 278.733 39.3464 278.375 39.6778C278.017 40.0181 277.677 40.251 277.632 40.2062C277.587 40.1614 277.274 40.4838 276.933 40.9316C276.593 41.3794 276.118 41.9347 275.886 42.1676C275.483 42.5616 275.053 43.3498 274.936 43.8782C274.909 43.9946 274.748 44.2543 274.569 44.4514C274.39 44.6484 274.309 44.9171 274.381 45.0425C274.461 45.1678 274.426 45.2753 274.3 45.2753C274.023 45.2753 273.297 47.6487 273.19 48.9115C273.046 50.5683 273.1 93.226 273.243 94.5246C273.396 95.8501 274.408 98.931 274.802 99.2802C274.936 99.3967 275.169 99.7907 275.312 100.158C275.608 100.874 277.686 103.167 277.963 103.078C278.062 103.051 278.196 103.167 278.259 103.346C278.331 103.525 278.465 103.669 278.581 103.669C278.698 103.669 279.289 104.009 279.907 104.421C280.534 104.833 281.259 105.218 281.528 105.263C281.796 105.317 282.558 105.558 283.221 105.809C285.021 106.49 288.182 106.642 300.425 106.651H311.28L311.226 99.9699L311.172 93.2887L301.168 93.2439C295.669 93.217 291.048 93.1274 290.896 93.0289C290.743 92.9394 290.359 92.5363 290.045 92.1512L289.463 91.4348V77.9917H308.701L308.763 71.418L308.826 64.8443L299.144 64.898L289.463 64.9517V51.7864L290.045 50.8908C290.914 49.5563 290.86 49.5563 301.58 49.5563H311.28V36.2924L299.995 36.3193C293.789 36.3372 288.012 36.4267 287.161 36.5253ZM319.34 36.4267C319.26 36.5073 319.197 52.3416 319.197 71.6061V106.651H335.882V82.2638H349.782L349.835 94.3992L349.889 106.535L358.398 106.588L366.906 106.642L366.834 79.7471C366.771 54.9478 366.736 52.7357 366.395 51.4639C366.189 50.7027 365.992 49.9145 365.966 49.7086C365.939 49.5026 365.84 49.2697 365.76 49.1891C365.679 49.1085 365.607 48.8846 365.607 48.7055C365.607 48.5174 365.41 47.98 365.186 47.5143C364.962 47.0397 364.774 46.5381 364.765 46.3948C364.765 46.2515 364.658 46.1261 364.541 46.1261C364.425 46.1261 364.344 46.0545 364.371 45.9649C364.461 45.6425 363.001 43.5647 362.777 43.6991C362.643 43.7797 362.607 43.7349 362.697 43.6005C362.849 43.3498 360.699 40.9854 360.314 40.9854C360.189 40.9854 360.054 40.9137 360.019 40.8242C359.822 40.3943 357.815 39.1583 357.43 39.2389C357.341 39.2569 357.269 39.1852 357.269 39.0777C357.269 38.8538 354.018 37.5642 353.167 37.4477C352.854 37.403 352.191 37.2597 351.698 37.1343C351.206 36.9999 350.758 36.9462 350.686 37.0178C350.624 37.0805 350.463 37.0447 350.328 36.9462C349.657 36.3909 319.869 35.8983 319.331 36.4357M463.031 37.5283C462.816 38.2 462.467 39.3016 462.243 39.9733C462.019 40.645 461.804 41.3615 461.759 41.5765C461.715 41.7914 461.284 43.1617 460.801 44.6305C460.317 46.0993 459.879 47.577 459.816 47.9173C459.753 48.2577 459.565 48.804 459.395 49.1354C459.225 49.4667 459.045 49.9593 458.992 50.237C458.938 50.5056 458.884 50.7295 458.867 50.7295C458.849 50.7295 458.804 50.8997 458.759 51.1057C458.696 51.455 458.974 51.4818 462.306 51.4818H465.924V106.66H482.609V36.2834H473.017L463.425 36.3103L463.04 37.5283M494.493 36.5521C494.287 37.2686 493.67 39.0061 493.482 39.4002C493.365 39.642 493.293 39.9286 493.32 40.045C493.347 40.1525 493.231 40.5823 493.052 40.9943C492.882 41.4063 492.604 42.1765 492.452 42.7049C492.299 43.2333 491.986 44.1737 491.771 44.7917C491.556 45.4097 491.377 45.9381 491.386 45.9649C491.404 46.0634 491.233 46.6456 490.857 47.7293C490.517 48.7144 490.347 49.3055 489.971 50.8818L489.827 51.4729H497.154V106.651H513.623V36.2834H504.103C496.67 36.2834 494.565 36.3372 494.503 36.5521M245.301 49.01C246.062 49.4847 246.492 49.9593 246.94 50.8281L247.549 52.0013L247.495 58.9512L247.441 65.9011L246.823 67.0295C246.483 67.6475 246.16 68.1132 246.098 68.0505C246.044 67.9968 245.865 68.0864 245.695 68.2565C245.077 68.8745 243.751 69.0715 239.685 69.1611L235.565 69.2506V48.2129L239.918 48.2845L244.262 48.3562L245.301 49.001M346.853 48.9562C347.471 49.2966 347.865 49.422 347.874 49.2697C347.883 49.1354 347.946 49.1622 348.008 49.3414C348.071 49.5205 348.394 50.0041 348.707 50.4161C349.746 51.7684 349.782 52.073 349.782 60.9305V69.2417H335.882V48.2308L340.862 48.3204C345.76 48.4099 345.859 48.4189 346.853 48.9742M188.313 49.1175C188.949 49.2339 189.701 49.3772 189.979 49.4309C190.257 49.4846 190.615 49.6369 190.785 49.7802C190.947 49.9145 191.081 49.9504 191.081 49.8518C191.081 49.7533 191.224 49.8608 191.394 50.0937C191.564 50.3265 191.708 50.434 191.717 50.3534C191.726 50.0758 192.505 50.9624 193.311 52.1446L194.072 53.282L194.018 71.4628C193.974 88.8106 193.947 89.6794 193.57 90.2346C193.347 90.5571 193.23 90.8257 193.302 90.8257C193.508 90.8257 192.344 91.9452 191.43 92.6259C190.23 93.5126 189.46 93.6559 185.251 93.7633L181.453 93.8618V48.9115H184.301C185.868 48.9115 187.669 49.01 188.313 49.1264" fill="#454545"/>
<path fill-rule="evenodd" clip-rule="evenodd" d="M12.2467 22.527C11.978 22.8494 11.996 22.8584 12.4885 22.6076C13.205 22.2315 13.2587 22.1777 12.8736 22.1777C12.6945 22.1777 12.4079 22.3389 12.2467 22.536M97.1142 26.8259C97.0067 27.005 97.3203 27.9454 97.4904 27.9454C97.5531 27.9454 97.5083 27.7126 97.4008 27.4349C97.2933 27.1483 97.2664 26.8617 97.3381 26.7901C97.4097 26.7184 97.4097 26.6647 97.3381 26.6647C97.2664 26.6647 97.1679 26.7364 97.1142 26.8259ZM389.466 35.4058C388.857 35.5401 397.132 35.4864 398.44 35.3521C398.789 35.3162 397.061 35.2804 394.589 35.2804C392.117 35.2804 389.815 35.3342 389.466 35.4058ZM399.201 35.2983C399.246 35.3431 399.82 35.4327 400.464 35.4954C401.226 35.576 401.449 35.5491 401.109 35.4416C400.581 35.2625 399.031 35.1461 399.201 35.2983ZM423.033 35.4327C422.756 35.5491 422.989 35.576 423.678 35.4954C424.269 35.4237 424.789 35.3342 424.834 35.2983C425.022 35.1371 423.445 35.2625 423.033 35.4327ZM425.604 35.3521C426.992 35.4954 432.088 35.5312 431.748 35.3968C431.551 35.3162 429.939 35.2625 428.174 35.2715C426.41 35.2804 425.255 35.3162 425.604 35.3521ZM0.388916 42.5975C0.388916 45.0694 0.415854 46.0456 0.460634 44.7828C0.496458 43.511 0.496458 41.487 0.460634 40.2868C0.42481 39.0867 0.388916 40.1256 0.388916 42.5975ZM121.206 52.0103C121.206 52.7178 121.251 52.9776 121.295 52.5925C121.34 52.2073 121.34 51.6342 121.295 51.3117C121.251 50.9893 121.206 51.3117 121.206 52.0103ZM142.799 52.4312C142.799 52.9059 142.844 53.0671 142.898 52.8074C142.951 52.5387 142.942 52.1536 142.898 51.9476C142.844 51.7416 142.799 51.9566 142.808 52.4312M289.732 64.8801C289.938 64.9339 290.278 64.9339 290.484 64.8801C290.69 64.8264 290.52 64.7816 290.108 64.7816C289.696 64.7816 289.526 64.8264 289.732 64.8801ZM291.881 64.8891C292.445 64.9339 293.314 64.9339 293.807 64.8891C294.299 64.8443 293.843 64.8085 292.786 64.8085C291.729 64.8085 291.317 64.8443 291.881 64.8891ZM296.046 64.8891C296.78 64.9339 297.989 64.9339 298.724 64.8891C299.458 64.8443 298.858 64.8174 297.389 64.8174C295.92 64.8174 295.32 64.8533 296.055 64.8891M301.393 64.8891C302.127 64.9339 303.327 64.9339 304.061 64.8891C304.796 64.8443 304.196 64.8174 302.727 64.8174C301.258 64.8174 300.658 64.8533 301.393 64.8891ZM305.879 64.8891C306.148 64.9428 306.533 64.9428 306.739 64.8891C306.945 64.8354 306.722 64.7906 306.256 64.7995C305.781 64.7995 305.62 64.8443 305.879 64.898M308.333 64.8712C308.674 64.9697 308.71 65.525 308.763 71.436L308.826 77.8933V71.3733C308.817 65.0145 308.808 64.8533 308.387 64.8085C308.065 64.7727 308.047 64.7906 308.333 64.8712ZM261.019 77.1499C261.762 77.6515 262.183 77.8037 261.664 77.3738C261.368 77.132 261.036 76.935 260.911 76.935C260.795 76.935 260.84 77.0335 261.019 77.1499Z" fill="#454545"/>
<path fill-rule="evenodd" clip-rule="evenodd" d="M12.2467 22.527C11.978 22.8494 11.996 22.8584 12.4885 22.6076C13.205 22.2315 13.2587 22.1777 12.8736 22.1777C12.6945 22.1777 12.4079 22.3389 12.2467 22.536M97.1142 26.8259C97.0067 27.005 97.3203 27.9454 97.4904 27.9454C97.5531 27.9454 97.5083 27.7126 97.4008 27.4349C97.2933 27.1483 97.2664 26.8617 97.3381 26.7901C97.4097 26.7184 97.4097 26.6647 97.3381 26.6647C97.2664 26.6647 97.1679 26.7364 97.1142 26.8259ZM389.466 35.4058C388.857 35.5401 397.132 35.4864 398.44 35.3521C398.789 35.3162 397.061 35.2804 394.589 35.2804C392.117 35.2804 389.815 35.3342 389.466 35.4058ZM399.201 35.2983C399.246 35.3431 399.82 35.4327 400.464 35.4954C401.226 35.576 401.449 35.5491 401.109 35.4416C400.581 35.2625 399.031 35.1461 399.201 35.2983ZM423.033 35.4327C422.756 35.5491 422.989 35.576 423.678 35.4954C424.269 35.4237 424.789 35.3342 424.834 35.2983C425.022 35.1371 423.445 35.2625 423.033 35.4327ZM425.604 35.3521C426.992 35.4954 432.088 35.5312 431.748 35.3968C431.551 35.3162 429.939 35.2625 428.174 35.2715C426.41 35.2804 425.255 35.3162 425.604 35.3521ZM0.388916 42.5975C0.388916 45.0694 0.415854 46.0456 0.460634 44.7828C0.496458 43.511 0.496458 41.487 0.460634 40.2868C0.42481 39.0867 0.388916 40.1256 0.388916 42.5975ZM121.206 52.0103C121.206 52.7178 121.251 52.9776 121.295 52.5925C121.34 52.2073 121.34 51.6342 121.295 51.3117C121.251 50.9893 121.206 51.3117 121.206 52.0103ZM142.799 52.4312C142.799 52.9059 142.844 53.0671 142.898 52.8074C142.951 52.5387 142.942 52.1536 142.898 51.9476C142.844 51.7416 142.799 51.9566 142.808 52.4312M289.732 64.8801C289.938 64.9339 290.278 64.9339 290.484 64.8801C290.69 64.8264 290.52 64.7816 290.108 64.7816C289.696 64.7816 289.526 64.8264 289.732 64.8801ZM291.881 64.8891C292.445 64.9339 293.314 64.9339 293.807 64.8891C294.299 64.8443 293.843 64.8085 292.786 64.8085C291.729 64.8085 291.317 64.8443 291.881 64.8891ZM296.046 64.8891C296.78 64.9339 297.989 64.9339 298.724 64.8891C299.458 64.8443 298.858 64.8174 297.389 64.8174C295.92 64.8174 295.32 64.8533 296.055 64.8891M301.393 64.8891C302.127 64.9339 303.327 64.9339 304.061 64.8891C304.796 64.8443 304.196 64.8174 302.727 64.8174C301.258 64.8174 300.658 64.8533 301.393 64.8891ZM305.879 64.8891C306.148 64.9428 306.533 64.9428 306.739 64.8891C306.945 64.8354 306.722 64.7906 306.256 64.7995C305.781 64.7995 305.62 64.8443 305.879 64.898M308.333 64.8712C308.674 64.9697 308.71 65.525 308.763 71.436L308.826 77.8933V71.3733C308.817 65.0145 308.808 64.8533 308.387 64.8085C308.065 64.7727 308.047 64.7906 308.333 64.8712ZM261.019 77.1499C261.762 77.6515 262.183 77.8037 261.664 77.3738C261.368 77.132 261.036 76.935 260.911 76.935C260.795 76.935 260.84 77.0335 261.019 77.1499Z" fill="#454545"/>
<path fill-rule="evenodd" clip-rule="evenodd" d="M12.2467 22.527C11.978 22.8494 11.996 22.8584 12.4885 22.6076C13.205 22.2315 13.2587 22.1777 12.8736 22.1777C12.6945 22.1777 12.4079 22.3389 12.2467 22.536M97.1142 26.8259C97.0067 27.005 97.3203 27.9454 97.4904 27.9454C97.5531 27.9454 97.5083 27.7126 97.4008 27.4349C97.2933 27.1483 97.2664 26.8617 97.3381 26.7901C97.4097 26.7184 97.4097 26.6647 97.3381 26.6647C97.2664 26.6647 97.1679 26.7364 97.1142 26.8259ZM389.466 35.4058C388.857 35.5401 397.132 35.4864 398.44 35.3521C398.789 35.3162 397.061 35.2804 394.589 35.2804C392.117 35.2804 389.815 35.3342 389.466 35.4058ZM399.201 35.2983C399.246 35.3431 399.82 35.4327 400.464 35.4954C401.226 35.576 401.449 35.5491 401.109 35.4416C400.581 35.2625 399.031 35.1461 399.201 35.2983ZM423.033 35.4327C422.756 35.5491 422.989 35.576 423.678 35.4954C424.269 35.4237 424.789 35.3342 424.834 35.2983C425.022 35.1371 423.445 35.2625 423.033 35.4327ZM425.604 35.3521C426.992 35.4954 432.088 35.5312 431.748 35.3968C431.551 35.3162 429.939 35.2625 428.174 35.2715C426.41 35.2804 425.255 35.3162 425.604 35.3521ZM0.388916 42.5975C0.388916 45.0694 0.415854 46.0456 0.460634 44.7828C0.496458 43.511 0.496458 41.487 0.460634 40.2868C0.42481 39.0867 0.388916 40.1256 0.388916 42.5975ZM121.206 52.0103C121.206 52.7178 121.251 52.9776 121.295 52.5925C121.34 52.2073 121.34 51.6342 121.295 51.3117C121.251 50.9893 121.206 51.3117 121.206 52.0103ZM142.799 52.4312C142.799 52.9059 142.844 53.0671 142.898 52.8074C142.951 52.5387 142.942 52.1536 142.898 51.9476C142.844 51.7416 142.799 51.9566 142.808 52.4312M289.732 64.8801C289.938 64.9339 290.278 64.9339 290.484 64.8801C290.69 64.8264 290.52 64.7816 290.108 64.7816C289.696 64.7816 289.526 64.8264 289.732 64.8801ZM291.881 64.8891C292.445 64.9339 293.314 64.9339 293.807 64.8891C294.299 64.8443 293.843 64.8085 292.786 64.8085C291.729 64.8085 291.317 64.8443 291.881 64.8891ZM296.046 64.8891C296.78 64.9339 297.989 64.9339 298.724 64.8891C299.458 64.8443 298.858 64.8174 297.389 64.8174C295.92 64.8174 295.32 64.8533 296.055 64.8891M301.393 64.8891C302.127 64.9339 303.327 64.9339 304.061 64.8891C304.796 64.8443 304.196 64.8174 302.727 64.8174C301.258 64.8174 300.658 64.8533 301.393 64.8891ZM305.879 64.8891C306.148 64.9428 306.533 64.9428 306.739 64.8891C306.945 64.8354 306.722 64.7906 306.256 64.7995C305.781 64.7995 305.62 64.8443 305.879 64.898M308.333 64.8712C308.674 64.9697 308.71 65.525 308.763 71.436L308.826 77.8933V71.3733C308.817 65.0145 308.808 64.8533 308.387 64.8085C308.065 64.7727 308.047 64.7906 308.333 64.8712ZM261.019 77.1499C261.762 77.6515 262.183 77.8037 261.664 77.3738C261.368 77.132 261.036 76.935 260.911 76.935C260.795 76.935 260.84 77.0335 261.019 77.1499Z" fill="#454545"/>
<path fill-rule="evenodd" clip-rule="evenodd" d="M12.2467 22.527C11.978 22.8494 11.996 22.8584 12.4885 22.6076C13.205 22.2315 13.2587 22.1777 12.8736 22.1777C12.6945 22.1777 12.4079 22.3389 12.2467 22.536M97.1142 26.8259C97.0067 27.005 97.3203 27.9454 97.4904 27.9454C97.5531 27.9454 97.5083 27.7126 97.4008 27.4349C97.2933 27.1483 97.2664 26.8617 97.3381 26.7901C97.4097 26.7184 97.4097 26.6647 97.3381 26.6647C97.2664 26.6647 97.1679 26.7364 97.1142 26.8259ZM389.466 35.4058C388.857 35.5401 397.132 35.4864 398.44 35.3521C398.789 35.3162 397.061 35.2804 394.589 35.2804C392.117 35.2804 389.815 35.3342 389.466 35.4058ZM399.201 35.2983C399.246 35.3431 399.82 35.4327 400.464 35.4954C401.226 35.576 401.449 35.5491 401.109 35.4416C400.581 35.2625 399.031 35.1461 399.201 35.2983ZM423.033 35.4327C422.756 35.5491 422.989 35.576 423.678 35.4954C424.269 35.4237 424.789 35.3342 424.834 35.2983C425.022 35.1371 423.445 35.2625 423.033 35.4327ZM425.604 35.3521C426.992 35.4954 432.088 35.5312 431.748 35.3968C431.551 35.3162 429.939 35.2625 428.174 35.2715C426.41 35.2804 425.255 35.3162 425.604 35.3521ZM0.388916 42.5975C0.388916 45.0694 0.415854 46.0456 0.460634 44.7828C0.496458 43.511 0.496458 41.487 0.460634 40.2868C0.42481 39.0867 0.388916 40.1256 0.388916 42.5975ZM121.206 52.0103C121.206 52.7178 121.251 52.9776 121.295 52.5925C121.34 52.2073 121.34 51.6342 121.295 51.3117C121.251 50.9893 121.206 51.3117 121.206 52.0103ZM142.799 52.4312C142.799 52.9059 142.844 53.0671 142.898 52.8074C142.951 52.5387 142.942 52.1536 142.898 51.9476C142.844 51.7416 142.799 51.9566 142.808 52.4312M289.732 64.8801C289.938 64.9339 290.278 64.9339 290.484 64.8801C290.69 64.8264 290.52 64.7816 290.108 64.7816C289.696 64.7816 289.526 64.8264 289.732 64.8801ZM291.881 64.8891C292.445 64.9339 293.314 64.9339 293.807 64.8891C294.299 64.8443 293.843 64.8085 292.786 64.8085C291.729 64.8085 291.317 64.8443 291.881 64.8891ZM296.046 64.8891C296.78 64.9339 297.989 64.9339 298.724 64.8891C299.458 64.8443 298.858 64.8174 297.389 64.8174C295.92 64.8174 295.32 64.8533 296.055 64.8891M301.393 64.8891C302.127 64.9339 303.327 64.9339 304.061 64.8891C304.796 64.8443 304.196 64.8174 302.727 64.8174C301.258 64.8174 300.658 64.8533 301.393 64.8891ZM305.879 64.8891C306.148 64.9428 306.533 64.9428 306.739 64.8891C306.945 64.8354 306.722 64.7906 306.256 64.7995C305.781 64.7995 305.62 64.8443 305.879 64.898M308.333 64.8712C308.674 64.9697 308.71 65.525 308.763 71.436L308.826 77.8933V71.3733C308.817 65.0145 308.808 64.8533 308.387 64.8085C308.065 64.7727 308.047 64.7906 308.333 64.8712ZM261.019 77.1499C261.762 77.6515 262.183 77.8037 261.664 77.3738C261.368 77.132 261.036 76.935 260.911 76.935C260.795 76.935 260.84 77.0335 261.019 77.1499Z" fill="#454545"/>
</svg>
