<svg width="459" height="125" viewBox="0 0 459 125" fill="none" xmlns="http://www.w3.org/2000/svg">
<path fill-rule="evenodd" clip-rule="evenodd" d="M60.7523 0.0792336C59.193 0.127212 56.3063 0.319128 52.4441 0.614997C51.6604 0.678969 50.4689 0.798914 49.8052 0.894872C49.1415 0.990829 48.4857 1.02282 48.3498 0.96684C48.2138 0.918861 46.7426 1.08679 45.0713 1.35067C43.4081 1.61455 41.6089 1.87844 41.0811 1.94241C40.5533 2.00638 39.6497 2.17431 39.074 2.31824C38.4982 2.46218 37.6345 2.6381 37.1627 2.69408C35.9073 2.862 33.5325 3.44574 33.5325 3.58968C33.5325 3.66165 33.3644 3.66965 33.1485 3.61367C32.9406 3.5577 32.6208 3.58168 32.4289 3.66165C32.245 3.74161 31.9651 3.82958 31.8051 3.86156C31.3013 3.95752 29.2703 4.54126 27.703 5.05303C26.8634 5.32491 26.0876 5.55681 25.9837 5.56481C25.7998 5.5808 25.496 5.69275 24.6483 6.0366C23.8247 6.37245 23.4967 6.47641 23.3528 6.44442C23.2728 6.42843 22.8651 6.58836 22.4573 6.79626C22.0495 7.00417 21.5776 7.18009 21.4097 7.18009C21.2418 7.18009 21.114 7.26806 21.114 7.37201C21.114 7.47596 20.9779 7.56392 20.81 7.56392C20.6421 7.56392 20.2662 7.73185 19.9783 7.93976C19.6905 8.14767 19.3867 8.25961 19.3228 8.18765C18.9869 7.8518 19.3227 48.6578 19.6746 50.7208C19.8665 51.8244 20.0424 53.0558 20.0744 53.4556C20.1463 54.3912 20.8659 57.3579 21.3857 58.8373C21.6096 59.469 21.8015 60.0447 21.8095 60.1247C21.8255 60.2047 21.8576 60.2846 21.8736 60.3166C21.8976 60.3406 21.9375 60.4925 21.9774 60.6525C22.0094 60.8124 22.1773 61.2602 22.3452 61.652C22.5132 62.0438 22.6572 62.4357 22.6652 62.5076C22.6732 62.5876 22.7692 62.7635 22.8811 62.8915C22.9931 63.0194 23.025 63.1314 22.961 63.1314C22.897 63.1314 23.017 63.4352 23.2249 63.8031C23.4328 64.1709 23.6007 64.5947 23.6007 64.7387C23.6007 64.8826 23.6647 65.0345 23.7446 65.0665C23.8246 65.0985 24.2646 65.8582 24.7284 66.7538C25.1922 67.6494 25.6879 68.449 25.8318 68.529C25.9757 68.6169 26.0476 68.7689 25.9837 68.8648C25.9197 68.9608 25.9598 69.0407 26.0717 69.0407C26.1837 69.0407 26.2716 69.1847 26.2716 69.3606C26.2716 69.5365 26.4874 69.9603 26.7513 70.3042C27.0152 70.648 27.2312 70.9919 27.2312 71.0639C27.2312 71.1758 27.8069 71.9275 28.6466 72.903C28.7985 73.079 29.0223 73.4068 29.1422 73.6307C29.2622 73.8546 29.5263 74.2065 29.7342 74.4064C29.9341 74.6063 30.102 74.8622 30.102 74.9661C30.102 75.0701 30.2298 75.158 30.3897 75.158C30.5497 75.158 30.6537 75.238 30.6297 75.326C30.5817 75.5019 31.7492 76.9253 33.0606 78.2927C33.4764 78.7245 34.1002 79.4042 34.444 79.804C34.7878 80.2038 35.0677 80.4677 35.0677 80.4037C35.0677 80.3398 35.6514 80.8755 36.3631 81.5872C37.9704 83.2025 40.4894 85.4735 41.0811 85.8413C41.329 85.9932 41.6169 86.3131 41.7289 86.561C41.8408 86.8009 42.0245 87.0008 42.1365 87.0008C42.3364 87.0008 42.6643 87.2727 44.1516 88.6721C44.5115 89.0159 44.8793 89.2958 44.9593 89.2958C45.0392 89.2958 45.2951 89.5517 45.535 89.8715C45.7749 90.1914 46.031 90.4473 46.1189 90.4473C46.2708 90.4473 47.2543 91.3029 49.2134 93.1421C49.7252 93.6219 50.181 93.9817 50.221 93.9417C50.261 93.9018 50.5168 94.1257 50.7807 94.4455C51.0526 94.7654 51.3245 95.0293 51.3965 95.0293C51.4684 95.0293 51.7644 95.2692 52.0522 95.557C53.0598 96.5566 53.9314 97.3242 54.0513 97.3242C54.1153 97.3242 54.4271 97.5881 54.7389 97.908C55.0748 98.2518 55.4026 98.4358 55.5466 98.3558C55.6745 98.2838 55.7146 98.2918 55.6346 98.3798C55.4827 98.5477 56.2024 99.4273 56.4903 99.4273C56.6822 99.4273 57.5777 100.403 57.5857 100.619C57.6017 100.923 57.1619 100.739 56.5782 100.187C56.2423 99.8751 55.8586 99.6112 55.7227 99.6112C55.5867 99.6112 55.4267 99.4833 55.3707 99.3234C55.3067 99.1634 55.1468 99.0355 55.0029 99.0355C54.8589 99.0355 54.5871 98.8756 54.4031 98.6836C54.2192 98.4917 53.7634 98.1319 53.3956 97.876C53.0277 97.6281 52.612 97.2843 52.4761 97.1243C52.2602 96.8764 52.2441 96.8764 52.372 97.1243C52.452 97.2843 52.2121 97.1563 51.8283 96.8365C50.349 95.605 49.7013 95.1092 49.2615 94.8773C49.0136 94.7414 48.8136 94.5415 48.8136 94.4375C48.8136 94.3336 48.7417 94.2856 48.6457 94.3416C48.5578 94.3975 48.2779 94.2536 48.022 94.0137C47.7741 93.7738 47.1023 93.2461 46.5346 92.8462C45.9668 92.4464 45.4072 92.0386 45.2953 91.9506C45.1833 91.8627 44.7035 91.4788 44.2317 91.111C43.7599 90.7432 43.1682 90.2634 42.9283 90.0555C42.6804 89.8475 42.4324 89.6796 42.3684 89.6796C42.3045 89.6796 42.0007 89.4397 41.6888 89.1519C41.377 88.864 41.185 88.752 41.265 88.912C41.345 89.0719 41.249 89.0239 41.0571 88.816C40.5373 88.2483 39.082 87.1368 39.082 87.3127C39.082 87.3926 38.7861 87.1527 38.4262 86.7689C38.0664 86.3851 37.7386 86.1132 37.6986 86.1532C37.6586 86.1932 37.3787 85.9773 37.0749 85.6574C36.771 85.3375 36.451 85.0817 36.3551 85.0817C36.2031 85.0817 35.7635 84.7218 34.6839 83.7143C34.5 83.5383 34.3081 83.4264 34.2681 83.4744C34.2281 83.5144 33.6844 83.0826 33.0686 82.5148C32.4529 81.9391 31.9092 81.5072 31.8772 81.5392C31.8372 81.5792 31.6132 81.4193 31.3813 81.1954C30.5736 80.4197 29.734 79.732 29.5981 79.732C29.4622 79.732 29.0144 79.3242 28.0708 78.3486C27.791 78.0608 27.471 77.8209 27.359 77.8209C27.2471 77.8209 27.0393 77.6529 26.9114 77.437C26.7834 77.2291 26.5755 77.0532 26.4555 77.0532C26.3356 77.0532 26.0477 76.8613 25.8078 76.6214C25.5679 76.3815 24.9602 75.8138 24.4484 75.35C23.057 74.0865 20.5941 71.7036 20.6741 71.7036C20.7141 71.7036 20.4741 71.4477 20.1462 71.1278C19.8184 70.816 19.4826 70.5521 19.4026 70.5521C19.3226 70.5521 19.0347 70.1683 18.7548 69.6965C18.475 69.2247 18.1792 68.8408 18.0913 68.8408C18.0033 68.8408 17.8833 68.6569 17.8273 68.441C17.7713 68.2171 17.6355 68.0892 17.5316 68.1531C17.4276 68.2171 17.2835 68.0812 17.2036 67.8493C17.1316 67.6174 16.9637 67.3215 16.8358 67.1936C16.7078 67.0656 16.3159 66.5059 15.9641 65.9461C15.6122 65.3864 15.2764 64.8826 15.2205 64.8346C14.9726 64.6027 14.3088 63.4992 13.7811 62.4437C13.4692 61.8119 13.1414 61.2682 13.0615 61.2362C12.9815 61.2042 12.9655 61.0923 13.0214 60.9963C13.0774 60.9003 13.0375 60.8204 12.9256 60.8204C12.8136 60.8204 12.7257 60.6684 12.7257 60.4765C12.7257 60.2846 12.4937 59.6609 12.2218 59.0931C11.9419 58.5254 11.6861 57.8857 11.6541 57.6698C11.6221 57.4619 11.4221 56.7102 11.2142 55.9985C11.0063 55.2948 10.7985 54.3432 10.7426 53.8954C10.5347 52.1282 10.4307 51.3446 10.3427 50.8808C10.0229 49.3055 9.86287 45.3472 9.85487 38.7821V31.3134L10.3746 30.9296C10.6624 30.7137 10.9343 30.5698 10.9823 30.6097C11.0223 30.6417 11.1102 30.6017 11.1822 30.5138C11.3102 30.3379 12.9015 29.4902 15.0686 28.4427L15.7882 28.0988V22.5893C15.7882 19.0468 15.7242 17.0797 15.5963 17.0797C15.4923 17.0797 15.4044 17.1837 15.4044 17.3036C15.4044 17.4236 15.3485 17.4715 15.2845 17.4076C15.2205 17.3436 14.8367 17.4556 14.4368 17.6635C14.037 17.8714 13.5732 18.0393 13.4133 18.0393C13.2533 18.0393 13.1175 18.1273 13.1175 18.2392C13.1175 18.3512 13.0295 18.3911 12.9256 18.3192C12.8216 18.2552 12.7337 18.3032 12.7337 18.4391C12.7337 18.5751 12.6776 18.623 12.6136 18.5591C12.5496 18.4951 12.0299 18.703 11.4702 19.0229C10.9024 19.3427 10.4386 19.5426 10.4386 19.4787C10.4386 19.4147 10.1827 19.5346 9.86287 19.7585C9.55101 19.9824 9.28715 20.1104 9.28715 20.0464C9.28715 19.8945 7.71188 20.7421 7.51996 20.998C7.44 21.1019 7.37589 21.1179 7.37589 21.03C7.37589 20.942 7.13606 21.03 6.84819 21.2299C6.56032 21.4298 6.08848 21.6857 5.80061 21.8136C5.51273 21.9336 5.27291 22.1175 5.27291 22.2134C5.27291 22.3814 4.56122 22.6852 4.27335 22.6453C4.19339 22.6373 4.12947 22.7092 4.12947 22.8132C4.12947 22.9171 4.00144 23.0051 3.84151 23.0051C3.68158 23.0051 3.55355 23.0691 3.55355 23.149C3.55355 23.229 3.08192 23.5409 2.51417 23.8527C1.93842 24.1646 1.52248 24.5004 1.58645 24.5964C1.65043 24.7003 1.61055 24.7243 1.4906 24.6524C1.37865 24.5804 1.0667 24.7403 0.802816 25.0042C0.538933 25.2681 0.235192 25.484 0.131238 25.484C-0.124649 25.484 0.0272529 45.1713 0.299133 47.6342C0.411083 48.6338 0.59501 49.9612 0.70696 50.5929C0.818911 51.2246 0.946737 52.1282 0.986719 52.6C1.0267 53.0718 1.28274 54.2313 1.54663 55.1749C1.81051 56.1185 2.05834 56.9821 2.08233 57.086C2.45816 58.5734 3.46566 60.9723 3.8255 61.2362C3.92946 61.3162 3.94548 61.3801 3.85752 61.3801C3.76956 61.3801 3.91341 61.748 4.1693 62.1958C4.43318 62.6436 4.64918 63.0914 4.66517 63.1953C4.67317 63.2993 4.82503 63.5472 4.99296 63.7471C5.16088 63.947 5.40091 64.3308 5.52885 64.6027C5.90469 65.4183 6.49635 66.3379 6.64828 66.3459C6.72824 66.3459 6.79216 66.4659 6.79216 66.6098C6.79216 66.7538 6.92019 66.9297 7.08012 66.9857C7.24005 67.0496 7.36788 67.2176 7.36788 67.3695C7.36788 67.5214 7.432 67.6734 7.51996 67.7053C7.59993 67.7373 8.07958 68.3051 8.58336 68.9608C9.08714 69.6165 9.55899 70.1523 9.64695 70.1523C9.73491 70.1523 9.89481 70.3682 10.0148 70.632C10.1347 70.8959 10.3667 71.1118 10.5186 71.1118C10.6706 71.1118 10.8064 71.1998 10.8064 71.3037C10.8064 71.6396 13.0615 74.1025 13.3094 74.0305C13.3974 74.0066 13.6452 74.2465 13.8691 74.5583C14.093 74.8702 14.3489 75.1261 14.4368 75.1261C14.5248 75.1261 14.9167 75.4299 15.3085 75.7978C15.7003 76.1656 16.084 76.4695 16.164 76.4695C16.244 76.4695 16.5958 76.7334 16.9476 77.0452C18.4989 78.4526 19.1307 78.9484 19.3546 78.9484C19.4825 78.9484 19.5945 79.0363 19.5945 79.1403C19.5945 79.2442 19.8984 79.4761 20.2663 79.6521C20.6341 79.828 20.9381 80.0999 20.9381 80.2518C20.9381 80.4037 20.994 80.4757 21.0659 80.4037C21.1379 80.3318 21.4817 80.5477 21.8336 80.8835C22.1854 81.2194 22.4653 81.4353 22.4653 81.3633C22.4653 81.2913 22.6252 81.3793 22.8171 81.5632C23.009 81.7471 23.3689 82.027 23.6087 82.1869C23.8566 82.3469 24.2085 82.6267 24.4004 82.8107C24.5923 82.9946 24.8243 83.1465 24.9043 83.1465C24.9842 83.1465 25.2241 83.2984 25.432 83.4824C26.0237 84.0181 27.3192 84.9617 27.4551 84.9617C27.5271 84.9617 27.7829 85.1376 28.0308 85.3455C29.0464 86.2252 29.854 86.7689 29.9739 86.649C30.0459 86.577 30.102 86.617 30.102 86.7289C30.102 86.9128 30.8135 87.4486 32.9646 88.896C33.3644 89.1679 33.9402 89.5757 34.2361 89.8076C35.3236 90.6552 37.7384 92.3105 37.7384 92.2065C37.7384 92.1505 38.0025 92.3664 38.3304 92.6863C38.6582 93.0141 38.986 93.2301 39.066 93.1821C39.1459 93.1341 39.4817 93.342 39.8096 93.6619C40.1375 93.9737 40.4732 94.2296 40.5532 94.2296C40.6332 94.2296 41.001 94.4855 41.3689 94.8054C41.7367 95.1172 42.1366 95.3811 42.2566 95.3811C42.3765 95.3811 42.5284 95.517 42.5924 95.677C42.6563 95.8369 42.7763 95.9329 42.8643 95.8769C42.9523 95.8209 43.256 95.9968 43.5359 96.2527C43.8158 96.5166 44.0478 96.6765 44.0478 96.6206C44.0478 96.5646 44.2796 96.7245 44.5675 96.9964C44.8553 97.2603 45.1593 97.4842 45.2472 97.4842C45.3352 97.4842 46.0228 97.94 46.7745 98.4917C47.5262 99.0435 48.3819 99.6192 48.6697 99.7632C48.9576 99.9071 49.1974 100.091 49.1974 100.163C49.1974 100.235 49.4533 100.403 49.7732 100.539C50.093 100.675 50.3489 100.851 50.3489 100.947C50.3489 101.043 50.4368 101.115 50.5408 101.115C50.7167 101.115 51.2205 101.474 51.7883 102.018C51.9242 102.146 52.0921 102.258 52.1641 102.258C52.2361 102.258 52.5641 102.474 52.9079 102.738C53.2518 103.002 53.5956 103.218 53.6675 103.218C53.7395 103.218 54.0034 103.434 54.2433 103.697C54.4832 103.961 54.7711 104.177 54.875 104.177C54.979 104.177 55.3148 104.393 55.6186 104.657C55.9225 104.921 56.2425 105.137 56.3224 105.137C56.4024 105.137 56.3783 105.305 56.2664 105.521C56.1544 105.729 55.9545 105.904 55.8265 105.904C55.6986 105.904 55.2268 106.24 54.779 106.648C54.3312 107.056 53.9713 107.336 53.9713 107.272C53.9713 107.208 53.8355 107.344 53.6755 107.584C53.5156 107.816 53.2517 108.008 53.0998 108.008C52.9479 108.008 52.8279 108.079 52.8279 108.175C52.8279 108.271 52.0122 108.967 51.0126 109.727C50.0131 110.486 49.1974 111.19 49.1974 111.278C49.1974 111.366 49.1015 111.446 48.9895 111.446C48.8776 111.446 48.4458 111.79 48.03 112.214C47.6142 112.637 47.2143 112.981 47.1343 112.981C47.0543 112.981 46.8546 113.133 46.6786 113.317C46.5027 113.501 46.1348 113.821 45.847 114.037C44.9354 114.717 43.8559 115.804 43.8559 116.028C43.8559 116.148 43.7839 116.204 43.696 116.148C43.608 116.092 43.3361 116.26 43.0882 116.516C42.8403 116.772 42.7283 116.988 42.8243 116.996C42.9202 116.996 42.8483 117.092 42.6644 117.195C42.4805 117.299 42.3286 117.523 42.3286 117.675C42.3286 117.827 42.2405 117.915 42.1365 117.843C42.0245 117.771 42.0007 117.859 42.0727 118.051C42.1606 118.275 42.1285 118.339 41.9686 118.235C41.8407 118.155 41.7607 118.163 41.7767 118.251C41.8007 118.339 41.7127 118.755 41.5928 119.171C41.4728 119.594 41.3689 121.074 41.3689 122.465V125H63.6391H85.9093L85.8373 121.993C85.7973 120.338 85.6853 118.859 85.5814 118.699C85.4774 118.539 85.3974 118.323 85.3895 118.211C85.3895 117.955 84.4458 116.756 83.5662 115.9C82.1269 114.485 81.9349 114.309 81.751 114.309C81.6471 114.309 81.4473 114.133 81.3114 113.909C81.1754 113.685 81.0154 113.549 80.9674 113.605C80.9194 113.661 80.6796 113.517 80.4477 113.293C79.3042 112.206 78.1768 111.238 77.705 110.934C77.4171 110.75 77.0412 110.446 76.8733 110.263C76.7054 110.079 76.4653 109.927 76.3454 109.927C76.2254 109.927 76.0736 109.799 76.0096 109.639C75.9456 109.479 75.8256 109.351 75.7377 109.351C75.6497 109.351 75.226 109.007 74.8021 108.591C74.0665 107.872 73.083 107.584 73.083 108.087C73.083 108.183 73.0269 108.207 72.9549 108.143C72.8829 108.079 72.691 108.127 72.5231 108.271C72.3551 108.415 71.3397 108.903 70.2522 109.359C69.1727 109.815 68.245 110.255 68.189 110.342C68.1331 110.43 67.9251 110.494 67.7252 110.494C67.5253 110.494 67.3574 110.59 67.3574 110.718C67.3574 110.846 67.3015 110.886 67.2295 110.814C67.1575 110.742 66.9257 110.798 66.7018 110.942C66.4859 111.086 65.4064 111.606 64.3029 112.102C61.1763 113.517 60.6723 113.749 59.145 114.477C58.3533 114.852 57.6657 115.172 57.6177 115.18C57.5698 115.188 56.7621 115.556 55.8345 115.996C54.907 116.436 54.0673 116.796 53.9713 116.796C53.8753 116.796 53.8034 116.868 53.8034 116.956C53.8034 117.044 53.6756 117.115 53.5156 117.115C53.0838 117.115 53.1717 116.836 53.6595 116.692C53.8994 116.62 54.3152 116.348 54.5951 116.084C54.8749 115.82 55.1628 115.628 55.2348 115.644C55.3068 115.66 55.6107 115.46 55.9226 115.188C56.2265 114.916 56.5222 114.717 56.5702 114.741C56.6181 114.765 56.8341 114.637 57.05 114.453C57.2659 114.269 57.5218 114.117 57.6257 114.117C57.7297 114.117 57.8177 114.045 57.8177 113.957C57.8177 113.869 58.0416 113.693 58.3055 113.573C58.5774 113.453 58.7453 113.269 58.6813 113.165C58.6174 113.061 58.6893 113.029 58.8572 113.093C59.0172 113.157 59.153 113.125 59.153 113.021C59.153 112.917 59.3051 112.773 59.489 112.709C59.9688 112.542 60.6244 112.134 61.0322 111.766C61.2242 111.59 61.4401 111.446 61.5121 111.446C61.5841 111.446 61.8878 111.222 62.1997 110.95C62.5036 110.678 62.7995 110.486 62.8555 110.518C62.9114 110.558 63.1513 110.406 63.3992 110.183C63.6471 109.959 64.1269 109.623 64.4628 109.423C64.8066 109.231 65.0865 108.999 65.0865 108.919C65.0865 108.839 65.2143 108.767 65.3743 108.767C65.5342 108.767 65.6622 108.679 65.6622 108.575C65.6622 108.471 65.7502 108.383 65.8701 108.383C66.094 108.383 67.4373 107.424 67.5413 107.192C67.5733 107.112 67.7253 107.048 67.8693 107.048C68.0132 107.048 68.4129 106.8 68.7568 106.504C69.1006 106.208 69.6604 105.8 70.0043 105.601C70.3481 105.401 70.628 105.169 70.628 105.081C70.628 104.993 70.6999 104.961 70.7799 105.017C70.8679 105.073 71.1798 104.905 71.4757 104.649C71.7715 104.393 72.1713 104.137 72.3712 104.073C72.5711 104.009 72.731 103.897 72.731 103.825C72.731 103.753 73.0109 103.53 73.3547 103.33C73.6986 103.13 74.1065 102.858 74.2584 102.714C74.4184 102.57 75.322 101.962 76.2656 101.362C77.2091 100.763 78.1526 100.123 78.3525 99.9391C78.5524 99.7552 78.8804 99.5553 79.0723 99.4913C79.2642 99.4273 79.4241 99.2994 79.4241 99.2034C79.4241 99.1075 79.5521 99.0275 79.7121 99.0275C79.872 99.0275 79.9998 98.9635 79.9998 98.8836C79.9998 98.8036 80.3837 98.5237 80.8555 98.2678C81.3273 98.0119 81.7112 97.7241 81.7112 97.6361C81.7112 97.5481 81.7831 97.5242 81.8711 97.5801C81.959 97.6361 82.1989 97.5322 82.3988 97.3482C82.9106 96.8844 85.7014 95.0213 85.8853 95.0213C85.9653 95.0213 86.2771 94.7654 86.5809 94.4535C86.8768 94.1417 87.1887 93.9258 87.2767 93.9817C87.3567 94.0297 87.5165 93.9258 87.6205 93.7338C87.7244 93.5499 87.8204 93.462 87.8204 93.5499C87.8204 93.6299 88.0123 93.5259 88.2362 93.318C88.4601 93.1101 88.716 92.9822 88.812 93.0381C88.8999 93.0941 88.9718 93.0061 88.9718 92.8382C88.9718 92.6703 89.0358 92.5584 89.1157 92.5823C89.3476 92.6463 90.3792 92.0386 90.7711 91.6068C90.971 91.3829 91.211 91.207 91.307 91.207C91.4029 91.207 91.5788 91.119 91.7068 91.023C92.8503 90.0874 93.178 89.8635 93.186 89.9995C93.186 90.0874 93.282 90.0075 93.3859 89.8236C93.4979 89.6396 93.6658 89.5357 93.7617 89.5917C93.8577 89.6556 93.9376 89.6316 93.9376 89.5437C93.9376 89.4557 94.2816 89.1759 94.7054 88.912C95.1213 88.6481 95.4651 88.3762 95.4651 88.2962C95.4651 88.2163 95.529 88.1683 95.609 88.2003C95.7769 88.2483 97.5921 87.0408 97.8 86.7369C97.8799 86.625 97.9439 86.601 97.9439 86.673C97.9439 86.8009 98.4237 86.4571 99.0075 85.9133C99.1434 85.7853 99.3113 85.6734 99.3753 85.6734C99.5432 85.6734 100.607 84.8977 101.287 84.29C101.606 84.0021 101.95 83.7622 102.054 83.7622C102.158 83.7622 102.59 83.4584 103.006 83.0905C103.422 82.7227 103.869 82.4268 103.997 82.4268C104.125 82.4268 104.389 82.2109 104.597 81.947C104.805 81.6832 105.053 81.4673 105.157 81.4673C105.261 81.4673 105.573 81.2514 105.852 80.9875C106.132 80.7236 106.436 80.5077 106.524 80.5077C106.612 80.5077 106.948 80.2518 107.276 79.9319C107.604 79.6121 107.876 79.4202 107.876 79.4921C107.876 79.5641 108.035 79.4601 108.235 79.2522C108.435 79.0443 108.883 78.6685 109.235 78.4046C109.587 78.1407 110.099 77.6929 110.378 77.4051C110.658 77.1172 110.978 76.8773 111.09 76.8773C111.202 76.8773 111.434 76.6614 111.61 76.3975C111.786 76.1336 112.01 75.9177 112.114 75.9177C112.218 75.9177 112.497 75.7258 112.721 75.4859C112.953 75.246 113.649 74.5823 114.273 74.0066C114.896 73.4308 115.384 72.887 115.36 72.8071C115.336 72.7271 115.44 72.6072 115.6 72.5432C115.76 72.4792 115.84 72.3513 115.776 72.2553C115.712 72.1594 115.744 72.1034 115.84 72.1354C116.04 72.1994 117.223 71.1198 117.223 70.8719C117.223 70.776 117.423 70.5201 117.663 70.2962C117.903 70.0723 118.439 69.4646 118.847 68.9368C119.255 68.409 119.686 67.9212 119.79 67.8413C119.894 67.7613 119.918 67.6973 119.838 67.6973C119.75 67.6973 119.95 67.4175 120.27 67.0736C120.59 66.7298 120.854 66.3539 120.854 66.226C120.854 66.106 120.974 65.8821 121.11 65.7462C121.501 65.3544 122.469 63.7951 122.421 63.6351C122.397 63.5552 122.477 63.4912 122.605 63.4912C122.733 63.4912 122.773 63.4352 122.701 63.3633C122.629 63.2913 122.797 62.9474 123.061 62.5956C123.325 62.2438 123.501 61.9559 123.437 61.9559C123.373 61.9559 123.588 61.4841 123.908 60.9083C124.228 60.3326 124.444 59.8608 124.388 59.8608C124.332 59.8608 124.412 59.6049 124.58 59.2851C124.996 58.4854 126.204 54.5751 126.291 53.7515C126.331 53.3757 126.507 52.4321 126.683 51.6404C126.859 50.8488 127.011 49.6733 127.027 49.0176C127.043 48.3619 127.115 47.8261 127.179 47.8261C127.243 47.8261 127.323 42.8363 127.339 36.735L127.371 25.6439L126.739 25.0922C126.395 24.7883 126.035 24.5324 125.947 24.5324C125.86 24.5324 125.524 24.3085 125.204 24.0446C124.86 23.7568 124.5 23.6048 124.324 23.6768C124.156 23.7408 124.084 23.7328 124.156 23.6608C124.308 23.5089 123.588 22.9011 122.701 22.4294C122.373 22.2534 121.63 21.8616 121.054 21.5577C120.478 21.2539 119.958 20.95 119.91 20.894C119.774 20.7341 119.078 20.4622 118.911 20.4942C118.831 20.5102 118.767 20.4462 118.767 20.3503C118.767 20.2543 118.335 20.0224 117.807 19.8385C117.279 19.6546 116.856 19.4147 116.856 19.3107C116.856 19.2068 116.808 19.1748 116.744 19.2388C116.68 19.3027 116.264 19.1508 115.816 18.8949C115.368 18.647 114.944 18.4951 114.881 18.5591C114.817 18.623 114.76 18.5751 114.76 18.4471C114.76 18.3192 114.672 18.2632 114.569 18.3272C114.465 18.3911 114.377 18.3512 114.377 18.2472C114.377 18.1432 114.249 18.0473 114.081 18.0473C113.913 18.0473 113.377 17.8394 112.873 17.5835C111.458 16.8638 111.498 16.7279 111.554 22.7412L111.602 28.0749L113.417 28.9785C114.417 29.4742 115.4 30.01 115.608 30.1699C115.816 30.3299 116.08 30.4578 116.2 30.4578C116.32 30.4578 116.64 30.6257 116.903 30.8336C117.167 31.0415 117.431 31.1535 117.503 31.0895C117.591 31.0016 117.703 39.3179 117.671 42.8683C117.631 46.9065 116.848 53.0718 116.048 55.7586C115.824 56.4943 115.64 57.182 115.624 57.2859C115.552 57.8697 115.04 59.2931 114.904 59.2931C114.816 59.2931 114.793 59.381 114.856 59.485C114.92 59.5889 114.88 59.6769 114.776 59.6769C114.673 59.6769 114.577 59.7808 114.569 59.9168C114.569 60.3566 112.482 64.2589 112.242 64.2589C112.154 64.2589 112.09 64.3468 112.09 64.4588C112.09 64.6347 111.722 65.1864 110.85 66.3139C110.746 66.4499 110.442 66.7698 110.186 67.0336C109.923 67.2895 109.763 67.5054 109.835 67.5054C109.907 67.5054 109.579 67.8813 109.131 68.3451C108.675 68.8089 108.339 69.2247 108.387 69.2646C108.435 69.3126 108.259 69.4646 107.995 69.6005C107.732 69.7444 107.516 69.9204 107.516 70.0083C107.516 70.2002 103.597 74.1905 103.406 74.1905C103.326 74.1905 102.95 74.5103 102.574 74.9022C102.198 75.294 102.006 75.5339 102.158 75.4459C102.342 75.334 102.382 75.35 102.286 75.5019C102.214 75.6218 102.046 75.7258 101.918 75.7258C101.79 75.7258 101.438 76.0057 101.142 76.3495C100.839 76.6934 100.559 76.9413 100.511 76.9013C100.463 76.8613 99.847 77.3491 99.1433 77.9728C98.4396 78.6045 97.0083 79.796 95.9608 80.6356C94.9132 81.4753 93.9377 82.2989 93.7937 82.4748C93.6498 82.6507 93.418 82.7947 93.274 82.7947C93.1301 82.7947 92.9221 82.9626 92.8102 83.1785C92.6982 83.3864 92.4983 83.5623 92.3703 83.5623C92.2424 83.5623 92.0266 83.7303 91.8987 83.9462C91.7707 84.1541 91.5708 84.33 91.4668 84.33C91.2429 84.33 88.9319 86.2012 88.836 86.457C88.804 86.545 88.6521 86.625 88.5002 86.625C88.3483 86.625 88.2282 86.7129 88.2282 86.8169C88.2282 86.9208 88.1162 87.0088 87.9723 87.0088C87.8284 87.0088 87.5484 87.2007 87.3325 87.4406C87.1166 87.6805 86.6608 88.0883 86.325 88.3442C85.9811 88.6081 85.5894 88.928 85.4535 89.0639C85.3175 89.1918 85.1336 89.3038 85.0457 89.3038C84.9577 89.3038 84.5418 89.5997 84.1259 89.9675C83.0784 90.8711 83.1265 90.8391 81.8311 91.7907C81.1993 92.2545 80.4716 92.8302 80.2078 93.0701C79.9439 93.31 79.6321 93.5099 79.5042 93.5099C79.3762 93.5099 79.2482 93.5819 79.2162 93.6619C79.1842 93.7498 78.6325 94.1976 78.0087 94.6614C77.377 95.1252 76.7934 95.621 76.7134 95.7489C76.6334 95.8769 76.4495 95.9888 76.3136 95.9888C76.1776 95.9888 75.8657 96.2047 75.6178 96.4686C75.3699 96.7325 75.074 96.9484 74.962 96.9484C74.8501 96.9484 74.6103 97.1003 74.4343 97.2843C73.9945 97.7481 73.5627 98.0999 73.4108 98.0999C73.2588 98.0999 71.3477 99.6672 71.2598 99.8671C71.2278 99.9471 71.0917 100.011 70.9558 100.011C70.8198 100.011 70.4921 100.219 70.2202 100.475C69.7724 100.891 69.7005 100.907 69.4766 100.627C69.2687 100.379 69.2766 100.347 69.4766 100.475C69.6445 100.579 69.7644 100.491 69.8364 100.227C69.8923 100.003 70.0522 99.8271 70.1882 99.8271C70.3241 99.8271 70.828 99.4433 71.2998 98.9715C71.7716 98.4997 72.2512 98.1159 72.3632 98.1159C72.4751 98.1159 72.7071 97.9 72.8751 97.6361C73.043 97.3722 73.2828 97.1563 73.4028 97.1563C73.5947 97.1563 74.4903 96.3967 76.4415 94.5975C76.7373 94.3256 77.0571 94.1097 77.1611 94.1097C77.265 94.1097 77.345 93.9817 77.345 93.8218C77.345 93.6619 77.5369 93.454 77.7768 93.358C78.3046 93.1501 78.8884 92.4784 78.7125 92.2785C78.6405 92.1985 78.6964 92.1985 78.8324 92.2785C78.9843 92.3664 79.2802 92.2385 79.592 91.9266C80.1278 91.4149 80.4237 91.151 82.095 89.7116C82.6468 89.2398 83.3584 88.6161 83.6863 88.3282C84.0142 88.0403 84.3419 87.8005 84.4219 87.8005C84.5019 87.8005 84.6139 87.6485 84.6778 87.4566C84.7338 87.2727 85.0376 86.9688 85.3494 86.7849C85.6613 86.601 86.2532 86.1292 86.677 85.7374C87.1008 85.3455 87.8924 84.6419 88.4361 84.1701C88.9879 83.6983 89.6116 83.1305 89.8355 82.9066C90.0514 82.6827 90.6032 82.1869 91.059 81.8111C91.5148 81.4273 91.8266 81.1154 91.7466 81.1154C91.6666 81.1154 91.8267 80.9395 92.1066 80.7236C92.7623 80.2118 94.3375 78.6285 94.1936 78.6285C94.1376 78.6285 94.4015 78.3246 94.7853 77.9488C95.1691 77.573 95.4811 77.2371 95.4811 77.1971C95.4811 77.1572 95.8489 76.7253 96.2967 76.2296C96.7445 75.7418 97.1044 75.278 97.1044 75.206C97.1044 75.1341 97.3202 74.8622 97.5841 74.6063C97.8479 74.3504 98.1439 74.0066 98.2558 73.8386C98.4797 73.4868 99.3193 72.2953 100.199 71.0958C100.535 70.64 100.751 70.2162 100.695 70.1523C100.639 70.0883 100.663 70.0403 100.759 70.0403C100.855 70.0403 101.151 69.6325 101.414 69.1367C101.678 68.6409 102.038 68.0252 102.222 67.7773C102.406 67.5294 102.558 67.1616 102.558 66.9697C102.558 66.7777 102.63 66.6098 102.726 66.6098C102.974 66.6098 104.005 64.4348 103.925 64.0749C103.909 63.995 103.989 63.931 104.093 63.931C104.197 63.931 104.245 63.851 104.189 63.7551C104.133 63.6591 104.165 63.5472 104.277 63.5152C104.381 63.4832 104.509 63.2753 104.549 63.0594C104.589 62.8435 104.773 62.3317 104.957 61.9159C105.141 61.5001 105.309 61.0603 105.341 60.9403C105.365 60.8124 105.613 60.0447 105.876 59.2211C106.588 57.062 107.34 54.1673 107.228 53.9914C107.18 53.9114 107.228 53.4316 107.34 52.9199C107.772 51.0007 108.083 47.6902 107.963 46.1788C107.883 45.0833 107.908 44.6435 108.068 44.6435C108.227 44.6435 108.283 40.0056 108.283 26.4036C108.283 10.5066 108.251 8.16366 108.003 8.16366C107.852 8.16366 107.444 8.04371 107.1 7.89978C105.701 7.31603 103.35 6.46041 102.27 6.15655C101.638 5.98062 100.999 5.78071 100.839 5.72474C100.679 5.66876 100.383 5.5888 100.167 5.54881C99.959 5.50883 99.3353 5.30892 98.7835 5.10101C98.2318 4.8931 97.7361 4.72518 97.6881 4.72518C97.6401 4.72518 97.576 4.71718 97.544 4.70119C97.5201 4.69319 97.2802 4.6692 97.0163 4.64521C96.7525 4.62922 95.9689 4.42131 95.2812 4.18142C94.5935 3.94952 93.7698 3.71763 93.466 3.67764C93.1621 3.63766 92.3545 3.45374 91.6668 3.26982C90.9791 3.0859 90.2113 2.91798 89.9474 2.90198C89.6835 2.88599 89.3397 2.82202 89.1798 2.76604C88.708 2.59012 85.9012 2.03037 84.9816 1.92642C84.5098 1.87044 83.0065 1.63055 81.6392 1.38266C80.2718 1.14276 78.8164 0.934855 78.3925 0.934855C77.9687 0.934855 76.4654 0.798914 75.0501 0.630989C73.6347 0.471059 70.9239 0.247159 69.0367 0.143205C65.7502 -0.0327169 64.6946 -0.0407147 60.8243 0.0872288M72.1154 13.3774C73.2109 13.4413 75.3138 13.8811 76.1295 14.209C76.2894 14.273 76.5455 14.3529 76.7054 14.3849C77.0972 14.4649 79.7359 15.7363 80.3516 16.1361C81.6471 16.9918 82.023 17.2956 82.9107 18.2232C84.1901 19.5586 84.5338 19.9744 84.5338 20.1823C84.5338 20.2783 84.6538 20.4302 84.8057 20.5182C84.9577 20.6062 85.3734 21.2459 85.7332 21.9576C86.0931 22.6613 86.4291 23.205 86.4851 23.149C86.541 23.0931 86.5809 23.165 86.5889 23.293C86.6049 23.7408 86.8369 24.7563 87.0368 25.2841C87.6685 26.9474 87.7483 62.0918 87.1246 63.8191C87.0527 64.027 86.8848 64.4588 86.7648 64.7706C86.6449 65.0825 86.5329 65.4104 86.5169 65.4903C86.5009 65.5703 86.469 65.6742 86.445 65.7302C86.4211 65.7782 86.381 65.8901 86.365 65.9701C86.285 66.3539 85.2294 68.3051 84.9176 68.6489C84.7177 68.8648 84.5979 69.0807 84.6538 69.1367C84.7098 69.1927 83.9741 70.0243 83.0225 70.9919C82.071 71.9595 81.2874 72.6951 81.2874 72.6232C81.2874 72.5112 81.0874 72.6472 80.4637 73.2069C80.3278 73.3269 80.0158 73.4868 79.7679 73.5667C79.52 73.6467 79.1442 73.8706 78.9362 74.0625C78.7283 74.2544 78.4885 74.3664 78.4005 74.3184C78.3126 74.2624 78.2407 74.3104 78.2407 74.4224C78.2407 74.5343 78.0487 74.6303 77.8088 74.6303C77.5689 74.6303 77.2091 74.7582 77.0092 74.9182C76.8013 75.0701 76.4815 75.198 76.2816 75.198C76.0577 75.198 75.9777 75.278 76.0576 75.4219C76.1376 75.5499 76.1136 75.5899 76.0016 75.5259C75.8977 75.4619 75.2499 75.5659 74.5622 75.7658C73.8825 75.9577 72.6832 76.1736 71.9075 76.2456C71.1319 76.3095 70.2122 76.4215 69.8604 76.4855C69.5085 76.5494 68.8207 76.6214 68.3329 76.6454C66.7656 76.7174 41.1291 76.7413 41.0571 76.6694C40.9851 76.5974 42.9843 74.4064 44.5116 72.895C45.0234 72.3833 45.3752 71.9675 45.2792 71.9675C45.1833 71.9675 45.3031 71.8315 45.535 71.6716L45.9588 71.3757V18.4711L45.1912 17.7514C44.7754 17.3596 44.4316 16.9598 44.4316 16.8798C44.4316 16.7039 43.1042 15.4165 42.9203 15.4165C42.8564 15.4165 42.6484 15.1686 42.4725 14.8727C42.2966 14.5768 41.8648 14.0491 41.5209 13.7132L40.8972 13.0975L55.8906 13.2014C64.1349 13.2574 71.4435 13.3374 72.1232 13.3854M60.2726 44.6515V65.4903L64.4227 65.4024C68.8128 65.3144 69.4125 65.2024 70.34 64.3148C70.5799 64.0909 70.7719 63.963 70.7719 64.035C70.7719 64.4108 71.6275 63.3073 72.1232 62.2997L72.6832 61.1482V44.2357C72.6672 25.2041 72.8351 27.2032 71.0919 25.5C70.5801 24.9962 70.0842 24.6284 69.9963 24.6764C69.9083 24.7323 69.8123 24.7083 69.7803 24.6284C69.5324 24.0686 67.7173 23.8127 64.0309 23.8127H60.2566V44.6515M355.87 30.7697C355.83 30.8096 353.215 30.8896 350.064 30.9536C345.826 31.0335 343.715 31.1615 341.948 31.4334C340.637 31.6333 339.517 31.7772 339.461 31.7452C339.405 31.7132 338.59 31.8492 337.646 32.0571C336.703 32.265 335.799 32.4569 335.647 32.4889C335.391 32.5449 335.351 36.1753 335.311 63.5152L335.263 94.4855H349.968V44.3077L350.592 44.1637C351.608 43.9318 356.717 43.8919 356.997 44.1158C357.133 44.2277 357.293 44.2597 357.357 44.2037C357.669 43.8919 360.292 45.747 360.292 46.2908C360.292 46.4347 360.38 46.5547 360.484 46.5547C360.588 46.5547 360.66 46.6187 360.636 46.6986C360.62 46.7786 360.7 47.1864 360.828 47.6022C360.996 48.17 361.052 54.3113 361.052 71.4237V94.4855H374.046L374.03 69.9044L374.014 45.3232L375.501 44.8674C379.603 43.612 383.913 44.5796 384.465 46.8825C384.537 47.1704 384.641 47.4903 384.705 47.5942C384.769 47.6982 384.833 47.8501 384.849 47.9301C384.865 48.01 384.889 58.5174 384.897 71.2798L384.921 94.4855H399.826L399.771 69.1367C399.715 46.1229 399.683 43.684 399.387 42.6364C399.211 42.0047 399.059 41.277 399.051 41.0131C399.043 40.7493 398.875 40.1895 398.667 39.7737C398.459 39.3579 398.291 38.9261 398.291 38.8301C398.283 38.6062 397.292 37.1269 397.092 37.0389C397.012 37.0069 396.948 36.887 396.948 36.783C396.948 36.6231 395.956 35.6315 394.509 34.3361C393.989 33.8723 392.47 32.9207 392.31 32.9607C392.23 32.9847 392.166 32.9207 392.166 32.8248C392.166 32.7288 391.91 32.5929 391.598 32.5209C391.286 32.4489 390.974 32.313 390.918 32.217C390.862 32.1211 390.614 32.0411 390.383 32.0411C390.151 32.0411 389.871 31.9691 389.775 31.8892C389.583 31.7212 388.112 31.3374 387.016 31.1695C385.625 30.9536 383.825 30.9136 377.372 30.9376C376.493 30.9376 374.206 31.2814 373.454 31.5213C373.086 31.6413 372.59 31.7132 372.358 31.6813C372.127 31.6573 371.823 31.6973 371.695 31.7772C371.567 31.8572 371.327 31.9371 371.167 31.9611C370.703 32.0171 367.457 33.2086 367.265 33.3845C367.169 33.4805 366.873 33.3925 366.593 33.2006C365.993 32.7768 364.154 31.9771 363.786 31.9771C363.643 31.9771 363.523 31.9212 363.523 31.8572C363.523 31.7932 363.371 31.7292 363.187 31.7212C363.003 31.7133 362.211 31.5613 361.42 31.3854C360.636 31.2095 359.14 31.0255 358.109 30.9856C357.077 30.9376 356.166 30.8656 356.086 30.8096C356.006 30.7617 355.902 30.7457 355.862 30.7857M142.828 32.0251C142.86 32.241 143.108 32.6808 143.38 32.9847C143.652 33.2965 143.836 33.5444 143.788 33.5444C143.74 33.5444 143.916 33.7843 144.187 34.0642C144.451 34.3521 144.675 34.6559 144.675 34.7439C144.675 34.8319 144.883 35.1197 145.139 35.3996C145.395 35.6795 145.563 35.9754 145.507 36.0633C145.451 36.1513 145.491 36.2233 145.587 36.2233C145.683 36.2233 145.987 36.5671 146.267 36.9829L146.77 37.7426V63.2913V88.84L146.147 89.5037C145.803 89.8635 145.523 90.2154 145.523 90.2714C145.523 90.3273 145.323 90.5912 145.075 90.8551C144.827 91.119 144.499 91.6068 144.355 91.9506C144.211 92.2945 143.988 92.5743 143.868 92.5743C143.748 92.5743 143.7 92.6303 143.764 92.6943C143.828 92.7583 143.628 93.0221 143.316 93.286C141.836 94.5335 141.397 94.4935 155.119 94.4855C169.112 94.4775 172.791 94.3336 174.63 93.7418C175.302 93.5259 176.077 93.302 176.349 93.254C176.797 93.1741 178.101 92.6143 178.852 92.1825C179.012 92.0946 179.636 91.7427 180.244 91.4069C181.691 90.6072 183.922 88.7201 183.89 88.3122C183.874 88.1363 183.954 87.9924 184.058 87.9924C184.282 87.9924 185.153 87.0248 185.153 86.7849C185.153 86.6969 185.361 86.3531 185.609 86.0172C186.177 85.2656 187.057 83.1945 187.16 82.3549C187.2 82.011 187.352 81.4832 187.48 81.1794C188.28 79.3722 187.824 43.3001 187.001 43.3001C186.913 43.3001 186.889 43.2202 186.953 43.1162C187.104 42.8683 185.769 39.8616 185.505 39.8616C185.433 39.8616 185.185 39.4938 184.953 39.054C184.498 38.1824 181.995 35.6635 181.579 35.6635C181.443 35.6635 181.323 35.5995 181.323 35.5196C181.323 35.3436 180.427 34.6879 180.124 34.632C180.004 34.608 179.596 34.4001 179.228 34.1682C178.86 33.9363 178.348 33.6964 178.084 33.6324C177.821 33.5684 177.525 33.4485 177.413 33.3765C177.181 33.2086 175.798 32.7288 175.406 32.6888C175.246 32.6728 174.246 32.4729 173.183 32.257C170.808 31.7612 172.831 31.8252 156.55 31.7292L142.756 31.6493L142.82 32.0491M195.413 31.7692C195.341 31.8412 195.285 45.9789 195.285 63.1793V94.4695H209.99V72.6631L214.62 72.7511C217.171 72.7991 219.426 72.887 219.634 72.943C219.842 72.999 220.058 73.055 220.114 73.063C220.386 73.103 221.241 74.0145 221.521 74.5583C221.809 75.1181 221.841 76.1496 221.833 84.8258V94.4695H229.374H236.923L236.859 84.5859C236.827 79.1483 236.746 74.4863 236.683 74.2225C236.619 73.9586 236.475 73.3428 236.363 72.8551C236.131 71.8795 235.451 70.6001 235.163 70.6001C235.059 70.6001 235.043 70.5041 235.115 70.3762C235.187 70.2562 235.123 70.0643 234.963 69.9444C234.803 69.8324 234.579 69.5445 234.451 69.3046C234.324 69.0727 234.164 68.8968 234.084 68.9208C234.012 68.9448 233.412 68.6009 232.764 68.1531C232.109 67.7053 231.149 67.2415 230.621 67.1216L229.662 66.8977L230.661 66.226C231.213 65.8582 231.733 65.4423 231.813 65.3064C231.901 65.1705 232.06 65.0505 232.172 65.0505C232.404 65.0505 233.284 64.1629 233.284 63.923C233.284 63.843 233.452 63.6191 233.668 63.4272C233.884 63.2353 234.052 62.9714 234.052 62.8435C234.052 62.7155 234.148 62.5716 234.26 62.5316C234.452 62.4677 235.019 61.0683 235.331 59.8928C235.731 58.3975 235.563 41.8768 235.123 40.0296C234.94 39.2379 234.012 37.1668 233.844 37.1668C233.756 37.1668 233.636 37.0149 233.58 36.831C233.452 36.4312 231.645 34.496 231.397 34.496C231.301 34.496 231.117 34.3601 230.981 34.2001C230.685 33.8483 228.462 32.7768 227.758 32.6568C227.486 32.6089 226.839 32.4489 226.311 32.305C225.784 32.161 224.52 31.9451 223.504 31.8412C221.473 31.6253 195.621 31.5533 195.405 31.7692M256.058 31.8572C255.298 31.9451 254.139 32.161 253.483 32.329C252.828 32.4969 252.204 32.6648 252.1 32.6888C251.996 32.7128 251.676 32.8328 251.38 32.9527C250.5 33.3205 249.813 33.5844 249.709 33.5844C249.653 33.5844 249.549 33.7044 249.461 33.8563C249.381 34.0082 249.189 34.1282 249.053 34.1282C248.917 34.1282 248.533 34.3761 248.213 34.6719C247.894 34.9758 247.59 35.1837 247.55 35.1437C247.51 35.1037 247.23 35.3916 246.926 35.7914C246.622 36.1913 246.198 36.687 245.991 36.895C245.631 37.2468 245.247 37.9505 245.143 38.4223C245.119 38.5262 244.975 38.7581 244.815 38.9341C244.655 39.11 244.583 39.3499 244.647 39.4618C244.719 39.5738 244.687 39.6697 244.575 39.6697C244.327 39.6697 243.679 41.7888 243.583 42.9163C243.455 44.3956 243.503 82.4828 243.631 83.6423C243.767 84.8258 244.671 87.5766 245.023 87.8884C245.143 87.9924 245.351 88.3442 245.479 88.6721C245.743 89.3118 247.598 91.3589 247.846 91.2789C247.934 91.2549 248.054 91.3589 248.11 91.5188C248.173 91.6787 248.293 91.8067 248.397 91.8067C248.501 91.8067 249.029 92.1105 249.581 92.4784C250.14 92.8462 250.788 93.1901 251.028 93.2301C251.268 93.278 251.948 93.4939 252.54 93.7178C254.147 94.3256 256.97 94.4615 267.901 94.4695H277.593L277.545 88.5041L277.497 82.5388L268.565 82.4988C263.655 82.4748 259.528 82.3948 259.392 82.3069C259.256 82.2269 258.913 81.8671 258.633 81.5232L258.113 80.8835V68.8808H275.29L275.346 63.0114L275.401 57.142L266.757 57.19L258.113 57.238V45.4832L258.633 44.6835C259.409 43.492 259.361 43.492 268.932 43.492H277.593V31.6493L267.517 31.6733C261.975 31.6893 256.818 31.7692 256.058 31.8572ZM284.789 31.7692C284.717 31.8412 284.661 45.9789 284.661 63.1793V94.4695H299.559V72.6951H311.969L312.017 83.5303L312.065 94.3656L319.662 94.4135L327.259 94.4615L327.194 70.4481C327.138 48.3059 327.107 46.3308 326.803 45.1953C326.619 44.5156 326.443 43.8119 326.419 43.628C326.395 43.4441 326.307 43.2362 326.235 43.1642C326.163 43.0922 326.099 42.8923 326.099 42.7324C326.099 42.5644 325.923 42.0847 325.723 41.6688C325.523 41.245 325.355 40.7972 325.347 40.6693C325.347 40.5413 325.251 40.4294 325.147 40.4294C325.043 40.4294 324.971 40.3654 324.995 40.2855C325.075 39.9976 323.772 38.1424 323.572 38.2624C323.452 38.3343 323.42 38.2943 323.5 38.1744C323.636 37.9505 321.717 35.8394 321.373 35.8394C321.261 35.8394 321.141 35.7755 321.109 35.6955C320.933 35.3117 319.142 34.2081 318.798 34.2801C318.718 34.2961 318.654 34.2321 318.654 34.1362C318.654 33.9363 315.752 32.7848 314.992 32.6808C314.712 32.6408 314.12 32.5129 313.681 32.4009C313.241 32.281 312.841 32.233 312.777 32.297C312.721 32.353 312.577 32.321 312.457 32.233C311.858 31.7372 285.261 31.2974 284.781 31.7772M413.085 32.7528C412.893 33.3525 412.581 34.3361 412.381 34.9358C412.181 35.5356 411.989 36.1753 411.949 36.3672C411.909 36.5591 411.525 37.7826 411.093 39.094C410.661 40.4054 410.27 41.7248 410.214 42.0287C410.158 42.3326 409.99 42.8203 409.838 43.1162C409.686 43.4121 409.526 43.8519 409.478 44.0998C409.43 44.3397 409.382 44.5396 409.366 44.5396C409.35 44.5396 409.31 44.6915 409.27 44.8754C409.214 45.1873 409.462 45.2113 412.437 45.2113H415.667V94.4775H430.565V31.6413H422.001L413.436 31.6653L413.092 32.7528M441.176 31.8812C440.992 32.5209 440.441 34.0722 440.273 34.424C440.169 34.64 440.105 34.8958 440.129 34.9998C440.153 35.0958 440.049 35.4796 439.889 35.8474C439.737 36.2153 439.489 36.903 439.353 37.3747C439.217 37.8465 438.937 38.6862 438.745 39.2379C438.553 39.7897 438.394 40.2615 438.402 40.2855C438.418 40.3734 438.265 40.8932 437.93 41.8608C437.626 42.7404 437.474 43.2681 437.138 44.6755L437.01 45.2033H443.551V94.4695H458.256V31.6413H449.756C443.119 31.6413 441.24 31.6893 441.184 31.8812M218.683 43.0043C219.362 43.4281 219.746 43.8519 220.146 44.6275L220.69 45.6751L220.642 51.8803L220.594 58.0856L220.042 59.0931C219.738 59.6449 219.45 60.0607 219.394 60.0047C219.346 59.9568 219.186 60.0367 219.034 60.1887C218.483 60.7404 217.299 60.9163 213.669 60.9963L209.99 61.0763V42.2926L213.877 42.3565L217.755 42.4205L218.683 42.9963M309.354 42.9563C309.906 43.2601 310.258 43.3721 310.266 43.2361C310.274 43.1162 310.33 43.1402 310.386 43.3001C310.442 43.4601 310.73 43.8919 311.01 44.2597C311.937 45.4672 311.969 45.7391 311.969 53.6476V61.0683H299.559V42.3086L304.005 42.3885C308.379 42.4685 308.467 42.4765 309.354 42.9723M167.801 43.1002C168.369 43.2042 169.04 43.3321 169.288 43.3801C169.536 43.4281 169.856 43.564 170.008 43.692C170.152 43.8119 170.272 43.8439 170.272 43.7559C170.272 43.668 170.4 43.7639 170.552 43.9718C170.704 44.1797 170.832 44.2757 170.84 44.2037C170.848 43.9558 171.543 44.7475 172.263 45.803L172.943 46.8186L172.895 63.0514C172.855 78.5406 172.831 79.3162 172.495 79.812C172.295 80.0999 172.191 80.3398 172.255 80.3398C172.439 80.3398 171.399 81.3393 170.584 81.947C169.512 82.7387 168.825 82.8666 165.066 82.9626L161.676 83.0506V42.9163H164.219C165.618 42.9163 167.225 43.0043 167.801 43.1082" fill="#454545"/>
<path fill-rule="evenodd" clip-rule="evenodd" d="M10.5985 19.3587C10.3586 19.6466 10.3747 19.6546 10.8145 19.4307C11.4542 19.0949 11.5021 19.0469 11.1583 19.0469C10.9983 19.0469 10.7425 19.1908 10.5985 19.3667M86.373 23.197C86.2771 23.357 86.5571 24.1966 86.709 24.1966C86.765 24.1966 86.7249 23.9887 86.629 23.7408C86.533 23.4849 86.509 23.229 86.573 23.1651C86.6369 23.1011 86.6369 23.0531 86.573 23.0531C86.509 23.0531 86.421 23.1171 86.373 23.197ZM347.402 30.8577C346.858 30.9776 354.247 30.9296 355.414 30.8097C355.726 30.7777 354.183 30.7457 351.976 30.7457C349.769 30.7457 347.713 30.7937 347.402 30.8577ZM356.094 30.7617C356.134 30.8017 356.646 30.8816 357.221 30.9376C357.901 31.0096 358.101 30.9856 357.797 30.8896C357.325 30.7297 355.942 30.6258 356.094 30.7617ZM377.372 30.8816C377.124 30.9856 377.332 31.0096 377.948 30.9376C378.476 30.8736 378.94 30.7937 378.98 30.7617C379.148 30.6178 377.74 30.7297 377.372 30.8816ZM379.667 30.8097C380.907 30.9376 385.457 30.9696 385.153 30.8497C384.977 30.7777 383.538 30.7297 381.962 30.7377C380.387 30.7457 379.356 30.7777 379.667 30.8097ZM0.0112305 37.2788C0.0112305 39.4858 0.0352823 40.3575 0.0752647 39.23C0.107251 38.0945 0.107251 36.2873 0.0752647 35.2157C0.0432788 34.1442 0.0112305 35.0718 0.0112305 37.2788ZM107.884 45.6831C107.884 46.3148 107.924 46.5467 107.964 46.2029C108.003 45.859 108.003 45.3472 107.964 45.0594C107.924 44.7715 107.884 45.0594 107.884 45.6831ZM127.163 46.0589C127.163 46.4827 127.203 46.6267 127.251 46.3948C127.299 46.1549 127.291 45.811 127.251 45.6271C127.203 45.4432 127.163 45.6351 127.171 46.0589M258.353 57.174C258.537 57.222 258.841 57.222 259.025 57.174C259.209 57.126 259.057 57.0861 258.689 57.0861C258.321 57.0861 258.169 57.126 258.353 57.174ZM260.272 57.182C260.776 57.222 261.551 57.222 261.991 57.182C262.431 57.142 262.024 57.1101 261.08 57.1101C260.136 57.1101 259.768 57.142 260.272 57.182ZM263.99 57.182C264.646 57.222 265.726 57.222 266.382 57.182C267.037 57.142 266.501 57.118 265.19 57.118C263.878 57.118 263.343 57.15 263.999 57.182M268.764 57.182C269.42 57.222 270.492 57.222 271.147 57.182C271.803 57.142 271.267 57.118 269.956 57.118C268.644 57.118 268.109 57.15 268.764 57.182ZM272.771 57.182C273.01 57.23 273.354 57.23 273.538 57.182C273.722 57.134 273.523 57.0941 273.107 57.1021C272.683 57.1021 272.539 57.142 272.771 57.19M274.962 57.166C275.266 57.254 275.298 57.7498 275.346 63.0274L275.401 68.7929V62.9715C275.393 57.294 275.386 57.15 275.01 57.1101C274.722 57.0781 274.706 57.0941 274.962 57.166ZM232.716 68.1292C233.38 68.577 233.756 68.7129 233.292 68.3291C233.028 68.1132 232.732 67.9373 232.62 67.9373C232.516 67.9373 232.556 68.0252 232.716 68.1292Z" fill="#454545"/>
<path fill-rule="evenodd" clip-rule="evenodd" d="M10.5985 19.3587C10.3586 19.6466 10.3747 19.6546 10.8145 19.4307C11.4542 19.0949 11.5021 19.0469 11.1583 19.0469C10.9983 19.0469 10.7425 19.1908 10.5985 19.3667M86.373 23.197C86.2771 23.357 86.5571 24.1966 86.709 24.1966C86.765 24.1966 86.7249 23.9887 86.629 23.7408C86.533 23.4849 86.509 23.229 86.573 23.1651C86.6369 23.1011 86.6369 23.0531 86.573 23.0531C86.509 23.0531 86.421 23.1171 86.373 23.197ZM347.402 30.8577C346.858 30.9776 354.247 30.9296 355.414 30.8097C355.726 30.7777 354.183 30.7457 351.976 30.7457C349.769 30.7457 347.713 30.7937 347.402 30.8577ZM356.094 30.7617C356.134 30.8017 356.646 30.8816 357.221 30.9376C357.901 31.0096 358.101 30.9856 357.797 30.8896C357.325 30.7297 355.942 30.6258 356.094 30.7617ZM377.372 30.8816C377.124 30.9856 377.332 31.0096 377.948 30.9376C378.476 30.8736 378.94 30.7937 378.98 30.7617C379.148 30.6178 377.74 30.7297 377.372 30.8816ZM379.667 30.8097C380.907 30.9376 385.457 30.9696 385.153 30.8497C384.977 30.7777 383.538 30.7297 381.962 30.7377C380.387 30.7457 379.356 30.7777 379.667 30.8097ZM0.0112305 37.2788C0.0112305 39.4858 0.0352823 40.3575 0.0752647 39.23C0.107251 38.0945 0.107251 36.2873 0.0752647 35.2157C0.0432788 34.1442 0.0112305 35.0718 0.0112305 37.2788ZM107.884 45.6831C107.884 46.3148 107.924 46.5467 107.964 46.2029C108.003 45.859 108.003 45.3472 107.964 45.0594C107.924 44.7715 107.884 45.0594 107.884 45.6831ZM127.163 46.0589C127.163 46.4827 127.203 46.6267 127.251 46.3948C127.299 46.1549 127.291 45.811 127.251 45.6271C127.203 45.4432 127.163 45.6351 127.171 46.0589M258.353 57.174C258.537 57.222 258.841 57.222 259.025 57.174C259.209 57.126 259.057 57.0861 258.689 57.0861C258.321 57.0861 258.169 57.126 258.353 57.174ZM260.272 57.182C260.776 57.222 261.551 57.222 261.991 57.182C262.431 57.142 262.024 57.1101 261.08 57.1101C260.136 57.1101 259.768 57.142 260.272 57.182ZM263.99 57.182C264.646 57.222 265.726 57.222 266.382 57.182C267.037 57.142 266.501 57.118 265.19 57.118C263.878 57.118 263.343 57.15 263.999 57.182M268.764 57.182C269.42 57.222 270.492 57.222 271.147 57.182C271.803 57.142 271.267 57.118 269.956 57.118C268.644 57.118 268.109 57.15 268.764 57.182ZM272.771 57.182C273.01 57.23 273.354 57.23 273.538 57.182C273.722 57.134 273.523 57.0941 273.107 57.1021C272.683 57.1021 272.539 57.142 272.771 57.19M274.962 57.166C275.266 57.254 275.298 57.7498 275.346 63.0274L275.401 68.7929V62.9715C275.393 57.294 275.386 57.15 275.01 57.1101C274.722 57.0781 274.706 57.0941 274.962 57.166ZM232.716 68.1292C233.38 68.577 233.756 68.7129 233.292 68.3291C233.028 68.1132 232.732 67.9373 232.62 67.9373C232.516 67.9373 232.556 68.0252 232.716 68.1292Z" fill="#454545"/>
<path fill-rule="evenodd" clip-rule="evenodd" d="M10.5985 19.3587C10.3586 19.6466 10.3747 19.6546 10.8145 19.4307C11.4542 19.0949 11.5021 19.0469 11.1583 19.0469C10.9983 19.0469 10.7425 19.1908 10.5985 19.3667M86.373 23.197C86.2771 23.357 86.5571 24.1966 86.709 24.1966C86.765 24.1966 86.7249 23.9887 86.629 23.7408C86.533 23.4849 86.509 23.229 86.573 23.1651C86.6369 23.1011 86.6369 23.0531 86.573 23.0531C86.509 23.0531 86.421 23.1171 86.373 23.197ZM347.402 30.8577C346.858 30.9776 354.247 30.9296 355.414 30.8097C355.726 30.7777 354.183 30.7457 351.976 30.7457C349.769 30.7457 347.713 30.7937 347.402 30.8577ZM356.094 30.7617C356.134 30.8017 356.646 30.8816 357.221 30.9376C357.901 31.0096 358.101 30.9856 357.797 30.8896C357.325 30.7297 355.942 30.6258 356.094 30.7617ZM377.372 30.8816C377.124 30.9856 377.332 31.0096 377.948 30.9376C378.476 30.8736 378.94 30.7937 378.98 30.7617C379.148 30.6178 377.74 30.7297 377.372 30.8816ZM379.667 30.8097C380.907 30.9376 385.457 30.9696 385.153 30.8497C384.977 30.7777 383.538 30.7297 381.962 30.7377C380.387 30.7457 379.356 30.7777 379.667 30.8097ZM0.0112305 37.2788C0.0112305 39.4858 0.0352823 40.3575 0.0752647 39.23C0.107251 38.0945 0.107251 36.2873 0.0752647 35.2157C0.0432788 34.1442 0.0112305 35.0718 0.0112305 37.2788ZM107.884 45.6831C107.884 46.3148 107.924 46.5467 107.964 46.2029C108.003 45.859 108.003 45.3472 107.964 45.0594C107.924 44.7715 107.884 45.0594 107.884 45.6831ZM127.163 46.0589C127.163 46.4827 127.203 46.6267 127.251 46.3948C127.299 46.1549 127.291 45.811 127.251 45.6271C127.203 45.4432 127.163 45.6351 127.171 46.0589M258.353 57.174C258.537 57.222 258.841 57.222 259.025 57.174C259.209 57.126 259.057 57.0861 258.689 57.0861C258.321 57.0861 258.169 57.126 258.353 57.174ZM260.272 57.182C260.776 57.222 261.551 57.222 261.991 57.182C262.431 57.142 262.024 57.1101 261.08 57.1101C260.136 57.1101 259.768 57.142 260.272 57.182ZM263.99 57.182C264.646 57.222 265.726 57.222 266.382 57.182C267.037 57.142 266.501 57.118 265.19 57.118C263.878 57.118 263.343 57.15 263.999 57.182M268.764 57.182C269.42 57.222 270.492 57.222 271.147 57.182C271.803 57.142 271.267 57.118 269.956 57.118C268.644 57.118 268.109 57.15 268.764 57.182ZM272.771 57.182C273.01 57.23 273.354 57.23 273.538 57.182C273.722 57.134 273.523 57.0941 273.107 57.1021C272.683 57.1021 272.539 57.142 272.771 57.19M274.962 57.166C275.266 57.254 275.298 57.7498 275.346 63.0274L275.401 68.7929V62.9715C275.393 57.294 275.386 57.15 275.01 57.1101C274.722 57.0781 274.706 57.0941 274.962 57.166ZM232.716 68.1292C233.38 68.577 233.756 68.7129 233.292 68.3291C233.028 68.1132 232.732 67.9373 232.62 67.9373C232.516 67.9373 232.556 68.0252 232.716 68.1292Z" fill="#454545"/>
<path fill-rule="evenodd" clip-rule="evenodd" d="M10.5985 19.3587C10.3586 19.6466 10.3747 19.6546 10.8145 19.4307C11.4542 19.0949 11.5021 19.0469 11.1583 19.0469C10.9983 19.0469 10.7425 19.1908 10.5985 19.3667M86.373 23.197C86.2771 23.357 86.5571 24.1966 86.709 24.1966C86.765 24.1966 86.7249 23.9887 86.629 23.7408C86.533 23.4849 86.509 23.229 86.573 23.1651C86.6369 23.1011 86.6369 23.0531 86.573 23.0531C86.509 23.0531 86.421 23.1171 86.373 23.197ZM347.402 30.8577C346.858 30.9776 354.247 30.9296 355.414 30.8097C355.726 30.7777 354.183 30.7457 351.976 30.7457C349.769 30.7457 347.713 30.7937 347.402 30.8577ZM356.094 30.7617C356.134 30.8017 356.646 30.8816 357.221 30.9376C357.901 31.0096 358.101 30.9856 357.797 30.8896C357.325 30.7297 355.942 30.6258 356.094 30.7617ZM377.372 30.8816C377.124 30.9856 377.332 31.0096 377.948 30.9376C378.476 30.8736 378.94 30.7937 378.98 30.7617C379.148 30.6178 377.74 30.7297 377.372 30.8816ZM379.667 30.8097C380.907 30.9376 385.457 30.9696 385.153 30.8497C384.977 30.7777 383.538 30.7297 381.962 30.7377C380.387 30.7457 379.356 30.7777 379.667 30.8097ZM0.0112305 37.2788C0.0112305 39.4858 0.0352823 40.3575 0.0752647 39.23C0.107251 38.0945 0.107251 36.2873 0.0752647 35.2157C0.0432788 34.1442 0.0112305 35.0718 0.0112305 37.2788ZM107.884 45.6831C107.884 46.3148 107.924 46.5467 107.964 46.2029C108.003 45.859 108.003 45.3472 107.964 45.0594C107.924 44.7715 107.884 45.0594 107.884 45.6831ZM127.163 46.0589C127.163 46.4827 127.203 46.6267 127.251 46.3948C127.299 46.1549 127.291 45.811 127.251 45.6271C127.203 45.4432 127.163 45.6351 127.171 46.0589M258.353 57.174C258.537 57.222 258.841 57.222 259.025 57.174C259.209 57.126 259.057 57.0861 258.689 57.0861C258.321 57.0861 258.169 57.126 258.353 57.174ZM260.272 57.182C260.776 57.222 261.551 57.222 261.991 57.182C262.431 57.142 262.024 57.1101 261.08 57.1101C260.136 57.1101 259.768 57.142 260.272 57.182ZM263.99 57.182C264.646 57.222 265.726 57.222 266.382 57.182C267.037 57.142 266.501 57.118 265.19 57.118C263.878 57.118 263.343 57.15 263.999 57.182M268.764 57.182C269.42 57.222 270.492 57.222 271.147 57.182C271.803 57.142 271.267 57.118 269.956 57.118C268.644 57.118 268.109 57.15 268.764 57.182ZM272.771 57.182C273.01 57.23 273.354 57.23 273.538 57.182C273.722 57.134 273.523 57.0941 273.107 57.1021C272.683 57.1021 272.539 57.142 272.771 57.19M274.962 57.166C275.266 57.254 275.298 57.7498 275.346 63.0274L275.401 68.7929V62.9715C275.393 57.294 275.386 57.15 275.01 57.1101C274.722 57.0781 274.706 57.0941 274.962 57.166ZM232.716 68.1292C233.38 68.577 233.756 68.7129 233.292 68.3291C233.028 68.1132 232.732 67.9373 232.62 67.9373C232.516 67.9373 232.556 68.0252 232.716 68.1292Z" fill="#454545"/>
</svg>
