<svg width="376" height="128" viewBox="0 0 376 128" fill="none" xmlns="http://www.w3.org/2000/svg">
<g clip-path="url(#clip0_2662_255)">
<path d="M160.285 65.2473C160.285 82.8567 146.509 95.8327 129.603 95.8327C112.696 95.8327 98.9206 82.8567 98.9206 65.2473C98.9206 47.5139 112.696 34.6619 129.603 34.6619C146.509 34.6619 160.285 47.5139 160.285 65.2473ZM146.853 65.2473C146.853 54.2432 138.869 46.7141 129.603 46.7141C120.336 46.7141 112.352 54.2432 112.352 65.2473C112.352 76.1411 120.336 83.7806 129.603 83.7806C138.869 83.7806 146.853 76.1273 146.853 65.2473ZM226.475 65.2473C226.475 82.8567 212.699 95.8327 195.793 95.8327C178.887 95.8327 165.111 82.8567 165.111 65.2473C165.111 47.5276 178.887 34.6619 195.793 34.6619C212.699 34.6619 226.475 47.5139 226.475 65.2473ZM213.044 65.2473C213.044 54.2432 205.059 46.7141 195.793 46.7141C186.526 46.7141 178.542 54.2432 178.542 65.2473C178.542 76.1411 186.526 83.7806 195.793 83.7806C205.059 83.7806 213.044 76.1273 213.044 65.2473ZM289.907 36.5097V91.4201C289.907 114.007 276.586 123.233 260.839 123.233C246.015 123.233 237.093 113.318 233.728 105.21L245.422 100.342C247.504 105.32 252.606 111.194 260.825 111.194C270.905 111.194 277.152 104.975 277.152 93.2679V88.869H276.683C273.677 92.5784 267.885 95.8189 260.577 95.8189C245.284 95.8189 231.274 82.4982 231.274 65.3576C231.274 48.093 245.284 34.6619 260.577 34.6619C267.871 34.6619 273.663 37.9025 276.683 41.5016H277.152V36.5235H289.907V36.5097ZM278.103 65.3576C278.103 54.5879 270.919 46.7141 261.776 46.7141C252.51 46.7141 244.746 54.5879 244.746 65.3576C244.746 76.017 252.51 83.7806 261.776 83.7806C270.919 83.7806 278.103 76.017 278.103 65.3576ZM310.936 4.32472V93.9573H297.836V4.32472H310.936ZM361.986 75.3138L372.41 82.2637C369.046 87.2418 360.938 95.8189 346.927 95.8189C329.552 95.8189 316.576 82.3878 316.576 65.2335C316.576 47.045 329.663 34.6481 345.424 34.6481C361.296 34.6481 369.06 47.2794 371.597 54.1053L372.99 57.5803L332.103 74.514C335.234 80.6504 340.101 83.7806 346.927 83.7806C353.767 83.7806 358.511 80.4159 361.986 75.3138ZM329.897 64.3096L357.228 52.9608C355.725 49.141 351.202 46.4796 345.879 46.4796C339.053 46.4796 329.552 52.5057 329.897 64.3096ZM49.3331 57.2907V44.3147H93.06C93.4875 46.5762 93.7081 49.2513 93.7081 52.1472C93.7081 61.8827 91.0467 73.921 82.4696 82.4982C74.1269 91.1856 63.4675 95.8189 49.3469 95.8189C23.1742 95.8189 1.16589 74.5002 1.16589 48.3274C1.16589 22.1547 23.1742 0.835938 49.3469 0.835938C63.826 0.835938 74.1406 6.51727 81.8904 13.9223L72.7341 23.0786C67.1769 17.8661 59.6477 13.812 49.3331 13.812C30.2207 13.812 15.2727 29.215 15.2727 48.3274C15.2727 67.4399 30.2207 82.8429 49.3331 82.8429C61.73 82.8429 68.7903 77.8648 73.3133 73.3418C76.9813 69.6738 79.3945 64.4337 80.346 57.2769L49.3331 57.2907Z" fill="white"/>
</g>
<defs>
<clipPath id="clip0_2662_255">
<rect width="375.078" height="126.865" fill="white" transform="translate(0.669678 0.187988)"/>
</clipPath>
</defs>
</svg>
