<svg width="641" height="101" viewBox="0 0 641 101" fill="none" xmlns="http://www.w3.org/2000/svg">
<g clip-path="url(#clip0_2662_407)">
<path d="M248.33 55.4929L239.843 54.7071C234.185 54.2356 231.984 52.1924 231.984 48.8918C231.984 44.8054 235.442 42.2907 242.043 42.2907C248.33 42.2907 251.473 44.9626 251.945 49.5205H271.905C270.648 36.3183 261.375 27.0454 242.515 27.0454C222.868 27.0454 212.024 37.1042 212.024 50.3063C212.024 62.7227 218.782 69.4809 235.599 70.8955L244.086 71.5241C250.687 71.9956 253.045 74.196 253.045 78.1252C253.045 82.2116 249.587 85.355 242.515 85.355C235.913 85.355 231.984 82.3688 231.356 77.1822H210.295C212.181 91.4846 222.24 100.758 242.515 100.758C262.161 100.758 273.162 90.6987 273.162 77.025C273.005 63.8229 265.776 57.0646 248.33 55.4929ZM179.176 27.0454C166.602 27.0454 159.215 33.6465 155.6 47.0058H154.343V28.1455H134.54V99.6574H155.6V58.0076C155.6 48.4203 160.472 43.2337 169.274 43.2337C178.075 43.2337 182.319 48.5775 182.319 57.8504V99.5002H203.38V54.2356C203.537 36.947 194.421 27.0454 179.176 27.0454ZM113.95 0.32666C106.721 0.32666 101.377 5.04172 101.377 12.2715C101.377 19.5013 106.721 24.2163 113.793 24.2163C120.866 24.2163 126.21 19.5013 126.21 12.2715C126.367 5.19889 121.023 0.32666 113.95 0.32666ZM124.481 28.1455H103.42V99.6574H124.481V28.1455ZM306.325 13.0573H292.809C292.337 24.5307 287.465 29.5601 276.463 30.5031V44.9626H285.107V76.3964C285.107 92.2704 294.066 100.758 312.14 100.758C315.441 100.758 318.899 100.286 322.199 99.5002V82.526C320.47 82.8403 318.741 82.9975 317.17 82.8403C309.626 82.8403 306.325 80.0112 306.325 71.9956V44.9626H324.871V28.1455H306.325V13.0573ZM640.937 44.9626V28.1455H622.392V13.0573H609.189C608.875 21.0729 606.517 25.6308 601.331 28.1455V76.3964C601.331 92.2704 610.29 100.758 628.364 100.758C631.665 100.758 635.122 100.286 638.423 99.5002V82.526C636.694 82.8403 634.965 82.9975 633.393 82.8403C625.849 82.8403 622.549 80.0112 622.549 71.9956V44.9626H640.937ZM571.783 48.106H570.526V28.1455H551.037V99.6574H572.098V60.9938C572.098 50.3063 576.97 45.7484 587.972 45.7484C589.858 45.7484 591.901 45.9056 594.73 46.3771V27.9884C592.844 27.3597 590.801 27.0454 588.757 27.0454C580.113 27.0454 574.298 31.9176 571.783 48.106ZM437.09 82.6831C427.188 82.6831 419.958 76.082 419.958 63.3514C419.958 52.0352 426.559 44.9626 436.775 44.9626C445.577 44.9626 450.449 49.8348 452.021 57.6933H473.396C471.352 39.3045 458.15 27.0454 437.09 27.0454C413.986 27.0454 398.74 42.7622 398.74 64.2944C398.74 86.6123 413.357 100.915 436.775 100.915C458.15 100.915 471.981 88.9699 473.867 69.7953H452.492C451.392 77.4966 446.048 82.6831 437.09 82.6831ZM361.334 27.0454C342.945 27.0454 331.944 36.004 329.9 52.1924H350.175C350.804 46.5343 354.419 43.7053 360.863 43.7053C367.307 43.7053 370.293 46.6915 370.293 50.935C370.293 54.3927 368.092 56.2788 362.277 57.3789L352.69 59.1078C335.716 62.2512 329.272 69.1666 329.272 80.3256C329.272 93.0563 338.23 100.915 350.647 100.915C360.705 100.915 367.307 96.1996 370.293 84.412H371.55V99.6574H391.511V52.9782C391.353 36.7898 381.766 27.0454 361.334 27.0454ZM358.977 86.4552C353.319 86.4552 350.018 83.469 350.018 78.9111C350.018 75.139 352.218 72.6243 357.876 71.367L361.806 70.424C365.263 69.6381 367.778 68.5379 370.293 66.4947V74.196C370.293 82.8403 365.735 86.4552 358.977 86.4552ZM511.273 27.0454C492.884 27.0454 481.883 36.004 479.839 52.1924H500.114C500.743 46.5343 504.358 43.7053 510.802 43.7053C517.246 43.7053 520.232 46.6915 520.232 50.935C520.232 54.3927 518.032 56.2788 512.216 57.3789L502.629 59.1078C485.655 62.2512 479.211 69.1666 479.211 80.3256C479.211 93.0563 488.169 100.915 500.586 100.915C510.645 100.915 517.246 96.1996 520.232 84.412H521.489V99.6574H541.45V52.9782C541.45 36.7898 531.705 27.0454 511.273 27.0454ZM508.916 86.4552C503.258 86.4552 499.957 83.469 499.957 78.9111C499.957 75.139 502.157 72.6243 507.815 71.367L511.745 70.424C515.202 69.6381 517.717 68.5379 520.232 66.4947V74.196C520.232 82.8403 515.674 86.4552 508.916 86.4552Z" fill="#454545"/>
<path d="M67.899 17.4565C63.4983 17.4565 60.5121 19.3425 57.683 23.4289L49.5102 35.2166V1.42529H29.707V35.2166L21.5342 23.4289C18.7052 19.3425 15.5618 17.4565 11.3182 17.4565C4.71713 17.4565 0.473575 22.3287 0.316406 28.3012C0.316406 33.3306 2.67394 36.7883 7.70334 39.9317L39.4514 60.3636L71.1995 39.9317C76.2289 36.6311 78.7436 33.3306 78.5865 28.3012C78.7436 22.3287 74.5001 17.4565 67.899 17.4565Z" fill="#454545"/>
<path d="M39.6094 65.2373C58.4697 65.2373 74.0294 79.3825 74.0294 99.6573H5.18945C5.18945 79.3825 20.7492 65.2373 39.6094 65.2373Z" fill="#454545"/>
</g>
<defs>
<clipPath id="clip0_2662_407">
<rect width="640.62" height="100.588" fill="white" transform="translate(0.318359 0.326172)"/>
</clipPath>
</defs>
</svg>
