<svg width="413" height="84" viewBox="0 0 413 84" fill="none" xmlns="http://www.w3.org/2000/svg">
<path d="M151.896 2.80859H167.498L194.026 50.7963L220.554 2.80863H235.818V81.6614H223.089V21.2267L199.827 63.075H187.887L164.625 21.2267V81.6614H151.896V2.80859Z" fill="#454545"/>
<path d="M276.876 83.0702C270.981 83.0702 265.799 81.7654 261.331 79.1557C256.862 76.546 253.38 72.9319 250.883 68.3135C248.386 63.6947 247.137 58.4003 247.138 52.4302C247.138 46.3851 248.358 41.0344 250.799 36.378C253.239 31.7226 256.628 28.0802 260.965 25.4509C265.302 22.8232 270.287 21.509 275.919 21.5083C281.513 21.5083 286.329 22.8318 290.366 25.4789C294.402 28.1267 297.509 31.8348 299.687 36.6031C301.865 41.3722 302.954 46.967 302.954 53.3877V56.8792H259.754C260.543 61.6864 262.486 65.4695 265.584 68.2285C268.682 70.9886 272.596 72.3684 277.327 72.3682C281.119 72.3682 284.386 71.805 287.127 70.6785C289.868 69.5521 292.44 67.8437 294.844 65.5534L301.602 73.8327C294.88 79.9915 286.638 83.0707 276.876 83.0702ZM286.17 36.2931C283.503 33.5712 280.011 32.21 275.694 32.2095C271.488 32.2095 267.968 33.599 265.133 36.378C262.298 39.1567 260.505 42.8928 259.754 47.5863H290.732C290.356 42.7799 288.836 39.0155 286.17 36.2931Z" fill="#454545"/>
<path d="M318.388 33.335H306.672V22.915H318.388V5.68018H330.666V22.915H348.464V33.335H330.666V59.7504C330.666 64.1433 331.417 67.2785 332.919 69.1562C334.42 71.0343 336.992 71.973 340.636 71.9723C342.249 71.9723 343.62 71.9066 344.747 71.7752C345.874 71.6443 347.113 71.4659 348.464 71.2401V81.5471C346.922 81.9933 345.35 82.3322 343.761 82.5614C341.943 82.8289 340.108 82.9607 338.27 82.9556C325.015 82.9556 318.387 75.7087 318.388 61.215V33.335Z" fill="#454545"/>
<path d="M412.449 81.6618H400.396V73.4386C398.255 76.5179 395.533 78.8929 392.229 80.5634C388.924 82.2336 385.17 83.0692 380.964 83.0702C375.783 83.0702 371.192 81.7464 367.193 79.0989C363.194 76.4518 360.049 72.8097 357.759 68.1725C355.468 63.535 354.323 58.2313 354.323 52.2612C354.323 46.2535 355.487 40.9401 357.816 36.3212C360.143 31.7032 363.363 28.0797 367.475 25.4509C371.586 22.8232 376.308 21.509 381.64 21.5083C385.658 21.5083 389.262 22.2876 392.454 23.8461C395.603 25.3692 398.33 27.6415 400.396 30.4638V22.9167H412.449V81.6618ZM400.171 43.4747C398.856 40.1328 396.781 37.4948 393.947 35.5608C391.111 33.6273 387.835 32.6605 384.118 32.6605C378.861 32.6605 374.674 34.4252 371.558 37.9547C368.441 41.4844 366.883 46.2532 366.884 52.2611C366.884 58.307 368.386 63.0945 371.389 66.6238C374.393 70.1534 378.467 71.9182 383.612 71.9179C387.404 71.9179 390.783 70.9416 393.75 68.9888C396.715 67.0373 398.856 64.4089 400.171 61.1037V43.4747Z" fill="#454545"/>
<path d="M90.3922 0.143555C80.1565 0.143555 72.1551 7.85293 64.9119 17.6462C54.9583 4.97272 46.6342 0.143555 36.6726 0.143555C16.3632 0.143555 0.802246 26.5743 0.802246 54.5497C0.802246 72.0558 9.27145 83.0973 23.4572 83.0973C33.6672 83.0973 41.0102 78.2838 54.0642 55.4651C54.0642 55.4651 59.5058 45.8556 63.2493 39.2362C64.5611 41.3541 65.9426 43.6363 67.394 46.0827L73.5155 56.3804C85.4398 76.3348 92.0837 83.0973 104.122 83.0973C117.942 83.0973 125.633 71.9049 125.633 54.0349C125.633 24.7436 109.721 0.143555 90.3922 0.143555ZM44.1098 49.2865C33.5261 65.8772 29.8646 69.5958 23.9721 69.5958C17.9079 69.5958 14.3037 64.272 14.3037 54.7786C14.3037 34.4692 24.4298 13.7022 36.5009 13.7022C43.0378 13.7022 48.5005 17.4774 56.8679 29.4562C48.9227 41.643 44.1098 49.2865 44.1098 49.2865ZM84.0544 47.1979L76.7354 34.9914C74.7547 31.7701 72.8512 28.8051 71.025 26.0963C77.6214 15.9149 83.0627 10.8417 89.5341 10.8417C102.978 10.8417 113.734 30.6362 113.734 54.9502C113.734 64.2182 110.698 69.5959 104.409 69.5959C98.3803 69.5958 95.5004 65.6145 84.0544 47.1979Z" fill="#454545"/>
</svg>
