<svg width="513" height="111" viewBox="0 0 513 111" fill="none" xmlns="http://www.w3.org/2000/svg">
<g clip-path="url(#clip0_2662_258)">
<path d="M181.141 63.9406L178.084 72.6016H177.83C177.32 70.6486 176.386 67.6767 174.858 64.1104L158.47 22.9282H142.421V88.565H153.035V48.0621C153.035 45.5148 153.035 42.6278 152.95 39.0615C152.866 37.2783 152.696 35.9197 152.611 34.9008H152.866C153.375 37.4481 153.969 39.3162 154.394 40.505L174.093 88.3952H181.566L201.095 40.0804C201.52 38.9766 201.944 36.7689 202.369 34.9008H202.624C202.369 39.7408 202.199 44.0713 202.114 46.7035V88.3103H213.408V22.7584H197.954L181.141 63.9406ZM224.106 41.2692H235.145V88.3103H224.106V41.2692ZM229.711 21.3998C227.843 21.3998 226.314 22.0791 225.04 23.2679C223.767 24.4567 223.087 25.9851 223.087 27.8531C223.087 29.6363 223.767 31.1647 225.04 32.3534C226.314 33.5422 227.843 34.1366 229.711 34.1366C231.579 34.1366 233.192 33.4573 234.381 32.3534C235.654 31.1647 236.334 29.6363 236.334 27.8531C236.334 26.07 235.654 24.5416 234.381 23.2679C233.277 22.0791 231.664 21.3998 229.711 21.3998ZM274.289 40.8446C272.251 40.4201 270.129 40.1653 268.091 40.1653C263.081 40.1653 258.496 41.2692 254.675 43.4769C250.854 45.6846 247.797 48.7414 245.844 52.5624C243.806 56.4684 242.787 60.9687 242.787 66.1483C242.787 70.6486 243.806 74.6395 245.759 78.2907C247.712 81.857 250.429 84.744 254.08 86.6969C257.562 88.6499 261.637 89.6688 266.223 89.6688C271.487 89.6688 275.987 88.565 279.554 86.5271L279.639 86.4422V76.2528L279.214 76.5924C277.601 77.7812 275.733 78.8001 273.865 79.3945C271.912 80.0738 270.129 80.4135 268.6 80.4135C264.185 80.4135 260.703 79.1398 258.241 76.3377C255.694 73.6205 254.42 69.8844 254.42 65.2143C254.42 60.3743 255.694 56.5533 258.326 53.7512C260.958 50.9491 264.439 49.5056 268.685 49.5056C272.251 49.5056 275.903 50.6944 279.214 53.0719L279.639 53.4115V42.6278L279.554 42.5428C278.11 41.9485 276.497 41.2692 274.289 40.8446ZM310.716 40.505C307.999 40.505 305.452 41.3541 303.244 43.1372C301.376 44.6656 300.102 46.8733 298.999 49.5056H298.914V41.2692H287.875V88.3103H298.914V64.2802C298.914 60.2045 299.763 56.808 301.631 54.3456C303.499 51.7982 305.876 50.5245 308.763 50.5245C309.782 50.5245 310.801 50.7793 312.075 50.9491C313.264 51.2888 314.113 51.6284 314.707 52.053L315.132 52.3926V41.3541L314.877 41.2692C314.113 40.7597 312.584 40.505 310.716 40.505ZM340.775 40.2502C333.048 40.2502 326.85 42.5429 322.519 47.0432C318.104 51.5435 315.981 57.742 315.981 65.5539C315.981 72.8563 318.189 78.8001 322.434 83.1306C326.68 87.3762 332.454 89.5839 339.671 89.5839C347.228 89.5839 353.257 87.2913 357.588 82.7061C362.003 78.1208 364.126 72.0072 364.126 64.4501C364.126 56.9778 362.088 51.034 357.927 46.7035C353.936 42.373 348.078 40.2502 340.775 40.2502ZM349.606 76.4226C347.568 79.0549 344.341 80.3286 340.351 80.3286C336.36 80.3286 333.133 79.0549 330.84 76.2528C328.548 73.6205 327.444 69.7995 327.444 64.9595C327.444 59.9497 328.633 56.1287 330.84 53.4115C333.133 50.6944 336.275 49.3358 340.266 49.3358C344.172 49.3358 347.228 50.6095 349.436 53.2417C351.644 55.874 352.833 59.695 352.833 64.7048C352.663 69.7995 351.729 73.7904 349.606 76.4226ZM388.75 60.7989C385.269 59.3554 383.061 58.2515 382.042 57.3175C381.193 56.4684 380.769 55.2796 380.769 53.7512C380.769 52.4775 381.278 51.2038 382.552 50.3547C383.825 49.5056 385.269 49.081 387.392 49.081C389.26 49.081 391.213 49.4207 393.081 49.9302C394.949 50.4396 396.647 51.2038 398.006 52.2228L398.43 52.5624V42.2032L398.175 42.1183C396.902 41.6088 395.204 41.0993 393.166 40.6748C391.128 40.3351 389.26 40.1653 387.731 40.1653C382.467 40.1653 378.136 41.439 374.74 44.2411C371.343 46.8733 369.73 50.4396 369.73 54.6003C369.73 56.808 370.07 58.761 370.834 60.3743C371.598 61.9876 372.702 63.516 374.23 64.7897C375.759 65.9785 377.966 67.3371 381.023 68.6107C383.571 69.7146 385.524 70.5637 386.712 71.243C387.901 71.9223 388.665 72.6865 389.26 73.2809C389.684 73.9602 389.939 74.8093 389.939 75.9131C389.939 79.0549 387.561 80.5833 382.721 80.5833C380.853 80.5833 378.9 80.2436 376.608 79.4794C374.315 78.7152 372.192 77.6114 370.409 76.3377L369.985 75.9981V86.7818L370.239 86.8668C371.853 87.631 373.806 88.1404 376.183 88.7348C378.561 89.1594 380.684 89.499 382.552 89.499C388.241 89.499 392.911 88.2253 396.222 85.4233C399.619 82.7061 401.402 79.2247 401.402 74.7244C401.402 71.5826 400.553 68.7806 398.685 66.6578C396.222 64.6199 393.166 62.4971 388.75 60.7989ZM430.527 40.2502C422.8 40.2502 416.601 42.5429 412.271 47.0432C407.94 51.5435 405.733 57.742 405.733 65.5539C405.733 72.8563 407.94 78.8001 412.186 83.1306C416.431 87.3762 422.205 89.5839 429.423 89.5839C436.98 89.5839 443.009 87.2913 447.339 82.7061C451.755 78.1208 453.878 72.0072 453.878 64.4501C453.878 56.9778 451.84 51.034 447.679 46.7035C443.688 42.373 437.829 40.2502 430.527 40.2502ZM439.273 76.4226C437.235 79.0549 434.008 80.3286 430.017 80.3286C425.942 80.3286 422.8 79.0549 420.507 76.2528C418.215 73.6205 417.111 69.7995 417.111 64.9595C417.111 59.9497 418.299 56.1287 420.507 53.4115C422.8 50.6944 425.942 49.3358 429.932 49.3358C433.753 49.3358 436.895 50.6095 439.103 53.2417C441.311 55.874 442.499 59.695 442.499 64.7048C442.499 69.7995 441.395 73.7904 439.273 76.4226ZM512.891 50.3547V41.2692H501.768V27.3437L501.428 27.4286L490.899 30.5703L490.644 30.6552V41.2692H474.002V35.3254C474.002 32.6082 474.681 30.4854 475.87 29.1268C477.058 27.7682 478.842 27.0889 481.049 27.0889C482.578 27.0889 484.191 27.4286 485.974 28.1928L486.399 28.4475V18.8525L486.144 18.7676C484.616 18.2581 482.578 17.9185 479.945 17.9185C476.634 17.9185 473.747 18.6827 471.115 19.9563C468.482 21.3998 466.529 23.3528 465.086 25.9851C463.642 28.5324 462.878 31.4194 462.878 34.731V41.2692H455.151V50.2698H462.878V88.3103H474.002V50.3547H490.644V74.5546C490.644 84.4892 495.314 89.499 504.655 89.499C506.183 89.499 507.796 89.2443 509.325 88.9895C510.938 88.6499 512.127 88.2253 512.806 87.8857L512.891 87.8008V78.7152L512.467 79.0549C511.787 79.4794 511.193 79.8191 510.174 80.0738C509.325 80.3286 508.561 80.4135 507.966 80.4135C505.759 80.4135 504.23 79.904 503.126 78.6303C502.107 77.4416 501.598 75.4886 501.598 72.6016V50.3547H512.891Z" fill="white"/>
<path d="M0.109375 0.852539H52.1602V52.9034H0.109375V0.852539Z" fill="white"/>
<path d="M57.5945 0.852539H109.645V52.9034H57.5945V0.852539Z" fill="white"/>
<path d="M0.109131 58.3369H52.16V110.388H0.109131V58.3369Z" fill="white"/>
<path d="M57.5945 58.3369H109.645V110.388H57.5945V58.3369Z" fill="white"/>
</g>
<defs>
<clipPath id="clip0_2662_258">
<rect width="512.867" height="109.536" fill="white" transform="translate(0.109375 0.852051)"/>
</clipPath>
</defs>
</svg>
