<svg width="394" height="107" viewBox="0 0 394 107" fill="none" xmlns="http://www.w3.org/2000/svg">
<g clip-path="url(#clip0_2662_370)">
<path d="M372.123 51.0849L393.125 106.728C386.969 105.883 380.693 104.676 374.417 103.711L362.588 72.9318L350.397 101.176C344.483 100.21 338.568 99.8481 332.533 99.1239L353.897 50.4814L334.585 0.51123H352.57L363.433 28.3931L375.02 0.51123H393.125L372.123 51.0849ZM320.463 0.51123H304.169V96.9513C309.479 97.3134 315.032 97.5548 320.463 98.1583V0.51123ZM290.167 95.8649C275.321 94.8993 260.475 93.9337 245.387 93.6923V0.51123H261.923V78.0012C271.459 78.2426 280.994 78.9668 290.167 79.4496V95.8649ZM227.644 38.2906V54.8266H204.952V92.606H188.537V0.51123H235.007V17.0473H204.952V38.1699L227.644 38.2906ZM160.655 17.0473V93.4509C155.103 93.4509 149.43 93.4509 143.999 93.6923V17.0473H126.859V0.51123H177.915V17.0473H160.655ZM108.995 55.6715C101.753 55.6715 93.0627 55.6715 86.907 56.0336V80.6566C96.6838 79.9324 106.34 79.2082 116.237 78.8461V94.7786L70.371 98.3997V0.51123H116.237V17.0473H86.907V39.3769C93.3041 39.3769 103.202 39.0148 108.995 39.0148V55.6715ZM17.0212 46.3776V104.314C11.1068 105.038 5.79599 105.883 0.123047 106.728V0.51123H15.9349L37.5403 60.8617V0.51123H54.1971V99.8481C48.2827 100.814 42.3684 101.176 36.0919 102.021L17.0212 46.3776Z" fill="#454545"/>
</g>
<defs>
<clipPath id="clip0_2662_370">
<rect width="393.002" height="106.217" fill="white" transform="translate(0.124023 0.512207)"/>
</clipPath>
</defs>
</svg>
