<svg width="310" height="91" viewBox="0 0 310 91" fill="none" xmlns="http://www.w3.org/2000/svg">
<g clip-path="url(#clip0_2662_362)">
<path d="M43.3075 28.6573L36.0803 45.8274C35.1611 45.3681 33.0056 44.8612 30.9611 44.8612C28.9166 44.8612 26.8562 45.3681 24.8751 46.3343C20.9446 48.3301 18.0442 52.3058 18.0442 58.0556V89.513H0.0556641V28.3088H17.5371V36.8939H17.8699C21.9748 31.4292 28.2351 27.3901 36.3656 27.3901C39.3294 27.406 42.1663 27.9762 43.3075 28.6573Z" fill="#454545"/>
<path d="M39.8362 59.0825C39.8362 41.3897 51.9606 27.4033 70.1235 27.4033C86.5747 27.4033 98.3505 39.4097 98.3505 56.2947C98.3505 59.2567 98.0652 62.0445 97.4471 64.7056H56.2398C58.1259 71.1364 63.6889 76.1418 72.0571 76.1418C76.6691 76.1418 83.2148 74.4944 86.7491 71.77L92.3279 85.1862C87.1453 88.7184 79.2367 90.4132 72.2948 90.4132C52.864 90.4291 39.8362 77.9158 39.8362 59.0825ZM55.8753 53.4436H81.7725C81.7725 45.5872 76.4156 41.4372 69.8699 41.4372C62.4843 41.453 57.4761 46.2208 55.8753 53.4436Z" fill="#454545"/>
<path d="M252.688 0.810059C258.726 0.810059 263.671 5.75201 263.671 11.7869C263.671 17.8218 258.726 22.7637 252.688 22.7637C246.649 22.7637 241.705 17.8218 241.705 11.7869C241.705 5.75201 246.649 0.810059 252.688 0.810059ZM261.674 89.5118H243.686V28.3076H261.674V89.5118Z" fill="#454545"/>
<path d="M148.244 1.91846L148.18 34.1204H147.832C142.887 29.4002 137.53 27.4677 130.525 27.4677C113.281 27.4677 101.838 41.3432 101.838 58.9252C101.838 76.5071 112.536 90.4301 129.954 90.4301C137.245 90.4301 144.123 87.9275 148.561 82.241H149.068V89.5273H166.201V1.91846H148.244ZM149.116 74.9232H148.513L144.504 70.7573C141.888 73.3709 138.322 74.9232 134.138 74.9232C125.326 74.9232 119.161 67.9537 119.161 58.9252C119.161 49.8966 125.326 42.9272 134.138 42.9272C142.95 42.9272 149.116 49.8966 149.116 58.9252V74.9232Z" fill="#454545"/>
<path d="M216.948 1.91846L216.884 34.1204H216.536C211.591 29.4002 206.234 27.4677 199.229 27.4677C181.985 27.4677 170.542 41.3432 170.542 58.9252C170.542 76.5071 181.24 90.4301 198.658 90.4301C205.949 90.4301 212.827 87.9275 217.265 82.241H217.772V89.5273H234.905V1.91846H216.948ZM217.708 74.9232H217.106L213.096 70.7573C210.481 73.3709 206.9 74.9232 202.731 74.9232C193.919 74.9232 187.754 67.9537 187.754 58.9252C187.754 49.8966 193.919 42.9272 202.731 42.9272C211.543 42.9272 217.708 49.8966 217.708 58.9252V74.9232Z" fill="#454545"/>
<path d="M296.558 28.3069H309.713V43.6079H296.558V89.5111H278.57V43.6079H265.479V28.3069H278.57V11.6753H296.558V28.3069Z" fill="#454545"/>
</g>
<defs>
<clipPath id="clip0_2662_362">
<rect width="309.641" height="89.6204" fill="white" transform="translate(0.0556641 0.810059)"/>
</clipPath>
</defs>
</svg>
