<svg width="257" height="180" viewBox="0 0 257 180" fill="none" xmlns="http://www.w3.org/2000/svg">
<g clip-path="url(#clip0_2662_308)">
<mask id="mask0_2662_308" style="mask-type:luminance" maskUnits="userSpaceOnUse" x="0" y="0" width="256" height="180">
<path d="M0.254883 0.46875H255.606V179.184H0.254883V0.46875Z" fill="white"/>
</mask>
<g mask="url(#mask0_2662_308)">
<path fill-rule="evenodd" clip-rule="evenodd" d="M106.483 19.9676C114.72 11.3865 126.189 6.06185 138.872 6.06185C155.731 6.06185 170.441 15.4631 178.273 29.4213C185.28 26.2903 192.87 24.6766 200.544 24.686C230.953 24.686 255.606 49.5536 255.606 80.231C255.606 110.908 230.953 135.777 200.544 135.777C196.831 135.777 193.205 135.403 189.697 134.696C182.801 146.998 169.653 155.311 154.567 155.311C148.465 155.32 142.442 153.933 136.957 151.258C129.966 167.708 113.671 179.241 94.6854 179.241C74.9098 179.241 58.0555 166.73 51.5906 149.183C48.7093 149.791 45.7723 150.097 42.8275 150.095C19.2832 150.095 0.198242 130.811 0.198242 107.022C0.198242 91.0783 8.77177 77.1585 21.5148 69.7121C18.8149 63.4952 17.4256 56.7884 17.4335 50.0106C17.4335 22.6505 39.6434 0.469727 67.0401 0.469727C83.1248 0.469727 97.42 8.11609 106.483 19.9676Z" fill="white"/>
</g>
<path fill-rule="evenodd" clip-rule="evenodd" d="M37.1899 93.1754C37.0294 93.5939 37.2471 93.6812 37.2987 93.7553C37.7783 94.1026 38.2653 94.3541 38.7571 94.6365C41.3612 96.0151 43.8227 96.4196 46.394 96.4196C51.6333 96.4196 54.8878 93.6343 54.8878 89.1486V89.0604C54.8878 84.9125 51.2138 83.4054 47.7707 82.3177L47.3212 82.1723C44.7246 81.3295 42.4836 80.6004 42.4836 78.8896V78.8023C42.4836 77.3374 43.7936 76.2611 45.8235 76.2611C48.0804 76.2611 50.7549 77.0109 52.4798 77.9634C52.4798 77.9634 52.9884 78.2918 53.1733 77.801C53.2737 77.5355 54.1455 75.1875 54.2384 74.9332C54.3379 74.6582 54.1633 74.4508 53.9841 74.3438C52.0143 73.1436 49.2938 72.3271 46.4776 72.3271L45.9548 72.329C41.1595 72.329 37.8111 75.2288 37.8111 79.3785V79.4677C37.8111 83.8408 41.5048 85.2625 44.9648 86.2507L45.5204 86.4234C48.0401 87.1966 50.2163 87.8648 50.2163 89.6375V89.7257C50.2163 91.3492 48.8021 92.5551 46.5245 92.5551C45.6414 92.5551 42.8224 92.5401 39.7762 90.6135C39.4074 90.3986 39.1972 90.2437 38.9128 90.0701C38.7627 89.9791 38.3873 89.8149 38.224 90.3066L37.1899 93.1754ZM113.888 93.1754C113.728 93.5939 113.945 93.6812 113.999 93.7553C114.476 94.1026 114.964 94.3541 115.455 94.6365C118.06 96.0151 120.522 96.4196 123.092 96.4196C128.332 96.4196 131.587 93.6343 131.587 89.1486V89.0604C131.587 84.9125 127.914 83.4054 124.47 82.3177L124.02 82.1723C121.424 81.3295 119.182 80.6004 119.182 78.8896V78.8023C119.182 77.3374 120.493 76.2611 122.524 76.2611C124.78 76.2611 127.453 77.0109 129.178 77.9634C129.178 77.9634 129.687 78.2918 129.872 77.801C129.972 77.5355 130.845 75.1875 130.937 74.9332C131.037 74.6582 130.862 74.4508 130.683 74.3438C128.713 73.1436 125.993 72.3271 123.177 72.3271L122.653 72.329C117.859 72.329 114.51 75.2288 114.51 79.3785V79.4677C114.51 83.8408 118.203 85.2625 121.664 86.2507L122.219 86.4234C124.739 87.1966 126.915 87.8648 126.915 89.6375V89.7257C126.915 91.3492 125.5 92.5551 123.225 92.5551C122.34 92.5551 119.521 92.5401 116.475 90.6135C116.107 90.3986 115.891 90.2503 115.611 90.0701C115.516 90.0101 115.074 89.8374 114.923 90.3066L113.888 93.1754ZM166.248 84.3879C166.248 86.9217 165.775 88.9224 164.846 90.3329C163.923 91.7311 162.529 92.4115 160.585 92.4115C158.642 92.4115 157.256 91.7321 156.348 90.3348C155.431 88.9234 154.965 86.9217 154.965 84.3879C154.965 81.856 155.431 79.8618 156.348 78.4654C157.256 77.0813 158.642 76.4093 160.585 76.4093C162.529 76.4093 163.923 77.0822 164.846 78.4664C165.777 79.8618 166.248 81.856 166.248 84.3879ZM170.623 79.6892C170.192 78.2355 169.523 76.9564 168.633 75.8894C167.74 74.8196 166.611 73.9591 165.273 73.336C163.937 72.7119 162.36 72.3957 160.585 72.3957C158.811 72.3957 157.233 72.7119 155.896 73.336C154.56 73.9591 153.43 74.8196 152.537 75.8913C151.648 76.9602 150.977 78.2374 150.548 79.6892C150.121 81.1315 149.904 82.7128 149.904 84.3879C149.904 86.0639 150.121 87.6461 150.548 89.0866C150.977 90.5375 151.646 91.8156 152.538 92.8864C153.431 93.958 154.564 94.8111 155.898 95.4192C157.236 96.0273 158.813 96.337 160.585 96.337C162.359 96.337 163.934 96.0273 165.271 95.4192C166.607 94.8111 167.738 93.958 168.633 92.8864C169.523 91.8194 170.192 90.5393 170.623 89.0866C171.049 87.6433 171.266 86.0621 171.266 84.3879C171.266 82.7147 171.049 81.1325 170.623 79.6892ZM206.534 91.733C206.39 91.3079 205.976 91.4684 205.976 91.4684C205.34 91.7114 204.665 91.9367 203.942 92.0493C203.214 92.1638 202.408 92.221 201.545 92.221C199.431 92.221 197.747 91.5913 196.544 90.347C195.337 89.1017 194.658 87.0897 194.666 84.3682C194.672 81.8945 195.271 80.0308 196.345 78.61C197.409 77.1986 199.034 76.4741 201.195 76.4741C203 76.4741 204.377 76.6834 205.819 77.1357C205.819 77.1357 206.161 77.2849 206.326 76.8335C206.71 75.7703 206.993 75.0139 207.402 73.8455C207.518 73.5124 207.233 73.3716 207.129 73.3313C206.562 73.1098 205.223 72.7466 204.212 72.5937C203.267 72.4491 202.163 72.3741 200.931 72.3741C199.094 72.3741 197.457 72.6884 196.056 73.3116C194.659 73.9338 193.474 74.7934 192.534 75.8622C191.595 76.933 190.88 78.2121 190.407 79.6629C189.933 81.1062 189.694 82.6903 189.694 84.3701C189.694 87.9971 190.673 90.9278 192.603 93.075C194.54 95.2296 197.445 96.3238 201.238 96.3238C203.478 96.3238 205.776 95.8706 207.431 95.2193C207.431 95.2193 207.746 95.0673 207.609 94.6994L206.534 91.733ZM214.186 81.9583C214.395 80.5497 214.781 79.3795 215.383 78.4654C216.29 77.0813 217.671 76.3183 219.615 76.3183C221.559 76.3183 222.84 77.0822 223.764 78.4664C224.374 79.3814 224.64 80.6004 224.744 81.9602L214.186 81.9583ZM228.909 78.8643C228.537 77.4623 227.619 76.0462 227.015 75.3986C226.063 74.372 225.13 73.6532 224.204 73.2562C222.863 72.6865 221.421 72.3938 219.965 72.3957C218.117 72.3957 216.438 72.7082 215.077 73.3463C213.713 73.9863 212.567 74.8609 211.669 75.9476C210.769 77.0334 210.094 78.3256 209.664 79.7915C209.232 81.2488 209.014 82.8376 209.014 84.5155C209.014 86.2216 209.24 87.8122 209.685 89.2424C210.135 90.6848 210.856 91.9507 211.831 93.0046C212.804 94.0622 214.057 94.8918 215.553 95.4699C217.043 96.047 218.852 96.3464 220.927 96.3398C225.204 96.3257 227.454 95.3723 228.383 94.8589C228.547 94.767 228.702 94.6084 228.508 94.1514L227.54 91.4412C227.392 91.0367 226.983 91.1831 226.983 91.1831C225.921 91.5791 224.419 92.2858 220.905 92.2783C218.61 92.2745 216.909 91.596 215.84 90.5365C214.747 89.4526 214.21 87.861 214.119 85.6126L228.92 85.6238C228.92 85.6238 229.311 85.6201 229.351 85.2391C229.367 85.0814 229.859 82.1985 228.909 78.8643ZM95.6252 81.9583C95.8345 80.5497 96.2211 79.3795 96.8217 78.4654C97.7301 77.0813 99.1096 76.3183 101.055 76.3183C102.999 76.3183 104.28 77.0822 105.204 78.4664C105.813 79.3814 106.079 80.6004 106.184 81.9602L95.6252 81.9583ZM110.348 78.8643C109.977 77.4623 109.058 76.0462 108.455 75.3986C107.503 74.372 106.571 73.6532 105.644 73.2562C104.303 72.6868 102.862 72.3941 101.405 72.3957C99.5573 72.3957 97.8784 72.7082 96.5167 73.3463C95.1532 73.9863 94.0074 74.8609 93.1074 75.9476C92.2093 77.0334 91.5346 78.3256 91.102 79.7915C90.6712 81.2488 90.4545 82.8376 90.4545 84.5155C90.4545 86.2216 90.6787 87.8122 91.1264 89.2424C91.5749 90.6848 92.2975 91.9507 93.2698 93.0046C94.2438 94.0622 95.4957 94.8918 96.9925 95.4699C98.4828 96.047 100.29 96.3464 102.367 96.3398C106.643 96.3257 108.894 95.3723 109.823 94.8589C109.986 94.767 110.142 94.6084 109.948 94.1514L108.98 91.4412C108.831 91.0367 108.422 91.1831 108.422 91.1831C107.361 91.5791 105.859 92.2858 102.344 92.2783C100.05 92.2745 98.3486 91.596 97.2797 90.5365C96.1873 89.4526 95.6496 87.861 95.5586 85.6126L110.361 85.6238C110.361 85.6238 110.751 85.6201 110.791 85.2391C110.807 85.0814 111.299 82.1985 110.348 78.8643ZM63.6274 91.6523C63.0466 91.1887 62.9658 91.0752 62.7735 90.7739C62.4797 90.3207 62.3296 89.675 62.3296 88.8483C62.3296 87.5485 62.7613 86.612 63.6509 85.9832C63.6415 85.9851 64.9272 84.874 67.9442 84.9134C69.2902 84.9373 70.633 85.0518 71.9635 85.256V91.9845H71.9654C71.9654 91.9845 70.0839 92.389 67.9658 92.5166C64.9553 92.6977 63.6181 91.6495 63.6274 91.6523ZM69.518 81.2488C68.9174 81.2047 68.1394 81.1832 67.2066 81.1832C65.9388 81.1832 64.7123 81.3408 63.5608 81.6505C62.4047 81.9621 61.3649 82.4444 60.4705 83.0835C59.5768 83.722 58.8418 84.5574 58.3225 85.5253C57.7979 86.5022 57.5304 87.6499 57.5304 88.9365C57.5304 90.2494 57.7585 91.3867 58.2089 92.3158C58.6496 93.2369 59.3131 94.0336 60.1393 94.6337C60.9623 95.2324 61.9777 95.6716 63.1554 95.94C64.3181 96.2056 65.6357 96.3398 67.0752 96.3398C68.5955 96.3398 70.1073 96.2122 71.5722 95.9654C72.82 95.7504 74.0631 95.5088 75.3006 95.2409C75.7942 95.1273 76.3385 94.9781 76.3385 94.9781C76.7045 94.8852 76.6764 94.4939 76.6764 94.4939L76.6679 80.956C76.6679 77.9868 75.8759 75.7872 74.3153 74.4208C72.7622 73.061 70.4752 72.3741 67.5163 72.3741C66.4052 72.3741 64.6203 72.5242 63.5486 72.7391C63.5486 72.7391 60.3166 73.366 58.9859 74.4086C58.9859 74.4086 58.6932 74.5888 58.8527 74.997L59.9009 77.8123C60.0314 78.1773 60.387 78.0525 60.387 78.0525C60.387 78.0525 60.4987 78.0084 60.6301 77.9305C63.4773 76.3821 67.0799 76.4281 67.0799 76.4281C68.679 76.4281 69.9112 76.7519 70.7389 77.3853C71.5469 78.0056 71.957 78.9394 71.957 80.9129V81.5388C70.6873 81.3549 69.518 81.2488 69.518 81.2488ZM188.92 73.6222C188.941 73.5727 188.952 73.5194 188.952 73.4655C188.953 73.4116 188.942 73.3582 188.921 73.3085C188.901 73.2588 188.87 73.2137 188.832 73.176C188.793 73.1383 188.747 73.1088 188.697 73.0892C188.445 72.9934 187.186 72.7279 186.216 72.6678C184.355 72.5514 183.324 72.8649 182.398 73.2815C181.481 73.6954 180.464 74.3645 179.898 75.1274L179.896 73.3219C179.896 73.0741 179.72 72.8743 179.471 72.8743H175.676C175.43 72.8743 175.251 73.0741 175.251 73.3219V95.4051C175.252 95.5243 175.299 95.6384 175.383 95.7227C175.468 95.8069 175.582 95.8544 175.701 95.8546H179.591C179.71 95.8544 179.824 95.8069 179.908 95.7226C179.992 95.6384 180.039 95.5242 180.039 95.4051V84.3738C180.039 82.892 180.203 81.4159 180.528 80.4878C180.849 79.569 181.285 78.8371 181.826 78.3106C182.338 77.8025 182.965 77.4252 183.654 77.2108C184.3 77.0255 184.968 76.9313 185.64 76.9311C186.414 76.9311 187.266 77.1301 187.266 77.1301C187.551 77.162 187.71 76.9874 187.807 76.7303C188.061 76.0537 188.782 74.0257 188.92 73.6222Z" fill="black"/>
<path fill-rule="evenodd" clip-rule="evenodd" d="M152.412 63.3914C151.932 63.2462 151.443 63.1303 150.949 63.0442C150.284 62.9332 149.611 62.8811 148.937 62.8884C146.26 62.8884 144.149 63.6448 142.667 65.1387C141.196 66.6215 140.194 68.8803 139.692 71.8523L139.511 72.8555H136.151C136.151 72.8555 135.741 72.8386 135.654 73.2862L135.102 76.3643C135.064 76.6589 135.191 76.8429 135.585 76.841H138.856L135.537 95.3685C135.277 96.8606 134.98 98.0881 134.65 99.0181C134.325 99.9359 134.008 100.624 133.618 101.123C133.24 101.606 132.881 101.962 132.263 102.169C131.752 102.341 131.165 102.42 130.521 102.42C130.163 102.42 129.686 102.36 129.334 102.289C128.982 102.22 128.799 102.141 128.535 102.03C128.535 102.03 128.151 101.884 128 102.269C127.877 102.583 127.006 104.981 126.902 105.277C126.797 105.57 126.945 105.801 127.13 105.868C127.566 106.023 127.89 106.123 128.483 106.263C129.307 106.457 130.001 106.469 130.651 106.469C132.014 106.469 133.256 106.278 134.285 105.906C135.321 105.532 136.223 104.88 137.021 103.996C137.883 103.044 138.425 102.046 138.944 100.686C139.458 99.3371 139.895 97.663 140.245 95.712L143.58 76.841H148.456C148.456 76.841 148.867 76.856 148.953 76.4103L149.505 73.3322C149.543 73.0375 149.417 72.8536 149.021 72.8555H144.289C144.312 72.7485 144.527 71.0837 145.071 69.5165C145.302 68.8474 145.739 68.3078 146.108 67.9371C146.454 67.5841 146.879 67.3195 147.348 67.1658C147.862 67.0067 148.399 66.9295 148.937 66.9368C149.383 66.9368 149.82 66.9903 150.153 67.0597C150.612 67.1573 150.79 67.2089 150.91 67.2446C151.393 67.3919 151.458 67.2493 151.552 67.0156L152.684 63.9075C152.8 63.5734 152.517 63.4327 152.412 63.3914ZM86.2767 95.4079C86.2767 95.6557 86.1003 95.8574 85.8525 95.8574H81.9271C81.6784 95.8574 81.502 95.6557 81.502 95.4079V63.8127C81.502 63.5659 81.6784 63.366 81.9271 63.366H85.8525C86.1003 63.366 86.2767 63.5659 86.2767 63.8127V95.4079Z" fill="black"/>
</g>
<defs>
<clipPath id="clip0_2662_308">
<rect width="256.192" height="179.241" fill="white" transform="translate(0.196289)"/>
</clipPath>
</defs>
</svg>
