<svg width="16" height="16" viewBox="0 0 16 16" fill="none" xmlns="http://www.w3.org/2000/svg">
<path opacity="0.6" d="M9.13066 10.705C9.13066 11.7845 8.66108 12.7602 7.91097 13.4249C7.26453 14.0104 6.41075 14.3641 5.47158 14.3641C3.45299 14.3641 1.8125 12.7236 1.8125 10.705C1.8125 9.02185 2.95901 7.59481 4.50802 7.17401C4.92882 8.23514 5.83139 9.05234 6.94741 9.35726C7.25233 9.44264 7.57555 9.48533 7.91097 9.48533C8.24638 9.48533 8.5696 9.44264 8.87453 9.35726C9.03919 9.77196 9.13066 10.2293 9.13066 10.705Z" fill="white"/>
<path d="M11.5682 5.8262C11.5682 6.30188 11.4767 6.75926 11.312 7.17396C10.8912 8.23509 9.98866 9.05229 8.87264 9.35721C8.56772 9.44259 8.2445 9.48528 7.90908 9.48528C7.57367 9.48528 7.25045 9.44259 6.94552 9.35721C5.8295 9.05229 4.92693 8.23509 4.50614 7.17396C4.34148 6.75926 4.25 6.30188 4.25 5.8262C4.25 3.8076 5.89049 2.16711 7.90908 2.16711C9.92767 2.16711 11.5682 3.8076 11.5682 5.8262Z" fill="white"/>
<path opacity="0.4" d="M14.0086 10.705C14.0086 12.7236 12.3681 14.3641 10.3495 14.3641C9.41038 14.3641 8.55659 14.0104 7.91016 13.4249C8.66027 12.7602 9.12985 11.7845 9.12985 10.705C9.12985 10.2293 9.03837 9.77196 8.87371 9.35726C9.98973 9.05234 10.8923 8.23514 11.3131 7.17401C12.8621 7.59481 14.0086 9.02185 14.0086 10.705Z" fill="white"/>
</svg>
