<svg width="26" height="26" viewBox="0 0 26 26" fill="none" xmlns="http://www.w3.org/2000/svg">
<path d="M21.9438 3.3418H9.06068C8.84713 3.3418 8.64232 3.42663 8.49132 3.57763C8.34032 3.72864 8.25549 3.93344 8.25549 4.14699V8.17297H4.22951C4.01596 8.17297 3.81116 8.2578 3.66015 8.4088C3.50915 8.55981 3.42432 8.76461 3.42432 8.97816V21.8613C3.42432 22.0748 3.50915 22.2796 3.66015 22.4306C3.81116 22.5816 4.01596 22.6665 4.22951 22.6665H17.1126C17.3262 22.6665 17.531 22.5816 17.682 22.4306C17.833 22.2796 17.9178 22.0748 17.9178 21.8613V17.8353H21.9438C22.1573 17.8353 22.3622 17.7505 22.5132 17.5995C22.6642 17.4485 22.749 17.2437 22.749 17.0301V4.14699C22.749 3.93344 22.6642 3.72864 22.5132 3.57763C22.3622 3.42663 22.1573 3.3418 21.9438 3.3418ZM16.3074 21.0561H5.03471V9.78336H16.3074V21.0561ZM21.1386 16.2249H17.9178V8.97816C17.9178 8.76461 17.833 8.55981 17.682 8.4088C17.531 8.2578 17.3262 8.17297 17.1126 8.17297H9.86587V4.95219H21.1386V16.2249Z" fill="#30EDE6"/>
</svg>
