<svg width="24" height="25" viewBox="0 0 24 25" fill="none" xmlns="http://www.w3.org/2000/svg">
<path d="M9.75 13.2326C9.75 13.4551 9.68402 13.6727 9.5604 13.8577C9.43679 14.0427 9.26109 14.1869 9.05552 14.272C8.84995 14.3572 8.62375 14.3794 8.40552 14.336C8.18729 14.2926 7.98684 14.1855 7.8295 14.0281C7.67217 13.8708 7.56502 13.6704 7.52162 13.4521C7.47821 13.2339 7.50049 13.0077 7.58564 12.8021C7.67078 12.5966 7.81498 12.4209 7.99998 12.2972C8.18499 12.1736 8.4025 12.1076 8.625 12.1076C8.92337 12.1076 9.20952 12.2262 9.4205 12.4372C9.63147 12.6481 9.75 12.9343 9.75 13.2326ZM15.375 12.1076C15.1525 12.1076 14.935 12.1736 14.75 12.2972C14.565 12.4209 14.4208 12.5966 14.3356 12.8021C14.2505 13.0077 14.2282 13.2339 14.2716 13.4521C14.315 13.6704 14.4222 13.8708 14.5795 14.0281C14.7368 14.1855 14.9373 14.2926 15.1555 14.336C15.3738 14.3794 15.6 14.3572 15.8055 14.272C16.0111 14.1869 16.1868 14.0427 16.3104 13.8577C16.434 13.6727 16.5 13.4551 16.5 13.2326C16.5 12.9343 16.3815 12.6481 16.1705 12.4372C15.9595 12.2262 15.6734 12.1076 15.375 12.1076ZM22.3547 18.192L16.0734 20.9773C15.8846 21.0613 15.6805 21.1058 15.4738 21.108C15.2672 21.1102 15.0622 21.0701 14.8716 20.9902C14.681 20.9103 14.5087 20.7923 14.3654 20.6433C14.222 20.4944 14.1107 20.3177 14.0381 20.1242L13.2778 18.0617C12.8578 18.0898 12.4319 18.1042 12 18.1048C11.5681 18.1055 11.1422 18.0911 10.7222 18.0617L9.96187 20.1242C9.88921 20.3177 9.77779 20.4942 9.63444 20.6431C9.49109 20.7919 9.31883 20.9099 9.12824 20.9898C8.93766 21.0697 8.73276 21.1098 8.52612 21.1076C8.31947 21.1055 8.11545 21.0612 7.92656 20.9773L1.64531 18.192C1.32111 18.0503 1.05777 17.798 0.902216 17.4802C0.746661 17.1624 0.708997 16.7997 0.795937 16.4567L3.5625 5.54515C3.63551 5.26137 3.78969 5.00505 4.00616 4.80756C4.22263 4.61008 4.49198 4.48001 4.78125 4.43327L8.16187 3.87733C8.53456 3.81739 8.91621 3.8982 9.23261 4.10406C9.54901 4.30991 9.77754 4.62608 9.87375 4.99108L10.1794 6.19483C10.775 6.13671 11.3819 6.10765 12 6.10765C12.6181 6.10765 13.2244 6.13671 13.8187 6.19483L14.1244 4.99108C14.2204 4.62597 14.4489 4.30966 14.7653 4.10378C15.0818 3.8979 15.4635 3.81717 15.8362 3.87733L19.2188 4.43327C19.508 4.48001 19.7774 4.61008 19.9938 4.80756C20.2103 5.00505 20.3645 5.26137 20.4375 5.54515L23.2059 16.4558C23.293 16.7991 23.2552 17.1622 23.0993 17.4803C22.9433 17.7983 22.6794 18.0506 22.3547 18.192ZM21.75 16.8214L18.9816 5.92015C18.9816 5.92015 18.9816 5.92015 18.9741 5.92015L15.5934 5.35765C15.591 5.35625 15.5883 5.35551 15.5855 5.35551C15.5827 5.35551 15.5799 5.35625 15.5775 5.35765L15.3122 6.40202C15.7809 6.49015 16.2497 6.59515 16.7025 6.72265C16.881 6.76815 17.0365 6.87777 17.1394 7.03061C17.2423 7.18344 17.2853 7.36879 17.2603 7.55131C17.2353 7.73383 17.1439 7.90076 17.0037 8.02025C16.8635 8.13974 16.6842 8.20344 16.5 8.19921C16.4315 8.19902 16.3634 8.18955 16.2975 8.17108C14.8968 7.79101 13.4513 7.60149 12 7.60765C10.5487 7.60118 9.10322 7.79039 7.7025 8.17015C7.60681 8.19973 7.50617 8.20984 7.40651 8.1999C7.30685 8.18996 7.2102 8.16015 7.12224 8.11225C7.03429 8.06434 6.95682 7.9993 6.89441 7.92097C6.832 7.84264 6.7859 7.75261 6.75885 7.65618C6.7318 7.55974 6.72434 7.45887 6.73691 7.35951C6.74947 7.26015 6.78181 7.16431 6.83202 7.07765C6.88222 6.99098 6.94928 6.91525 7.02922 6.85493C7.10917 6.7946 7.20039 6.7509 7.2975 6.7264C7.74937 6.5989 8.21438 6.4939 8.68687 6.40577L8.42156 5.35765C8.42156 5.35765 8.42156 5.35765 8.41031 5.35765L5.02594 5.91358C5.02318 5.91283 5.02026 5.91283 5.0175 5.91358L2.25 16.8261L8.53125 19.6076C8.53441 19.6094 8.53796 19.6103 8.54156 19.6103C8.54517 19.6103 8.54871 19.6094 8.55187 19.6076L9.1875 17.8939C8.55065 17.7965 7.92016 17.6612 7.29937 17.4889C7.11447 17.4298 6.95968 17.3013 6.86754 17.1305C6.77539 16.9597 6.75308 16.7597 6.80528 16.5728C6.85748 16.3858 6.98014 16.2264 7.14746 16.128C7.31478 16.0296 7.51374 15.9999 7.7025 16.0451C9.10313 16.4254 10.5487 16.6146 12 16.6076C13.4513 16.6146 14.8969 16.4254 16.2975 16.0451C16.4891 15.9914 16.6941 16.016 16.8676 16.1135C17.041 16.211 17.1686 16.3734 17.2223 16.565C17.2761 16.7566 17.2515 16.9616 17.154 17.1351C17.0565 17.3085 16.8941 17.4361 16.7025 17.4898C16.0811 17.6619 15.45 17.7969 14.8125 17.8939L15.4453 19.6076C15.4483 19.6093 15.4517 19.6101 15.4552 19.6101C15.4586 19.6101 15.462 19.6093 15.465 19.6076L21.75 16.8214Z" fill="white"/>
</svg>
