<svg width="24" height="25" viewBox="0 0 24 25" fill="none" xmlns="http://www.w3.org/2000/svg">
<path d="M9.75009 13.2326C9.75009 13.4551 9.68411 13.6727 9.56049 13.8577C9.43688 14.0427 9.26118 14.1869 9.05561 14.272C8.85004 14.3572 8.62384 14.3794 8.40561 14.336C8.18739 14.2926 7.98693 14.1855 7.8296 14.0281C7.67226 13.8708 7.56512 13.6704 7.52171 13.4521C7.4783 13.2339 7.50058 13.0077 7.58573 12.8021C7.67088 12.5966 7.81507 12.4209 8.00007 12.2972C8.18508 12.1736 8.40259 12.1076 8.62509 12.1076C8.92346 12.1076 9.20961 12.2262 9.42059 12.4372C9.63157 12.6481 9.75009 12.9343 9.75009 13.2326ZM15.3751 12.1076C15.1526 12.1076 14.9351 12.1736 14.7501 12.2972C14.5651 12.4209 14.4209 12.5966 14.3357 12.8021C14.2506 13.0077 14.2283 13.2339 14.2717 13.4521C14.3151 13.6704 14.4223 13.8708 14.5796 14.0281C14.7369 14.1855 14.9374 14.2926 15.1556 14.336C15.3738 14.3794 15.6 14.3572 15.8056 14.272C16.0112 14.1869 16.1869 14.0427 16.3105 13.8577C16.4341 13.6727 16.5001 13.4551 16.5001 13.2326C16.5001 12.9343 16.3816 12.6481 16.1706 12.4372C15.9596 12.2262 15.6735 12.1076 15.3751 12.1076ZM22.3548 18.192L16.0735 20.9773C15.8847 21.0613 15.6806 21.1058 15.4739 21.108C15.2673 21.1102 15.0623 21.0701 14.8717 20.9902C14.6811 20.9103 14.5088 20.7923 14.3655 20.6433C14.2221 20.4944 14.1108 20.3177 14.0382 20.1242L13.2779 18.0617C12.8579 18.0898 12.432 18.1042 12.0001 18.1048C11.5682 18.1055 11.1423 18.0911 10.7223 18.0617L9.96197 20.1242C9.8893 20.3177 9.77788 20.4942 9.63453 20.6431C9.49118 20.7919 9.31892 20.9099 9.12834 20.9898C8.93775 21.0697 8.73285 21.1098 8.52621 21.1076C8.31957 21.1055 8.11554 21.0612 7.92665 20.9773L1.6454 18.192C1.3212 18.0503 1.05786 17.798 0.902308 17.4802C0.746752 17.1624 0.709089 16.7997 0.796029 16.4567L3.56259 5.54515C3.6356 5.26137 3.78978 5.00505 4.00625 4.80756C4.22272 4.61008 4.49208 4.48001 4.78134 4.43327L8.16197 3.87733C8.53465 3.81739 8.9163 3.8982 9.2327 4.10406C9.5491 4.30991 9.77763 4.62608 9.87384 4.99108L10.1795 6.19483C10.7751 6.13671 11.382 6.10765 12.0001 6.10765C12.6182 6.10765 13.2245 6.13671 13.8188 6.19483L14.1245 4.99108C14.2205 4.62597 14.449 4.30966 14.7654 4.10378C15.0819 3.8979 15.4636 3.81717 15.8363 3.87733L19.2188 4.43327C19.5081 4.48001 19.7775 4.61008 19.9939 4.80756C20.2104 5.00505 20.3646 5.26137 20.4376 5.54515L23.206 16.4558C23.2931 16.7991 23.2553 17.1622 23.0993 17.4803C22.9434 17.7983 22.6795 18.0506 22.3548 18.192ZM21.7501 16.8214L18.9817 5.92015C18.9817 5.92015 18.9817 5.92015 18.9742 5.92015L15.5935 5.35765C15.5911 5.35625 15.5884 5.35551 15.5856 5.35551C15.5828 5.35551 15.58 5.35625 15.5776 5.35765L15.3123 6.40202C15.781 6.49015 16.2498 6.59515 16.7026 6.72265C16.8811 6.76815 17.0366 6.87777 17.1395 7.03061C17.2424 7.18344 17.2854 7.36879 17.2604 7.55131C17.2354 7.73383 17.144 7.90076 17.0038 8.02025C16.8636 8.13974 16.6843 8.20344 16.5001 8.19921C16.4316 8.19902 16.3635 8.18955 16.2976 8.17108C14.8969 7.79101 13.4514 7.60149 12.0001 7.60765C10.5488 7.60118 9.10331 7.79039 7.70259 8.17015C7.60691 8.19973 7.50626 8.20984 7.4066 8.1999C7.30695 8.18996 7.21029 8.16015 7.12233 8.11225C7.03438 8.06434 6.95691 7.9993 6.8945 7.92097C6.83209 7.84264 6.786 7.75261 6.75895 7.65618C6.73189 7.55974 6.72443 7.45887 6.737 7.35951C6.74956 7.26015 6.7819 7.16431 6.83211 7.07765C6.88231 6.99098 6.94937 6.91525 7.02931 6.85493C7.10926 6.7946 7.20048 6.7509 7.29759 6.7264C7.74947 6.5989 8.21447 6.4939 8.68697 6.40577L8.42165 5.35765C8.42165 5.35765 8.42165 5.35765 8.4104 5.35765L5.02603 5.91358C5.02327 5.91283 5.02035 5.91283 5.01759 5.91358L2.25009 16.8261L8.53134 19.6076C8.53451 19.6094 8.53805 19.6103 8.54165 19.6103C8.54526 19.6103 8.5488 19.6094 8.55197 19.6076L9.18759 17.8939C8.55074 17.7965 7.92025 17.6612 7.29947 17.4889C7.11456 17.4298 6.95977 17.3013 6.86763 17.1305C6.77548 16.9597 6.75317 16.7597 6.80537 16.5728C6.85757 16.3858 6.98023 16.2264 7.14755 16.128C7.31487 16.0296 7.51383 15.9999 7.70259 16.0451C9.10322 16.4254 10.5488 16.6146 12.0001 16.6076C13.4514 16.6146 14.897 16.4254 16.2976 16.0451C16.4892 15.9914 16.6942 16.016 16.8677 16.1135C17.0411 16.211 17.1687 16.3734 17.2224 16.565C17.2761 16.7566 17.2515 16.9616 17.1541 17.1351C17.0566 17.3085 16.8942 17.4361 16.7026 17.4898C16.0812 17.6619 15.4501 17.7969 14.8126 17.8939L15.4454 19.6076C15.4484 19.6093 15.4518 19.6101 15.4552 19.6101C15.4587 19.6101 15.4621 19.6093 15.4651 19.6076L21.7501 16.8214Z" fill="black"/>
</svg>
