<svg width="24" height="25" viewBox="0 0 24 25" fill="none" xmlns="http://www.w3.org/2000/svg">
<path d="M12 2.35742C10.0716 2.35742 8.18657 2.92925 6.58319 4.00059C4.97982 5.07194 3.73013 6.59468 2.99218 8.37626C2.25422 10.1578 2.06114 12.1182 2.43735 14.0096C2.81355 15.9009 3.74215 17.6382 5.10571 19.0017C6.46928 20.3653 8.20656 21.2939 10.0979 21.6701C11.9892 22.0463 13.9496 21.8532 15.7312 21.1152C17.5127 20.3773 19.0355 19.1276 20.1068 17.5242C21.1782 15.9209 21.75 14.0358 21.75 12.1074C21.7473 9.5224 20.7192 7.04403 18.8913 5.21615C17.0634 3.38826 14.585 2.36015 12 2.35742ZM12.75 20.3227V14.3574H15C15.1989 14.3574 15.3897 14.2784 15.5303 14.1378C15.671 13.9971 15.75 13.8063 15.75 13.6074C15.75 13.4085 15.671 13.2177 15.5303 13.0771C15.3897 12.9364 15.1989 12.8574 15 12.8574H12.75V10.6074C12.75 10.2096 12.908 9.82807 13.1893 9.54676C13.4706 9.26546 13.8522 9.10742 14.25 9.10742H15.75C15.9489 9.10742 16.1397 9.0284 16.2803 8.88775C16.421 8.7471 16.5 8.55633 16.5 8.35742C16.5 8.15851 16.421 7.96774 16.2803 7.82709C16.1397 7.68644 15.9489 7.60742 15.75 7.60742H14.25C13.4544 7.60742 12.6913 7.92349 12.1287 8.4861C11.5661 9.04871 11.25 9.81177 11.25 10.6074V12.8574H9C8.80109 12.8574 8.61033 12.9364 8.46967 13.0771C8.32902 13.2177 8.25 13.4085 8.25 13.6074C8.25 13.8063 8.32902 13.9971 8.46967 14.1378C8.61033 14.2784 8.80109 14.3574 9 14.3574H11.25V20.3227C9.13575 20.1297 7.17728 19.1291 5.78198 17.5289C4.38667 15.9288 3.66195 13.8524 3.75855 11.7315C3.85515 9.61066 4.76564 7.60869 6.30064 6.14202C7.83563 4.67535 9.87696 3.8569 12 3.8569C14.1231 3.8569 16.1644 4.67535 17.6994 6.14202C19.2344 7.60869 20.1449 9.61066 20.2415 11.7315C20.3381 13.8524 19.6133 15.9288 18.218 17.5289C16.8227 19.1291 14.8643 20.1297 12.75 20.3227Z" fill="#454545"/>
</svg>
