<svg width="20" height="20" viewBox="0 0 20 20" fill="none" xmlns="http://www.w3.org/2000/svg">
<path d="M10.1015 2.52539C8.59855 2.52539 7.12935 2.97107 5.87969 3.80606C4.63003 4.64106 3.65604 5.82787 3.08089 7.21641C2.50573 8.60496 2.35525 10.1329 2.64846 11.6069C2.94167 13.081 3.66541 14.435 4.72816 15.4978C5.7909 16.5605 7.14493 17.2843 8.619 17.5775C10.0931 17.8707 11.621 17.7202 13.0095 17.1451C14.3981 16.5699 15.5849 15.5959 16.4199 14.3463C17.2549 13.0966 17.7006 11.6274 17.7006 10.1244C17.6984 8.1097 16.8971 6.17809 15.4725 4.75345C14.0479 3.32881 12.1162 2.52752 10.1015 2.52539ZM10.686 16.5274V11.8781H12.4397C12.5947 11.8781 12.7434 11.8165 12.853 11.7069C12.9626 11.5972 13.0242 11.4486 13.0242 11.2935C13.0242 11.1385 12.9626 10.9898 12.853 10.8802C12.7434 10.7706 12.5947 10.709 12.4397 10.709H10.686V8.95536C10.686 8.6453 10.8092 8.34794 11.0285 8.12869C11.2477 7.90945 11.5451 7.78628 11.8551 7.78628H13.0242C13.1792 7.78628 13.3279 7.72469 13.4375 7.61507C13.5472 7.50544 13.6088 7.35676 13.6088 7.20173C13.6088 7.0467 13.5472 6.89802 13.4375 6.7884C13.3279 6.67878 13.1792 6.61719 13.0242 6.61719H11.8551C11.235 6.61719 10.6403 6.86353 10.2018 7.30202C9.7633 7.74052 9.51696 8.33524 9.51696 8.95536V10.709H7.76333C7.6083 10.709 7.45962 10.7706 7.35 10.8802C7.24037 10.9898 7.17879 11.1385 7.17879 11.2935C7.17879 11.4486 7.24037 11.5972 7.35 11.7069C7.45962 11.8165 7.6083 11.8781 7.76333 11.8781H9.51696V16.5274C7.86913 16.377 6.34272 15.5971 5.25523 14.3499C4.16774 13.1028 3.6029 11.4844 3.67819 9.83146C3.75348 8.17849 4.46311 6.61818 5.65947 5.47507C6.85583 4.33196 8.44682 3.69407 10.1015 3.69407C11.7562 3.69407 13.3472 4.33196 14.5435 5.47507C15.7399 6.61818 16.4495 8.17849 16.5248 9.83146C16.6001 11.4844 16.0353 13.1028 14.9478 14.3499C13.8603 15.5971 12.3339 16.377 10.686 16.5274Z" fill="white"/>
</svg>
