<svg width="205" height="150" viewBox="0 0 205 150" fill="none" xmlns="http://www.w3.org/2000/svg">
<g clip-path="url(#clip0_578_6619)">
<g opacity="0.1">
<path d="M161.794 18.2429V26.3278C158.67 26.3278 156.128 28.8746 156.128 32.0116V45.0393C156.128 52.057 150.429 57.7569 143.431 57.7569H125.786L130.629 49.6719H143.431C145.982 49.6719 148.056 47.5941 148.056 45.0393V32.0116C148.056 28.2116 149.598 24.7836 152.076 22.2853C149.598 19.7952 148.056 16.3591 148.056 12.5672V-0.658278C148.056 -3.20505 145.982 -5.28288 143.431 -5.28288L130.04 -5.28288C127.489 -5.28288 125.414 -3.20505 125.414 -0.658278L125.414 18.2429L137.296 18.2429V26.3278H125.414V45.0393C125.414 52.057 119.724 57.7569 112.725 57.7569H99.3342C92.3359 57.7569 86.6372 52.057 86.6372 45.0393L86.6372 32.0116C86.6372 28.8746 84.0945 26.3278 80.9707 26.3278V18.2429C84.0945 18.2429 86.6372 15.6961 86.6372 12.5672L86.6372 -0.658278C86.6372 -7.66795 92.3359 -13.3679 99.3342 -13.3679L116.979 -13.3679L112.136 -5.28288L99.3342 -5.28288C96.7835 -5.28288 94.709 -3.20505 94.709 -0.658278L94.709 12.5672C94.709 16.3591 93.1673 19.7952 90.6892 22.2853C93.1673 24.7836 94.709 28.2116 94.709 32.0116L94.709 45.0393C94.709 47.5941 96.7835 49.6719 99.3342 49.6719L112.725 49.6719C115.268 49.6719 117.343 47.5941 117.343 45.0393L117.343 -0.658278C117.343 -7.66795 123.041 -13.3679 130.04 -13.3679L143.431 -13.3679C150.429 -13.3679 156.128 -7.66795 156.128 -0.658278V12.5672C156.128 15.6961 158.67 18.2429 161.794 18.2429Z" fill="white"/>
<path d="M80.9662 62.8667V70.9517C77.8424 70.9517 75.2997 73.4984 75.2997 76.6354V89.6631C75.2997 96.6809 69.601 102.381 62.6027 102.381H44.9576L49.8007 94.2958H62.6027C65.1534 94.2958 67.2279 92.2179 67.2279 89.6631V76.6354C67.2279 72.8355 68.7696 69.4074 71.2477 66.9092C68.7696 64.419 67.2279 60.9829 67.2279 57.191V43.9656C67.2279 41.4188 65.1534 39.341 62.6027 39.341L49.2115 39.341C46.6607 39.341 44.5863 41.4188 44.5863 43.9656L44.5863 62.8667L56.4681 62.8667V70.9517H44.5863V89.6631C44.5863 96.6809 38.8956 102.381 31.8973 102.381H18.5061C11.5078 102.381 5.80903 96.6809 5.80903 89.6631L5.80903 76.6354C5.80903 73.4984 3.26639 70.9517 0.142578 70.9517L0.142578 62.8667C3.26639 62.8667 5.80903 60.3199 5.80903 57.191L5.80903 43.9656C5.80903 36.9559 11.5078 31.256 18.5061 31.256L36.1512 31.256L31.3081 39.341L18.5061 39.341C15.9554 39.341 13.8809 41.4188 13.8809 43.9656L13.8809 57.191C13.8809 60.9829 12.3392 64.419 9.86111 66.9092C12.3392 69.4074 13.8809 72.8355 13.8809 76.6354L13.8809 89.6631C13.8809 92.2179 15.9554 94.2958 18.5061 94.2958H31.8973C34.4399 94.2958 36.5144 92.2179 36.5144 89.6631L36.5144 43.9656C36.5144 36.9559 42.2132 31.256 49.2115 31.256L62.6027 31.256C69.601 31.256 75.2997 36.9559 75.2997 43.9656V57.191C75.2997 60.3199 77.8424 62.8667 80.9662 62.8667Z" fill="white"/>
<path d="M80.9662 143.695V151.78C77.8424 151.78 75.2997 154.327 75.2997 157.464V170.491C75.2997 177.509 69.601 183.209 62.6027 183.209H44.9576L49.8007 175.124H62.6027C65.1534 175.124 67.2279 173.046 67.2279 170.491V157.464C67.2279 153.664 68.7696 150.236 71.2477 147.737C68.7696 145.247 67.2279 141.811 67.2279 138.019V124.794C67.2279 122.247 65.1534 120.169 62.6027 120.169L49.2115 120.169C46.6607 120.169 44.5863 122.247 44.5863 124.794L44.5863 143.695H56.4681V151.78H44.5863V170.491C44.5863 177.509 38.8956 183.209 31.8973 183.209H18.5061C11.5078 183.209 5.80903 177.509 5.80903 170.491L5.80903 157.464C5.80903 154.327 3.26639 151.78 0.142578 151.78L0.142578 143.695C3.26639 143.695 5.80903 141.148 5.80903 138.019L5.80903 124.794C5.80903 117.784 11.5078 112.084 18.5061 112.084H36.1512L31.3081 120.169H18.5061C15.9554 120.169 13.8809 122.247 13.8809 124.794L13.8809 138.019C13.8809 141.811 12.3392 145.247 9.86111 147.737C12.3392 150.236 13.8809 153.664 13.8809 157.464L13.8809 170.491C13.8809 173.046 15.9554 175.124 18.5061 175.124H31.8973C34.4399 175.124 36.5144 173.046 36.5144 170.491L36.5144 124.794C36.5144 117.784 42.2132 112.084 49.2115 112.084H62.6027C69.601 112.084 75.2997 117.784 75.2997 124.794V138.019C75.2997 141.148 77.8424 143.695 80.9662 143.695Z" fill="white"/>
<path d="M239.254 143.695V151.78C236.13 151.78 233.588 154.327 233.588 157.464V170.491C233.588 177.509 227.889 183.209 220.891 183.209H203.246L208.089 175.124H220.891C223.441 175.124 225.516 173.046 225.516 170.491V157.464C225.516 153.664 227.058 150.236 229.536 147.737C227.058 145.247 225.516 141.811 225.516 138.019V124.794C225.516 122.247 223.441 120.169 220.891 120.169L207.5 120.169C204.949 120.169 202.874 122.247 202.874 124.794L202.874 143.695H214.756V151.78H202.874V170.491C202.874 177.509 197.184 183.209 190.185 183.209H176.794C169.796 183.209 164.097 177.509 164.097 170.491V157.464C164.097 154.327 161.554 151.78 158.431 151.78V143.695C161.554 143.695 164.097 141.148 164.097 138.019L164.097 124.794C164.097 117.784 169.796 112.084 176.794 112.084H194.439L189.596 120.169H176.794C174.243 120.169 172.169 122.247 172.169 124.794L172.169 138.019C172.169 141.811 170.627 145.247 168.149 147.737C170.627 150.236 172.169 153.664 172.169 157.464V170.491C172.169 173.046 174.243 175.124 176.794 175.124H190.185C192.728 175.124 194.803 173.046 194.803 170.491L194.802 124.794C194.802 117.784 200.501 112.084 207.5 112.084H220.891C227.889 112.084 233.588 117.784 233.588 124.794V138.019C233.588 141.148 236.13 143.695 239.254 143.695Z" fill="white"/>
<path d="M239.254 62.8667V70.9517C236.13 70.9517 233.588 73.4984 233.588 76.6354V89.6631C233.588 96.6809 227.889 102.381 220.891 102.381H203.246L208.089 94.2958H220.891C223.441 94.2958 225.516 92.2179 225.516 89.6631V76.6354C225.516 72.8355 227.058 69.4074 229.536 66.9092C227.058 64.419 225.516 60.9829 225.516 57.191V43.9656C225.516 41.4188 223.441 39.341 220.891 39.341L207.5 39.341C204.949 39.341 202.874 41.4188 202.874 43.9656L202.874 62.8667L214.756 62.8667V70.9517H202.874V89.6631C202.874 96.6809 197.184 102.381 190.185 102.381H176.794C169.796 102.381 164.097 96.6809 164.097 89.6631V76.6354C164.097 73.4984 161.554 70.9517 158.431 70.9517V62.8667C161.554 62.8667 164.097 60.3199 164.097 57.191L164.097 43.9656C164.097 36.9559 169.796 31.256 176.794 31.256L194.439 31.256L189.596 39.341L176.794 39.341C174.243 39.341 172.169 41.4188 172.169 43.9656L172.169 57.191C172.169 60.9829 170.627 64.419 168.149 66.9092C170.627 69.4074 172.169 72.8355 172.169 76.6354V89.6631C172.169 92.2179 174.243 94.2958 176.794 94.2958H190.185C192.728 94.2958 194.803 92.2179 194.803 89.6631L194.802 43.9656C194.802 36.9559 200.501 31.256 207.5 31.256L220.891 31.256C227.889 31.256 233.588 36.9559 233.588 43.9656V57.191C233.588 60.3199 236.13 62.8667 239.254 62.8667Z" fill="white"/>
<path d="M239.254 -17.1195V-9.03448C236.13 -9.03448 233.588 -6.48771 233.588 -3.35074V9.67695C233.588 16.6947 227.889 22.3946 220.891 22.3946H203.246L208.089 14.3096H220.891C223.441 14.3096 225.516 12.2318 225.516 9.67695V-3.35074C225.516 -7.15068 227.058 -10.5787 229.536 -13.077C227.058 -15.5671 225.516 -19.0033 225.516 -22.7951V-36.0206C225.516 -38.5674 223.441 -40.6452 220.891 -40.6452L207.5 -40.6452C204.949 -40.6452 202.874 -38.5674 202.874 -36.0206L202.874 -17.1195L214.756 -17.1195V-9.03448H202.874V9.67695C202.874 16.6947 197.184 22.3946 190.185 22.3946H176.794C169.796 22.3946 164.097 16.6947 164.097 9.67695V-3.35074C164.097 -6.48771 161.554 -9.03448 158.431 -9.03448V-17.1195C161.554 -17.1195 164.097 -19.6662 164.097 -22.7951L164.097 -36.0206C164.097 -43.0303 169.796 -48.7302 176.794 -48.7302L194.439 -48.7302L189.596 -40.6452L176.794 -40.6452C174.243 -40.6452 172.169 -38.5674 172.169 -36.0206L172.169 -22.7951C172.169 -19.0033 170.627 -15.5671 168.149 -13.077C170.627 -10.5787 172.169 -7.15068 172.169 -3.35074V9.67695C172.169 12.2318 174.243 14.3096 176.794 14.3096L190.185 14.3096C192.728 14.3096 194.803 12.2318 194.803 9.67695L194.802 -36.0206C194.802 -43.0303 200.501 -48.7302 207.5 -48.7302H220.891C227.889 -48.7302 233.588 -43.0303 233.588 -36.0206V-22.7951C233.588 -19.6662 236.13 -17.1195 239.254 -17.1195Z" fill="white"/>
<path d="M80.9662 -17.1195V-9.03448C77.8424 -9.03448 75.2997 -6.48771 75.2997 -3.35074V9.67695C75.2997 16.6947 69.601 22.3946 62.6027 22.3946H44.9576L49.8007 14.3096H62.6027C65.1534 14.3096 67.2279 12.2318 67.2279 9.67695V-3.35074C67.2279 -7.15068 68.7696 -10.5787 71.2477 -13.077C68.7696 -15.5671 67.2279 -19.0033 67.2279 -22.7951V-36.0206C67.2279 -38.5674 65.1534 -40.6452 62.6027 -40.6452L49.2115 -40.6452C46.6607 -40.6452 44.5863 -38.5674 44.5863 -36.0206L44.5863 -17.1195L56.4681 -17.1195V-9.03448H44.5863V9.67695C44.5863 16.6947 38.8956 22.3946 31.8973 22.3946H18.5061C11.5078 22.3946 5.80903 16.6947 5.80903 9.67695L5.80903 -3.35074C5.80903 -6.48771 3.26639 -9.03448 0.142578 -9.03448L0.142578 -17.1195C3.26639 -17.1195 5.80903 -19.6662 5.80903 -22.7951L5.80903 -36.0206C5.80903 -43.0303 11.5078 -48.7302 18.5061 -48.7302L36.1512 -48.7302L31.3081 -40.6452L18.5061 -40.6452C15.9554 -40.6452 13.8809 -38.5674 13.8809 -36.0206L13.8809 -22.7951C13.8809 -19.0033 12.3392 -15.5671 9.86111 -13.077C12.3392 -10.5787 13.8809 -7.15068 13.8809 -3.35074L13.8809 9.67695C13.8809 12.2318 15.9554 14.3096 18.5061 14.3096L31.8973 14.3096C34.4399 14.3096 36.5144 12.2318 36.5144 9.67695L36.5144 -36.0206C36.5144 -43.0303 42.2132 -48.7302 49.2115 -48.7302H62.6027C69.601 -48.7302 75.2997 -43.0303 75.2997 -36.0206V-22.7951C75.2997 -19.6662 77.8424 -17.1195 80.9662 -17.1195Z" fill="white"/>
<path d="M160.953 179.057V187.142C157.829 187.142 155.286 189.689 155.286 192.826V205.853C155.286 212.871 149.587 218.571 142.589 218.571H124.944L129.787 210.486H142.589C145.14 210.486 147.214 208.408 147.214 205.853V192.826C147.214 189.026 148.756 185.598 151.234 183.1C148.756 180.609 147.214 177.173 147.214 173.381V160.156C147.214 157.609 145.14 155.531 142.589 155.531H129.198C126.647 155.531 124.573 157.609 124.573 160.156L124.573 179.057H136.454V187.142H124.573V205.853C124.573 212.871 118.882 218.571 111.884 218.571H98.4924C91.4941 218.571 85.7954 212.871 85.7954 205.853L85.7954 192.826C85.7954 189.689 83.2527 187.142 80.1289 187.142V179.057C83.2527 179.057 85.7954 176.51 85.7954 173.381L85.7954 160.156C85.7954 153.146 91.4941 147.446 98.4924 147.446H116.138L111.294 155.531H98.4924C95.9417 155.531 93.8672 157.609 93.8672 160.156L93.8672 173.381C93.8672 177.173 92.3255 180.609 89.8474 183.1C92.3255 185.598 93.8672 189.026 93.8672 192.826L93.8672 205.853C93.8672 208.408 95.9417 210.486 98.4924 210.486H111.884C114.426 210.486 116.501 208.408 116.501 205.853L116.501 160.156C116.501 153.146 122.199 147.446 129.198 147.446H142.589C149.587 147.446 155.286 153.146 155.286 160.156V173.381C155.286 176.51 157.829 179.057 160.953 179.057Z" fill="white"/>
<path d="M161.794 100.755V108.84C158.67 108.84 156.128 111.387 156.128 114.524V127.551C156.128 134.569 150.429 140.269 143.431 140.269H125.786L130.629 132.184H143.431C145.982 132.184 148.056 130.106 148.056 127.551V114.524C148.056 110.724 149.598 107.296 152.076 104.797C149.598 102.307 148.056 98.8711 148.056 95.0792V81.8537C148.056 79.307 145.982 77.2291 143.431 77.2291L130.04 77.2291C127.489 77.2291 125.414 79.307 125.414 81.8537L125.414 100.755L137.296 100.755V108.84H125.414V127.551C125.414 134.569 119.724 140.269 112.725 140.269H99.3342C92.3359 140.269 86.6372 134.569 86.6372 127.551L86.6372 114.524C86.6372 111.387 84.0945 108.84 80.9707 108.84V100.755C84.0945 100.755 86.6372 98.2081 86.6372 95.0792L86.6372 81.8537C86.6372 74.8441 92.3359 69.1442 99.3342 69.1442H116.979L112.136 77.2291H99.3342C96.7835 77.2291 94.709 79.307 94.709 81.8537L94.709 95.0792C94.709 98.8711 93.1673 102.307 90.6892 104.797C93.1673 107.296 94.709 110.724 94.709 114.524L94.709 127.551C94.709 130.106 96.7835 132.184 99.3342 132.184H112.725C115.268 132.184 117.343 130.106 117.343 127.551L117.343 81.8537C117.343 74.8441 123.041 69.1442 130.04 69.1442H143.431C150.429 69.1442 156.128 74.8441 156.128 81.8537V95.0792C156.128 98.2081 158.67 100.755 161.794 100.755Z" fill="white"/>
</g>
</g>
<defs>
<clipPath id="clip0_578_6619">
<rect width="204.596" height="148.185" fill="white" transform="translate(0.142578 0.945435)"/>
</clipPath>
</defs>
</svg>
