<svg width="73" height="73" viewBox="0 0 73 73" fill="none" xmlns="http://www.w3.org/2000/svg">
<mask id="path-1-inside-1_1735_2721" fill="white">
<path d="M36.3476 23.1497C33.7012 23.1497 31.1142 23.9344 28.9138 25.4047C26.7134 26.875 24.9983 28.9647 23.9856 31.4097C22.9729 33.8547 22.7079 36.5451 23.2242 39.1406C23.7405 41.7362 25.0148 44.1204 26.8861 45.9917C28.7574 47.863 31.1416 49.1373 33.7372 49.6536C36.3328 50.1699 39.0231 49.9049 41.4681 48.8922C43.9131 47.8795 46.0028 46.1645 47.4731 43.964C48.9434 41.7636 49.7281 39.1766 49.7281 36.5302C49.7244 32.9826 48.3135 29.5814 45.805 27.0728C43.2964 24.5643 39.8952 23.1534 36.3476 23.1497ZM36.3476 45.4506C34.5833 45.4506 32.8587 44.9274 31.3917 43.9472C29.9248 42.967 28.7814 41.5739 28.1063 39.9439C27.4311 38.3139 27.2544 36.5203 27.5986 34.7899C27.9428 33.0596 28.7924 31.4701 30.0399 30.2226C31.2875 28.975 32.8769 28.1255 34.6073 27.7813C36.3377 27.4371 38.1313 27.6137 39.7613 28.2889C41.3912 28.964 42.7844 30.1074 43.7646 31.5743C44.7448 33.0413 45.2679 34.7659 45.2679 36.5302C45.2679 38.896 44.3281 41.165 42.6552 42.8379C40.9823 44.5107 38.7134 45.4506 36.3476 45.4506ZM60.8786 37.1323C60.8897 36.7309 60.8897 36.3295 60.8786 35.9281L65.0377 30.732C65.2558 30.4592 65.4067 30.1389 65.4784 29.7971C65.55 29.4553 65.5404 29.1014 65.4502 28.7639C64.7684 26.201 63.7485 23.7402 62.4173 21.4464C62.243 21.1463 62.0011 20.8909 61.7107 20.7007C61.4203 20.5105 61.0896 20.3908 60.7448 20.3509L54.1325 19.615C53.8575 19.3251 53.5787 19.0463 53.2963 18.7787L52.5157 12.1498C52.4756 11.8047 52.3554 11.4738 52.1647 11.1834C51.974 10.893 51.7181 10.6512 51.4174 10.4772C49.1228 9.14848 46.6622 8.12957 44.0999 7.44707C43.7623 7.3573 43.4083 7.34812 43.0664 7.42026C42.7246 7.49241 42.4045 7.64387 42.1319 7.86242L36.9497 11.9992C36.5483 11.9992 36.1469 11.9992 35.7455 11.9992L30.5494 7.84849C30.2765 7.63041 29.9563 7.47946 29.6145 7.40779C29.2726 7.33613 28.9187 7.34577 28.5813 7.43592C26.0188 8.11896 23.5582 9.13882 21.2638 10.4688C20.9637 10.6431 20.7083 10.8851 20.5181 11.1755C20.3279 11.4658 20.2081 11.7966 20.1683 12.1414L19.4324 18.7648C19.1425 19.0417 18.8637 19.3204 18.5961 19.6011L11.9672 20.3621C11.6221 20.4022 11.2912 20.5224 11.0008 20.7131C10.7104 20.9038 10.4686 21.1597 10.2946 21.4604C8.96586 23.755 7.94695 26.2156 7.26445 28.7779C7.17468 29.1155 7.1655 29.4695 7.23765 29.8114C7.30979 30.1532 7.46125 30.4733 7.67981 30.7459L11.8166 35.9281C11.8166 36.3295 11.8166 36.7309 11.8166 37.1323L7.66587 42.3284C7.44779 42.6013 7.29684 42.9215 7.22518 43.2633C7.15352 43.6052 7.16315 43.9591 7.2533 44.2965C7.93512 46.8594 8.95505 49.3202 10.2862 51.614C10.4605 51.9141 10.7025 52.1695 10.9928 52.3597C11.2832 52.5499 11.614 52.6697 11.9588 52.7095L18.571 53.4454C18.8479 53.7353 19.1267 54.0141 19.4073 54.2817L20.1795 60.9107C20.2196 61.2557 20.3398 61.5866 20.5305 61.877C20.7212 62.1674 20.9771 62.4092 21.2778 62.5832C23.5724 63.9119 26.033 64.9309 28.5952 65.6134C28.9329 65.7031 29.2869 65.7123 29.6288 65.6402C29.9706 65.568 30.2907 65.4166 30.5633 65.198L35.7455 61.0612C36.1469 61.0723 36.5483 61.0723 36.9497 61.0612L42.1458 65.2203C42.4186 65.4384 42.7389 65.5893 43.0807 65.661C43.4226 65.7326 43.7764 65.723 44.1139 65.6329C46.6768 64.951 49.1376 63.9311 51.4314 62.5999C51.7315 62.4256 51.9869 62.1837 52.1771 61.8933C52.3673 61.6029 52.487 61.2722 52.5269 60.9274L53.2628 54.3152C53.5527 54.0401 53.8315 53.7614 54.0991 53.4789L60.728 52.6984C61.0731 52.6582 61.404 52.538 61.6944 52.3473C61.9848 52.1566 62.2266 51.9007 62.4006 51.6C63.7293 49.3054 64.7482 46.8448 65.4307 44.2826C65.5205 43.9449 65.5297 43.5909 65.4575 43.249C65.3854 42.9072 65.2339 42.5871 65.0154 42.3145L60.8786 37.1323ZM56.3905 35.3204C56.4379 36.1262 56.4379 36.9342 56.3905 37.74C56.3573 38.2917 56.5302 38.8361 56.8756 39.2676L60.8312 44.2101C60.3773 45.6526 59.7961 47.0519 59.0945 48.3915L52.7945 49.1051C52.2459 49.166 51.7393 49.4282 51.3728 49.8411C50.8362 50.4445 50.2647 51.0161 49.6612 51.5526C49.2484 51.9191 48.9862 52.4257 48.9253 52.9743L48.2256 59.2688C46.8861 59.9707 45.4868 60.5519 44.0442 61.0054L39.099 57.0498C38.7032 56.7336 38.2117 56.5616 37.7052 56.562H37.5714C36.7655 56.6094 35.9576 56.6094 35.1517 56.562C34.6 56.5288 34.0556 56.7016 33.6241 57.047L28.6677 61.0054C27.2252 60.5515 25.8259 59.9704 24.4863 59.2688L23.7727 52.9771C23.7118 52.4285 23.4496 51.9219 23.0368 51.5554C22.4333 51.0188 21.8617 50.4473 21.3252 49.8438C20.9587 49.431 20.4521 49.1688 19.9035 49.1079L13.6091 48.4054C12.9071 47.066 12.3259 45.6666 11.8724 44.224L15.828 39.2788C16.1734 38.8473 16.3462 38.3029 16.313 37.7512C16.2656 36.9453 16.2656 36.1374 16.313 35.3315C16.3462 34.7798 16.1734 34.2354 15.828 33.8039L11.8724 28.8503C12.3263 27.4078 12.9074 26.0085 13.6091 24.6689L19.9007 23.9553C20.4493 23.8944 20.9559 23.6322 21.3224 23.2194C21.859 22.6159 22.4305 22.0444 23.034 21.5078C23.4484 21.1411 23.7117 20.6333 23.7727 20.0833L24.4724 13.7917C25.8118 13.0897 27.2112 12.5085 28.6538 12.055L33.599 16.0106C34.0305 16.356 34.5749 16.5289 35.1266 16.4957C35.9325 16.4483 36.7404 16.4483 37.5463 16.4957C38.098 16.5289 38.6424 16.356 39.0739 16.0106L44.0275 12.055C45.47 12.5089 46.8693 13.0901 48.2089 13.7917L48.9225 20.0833C48.9834 20.632 49.2456 21.1385 49.6584 21.505C50.2619 22.0416 50.8334 22.6131 51.37 23.2166C51.7365 23.6294 52.2431 23.8916 52.7917 23.9525L59.0861 24.6522C59.7881 25.9917 60.3693 27.391 60.8228 28.8336L56.8672 33.7788C56.5185 34.214 56.3454 34.764 56.3821 35.3204H56.3905Z"/>
</mask>
<path d="M36.3476 23.1497C33.7012 23.1497 31.1142 23.9344 28.9138 25.4047C26.7134 26.875 24.9983 28.9647 23.9856 31.4097C22.9729 33.8547 22.7079 36.5451 23.2242 39.1406C23.7405 41.7362 25.0148 44.1204 26.8861 45.9917C28.7574 47.863 31.1416 49.1373 33.7372 49.6536C36.3328 50.1699 39.0231 49.9049 41.4681 48.8922C43.9131 47.8795 46.0028 46.1645 47.4731 43.964C48.9434 41.7636 49.7281 39.1766 49.7281 36.5302C49.7244 32.9826 48.3135 29.5814 45.805 27.0728C43.2964 24.5643 39.8952 23.1534 36.3476 23.1497ZM36.3476 45.4506C34.5833 45.4506 32.8587 44.9274 31.3917 43.9472C29.9248 42.967 28.7814 41.5739 28.1063 39.9439C27.4311 38.3139 27.2544 36.5203 27.5986 34.7899C27.9428 33.0596 28.7924 31.4701 30.0399 30.2226C31.2875 28.975 32.8769 28.1255 34.6073 27.7813C36.3377 27.4371 38.1313 27.6137 39.7613 28.2889C41.3912 28.964 42.7844 30.1074 43.7646 31.5743C44.7448 33.0413 45.2679 34.7659 45.2679 36.5302C45.2679 38.896 44.3281 41.165 42.6552 42.8379C40.9823 44.5107 38.7134 45.4506 36.3476 45.4506ZM60.8786 37.1323C60.8897 36.7309 60.8897 36.3295 60.8786 35.9281L65.0377 30.732C65.2558 30.4592 65.4067 30.1389 65.4784 29.7971C65.55 29.4553 65.5404 29.1014 65.4502 28.7639C64.7684 26.201 63.7485 23.7402 62.4173 21.4464C62.243 21.1463 62.0011 20.8909 61.7107 20.7007C61.4203 20.5105 61.0896 20.3908 60.7448 20.3509L54.1325 19.615C53.8575 19.3251 53.5787 19.0463 53.2963 18.7787L52.5157 12.1498C52.4756 11.8047 52.3554 11.4738 52.1647 11.1834C51.974 10.893 51.7181 10.6512 51.4174 10.4772C49.1228 9.14848 46.6622 8.12957 44.0999 7.44707C43.7623 7.3573 43.4083 7.34812 43.0664 7.42026C42.7246 7.49241 42.4045 7.64387 42.1319 7.86242L36.9497 11.9992C36.5483 11.9992 36.1469 11.9992 35.7455 11.9992L30.5494 7.84849C30.2765 7.63041 29.9563 7.47946 29.6145 7.40779C29.2726 7.33613 28.9187 7.34577 28.5813 7.43592C26.0188 8.11896 23.5582 9.13882 21.2638 10.4688C20.9637 10.6431 20.7083 10.8851 20.5181 11.1755C20.3279 11.4658 20.2081 11.7966 20.1683 12.1414L19.4324 18.7648C19.1425 19.0417 18.8637 19.3204 18.5961 19.6011L11.9672 20.3621C11.6221 20.4022 11.2912 20.5224 11.0008 20.7131C10.7104 20.9038 10.4686 21.1597 10.2946 21.4604C8.96586 23.755 7.94695 26.2156 7.26445 28.7779C7.17468 29.1155 7.1655 29.4695 7.23765 29.8114C7.30979 30.1532 7.46125 30.4733 7.67981 30.7459L11.8166 35.9281C11.8166 36.3295 11.8166 36.7309 11.8166 37.1323L7.66587 42.3284C7.44779 42.6013 7.29684 42.9215 7.22518 43.2633C7.15352 43.6052 7.16315 43.9591 7.2533 44.2965C7.93512 46.8594 8.95505 49.3202 10.2862 51.614C10.4605 51.9141 10.7025 52.1695 10.9928 52.3597C11.2832 52.5499 11.614 52.6697 11.9588 52.7095L18.571 53.4454C18.8479 53.7353 19.1267 54.0141 19.4073 54.2817L20.1795 60.9107C20.2196 61.2557 20.3398 61.5866 20.5305 61.877C20.7212 62.1674 20.9771 62.4092 21.2778 62.5832C23.5724 63.9119 26.033 64.9309 28.5952 65.6134C28.9329 65.7031 29.2869 65.7123 29.6288 65.6402C29.9706 65.568 30.2907 65.4166 30.5633 65.198L35.7455 61.0612C36.1469 61.0723 36.5483 61.0723 36.9497 61.0612L42.1458 65.2203C42.4186 65.4384 42.7389 65.5893 43.0807 65.661C43.4226 65.7326 43.7764 65.723 44.1139 65.6329C46.6768 64.951 49.1376 63.9311 51.4314 62.5999C51.7315 62.4256 51.9869 62.1837 52.1771 61.8933C52.3673 61.6029 52.487 61.2722 52.5269 60.9274L53.2628 54.3152C53.5527 54.0401 53.8315 53.7614 54.0991 53.4789L60.728 52.6984C61.0731 52.6582 61.404 52.538 61.6944 52.3473C61.9848 52.1566 62.2266 51.9007 62.4006 51.6C63.7293 49.3054 64.7482 46.8448 65.4307 44.2826C65.5205 43.9449 65.5297 43.5909 65.4575 43.249C65.3854 42.9072 65.2339 42.5871 65.0154 42.3145L60.8786 37.1323ZM56.3905 35.3204C56.4379 36.1262 56.4379 36.9342 56.3905 37.74C56.3573 38.2917 56.5302 38.8361 56.8756 39.2676L60.8312 44.2101C60.3773 45.6526 59.7961 47.0519 59.0945 48.3915L52.7945 49.1051C52.2459 49.166 51.7393 49.4282 51.3728 49.8411C50.8362 50.4445 50.2647 51.0161 49.6612 51.5526C49.2484 51.9191 48.9862 52.4257 48.9253 52.9743L48.2256 59.2688C46.8861 59.9707 45.4868 60.5519 44.0442 61.0054L39.099 57.0498C38.7032 56.7336 38.2117 56.5616 37.7052 56.562H37.5714C36.7655 56.6094 35.9576 56.6094 35.1517 56.562C34.6 56.5288 34.0556 56.7016 33.6241 57.047L28.6677 61.0054C27.2252 60.5515 25.8259 59.9704 24.4863 59.2688L23.7727 52.9771C23.7118 52.4285 23.4496 51.9219 23.0368 51.5554C22.4333 51.0188 21.8617 50.4473 21.3252 49.8438C20.9587 49.431 20.4521 49.1688 19.9035 49.1079L13.6091 48.4054C12.9071 47.066 12.3259 45.6666 11.8724 44.224L15.828 39.2788C16.1734 38.8473 16.3462 38.3029 16.313 37.7512C16.2656 36.9453 16.2656 36.1374 16.313 35.3315C16.3462 34.7798 16.1734 34.2354 15.828 33.8039L11.8724 28.8503C12.3263 27.4078 12.9074 26.0085 13.6091 24.6689L19.9007 23.9553C20.4493 23.8944 20.9559 23.6322 21.3224 23.2194C21.859 22.6159 22.4305 22.0444 23.034 21.5078C23.4484 21.1411 23.7117 20.6333 23.7727 20.0833L24.4724 13.7917C25.8118 13.0897 27.2112 12.5085 28.6538 12.055L33.599 16.0106C34.0305 16.356 34.5749 16.5289 35.1266 16.4957C35.9325 16.4483 36.7404 16.4483 37.5463 16.4957C38.098 16.5289 38.6424 16.356 39.0739 16.0106L44.0275 12.055C45.47 12.5089 46.8693 13.0901 48.2089 13.7917L48.9225 20.0833C48.9834 20.632 49.2456 21.1385 49.6584 21.505C50.2619 22.0416 50.8334 22.6131 51.37 23.2166C51.7365 23.6294 52.2431 23.8916 52.7917 23.9525L59.0861 24.6522C59.7881 25.9917 60.3693 27.391 60.8228 28.8336L56.8672 33.7788C56.5185 34.214 56.3454 34.764 56.3821 35.3204H56.3905Z" fill="url(#paint0_linear_1735_2721)" stroke="url(#paint1_linear_1735_2721)" stroke-width="1.27434" mask="url(#path-1-inside-1_1735_2721)"/>
<defs>
<linearGradient id="paint0_linear_1735_2721" x1="56.7368" y1="7.22035" x2="7.03773" y2="65.8398" gradientUnits="userSpaceOnUse">
<stop stop-color="#30EDE6"/>
<stop offset="0.5" stop-color="#018284"/>
<stop offset="1" stop-color="white"/>
</linearGradient>
<linearGradient id="paint1_linear_1735_2721" x1="7.03773" y1="14.8664" x2="-52.0065" y2="121.061" gradientUnits="userSpaceOnUse">
<stop stop-color="white"/>
<stop offset="0.5" stop-color="#30EDE6"/>
<stop offset="1" stop-color="#666666"/>
</linearGradient>
</defs>
</svg>
