<svg width="72" height="72" viewBox="0 0 72 72" fill="none" xmlns="http://www.w3.org/2000/svg">
<mask id="path-1-inside-1_1050_3478" fill="white">
<path d="M35.6992 22.6897C33.0527 22.6897 30.4657 23.4745 28.2653 24.9447C26.0649 26.415 24.3499 28.5048 23.3372 30.9497C22.3244 33.3947 22.0594 36.0851 22.5757 38.6807C23.092 41.2762 24.3664 43.6604 26.2377 45.5317C28.109 47.403 30.4932 48.6774 33.0887 49.1937C35.6843 49.71 38.3747 49.445 40.8197 48.4323C43.2646 47.4195 45.3544 45.7045 46.8247 43.5041C48.2949 41.3037 49.0797 38.7167 49.0797 36.0702C49.076 32.5226 47.6651 29.1214 45.1565 26.6129C42.648 24.1043 39.2468 22.6934 35.6992 22.6897ZM35.6992 44.9906C33.9349 44.9906 32.2102 44.4674 30.7433 43.4873C29.2763 42.5071 28.133 41.1139 27.4578 39.4839C26.7827 37.8539 26.606 36.0604 26.9502 34.33C27.2944 32.5996 28.144 31.0101 29.3915 29.7626C30.639 28.5151 32.2285 27.6655 33.9589 27.3213C35.6893 26.9771 37.4828 27.1538 39.1128 27.8289C40.7428 28.5041 42.136 29.6474 43.1162 31.1144C44.0963 32.5813 44.6195 34.306 44.6195 36.0702C44.6195 38.4361 43.6797 40.705 42.0068 42.3779C40.3339 44.0508 38.065 44.9906 35.6992 44.9906ZM60.2301 36.6724C60.2413 36.271 60.2413 35.8695 60.2301 35.4681L64.3892 30.272C64.6073 29.9992 64.7583 29.679 64.8299 29.3371C64.9016 28.9953 64.892 28.6414 64.8018 28.304C64.12 25.741 63.1001 23.2803 61.7689 20.9865C61.5946 20.6863 61.3526 20.431 61.0623 20.2408C60.7719 20.0506 60.4411 19.9308 60.0963 19.891L53.4841 19.155C53.2091 18.8651 52.9303 18.5864 52.6478 18.3187L51.8673 11.6898C51.8272 11.3447 51.7069 11.0138 51.5163 10.7234C51.3256 10.433 51.0697 10.1912 50.769 10.0172C48.4743 8.68852 46.0138 7.66961 43.4515 6.98711C43.1139 6.89734 42.7598 6.88816 42.418 6.9603C42.0761 7.03245 41.756 7.18391 41.4834 7.40246L36.3013 11.5393C35.8999 11.5393 35.4984 11.5393 35.097 11.5393L29.9009 7.38852C29.6281 7.17044 29.3079 7.01949 28.966 6.94783C28.6242 6.87617 28.2703 6.88581 27.9329 6.97596C25.3704 7.659 22.9097 8.67886 20.6154 10.0089C20.3152 10.1832 20.0599 10.4251 19.8697 10.7155C19.6795 11.0059 19.5597 11.3366 19.5199 11.6814L18.7839 18.3048C18.494 18.5817 18.2153 18.8605 17.9477 19.1411L11.3187 19.9021C10.9736 19.9423 10.6427 20.0625 10.3523 20.2531C10.0619 20.4438 9.82013 20.6997 9.64615 21.0004C8.31742 23.2951 7.29852 25.7556 6.61601 28.3179C6.52624 28.6556 6.51706 29.0096 6.58921 29.3514C6.66136 29.6933 6.81281 30.0134 7.03137 30.286L11.1682 35.4681C11.1682 35.8695 11.1682 36.271 11.1682 36.6724L7.01743 41.8685C6.79935 42.1413 6.6484 42.4615 6.57674 42.8034C6.50508 43.1452 6.51471 43.4991 6.60486 43.8365C7.28668 46.3995 8.30661 48.8602 9.63778 51.154C9.81208 51.4542 10.054 51.7095 10.3444 51.8997C10.6348 52.0899 10.9655 52.2097 11.3103 52.2495L17.9226 52.9855C18.1995 53.2754 18.4782 53.5541 18.7588 53.8218L19.531 60.4507C19.5712 60.7958 19.6914 61.1267 19.8821 61.4171C20.0727 61.7075 20.3286 61.9493 20.6293 62.1233C22.924 63.452 25.3846 64.4709 27.9468 65.1534C28.2845 65.2432 28.6385 65.2523 28.9803 65.1802C29.3222 65.1081 29.6423 64.9566 29.9149 64.738L35.097 60.6012C35.4984 60.6124 35.8999 60.6124 36.3013 60.6012L41.4974 64.7603C41.7702 64.9784 42.0904 65.1294 42.4323 65.201C42.7741 65.2727 43.128 65.2631 43.4654 65.1729C46.0284 64.4911 48.4891 63.4712 50.7829 62.14C51.0831 61.9657 51.3384 61.7237 51.5286 61.4334C51.7188 61.143 51.8386 60.8122 51.8784 60.4674L52.6144 53.8552C52.9043 53.5802 53.183 53.3014 53.4507 53.0189L60.0796 52.2384C60.4247 52.1982 60.7556 52.078 61.046 51.8873C61.3364 51.6967 61.5782 51.4408 61.7522 51.1401C63.0809 48.8454 64.0998 46.3849 64.7823 43.8226C64.8721 43.4849 64.8812 43.1309 64.8091 42.7891C64.737 42.4472 64.5855 42.1271 64.3669 41.8545L60.2301 36.6724ZM55.7421 34.8604C55.7895 35.6663 55.7895 36.4742 55.7421 37.2801C55.7089 37.8318 55.8817 38.3762 56.2271 38.8077L60.1827 43.7501C59.7288 45.1926 59.1477 46.5919 58.4461 47.9315L52.1461 48.6452C51.5974 48.7061 51.0909 48.9683 50.7244 49.3811C50.1878 49.9846 49.6163 50.5561 49.0128 51.0927C48.6 51.4592 48.3378 51.9657 48.2769 52.5144L47.5772 58.8088C46.2377 59.5107 44.8384 60.0919 43.3957 60.5455L38.4505 56.5899C38.0548 56.2737 37.5632 56.1016 37.0567 56.102H36.9229C36.1171 56.1494 35.3091 56.1494 34.5033 56.102C33.9516 56.0688 33.4072 56.2417 32.9757 56.5871L28.0193 60.5455C26.5768 60.0916 25.1775 59.5104 23.8379 58.8088L23.1242 52.5172C23.0633 51.9685 22.8011 51.4619 22.3883 51.0955C21.7848 50.5589 21.2133 49.9874 20.6767 49.3839C20.3102 48.9711 19.8037 48.7088 19.255 48.6479L12.9606 47.9455C12.2587 46.606 11.6775 45.2067 11.2239 43.7641L15.1796 38.8188C15.525 38.3873 15.6978 37.8429 15.6646 37.2912C15.6172 36.4854 15.6172 35.6774 15.6646 34.8716C15.6978 34.3199 15.525 33.7755 15.1796 33.344L11.2239 28.3904C11.6778 26.9479 12.259 25.5486 12.9606 24.209L19.2523 23.4953C19.8009 23.4344 20.3075 23.1722 20.6739 22.7594C21.2105 22.1559 21.782 21.5844 22.3855 21.0478C22.8 20.6811 23.0633 20.1734 23.1242 19.6233L23.8239 13.3317C25.1634 12.6298 26.5627 12.0486 28.0054 11.595L32.9506 15.5506C33.3821 15.896 33.9265 16.0689 34.4782 16.0357C35.284 15.9883 36.092 15.9883 36.8978 16.0357C37.4495 16.0689 37.9939 15.896 38.4254 15.5506L43.379 11.595C44.8215 12.0489 46.2208 12.6301 47.5604 13.3317L48.2741 19.6233C48.335 20.172 48.5972 20.6785 49.01 21.045C49.6135 21.5816 50.185 22.1531 50.7216 22.7566C51.0881 23.1694 51.5946 23.4316 52.1433 23.4925L58.4377 24.1922C59.1396 25.5317 59.7208 26.931 60.1744 28.3737L56.2188 33.3189C55.87 33.754 55.697 34.304 55.7337 34.8604H55.7421Z"/>
</mask>
<path d="M35.6992 22.6897C33.0527 22.6897 30.4657 23.4745 28.2653 24.9447C26.0649 26.415 24.3499 28.5048 23.3372 30.9497C22.3244 33.3947 22.0594 36.0851 22.5757 38.6807C23.092 41.2762 24.3664 43.6604 26.2377 45.5317C28.109 47.403 30.4932 48.6774 33.0887 49.1937C35.6843 49.71 38.3747 49.445 40.8197 48.4323C43.2646 47.4195 45.3544 45.7045 46.8247 43.5041C48.2949 41.3037 49.0797 38.7167 49.0797 36.0702C49.076 32.5226 47.6651 29.1214 45.1565 26.6129C42.648 24.1043 39.2468 22.6934 35.6992 22.6897ZM35.6992 44.9906C33.9349 44.9906 32.2102 44.4674 30.7433 43.4873C29.2763 42.5071 28.133 41.1139 27.4578 39.4839C26.7827 37.8539 26.606 36.0604 26.9502 34.33C27.2944 32.5996 28.144 31.0101 29.3915 29.7626C30.639 28.5151 32.2285 27.6655 33.9589 27.3213C35.6893 26.9771 37.4828 27.1538 39.1128 27.8289C40.7428 28.5041 42.136 29.6474 43.1162 31.1144C44.0963 32.5813 44.6195 34.306 44.6195 36.0702C44.6195 38.4361 43.6797 40.705 42.0068 42.3779C40.3339 44.0508 38.065 44.9906 35.6992 44.9906ZM60.2301 36.6724C60.2413 36.271 60.2413 35.8695 60.2301 35.4681L64.3892 30.272C64.6073 29.9992 64.7583 29.679 64.8299 29.3371C64.9016 28.9953 64.892 28.6414 64.8018 28.304C64.12 25.741 63.1001 23.2803 61.7689 20.9865C61.5946 20.6863 61.3526 20.431 61.0623 20.2408C60.7719 20.0506 60.4411 19.9308 60.0963 19.891L53.4841 19.155C53.2091 18.8651 52.9303 18.5864 52.6478 18.3187L51.8673 11.6898C51.8272 11.3447 51.7069 11.0138 51.5163 10.7234C51.3256 10.433 51.0697 10.1912 50.769 10.0172C48.4743 8.68852 46.0138 7.66961 43.4515 6.98711C43.1139 6.89734 42.7598 6.88816 42.418 6.9603C42.0761 7.03245 41.756 7.18391 41.4834 7.40246L36.3013 11.5393C35.8999 11.5393 35.4984 11.5393 35.097 11.5393L29.9009 7.38852C29.6281 7.17044 29.3079 7.01949 28.966 6.94783C28.6242 6.87617 28.2703 6.88581 27.9329 6.97596C25.3704 7.659 22.9097 8.67886 20.6154 10.0089C20.3152 10.1832 20.0599 10.4251 19.8697 10.7155C19.6795 11.0059 19.5597 11.3366 19.5199 11.6814L18.7839 18.3048C18.494 18.5817 18.2153 18.8605 17.9477 19.1411L11.3187 19.9021C10.9736 19.9423 10.6427 20.0625 10.3523 20.2531C10.0619 20.4438 9.82013 20.6997 9.64615 21.0004C8.31742 23.2951 7.29852 25.7556 6.61601 28.3179C6.52624 28.6556 6.51706 29.0096 6.58921 29.3514C6.66136 29.6933 6.81281 30.0134 7.03137 30.286L11.1682 35.4681C11.1682 35.8695 11.1682 36.271 11.1682 36.6724L7.01743 41.8685C6.79935 42.1413 6.6484 42.4615 6.57674 42.8034C6.50508 43.1452 6.51471 43.4991 6.60486 43.8365C7.28668 46.3995 8.30661 48.8602 9.63778 51.154C9.81208 51.4542 10.054 51.7095 10.3444 51.8997C10.6348 52.0899 10.9655 52.2097 11.3103 52.2495L17.9226 52.9855C18.1995 53.2754 18.4782 53.5541 18.7588 53.8218L19.531 60.4507C19.5712 60.7958 19.6914 61.1267 19.8821 61.4171C20.0727 61.7075 20.3286 61.9493 20.6293 62.1233C22.924 63.452 25.3846 64.4709 27.9468 65.1534C28.2845 65.2432 28.6385 65.2523 28.9803 65.1802C29.3222 65.1081 29.6423 64.9566 29.9149 64.738L35.097 60.6012C35.4984 60.6124 35.8999 60.6124 36.3013 60.6012L41.4974 64.7603C41.7702 64.9784 42.0904 65.1294 42.4323 65.201C42.7741 65.2727 43.128 65.2631 43.4654 65.1729C46.0284 64.4911 48.4891 63.4712 50.7829 62.14C51.0831 61.9657 51.3384 61.7237 51.5286 61.4334C51.7188 61.143 51.8386 60.8122 51.8784 60.4674L52.6144 53.8552C52.9043 53.5802 53.183 53.3014 53.4507 53.0189L60.0796 52.2384C60.4247 52.1982 60.7556 52.078 61.046 51.8873C61.3364 51.6967 61.5782 51.4408 61.7522 51.1401C63.0809 48.8454 64.0998 46.3849 64.7823 43.8226C64.8721 43.4849 64.8812 43.1309 64.8091 42.7891C64.737 42.4472 64.5855 42.1271 64.3669 41.8545L60.2301 36.6724ZM55.7421 34.8604C55.7895 35.6663 55.7895 36.4742 55.7421 37.2801C55.7089 37.8318 55.8817 38.3762 56.2271 38.8077L60.1827 43.7501C59.7288 45.1926 59.1477 46.5919 58.4461 47.9315L52.1461 48.6452C51.5974 48.7061 51.0909 48.9683 50.7244 49.3811C50.1878 49.9846 49.6163 50.5561 49.0128 51.0927C48.6 51.4592 48.3378 51.9657 48.2769 52.5144L47.5772 58.8088C46.2377 59.5107 44.8384 60.0919 43.3957 60.5455L38.4505 56.5899C38.0548 56.2737 37.5632 56.1016 37.0567 56.102H36.9229C36.1171 56.1494 35.3091 56.1494 34.5033 56.102C33.9516 56.0688 33.4072 56.2417 32.9757 56.5871L28.0193 60.5455C26.5768 60.0916 25.1775 59.5104 23.8379 58.8088L23.1242 52.5172C23.0633 51.9685 22.8011 51.4619 22.3883 51.0955C21.7848 50.5589 21.2133 49.9874 20.6767 49.3839C20.3102 48.9711 19.8037 48.7088 19.255 48.6479L12.9606 47.9455C12.2587 46.606 11.6775 45.2067 11.2239 43.7641L15.1796 38.8188C15.525 38.3873 15.6978 37.8429 15.6646 37.2912C15.6172 36.4854 15.6172 35.6774 15.6646 34.8716C15.6978 34.3199 15.525 33.7755 15.1796 33.344L11.2239 28.3904C11.6778 26.9479 12.259 25.5486 12.9606 24.209L19.2523 23.4953C19.8009 23.4344 20.3075 23.1722 20.6739 22.7594C21.2105 22.1559 21.782 21.5844 22.3855 21.0478C22.8 20.6811 23.0633 20.1734 23.1242 19.6233L23.8239 13.3317C25.1634 12.6298 26.5627 12.0486 28.0054 11.595L32.9506 15.5506C33.3821 15.896 33.9265 16.0689 34.4782 16.0357C35.284 15.9883 36.092 15.9883 36.8978 16.0357C37.4495 16.0689 37.9939 15.896 38.4254 15.5506L43.379 11.595C44.8215 12.0489 46.2208 12.6301 47.5604 13.3317L48.2741 19.6233C48.335 20.172 48.5972 20.6785 49.01 21.045C49.6135 21.5816 50.185 22.1531 50.7216 22.7566C51.0881 23.1694 51.5946 23.4316 52.1433 23.4925L58.4377 24.1922C59.1396 25.5317 59.7208 26.931 60.1744 28.3737L56.2188 33.3189C55.87 33.754 55.697 34.304 55.7337 34.8604H55.7421Z" fill="url(#paint0_linear_1050_3478)" stroke="url(#paint1_linear_1050_3478)" stroke-width="1.27434" mask="url(#path-1-inside-1_1050_3478)"/>
<defs>
<linearGradient id="paint0_linear_1050_3478" x1="56.0884" y1="6.76039" x2="6.38929" y2="65.3799" gradientUnits="userSpaceOnUse">
<stop stop-color="#30EDE6"/>
<stop offset="0.5" stop-color="#555555"/>
<stop offset="1"/>
</linearGradient>
<linearGradient id="paint1_linear_1050_3478" x1="6.38929" y1="14.4064" x2="-52.655" y2="120.601" gradientUnits="userSpaceOnUse">
<stop/>
<stop offset="0.5" stop-color="#30EDE6"/>
<stop offset="1" stop-color="#666666"/>
</linearGradient>
</defs>
</svg>
