<svg width="24" height="25" viewBox="0 0 24 25" fill="none" xmlns="http://www.w3.org/2000/svg">
<path d="M19.5291 7.20243C19.7583 6.46293 19.8318 5.68395 19.745 4.91461C19.6582 4.14527 19.413 3.40226 19.0247 2.73243C18.9588 2.6184 18.8641 2.5237 18.7501 2.45787C18.636 2.39205 18.5067 2.3574 18.375 2.35743C17.5014 2.35561 16.6395 2.55812 15.8582 2.94879C15.0768 3.33947 14.3977 3.90748 13.875 4.60743H11.625C11.1023 3.90748 10.4232 3.33947 9.64182 2.94879C8.86047 2.55812 7.99857 2.35561 7.125 2.35743C6.99332 2.3574 6.86395 2.39205 6.7499 2.45787C6.63586 2.5237 6.54115 2.6184 6.47531 2.73243C6.08704 3.40226 5.84177 4.14527 5.75497 4.91461C5.66816 5.68395 5.74169 6.46293 5.97094 7.20243C5.50756 8.01123 5.25934 8.92535 5.25 9.85743V10.6074C5.25158 11.8764 5.71225 13.102 6.54696 14.0579C7.38166 15.0137 8.53402 15.6353 9.79125 15.8077C9.27807 16.4644 8.99952 17.274 9 18.1074V18.8574H6.75C6.15326 18.8574 5.58097 18.6204 5.15901 18.1984C4.73705 17.7765 4.5 17.2042 4.5 16.6074C4.5 16.115 4.403 15.6273 4.21455 15.1724C4.02609 14.7174 3.74987 14.304 3.40165 13.9558C3.05343 13.6076 2.64003 13.3313 2.18506 13.1429C1.73009 12.9544 1.24246 12.8574 0.75 12.8574C0.551088 12.8574 0.360322 12.9365 0.21967 13.0771C0.0790176 13.2178 0 13.4085 0 13.6074C0 13.8063 0.0790176 13.9971 0.21967 14.1378C0.360322 14.2784 0.551088 14.3574 0.75 14.3574C1.34674 14.3574 1.91903 14.5945 2.34099 15.0164C2.76295 15.4384 3 16.0107 3 16.6074C3 17.602 3.39509 18.5558 4.09835 19.2591C4.80161 19.9623 5.75544 20.3574 6.75 20.3574H9V21.8574C9 22.0563 9.07902 22.2471 9.21967 22.3878C9.36032 22.5284 9.55109 22.6074 9.75 22.6074C9.94891 22.6074 10.1397 22.5284 10.2803 22.3878C10.421 22.2471 10.5 22.0563 10.5 21.8574V18.1074C10.5 17.5107 10.7371 16.9384 11.159 16.5164C11.581 16.0945 12.1533 15.8574 12.75 15.8574C13.3467 15.8574 13.919 16.0945 14.341 16.5164C14.7629 16.9384 15 17.5107 15 18.1074V21.8574C15 22.0563 15.079 22.2471 15.2197 22.3878C15.3603 22.5284 15.5511 22.6074 15.75 22.6074C15.9489 22.6074 16.1397 22.5284 16.2803 22.3878C16.421 22.2471 16.5 22.0563 16.5 21.8574V18.1074C16.5005 17.274 16.2219 16.4644 15.7087 15.8077C16.966 15.6353 18.1183 15.0137 18.953 14.0579C19.7877 13.102 20.2484 11.8764 20.25 10.6074V9.85743C20.2407 8.92535 19.9924 8.01123 19.5291 7.20243ZM18.75 10.6074C18.75 11.602 18.3549 12.5558 17.6516 13.2591C16.9484 13.9623 15.9946 14.3574 15 14.3574H10.5C9.50544 14.3574 8.55161 13.9623 7.84835 13.2591C7.14509 12.5558 6.75 11.602 6.75 10.6074V9.85743C6.7592 9.10746 6.98373 8.37592 7.39688 7.74993C7.47389 7.64842 7.52377 7.52896 7.54182 7.40282C7.55986 7.27668 7.54547 7.14803 7.5 7.029C7.30465 6.52518 7.21063 5.98777 7.22334 5.44755C7.23605 4.90734 7.35523 4.37494 7.57406 3.88087C8.18786 3.9469 8.77892 4.15023 9.30344 4.47578C9.82796 4.80133 10.2725 5.24076 10.6041 5.7615C10.6716 5.86716 10.7646 5.95419 10.8745 6.01462C10.9844 6.07506 11.1077 6.10697 11.2331 6.10743H14.2659C14.3918 6.10744 14.5157 6.07575 14.6261 6.0153C14.7366 5.95484 14.83 5.86756 14.8978 5.7615C15.2293 5.24072 15.6738 4.80125 16.1984 4.47569C16.7229 4.15014 17.314 3.94684 17.9278 3.88087C18.1463 4.37507 18.2652 4.90753 18.2776 5.44774C18.29 5.98796 18.1956 6.5253 18 7.029C17.9547 7.14689 17.9395 7.27424 17.9559 7.39949C17.9722 7.52473 18.0196 7.6439 18.0938 7.74618C18.511 8.37218 18.7388 9.10522 18.75 9.85743V10.6074Z" fill="black"/>
</svg>
