<svg width="20" height="20" viewBox="0 0 20 20" fill="none" xmlns="http://www.w3.org/2000/svg">
<path d="M16.2805 2.52539H3.42055C3.11049 2.52539 2.81313 2.64856 2.59388 2.86781C2.37464 3.08705 2.25146 3.38442 2.25146 3.69448V16.5544C2.25146 16.8645 2.37464 17.1618 2.59388 17.3811C2.81313 17.6003 3.11049 17.7235 3.42055 17.7235H16.2805C16.5906 17.7235 16.8879 17.6003 17.1072 17.3811C17.3264 17.1618 17.4496 16.8645 17.4496 16.5544V3.69448C17.4496 3.38442 17.3264 3.08705 17.1072 2.86781C16.8879 2.64856 16.5906 2.52539 16.2805 2.52539ZM16.2805 16.5544H3.42055V3.69448H16.2805V16.5544ZM7.51235 8.95536V13.6317C7.51235 13.7867 7.45076 13.9354 7.34114 14.045C7.23152 14.1547 7.08284 14.2162 6.92781 14.2162C6.77278 14.2162 6.6241 14.1547 6.51447 14.045C6.40485 13.9354 6.34326 13.7867 6.34326 13.6317V8.95536C6.34326 8.80033 6.40485 8.65165 6.51447 8.54203C6.6241 8.4324 6.77278 8.37082 6.92781 8.37082C7.08284 8.37082 7.23152 8.4324 7.34114 8.54203C7.45076 8.65165 7.51235 8.80033 7.51235 8.95536ZM13.9423 11.0013V13.6317C13.9423 13.7867 13.8807 13.9354 13.7711 14.045C13.6615 14.1547 13.5128 14.2162 13.3578 14.2162C13.2027 14.2162 13.0541 14.1547 12.9444 14.045C12.8348 13.9354 12.7732 13.7867 12.7732 13.6317V11.0013C12.7732 10.6137 12.6193 10.242 12.3452 9.96793C12.0712 9.69387 11.6995 9.5399 11.3119 9.5399C10.9243 9.5399 10.5526 9.69387 10.2785 9.96793C10.0045 10.242 9.85052 10.6137 9.85052 11.0013V13.6317C9.85052 13.7867 9.78894 13.9354 9.67931 14.045C9.56969 14.1547 9.42101 14.2162 9.26598 14.2162C9.11095 14.2162 8.96227 14.1547 8.85264 14.045C8.74302 13.9354 8.68144 13.7867 8.68144 13.6317V8.95536C8.68216 8.81218 8.73541 8.67425 8.83109 8.56772C8.92676 8.4612 9.05821 8.3935 9.20049 8.37746C9.34277 8.36142 9.48599 8.39816 9.60298 8.48071C9.71997 8.56326 9.80259 8.68588 9.83518 8.8253C10.2306 8.55705 10.6916 8.40158 11.1688 8.37558C11.6459 8.34959 12.1211 8.45405 12.5433 8.67775C12.9656 8.90145 13.3189 9.23594 13.5654 9.6453C13.8119 10.0547 13.9422 10.5234 13.9423 11.0013ZM7.80462 6.90946C7.80462 7.08288 7.7532 7.2524 7.65685 7.39659C7.56051 7.54078 7.42357 7.65317 7.26335 7.71953C7.10313 7.7859 6.92683 7.80326 6.75675 7.76943C6.58666 7.7356 6.43043 7.65209 6.30781 7.52946C6.18518 7.40684 6.10167 7.25061 6.06784 7.08052C6.03401 6.91043 6.05137 6.73414 6.11774 6.57392C6.1841 6.4137 6.29648 6.27676 6.44068 6.18042C6.58487 6.08407 6.75439 6.03265 6.92781 6.03265C7.16035 6.03265 7.38337 6.12503 7.54781 6.28946C7.71224 6.45389 7.80462 6.67692 7.80462 6.90946Z" fill="white"/>
</svg>
