<svg width="24" height="25" viewBox="0 0 24 25" fill="none" xmlns="http://www.w3.org/2000/svg">
<path d="M20.25 2.35742H3.75C3.35218 2.35742 2.97064 2.51546 2.68934 2.79676C2.40804 3.07807 2.25 3.4596 2.25 3.85742V20.3574C2.25 20.7552 2.40804 21.1368 2.68934 21.4181C2.97064 21.6994 3.35218 21.8574 3.75 21.8574H20.25C20.6478 21.8574 21.0294 21.6994 21.3107 21.4181C21.592 21.1368 21.75 20.7552 21.75 20.3574V3.85742C21.75 3.4596 21.592 3.07807 21.3107 2.79676C21.0294 2.51546 20.6478 2.35742 20.25 2.35742ZM20.25 20.3574H3.75V3.85742H20.25V20.3574ZM9 10.6074V16.6074C9 16.8063 8.92098 16.9971 8.78033 17.1378C8.63968 17.2784 8.44891 17.3574 8.25 17.3574C8.05109 17.3574 7.86032 17.2784 7.71967 17.1378C7.57902 16.9971 7.5 16.8063 7.5 16.6074V10.6074C7.5 10.4085 7.57902 10.2177 7.71967 10.0771C7.86032 9.93644 8.05109 9.85742 8.25 9.85742C8.44891 9.85742 8.63968 9.93644 8.78033 10.0771C8.92098 10.2177 9 10.4085 9 10.6074ZM17.25 13.2324V16.6074C17.25 16.8063 17.171 16.9971 17.0303 17.1378C16.8897 17.2784 16.6989 17.3574 16.5 17.3574C16.3011 17.3574 16.1103 17.2784 15.9697 17.1378C15.829 16.9971 15.75 16.8063 15.75 16.6074V13.2324C15.75 12.7351 15.5525 12.2582 15.2008 11.9066C14.8492 11.555 14.3723 11.3574 13.875 11.3574C13.3777 11.3574 12.9008 11.555 12.5492 11.9066C12.1975 12.2582 12 12.7351 12 13.2324V16.6074C12 16.8063 11.921 16.9971 11.7803 17.1378C11.6397 17.2784 11.4489 17.3574 11.25 17.3574C11.0511 17.3574 10.8603 17.2784 10.7197 17.1378C10.579 16.9971 10.5 16.8063 10.5 16.6074V10.6074C10.5009 10.4237 10.5693 10.2467 10.692 10.1101C10.8148 9.97339 10.9834 9.88652 11.166 9.86594C11.3485 9.84536 11.5323 9.8925 11.6824 9.99842C11.8325 10.1043 11.9385 10.2617 11.9803 10.4405C12.4877 10.0964 13.0792 9.89689 13.6914 9.86353C14.3036 9.83018 14.9133 9.96421 15.455 10.2512C15.9968 10.5382 16.4501 10.9674 16.7664 11.4926C17.0826 12.0179 17.2498 12.6193 17.25 13.2324ZM9.375 7.98242C9.375 8.20493 9.30902 8.42243 9.1854 8.60744C9.06179 8.79244 8.88609 8.93664 8.68052 9.02179C8.47495 9.10694 8.24875 9.12921 8.03052 9.08581C7.81229 9.0424 7.61184 8.93525 7.4545 8.77792C7.29717 8.62058 7.19002 8.42013 7.14662 8.2019C7.10321 7.98367 7.12549 7.75747 7.21064 7.5519C7.29578 7.34634 7.43998 7.17063 7.62498 7.04702C7.80999 6.9234 8.0275 6.85742 8.25 6.85742C8.54837 6.85742 8.83452 6.97595 9.0455 7.18693C9.25647 7.3979 9.375 7.68405 9.375 7.98242Z" fill="#454545"/>
</svg>
