<svg width="20" height="20" viewBox="0 0 20 20" fill="none" xmlns="http://www.w3.org/2000/svg">
<path d="M19.4936 7.37732C19.4936 7.57623 19.4146 7.767 19.2739 7.90765C19.1333 8.0483 18.9425 8.12732 18.7436 8.12732H17.2436V9.62732C17.2436 9.82623 17.1646 10.017 17.0239 10.1576C16.8833 10.2983 16.6925 10.3773 16.4936 10.3773C16.2947 10.3773 16.1039 10.2983 15.9633 10.1576C15.8226 10.017 15.7436 9.82623 15.7436 9.62732V8.12732H14.2436C14.0447 8.12732 13.8539 8.0483 13.7133 7.90765C13.5726 7.767 13.4936 7.57623 13.4936 7.37732C13.4936 7.17841 13.5726 6.98764 13.7133 6.84699C13.8539 6.70634 14.0447 6.62732 14.2436 6.62732H15.7436V5.12732C15.7436 4.92841 15.8226 4.73764 15.9633 4.59699C16.1039 4.45634 16.2947 4.37732 16.4936 4.37732C16.6925 4.37732 16.8833 4.45634 17.0239 4.59699C17.1646 4.73764 17.2436 4.92841 17.2436 5.12732V6.62732H18.7436C18.9425 6.62732 19.1333 6.70634 19.2739 6.84699C19.4146 6.98764 19.4936 7.17841 19.4936 7.37732ZM10.4936 3.62732H11.2436V4.37732C11.2436 4.57623 11.3226 4.767 11.4633 4.90765C11.6039 5.0483 11.7947 5.12732 11.9936 5.12732C12.1925 5.12732 12.3833 5.0483 12.5239 4.90765C12.6646 4.767 12.7436 4.57623 12.7436 4.37732V3.62732H13.4936C13.6925 3.62732 13.8833 3.5483 14.0239 3.40765C14.1646 3.267 14.2436 3.07623 14.2436 2.87732C14.2436 2.67841 14.1646 2.48764 14.0239 2.34699C13.8833 2.20634 13.6925 2.12732 13.4936 2.12732H12.7436V1.37732C12.7436 1.17841 12.6646 0.987641 12.5239 0.846989C12.3833 0.706337 12.1925 0.627319 11.9936 0.627319C11.7947 0.627319 11.6039 0.706337 11.4633 0.846989C11.3226 0.987641 11.2436 1.17841 11.2436 1.37732V2.12732H10.4936C10.2947 2.12732 10.1039 2.20634 9.96327 2.34699C9.82262 2.48764 9.7436 2.67841 9.7436 2.87732C9.7436 3.07623 9.82262 3.267 9.96327 3.40765C10.1039 3.5483 10.2947 3.62732 10.4936 3.62732ZM17.3158 12.7211C17.4031 12.8227 17.4616 12.9459 17.4851 13.0778C17.5087 13.2097 17.4965 13.3455 17.4499 13.4711C16.9294 14.8904 16.0599 16.1557 14.9215 17.1503C13.7831 18.1449 12.4125 18.8367 10.9362 19.1619C9.45991 19.4872 7.92549 19.4353 6.47453 19.0111C5.02358 18.5869 3.70285 17.8041 2.63423 16.7348C1.56561 15.6656 0.783528 14.3444 0.360162 12.8932C-0.0632036 11.442 -0.114213 9.90759 0.211841 8.43148C0.537895 6.95537 1.23051 5.58518 2.22576 4.44734C3.22101 3.3095 4.48684 2.44068 5.90641 1.92107C6.03136 1.87531 6.16623 1.86361 6.29719 1.88719C6.42815 1.91076 6.55048 1.96874 6.65163 2.0552C6.75278 2.14165 6.82911 2.25346 6.87279 2.37916C6.91646 2.50485 6.92591 2.6399 6.90016 2.77044C6.63734 4.10073 6.7062 5.47527 7.10066 6.77262C7.49512 8.06997 8.20304 9.25021 9.16188 10.209C10.1207 11.1679 11.3009 11.8758 12.5983 12.2703C13.8957 12.6647 15.2702 12.7336 16.6005 12.4708C16.7312 12.4452 16.8664 12.4549 16.9921 12.4989C17.1178 12.5429 17.2295 12.6196 17.3158 12.7211ZM15.498 14.1161C15.3302 14.1245 15.1614 14.1292 14.9936 14.1292C12.4083 14.1265 9.92961 13.0981 8.10166 11.2698C6.27372 9.44151 5.24583 6.96267 5.2436 4.37732C5.2436 4.20951 5.2436 4.04076 5.25673 3.87294C4.25884 4.44717 3.40654 5.24343 2.76588 6.20003C2.12522 7.15662 1.71338 8.24787 1.56229 9.38923C1.4112 10.5306 1.5249 11.6914 1.89459 12.7817C2.26427 13.8721 2.88002 14.8627 3.69412 15.6768C4.50822 16.4909 5.49882 17.1066 6.58917 17.4763C7.67952 17.846 8.84034 17.9597 9.98169 17.8086C11.123 17.6575 12.2143 17.2457 13.1709 16.605C14.1275 15.9644 14.9237 15.1121 15.498 14.1142V14.1161Z" fill="#30EDE6"/>
</svg>
