<svg width="73" height="73" viewBox="0 0 73 73" fill="none" xmlns="http://www.w3.org/2000/svg">
<path d="M38.084 8.24902C39.7753 7.58926 41.6189 7.42188 43.4014 7.7666C45.0726 8.08984 46.6262 8.85067 47.9043 9.96875L48.1562 10.1973C49.1119 11.0969 49.8741 12.1823 50.3955 13.3867C50.917 14.5914 51.1865 15.8904 51.1885 17.2031C51.1891 17.5594 51.1696 17.9154 51.1299 18.2695L51.0771 18.7422H61.6484C62.7186 18.7422 63.7452 19.1672 64.502 19.9238C65.2587 20.6806 65.6846 21.7071 65.6846 22.7773V34.6777L65.6699 34.9053C65.6414 35.1303 65.571 35.3489 65.4609 35.5488C65.314 35.8157 65.1012 36.0413 64.8438 36.2041C64.5864 36.3668 64.2922 36.462 63.9883 36.4805C63.6842 36.4989 63.3797 36.4402 63.1045 36.3096V36.3086L62.7568 36.1582C61.9373 35.8322 61.0543 35.6899 60.1709 35.7441C59.1613 35.8062 58.1837 36.1229 57.3291 36.6641C56.4746 37.2052 55.771 37.9537 55.2832 38.8398C54.7954 39.7261 54.5391 40.7218 54.5391 41.7334C54.5391 42.7449 54.7955 43.7398 55.2832 44.626C55.7709 45.5121 56.4746 46.2606 57.3291 46.8018C58.1837 47.3429 59.1613 47.6596 60.1709 47.7217C61.1806 47.7837 62.19 47.5897 63.1045 47.1572H63.1055C63.3803 47.0267 63.6836 46.9672 63.9873 46.9854C64.2911 47.0035 64.5854 47.0984 64.8428 47.2607C65.1006 47.4235 65.3128 47.649 65.46 47.916C65.6071 48.1831 65.6847 48.4831 65.6846 48.7881V60.6885C65.6846 61.7587 65.2587 62.7852 64.502 63.542C63.7452 64.2987 62.7187 64.7246 61.6484 64.7246H21.5068C20.4368 64.7245 19.411 64.2986 18.6543 63.542C17.8975 62.7852 17.4717 61.7587 17.4717 60.6885V51.2422L16.999 51.2959C16.4127 51.3631 15.8211 51.3763 15.2324 51.334H15.2334C12.9192 51.1609 10.7452 50.1578 9.11133 48.5098C7.47746 46.8617 6.49298 44.6789 6.33984 42.3633V42.3613C6.24923 41.0471 6.43202 39.7282 6.87695 38.4883C7.32205 37.2481 8.01991 36.1131 8.92578 35.1562L8.92676 35.1553C9.8266 34.1996 10.9126 33.4375 12.1172 32.916C13.3217 32.3946 14.6201 32.1242 15.9326 32.1221C16.2891 32.1215 16.6457 32.141 17 32.1807L17.4717 32.2344V22.7773C17.4717 21.7071 17.8975 20.6806 18.6543 19.9238C19.411 19.1673 20.4369 18.7423 21.5068 18.7422H32.082L32.0293 18.2695C31.9634 17.683 31.9503 17.0917 31.9912 16.5029C32.1234 14.6922 32.7665 12.9559 33.8447 11.4951C34.9229 10.0344 36.3926 8.90883 38.084 8.24902ZM41.5781 11.207C40.5665 11.207 39.5708 11.4634 38.6846 11.9512C37.7985 12.4389 37.0499 13.1426 36.5088 13.9971C35.9676 14.8517 35.6519 15.8301 35.5898 16.8398C35.5279 17.8494 35.7219 18.8581 36.1543 19.7725V19.7734C36.2848 20.0486 36.3436 20.3522 36.3252 20.6562C36.3068 20.9603 36.2117 21.2552 36.0488 21.5127C35.886 21.77 35.6603 21.9821 35.3936 22.1289C35.1268 22.2757 34.8269 22.3526 34.5225 22.3525H21.082V34.6777L21.0684 34.9053C21.0398 35.1305 20.9685 35.3488 20.8584 35.5488C20.7115 35.8157 20.4996 36.0413 20.2422 36.2041C19.9849 36.3668 19.6906 36.462 19.3867 36.4805C19.0826 36.4989 18.7781 36.4402 18.5029 36.3096V36.3086L18.1553 36.1582C17.3357 35.8322 16.4528 35.6898 15.5693 35.7441C14.5597 35.8062 13.5822 36.1229 12.7275 36.6641C11.8729 37.2053 11.1684 37.9536 10.6807 38.8398C10.1929 39.7261 9.9375 40.7218 9.9375 41.7334C9.93756 42.7448 10.193 43.7399 10.6807 44.626C11.1684 45.5122 11.8729 46.2605 12.7275 46.8018C13.5822 47.343 14.5597 47.6596 15.5693 47.7217C16.4528 47.776 17.3357 47.6337 18.1553 47.3076L18.5029 47.1572C18.7781 47.0266 19.0826 46.9669 19.3867 46.9854C19.6906 47.0038 19.9849 47.099 20.2422 47.2617C20.4996 47.4245 20.7115 47.6502 20.8584 47.917C21.0053 48.1838 21.0821 48.4835 21.082 48.7881V61.1133H62.0732V51.2324L61.6016 51.2852C61.2473 51.3249 60.8907 51.3444 60.5342 51.3438H60.5332C58.0413 51.3491 55.6443 50.3859 53.8486 48.6582C52.0532 46.9305 50.9989 44.5731 50.9082 42.083C50.8175 39.5928 51.6971 37.1644 53.3623 35.3105C55.0274 33.4569 57.3476 32.3226 59.833 32.1465H59.834C60.4227 32.1042 61.0142 32.1164 61.6006 32.1836L62.0732 32.2383V22.3525H48.6338C48.3292 22.3526 48.0286 22.2758 47.7617 22.1289C47.4951 21.9821 47.2702 21.7699 47.1074 21.5127C46.9446 21.2552 46.8495 20.9603 46.8311 20.6562C46.8127 20.3522 46.8714 20.0486 47.002 19.7734V19.7725C47.4344 18.8581 47.6284 17.8494 47.5664 16.8398C47.5044 15.8301 47.1887 14.8517 46.6475 13.9971C46.1062 13.1425 45.3569 12.4389 44.4707 11.9512C43.5845 11.4635 42.5896 11.207 41.5781 11.207Z" fill="url(#paint0_linear_1735_2767)" stroke="url(#paint1_linear_1735_2767)" stroke-width="0.849558"/>
<defs>
<linearGradient id="paint0_linear_1735_2767" x1="36.0008" y1="7.16699" x2="6.2151" y2="64.7245" gradientUnits="userSpaceOnUse">
<stop stop-color="#A1A1A1"/>
<stop offset="0.5" stop-color="#00A6A6"/>
<stop offset="1" stop-color="#E5E5E5"/>
</linearGradient>
<linearGradient id="paint1_linear_1735_2767" x1="36.0008" y1="7.16699" x2="36.0008" y2="65.149" gradientUnits="userSpaceOnUse">
<stop stop-color="#E5E5E5"/>
<stop offset="0.5" stop-color="#30EDE6"/>
<stop offset="1" stop-color="#D4D4D4"/>
</linearGradient>
</defs>
</svg>
