<svg width="72" height="72" viewBox="0 0 72 72" fill="none" xmlns="http://www.w3.org/2000/svg">
<path d="M34.4355 6.89551C36.1269 6.23574 37.9705 6.06837 39.7529 6.41309C41.4241 6.73633 42.9777 7.49716 44.2559 8.61523L44.5078 8.84375C45.4634 9.74341 46.2256 10.8288 46.7471 12.0332C47.2686 13.2379 47.5381 14.5369 47.54 15.8496C47.5406 16.2059 47.5211 16.5619 47.4814 16.916L47.4287 17.3887H58C59.0702 17.3887 60.0968 17.8137 60.8535 18.5703C61.6103 19.3271 62.0361 20.3536 62.0361 21.4238V33.3242L62.0215 33.5518C61.993 33.7768 61.9225 33.9954 61.8125 34.1953C61.6656 34.4622 61.4528 34.6877 61.1953 34.8506C60.938 35.0133 60.6437 35.1085 60.3398 35.127C60.0358 35.1454 59.7313 35.0867 59.4561 34.9561V34.9551L59.1084 34.8047C58.2889 34.4787 57.4059 34.3363 56.5225 34.3906C55.5128 34.4527 54.5352 34.7694 53.6807 35.3105C52.8261 35.8517 52.1225 36.6002 51.6348 37.4863C51.147 38.3726 50.8906 39.3683 50.8906 40.3799C50.8907 41.3914 51.147 42.3863 51.6348 43.2725C52.1225 44.1586 52.8261 44.907 53.6807 45.4482C54.5352 45.9894 55.5128 46.3061 56.5225 46.3682C57.5322 46.4302 58.5416 46.2362 59.4561 45.8037H59.457C59.7319 45.6732 60.0351 45.6137 60.3389 45.6318C60.6426 45.65 60.937 45.7449 61.1943 45.9072C61.4521 46.07 61.6644 46.2955 61.8115 46.5625C61.9587 46.8296 62.0363 47.1296 62.0361 47.4346V59.335C62.0361 60.4052 61.6103 61.4317 60.8535 62.1885C60.0967 62.9452 59.0702 63.3711 58 63.3711H17.8584C16.7884 63.371 15.7625 62.9451 15.0059 62.1885C14.2491 61.4317 13.8232 60.4052 13.8232 59.335V49.8887L13.3506 49.9424C12.7642 50.0096 12.1726 50.0228 11.584 49.9805H11.585C9.27072 49.8074 7.09681 48.8043 5.46289 47.1562C3.82903 45.5082 2.84454 43.3254 2.69141 41.0098V41.0078C2.6008 39.6936 2.78358 38.3747 3.22852 37.1348C3.67361 35.8946 4.37147 34.7596 5.27734 33.8027L5.27832 33.8018C6.17817 32.8461 7.26413 32.084 8.46875 31.5625C9.6733 31.0411 10.9716 30.7707 12.2842 30.7686C12.6407 30.7679 12.9973 30.7874 13.3516 30.8271L13.8232 30.8809V21.4238C13.8232 20.3536 14.2491 19.3271 15.0059 18.5703C15.7625 17.8138 16.7884 17.3888 17.8584 17.3887H28.4336L28.3809 16.916C28.315 16.3295 28.3019 15.7382 28.3428 15.1494C28.475 13.3387 29.1181 11.6023 30.1963 10.1416C31.2745 8.6809 32.7441 7.55531 34.4355 6.89551ZM37.9297 9.85352C36.9181 9.85352 35.9224 10.1099 35.0361 10.5977C34.1501 11.0854 33.4015 11.7891 32.8604 12.6436C32.3191 13.4982 32.0035 14.4766 31.9414 15.4863C31.8794 16.4959 32.0734 17.5046 32.5059 18.4189V18.4199C32.6364 18.6951 32.6952 18.9987 32.6768 19.3027C32.6584 19.6068 32.5632 19.9017 32.4004 20.1592C32.2376 20.4165 32.0119 20.6286 31.7451 20.7754C31.4784 20.9222 31.1785 20.9991 30.874 20.999H17.4336V33.3242L17.4199 33.5518C17.3914 33.7769 17.3201 33.9953 17.21 34.1953C17.063 34.4622 16.8512 34.6877 16.5938 34.8506C16.3364 35.0133 16.0422 35.1085 15.7383 35.127C15.4342 35.1454 15.1297 35.0867 14.8545 34.9561V34.9551L14.5068 34.8047C13.6873 34.4786 12.8044 34.3363 11.9209 34.3906C10.9112 34.4527 9.93373 34.7694 9.0791 35.3105C8.22444 35.8518 7.52001 36.6001 7.03223 37.4863C6.54446 38.3726 6.28906 39.3683 6.28906 40.3799C6.28912 41.3913 6.54459 42.3864 7.03223 43.2725C7.51999 44.1587 8.22447 44.907 9.0791 45.4482C9.93374 45.9895 10.9112 46.3061 11.9209 46.3682C12.8044 46.4225 13.6873 46.2802 14.5068 45.9541L14.8545 45.8037C15.1297 45.6731 15.4342 45.6134 15.7383 45.6318C16.0421 45.6503 16.3365 45.7455 16.5938 45.9082C16.8511 46.071 17.0631 46.2967 17.21 46.5635C17.3568 46.8303 17.4336 47.13 17.4336 47.4346V59.7598H58.4248V49.8789L57.9531 49.9316C57.5989 49.9713 57.2422 49.9909 56.8857 49.9902H56.8848C54.3929 49.9956 51.9959 49.0324 50.2002 47.3047C48.4047 45.577 47.3505 43.2196 47.2598 40.7295C47.169 38.2393 48.0487 35.8108 49.7139 33.957C51.3789 32.1034 53.6991 30.9691 56.1846 30.793H56.1855C56.7743 30.7506 57.3657 30.7629 57.9521 30.8301L58.4248 30.8848V20.999H44.9854C44.6807 20.9991 44.3802 20.9223 44.1133 20.7754C43.8467 20.6286 43.6218 20.4164 43.459 20.1592C43.2961 19.9017 43.201 19.6068 43.1826 19.3027C43.1642 18.9987 43.223 18.6951 43.3535 18.4199V18.4189C43.7859 17.5046 43.9799 16.4959 43.918 15.4863C43.8559 14.4766 43.5402 13.4982 42.999 12.6436C42.4578 11.7889 41.7085 11.0854 40.8223 10.5977C39.9361 10.11 38.9412 9.85352 37.9297 9.85352Z" fill="url(#paint0_linear_1173_1480)" stroke="url(#paint1_linear_1173_1480)" stroke-width="0.849558"/>
<defs>
<linearGradient id="paint0_linear_1173_1480" x1="32.3524" y1="5.81348" x2="2.56667" y2="63.371" gradientUnits="userSpaceOnUse">
<stop/>
<stop offset="0.5" stop-color="#30EDE6"/>
<stop offset="1" stop-color="#666666"/>
</linearGradient>
<linearGradient id="paint1_linear_1173_1480" x1="32.3524" y1="5.81348" x2="32.3524" y2="63.7955" gradientUnits="userSpaceOnUse">
<stop/>
<stop offset="0.5" stop-color="#30EDE6"/>
<stop offset="1" stop-color="#666666"/>
</linearGradient>
</defs>
</svg>
