<svg width="72" height="73" viewBox="0 0 72 73" fill="none" xmlns="http://www.w3.org/2000/svg">
<path d="M35.6992 2.43262C36.1779 2.43263 36.6371 2.62256 36.9756 2.96094C37.3141 3.2995 37.5049 3.75948 37.5049 4.23828V13.583H55.7695C58.0227 13.583 60.1841 14.4781 61.7773 16.0713C63.3704 17.6644 64.2655 19.8251 64.2656 22.0781V53.2998C64.2656 55.5528 63.3704 57.7134 61.7773 59.3066C60.1841 60.8999 58.0227 61.7959 55.7695 61.7959H15.6279C13.3749 61.7958 11.2142 60.8998 9.62109 59.3066C8.02801 57.7134 7.13281 55.5529 7.13281 53.2998V22.0781C7.13294 19.8251 8.02798 17.6644 9.62109 16.0713C11.2142 14.4782 13.3749 13.5831 15.6279 13.583H33.8936V4.23828C33.8936 3.75948 34.0843 3.2995 34.4229 2.96094C34.7614 2.62258 35.2206 2.43262 35.6992 2.43262ZM15.6279 17.1934C14.3325 17.1935 13.0898 17.708 12.1738 18.624C11.2578 19.54 10.7433 20.7827 10.7432 22.0781V53.2998C10.7432 54.5953 11.2579 55.8378 12.1738 56.7539C13.0898 57.6699 14.3325 58.1845 15.6279 58.1846H55.7695C57.0651 58.1846 58.3085 57.67 59.2246 56.7539C60.1405 55.8378 60.6553 54.5952 60.6553 53.2998V22.0781C60.6551 20.7827 60.1406 19.54 59.2246 18.624C58.3085 17.7079 57.0651 17.1934 55.7695 17.1934H15.6279ZM25.6641 38.1143H45.7344C47.6917 38.1143 49.569 38.8915 50.9531 40.2754C52.3371 41.6594 53.1151 43.5368 53.1152 45.4941C53.1152 47.4515 52.3372 49.3288 50.9531 50.7129C49.569 52.097 47.6918 52.875 45.7344 52.875H25.6641C23.7066 52.875 21.8294 52.097 20.4453 50.7129C19.0612 49.3288 18.2832 47.4516 18.2832 45.4941C18.2833 43.5368 19.0613 41.6594 20.4453 40.2754C21.8294 38.8915 23.7068 38.1143 25.6641 38.1143ZM25.6641 41.7246C24.6642 41.7246 23.705 42.1221 22.998 42.8291C22.2912 43.536 21.8937 44.4945 21.8936 45.4941C21.8936 46.494 22.2911 47.4532 22.998 48.1602C23.705 48.8672 24.6642 49.2646 25.6641 49.2646H28.3184V41.7246H25.6641ZM31.9297 49.2646H39.4688V41.7246H31.9297V49.2646ZM43.0801 49.2646H45.7344C46.7342 49.2646 47.6934 48.8672 48.4004 48.1602C49.1073 47.4532 49.5049 46.4939 49.5049 45.4941C49.5048 44.4945 49.1072 43.536 48.4004 42.8291C47.6934 42.1221 46.7342 41.7246 45.7344 41.7246H43.0801V49.2646ZM22.3164 27.1855C22.8498 26.9647 23.4367 26.907 24.0029 27.0195C24.5694 27.1322 25.0906 27.4109 25.499 27.8193C25.9072 28.2277 26.1852 28.7481 26.2979 29.3145C26.4105 29.8809 26.3528 30.4684 26.1318 31.002C25.9108 31.5354 25.5358 31.9917 25.0557 32.3125C24.5755 32.6332 24.011 32.8047 23.4336 32.8047C22.6593 32.8047 21.9168 32.4966 21.3691 31.9492C20.8215 31.4015 20.5137 30.6583 20.5137 29.8838C20.5137 29.3062 20.685 28.7419 21.0059 28.2617C21.3268 27.7815 21.7828 27.4066 22.3164 27.1855ZM46.8467 27.1855C47.3802 26.9645 47.9678 26.9069 48.5342 27.0195C49.1007 27.1322 49.6209 27.4109 50.0293 27.8193C50.4377 28.2278 50.7164 28.748 50.8291 29.3145C50.9417 29.8809 50.8841 30.4684 50.6631 31.002C50.442 31.5355 50.0671 31.9917 49.5869 32.3125C49.1068 32.6332 48.5422 32.8046 47.9648 32.8047C47.1903 32.8047 46.4471 32.4969 45.8994 31.9492C45.3517 31.4015 45.0439 30.6583 45.0439 29.8838C45.044 29.3064 45.2154 28.7419 45.5361 28.2617C45.857 27.7815 46.3132 27.4066 46.8467 27.1855Z" fill="url(#paint0_linear_1173_1488)" stroke="url(#paint1_linear_1173_1488)" stroke-width="0.849558"/>
<defs>
<linearGradient id="paint0_linear_1173_1488" x1="35.6992" y1="2.00781" x2="35.6992" y2="62.2202" gradientUnits="userSpaceOnUse">
<stop/>
<stop offset="0.5" stop-color="#30EDE6"/>
<stop offset="1" stop-color="#666666"/>
</linearGradient>
<linearGradient id="paint1_linear_1173_1488" x1="74.354" y1="-11.6913" x2="35.6992" y2="62.2202" gradientUnits="userSpaceOnUse">
<stop/>
<stop offset="0.5" stop-color="#30EDE6"/>
<stop offset="1" stop-color="#666666"/>
</linearGradient>
</defs>
</svg>
