<svg width="73" height="73" viewBox="0 0 73 73" fill="none" xmlns="http://www.w3.org/2000/svg">
<path d="M36.3477 2.57422C36.8263 2.57423 37.2855 2.76416 37.624 3.10254C37.9626 3.4411 38.1533 3.90108 38.1533 4.37988V13.7246H56.418C58.6711 13.7246 60.8326 14.6197 62.4258 16.2129C64.0189 17.806 64.9139 19.9668 64.9141 22.2197V53.4414C64.9141 55.6944 64.0188 57.855 62.4258 59.4482C60.8326 61.0415 58.6711 61.9375 56.418 61.9375H16.2764C14.0234 61.9374 11.8627 61.0414 10.2695 59.4482C8.67645 57.855 7.78125 55.6945 7.78125 53.4414V22.2197C7.78138 19.9667 8.67642 17.806 10.2695 16.2129C11.8627 14.6198 14.0234 13.7247 16.2764 13.7246H34.542V4.37988C34.542 3.90108 34.7327 3.4411 35.0713 3.10254C35.4098 2.76418 35.869 2.57422 36.3477 2.57422ZM16.2764 17.335C14.981 17.3351 13.7383 17.8496 12.8223 18.7656C11.9063 19.6816 11.3917 20.9243 11.3916 22.2197V53.4414C11.3916 54.7369 11.9063 55.9794 12.8223 56.8955C13.7383 57.8115 14.981 58.3261 16.2764 58.3262H56.418C57.7135 58.3262 58.9569 57.8116 59.873 56.8955C60.789 55.9794 61.3037 54.7368 61.3037 53.4414V22.2197C61.3036 20.9243 60.789 19.6816 59.873 18.7656C58.9569 17.8495 57.7135 17.335 56.418 17.335H16.2764ZM26.3125 38.2559H46.3828C48.3401 38.2559 50.2175 39.0331 51.6016 40.417C52.9856 41.801 53.7636 43.6784 53.7637 45.6357C53.7637 47.5931 52.9856 49.4704 51.6016 50.8545C50.2174 52.2386 48.3403 53.0166 46.3828 53.0166H26.3125C24.3551 53.0166 22.4779 52.2386 21.0938 50.8545C19.7097 49.4704 18.9316 47.5932 18.9316 45.6357C18.9317 43.6784 19.7097 41.801 21.0938 40.417C22.4778 39.0331 24.3552 38.2559 26.3125 38.2559ZM26.3125 41.8662C25.3127 41.8662 24.3535 42.2637 23.6465 42.9707C22.9397 43.6776 22.5421 44.6361 22.542 45.6357C22.542 46.6356 22.9395 47.5948 23.6465 48.3018C24.3535 49.0088 25.3127 49.4062 26.3125 49.4062H28.9668V41.8662H26.3125ZM32.5781 49.4062H40.1172V41.8662H32.5781V49.4062ZM43.7285 49.4062H46.3828C47.3827 49.4062 48.3418 49.0088 49.0488 48.3018C49.7558 47.5948 50.1533 46.6355 50.1533 45.6357C50.1532 44.6361 49.7556 43.6776 49.0488 42.9707C48.3418 42.2637 47.3827 41.8662 46.3828 41.8662H43.7285V49.4062ZM22.9648 27.3271C23.4982 27.1063 24.0852 27.0486 24.6514 27.1611C25.2179 27.2738 25.739 27.5525 26.1475 27.9609C26.5557 28.3693 26.8336 28.8897 26.9463 29.4561C27.0589 30.0225 27.0013 30.61 26.7803 31.1436C26.5592 31.677 26.1842 32.1333 25.7041 32.4541C25.224 32.7748 24.6594 32.9463 24.082 32.9463C23.3077 32.9463 22.5652 32.6382 22.0176 32.0908C21.4699 31.5431 21.1621 30.7999 21.1621 30.0254C21.1621 29.4478 21.3334 28.8835 21.6543 28.4033C21.9752 27.9231 22.4312 27.5482 22.9648 27.3271ZM47.4951 27.3271C48.0287 27.1061 48.6162 27.0485 49.1826 27.1611C49.7491 27.2738 50.2693 27.5525 50.6777 27.9609C51.0861 28.3694 51.3649 28.8896 51.4775 29.4561C51.5901 30.0225 51.5325 30.61 51.3115 31.1436C51.0905 31.6771 50.7155 32.1333 50.2354 32.4541C49.7552 32.7748 49.1907 32.9462 48.6133 32.9463C47.8388 32.9463 47.0955 32.6385 46.5479 32.0908C46.0002 31.5431 45.6924 30.7999 45.6924 30.0254C45.6924 29.448 45.8638 28.8835 46.1846 28.4033C46.5054 27.9231 46.9616 27.5482 47.4951 27.3271Z" fill="url(#paint0_linear_1735_2756)" stroke="url(#paint1_linear_1735_2756)" stroke-width="0.849558"/>
<defs>
<linearGradient id="paint0_linear_1735_2756" x1="36.3476" y1="2.14941" x2="36.3476" y2="62.3618" gradientUnits="userSpaceOnUse">
<stop stop-color="#D4D4D4"/>
<stop offset="0.5" stop-color="#00A6A6"/>
<stop offset="1" stop-color="#E5E5E5"/>
</linearGradient>
<linearGradient id="paint1_linear_1735_2756" x1="75.0025" y1="-11.5497" x2="36.3476" y2="62.3618" gradientUnits="userSpaceOnUse">
<stop stop-color="#D4D4D4"/>
<stop offset="0.5" stop-color="#30EDE6"/>
<stop offset="1" stop-color="#D4D4D4"/>
</linearGradient>
</defs>
</svg>
