<svg width="30" height="30" viewBox="0 0 30 30" fill="none" xmlns="http://www.w3.org/2000/svg">
<rect x="0.639346" y="0.993044" width="28.5408" height="28.5408" rx="14.2704" fill="url(#paint0_linear_667_2409)"/>
<rect x="0.639346" y="0.993044" width="28.5408" height="28.5408" rx="14.2704" stroke="url(#paint1_linear_667_2409)" stroke-width="0.731816"/>
<mask id="path-2-outside-1_667_2409" maskUnits="userSpaceOnUse" x="8" y="9.01178" width="14" height="14" fill="black">
<rect fill="white" x="8" y="9.01178" width="14" height="14"/>
<path d="M14.9301 10.1744C15.1654 9.95753 15.5278 9.95761 15.7631 10.1744L16.6547 10.9967C16.7955 11.1264 16.9887 11.184 17.1772 11.151L18.3715 10.94C18.6868 10.8848 18.9922 11.0814 19.0727 11.3912L19.3774 12.5641C19.4257 12.7495 19.5581 12.9021 19.7348 12.9762L20.852 13.4449C21.1472 13.5689 21.2985 13.8995 21.1987 14.2037L20.8207 15.3551C20.7611 15.5372 20.7902 15.7372 20.8989 15.8951L21.5854 16.8941C21.7663 17.1578 21.7152 17.5164 21.4672 17.7184L20.5258 18.483C20.3772 18.6039 20.2943 18.7876 20.3002 18.9791L20.3373 20.191C20.3472 20.5108 20.1103 20.785 19.7924 20.8209L18.5873 20.9557C18.3968 20.977 18.2269 21.0861 18.1284 21.2506L17.5053 22.2906C17.3406 22.565 16.9924 22.6668 16.7055 22.525L15.6196 21.9869C15.4478 21.9019 15.2455 21.9019 15.0737 21.9869L13.9877 22.525C13.7008 22.667 13.3527 22.565 13.1879 22.2906L12.5649 21.2506C12.4664 21.0862 12.2963 20.9771 12.1059 20.9557L10.9018 20.8209C10.5836 20.7853 10.346 20.511 10.3559 20.191L10.394 18.9791C10.3999 18.7877 10.3159 18.6039 10.1674 18.483L9.22699 17.7184C8.97862 17.5164 8.92671 17.158 9.10785 16.8941L9.79535 15.8951C9.90393 15.7372 9.93212 15.5372 9.8725 15.3551L9.49457 14.2037C9.39474 13.8994 9.54587 13.5688 9.84125 13.4449L10.9594 12.9762C11.1359 12.902 11.2676 12.7493 11.3159 12.5641L11.6205 11.3912C11.7011 11.0814 12.0064 10.8848 12.3217 10.94L13.5161 11.151C13.7047 11.184 13.8987 11.1266 14.0395 10.9967L14.9301 10.1744ZM13.4594 16.9879C13.3624 16.9879 13.2836 17.0667 13.2836 17.1637C13.2836 17.2606 13.3625 17.3395 13.4594 17.3395H17.2338C17.3308 17.3395 17.4096 17.2606 17.4096 17.1637C17.4096 17.0667 17.3308 16.9879 17.2338 16.9879H13.4594ZM12.143 15.5836C12.046 15.5836 11.9672 15.6624 11.9672 15.7594C11.9673 15.8562 12.0461 15.9352 12.143 15.9352H18.5512C18.648 15.935 18.7259 15.8561 18.726 15.7594C18.726 15.6625 18.648 15.5838 18.5512 15.5836H12.143ZM15.3461 11.3707C14.8856 11.3707 14.5121 11.7441 14.5121 12.2047C14.5125 12.6649 14.8858 13.0377 15.3461 13.0377C15.8063 13.0375 16.1797 12.6648 16.1801 12.2047C16.1801 11.7442 15.8066 11.3709 15.3461 11.3707Z"/>
</mask>
<path d="M14.9301 10.1744C15.1654 9.95753 15.5278 9.95761 15.7631 10.1744L16.6547 10.9967C16.7955 11.1264 16.9887 11.184 17.1772 11.151L18.3715 10.94C18.6868 10.8848 18.9922 11.0814 19.0727 11.3912L19.3774 12.5641C19.4257 12.7495 19.5581 12.9021 19.7348 12.9762L20.852 13.4449C21.1472 13.5689 21.2985 13.8995 21.1987 14.2037L20.8207 15.3551C20.7611 15.5372 20.7902 15.7372 20.8989 15.8951L21.5854 16.8941C21.7663 17.1578 21.7152 17.5164 21.4672 17.7184L20.5258 18.483C20.3772 18.6039 20.2943 18.7876 20.3002 18.9791L20.3373 20.191C20.3472 20.5108 20.1103 20.785 19.7924 20.8209L18.5873 20.9557C18.3968 20.977 18.2269 21.0861 18.1284 21.2506L17.5053 22.2906C17.3406 22.565 16.9924 22.6668 16.7055 22.525L15.6196 21.9869C15.4478 21.9019 15.2455 21.9019 15.0737 21.9869L13.9877 22.525C13.7008 22.667 13.3527 22.565 13.1879 22.2906L12.5649 21.2506C12.4664 21.0862 12.2963 20.9771 12.1059 20.9557L10.9018 20.8209C10.5836 20.7853 10.346 20.511 10.3559 20.191L10.394 18.9791C10.3999 18.7877 10.3159 18.6039 10.1674 18.483L9.22699 17.7184C8.97862 17.5164 8.92671 17.158 9.10785 16.8941L9.79535 15.8951C9.90393 15.7372 9.93212 15.5372 9.8725 15.3551L9.49457 14.2037C9.39474 13.8994 9.54587 13.5688 9.84125 13.4449L10.9594 12.9762C11.1359 12.902 11.2676 12.7493 11.3159 12.5641L11.6205 11.3912C11.7011 11.0814 12.0064 10.8848 12.3217 10.94L13.5161 11.151C13.7047 11.184 13.8987 11.1266 14.0395 10.9967L14.9301 10.1744ZM13.4594 16.9879C13.3624 16.9879 13.2836 17.0667 13.2836 17.1637C13.2836 17.2606 13.3625 17.3395 13.4594 17.3395H17.2338C17.3308 17.3395 17.4096 17.2606 17.4096 17.1637C17.4096 17.0667 17.3308 16.9879 17.2338 16.9879H13.4594ZM12.143 15.5836C12.046 15.5836 11.9672 15.6624 11.9672 15.7594C11.9673 15.8562 12.0461 15.9352 12.143 15.9352H18.5512C18.648 15.935 18.7259 15.8561 18.726 15.7594C18.726 15.6625 18.648 15.5838 18.5512 15.5836H12.143ZM15.3461 11.3707C14.8856 11.3707 14.5121 11.7441 14.5121 12.2047C14.5125 12.6649 14.8858 13.0377 15.3461 13.0377C15.8063 13.0375 16.1797 12.6648 16.1801 12.2047C16.1801 11.7442 15.8066 11.3709 15.3461 11.3707Z" fill="url(#paint2_linear_667_2409)"/>
<path d="M14.9301 10.1744L14.7945 10.0274L14.7944 10.0275L14.9301 10.1744ZM15.7631 10.1744L15.8987 10.0274L15.8986 10.0273L15.7631 10.1744ZM16.6547 10.9967L16.5191 11.1437L16.5192 11.1438L16.6547 10.9967ZM17.1772 11.151L17.2117 11.348L17.212 11.3479L17.1772 11.151ZM18.3715 10.94L18.337 10.743L18.3367 10.7431L18.3715 10.94ZM19.0727 11.3912L19.2663 11.3409L19.2663 11.3409L19.0727 11.3912ZM19.3774 12.5641L19.1838 12.6143L19.1838 12.6145L19.3774 12.5641ZM19.7348 12.9762L19.8122 12.7917L19.8121 12.7917L19.7348 12.9762ZM20.852 13.4449L20.9294 13.2605L20.9294 13.2605L20.852 13.4449ZM21.1987 14.2037L21.3887 14.2661L21.3887 14.266L21.1987 14.2037ZM20.8207 15.3551L20.6307 15.2927L20.6307 15.2928L20.8207 15.3551ZM20.8989 15.8951L21.0637 15.7818L21.0636 15.7818L20.8989 15.8951ZM21.5854 16.8941L21.7503 16.781L21.7502 16.7809L21.5854 16.8941ZM21.4672 17.7184L21.5933 17.8736L21.5935 17.8734L21.4672 17.7184ZM20.5258 18.483L20.3997 18.3278L20.3996 18.3279L20.5258 18.483ZM20.3002 18.9791L20.5001 18.973L20.5001 18.9729L20.3002 18.9791ZM20.3373 20.191L20.1374 20.1971L20.1374 20.1972L20.3373 20.191ZM19.7924 20.8209L19.8146 21.0197L19.8149 21.0196L19.7924 20.8209ZM18.5873 20.9557L18.5651 20.7569L18.5651 20.7569L18.5873 20.9557ZM18.1284 21.2506L17.9568 21.1478L17.9568 21.1478L18.1284 21.2506ZM17.5053 22.2906L17.6768 22.3935L17.6769 22.3934L17.5053 22.2906ZM16.7055 22.525L16.6167 22.7042L16.6169 22.7043L16.7055 22.525ZM15.6196 21.9869L15.7084 21.8077L15.7083 21.8077L15.6196 21.9869ZM15.0737 21.9869L14.985 21.8077L14.9849 21.8077L15.0737 21.9869ZM13.9877 22.525L14.0765 22.7042L14.0765 22.7042L13.9877 22.525ZM13.1879 22.2906L13.0164 22.3934L13.0165 22.3936L13.1879 22.2906ZM12.5649 21.2506L12.7364 21.1478L12.7364 21.1478L12.5649 21.2506ZM12.1059 20.9557L12.1282 20.7569L12.1281 20.7569L12.1059 20.9557ZM10.9018 20.8209L10.924 20.6221H10.924L10.9018 20.8209ZM10.3559 20.191L10.156 20.1847L10.156 20.1848L10.3559 20.191ZM10.394 18.9791L10.5939 18.9854L10.5939 18.9853L10.394 18.9791ZM10.1674 18.483L10.2937 18.3279L10.2936 18.3278L10.1674 18.483ZM9.22699 17.7184L9.35316 17.5632L9.35316 17.5632L9.22699 17.7184ZM9.10785 16.8941L8.94309 16.7808L8.94296 16.7809L9.10785 16.8941ZM9.79535 15.8951L9.9601 16.0085L9.96013 16.0085L9.79535 15.8951ZM9.8725 15.3551L10.0626 15.2928L10.0625 15.2927L9.8725 15.3551ZM9.49457 14.2037L9.30453 14.266L9.30454 14.2661L9.49457 14.2037ZM9.84125 13.4449L9.76392 13.2605L9.7639 13.2605L9.84125 13.4449ZM10.9594 12.9762L11.0367 13.1606L11.0369 13.1605L10.9594 12.9762ZM11.3159 12.5641L11.5094 12.6144L11.5094 12.6143L11.3159 12.5641ZM11.6205 11.3912L11.427 11.3409L11.427 11.3409L11.6205 11.3912ZM12.3217 10.94L12.3565 10.7431L12.3562 10.743L12.3217 10.94ZM13.5161 11.151L13.4813 11.3479L13.4815 11.348L13.5161 11.151ZM14.0395 10.9967L14.1751 11.1436L14.1752 11.1436L14.0395 10.9967ZM13.2836 17.1637H13.0836V17.1637L13.2836 17.1637ZM17.4096 17.1637L17.6096 17.1637V17.1637H17.4096ZM11.9672 15.7594H11.7672L11.7672 15.7596L11.9672 15.7594ZM18.5512 15.9352V16.1352L18.5515 16.1352L18.5512 15.9352ZM18.726 15.7594L18.926 15.7596V15.7594H18.726ZM18.5512 15.5836L18.5515 15.3836H18.5512V15.5836ZM15.3461 11.3707L15.3462 11.1707H15.3461V11.3707ZM14.5121 12.2047H14.3121L14.3121 12.2049L14.5121 12.2047ZM15.3461 13.0377V13.2377H15.3462L15.3461 13.0377ZM16.1801 12.2047L16.3801 12.2049V12.2047H16.1801ZM14.9301 10.1744L15.0657 10.3215C15.2243 10.1752 15.4688 10.1752 15.6276 10.3215L15.7631 10.1744L15.8986 10.0273C15.5868 9.74001 15.1064 9.73984 14.7945 10.0274L14.9301 10.1744ZM15.7631 10.1744L15.6275 10.3214L16.5191 11.1437L16.6547 10.9967L16.7903 10.8497L15.8987 10.0274L15.7631 10.1744ZM16.6547 10.9967L16.5192 11.1438C16.7052 11.3152 16.9611 11.3919 17.2117 11.348L17.1772 11.151L17.1427 10.954C17.0162 10.9761 16.8857 10.9376 16.7902 10.8496L16.6547 10.9967ZM17.1772 11.151L17.212 11.3479L18.4063 11.137L18.3715 10.94L18.3367 10.7431L17.1424 10.954L17.1772 11.151ZM18.3715 10.94L18.406 11.137C18.6186 11.0998 18.8248 11.2324 18.8791 11.4415L19.0727 11.3912L19.2663 11.3409C19.1596 10.9303 18.755 10.6698 18.337 10.743L18.3715 10.94ZM19.0727 11.3912L18.8791 11.4415L19.1838 12.6143L19.3774 12.5641L19.571 12.5138L19.2663 11.3409L19.0727 11.3912ZM19.3774 12.5641L19.1838 12.6145C19.2479 12.8603 19.4233 13.0624 19.6575 13.1606L19.7348 12.9762L19.8121 12.7917C19.6929 12.7417 19.6035 12.6386 19.5709 12.5137L19.3774 12.5641ZM19.7348 12.9762L19.6574 13.1606L20.7746 13.6293L20.852 13.4449L20.9294 13.2605L19.8122 12.7917L19.7348 12.9762ZM20.852 13.4449L20.7746 13.6293C20.9739 13.713 21.0759 13.9364 21.0086 14.1414L21.1987 14.2037L21.3887 14.266C21.521 13.8626 21.3205 13.4247 20.9294 13.2605L20.852 13.4449ZM21.1987 14.2037L21.0086 14.1413L20.6307 15.2927L20.8207 15.3551L21.0108 15.4175L21.3887 14.2661L21.1987 14.2037ZM20.8207 15.3551L20.6307 15.2928C20.5515 15.5345 20.5903 15.7994 20.7341 16.0085L20.8989 15.8951L21.0636 15.7818C20.9902 15.675 20.9706 15.5399 21.0108 15.4174L20.8207 15.3551ZM20.8989 15.8951L20.734 16.0084L21.4206 17.0074L21.5854 16.8941L21.7502 16.7809L21.0637 15.7818L20.8989 15.8951ZM21.5854 16.8941L21.4205 17.0073C21.5427 17.1854 21.508 17.4272 21.3409 17.5633L21.4672 17.7184L21.5935 17.8734C21.9224 17.6055 21.99 17.1303 21.7503 16.781L21.5854 16.8941ZM21.4672 17.7184L21.3411 17.5631L20.3997 18.3278L20.5258 18.483L20.6519 18.6382L21.5933 17.8736L21.4672 17.7184ZM20.5258 18.483L20.3996 18.3279C20.202 18.4886 20.0925 18.7322 20.1003 18.9853L20.3002 18.9791L20.5001 18.9729C20.4961 18.843 20.5524 18.7192 20.652 18.6382L20.5258 18.483ZM20.3002 18.9791L20.1003 18.9852L20.1374 20.1971L20.3373 20.191L20.5372 20.1849L20.5001 18.973L20.3002 18.9791ZM20.3373 20.191L20.1374 20.1972C20.1441 20.4131 19.9841 20.5979 19.7699 20.6222L19.7924 20.8209L19.8149 21.0196C20.2364 20.972 20.5504 20.6085 20.5372 20.1848L20.3373 20.191ZM19.7924 20.8209L19.7702 20.6221L18.5651 20.7569L18.5873 20.9557L18.6096 21.1544L19.8146 21.0197L19.7924 20.8209ZM18.5873 20.9557L18.5651 20.7569C18.3126 20.7852 18.0874 20.9298 17.9568 21.1478L18.1284 21.2506L18.2999 21.3534C18.3664 21.2425 18.481 21.1688 18.6096 21.1544L18.5873 20.9557ZM18.1284 21.2506L17.9568 21.1478L17.3337 22.1878L17.5053 22.2906L17.6769 22.3934L18.2999 21.3534L18.1284 21.2506ZM17.5053 22.2906L17.3338 22.1877C17.2229 22.3726 16.9879 22.4415 16.7942 22.3457L16.7055 22.525L16.6169 22.7043C16.9969 22.8922 17.4584 22.7575 17.6768 22.3935L17.5053 22.2906ZM16.7055 22.525L16.7943 22.3458L15.7084 21.8077L15.6196 21.9869L15.5308 22.1661L16.6167 22.7042L16.7055 22.525ZM15.6196 21.9869L15.7083 21.8077C15.4806 21.6949 15.2126 21.695 14.985 21.8077L15.0737 21.9869L15.1624 22.1662C15.2783 22.1088 15.415 22.1088 15.5308 22.1662L15.6196 21.9869ZM15.0737 21.9869L14.9849 21.8077L13.8989 22.3458L13.9877 22.525L14.0765 22.7042L15.1625 22.1661L15.0737 21.9869ZM13.9877 22.525L13.899 22.3458C13.7054 22.4416 13.4705 22.3727 13.3594 22.1877L13.1879 22.2906L13.0165 22.3936C13.2349 22.7574 13.6963 22.8925 14.0765 22.7042L13.9877 22.525ZM13.1879 22.2906L13.3595 22.1878L12.7364 21.1478L12.5649 21.2506L12.3933 21.3534L13.0164 22.3934L13.1879 22.2906ZM12.5649 21.2506L12.7364 21.1478C12.6058 20.9298 12.3805 20.7853 12.1282 20.7569L12.1059 20.9557L12.0836 21.1544C12.2121 21.1689 12.3269 21.2426 12.3933 21.3534L12.5649 21.2506ZM12.1059 20.9557L12.1281 20.7569L10.924 20.6221L10.9018 20.8209L10.8795 21.0197L12.0836 21.1544L12.1059 20.9557ZM10.9018 20.8209L10.924 20.6221C10.7094 20.5981 10.5491 20.4131 10.5558 20.1972L10.3559 20.191L10.156 20.1848C10.1429 20.609 10.4577 20.9724 10.8795 21.0197L10.9018 20.8209ZM10.3559 20.191L10.5558 20.1973L10.5939 18.9854L10.394 18.9791L10.1941 18.9728L10.156 20.1847L10.3559 20.191ZM10.394 18.9791L10.5939 18.9853C10.6017 18.7316 10.4905 18.4881 10.2937 18.3279L10.1674 18.483L10.0412 18.6381C10.1413 18.7197 10.1981 18.8438 10.1941 18.9729L10.394 18.9791ZM10.1674 18.483L10.2936 18.3278L9.35316 17.5632L9.22699 17.7184L9.10081 17.8735L10.0412 18.6382L10.1674 18.483ZM9.22699 17.7184L9.35316 17.5632C9.18551 17.4269 9.15063 17.1852 9.27273 17.0073L9.10785 16.8941L8.94296 16.7809C8.70278 17.1308 8.77172 17.606 9.10082 17.8735L9.22699 17.7184ZM9.10785 16.8941L9.2726 17.0075L9.9601 16.0085L9.79535 15.8951L9.63059 15.7817L8.94309 16.7808L9.10785 16.8941ZM9.79535 15.8951L9.96013 16.0085C10.1043 15.7988 10.1414 15.5337 10.0626 15.2928L9.8725 15.3551L9.68243 15.4173C9.72279 15.5406 9.70352 15.6757 9.63056 15.7818L9.79535 15.8951ZM9.8725 15.3551L10.0625 15.2927L9.68459 14.1413L9.49457 14.2037L9.30454 14.2661L9.68247 15.4175L9.8725 15.3551ZM9.49457 14.2037L9.6846 14.1414C9.6173 13.9362 9.71927 13.7129 9.91859 13.6294L9.84125 13.4449L9.7639 13.2605C9.37246 13.4246 9.17219 13.8626 9.30453 14.266L9.49457 14.2037ZM9.84125 13.4449L9.91857 13.6294L11.0367 13.1606L10.9594 12.9762L10.8821 12.7917L9.76392 13.2605L9.84125 13.4449ZM10.9594 12.9762L11.0369 13.1605C11.271 13.0621 11.4456 12.8598 11.5094 12.6144L11.3159 12.5641L11.1223 12.5137C11.0897 12.6389 11.0007 12.7418 10.8819 12.7918L10.9594 12.9762ZM11.3159 12.5641L11.5094 12.6143L11.8141 11.4415L11.6205 11.3912L11.427 11.3409L11.1223 12.5138L11.3159 12.5641ZM11.6205 11.3912L11.8141 11.4415C11.8684 11.2325 12.0746 11.0998 12.2872 11.137L12.3217 10.94L12.3562 10.743C11.9382 10.6699 11.5337 10.9303 11.427 11.3409L11.6205 11.3912ZM12.3217 10.94L12.2869 11.137L13.4813 11.3479L13.5161 11.151L13.5508 10.954L12.3565 10.7431L12.3217 10.94ZM13.5161 11.151L13.4815 11.348C13.7319 11.3919 13.9888 11.3157 14.1751 11.1436L14.0395 10.9967L13.9038 10.8497C13.8086 10.9376 13.6775 10.9762 13.5506 10.954L13.5161 11.151ZM14.0395 10.9967L14.1752 11.1436L15.0658 10.3214L14.9301 10.1744L14.7944 10.0275L13.9038 10.8497L14.0395 10.9967ZM13.4594 16.9879V16.7879C13.252 16.7879 13.0836 16.9563 13.0836 17.1637H13.2836H13.4836C13.4836 17.1772 13.4729 17.1879 13.4594 17.1879V16.9879ZM13.2836 17.1637L13.0836 17.1637C13.0837 17.371 13.252 17.5395 13.4594 17.5395V17.3395V17.1395C13.473 17.1395 13.4836 17.1502 13.4836 17.1636L13.2836 17.1637ZM13.4594 17.3395V17.5395H17.2338V17.3395V17.1395H13.4594V17.3395ZM17.2338 17.3395V17.5395C17.4413 17.5395 17.6096 17.371 17.6096 17.1637L17.4096 17.1637L17.2096 17.1636C17.2096 17.1502 17.2203 17.1395 17.2338 17.1395V17.3395ZM17.4096 17.1637H17.6096C17.6096 16.9563 17.4412 16.7879 17.2338 16.7879V16.9879V17.1879C17.2203 17.1879 17.2096 17.1772 17.2096 17.1637H17.4096ZM17.2338 16.9879V16.7879H13.4594V16.9879V17.1879H17.2338V16.9879ZM12.143 15.5836V15.3836C11.9356 15.3836 11.7672 15.552 11.7672 15.7594H11.9672H12.1672C12.1672 15.7729 12.1565 15.7836 12.143 15.7836V15.5836ZM11.9672 15.7594L11.7672 15.7596C11.7675 15.9665 11.9354 16.1352 12.143 16.1352V15.9352V15.7352C12.1568 15.7352 12.1672 15.746 12.1672 15.7591L11.9672 15.7594ZM12.143 15.9352V16.1352H18.5512V15.9352V15.7352H12.143V15.9352ZM18.5512 15.9352L18.5515 16.1352C18.7598 16.1348 18.9258 15.9653 18.926 15.7596L18.726 15.7594L18.526 15.7591C18.526 15.747 18.5361 15.7352 18.5509 15.7352L18.5512 15.9352ZM18.726 15.7594H18.926C18.926 15.5532 18.7597 15.3839 18.5515 15.3836L18.5512 15.5836L18.5509 15.7836C18.5364 15.7836 18.526 15.7719 18.526 15.7594H18.726ZM18.5512 15.5836V15.3836H12.143V15.5836V15.7836H18.5512V15.5836ZM15.3461 11.3707V11.1707C14.7751 11.1707 14.3121 11.6337 14.3121 12.2047H14.5121H14.7121C14.7121 11.8546 14.996 11.5707 15.3461 11.5707V11.3707ZM14.5121 12.2047L14.3121 12.2049C14.3126 12.7756 14.7755 13.2377 15.3461 13.2377V13.0377V12.8377C14.9961 12.8377 14.7124 12.5543 14.7121 12.2045L14.5121 12.2047ZM15.3461 13.0377L15.3462 13.2377C15.9166 13.2375 16.3796 12.7755 16.3801 12.2049L16.1801 12.2047L15.9801 12.2045C15.9798 12.5541 15.6961 12.8376 15.3461 12.8377L15.3461 13.0377ZM16.1801 12.2047H16.3801C16.3801 11.6337 15.917 11.1709 15.3462 11.1707L15.3461 11.3707L15.3461 11.5707C15.6962 11.5708 15.9801 11.8547 15.9801 12.2047H16.1801Z" fill="url(#paint3_linear_667_2409)" mask="url(#path-2-outside-1_667_2409)"/>
<path d="M15.5616 12.994C15.4299 12.2771 15.3694 11.0604 16.3114 10.3606C17.8476 9.21942 21.3113 10.4922 21.1357 9.13161C20.9602 7.77098 13.4584 6.89318 14.029 11.019" stroke="#30EDE6" stroke-width="0.263347"/>
<defs>
<linearGradient id="paint0_linear_667_2409" x1="14.9098" y1="0.627136" x2="14.9098" y2="29.8998" gradientUnits="userSpaceOnUse">
<stop/>
<stop offset="1" stop-color="#3D3D3D"/>
</linearGradient>
<linearGradient id="paint1_linear_667_2409" x1="14.9098" y1="0.627136" x2="14.9098" y2="29.8998" gradientUnits="userSpaceOnUse">
<stop stop-color="white" stop-opacity="0"/>
<stop offset="1" stop-color="white" stop-opacity="0.24"/>
</linearGradient>
<linearGradient id="paint2_linear_667_2409" x1="8.50002" y1="11.3049" x2="18.2449" y2="23.0998" gradientUnits="userSpaceOnUse">
<stop stop-color="#D9D9D9" stop-opacity="0.5"/>
<stop offset="0.5" stop-color="#30EDE6"/>
<stop offset="1" stop-color="#2C2C2C" stop-opacity="0.6"/>
</linearGradient>
<linearGradient id="paint3_linear_667_2409" x1="15.3467" y1="10.0118" x2="15.3467" y2="22.5889" gradientUnits="userSpaceOnUse">
<stop/>
<stop offset="1" stop-color="#30EDE6"/>
</linearGradient>
</defs>
</svg>
