<svg width="20" height="20" viewBox="0 0 20 20" fill="none" xmlns="http://www.w3.org/2000/svg">
<path d="M5.62598 2.65039H14.375L14.4756 2.66113C14.5081 2.66824 14.5399 2.67857 14.5703 2.69238C14.6317 2.72033 14.687 2.76172 14.7314 2.8125L19.1064 7.8125C19.1843 7.90077 19.227 8.0151 19.2256 8.13281C19.2241 8.25043 19.1786 8.36292 19.0986 8.44922L10.3496 17.8242C10.3052 17.8719 10.2511 17.9096 10.1914 17.9355C10.1317 17.9615 10.0671 17.9756 10.002 17.9756C9.93685 17.9756 9.87221 17.9615 9.8125 17.9355C9.78253 17.9225 9.75407 17.9065 9.72754 17.8877L9.6543 17.8242L0.904297 8.44922C0.824131 8.36324 0.779259 8.25035 0.777344 8.13281C0.775481 8.01522 0.817113 7.90102 0.894531 7.8125L5.26953 2.8125C5.31399 2.76172 5.36924 2.72033 5.43066 2.69238C5.49198 2.66455 5.55863 2.65055 5.62598 2.65039ZM2.5791 8.85254L8.07129 14.7373L8.32031 14.5791L5.9668 8.69434L5.92871 8.59961H2.34375L2.5791 8.85254ZM14.0352 8.69434L11.6807 14.5791L11.9297 14.7373L17.4219 8.85254L17.6572 8.59961H14.0723L14.0352 8.69434ZM5.7959 3.65137L2.51465 7.40137L2.29688 7.65039H6.0127L6.05762 7.58984L8.87012 3.83984L9.05078 3.59961H5.84082L5.7959 3.65137ZM11.1309 3.83984L13.9434 7.58984L13.9883 7.65039H17.7041L17.4863 7.40137L14.2051 3.65137L14.1602 3.59961H10.9502L11.1309 3.83984Z" fill="url(#paint0_linear_903_4260)" stroke="url(#paint1_linear_903_4260)" stroke-width="0.3"/>
<defs>
<linearGradient id="paint0_linear_903_4260" x1="10.0013" y1="2.5" x2="10.0013" y2="18.1252" gradientUnits="userSpaceOnUse">
<stop/>
<stop offset="0.5" stop-color="#30EDE6"/>
<stop offset="1" stop-color="#666666"/>
</linearGradient>
<linearGradient id="paint1_linear_903_4260" x1="-1" y1="-1.5" x2="15.5" y2="21.5" gradientUnits="userSpaceOnUse">
<stop/>
<stop offset="0.572115" stop-color="#666666"/>
<stop offset="1" stop-color="#30EDE6"/>
</linearGradient>
</defs>
</svg>
