<svg width="72" height="73" viewBox="0 0 72 73" fill="none" xmlns="http://www.w3.org/2000/svg">
<path d="M42.3887 19.1836C42.8677 19.1836 43.3272 19.3742 43.666 19.7129L50.3564 26.4033C50.5243 26.571 50.6582 26.7701 50.749 26.9893C50.8398 27.2084 50.8857 27.4435 50.8857 27.6807C50.8857 27.9179 50.8399 28.153 50.749 28.3721C50.6582 28.5912 50.5243 28.7903 50.3564 28.958L43.666 35.6484C43.3272 35.9871 42.8677 36.1777 42.3887 36.1777C41.9096 36.1777 41.4501 35.9872 41.1113 35.6484C40.7726 35.3097 40.5821 34.8501 40.582 34.3711C40.582 33.9518 40.7278 33.5471 40.9912 33.2256L41.1113 33.0938L43.9961 30.2109L44.7227 29.4863H12.9727V59.3262H45.0439V56.6719C45.0439 56.1932 45.2339 55.734 45.5723 55.3955C45.9107 55.057 46.37 54.8663 46.8486 54.8662C47.3274 54.8662 47.7874 55.0569 48.126 55.3955C48.4643 55.734 48.6543 56.1933 48.6543 56.6719V58.9014C48.6543 59.9715 48.2292 60.9981 47.4727 61.7549C46.7159 62.5116 45.6893 62.9374 44.6191 62.9375H13.3975C12.3273 62.9374 11.3007 62.5116 10.5439 61.7549C9.78736 60.9981 9.3623 59.9715 9.3623 58.9014V29.9102C9.36243 28.8402 9.7875 27.8143 10.5439 27.0576C11.3007 26.3009 12.3273 25.8751 13.3975 25.875H44.7227L43.9961 25.1504L41.1113 22.2676C40.7726 21.9288 40.582 21.4693 40.582 20.9902C40.582 20.5112 40.7726 20.0517 41.1113 19.7129C41.4501 19.3741 41.9096 19.1836 42.3887 19.1836ZM26.7783 10.2646H57.999C59.0691 10.2646 60.0958 10.6897 60.8525 11.4463C61.6093 12.203 62.0351 13.2296 62.0352 14.2998V43.291C62.0352 44.3613 61.6093 45.3877 60.8525 46.1445C60.0958 46.9012 59.0692 47.3262 57.999 47.3262H26.6748L27.4004 48.0518L30.2861 50.9346C30.4537 51.1022 30.587 51.3015 30.6777 51.5205C30.7684 51.7396 30.8145 51.9748 30.8145 52.2119C30.8144 52.449 30.7685 52.6843 30.6777 52.9033C30.587 53.1224 30.4538 53.3216 30.2861 53.4893C30.1184 53.657 29.9184 53.7901 29.6992 53.8809C29.4802 53.9715 29.2449 54.0186 29.0078 54.0186C28.7709 54.0185 28.5363 53.9715 28.3174 53.8809C28.0982 53.7901 27.8982 53.657 27.7305 53.4893L21.041 46.7988H21.04C20.8723 46.6312 20.7393 46.432 20.6484 46.2129C20.5576 45.9938 20.5108 45.7587 20.5107 45.5215C20.5107 45.2843 20.5576 45.0492 20.6484 44.8301C20.7392 44.611 20.8723 44.4117 21.04 44.2441H21.041L27.7305 37.5537C28.0691 37.215 28.5289 37.0245 29.0078 37.0244C29.4869 37.0244 29.9473 37.2149 30.2861 37.5537C30.6248 37.8925 30.8145 38.3521 30.8145 38.8311C30.8144 39.2503 30.6687 39.6541 30.4053 39.9756L30.2861 40.1084L27.4004 42.9902L26.6748 43.7158H58.4238V13.875H26.3535V16.5303C26.3535 17.009 26.1627 17.4681 25.8242 17.8066C25.4857 18.1451 25.0265 18.335 24.5479 18.335C24.0692 18.3349 23.61 18.1451 23.2715 17.8066C22.933 17.4681 22.7432 17.009 22.7432 16.5303V14.2998C22.7432 13.2296 23.1681 12.203 23.9248 11.4463C24.6816 10.6896 25.7081 10.2646 26.7783 10.2646Z" fill="url(#paint0_linear_1173_1496)" stroke="url(#paint1_linear_1173_1496)" stroke-width="0.849558"/>
<defs>
<linearGradient id="paint0_linear_1173_1496" x1="35.6986" y1="9.83984" x2="35.6986" y2="63.362" gradientUnits="userSpaceOnUse">
<stop/>
<stop offset="0.5" stop-color="#30EDE6"/>
<stop offset="1" stop-color="#666666"/>
</linearGradient>
<linearGradient id="paint1_linear_1173_1496" x1="-0.407634" y1="5.59206" x2="35.6986" y2="63.362" gradientUnits="userSpaceOnUse">
<stop/>
<stop offset="0.5" stop-color="#30EDE6"/>
<stop offset="1" stop-color="#666666"/>
</linearGradient>
</defs>
</svg>
