<svg width="73" height="73" viewBox="0 0 73 73" fill="none" xmlns="http://www.w3.org/2000/svg">
<path d="M43.0371 19.1128C43.5162 19.1128 43.9757 19.3034 44.3145 19.6421L51.0049 26.3325C51.1727 26.5002 51.3066 26.6993 51.3975 26.9185C51.4883 27.1376 51.5342 27.3727 51.5342 27.6099C51.5342 27.8471 51.4883 28.0821 51.3975 28.3013C51.3066 28.5204 51.1727 28.7195 51.0049 28.8872L44.3145 35.5776C43.9757 35.9163 43.5161 36.1069 43.0371 36.1069C42.5581 36.1069 42.0985 35.9164 41.7598 35.5776C41.421 35.2389 41.2305 34.7793 41.2305 34.3003C41.2305 33.881 41.3762 33.4763 41.6396 33.1548L41.7598 33.0229L44.6445 30.1401L45.3711 29.4155H13.6211V59.2554H45.6924V56.6011C45.6924 56.1224 45.8823 55.6632 46.2207 55.3247C46.5592 54.9862 47.0184 54.7955 47.4971 54.7954C47.9759 54.7954 48.4359 54.9861 48.7744 55.3247C49.1127 55.6632 49.3027 56.1225 49.3027 56.6011V58.8306C49.3027 59.9007 48.8777 60.9273 48.1211 61.6841C47.3644 62.4408 46.3377 62.8666 45.2676 62.8667H14.0459C12.9757 62.8666 11.9491 62.4408 11.1924 61.6841C10.4358 60.9273 10.0107 59.9007 10.0107 58.8306V29.8394C10.0109 28.7694 10.4359 27.7435 11.1924 26.9868C11.9491 26.2301 12.9757 25.8043 14.0459 25.8042H45.3711L44.6445 25.0796L41.7598 22.1968C41.421 21.858 41.2305 21.3985 41.2305 20.9194C41.2305 20.4404 41.421 19.9809 41.7598 19.6421C42.0985 19.3033 42.558 19.1128 43.0371 19.1128ZM27.4268 10.1938H58.6475C59.7176 10.1938 60.7442 10.6189 61.501 11.3755C62.2577 12.1322 62.6835 13.1588 62.6836 14.229V43.2202C62.6836 44.2905 62.2578 45.3169 61.501 46.0737C60.7442 46.8304 59.7177 47.2554 58.6475 47.2554H27.3232L28.0488 47.981L30.9346 50.8638C31.1021 51.0314 31.2355 51.2307 31.3262 51.4497C31.4168 51.6688 31.4629 51.904 31.4629 52.1411C31.4628 52.3782 31.4169 52.6135 31.3262 52.8325C31.2354 53.0516 31.1022 53.2508 30.9346 53.4185C30.7668 53.5862 30.5668 53.7193 30.3477 53.8101C30.1286 53.9007 29.8933 53.9478 29.6562 53.9478C29.4193 53.9477 29.1847 53.9007 28.9658 53.8101C28.7466 53.7193 28.5467 53.5862 28.3789 53.4185L21.6895 46.728H21.6885C21.5207 46.5604 21.3877 46.3611 21.2969 46.1421C21.2061 45.923 21.1592 45.6879 21.1592 45.4507C21.1592 45.2135 21.2061 44.9784 21.2969 44.7593C21.3877 44.5402 21.5208 44.3409 21.6885 44.1733H21.6895L28.3789 37.4829C28.7176 37.1442 29.1773 36.9537 29.6562 36.9536C30.1354 36.9536 30.5958 37.1441 30.9346 37.4829C31.2732 37.8217 31.4629 38.2813 31.4629 38.7603C31.4629 39.1795 31.3171 39.5833 31.0537 39.9048L30.9346 40.0376L28.0488 42.9194L27.3232 43.645H59.0723V13.8042H27.002V16.4595C27.0019 16.9382 26.8112 17.3973 26.4727 17.7358C26.1341 18.0743 25.675 18.2642 25.1963 18.2642C24.7176 18.2641 24.2584 18.0743 23.9199 17.7358C23.5814 17.3973 23.3916 16.9382 23.3916 16.4595V14.229C23.3917 13.1588 23.8165 12.1322 24.5732 11.3755C25.33 10.6188 26.3566 10.1938 27.4268 10.1938Z" fill="url(#paint0_linear_1735_2745)" stroke="url(#paint1_linear_1735_2745)" stroke-width="0.849558"/>
<defs>
<linearGradient id="paint0_linear_1735_2745" x1="5.13672" y1="5.5" x2="36.347" y2="63.2912" gradientUnits="userSpaceOnUse">
<stop stop-color="#D4D4D4"/>
<stop offset="0.5" stop-color="#00A6A6"/>
<stop offset="1" stop-color="#D4D4D4"/>
</linearGradient>
<linearGradient id="paint1_linear_1735_2745" x1="0.240804" y1="5.52126" x2="36.347" y2="63.2912" gradientUnits="userSpaceOnUse">
<stop stop-color="#30EDE6"/>
<stop offset="0.5" stop-color="#30EDE6"/>
<stop offset="1" stop-color="#A1A1A1"/>
</linearGradient>
</defs>
</svg>
