<svg width="73" height="73" viewBox="0 0 73 73" fill="none" xmlns="http://www.w3.org/2000/svg">
<path d="M35.6172 7.9624C42.6839 7.78507 49.5656 10.2322 54.9346 14.8306L55.2334 15.0864L55.5117 14.8081L61.8311 8.48584C62.1698 8.1471 62.6294 7.9566 63.1084 7.95654C63.5875 7.95654 64.047 8.14711 64.3857 8.48584C64.7245 8.82463 64.915 9.28406 64.915 9.76318C64.915 10.2423 64.7245 10.7017 64.3857 11.0405L37.625 37.8013C37.2862 38.14 36.8267 38.3305 36.3477 38.3306C35.8685 38.3306 35.4091 38.1401 35.0703 37.8013C34.7316 37.4625 34.541 37.003 34.541 36.5239C34.5411 36.0449 34.7316 35.5853 35.0703 35.2466L43.165 27.1519L42.7314 26.8647C40.5576 25.4271 37.9621 24.765 35.3652 24.9858C32.7683 25.2068 30.3217 26.2982 28.4219 28.0825C26.5221 29.8668 25.2796 32.2399 24.8965 34.8179C24.5134 37.3959 25.0118 40.0279 26.3105 42.2876C27.6094 44.5473 29.6332 46.3025 32.0537 47.269C34.4741 48.2355 37.1495 48.3571 39.6475 47.6138C42.1456 46.8703 44.3203 45.3052 45.8184 43.1724C47.2227 41.1729 47.9558 38.784 47.9199 36.3491L47.9023 35.8618C47.889 35.6249 47.9227 35.3876 48.001 35.1636C48.0794 34.9394 48.2012 34.7323 48.3594 34.5552C48.5176 34.378 48.7098 34.2335 48.9238 34.1304C49.1377 34.0274 49.3704 33.9679 49.6074 33.9546C50.0863 33.9278 50.5564 34.0921 50.9141 34.4116C51.091 34.5698 51.2349 34.7613 51.3379 34.9751C51.441 35.1891 51.5013 35.4216 51.5146 35.6587V35.6597C51.7123 39.111 50.7261 42.5261 48.7197 45.3413C46.7133 48.1566 43.8066 50.2038 40.4795 51.1431C37.1525 52.0823 33.6043 51.8577 30.4219 50.5073C27.2395 49.157 24.6129 46.7615 22.9766 43.7163C21.3402 40.6711 20.7925 37.1584 21.4229 33.7593C22.0533 30.3601 23.8238 27.277 26.4434 25.021C29.0629 22.765 32.3741 21.4705 35.8291 21.3511C39.2841 21.2317 42.6763 22.295 45.4453 24.3647L45.7402 24.5854L46 24.3247L52.3418 17.9829L52.6719 17.6538L52.3135 17.356C47.5854 13.4304 41.5733 11.3906 35.4326 11.6274C29.292 11.8643 23.4556 14.3612 19.0439 18.6392C14.6323 22.9172 11.9558 28.6746 11.5303 34.8052C11.1048 40.9356 12.9591 47.0075 16.7373 51.854C20.5156 56.7005 25.9519 59.98 32.001 61.063C38.05 62.146 44.2857 60.9557 49.5107 57.7212C54.7358 54.4867 58.5816 49.4358 60.3096 43.5386C62.0375 37.6412 61.5264 31.313 58.873 25.77C58.6667 25.3379 58.6403 24.8416 58.7998 24.3901C58.9594 23.9387 59.2916 23.5693 59.7236 23.3628C60.1557 23.1563 60.652 23.1301 61.1035 23.2896C61.5551 23.4491 61.9253 23.7812 62.1318 24.2134C65.1811 30.5908 65.76 37.8718 63.7568 44.6509C61.7536 51.4301 57.3101 57.2276 51.2842 60.9233C45.2583 64.619 38.0766 65.9512 31.126 64.6636C24.1752 63.3758 17.9476 59.5589 13.6455 53.9497C9.34342 48.3405 7.27088 41.3365 7.8291 34.2896C8.38738 27.2427 11.5365 20.6524 16.668 15.7905C21.7996 10.9286 28.5504 8.13974 35.6172 7.9624Z" fill="url(#paint0_linear_1735_2742)" stroke="url(#paint1_linear_1735_2742)" stroke-width="0.849558"/>
<defs>
<linearGradient id="paint0_linear_1735_2742" x1="36.3345" y1="7.52881" x2="36.3345" y2="65.5669" gradientUnits="userSpaceOnUse">
<stop stop-color="#018284"/>
<stop offset="0.5" stop-color="#30EDE6"/>
<stop offset="1" stop-color="#A1A1A1"/>
</linearGradient>
<linearGradient id="paint1_linear_1735_2742" x1="36.3345" y1="7.52881" x2="76.2764" y2="5.52127" gradientUnits="userSpaceOnUse">
<stop stop-color="#30EDE6"/>
<stop offset="0.5" stop-color="#30EDE6"/>
<stop offset="1" stop-color="#666666"/>
</linearGradient>
</defs>
</svg>
