<svg width="72" height="72" viewBox="0 0 72 72" fill="none" xmlns="http://www.w3.org/2000/svg">
<path d="M34.9688 7.39746C42.0355 7.22013 48.9172 9.66729 54.2861 14.2656L54.585 14.5215L54.8633 14.2432L61.1826 7.9209C61.5214 7.58216 61.9809 7.39166 62.46 7.3916C62.939 7.3916 63.3985 7.58216 63.7373 7.9209C64.0761 8.25969 64.2666 8.71912 64.2666 9.19824C64.2666 9.67735 64.0761 10.1368 63.7373 10.4756L36.9766 37.2363C36.6378 37.5751 36.1783 37.7656 35.6992 37.7656C35.2201 37.7656 34.7607 37.5751 34.4219 37.2363C34.0831 36.8975 33.8926 36.4381 33.8926 35.959C33.8927 35.48 34.0831 35.0204 34.4219 34.6816L42.5166 26.5869L42.083 26.2998C39.9092 24.8621 37.3137 24.2001 34.7168 24.4209C32.1198 24.6418 29.6732 25.7333 27.7734 27.5176C25.8737 29.3019 24.6312 31.6749 24.248 34.2529C23.8649 36.8309 24.3633 39.463 25.6621 41.7227C26.961 43.9824 28.9847 45.7375 31.4053 46.7041C33.8256 47.6706 36.5011 47.7922 38.999 47.0488C41.4971 46.3053 43.6718 44.7403 45.1699 42.6074C46.5742 40.6079 47.3074 38.219 47.2715 35.7842L47.2539 35.2969C47.2406 35.0599 47.2742 34.8227 47.3525 34.5986C47.431 34.3745 47.5527 34.1673 47.7109 33.9902C47.8692 33.8131 48.0614 33.6685 48.2754 33.5654C48.4893 33.4624 48.7219 33.403 48.959 33.3896C49.4378 33.3628 49.908 33.5271 50.2656 33.8467C50.4426 34.0048 50.5864 34.1964 50.6895 34.4102C50.7925 34.6241 50.8529 34.8566 50.8662 35.0938V35.0947C51.0639 38.546 50.0776 41.9612 48.0713 44.7764C46.0648 47.5917 43.1581 49.6388 39.8311 50.5781C36.504 51.5174 32.9559 51.2927 29.7734 49.9424C26.5911 48.592 23.9645 46.1965 22.3281 43.1514C20.6918 40.1061 20.1441 36.5934 20.7744 33.1943C21.4048 29.7952 23.1754 26.7121 25.7949 24.4561C28.4144 22.2 31.7256 20.9055 35.1807 20.7861C38.6356 20.6668 42.0279 21.7301 44.7969 23.7998L45.0918 24.0205L45.3516 23.7598L51.6934 17.418L52.0234 17.0889L51.665 16.791C46.937 12.8655 40.9249 10.8257 34.7842 11.0625C28.6436 11.2993 22.8072 13.7963 18.3955 18.0742C13.9838 22.3523 11.3074 28.1097 10.8818 34.2402C10.4564 40.3706 12.3107 46.4426 16.0889 51.2891C19.8671 56.1356 25.3035 59.415 31.3525 60.498C37.4015 61.581 43.6372 60.3907 48.8623 57.1562C54.0873 53.9217 57.9332 48.8709 59.6611 42.9736C61.3891 37.0763 60.8779 30.748 58.2246 25.2051C58.0182 24.773 57.9918 24.2767 58.1514 23.8252C58.3109 23.3737 58.6432 23.0043 59.0752 22.7979C59.5073 22.5914 60.0035 22.5651 60.4551 22.7246C60.9067 22.8842 61.2769 23.2163 61.4834 23.6484C64.5326 30.0258 65.1116 37.3068 63.1084 44.0859C61.1051 50.8651 56.6617 56.6626 50.6357 60.3584C44.6098 64.0541 37.4282 65.3863 30.4775 64.0986C23.5268 62.8109 17.2992 58.994 12.9971 53.3848C8.69498 47.7756 6.62244 40.7715 7.18066 33.7246C7.73894 26.6778 10.888 20.0874 16.0195 15.2256C21.1511 10.3637 27.9019 7.5748 34.9688 7.39746Z" fill="url(#paint0_linear_1173_1472)" stroke="url(#paint1_linear_1173_1472)" stroke-width="0.849558"/>
<defs>
<linearGradient id="paint0_linear_1173_1472" x1="35.6861" y1="6.96387" x2="35.6861" y2="65.002" gradientUnits="userSpaceOnUse">
<stop/>
<stop offset="0.5" stop-color="#30EDE6"/>
<stop offset="1" stop-color="#666666"/>
</linearGradient>
<linearGradient id="paint1_linear_1173_1472" x1="35.6861" y1="6.96387" x2="75.628" y2="4.95633" gradientUnits="userSpaceOnUse">
<stop/>
<stop offset="0.5" stop-color="#30EDE6"/>
<stop offset="1" stop-color="#666666"/>
</linearGradient>
</defs>
</svg>
