<svg width="24" height="25" viewBox="0 0 24 25" fill="none" xmlns="http://www.w3.org/2000/svg">
<path d="M20.133 19.9552L14.2643 10.7321L20.0552 4.3618C20.1862 4.21416 20.2537 4.02086 20.2431 3.82379C20.2325 3.62672 20.1446 3.44177 19.9986 3.30904C19.8525 3.17631 19.66 3.10649 19.4628 3.11473C19.2657 3.12297 19.0797 3.2086 18.9452 3.35305L13.4289 9.42055L9.633 3.45523C9.56531 3.34869 9.47183 3.26096 9.36121 3.20016C9.25059 3.13936 9.12642 3.10746 9.00019 3.10742H4.50019C4.36571 3.10736 4.2337 3.14345 4.11796 3.21192C4.00222 3.28038 3.90702 3.37871 3.84232 3.4966C3.77763 3.61449 3.74582 3.7476 3.75023 3.882C3.75463 4.01641 3.7951 4.14715 3.86738 4.26055L9.73613 13.4827L3.94519 19.8577C3.87756 19.9304 3.82503 20.0157 3.79063 20.1088C3.75623 20.2019 3.74065 20.3009 3.74479 20.4001C3.74894 20.4992 3.77272 20.5966 3.81477 20.6865C3.85681 20.7764 3.91628 20.8571 3.98973 20.9238C4.06318 20.9906 4.14915 21.0421 4.24265 21.0753C4.33615 21.1086 4.43533 21.123 4.53443 21.1177C4.63354 21.1124 4.7306 21.0874 4.81999 21.0443C4.90938 21.0012 4.98932 20.9407 5.05519 20.8665L10.5714 14.799L14.3674 20.7643C14.4356 20.87 14.5293 20.9568 14.6399 21.0167C14.7505 21.0767 14.8744 21.1079 15.0002 21.1074H19.5002C19.6345 21.1074 19.7664 21.0713 19.882 21.0028C19.9976 20.9344 20.0927 20.8362 20.1573 20.7185C20.222 20.6007 20.2539 20.4678 20.2496 20.3335C20.2453 20.1993 20.205 20.0686 20.133 19.9552ZM15.4118 19.6074L5.86613 4.60742H8.58488L18.1343 19.6074H15.4118Z" fill="#454545"/>
</svg>
