<svg width="19" height="20" viewBox="0 0 19 20" fill="none" xmlns="http://www.w3.org/2000/svg">
<path d="M15.6913 16.2404L11.1172 9.05198L15.6306 4.08702C15.7327 3.97196 15.7853 3.8213 15.7771 3.6677C15.7688 3.51411 15.7003 3.36996 15.5865 3.26651C15.4727 3.16306 15.3226 3.10865 15.169 3.11507C15.0153 3.12149 14.8703 3.18823 14.7655 3.30081L10.4662 8.02976L7.50769 3.38046C7.45493 3.29742 7.38207 3.22904 7.29586 3.18165C7.20964 3.13427 7.11286 3.10941 7.01448 3.10938H3.50723C3.40242 3.10932 3.29952 3.13745 3.20932 3.19082C3.11911 3.24418 3.04491 3.32081 2.99449 3.4127C2.94407 3.50458 2.91928 3.60833 2.92271 3.71308C2.92615 3.81783 2.95768 3.91973 3.01402 4.00811L7.58807 11.1958L3.07466 16.1644C3.02196 16.221 2.98101 16.2875 2.9542 16.3601C2.92739 16.4327 2.91525 16.5098 2.91848 16.5871C2.92171 16.6644 2.94024 16.7403 2.97301 16.8103C3.00578 16.8804 3.05213 16.9433 3.10938 16.9953C3.16662 17.0473 3.23363 17.0875 3.3065 17.1134C3.37937 17.1393 3.45667 17.1506 3.53391 17.1464C3.61115 17.1422 3.6868 17.1228 3.75647 17.0892C3.82615 17.0556 3.88845 17.0085 3.93979 16.9506L8.2391 12.2217L11.1976 16.871C11.2508 16.9533 11.3239 17.021 11.41 17.0677C11.4962 17.1145 11.5928 17.1388 11.6908 17.1384H15.1981C15.3028 17.1384 15.4055 17.1102 15.4956 17.0569C15.5857 17.0036 15.6599 16.927 15.7103 16.8353C15.7607 16.7435 15.7855 16.6399 15.7821 16.5352C15.7788 16.4306 15.7474 16.3288 15.6913 16.2404ZM12.0116 15.9693L4.57182 4.27846H6.69079L14.1335 15.9693H12.0116Z" fill="white"/>
</svg>
