<svg xmlns="http://www.w3.org/2000/svg" xmlns:xlink="http://www.w3.org/1999/xlink" version="1.0" x="0" y="0" width="2400" height="581.4340618507856" viewBox="34.5847900390625 92.19374542236328 270.830419921875 65.61251296997071" preserveAspectRatio="xMidYMid meet" color-interpolation-filters="sRGB"><g><defs><linearGradient id="92" x1="0%" y1="0%" x2="100%" y2="0%"><stop offset="0%" stop-color="#fa71cd"></stop> <stop offset="100%" stop-color="#9b59b6"></stop></linearGradient><linearGradient id="93" x1="0%" y1="0%" x2="100%" y2="0%"><stop offset="0%" stop-color="#f9d423"></stop> <stop offset="100%" stop-color="#f83600"></stop></linearGradient><linearGradient id="94" x1="0%" y1="0%" x2="100%" y2="0%"><stop offset="0%" stop-color="#0064d2"></stop> <stop offset="100%" stop-color="#1cb0f6"></stop></linearGradient><linearGradient id="95" x1="0%" y1="0%" x2="100%" y2="0%"><stop offset="0%" stop-color="#f00978"></stop> <stop offset="100%" stop-color="#3f51b1"></stop></linearGradient><linearGradient id="96" x1="0%" y1="0%" x2="100%" y2="0%"><stop offset="0%" stop-color="#7873f5"></stop> <stop offset="100%" stop-color="#ec77ab"></stop></linearGradient><linearGradient id="97" x1="0%" y1="0%" x2="100%" y2="0%"><stop offset="0%" stop-color="#f9d423"></stop> <stop offset="100%" stop-color="#e14fad"></stop></linearGradient><linearGradient id="98" x1="0%" y1="0%" x2="100%" y2="0%"><stop offset="0%" stop-color="#009efd"></stop> <stop offset="100%" stop-color="#2af598"></stop></linearGradient><linearGradient id="99" x1="0%" y1="0%" x2="100%" y2="0%"><stop offset="0%" stop-color="#ffcc00"></stop> <stop offset="100%" stop-color="#00b140"></stop></linearGradient><linearGradient id="100" x1="0%" y1="0%" x2="100%" y2="0%"><stop offset="0%" stop-color="#d51007"></stop> <stop offset="100%" stop-color="#ff8177"></stop></linearGradient><linearGradient id="102" x1="0%" y1="0%" x2="100%" y2="0%"><stop offset="0%" stop-color="#a2b6df"></stop> <stop offset="100%" stop-color="#0c3483"></stop></linearGradient><linearGradient id="103" x1="0%" y1="0%" x2="100%" y2="0%"><stop offset="0%" stop-color="#7ac5d8"></stop> <stop offset="100%" stop-color="#eea2a2"></stop></linearGradient><linearGradient id="104" x1="0%" y1="0%" x2="100%" y2="0%"><stop offset="0%" stop-color="#00ecbc"></stop> <stop offset="100%" stop-color="#007adf"></stop></linearGradient><linearGradient id="105" x1="0%" y1="0%" x2="100%" y2="0%"><stop offset="0%" stop-color="#b88746"></stop> <stop offset="100%" stop-color="#fdf5a6"></stop></linearGradient></defs><g fill="#ffffff" class="icon-text-wrapper icon-svg-group iconsvg" transform="translate(37.239990234375,94.84894371032715)"><g class="iconsvg-imagesvg" transform="translate(0,0)"><g><rect fill="#ffffff" fill-opacity="0" stroke-width="2" x="0" y="0" width="60" height="60.302113589081294" class="image-rect"></rect> <svg filter="url(#colors4555791459)" x="0" y="0" width="60" height="60.302113589081294" filtersec="colorsf5912367704" class="image-svg-svg primary" style="overflow: visible;"><svg xmlns="http://www.w3.org/2000/svg" xmlns:xlink="http://www.w3.org/1999/xlink" version="1.1" x="0px" y="0px" viewBox="7.547004699707031 6.768002986907959 86.03099822998047 86.46399688720703" enable-background="new 0 0 100 100" xml:space="preserve"><path d="M50.562,93.232c23.719,0,43.016-19.297,43.016-43.015c0-21.634-16.057-39.581-36.877-42.57  c-1.949-0.568-4.008-0.879-6.139-0.879c-23.718,0-43.015,19.297-43.015,43.015c0,21.634,16.057,39.581,36.876,42.57  C46.374,92.921,48.433,93.232,50.562,93.232z M91.708,50.217c0,22.688-18.458,41.145-41.146,41.145  c-11.086,0-20.104-9.019-20.104-20.105c0-11.085,9.019-20.105,20.104-20.105c12.117,0,21.976-9.858,21.976-21.975  c0-7.594-3.872-14.3-9.745-18.249C79.527,16.147,91.708,31.786,91.708,50.217z M59.914,29.177c0,5.165-4.187,9.351-9.352,9.351  c-5.164,0-9.351-4.187-9.351-9.351s4.187-9.351,9.351-9.351C55.728,19.826,59.914,24.012,59.914,29.177z"></path><circle cx="50.563" cy="71.257" r="9.351"></circle></svg></svg> <defs><filter id="colors4555791459"><feColorMatrix type="matrix" values="0 0 0 0 0.99609375  0 0 0 0 0.99609375  0 0 0 0 0.99609375  0 0 0 1 0" class="icon-feColorMatrix "></feColorMatrix></filter> <filter id="colorsf5912367704"><feColorMatrix type="matrix" values="0 0 0 0 0.99609375  0 0 0 0 0.99609375  0 0 0 0 0.99609375  0 0 0 1 0" class="icon-fecolormatrix"></feColorMatrix></filter> <filter id="colorsb102972841"><feColorMatrix type="matrix" values="0 0 0 0 0  0 0 0 0 0  0 0 0 0 0  0 0 0 1 0" class="icon-fecolormatrix"></feColorMatrix></filter></defs></g></g> <g transform="translate(67,9.231056213378906)"><g fill-rule="" class="tp-name iconsvg-namesvg"><g transform="scale(1)"><g><path d="M21.72 0L19.88-5.32 8.76-5.32 6.92 0 1.04 0 11.08-27.96 17.6-27.96 27.64 0 21.72 0ZM10.28-9.8L18.36-9.8 14.32-21.48 10.28-9.8ZM43.68-22.48Q47.64-22.48 50.08-19.98 52.52-17.48 52.52-13L52.52-13 52.52 0 46.92 0 46.92-12.24Q46.92-14.88 45.6-16.3 44.28-17.72 42-17.72L42-17.72Q39.68-17.72 38.34-16.3 37-14.88 37-12.24L37-12.24 37 0 31.4 0 31.4-22.16 37-22.16 37-19.4Q38.12-20.84 39.86-21.66 41.6-22.48 43.68-22.48L43.68-22.48ZM69.32-17.56L64.36-17.56 64.36-6.84Q64.36-5.72 64.9-5.22 65.44-4.72 66.72-4.72L66.72-4.72 69.32-4.72 69.32 0 65.8 0Q58.72 0 58.72-6.88L58.72-6.88 58.72-17.56 56.08-17.56 56.08-22.16 58.72-22.16 58.72-27.64 64.36-27.64 64.36-22.16 69.32-22.16 69.32-17.56ZM76.2-24.8Q74.72-24.8 73.74-25.74 72.76-26.68 72.76-28.08L72.76-28.08Q72.76-29.48 73.74-30.42 74.72-31.36 76.2-31.36L76.2-31.36Q77.68-31.36 78.66-30.42 79.64-29.48 79.64-28.08L79.64-28.08Q79.64-26.68 78.66-25.74 77.68-24.8 76.2-24.8L76.2-24.8ZM73.36-22.16L78.96-22.16 78.96 0 73.36 0 73.36-22.16ZM96.76-22.48Q100.72-22.48 103.16-19.98 105.6-17.48 105.6-13L105.6-13 105.6 0 100 0 100-12.24Q100-14.88 98.68-16.3 97.36-17.72 95.08-17.72L95.08-17.72Q92.76-17.72 91.42-16.3 90.08-14.88 90.08-12.24L90.08-12.24 90.08 0 84.48 0 84.48-22.16 90.08-22.16 90.08-19.4Q91.2-20.84 92.94-21.66 94.68-22.48 96.76-22.48L96.76-22.48ZM120.76 0.36Q117.56 0.36 115-1.06 112.44-2.48 110.98-5.08 109.52-7.68 109.52-11.08L109.52-11.08Q109.52-14.48 111.02-17.08 112.52-19.68 115.12-21.1 117.72-22.52 120.92-22.52L120.92-22.52Q124.12-22.52 126.72-21.1 129.32-19.68 130.82-17.08 132.32-14.48 132.32-11.08L132.32-11.08Q132.32-7.68 130.78-5.08 129.24-2.48 126.62-1.06 124 0.36 120.76 0.36L120.76 0.36ZM120.76-4.52Q122.28-4.52 123.62-5.26 124.96-6 125.76-7.48 126.56-8.96 126.56-11.08L126.56-11.08Q126.56-14.24 124.9-15.94 123.24-17.64 120.84-17.64L120.84-17.64Q118.44-17.64 116.82-15.94 115.2-14.24 115.2-11.08L115.2-11.08Q115.2-7.92 116.78-6.22 118.36-4.52 120.76-4.52L120.76-4.52ZM163.96-22.48Q168.04-22.48 170.54-19.98 173.04-17.48 173.04-13L173.04-13 173.04 0 167.44 0 167.44-12.24Q167.44-14.84 166.12-16.22 164.8-17.6 162.52-17.6L162.52-17.6Q160.24-17.6 158.9-16.22 157.56-14.84 157.56-12.24L157.56-12.24 157.56 0 151.96 0 151.96-12.24Q151.96-14.84 150.64-16.22 149.32-17.6 147.04-17.6L147.04-17.6Q144.72-17.6 143.38-16.22 142.04-14.84 142.04-12.24L142.04-12.24 142.04 0 136.44 0 136.44-22.16 142.04-22.16 142.04-19.48Q143.12-20.88 144.82-21.68 146.52-22.48 148.56-22.48L148.56-22.48Q151.16-22.48 153.2-21.38 155.24-20.28 156.36-18.24L156.36-18.24Q157.44-20.16 159.5-21.32 161.56-22.48 163.96-22.48L163.96-22.48ZM193.6-22.16L199.56-22.16 185.84 10.48 179.88 10.48 184.68-0.56 175.8-22.16 182.08-22.16 187.8-6.68 193.6-22.16Z" transform="translate(-1.0399999618530273, 31.360000610351562)"></path></g> </g></g> </g></g><defs v-gra="od"></defs></g></svg>